<?xml version="1.0" encoding="utf-8"?>
<!-- Generator: Adobe Illustrator 22.1.0, SVG Export Plug-In . SVG Version: 6.00 Build 0)  -->
<svg version="1.1" id="Capa_1" xmlns="http://www.w3.org/2000/svg" xmlns:xlink="http://www.w3.org/1999/xlink" x="0px" y="0px"
	 viewBox="0 0 82 22.6" style="enable-background:new 0 0 82 22.6;" xml:space="preserve">
<style type="text/css">
	.st0{fill:#6D6D6D;}
</style>
<g>
	<g class="st19">
		<defs>
			<rect id="SVGID_3_" x="-1170.6" y="-595.7" class="st19" width="943.6" height="842"/>
		</defs>
		<clipPath id="SVGID_2_">
			<use xlink:href="#SVGID_3_"  style="overflow:visible;"/>
		</clipPath>
		<path style="clip-path:url(#SVGID_2_);fill:#FFFFFF;" d="M16.2-39.8c0,0-7.1,11.4-3.6,29.9C15.7-1.5,19,1.5,22.5,5.7
			s7.3,13.7,9.1,8.3s7.9-26.2,6.4-31.6c-1.6-5.5-4.6-11-9.1-15.2C24.5-37,18.8-47.3,16.2-39.8"/>
	</g>
</g>
<path class="st0" d="M81.9,2.2c0,0.6,0,1.2,0,1.7c-0.4,0.7-1,1-1.8,1c-0.3,0-0.7,0.1-1,0.1c-0.9,0-1.2,0.3-1.2,1.2
	c0,1.2,0,1.2,1.1,1.2c0.4,0,0.7,0,1.1,0.1c0.7,0.1,0.9,0.4,1,1c0,0.2,0.1,0.3,0.1,0.5c0.1,1.4-0.4,1.9-1.8,1.9c-0.4,0-0.8,0-1.1,0
	c-0.4,0-0.5,0.1-0.5,0.5c0,3,0,6,0,9c0,1.7-0.4,2.1-2.1,2.1c-1.8,0-2.1-0.4-2.1-2.1c0-3,0-5.9,0-8.9c0-0.4-0.1-0.5-0.5-0.5
	c-0.6,0-1.2-0.1-1.4-0.7c-0.3-0.8-0.3-1.6,0.2-2.3c0.3-0.4,0.9-0.5,1.4-0.4c0.4,0,0.5-0.1,0.5-0.5c0-1.1,0.2-2.1,0.4-3.1
	c0.3-1.3,1.1-2,2.4-2.4c1.3-0.3,2.6-0.3,3.9-0.2C81,1.4,81.5,1.7,81.9,2.2z M15.7,13.5c0.6,2,0.7,4.1-0.2,6.1
	c-0.6,1.6-2,2.2-3.5,2.6c-0.9,0.2-1.8,0.3-2.7,0.3c-2.3,0-4.5,0-6.8,0c-0.4,0-0.7,0-1.1,0C0.4,22.3,0,21.9,0,20.9c0-3.1,0-6.3,0-9.4
	c0-2.9,0-5.7,0-8.6c0-1.1,0.4-1.6,1.5-1.6c2.8,0,5.5,0,8.3,0c0.9,0,1.8,0.2,2.6,0.5c1.8,0.6,2.8,1.9,3,3.8c0.1,0.8,0.1,1.5,0.1,2.3
	c-0.1,1.4-0.5,2.6-1.7,3.5C14.7,11.9,15.4,12.6,15.7,13.5z M4.4,9.3c0,0.3,0.1,0.4,0.4,0.4c0.7,0,1.4,0,2.3,0c0.8,0,1.7,0.1,2.6-0.1
	C10.5,9.4,10.9,9,11,8.2c0-0.5,0.1-1,0-1.5c-0.1-1.1-0.5-1.5-1.5-1.6C7.9,4.9,6.3,5,4.7,5C4.4,5,4.4,5.2,4.4,5.4
	C4.4,6.7,4.4,8,4.4,9.3z M11.6,15.2c-0.1-1.2-0.6-1.7-1.9-1.7c-1.6,0-3.2,0-4.9,0c-0.3,0-0.4,0.1-0.4,0.4c0,1.5,0,3,0,4.5
	c0,0.4,0.1,0.4,0.4,0.4c0.8,0,1.6,0,2.5,0c0.8-0.1,1.8,0.1,2.8-0.1c0.8-0.2,1.2-0.5,1.3-1.3C11.6,16.6,11.6,15.9,11.6,15.2z
	 M64.3,13.8c0.5,1.8,0.5,3.6-0.1,5.3c-0.6,1.8-2,2.6-3.7,3c-0.9,0.2-1.8,0.3-2.6,0.3c-2.4,0-4.9,0-7.3,0c-1.7,0-2.1-0.3-2.1-2.1
	c0-5.8,0-11.6,0-17.5c0-1.2,0.4-1.6,1.6-1.6c2.7,0,5.4,0,8.1,0c0.9,0,1.9,0.2,2.8,0.5c1.7,0.7,2.7,1.9,2.9,3.7c0.2,1,0.2,2,0,3.1
	c-0.2,1.1-0.7,2-1.6,2.8C63.3,12,64,12.8,64.3,13.8z M52.9,9.3c0,0.3,0.1,0.4,0.4,0.4c0.7,0,1.4,0,2.3,0c0.8,0,1.7,0.1,2.6-0.1
	C59,9.4,59.4,9,59.4,8.2c0-0.5,0.1-1,0-1.5c-0.1-1.1-0.5-1.5-1.5-1.6c-1.6-0.2-3.2,0-4.8-0.1c-0.3,0-0.3,0.2-0.3,0.4
	C52.9,6.7,52.9,8,52.9,9.3z M60,15.1c-0.2-1.1-0.6-1.5-1.7-1.6c-0.8,0-1.6,0-2.5,0c0,0,0,0,0,0c-0.8,0-1.6,0-2.4,0
	c-0.4,0-0.5,0.1-0.5,0.5c0,1.4,0,2.9,0,4.3c0,0.3,0.1,0.5,0.4,0.5c1.1,0,2.2,0,3.3,0c0.7,0,1.4,0.1,2.1-0.1c0.6-0.1,1.1-0.5,1.2-1.2
	C60.1,16.7,60.1,15.9,60,15.1z M31.2,21c-0.1,1-0.5,1.4-1.4,1.4c-0.6,0-1.2,0.1-1.8-0.1c-0.4-0.1-0.6-0.3-0.8-0.6
	c-0.1-0.3-0.2-0.3-0.5-0.2c-1.2,0.5-2.5,0.9-3.8,1.1c-0.6,0.1-1.3,0.1-1.9-0.1c-1.2-0.3-2-1-2.4-2.1c-0.6-1.4-0.7-2.8-0.7-4.3
	c-0.1-1.8,0-3.7,0.4-5.4c0.1-0.4,0.2-0.8,0.4-1.2c0.6-1.3,1.6-2,3-2.1c1.8-0.1,3.4,0.4,5.1,1.1c0.3,0.1,0.5,0.2,0.6-0.2
	c0.1-0.3,0.4-0.5,0.8-0.6c0.8-0.2,1.6-0.2,2.3,0c0.6,0.1,0.8,0.5,0.9,1.1c0,0.4,0.1,0.7,0.1,1.1c0,1.7,0,3.4,0,5.6
	C31.2,17,31.3,19,31.2,21z M27,17.4c0-0.8,0-1.7,0-2.5c0-0.8,0-1.6,0-2.5c0-0.2,0-0.3-0.2-0.4c-1.1-0.5-2.2-1-3.4-1.1
	c-0.7-0.1-0.9,0.1-1.2,0.9C22,12.6,22,13.4,22,14.2c-0.1,1.3,0,2.7,0.3,4c0.2,0.7,0.4,0.8,1.1,0.8c1.3-0.1,2.4-0.6,3.5-1.1
	C27,17.8,27,17.6,27,17.4z M45.7,9.2c-0.5-1.1-1.4-1.7-2.5-1.8c-0.7-0.1-1.3-0.1-2,0c-1.3,0.2-2.6,0.7-3.8,1.2
	c-0.1-0.8-0.6-1-1.3-1.1c-0.6,0-1.1-0.1-1.7,0c-0.8,0.1-1.1,0.5-1.1,1.2c0,0.2,0,0.5,0,0.7c0,3.7,0,7.3,0,11c0,1.7,0.4,2,2,2.1
	c1.8,0,2.2-0.4,2.2-2.2c0-2.6,0-5.2,0-7.7c0-0.2-0.1-0.4,0.2-0.6c1-0.4,2-0.9,3.1-1.1c1-0.2,1.3,0.1,1.5,1.1c0,0.3,0.1,0.5,0.1,0.8
	c0,1.7,0,3.3,0,5c0,1,0,2.1,0,3.1c0,0.9,0.4,1.3,1.2,1.4c0.6,0.1,1.3,0.1,1.9,0c0.7-0.1,1-0.4,1.1-1.1c0-0.3,0.1-0.5,0.1-0.8
	c0-2.5,0-5.1,0-7.6C46.5,11.6,46.3,10.4,45.7,9.2z M70.4,8.8c-0.1-0.8-0.4-1.2-1.1-1.3c-0.3-0.1-0.7-0.1-1-0.1c-1.7,0-2.1,0.4-2.1,2
	c0,3.6,0,7.3,0,10.9c0,0.3,0,0.6,0.1,1c0.2,0.7,0.5,1,1.1,1c0.5,0.1,1,0.1,1.5,0c1.1-0.1,1.4-0.4,1.5-1.6c0.1-2,0-4,0-5.9
	c0-0.3,0-0.6,0-1C70.4,12.3,70.5,10.6,70.4,8.8z M71.1,3.4c0,1.7-1.4,3.2-3,3.1c-0.1,0-0.2,0-0.3,0c-1.3-0.3-1.9-1.3-2.2-2.5
	c-0.3-1.2,0.1-2.3,1.1-3c0.9-0.6,2.2-0.7,3.1-0.1C70.6,1.5,71.1,2.4,71.1,3.4z M69.3,3.2c0-0.8-0.6-1.4-1.3-1.4
	c-0.7,0-1.3,0.6-1.3,1.3c0,0.8,0.6,1.5,1.3,1.5C68.6,4.7,69.3,4,69.3,3.2z"/>
</svg>
