<?xml version="1.0" encoding="utf-8"?>
<!-- Generator: Adobe Illustrator 22.1.0, SVG Export Plug-In . SVG Version: 6.00 Build 0)  -->
<svg version="1.1" id="Capa_1" xmlns="http://www.w3.org/2000/svg" xmlns:xlink="http://www.w3.org/1999/xlink" x="0px" y="0px"
	 viewBox="0 0 80 20.2" style="enable-background:new 0 0 80 20.2;" xml:space="preserve">
<style type="text/css">
	.st0{fill:#6D6D6D;}
</style>
<path class="st0" d="M73.9,2.6c2.3,1.1,4.1,2.9,5.5,5c0.9,1.4,0.8,3-0.2,4.3c-2,2.7-4.6,4.8-7.7,6.2c-1.8,0.8-3.9,0-4.9-1.8
	c-0.3-0.5-0.1-0.7,0.3-0.9c0.7-0.3,1.4-0.8,2-1.2c2.1-1.3,3.7-3,4.8-5.2c0.8-1.1,0.6-2.4,0.7-3.6C74.6,4.4,74.1,3.6,73.9,2.6z
	 M68.9,2.6c-0.6,0.5-1.1,1.1-1.5,1.8c-0.4,0.6-0.4,1,0.4,1.3c1.7,0.8,3.3,1.9,4.6,3.4C73.1,8,73,6.7,73.1,5.5c0.1-1-0.4-1.9-0.6-2.8
	C71.1,1.6,70.3,1.6,68.9,2.6z M8,5.5C7.9,6.7,8.1,8,7.3,9.1c-1.1,2.2-2.7,3.9-4.8,5.2c-0.7,0.4-1.3,0.8-2,1.2
	c-0.5,0.2-0.6,0.4-0.3,0.9c1,1.7,3.1,2.6,4.9,1.8c3.1-1.4,5.6-3.4,7.7-6.2c1-1.4,1.1-2.9,0.2-4.3c-1.4-2.1-3.2-3.9-5.5-5
	C7.6,3.6,8.1,4.4,8,5.5z M2.5,2.6C1.8,3.1,1.4,3.8,0.9,4.4c-0.4,0.6-0.4,1,0.4,1.3C3,6.5,4.6,7.6,5.9,9.1C6.6,8,6.5,6.7,6.6,5.5
	c0.1-1-0.4-1.9-0.6-2.8C4.6,1.6,3.8,1.6,2.5,2.6z M61.8,7.4c0.1-0.3,0.1-0.6,0.1-0.9C61.9,6.8,61.9,7.1,61.8,7.4z M48.8,1.5
	c-0.1-0.2-0.3-0.2-0.5-0.2c-0.1,0-0.1,0-0.2,0C48,1.2,47.9,1,47.8,0.9c-2.1-0.7-4.2-1-6.3-0.4c-3.7,0.5-7,3.7-7.9,7.7
	c-0.6,2.6-0.8,5.3,0.4,7.8c1.7,3.5,7.9,5.3,11.3,3.2c0.4-0.3,0.8-0.6,0.9-1.1c0.3-1,0.5-2,0.8-3.3c-1.7,1.2-3.4,1.8-5.2,1.4
	c-0.7-0.1-1.5-0.1-2.2-0.8c-1.4-1.5-1.6-3.2-1.4-5.1c0.4-4.1,3.5-6.8,7.6-6.3c1.2,0.1,2.3,0.6,3.4,1.3c0.2-0.6,0.3-1.2,0.4-1.7
	C49.7,2.7,49.7,2,48.8,1.5z M30.7,14c-0.2,2.3-1.5,3.8-3.6,4.7c-3.1,1.3-6.3,1.4-9.5,0.7c-1.9-0.4-2.5-1.8-2-4.3
	c0.9-4.5,2-9.1,3-13.6c0.1-0.4,0.2-0.6,0.6-0.7c3.1-0.3,6.1-0.8,9.1,0.2c0.7,0.2,1.4,0.4,1.9,1c2.1,1.6,2.1,4.2,0,6
	c-0.6,0.8-1.6,1-2.6,1.5C29.9,10.4,30.9,11.9,30.7,14z M26,13c-0.2-1.1-1.1-1.5-2.1-1.7c-0.4-0.1-0.9-0.1-1.4-0.1
	c-1.2-0.2-1.9,0.1-2,1.5c0,0.7-0.3,1.4-0.4,2.1c-0.4,1.8-0.3,1.9,1.7,1.8c1,0,2.1-0.2,3.1-0.8C25.9,15.1,26.3,14.1,26,13z M26.5,4.2
	c-1.1-0.6-2.3-0.6-3.5-0.3c-0.9,0.2-0.4,1.2-0.8,1.7c0,0.8-0.5,1.6-0.3,2.5c1.5,0.3,3,0.2,4.3-0.5C27.6,6.7,27.8,4.9,26.5,4.2z
	 M61.8,7.4c0.1-0.3,0.1-0.6,0.1-0.9C61.9,6.8,61.9,7.1,61.8,7.4z M65.4,7.7c-1,3.4-4,5.6-8.1,5.8c-1,0.1-2,0-3,0
	c-0.3,1.4-0.6,2.8-1,4.2c-0.4,1.5-1.1,2.1-2.8,2c-0.3,0-0.5,0-0.8,0c-1.5,0.1-1.5,0.1-1.1-1.4c0.2-0.9,0.4-1.7,0.6-2.6
	c1-4.7,2-9.4,3-14.1c0.1-0.5,0.4-0.7,0.8-0.8c2.9-0.4,5.8-0.7,8.7,0.2C65,2,66.3,4.5,65.4,7.7z M60.4,9.1c0.9-1.2,1.4-2.5,0.9-4
	c-0.4-0.6-1-0.9-1.7-1.2c-0.9,0-1.9,0-2.8,0c-0.7,1.7-0.9,3.6-1.3,5.4c-0.1,0.3,0,0.7,0.3,0.9c1.4,0.3,2.7,0,4-0.6
	C60,9.4,60.2,9.2,60.4,9.1z M61.9,6.4c0,0.3,0,0.6-0.1,0.9C61.9,7.1,61.9,6.8,61.9,6.4z"/>
</svg>
