<?xml version="1.0" encoding="utf-8"?>
<!-- Generator: Adobe Illustrator 22.1.0, SVG Export Plug-In . SVG Version: 6.00 Build 0)  -->
<svg version="1.1" id="Capa_1" xmlns="http://www.w3.org/2000/svg" xmlns:xlink="http://www.w3.org/1999/xlink" x="0px" y="0px"
	 viewBox="0 0 138.8 27" style="enable-background:new 0 0 138.8 27;" xml:space="preserve">
<style type="text/css">
	.st0{fill:#6D6D6D;}
</style>
<path class="st0" d="M26,1.4c0-0.1,0-0.3,0-0.4C26.1,1,26,0.9,26,1c0,0-0.1,0-0.1,0c-0.2,0-0.4,0-0.6,0c-5.9,0-11.9,0-17.8,0
	c-1,0-2.1,0-3.1,0c0,0-0.1,0-0.1,0C2.4,1,1,2.5,1,4.3c0,6.9,0,13.9,0,20.8c0,0.6,0.1,0.7,0.7,0.7c6.9,0,13.9,0,20.8,0
	c2.2,0,3.6-1.4,3.6-3.6c0-6.7,0-13.4,0-20.1C26.1,1.9,26,1.7,26,1.4z M19.6,19c-4,0.7-8.1,1.4-12.1,2.2c-0.6,0.1-0.7,0-0.7-0.6
	c0-4,0-8.1,0-12.1c0-0.4,0.1-0.6,0.6-0.7c4.1-0.7,8.2-1.4,12.2-2.2c0.5-0.1,0.6,0.1,0.6,0.5c0,2,0,4.1,0,6.1c0,2,0,4.1,0,6.1
	C20.2,18.8,20,19,19.6,19z M94.9,9.3c-1.8-1.4-4.4-1.5-6-0.3c-0.5,0.4-0.8,0.8-1.3,1.5c0-0.3,0-0.5,0-0.6c0-1.6,0-3.1,0-4.7
	c0-0.4-0.1-0.5-0.5-0.5c-0.7,0-1.4,0-2.2,0c-0.4,0-0.5,0.1-0.5,0.5c0,3.6,0,7.3,0,10.9c0.1,5,5,7.9,9.4,5.6c2.4-1.2,3.5-3.4,3.6-6
	C97.6,13.2,96.9,10.9,94.9,9.3z M93.8,17.7c-0.6,1.4-1.6,2.1-3,2c-1.6-0.1-2.6-0.9-3-2.3c-0.4-1.5-0.5-2.9,0.1-4.4
	c0.6-1.4,1.8-2.1,3.2-1.9c1.4,0.1,2.3,0.9,2.7,2.5c0.2,0.6,0.2,1.3,0.2,2C94.2,16.2,94.1,16.9,93.8,17.7z M138.6,21.1
	c0.4,0.5,0.3,0.7-0.2,0.9c-1,0.5-2.6,0.2-3.6-0.8c-1.6-1.6-3-3.4-4.4-5.2c-0.2-0.2-0.3-0.5-0.6-0.8c0,0.8,0,1.4,0,2.1
	c0,1.5,0,3,0,4.5c0,0.4-0.1,0.5-0.5,0.5c-0.8,0-1.5,0-2.3,0c-0.3,0-0.5-0.1-0.5-0.5c0-5.5,0-11.1,0-16.6c0-0.4,0.2-0.5,0.5-0.4
	c0.7,0,1.5,0,2.2,0c0.5,0,0.6,0.1,0.6,0.6c0,2.9,0,5.7,0,8.6c0,0.2,0,0.4,0,0.8c0.3-0.3,0.4-0.5,0.6-0.7c1.1-1.4,2.2-2.7,3.3-4
	c0.9-1,2-1.5,3.4-1.4c0.5,0,1,0,1.7,0c-1.9,2-3.6,3.9-5.3,5.9c-0.3,0.3-0.3,0.5,0,0.8C135.2,17.2,136.9,19.2,138.6,21.1z M66,8.8
	c-4.1,1.8-4.7,7.6-2.9,10.4c2.2,3.5,6.4,3.7,9.3,2.7c0.5-0.2,0.7-0.5,0.6-1c-0.1-0.4,0-0.7,0-1.1c0-0.5-0.1-0.6-0.6-0.4
	c-1.2,0.5-2.5,0.6-3.8,0.4c-1.5-0.2-2.7-1.3-3-2.6c-0.1-0.3,0-0.5,0.3-0.5c0.7,0,1.4,0,1.8,0c1.8,0,3.3,0,4.8-0.5
	c1.3-0.5,1.9-1.3,1.9-2.6c0-1.2-0.3-2.3-1.1-3.3C71.8,8.2,68.6,7.6,66,8.8z M70.2,14.3c-0.9,0.2-1.8,0.2-2.6,0.2c-0.5,0-0.9,0-1.3,0
	c-0.6,0.1-0.7-0.2-0.7-0.7c0.3-2.3,2.5-3.6,4.6-2.7c0.5,0.2,0.9,0.6,1.1,1.1C71.7,13.2,71.4,14,70.2,14.3z M107.9,9.2
	c-1.9-1.4-5.7-1.4-7.7-0.1c-0.2,0.1-0.4,0.3-0.4,0.5c0,0.6,0,1.3,0,1.9c0.2-0.1,0.4-0.1,0.6-0.2c1.3-0.5,2.6-0.6,4-0.5
	c1.6,0.2,2.3,1,2.3,2.5c0,0.4-0.1,0.5-0.5,0.5c-0.9,0-1.8,0-2.7,0.1c-0.8,0.1-1.6,0.2-2.4,0.5c-1.4,0.6-2.4,1.5-2.6,3.2
	c-0.1,1.8,0.6,3.1,2.2,3.9c2,1,4.2,1.1,6.3,0.3c1.8-0.7,2.8-2.1,2.9-4c0.1-1.5,0.1-2.9,0-4.4C109.9,11.8,109.4,10.3,107.9,9.2z
	 M106.8,17.6c0,1.5-0.8,2.2-2.3,2.2c-0.5,0-1.1,0-1.6-0.3c-0.8-0.3-1.1-0.9-1.1-1.7c0-0.8,0.4-1.2,1.2-1.5c0.7-0.3,1.5-0.3,2.3-0.3
	C106.9,16.1,106.9,16.1,106.8,17.6z M124.1,21.7c0,0.4-0.1,0.5-0.5,0.5c-0.7,0-1.5,0-2.2,0c-0.5,0-0.5-0.2-0.5-0.6
	c0-2.6,0-5.1,0-7.7c-0.1-2-1.3-3.1-3.2-2.9c-1.4,0.1-2.4,1.2-2.4,2.7c-0.1,1.8,0,3.6,0,5.4c0,0.9,0,1.7,0,2.6c0,0.4-0.1,0.5-0.5,0.5
	c-0.7,0-1.4,0-2.2,0c-0.4,0-0.5-0.1-0.5-0.5c0-1.3,0-2.6,0-4c0,0,0,0,0,0c0-1.5-0.1-2.9,0-4.4c0.2-2.8,2.3-4.8,5.1-5.1
	c1.2-0.1,2.3-0.1,3.4,0.3c2.2,0.9,3.6,2.8,3.6,5.4C124.1,16.6,124.1,19.1,124.1,21.7z M51.5,21.7c0,0.4-0.2,0.5-0.5,0.5
	c-0.7,0-1.4,0-2.1,0c-0.5,0-0.6-0.1-0.6-0.6c0-2.2,0-4.5,0-6.7c0-0.6,0-1.3-0.2-1.9c-0.4-1.4-1.4-2.1-2.9-2c-1.3,0-2.2,0.8-2.5,2.2
	c-0.1,0.5-0.1,0.9-0.1,1.4c0,2.3,0,4.7,0,7c0,0.4-0.1,0.7-0.6,0.6c-0.7,0-1.4,0-2.1,0c-0.5,0-0.6-0.2-0.6-0.6c0-1.3,0-2.7,0-4
	c0,0,0,0,0,0c0-1.3,0-2.7,0-4c0.1-2.5,1.8-4.6,4.2-5.1c2-0.5,3.9-0.4,5.7,0.9c1.5,1.1,2.2,2.7,2.2,4.5C51.5,16.4,51.5,19,51.5,21.7z
	 M57.1,11.4c0,2,0,3.9,0,5.9c0,1.5,0.9,2.3,2.4,2.2c0.6,0,1.2,0,1.8-0.2c0.3-0.1,0.4-0.1,0.4,0.3c0,0.3,0,0.5,0,0.8
	c0,1.2-0.4,1.7-1.6,1.9c-1.2,0.3-2.4,0.2-3.5-0.2c-1.9-0.7-2.7-2.3-2.8-4.2c-0.1-2.1,0-4.2,0-6.3c0,0,0,0,0,0c0-2.1,0-4.2,0-6.3
	c0-0.5,0.1-0.7,0.6-0.6c0.7,0,1.4,0,2.1,0c0.4,0,0.6,0.1,0.5,0.5c0,0.8,0,1.6,0,2.4c0,0.5,0.1,0.7,0.6,0.6c1.2,0,2.4,0,3.6,0
	c0.4,0,0.5,0.1,0.5,0.5c0,1.8-0.5,2.3-2.3,2.3c-0.7,0-1.4,0-2,0C57.2,11,57.1,11.1,57.1,11.4z M82.9,9.1c0,0.5,0,1.1,0,1.6
	c0,0.3-0.1,0.4-0.4,0.3c-0.1,0-0.3,0-0.4,0c-1.5,0-2.4,0.7-2.6,2.2c-0.2,1.6-0.1,3.2-0.1,4.8c0,1.2,0,2.4,0,3.6
	c0,0.5-0.1,0.6-0.6,0.6c-0.7,0-1.4,0-2.1,0c-0.5,0-0.6-0.2-0.6-0.6c0-1.4,0-2.8,0-4.6c0.1-1.4-0.2-3.1,0.1-4.8
	c0.6-3.6,3.6-4.4,6-3.9C82.7,8.4,82.9,8.6,82.9,9.1z M36.8,21.7c0.1,0.3,0,0.4-0.3,0.4c-0.7,0-1.5,0-2.2,0c-0.5,0-0.6-0.1-0.6-0.6
	c0-5,0-10,0-14.9c0-0.5,0-1,0-1.5c0-0.2-0.1-0.4,0.2-0.4c1,0,2-0.2,3,0.1c0,0.1,0,0.3,0,0.4c0,5.4,0,10.9,0,16.3
	C36.8,21.5,36.8,21.6,36.8,21.7z"/>
</svg>
