<?xml version="1.0" encoding="utf-8"?>
<!-- Generator: Adobe Illustrator 22.1.0, SVG Export Plug-In . SVG Version: 6.00 Build 0)  -->
<svg version="1.1" id="Capa_1" xmlns="http://www.w3.org/2000/svg" xmlns:xlink="http://www.w3.org/1999/xlink" x="0px" y="0px"
	 viewBox="0 0 150.9 27" style="enable-background:new 0 0 150.9 27;" xml:space="preserve">
<style type="text/css">
	.st0{fill:#6D6D6D;}
</style>
<path class="st0" d="M0,26.8c1.5-1.5,3.1-3,4.6-4.6C5,21.8,5.5,21.6,6,21.6c2.4,0,4.9,0,7.3,0c4.1,0,7.6-3.2,8.1-7.3
	c0-0.1,0-0.3,0.1-0.4c1.1,2.2,1.3,4.5,0.6,6.8c-1.2,3.8-4.7,6.3-8.7,6.3C8.9,27,4.5,27,0,27C0,26.9,0,26.8,0,26.8z M26.5,0
	c-0.2,0-0.4,0-0.6,0c-4.3,0-8.5,0-12.8,0C6.8,0,2.4,6.6,4.8,12.5C4.9,12.7,4.8,13,5.2,13c0.2-4,4-7.9,8.8-7.6c2.2,0.2,4.5,0,6.7,0
	c0.3,0,0.7,0,1-0.3c1.7-1.7,3.4-3.3,5.1-4.9C26.7,0.2,26.6,0.1,26.5,0z M102,19.9c0.1-0.3,0.3-0.6,0.5,0c0.3,0.3,0.7,0.5,1.1,0.7
	c2.6,1,5.4-0.1,6.4-2.6c1.3-3,0.2-6.5-2.4-7.7c-0.2-0.1-0.4-0.1-0.6-0.2c-0.2,0.2-0.3,0.1-0.4-0.1c-0.1,0-0.3-0.1-0.4-0.1
	c-0.8,0.1-1.6,0.2-2.4,0.2c-0.4,0.1-0.8,0.3-1.2,0.5c-0.5,0.3-0.6,0.3-0.6-0.3c0-1.2,0-2.4,0-3.6c0-0.7-0.2-1-0.9-0.9
	c-0.9,0.1-1.7-0.2-2.6,0.2c0,4.8,0,9.6,0,14.3c0.2,0.1,0.2,0.2,0.3,0.4c1,0,2,0,3,0C101.9,20.4,101.9,20.2,102,19.9z M103.8,17.9
	c-1-0.4-1.6-1.3-1.5-2.8c0-1.2,0.7-2.2,1.7-2.5c1.5-0.4,2.8,0.8,2.8,2.7C106.7,17.3,105.3,18.5,103.8,17.9z M37.4,6.6
	c-1.9,0.7-2.9,1.9-3,3.6c-0.1,1.8,0.7,3,2.7,3.9c0.9,0.4,1.8,0.7,2.7,1.1c0.7,0.3,1.3,0.7,1.1,1.6c-0.2,0.9-1,1-1.7,1
	c-1.3,0.1-2.5-0.3-3.6-0.8c-0.5-0.2-0.7-0.2-0.7,0.4c-0.1,0.8-0.1,1.6-0.2,2.3c0,0.3,0,0.5,0.4,0.6c2.7,0.6,5.3,0.9,7.9-0.4
	c1.4-0.7,2.1-1.8,2.3-3.4c0.1-2-0.7-3.4-2.8-4.3c-1-0.4-2-0.8-3.1-1.2c-0.5-0.2-0.8-0.5-0.7-1.1c0.1-0.5,0.5-0.8,1-0.9
	c0.7-0.2,1.4-0.1,2.2,0c0.8,0.1,1.7,0.9,2.2,0.4c0.5-0.5,0.2-1.6,0.4-2.4c0.1-0.5-0.1-0.7-0.6-0.8c-0.9-0.2-1.9-0.3-2.5-0.3
	C39.7,6.1,38.5,6.2,37.4,6.6z M93.6,20.7c0.6-0.1,1.3-0.1,1.9,0c0.6,0,0.7-0.2,0.7-0.8c0-2.4,0-4.8,0-7.2c0-0.9,0.4-2.1-0.2-2.6
	c-0.5-0.5-1.7-0.1-2.6-0.2c-0.7-0.1-1.1,0.1-1,0.9c-2.7-1.7-5.4-1.4-7.1,0.6c-1.8,2.1-1.8,5.7,0,7.8c1.7,2,4.3,2.2,7.1,0.5
	C92.4,20.6,92.9,20.8,93.6,20.7z M91.8,17.4c-1,1.1-2.5,0.9-3.3-0.3c-0.5-0.8-0.7-1.8-0.4-2.7c0.3-1.1,1.1-1.8,2.1-1.8
	c1,0,1.9,0.7,2.2,1.9c0.1,0.3,0.1,0.6,0.1,0.7C92.5,16.1,92.3,16.8,91.8,17.4z M143.9,16.1c0.9,1.3,1.8,2.7,2.7,4
	c0.2,0.3,0.3,0.6,0.8,0.6c1.2,0,2.4,0,3.5,0c0-0.2,0-0.2,0-0.3c-0.8-1.2-1.7-2.4-2.5-3.7c-1.2-1.8-1.2-1.8,0.1-3.4
	c0.5-0.6,1-1.3,1.5-2c0.3-0.4,0.7-0.8,1-1.4c-0.5,0-0.8,0.1-1.1,0c-2.1-0.4-3.6,0.4-4.6,2.3c-0.3,0.7-0.8,1.3-1.5,1.9
	c0-2.7,0-5.2,0-7.7c0-0.7-0.2-0.9-0.8-0.9c-0.8,0.1-1.5,0-2.3,0c-0.5,0-0.7,0.2-0.6,0.7c0,1.1,0,2.2,0,3.3c0,3.4,0,6.9,0,10.3
	c0,0.7,0.2,0.9,0.9,0.8c0.7-0.1,1.5,0,2.2,0c0.6,0,0.8-0.2,0.7-0.8c0-1.3,0-2.6,0-3.8C143.7,16.1,143.8,16.1,143.9,16.1z
	 M113.4,11.2c-1.9,2-2,5.5-0.3,7.8c1.7,2.2,4.1,2.5,7.4,0.7c-0.3,1.1,0.4,1,1.1,1c0.6,0,1.2,0,1.8,0c0.6,0.1,0.8-0.2,0.8-0.8
	c0-2.4,0-4.8,0-7.3c0-0.8,0.4-1.9-0.2-2.5c-0.6-0.6-1.7-0.1-2.5-0.2c-0.6-0.1-1.2,0-0.9,1C118,9,114.9,9.6,113.4,11.2z M116.6,13.2
	c0.8-0.8,1.9-0.9,2.8-0.2c1.4,1.1,1.3,3.7-0.2,4.7c-1,0.7-2.3,0.4-2.9-0.7c-0.3-0.5-0.4-1.1-0.4-1.7
	C115.9,14.5,116.1,13.8,116.6,13.2z M63.1,20.9c2.3-0.3,4.1-1.3,4.9-3.5c0.7-2.1,0.5-4.1-1.1-5.7c-2.4-2.6-7.3-2.5-9.6,0.1
	c-0.6,0.6-1,1.4-1.2,2.2c-1,3.8,1.7,7,6.2,7C62.4,20.9,62.8,20.9,63.1,20.9z M64.1,17.1c-0.9,1.4-2.8,1.5-3.8,0.1
	c-0.7-1-0.7-2.8,0-3.8c0.9-1.3,2.9-1.3,3.8,0c0.4,0.6,0.5,1.2,0.5,1.9C64.5,16,64.4,16.6,64.1,17.1z M128.6,10c-0.5,0-0.9,0-1.4,0
	c-0.6-0.1-0.8,0.2-0.7,0.8c0,2.4,0,4.8,0,7.2c0,0.9-0.4,2.1,0.2,2.6c0.6,0.5,1.7,0.1,2.7,0.2c0.6,0.1,0.8-0.2,0.8-0.8
	c0-1.6,0-3.2,0-4.8c0.1-1.5,1.3-2.4,2.6-2c1,0.3,1.2,1.2,1.3,2.1c0,1.6,0,3.2,0,4.8c0,0.5,0.1,0.7,0.6,0.7c0.8,0,1.6,0,2.4,0
	c0.5,0,0.7-0.1,0.7-0.6c0-2,0-4,0-6c-0.1-2.3-1.5-3.9-3.6-4.2c-1.6-0.2-2.9,0.2-4.2,1.3C130.1,9.9,129.3,10,128.6,10z M71.5,6.5
	c-0.8-0.1-1.1,0.2-1,1c0.1,0.6,0,1.2,0,1.8c0,0.5-0.2,0.7-0.7,0.6c-0.9-0.2-1.1,0.3-1,1.1c0,0.2,0,0.5,0,0.8c-0.1,0.7,0.1,1,0.9,0.9
	c0.6-0.1,0.8,0.2,0.8,0.8c0,1.3-0.1,2.6,0,4c0.1,2.1,1.4,3.3,3.5,3.4c2.3,0.1,2.4,0,2.7-2.2c0.1-0.6,0-0.8-0.7-0.8
	c-1.2,0.1-1.8-0.4-1.8-1.6c0-0.9,0.1-1.7,0-2.6c-0.1-0.8,0.2-1.1,1-1c1.5,0.1,1.3,0.2,1.3-1.3c0-0.1,0-0.2,0-0.3
	c0.2-0.9-0.2-1.2-1.1-1.1c-1.2,0.1-1.2,0-1.2-1.2c0-0.1,0-0.3,0-0.4c0-1.8,0-1.8-1.8-1.8C72.1,6.5,71.8,6.6,71.5,6.5z M54.9,18
	c0-0.5-0.2-0.6-0.7-0.4c-0.2,0.1-0.4,0.2-0.6,0.2c-1.1,0.2-2,0-2.7-0.9c-0.7-0.9-0.8-1.9-0.2-2.8c0.5-1,1.5-1.4,2.5-1.3
	c0.4,0,0.7,0.1,1.1,0.3c0.3,0.1,0.5,0.1,0.6-0.3c0.5-2.4,0-3-2.4-3c-2.9,0-5.1,1.5-5.7,4c-1.2,4.5,2.3,8,7,7.1
	c1.3-0.3,1.3-0.3,1.3-1.8C54.9,18.8,54.9,18.4,54.9,18z M82.4,10.7c0-0.6-0.2-0.8-0.7-0.7c-0.8,0-1.5,0-2.3,0
	c-0.6,0-0.8,0.2-0.8,0.8c0,2.3,0,4.7,0,7c0,1-0.4,2.3,0.2,2.8c0.7,0.5,1.9,0.1,2.9,0.2c0.5,0,0.6-0.2,0.6-0.7c0-1.5,0-3.1,0-4.6
	C82.4,13.9,82.4,12.3,82.4,10.7z M14.8,13.3c1.6,0,1.6,0,1.3-1.6c-0.3-1.5-0.3-1.5-1.8-1.5c-0.4,0-0.9,0-1.3,0
	c-2.3,0-2.4,0.2-2.6,2.4c0,0.5,0.1,0.7,0.6,0.7c0.8,0,1.6,0,2.3,0C13.8,13.3,14.3,13.3,14.8,13.3z M11,13.9c-0.3,0-0.6-0.1-0.6,0.4
	c0.1,0.8,0.1,1.8,0.6,2.4c0.4,0.5,1.2,0.1,1.8,0.2c0.3,0,0.6,0,0.9,0c2.2,0,2.2,0,2.5-2.3c0.1-0.5,0-0.8-0.6-0.8
	c-0.7,0.1-1.5,0-2.3,0C12.5,13.9,11.8,13.9,11,13.9z M78.4,6.7c0,1.1,0.9,2,2,2c1.1,0,2.1-0.9,2.1-2.1c0-1.1-0.9-2.1-2.1-2.1
	C79.3,4.6,78.4,5.5,78.4,6.7z M20.3,13.3c0.3,0,0.5-0.1,0.5-0.4c-0.1-0.9-0.2-1.7-0.7-2.4c-0.4-0.6-1.1-0.2-1.7-0.3
	c-0.2,0-0.3,0-0.5,0c-1.4,0-1.4,0-1.2,1.4c0.3,1.7,0.3,1.7,2.1,1.7C19.3,13.3,19.8,13.3,20.3,13.3z M9.9,11.8
	c0.3-1.6,0.3-1.6-1.4-1.6c-0.6,0-1.2-0.1-1.8,0.1c-0.3,0.1-1.1,2.4-0.9,2.7c0.4,0.6,1,0.2,1.5,0.3c0.1,0,0.2,0,0.4,0
	C9.6,13.3,9.6,13.3,9.9,11.8z M20.6,15c0.2-1.2,0.2-1.2-0.9-1.2c-0.4,0-0.9,0-1.3,0c-1.4,0-1.4,0-1.7,1.4c-0.3,1.6-0.3,1.6,1.4,1.6
	C20.2,16.9,20.2,16.9,20.6,15z M6.3,13.9c-0.4,0-0.5,0.1-0.5,0.5c0.1,2,0.7,2.6,2.6,2.6c0.1,0,0.3,0,0.4,0c1.4,0,1.4,0,1.1-1.4
	c-0.4-1.7-0.4-1.7-2.1-1.7C7.3,13.9,6.8,13.9,6.3,13.9z M10.1,9.5c0.2,0,0.4,0,0.5-0.2c0.5-1.2,1.3-2.2,2.4-3.1
	c-2.2-0.1-4.7,1.3-5.8,3.3C8.2,9.5,9.2,9.5,10.1,9.5z M12.8,20.8c-0.9-0.9-1.7-1.8-2.2-2.9c-0.1-0.2-0.3-0.3-0.5-0.3c-1,0-1.9,0-3,0
	C8.5,19.7,11,21.1,12.8,20.8z M19.5,17.5c-1.1,0-2.1,0-3,0c-0.3,0-0.5,0.1-0.6,0.4c-0.5,1.1-1.3,2-2.3,3.1
	C16.3,20.8,18.1,19.6,19.5,17.5z M16,9.3c0.1,0.2,0.3,0.3,0.5,0.3c1,0,1.9,0,2.9,0c-1-2-3.5-3.5-5.6-3.3C14.7,7.2,15.5,8.1,16,9.3z
	 M14.6,9.5c0.2,0,0.5,0.1,0.7-0.1c0.1-0.3-0.1-0.4-0.3-0.7c-0.1-0.1-0.1-0.2-0.2-0.3c-1.6-2-1.3-2-2.9,0c-0.2,0.3-0.7,0.7-0.5,1
	c0.2,0.3,0.7,0.1,1.1,0.1c0.3,0,0.6,0,0.8,0C13.8,9.5,14.2,9.6,14.6,9.5z M13,17.5c-0.5,0.1-1.4-0.3-1.6,0.2c-0.2,0.5,0.4,1,0.8,1.5
	c1,1.4,1.2,1.3,2.2-0.1c0.3-0.4,0.9-0.9,0.7-1.4c-0.2-0.3-0.9-0.1-1.4-0.1c-0.1,0-0.3,0-0.4,0S13.2,17.5,13,17.5z"/>
</svg>
