<?xml version="1.0" encoding="utf-8"?>
<!-- Generator: Adobe Illustrator 22.1.0, SVG Export Plug-In . SVG Version: 6.00 Build 0)  -->
<svg version="1.1" id="Capa_1" xmlns="http://www.w3.org/2000/svg" xmlns:xlink="http://www.w3.org/1999/xlink" x="0px" y="0px"
	 viewBox="0 0 241 62" style="enable-background:new 0 0 241 62;" xml:space="preserve">
<style type="text/css">
	.st0{fill:#F1F1F1;}
	.st1{fill:#FFFFFF;}
	.st2{fill:#0187CD;}
	.st3{opacity:0.55;clip-path:url(#SVGID_2_);}
	.st4{opacity:0.55;clip-path:url(#SVGID_4_);}
	.st5{opacity:0.5;fill:none;stroke:#BEBEBE;stroke-miterlimit:10;}
	.st6{fill:#D8D8D8;}
	.st7{fill:#004485;}
	.st8{opacity:0.55;}
	.st9{fill:#004484;}
	.st10{fill:#87888B;}
	.st11{fill:#2F4C87;}
	.st12{fill:#E1E2E3;}
	.st13{fill:#C47930;}
	.st14{fill:#C3C3C3;}
	.st15{fill:#A4D523;}
	.st16{fill:#27608D;}
	.st17{fill:#749323;}
	.st18{fill:#FF0000;}
	.st19{fill:#CE7535;}
	.st20{fill:#265D9B;}
	.st21{opacity:5.000000e-02;}
	.st22{clip-path:url(#SVGID_6_);fill:#FFFFFF;}
	.st23{fill:#304483;}
	.st24{fill:#9D9FA1;}
	.st25{opacity:0.8;}
	.st26{fill:url(#SVGID_7_);}
	.st27{fill:url(#SVGID_8_);}
	.st28{opacity:0.3;fill:#FFFFFF;stroke:#FFFFFF;stroke-miterlimit:10;}
	.st29{opacity:5.000000e-02;fill:#004484;}
	.st30{opacity:0.15;fill:#004484;}
	.st31{opacity:0.3;fill:#004484;}
	.st32{opacity:0.4;fill:#004484;}
	.st33{opacity:0.5;fill:#004484;}
	.st34{opacity:0.6;fill:#004484;}
	.st35{opacity:0.7;fill:#004484;}
	.st36{opacity:0.8;fill:#004484;}
	.st37{opacity:0.9;fill:#004484;}
	.st38{fill:url(#SVGID_9_);}
	.st39{fill:none;stroke:#265D9B;stroke-width:1.5;stroke-miterlimit:10;}
	.st40{opacity:0.85;fill:#FFFFFF;}
	.st41{opacity:0.85;fill:#9D9FA1;}
	.st42{opacity:0.75;}
	.st43{fill:#2B6BA7;}
	.st44{fill:none;stroke:#265D9B;stroke-width:3;stroke-miterlimit:10;}
	.st45{fill:none;stroke:#CE7535;stroke-width:3;stroke-miterlimit:10;}
	.st46{fill:url(#SVGID_10_);stroke:#265D9B;stroke-miterlimit:10;}
	.st47{fill:url(#SVGID_11_);stroke:#265D9B;stroke-miterlimit:10;}
	.st48{fill:#F3F3F3;}
	.st49{fill:#040707;}
	.st50{fill:#6F7175;}
	.st51{fill:#01CCF7;}
	.st52{fill:#00C0F5;}
	.st53{fill:#707276;}
	.st54{fill:#04E777;}
	.st55{fill:#04D8F7;}
	.st56{fill:#F6C302;}
	.st57{fill:#D83155;}
	.st58{fill:#E9354C;}
	.st59{fill:#F6CE05;}
	.st60{fill:#F33A45;}
	.st61{fill:#4D4D4D;}
	.st62{opacity:0.5;}
	.st63{fill:none;stroke:#FFFFFF;stroke-width:3;stroke-miterlimit:10;}
	.st64{fill:none;stroke:#808080;stroke-width:1.5;stroke-miterlimit:10;}
	.st65{opacity:0.5;fill:none;stroke:#C3C3C3;stroke-miterlimit:10;}
	.st66{fill:url(#SVGID_12_);stroke:#265D9B;stroke-miterlimit:10;}
	.st67{fill:url(#SVGID_13_);stroke:#265D9B;stroke-miterlimit:10;}
	.st68{fill:url(#SVGID_14_);stroke:#265D9B;stroke-miterlimit:10;}
	.st69{fill:url(#SVGID_15_);stroke:#265D9B;stroke-miterlimit:10;}
	.st70{fill:none;stroke:#265D9B;stroke-width:0.25;stroke-miterlimit:10;}
	.st71{fill:#6D6D6D;}
	.st72{fill:#8CBF37;}
	.st73{fill:#0C6F9E;}
	.st74{fill:#DFB70E;}
	.st75{fill:#FAA93F;}
	.st76{fill:#6B7137;}
	.st77{fill:#AA6A43;}
	.st78{fill:#147DA1;}
	.st79{fill:#428B44;}
	.st80{fill:#E81D24;}
	.st81{fill:#8BC548;}
	.st82{fill:#0CB8B8;}
	.st83{fill:#002B51;}
	.st84{fill:#A5A7AA;}
	.st85{fill:#6F7173;}
	.st86{fill:#707274;}
	.st87{fill:#A6A8AB;}
	.st88{fill:#A6A7AA;}
	.st89{fill:#A6A8AA;}
	.st90{fill:#6E7072;}
	.st91{clip-path:url(#SVGID_19_);fill:#FFFFFF;}
	.st92{clip-path:url(#SVGID_19_);}
	.st93{fill:#054B8D;}
	.st94{fill:#B12E33;}
	.st95{fill:#B43439;}
	.st96{fill:#B32E33;}
	.st97{fill:#B02D32;}
	.st98{fill:#25AAC9;}
	.st99{clip-path:url(#SVGID_21_);fill:#FFFFFF;}
	.st100{clip-path:url(#SVGID_21_);fill:#B43439;}
	.st101{clip-path:url(#SVGID_23_);fill:#FFFFFF;}
	.st102{fill:#004D8D;}
	.st103{fill:none;stroke:#F3F3F3;stroke-miterlimit:10;}
	.st104{clip-path:url(#SVGID_25_);fill:#FFFFFF;}
	.st105{clip-path:url(#SVGID_25_);}
	.st106{clip-path:url(#SVGID_27_);fill:#FFFFFF;}
	.st107{clip-path:url(#SVGID_27_);fill:#B43439;}
	.st108{fill:none;stroke:#FFFFFF;stroke-miterlimit:10;}
	.st109{fill:none;stroke:#CE7535;stroke-miterlimit:10;}
	.st110{fill:none;stroke:#000000;stroke-miterlimit:10;}
	.st111{fill:#015594;}
	.st112{fill:#085A98;}
	.st113{fill:#2497D4;}
	.st114{fill:#10619E;}
	.st115{fill:#4C91C5;}
	.st116{fill:#2673AD;}
	.st117{fill:#1A68A4;}
	.st118{fill:#327CB3;}
	.st119{fill:#3A82B9;}
	.st120{fill:#64A4D4;}
	.st121{fill:#00427A;}
	.st122{fill:#F8FBFC;}
	.st123{fill:#7EC1E5;}
	.st124{fill:#C1E1F2;}
	.st125{fill:#FCFDFD;}
	.st126{fill:#E5BC2D;}
	.st127{fill:#DEB12D;}
	.st128{fill:#3A4981;}
	.st129{fill:#D19C2C;}
	.st130{fill:#6D6750;}
	.st131{fill:#3B5188;}
	.st132{fill:#4C7FB7;}
	.st133{fill:#3B5892;}
	.st134{fill:#426499;}
	.st135{fill:#4874A9;}
	.st136{fill:#4A3C1D;}
	.st137{fill:#5F7682;}
	.st138{fill:#DDA62B;}
	.st139{fill:#383D75;}
	.st140{fill:#DDAB2C;}
	.st141{fill:#BEBEBE;}
	.st142{fill:none;}
	.st143{clip-path:url(#SVGID_31_);fill:#FFFFFF;}
	.st144{clip-path:url(#SVGID_31_);}
	.st145{clip-path:url(#SVGID_33_);fill:#FFFFFF;}
	.st146{clip-path:url(#SVGID_33_);fill:#B43439;}
	.st147{fill:none;stroke:#CE7535;stroke-width:2;stroke-miterlimit:10;}
</style>
<g>
	<g>
		<path class="st50" d="M85.5,39.2c1.8,0,3.6,0,5.3,0c0.7,0,1,0.2,1.1,0.9c0.8,8.8-5.2,13.9-11.8,14.1c-7.1,0.3-12.9-4-14.6-10.6
			C64.1,38,66.6,32,71.6,28.9c5.2-3.2,11.7-2.8,16.2,1c0.6,0.5,0.7,0.8,0.1,1.4c-0.7,0.5-1.1,1.4-1.8,1.7c-0.8,0.3-1.3-0.7-2-1.1
			c-3.6-2-8-1.7-11.2,1c-3.2,2.6-4.4,7.1-3,11.1c1.3,3.9,4.9,6.5,9,6.6c2.4,0.1,4.6-0.5,6.5-2.1c1.3-1.1,2.1-2.4,2.5-4
			c0.2-1,0.1-1.4-1.1-1.4c-2.2,0.1-4.4,0-6.7,0c-0.8,0-1.1-0.2-1.1-1c0-2.8-0.1-2.8,2.7-2.8C83,39.2,84.2,39.2,85.5,39.2z"/>
		<path class="st50" d="M145.5,38.3c-0.2-1.2,0.3-1.3,1.2-1.3c2.5,0,2.5,0,2.5,2.5c0,5,0,9.9-0.1,14.9c-0.1,4-2.5,6.7-6,7.6
			c-3.9,0.9-7.6-0.6-9.7-3.9c-0.6-0.9-0.5-1.4,0.6-1.6c0.2-0.1,0.5-0.2,0.7-0.3c1-0.6,1.6-0.6,2.4,0.6c1.1,1.8,3,2.2,5,1.7
			c2-0.5,2.9-1.9,3.2-3.8c0.1-0.8,0.2-1.5,0.1-2.4c-1.8,1.7-3.9,2.2-6.2,1.8c-2.2-0.4-3.8-1.6-5.2-3.3c-2.7-3.4-2.5-8,0.5-11.5
			C137.3,36.1,141.1,35.8,145.5,38.3z M145.7,45.4c0-3-2.1-5.4-4.8-5.3c-2.7,0-4.9,2.5-4.9,5.4c0,3,2.3,5.4,5,5.3
			C143.7,50.7,145.7,48.4,145.7,45.4z"/>
		<path class="st50" d="M188.1,27.6c1.6,0.1,3.6-0.1,5.5,0.2c5.6,1,8.5,7,5.8,11.8c-1.5,2.6-3.9,4-6.9,4.2c-1.7,0.1-3.4,0.1-5.1,0
			c-0.7,0-1,0.2-1,1c0,2.6,0,5.2,0,7.9c0,0.8-0.2,1.1-1.1,1.1c-2.8,0-2.8,0-2.8-2.8c0-7.3,0-14.7,0-22c0-1,0.3-1.3,1.3-1.3
			C185.1,27.7,186.5,27.6,188.1,27.6z M186.4,35.7c0,1.2,0,2.3,0,3.5c0,0.8,0.2,1.1,1,1c1.4-0.1,2.9,0,4.4,0c2.7,0,4.7-1.9,4.8-4.5
			c0-2.4-2-4.4-4.6-4.5c-1.5-0.1-3.1,0-4.6,0c-0.7,0-0.9,0.3-0.9,0.9C186.5,33.3,186.4,34.5,186.4,35.7z"/>
		<path class="st51" d="M0.9,29.1c-0.1-5.5-0.1-10.9,0-16.4c0.7-0.1,1.2,0.3,1.7,0.8c7,7,13.9,13.9,20.9,20.9
			c0.4,0.4,0.7,0.7,0.8,1.3c0,0.1,0,0.2,0,0.3c-0.4,0.4-0.8,0.7-1.2,1.1c-2.4,2.3-4.7,4.6-7.1,7c-0.2-0.9-0.8-1.6-1.5-2.3
			c-3.8-3.8-7.7-7.7-11.5-11.5C2.4,29.6,1.8,29.1,0.9,29.1z"/>
		<path class="st52" d="M24.2,35.7c0-0.6-0.4-0.9-0.8-1.3c-7-7-13.9-13.9-20.9-20.9c-0.5-0.5-1-0.9-1.7-0.8c0-2.9-0.1-5.8,0-8.7
			c0-1,0.2-2,1.1-2.7c2.3,2.2,4.5,4.4,6.8,6.6c6.7,6.7,13.4,13.5,20.1,20.2c0.5,0.5,1.1,1,1.4,1.6C28.3,31.8,26.4,33.8,24.2,35.7z"
			/>
		<path class="st53" d="M220,51.8c-1.9,2.4-4.3,2.8-7,2.1c-2.6-0.7-4.3-2.7-4.4-5.1c-0.1-2.3,1.3-4.4,3.7-5.4c2.2-0.9,4.5-1,6.9-0.2
			c0.3,0.1,0.6,0.4,0.9,0.1c0.3-0.3,0-0.7-0.1-1c-1-2.4-4.9-3.1-6.7-1.2c-0.7,0.7-1.2,0.7-1.9,0.3c-0.1-0.1-0.3-0.1-0.4-0.2
			c-2-0.8-2.1-1.2-0.4-2.7c2.8-2.4,6-2.6,9.3-1.3c3.1,1.2,4.3,3.7,4.2,6.9c0,2.9,0,5.7,0,8.6c0,0.7-0.2,1.1-1,1c-0.2,0-0.5,0-0.7,0
			C220.3,53.7,220.3,53.7,220,51.8z M216.8,45.8c-1.2,0-2.2,0.2-3.1,0.7c-0.9,0.5-1.3,1.3-1.2,2.3c0.1,1,0.8,1.5,1.7,1.8
			c2.3,0.7,4.8-0.6,5.6-2.9c0.3-0.7,0.2-1.2-0.6-1.4C218.4,46,217.6,45.8,216.8,45.8z"/>
		<path class="st54" d="M30.2,29.7c-0.3-0.7-0.9-1.1-1.4-1.6C22.1,21.3,15.4,14.6,8.7,7.9c0.7-1.6,2-2.6,3.3-3.6
			c4.5,2.2,8.7,4.8,13.1,7.3c5,2.8,9.9,5.7,14.8,8.5c-3.1,3.2-6.3,6.4-9.4,9.6C30.4,29.7,30.3,29.7,30.2,29.7z"/>
		<path class="st50" d="M166.4,54.3c-4.6,0-8.3-3.3-8.7-7.9c-0.4-4.7,2.4-8.8,6.7-9.7c4.7-0.9,8,2,9.5,6c0.3,0.7-0.4,0.7-0.7,0.8
			c-3.3,1.4-6.5,2.8-9.8,4.1c-1,0.4-1,0.7-0.4,1.5c1.8,2.1,5.3,2.2,7.3,0c0.6-0.7,1-0.7,1.7-0.2c0.2,0.2,0.5,0.3,0.7,0.5
			c1.5,1,1.5,1,0.2,2.3C170.9,53.4,168.8,54.3,166.4,54.3z M161.5,45.1c2.3-1,4.5-1.8,6.7-2.8c0.4-0.2,1-0.2,1-0.7
			c0-0.6-0.5-0.9-1-1.1c-1.5-0.8-3-0.7-4.5,0.2C162.3,41.7,161.6,43.1,161.5,45.1z"/>
		<path class="st50" d="M121.6,54.3c-5.1,0-8.9-3.8-8.8-8.9c0-5,3.8-8.8,8.9-8.8c5,0,9,3.9,8.9,8.9
			C130.6,50.4,126.7,54.3,121.6,54.3z M116.6,45.4c0,3,2.3,5.5,5,5.4c2.8,0,4.9-2.4,4.9-5.4c0-3-2.2-5.4-5-5.4
			C118.8,40.1,116.7,42.4,116.6,45.4z"/>
		<path class="st50" d="M93.3,45.4c0-5.1,3.8-8.9,8.9-8.8c5.1,0,8.9,3.8,8.8,8.9c0,5-3.9,8.8-9,8.8C97.1,54.2,93.3,50.4,93.3,45.4z
			 M107.2,45.4c0-3-2.2-5.3-5-5.4c-2.8,0-5,2.3-5,5.4c0,3,2.2,5.3,4.9,5.4C104.9,50.8,107.2,48.4,107.2,45.4z"/>
		<path class="st50" d="M224.2,37c1.3,0,2.4,0,3.5,0c0.7,0,0.8,0.4,1,0.8c1.2,3,2.5,6,3.7,9.1c0.2,0.4,0.4,0.8,0.7,1.5
			c1-2.5,1.9-4.8,2.8-7c0.5-1.2,1-2.4,1.4-3.6c0.2-0.4,0.4-0.8,0.9-0.7c1.2,0,2.3,0,3.5,0c0.1,0.6-0.3,1.1-0.5,1.5
			c-3.2,7.3-6.4,14.6-9.5,22c-0.4,0.9-0.8,1.2-1.8,1.2c-2.9-0.1-2.9,0-1.7-2.6c0.8-1.7,1.5-3.5,2.4-5.2c0.4-0.8,0.4-1.4,0-2.2
			c-2-4.4-3.9-8.8-5.8-13.2C224.6,38.1,224.4,37.6,224.2,37z"/>
		<path class="st55" d="M0.9,29.1c0.9,0,1.5,0.5,2.1,1.1c3.8,3.8,7.7,7.7,11.5,11.5c0.7,0.7,1.2,1.3,1.5,2.3c0,0.1,0,0.2,0,0.3
			c-4.7,4.6-9.3,9.3-14,13.9c-0.8-0.7-1.1-1.7-1.1-2.6C0.8,46.7,0.8,37.9,0.9,29.1z"/>
		<path class="st53" d="M206.5,40.8c0,4,0,7.9,0,11.9c0,0.8-0.2,1.1-1.1,1.1c-2.9,0-2.9,0-2.9-2.8c0-7.4,0-14.8,0-22.1
			c0-0.9,0.2-1.2,1.2-1.2c2.8,0,2.8,0,2.8,2.8C206.5,33.9,206.5,37.3,206.5,40.8z"/>
		<path class="st53" d="M151.8,40.5c0-4,0-7.9,0-11.9c0-0.8,0.2-1.1,1-1.1c3,0,3-0.1,3,2.9c0,7.3,0,14.5,0,21.8
			c0,1.1-0.2,1.5-1.4,1.5c-2.5-0.1-2.5,0-2.5-2.6C151.8,47.7,151.8,44.1,151.8,40.5z"/>
		<path class="st56" d="M30.5,29.6c3.1-3.2,6.3-6.4,9.4-9.6c1.1,0.4,2.1,1.1,3.1,1.7c0.1,0.4,0.4,0.5,0.7,0.4c0.1,0,0.2,0,0.2,0.1
			c0.9,0.8,1,1.9,0.9,3.1c-0.1,2.9,0,5.8,0,8.6c0,1.3,0.4,1.7,1.6,1.5c-2.1,1.4-4.3,2.6-6.5,3.7c0,0-0.1,0-0.1,0
			c-0.3-0.4-0.6-0.8-1-1.2C36.1,35.3,33.3,32.5,30.5,29.6z"/>
		<path class="st57" d="M1.9,58.2c4.7-4.6,9.3-9.3,14-13.9c0.9,1.8,2.6,2.8,3.8,4.3c0.6,0.7,1.3,1.1,2.3,0.9l0.1,0.1
			c-5.3,3.1-10.7,6.2-16.1,9.2C4.7,59.4,3.1,59.5,1.9,58.2z"/>
		<path class="st56" d="M46.5,35.6c-1.2,0.1-1.6-0.3-1.6-1.5c0.1-2.9,0-5.8,0-8.6c0-1.2-0.1-2.2-0.9-3.1c2.8,1.3,5.4,2.8,7.9,4.5
			c2.5,1.7,2.4,4-0.1,5.8c-1.3,0.9-2.7,1.7-4.1,2.3c-0.5-0.4-0.5,0-0.6,0.3c0,0,0,0,0,0C46.8,35.3,46.6,35.3,46.5,35.6L46.5,35.6z"
			/>
		<path class="st54" d="M12,4.3c-1.3,1-2.6,2-3.3,3.6C6.5,5.7,4.2,3.5,2,1.3C3-0.1,4.4,0.1,5.7,0.7C7.9,1.7,10,2.9,12,4.3z"/>
		<path class="st57" d="M24.2,48.3c-0.6,0.6-1.4,0.9-2.2,1.2c0,0-0.1-0.1-0.1-0.1C22.4,48.5,23.3,48.3,24.2,48.3L24.2,48.3z"/>
		<path class="st58" d="M37.2,40.9c-0.5,0.4-1,0.7-1.6,0.9c0,0,0,0,0,0C35.8,40.9,36.5,40.9,37.2,40.9L37.2,40.9z"/>
		<path class="st58" d="M35.1,42.1c-0.4,0.4-1,0.7-1.6,0.9c0,0,0-0.1,0-0.1C33.7,42.2,34.3,42.1,35.1,42.1L35.1,42.1z"/>
		<path class="st58" d="M39.4,39.6c-0.3,0.4-0.7,0.6-1.2,0.7c0,0-0.1-0.1-0.1-0.1C38.3,39.7,38.8,39.6,39.4,39.6L39.4,39.6z"/>
		<path class="st57" d="M28,46.1c-0.3,0.4-0.7,0.6-1.2,0.7c0,0-0.1-0.1-0.1-0.1C26.9,46.2,27.4,46.1,28,46.1L28,46.1z"/>
		<path class="st57" d="M26.4,47c-0.3,0.4-0.7,0.6-1.2,0.7c0,0-0.1-0.1-0.1-0.1C25.4,47.1,25.8,47,26.4,47L26.4,47z"/>
		<path class="st56" d="M45.5,47.5c0-0.3,0.1-0.7,0.5-0.3C45.8,47.3,45.6,47.4,45.5,47.5z"/>
		<path class="st59" d="M43.8,22.3c-0.4,0-0.6-0.1-0.7-0.4C43.4,21.8,43.6,22,43.8,22.3z"/>
		<path class="st56" d="M44.9,47.8c0.1-0.2,0.3-0.3,0.5-0.3C45.3,47.6,45.1,47.7,44.9,47.8z"/>
		<path class="st58" d="M40,39.3c-0.1,0.3-0.4,0.3-0.6,0.3c0,0-0.1-0.1-0.1-0.1c0.2-0.1,0.4-0.2,0.5-0.3L40,39.3z"/>
		<path class="st58" d="M37.8,40.5c-0.1,0.2-0.3,0.3-0.6,0.3l-0.1-0.1C37.4,40.7,37.6,40.6,37.8,40.5L37.8,40.5z"/>
		<path class="st58" d="M35.6,41.8c-0.2,0.1-0.4,0.2-0.6,0.3c0,0-0.1-0.1-0.1-0.1C35.2,41.9,35.4,41.8,35.6,41.8L35.6,41.8z"/>
		<path class="st58" d="M33.5,43c-0.1,0.2-0.3,0.3-0.6,0.3c0,0,0-0.1,0-0.1C33,43.2,33.2,43.1,33.5,43L33.5,43z"/>
		<path class="st57" d="M32.9,43.3c-0.2,0.1-0.4,0.2-0.6,0.3c0,0-0.1-0.1-0.1-0.1C32.4,43.5,32.6,43.4,32.9,43.3L32.9,43.3z"/>
		<path class="st57" d="M32.3,43.7c-0.2,0.1-0.4,0.2-0.6,0.3c0,0-0.1-0.1-0.1-0.1c0-0.1,0-0.2,0-0.3C31.8,43.6,32,43.6,32.3,43.7
			L32.3,43.7z"/>
		<path class="st57" d="M31.3,44.2c-0.1,0.2-0.4,0.3-0.6,0.3l0-0.1C30.9,44.4,31.1,44.3,31.3,44.2L31.3,44.2z"/>
		<path class="st57" d="M30.7,44.6c-0.2,0.1-0.4,0.2-0.6,0.3l-0.1-0.1C30.3,44.7,30.5,44.6,30.7,44.6L30.7,44.6z"/>
		<path class="st57" d="M30.1,44.9c-0.2,0.1-0.4,0.2-0.6,0.3c0,0-0.1-0.1-0.1-0.1C29.6,45,29.9,44.9,30.1,44.9L30.1,44.9z"/>
		<path class="st57" d="M29.2,45.5c-0.2,0.1-0.4,0.2-0.6,0.3c0,0,0-0.1,0-0.1C28.7,45.6,28.9,45.5,29.2,45.5L29.2,45.5z"/>
		<path class="st57" d="M25.2,47.7c-0.2,0.1-0.4,0.2-0.6,0.3c0,0-0.1-0.1-0.1-0.1c0.2-0.1,0.4-0.2,0.6-0.3L25.2,47.7z"/>
		<path class="st57" d="M28.6,45.8c-0.1,0.2-0.4,0.3-0.6,0.3c0,0-0.1-0.1-0.1-0.1C28.1,45.9,28.3,45.8,28.6,45.8L28.6,45.8z"/>
		<path class="st58" d="M38.2,40.3c-0.1,0.1-0.3,0.1-0.4,0.2c0,0,0,0,0,0c0.1-0.1,0.2-0.2,0.3-0.3C38.1,40.2,38.2,40.3,38.2,40.3z"
			/>
		<path class="st57" d="M31.7,44c-0.1,0.1-0.3,0.2-0.4,0.2c0,0,0,0,0,0c0.1-0.1,0.2-0.2,0.3-0.3L31.7,44z"/>
		<path class="st57" d="M29.5,45.2c-0.1,0.1-0.3,0.1-0.4,0.2l0,0c0.1-0.1,0.2-0.2,0.3-0.3L29.5,45.2z"/>
		<path class="st57" d="M26.8,46.8c-0.1,0.1-0.3,0.1-0.4,0.2c0,0,0-0.1,0-0.1c0.1-0.1,0.2-0.2,0.3-0.3
			C26.7,46.7,26.8,46.8,26.8,46.8z"/>
		<path class="st57" d="M24.6,48c-0.1,0.1-0.3,0.1-0.4,0.2c0,0,0-0.1,0-0.1c0.1-0.1,0.2-0.2,0.3-0.3C24.5,48,24.6,48,24.6,48z"/>
		<path class="st60" d="M38.1,40.2c-0.1,0.1-0.2,0.2-0.3,0.3c-0.2,0.1-0.4,0.2-0.6,0.3c-0.7,0.1-1.3,0.1-1.6,0.9
			c-0.2,0.1-0.4,0.2-0.6,0.3c-0.7,0.1-1.3,0.1-1.6,0.9c-0.2,0.1-0.4,0.2-0.6,0.3c-0.2,0.1-0.4,0.2-0.6,0.3c-0.2,0-0.4,0-0.6,0
			c-1.3-1.2-2.6-2.4-3.8-3.7c-1.2-1.3-2.7-2.3-3.6-4c0-0.1,0-0.2,0-0.3c2.1-1.9,4.1-3.9,6-6c0.1,0,0.2,0,0.3-0.1
			c2.8,2.8,5.6,5.6,8.4,8.5c0.4,0.4,0.7,0.8,1,1.2c-0.2,0.1-0.4,0.2-0.5,0.3C38.8,39.6,38.3,39.7,38.1,40.2z"/>
		<path class="st58" d="M24.2,35.9c0.8,1.7,2.3,2.7,3.6,4c1.2,1.3,2.6,2.5,3.8,3.7c0,0.1,0,0.2,0,0.3c-0.1,0.1-0.2,0.2-0.3,0.3
			c-0.2,0.1-0.4,0.2-0.6,0.3c-0.2,0.1-0.4,0.2-0.6,0.3c-0.2,0.1-0.4,0.2-0.6,0.3c-0.1,0.1-0.2,0.2-0.3,0.3c-0.2,0.1-0.4,0.2-0.6,0.3
			c-0.2,0.1-0.4,0.2-0.6,0.3c-0.5,0-1,0.1-1.2,0.6c-0.1,0.1-0.2,0.2-0.3,0.3c-0.5,0-1,0.1-1.2,0.6c-0.2,0.1-0.4,0.2-0.6,0.3
			c-0.1,0.1-0.2,0.2-0.3,0.3c-0.9,0.1-1.7,0.3-2.2,1.2c-0.9,0.2-1.7-0.1-2.3-0.9c-1.2-1.5-2.9-2.5-3.8-4.3c0-0.1,0-0.2,0-0.3
			c2.4-2.3,4.7-4.6,7.1-7C23.4,36.7,23.8,36.3,24.2,35.9z"/>
	</g>
	<g>
		<path class="st50" d="M68.5,9.7c0-2.6,0-5.1,0-7.7c0-0.6-0.1-0.6,0.6-0.7c2.2-0.3,4.5-0.4,6.7-0.1c0.6,0.1,1.2,0.3,1.8,0.5
			c2.3,0.9,3.8,2.5,4.4,4.9c0.5,2,0.4,3.9-0.2,5.9c-0.9,2.9-3,4.6-5.9,5.3c-1.7,0.4-3.5,0.4-5.3,0.3c-0.6,0-1.1-0.1-1.7-0.1
			c-0.5,0-0.5-0.1-0.5-0.6c0-1.6,0-3.2,0-4.8C68.5,11.7,68.5,10.7,68.5,9.7z M70.7,9.6c0,2.1,0,4.1,0,6.2c0,0.3-0.1,0.5,0.4,0.6
			c1.4,0.1,2.7,0.1,4-0.2c2.5-0.6,4.1-2.1,4.7-4.7c0.3-1.2,0.3-2.4,0.1-3.6c-0.4-2.5-1.9-4.2-4.3-4.8c-1.5-0.4-3-0.3-4.4-0.1
			C70.7,3,70.7,3,70.7,3.5C70.7,5.5,70.7,7.5,70.7,9.6z"/>
		<path class="st50" d="M108.8,15.7c0.1-0.1,0.1-0.2,0.2-0.3c0.6-3.1,1.6-6,2.4-9.1c0.1-0.3,0.2-0.4,0.5-0.4c0.6,0,1.1,0,1.7,0
			c0.1,0.3,0,0.4-0.1,0.6c-1.2,3.6-2.3,7.3-3.5,10.9c-0.2,0.6-0.1,0.6-0.8,0.6c-0.5,0-1,0.2-1.3-0.1c-0.3-0.3-0.3-0.8-0.5-1.2
			c-0.8-2.6-1.8-5.2-2.4-7.9c0-0.1,0-0.1-0.1-0.1c-0.1,0-0.1,0.1-0.1,0.2c-0.7,3-1.8,5.8-2.8,8.7c-0.1,0.3-0.2,0.4-0.5,0.4
			c-0.4,0-0.8,0-1.1,0c-0.4,0-0.5-0.1-0.6-0.5c-0.7-2.2-1.3-4.4-2-6.6c-0.5-1.5-0.9-3-1.4-4.5c0-0.1-0.1-0.2,0-0.4
			c0.6,0,1.2,0,1.9,0c0.3,0,0.3,0.2,0.4,0.4c0.2,0.8,0.4,1.5,0.6,2.3c0.6,2.4,1.3,4.7,1.8,7.1c0.2-0.1,0.2-0.3,0.2-0.5
			c0.8-3,1.8-5.9,2.8-8.9c0.1-0.3,0.2-0.4,0.5-0.4c0.5,0,1-0.1,1.4,0.1c0.4,0.2,0.4,0.8,0.5,1.2c0.8,2.7,1.8,5.4,2.4,8.2
			C108.8,15.6,108.8,15.6,108.8,15.7z"/>
		<path class="st50" d="M166.9,16c-0.6,1.1-1.5,1.7-2.5,2c-2.4,0.8-4.9-0.2-6-2.5c-1.2-2.4-1.1-4.9,0.2-7.2c1.2-2.2,3.6-3.1,5.9-2.4
			c0.7,0.2,1.4,0.6,1.9,1.2c0.1,0.1,0.1,0.2,0.3,0.2c0.1-0.2,0.1-0.4,0.1-0.6c0-2,0-3.9,0-5.9c0-0.5,0-0.5,0.5-0.5
			c0.4,0,0.9,0,1.3,0c0.3,0,0.4,0.1,0.3,0.4c0,0.2,0,0.3,0,0.5c0,4.8,0,9.5,0,14.3c0,0.7,0.1,1.5,0.1,2.2c0,0.4,0,0.4-0.4,0.4
			c-0.4,0-0.8,0-1.2,0c-0.3,0-0.3-0.1-0.4-0.4C167,17.2,167,16.7,166.9,16z M166.7,11.9c0-0.5,0-1.1-0.1-1.6
			c-0.2-1.5-1.2-2.5-2.5-2.8c-1.5-0.3-2.8,0.3-3.6,1.6c-1,1.8-1,3.7-0.1,5.6c0.7,1.4,2,2,3.6,1.7c1.4-0.2,2.4-1.4,2.7-2.8
			C166.8,13.1,166.7,12.5,166.7,11.9z"/>
		<path class="st50" d="M219.9,7.6c0.9-1,2-1.7,3.3-1.9c1.9-0.3,3.6,0.7,4.3,2.4c0.3,0.8,0.5,1.6,0.5,2.5c0,2.3,0,4.6,0,6.9
			c0,0.5,0,0.5-0.5,0.5c-0.4,0-0.8,0-1.3,0c-0.4,0-0.4,0-0.4-0.5c0-2,0-4,0-6.1c0-0.6,0-1.2-0.1-1.7c-0.5-1.9-2.3-2.8-4-1.8
			c-1.1,0.6-1.7,1.5-1.7,2.8c0,2.2,0,4.4,0,6.6c0,0.2,0,0.3,0,0.5c0,0.2-0.1,0.3-0.3,0.3c-0.5,0-1.1,0-1.6,0c-0.2,0-0.3-0.1-0.3-0.3
			c0-0.2,0-0.3,0-0.5c0-5.4,0-10.8,0-16.2c0-0.9-0.1-0.7,0.7-0.7c0.4,0,0.8,0,1.1,0c0.3,0,0.4,0.1,0.3,0.4c0,0.1,0,0.3,0,0.4
			c0,2,0,4,0,5.9C219.9,7.2,219.9,7.4,219.9,7.6z"/>
		<path class="st50" d="M188.8,12c0,0.6-0.1,1.3-0.2,1.9c-0.9,3.5-4,4.7-6.5,4.4c-2.8-0.3-4.8-2.3-5.1-5.2c-0.1-1-0.1-2,0.2-3
			c0.9-3.3,3.7-4.6,6.4-4.3c2.9,0.3,4.9,2.4,5.1,5.3C188.8,11.3,188.8,11.6,188.8,12z M186.6,12c0-1.1-0.3-2.1-0.7-2.9
			c-1.3-2.2-4.5-2.3-5.8-0.1c-1.1,1.9-1.2,3.9-0.1,5.8c1.4,2.4,4.5,2.4,5.9,0C186.4,14,186.6,13,186.6,12z"/>
		<path class="st50" d="M133,12c0-0.8,0.1-1.6,0.3-2.3c1-3.1,3.7-4.3,6.3-4c2.9,0.3,4.8,2.3,5.1,5.2c0.1,1,0.1,2-0.2,3
			c-0.9,3.4-3.9,4.6-6.4,4.3c-2.9-0.3-4.9-2.5-5.1-5.4C133,12.6,133,12.3,133,12z M135.2,12c0,1.1,0.2,2.2,1,3.2
			c0.7,0.9,1.6,1.5,2.8,1.4c1.4,0,2.4-0.8,3-2c0.9-1.8,0.8-3.6,0-5.3c-0.6-1.2-1.6-1.9-3-1.9c-1.4,0-2.4,0.7-3.1,1.9
			C135.4,10.1,135.2,11,135.2,12z"/>
		<path class="st50" d="M83.8,12c0-0.8,0.1-1.5,0.3-2.2c1-3.2,3.8-4.4,6.4-4.1c2.8,0.3,4.7,2.3,5.1,5.1c0.1,1,0.1,1.9-0.1,2.9
			c-0.7,3.4-3.7,4.8-6.5,4.5c-3-0.3-5-2.6-5.1-5.7C83.8,12.4,83.8,12.2,83.8,12z M86,12c0,0.9,0.1,1.8,0.6,2.7
			c0.4,0.8,1.1,1.5,2,1.8c1.6,0.6,3.3-0.1,4.1-1.7c1-1.8,0.9-3.7,0-5.6c-0.6-1.1-1.6-1.8-2.9-1.8c-1.4,0-2.4,0.6-3.1,1.8
			C86.2,10,86,10.9,86,12z"/>
		<path class="st50" d="M239.7,16c0.1,0.4,0.2,0.8,0.3,1.2c0.1,0.3,0,0.5-0.3,0.6c-1.1,0.4-2.2,0.5-3.3,0.6c-0.8,0-1.6,0-2.3-0.3
			c-2.3-0.7-3.5-2.3-3.8-4.6c-0.2-1.6-0.1-3.1,0.6-4.6c1.3-2.6,3.8-3.5,6.3-3c1.8,0.4,2.8,1.6,3.3,3.3c0.3,0.8,0.4,1.7,0.3,2.6
			c0,0.7,0,0.7-0.7,0.7c-2.4,0-4.8,0-7.1,0c-0.8,0-0.8,0-0.7,0.8c0.2,2,1.7,3.4,3.8,3.5c0.6,0,1.2,0,1.8-0.1
			C238.5,16.4,239,16.2,239.7,16z M232.2,10.8c0.3,0,0.6,0,0.8,0c1.6,0,3.1,0,4.7,0c1.1,0,1.1,0.2,0.9-1c-0.4-2.1-2.5-3.1-4.4-2.1
			C232.9,8.3,232.5,9.4,232.2,10.8z"/>
		<path class="st50" d="M147.5,8.2c-0.1-0.4-0.3-0.8-0.4-1.1c-0.1-0.3,0-0.4,0.2-0.5c1.8-0.9,3.6-1.2,5.6-0.6
			c1.5,0.5,2.3,1.7,2.6,3.2c0.1,0.5,0.1,1,0.1,1.5c0,1.7,0,3.3,0,5c0,0.8,0.1,1.5,0.2,2.3c-0.6,0.1-1.2,0-1.8,0
			c-0.2,0-0.2-0.1-0.3-0.3c0-0.4-0.1-0.7-0.1-1.1c-0.3,0.1-0.3,0.3-0.5,0.4c-1.3,1.2-2.8,1.6-4.5,1.1c-2.9-0.8-3.1-4.3-1.4-6
			c0.8-0.9,1.9-1.3,3.1-1.5c0.9-0.2,1.8-0.3,2.7-0.3c0.5,0,0.5,0,0.5-0.5c-0.1-1.5-0.9-2.4-2.4-2.5C149.7,7.3,148.6,7.6,147.5,8.2z
			 M153.4,13.1C153.4,13.1,153.4,13.1,153.4,13.1c0-0.3,0-0.6,0-0.9c0-0.3-0.1-0.4-0.4-0.4c-0.9,0-1.7,0.1-2.6,0.3
			c-0.4,0.1-0.7,0.2-1,0.4c-1,0.6-1.4,1.8-1,2.9c0.2,0.6,0.7,1,1.2,1.1c2.2,0.5,3.7-1.1,3.7-2.7C153.4,13.6,153.4,13.4,153.4,13.1z"
			/>
		<path class="st50" d="M117.4,7.7c0.2,0,0.3-0.2,0.4-0.4c1.3-1.5,2.9-2,4.8-1.5c1.8,0.5,2.6,1.8,3,3.5c0.1,0.5,0.1,1,0.1,1.5
			c0,2.2,0,4.4,0,6.6c0,0.6,0.1,0.6-0.6,0.6c-0.4,0-0.8,0-1.2,0c-0.3,0-0.5-0.1-0.4-0.4c0-0.3,0-0.5,0-0.8c0-1.8,0-3.6,0-5.5
			c0-0.6,0-1.1-0.1-1.7c-0.5-1.9-2.3-2.8-4-1.8c-1.1,0.6-1.7,1.5-1.7,2.8c0,0.8,0,1.6,0,2.4c0,1.5,0,2.9,0,4.4c0,0.6,0,0.6-0.6,0.6
			c-0.4,0-0.8,0-1.2,0c-0.3,0-0.4-0.1-0.4-0.4c0-0.1,0-0.2,0-0.3c0-3.7,0.1-7.3-0.1-11c0-0.3,0-0.5,0.4-0.4c0.2,0,0.5,0,0.7,0
			c0.8,0,0.8,0,0.9,0.9C117.3,7.1,117.2,7.4,117.4,7.7z"/>
		<path class="st50" d="M193,7.8c0.2,0,0.2-0.2,0.3-0.3c1.2-1.5,3.1-2.1,4.9-1.6c1.3,0.4,2.1,1.2,2.6,2.4c0.3,0.7,0.4,1.4,0.4,2.1
			c0,2.4,0,4.8,0,7.1c0,0.5,0,0.5-0.5,0.5c-0.4,0-0.8,0-1.3,0c-0.3,0-0.4-0.1-0.4-0.4c0-1.6,0-3.3,0-4.9c0-0.8,0-1.6-0.1-2.4
			c0-0.1,0-0.3-0.1-0.4c-0.4-2.3-2.9-3.1-4.6-1.6c-0.9,0.7-1.2,1.7-1.2,2.8c0,2.1,0,4.2,0,6.3c0,0.8,0,0.7-0.7,0.7
			c-0.4,0-0.8,0-1.1,0c-0.3,0-0.4-0.1-0.3-0.4c0-0.2,0-0.3,0-0.5c0-2.8,0-5.7,0-8.5c0-0.8,0-1.6-0.1-2.3c0-0.3,0.1-0.4,0.4-0.4
			c0.4,0,0.8,0,1.2,0c0.3,0,0.4,0.1,0.4,0.4C192.9,6.8,192.9,7.3,193,7.8z"/>
		<path class="st50" d="M212.8,2.5c0,1,0,1.9,0,2.8c0,0.7-0.1,0.6,0.7,0.6c0.7,0,1.3,0,2,0c0.5,0,0.5,0,0.5,0.5
			c0,0.4,0.2,0.9-0.1,1.1c-0.2,0.2-0.7,0.1-1.1,0.1c-0.5,0-1,0-1.5,0c-0.3,0-0.4,0.1-0.4,0.4c0,2.1,0,4.2,0,6.3
			c0,0.4,0.1,0.8,0.2,1.1c0.2,0.6,0.6,0.9,1.3,1c0.5,0,0.9,0,1.4-0.1c0,0.5,0.1,1,0.1,1.4c0,0.2-0.1,0.3-0.3,0.3
			c-1.1,0.3-2.1,0.4-3.1-0.1c-0.9-0.4-1.4-1.1-1.6-2c-0.1-0.6-0.2-1.3-0.2-1.9c0-1.9,0-3.8,0-5.7c0-0.2,0-0.3,0-0.5
			c0-0.2-0.1-0.3-0.3-0.3c-0.4,0-0.8,0-1.2,0c-0.3,0-0.3-0.1-0.4-0.3C208.7,6,208.7,6,210,6c0,0,0.1,0,0.1,0c0.5,0,0.5,0,0.5-0.5
			c0-0.6,0-1.3,0-1.9c0-0.4,0.1-0.5,0.5-0.6C211.6,2.8,212.2,2.7,212.8,2.5z"/>
		<path class="st50" d="M128.5,9.2c0-2.7,0-5.4,0-8.1c0-0.2,0-0.3,0-0.5c0-0.2,0.1-0.3,0.3-0.3c0.6,0,1.1,0,1.7,0
			c0.2,0,0.3,0.1,0.3,0.3c0,0.2,0,0.3,0,0.5c0,5.4,0,10.8,0,16.3c0,0.8,0.1,0.7-0.7,0.7c-0.4,0-0.8,0-1.2,0c-0.2,0-0.3-0.1-0.3-0.3
			c0-0.2,0-0.3,0-0.5C128.5,14.6,128.5,11.9,128.5,9.2z"/>
	</g>
</g>
</svg>
