<?xml version="1.0" encoding="utf-8"?>
<!-- Generator: Adobe Illustrator 22.1.0, SVG Export Plug-In . SVG Version: 6.00 Build 0)  -->
<svg version="1.1" id="Capa_1" xmlns="http://www.w3.org/2000/svg" xmlns:xlink="http://www.w3.org/1999/xlink" x="0px" y="0px"
	 viewBox="0 0 203.2 46.9" style="enable-background:new 0 0 203.2 46.9;" xml:space="preserve">
<style type="text/css">
	.st0{fill:#F1F1F1;}
	.st1{fill:#FFFFFF;}
	.st2{fill:#0187CD;}
	.st3{opacity:0.55;clip-path:url(#SVGID_2_);}
	.st4{opacity:0.55;clip-path:url(#SVGID_4_);}
	.st5{opacity:0.5;fill:none;stroke:#BEBEBE;stroke-miterlimit:10;}
	.st6{fill:#D8D8D8;}
	.st7{fill:#004485;}
	.st8{opacity:0.55;}
	.st9{fill:#004484;}
	.st10{fill:#87888B;}
	.st11{fill:#2F4C87;}
	.st12{fill:#E1E2E3;}
	.st13{fill:#C47930;}
	.st14{fill:#C3C3C3;}
	.st15{fill:#A4D523;}
	.st16{fill:#27608D;}
	.st17{fill:#749323;}
	.st18{fill:#FF0000;}
	.st19{fill:#CE7535;}
	.st20{fill:#265D9B;}
	.st21{opacity:5.000000e-02;}
	.st22{clip-path:url(#SVGID_6_);fill:#FFFFFF;}
	.st23{fill:#304483;}
	.st24{fill:#9D9FA1;}
	.st25{opacity:0.8;}
	.st26{fill:url(#SVGID_7_);}
	.st27{fill:url(#SVGID_8_);}
	.st28{opacity:0.3;fill:#FFFFFF;stroke:#FFFFFF;stroke-miterlimit:10;}
	.st29{opacity:5.000000e-02;fill:#004484;}
	.st30{opacity:0.15;fill:#004484;}
	.st31{opacity:0.3;fill:#004484;}
	.st32{opacity:0.4;fill:#004484;}
	.st33{opacity:0.5;fill:#004484;}
	.st34{opacity:0.6;fill:#004484;}
	.st35{opacity:0.7;fill:#004484;}
	.st36{opacity:0.8;fill:#004484;}
	.st37{opacity:0.9;fill:#004484;}
	.st38{fill:url(#SVGID_9_);}
	.st39{fill:none;stroke:#265D9B;stroke-width:1.5;stroke-miterlimit:10;}
	.st40{opacity:0.85;fill:#FFFFFF;}
	.st41{opacity:0.85;fill:#9D9FA1;}
	.st42{opacity:0.75;}
	.st43{fill:#2B6BA7;}
	.st44{fill:none;stroke:#265D9B;stroke-width:3;stroke-miterlimit:10;}
	.st45{fill:none;stroke:#CE7535;stroke-width:3;stroke-miterlimit:10;}
	.st46{fill:url(#SVGID_10_);stroke:#265D9B;stroke-miterlimit:10;}
	.st47{fill:url(#SVGID_11_);stroke:#265D9B;stroke-miterlimit:10;}
	.st48{fill:#F3F3F3;}
	.st49{fill:#040707;}
	.st50{fill:#6F7175;}
	.st51{fill:#01CCF7;}
	.st52{fill:#00C0F5;}
	.st53{fill:#707276;}
	.st54{fill:#04E777;}
	.st55{fill:#04D8F7;}
	.st56{fill:#F6C302;}
	.st57{fill:#D83155;}
	.st58{fill:#E9354C;}
	.st59{fill:#F6CE05;}
	.st60{fill:#F33A45;}
	.st61{fill:#4D4D4D;}
	.st62{opacity:0.5;}
	.st63{fill:none;stroke:#FFFFFF;stroke-width:3;stroke-miterlimit:10;}
	.st64{fill:none;stroke:#808080;stroke-width:1.5;stroke-miterlimit:10;}
	.st65{opacity:0.5;fill:none;stroke:#C3C3C3;stroke-miterlimit:10;}
	.st66{fill:url(#SVGID_12_);stroke:#265D9B;stroke-miterlimit:10;}
	.st67{fill:url(#SVGID_13_);stroke:#265D9B;stroke-miterlimit:10;}
	.st68{fill:url(#SVGID_14_);stroke:#265D9B;stroke-miterlimit:10;}
	.st69{fill:url(#SVGID_15_);stroke:#265D9B;stroke-miterlimit:10;}
	.st70{fill:none;stroke:#265D9B;stroke-width:0.25;stroke-miterlimit:10;}
	.st71{fill:#6D6D6D;}
	.st72{fill:#8CBF37;}
	.st73{fill:#0C6F9E;}
	.st74{fill:#DFB70E;}
	.st75{fill:#FAA93F;}
	.st76{fill:#6B7137;}
	.st77{fill:#AA6A43;}
	.st78{fill:#147DA1;}
	.st79{fill:#428B44;}
	.st80{fill:#E81D24;}
	.st81{fill:#8BC548;}
	.st82{fill:#0CB8B8;}
	.st83{fill:#002B51;}
	.st84{fill:#A5A7AA;}
	.st85{fill:#6F7173;}
	.st86{fill:#707274;}
	.st87{fill:#A6A8AB;}
	.st88{fill:#A6A7AA;}
	.st89{fill:#A6A8AA;}
	.st90{fill:#6E7072;}
	.st91{clip-path:url(#SVGID_19_);fill:#FFFFFF;}
	.st92{clip-path:url(#SVGID_19_);}
	.st93{fill:#054B8D;}
	.st94{fill:#B12E33;}
	.st95{fill:#B43439;}
	.st96{fill:#B32E33;}
	.st97{fill:#B02D32;}
	.st98{fill:#25AAC9;}
	.st99{clip-path:url(#SVGID_21_);fill:#FFFFFF;}
	.st100{clip-path:url(#SVGID_21_);fill:#B43439;}
	.st101{clip-path:url(#SVGID_23_);fill:#FFFFFF;}
	.st102{fill:#004D8D;}
	.st103{fill:none;stroke:#F3F3F3;stroke-miterlimit:10;}
	.st104{clip-path:url(#SVGID_25_);fill:#FFFFFF;}
	.st105{clip-path:url(#SVGID_25_);}
	.st106{clip-path:url(#SVGID_27_);fill:#FFFFFF;}
	.st107{clip-path:url(#SVGID_27_);fill:#B43439;}
	.st108{fill:none;stroke:#FFFFFF;stroke-miterlimit:10;}
	.st109{fill:none;stroke:#CE7535;stroke-miterlimit:10;}
	.st110{fill:none;stroke:#000000;stroke-miterlimit:10;}
	.st111{fill:#015594;}
	.st112{fill:#085A98;}
	.st113{fill:#2497D4;}
	.st114{fill:#10619E;}
	.st115{fill:#4C91C5;}
	.st116{fill:#2673AD;}
	.st117{fill:#1A68A4;}
	.st118{fill:#327CB3;}
	.st119{fill:#3A82B9;}
	.st120{fill:#64A4D4;}
	.st121{fill:#00427A;}
	.st122{fill:#F8FBFC;}
	.st123{fill:#7EC1E5;}
	.st124{fill:#C1E1F2;}
	.st125{fill:#FCFDFD;}
	.st126{fill:#E5BC2D;}
	.st127{fill:#DEB12D;}
	.st128{fill:#3A4981;}
	.st129{fill:#D19C2C;}
	.st130{fill:#6D6750;}
	.st131{fill:#3B5188;}
	.st132{fill:#4C7FB7;}
	.st133{fill:#3B5892;}
	.st134{fill:#426499;}
	.st135{fill:#4874A9;}
	.st136{fill:#4A3C1D;}
	.st137{fill:#5F7682;}
	.st138{fill:#DDA62B;}
	.st139{fill:#383D75;}
	.st140{fill:#DDAB2C;}
	.st141{fill:#BEBEBE;}
	.st142{fill:none;}
	.st143{clip-path:url(#SVGID_31_);fill:#FFFFFF;}
	.st144{clip-path:url(#SVGID_31_);}
	.st145{clip-path:url(#SVGID_33_);fill:#FFFFFF;}
	.st146{clip-path:url(#SVGID_33_);fill:#B43439;}
	.st147{fill:none;stroke:#CE7535;stroke-width:2;stroke-miterlimit:10;}
</style>
<g>
	<g>
		<rect x="61.3" y="5.7" class="st10" width="0.2" height="41.3"/>
	</g>
	<polygon class="st11" points="104.9,20.3 98.3,7 93.9,7 93.9,25.7 98.5,25.7 98.5,17.8 102.3,25.7 107.4,25.7 111.2,17.8 
		111.2,25.7 115.9,25.7 115.9,7 111.4,7 	"/>
	<path class="st11" d="M132.5,7h-10.4c-1.3,0-2.3,0.4-3,1.2c-0.7,0.8-1.1,1.7-1.1,2.9v10.5c0,1.2,0.4,2.1,1.1,2.9
		c0.8,0.8,1.7,1.2,2.9,1.2h13.6V21h-13v-2.3h9.8c1.2,0,2.2-0.4,3-1.2c0.7-0.8,1.1-1.7,1.1-2.9v-3.5c0-1.2-0.4-2.1-1.1-2.9
		C134.6,7.4,133.7,7,132.5,7 M131.9,14h-9.2v-2.3h9.2V14z"/>
	<path class="st11" d="M152,14h-8.6v-2.3h11.5V7h-12.1c-1.2,0-2.2,0.4-2.9,1.3c-0.8,0.8-1.1,1.8-1.1,2.8v3.5c0,0.4,0,0.8,0.1,1.1
		c0.2,0.9,0.7,1.6,1.4,2.2c0.7,0.5,1.6,0.8,2.6,0.8h8.6V21h-12.4v4.7h13c1.2,0,2.3-0.4,3-1.2c0.7-0.7,1.1-1.7,1.1-2.9v-3.5
		c0-1.1-0.4-2.1-1.2-2.9C154.1,14.4,153.1,14,152,14"/>
	<path class="st11" d="M175.2,8.2c-0.8-0.8-1.7-1.2-2.9-1.2h-14.5v4.7h13.9V14h-9.8c-1.2,0-2.2,0.4-3,1.2c-0.7,0.8-1.1,1.8-1.1,2.9
		v3.5c0,1.2,0.4,2.1,1.2,2.9c0.8,0.8,1.7,1.2,2.9,1.2h14.5V11.1C176.3,9.9,175.9,9,175.2,8.2 M171.6,21h-9.2v-2.3h9.2V21z"/>
	<path class="st11" d="M109.4,27.6H93.5v18.7h15.9c2.9,0,4.4-1.4,4.4-4.1V31.7c0-1.1-0.4-2.1-1.3-2.9
		C111.7,28,110.7,27.6,109.4,27.6 M108.8,41.7H98.7v-9.3h10.1V41.7z"/>
	<rect x="115.9" y="27.6" class="st11" width="5.1" height="18.7"/>
	<path class="st11" d="M137.9,27.6H123v18.7h5.1v-14h9.1v14h5.1V31.7c0-0.4,0-0.8-0.1-1.2C141.9,29.2,140.9,27.6,137.9,27.6"/>
	<polygon class="st11" points="144.3,46.3 160.8,46.3 160.8,41.7 149.4,41.7 149.4,39.3 160.8,39.3 160.8,34.6 149.4,34.6 
		149.4,32.3 160.8,32.3 160.8,27.6 144.3,27.6 	"/>
	<path class="st11" d="M177.2,27.6h-14.2v18.7h5.1v-14h8.5v3.5h5.1v-4.1c0-0.4,0-0.9-0.1-1.2C181.2,29.2,180.1,27.6,177.2,27.6"/>
	<path class="st11" d="M201.9,28.8c-0.9-0.8-1.9-1.2-3.2-1.2h-11.4c-1.3,0-2.3,0.4-3.2,1.3c-0.8,0.8-1.3,1.8-1.3,2.8v10.5
		c0,0.5,0,0.9,0.2,1.3c0.3,1.3,1.4,2.8,4.3,2.8h11.4c2.9,0,4.4-1.4,4.4-4.1V31.7C203.2,30.6,202.7,29.6,201.9,28.8 M198.1,41.7H188
		v-9.3h10.1V41.7z"/>
	<path class="st10" d="M186.8,14.2h-6.6c-0.7,0-1.2,0.2-1.7,0.7c-0.5,0.5-0.7,1-0.7,1.6v6.9c0,0.2,0,0.4,0.1,0.6
		c0.1,0.5,0.4,1,0.8,1.3c0.4,0.3,0.9,0.5,1.5,0.5h9.1v-15h-2.5V14.2z M180.3,16.7h6.5v7h-6.5V16.7z"/>
	<path class="st10" d="M200.6,21.2c0.7,0,1.3-0.2,1.7-0.7c0.4-0.4,0.4-1.6,0.4-1.6v-2.3c0-0.7-0.2-1.2-0.6-1.7
		c-0.4-0.4-1-0.7-1.7-0.7h-6.9c-0.8,0-1.3,0.2-1.7,0.7c-0.4,0.4-0.6,1-0.6,1.7v6.7c0,0.7,0.2,1.3,0.7,1.8c0.4,0.5,1,0.7,1.7,0.7h8.7
		v-2.5h-8.5v-2H200.6z M193.8,16.7h7v2.5h-7V16.7z"/>
	<polygon class="st10" points="79.3,18.2 70.8,18.2 70.8,7.2 72.8,7.2 72.8,16.2 79.3,16.2 	"/>
	<path class="st10" d="M91.3,18.2h-8.8c-0.6,0-1.2-0.2-1.6-0.6c-0.4-0.4-0.6-0.9-0.6-1.6v-2.2c0,0,0.4-1.2,0.8-1.6
		c0.4-0.4,0.9-0.7,1.6-0.5h6.6V9.2h-9v-2h8.8c0.6,0,1.2,0.2,1.6,0.6c0.4,0.4,0.6,0.9,0.6,1.6V18.2z M89.3,13.7h-6.5v2.5h6.5V13.7z"
		/>
	<path class="st11" d="M17.9,20.6c0.9-0.8,1.7-1.6,2.6-2.4c0.2-0.2,0.4-0.3,0.2-0.7c-0.4-1.2-0.1-2.3,0.7-3.1c0.9-0.8,2-1.1,3.2-0.7
		c1.4,0.4,2.5,1.3,2.8,2.7c0.5,2.1-1.2,3.9-3.5,3.6c-0.4,0-0.7-0.1-1.1-0.3c-0.4-0.2-0.7-0.2-1,0.1c-1.9,1.5-3.7,3.2-5.4,4.9
		c-0.3,0.4-0.7,0.7-1.1,1c-0.5,0.4-1,0.4-1.5,0.1c-0.4-0.3-0.5-0.9-0.2-1.4c0.4-0.7,1-1.2,1.6-1.7C16.2,22.1,17.1,21.3,17.9,20.6
		C17.9,20.6,17.9,20.6,17.9,20.6 M23.1,17.5c0.6,0.6,1.4,0.7,2,0.2c0.4-0.4,0.4-1.2,0-1.7c-0.5-0.6-1.4-0.7-2-0.2
		C22.7,16.2,22.7,16.9,23.1,17.5"/>
	<path class="st13" d="M14.2,44.6c-1.3,0.6-2.4,0.1-3.4-0.6c-0.9-0.6-1.6-1.5-1.9-2.6c-0.4-1.9,1-3.3,2.8-2.7c0.8,0.2,1.1,0,1.5-0.5
		c1.6-2.1,3.2-4.1,5.1-5.9c0.6-0.6,1.2-0.6,1.7-0.1c0.5,0.5,0.4,1.2-0.1,1.7c-1.3,1.4-2.5,2.7-3.7,4.2c-0.5,0.6-1,1.3-1.5,1.9
		c-0.3,0.3-0.2,0.6,0,0.9c0.6,1,0.8,2,0.3,3C14.6,44.1,14.4,44.4,14.2,44.6 M12.7,41.2c-0.2-0.1-0.3-0.3-0.5-0.4
		c-0.4-0.3-0.8-0.3-1.2,0c-0.4,0.3-0.4,0.8-0.2,1.2c0.2,0.4,0.6,0.8,1.1,0.9c0.4,0.1,0.8,0.1,1.1-0.3c0.2-0.3,0.2-0.7,0-1
		C12.9,41.5,12.8,41.3,12.7,41.2"/>
	<path class="st11" d="M28,13.7c-0.5-0.6-0.9-1.3-0.9-2.1c0-1.4,1.1-2.3,2.7-2.3c0.6,0,1.3,0.1,1.8,0.4c0.4,0.2,0.6,0.2,0.9,0
		C34,9,35.4,8.1,36.9,7.6c0.7-0.3,1.6,0.1,1.9,0.8c0.2,0.4,0,0.6-0.3,0.7c-1.4,0.5-2.8,1.3-4.1,1.9c-0.5,0.3-0.7,0.5-0.5,1.1
		c0.6,1.4-0.6,3-2.3,3C30.2,15.3,29,14.7,28,13.7 M31.4,11.6c-0.1-0.1-0.2-0.2-0.4-0.3c-0.6-0.4-1.3-0.3-1.7,0.3
		c-0.3,0.4-0.1,1,0.5,1.4c0.2,0.1,0.4,0.2,0.5,0.3c0.5,0.2,1,0.1,1.4-0.4C32.1,12.4,31.8,12,31.4,11.6"/>
	<path class="st11" d="M31.3,42.7c-0.1-0.2-0.3-0.3-0.4-0.5c-0.1-0.1-0.1-0.2-0.2-0.3c0-0.1-0.1-0.2-0.1-0.2c0-0.1-0.1-0.1-0.1-0.3
		c-0.4-0.8-0.1-1.6,0.4-2.1c0.6-0.6,1.5-0.8,2.4-0.6c0.3,0.1,0.5,0.1,0.8,0.3c0.2,0.1,0.3,0,0.4-0.1c0.3-0.3,0.7-0.6,1-0.9
		c0.8-0.7,1.2-1,1.9-1.6c0.1-0.1,0.3-0.3,0.5-0.4c0.4-0.3,0.6-0.6,1.1-0.4c0.5,0.2,0.6,0.6,0.7,1.1c0,0.1,0,0.3-0.3,0.6
		c-0.5,0.4-0.7,0.6-1.1,1c-0.9,0.8-1.5,1.4-2.3,2.1c-0.2,0.2-0.2,0.3-0.1,0.5c0.4,0.7,0.4,1.5,0,2.2c-0.4,0.6-1.1,0.7-1.7,0.6
		c-0.6,0-1.2-0.2-1.8-0.5L32,43.3C31.7,43.1,31.6,43.1,31.3,42.7 M34,40.9c-0.4-0.5-1.2-0.7-1.6-0.3c-0.3,0.3-0.3,0.9,0.1,1.3
		c0.4,0.5,1.2,0.7,1.6,0.3C34.5,41.9,34.4,41.3,34,40.9"/>
	<path class="st11" d="M51.4,24.4c0-0.1-0.1-0.1-0.1-0.2c-0.1-0.1-0.1-0.3-0.1-0.4c-0.5-1.2-0.5-1.2-1.9-0.9
		c-0.4,0.1-0.7,0.2-1.1,0.3c-0.5,0.1-0.9-0.1-1.1-0.7c-0.3-0.8-0.2-1.2,0.4-1.4c0.7-0.3,1.4-0.5,2.2-0.5c0.4,0,0.5-0.2,0.5-0.6
		c0-0.6-0.2-1.5,0.4-1.7c0.1,0,0.2,0.1,0.3,0.1c0.1,0.1,0.3,0.2,0.4,0.4c0.1,0.2,0.2,0.3,0.2,0.4c0.8,1.6,1.2,3.4,1.1,5.2
		c-0.1,0.5-0.2,0.7-0.5,0.6c-0.2-0.1-0.4-0.1-0.5-0.3C51.5,24.7,51.5,24.6,51.4,24.4 M51.7,22.9c0,0,0,0.1,0.2,0
		c0.2,0,0.1-0.2,0.2-0.3c0-0.7-0.1-1.4-0.5-2c-0.1-0.1-0.2-0.2-0.3-0.2c-0.1,0-0.1,0.2-0.1,0.3C51.1,21.5,51.2,22.1,51.7,22.9"/>
	<path class="st13" d="M26.4,27.4c-0.9,0.8-1.7,1.6-2.6,2.4c-0.2,0.1-0.4,0.3-0.4,0.5c-0.5,0.4-0.9,0.9-1.4,1.3
		c-0.2-0.1-0.3,0-0.4,0.1c-0.6,0-1.1-0.3-1.3-0.9c-0.2-0.5,0.1-0.9,0.5-1.2c1.2-1.2,2.4-2.3,3.7-3.5c0.4-0.4,0.9-0.5,1.4-0.2
		C26.4,26.2,26.5,26.7,26.4,27.4"/>
	<path class="st13" d="M35.7,20.3C34.6,21,33.3,22,32,22.9c-0.5,0.3-1.3,0.1-1.6-0.3c-0.3-0.5-0.2-1.2,0.3-1.6
		c1.3-0.9,2.5-1.9,3.9-2.7c0.6-0.3,1.1-0.2,1.5,0.3C36.5,19.2,36.4,19.7,35.7,20.3"/>
	<path class="st11" d="M45.5,8.3c-1.5-0.6-3-0.4-4.5,0c-0.7,0.2-1.6-0.3-1.9-0.8c-0.1-0.2-0.3-0.5,0.1-0.6c1.4-0.3,2.7-0.7,4.2-0.2
		C44.2,6.9,44.7,7.8,45.5,8.3"/>
	<path class="st11" d="M46,22.2c0.6,0.7,0.5,1.6-0.4,2c-0.6,0.3-1.2,0.6-1.8,0.9c-0.5,0.2-0.9,0-1.1-0.5c-0.3-0.6-0.3-1.3,0.1-1.5
		c0.7-0.4,1.5-0.7,2.3-1.1C45.5,21.9,45.8,22,46,22.2"/>
	<path class="st13" d="M27.6,23.4c0.3-0.2,0.5-0.5,0.9-0.6c0.6-0.3,1.1-0.1,1.5,0.5c0.3,0.5,0.2,1.1-0.2,1.4
		c-0.3,0.2-0.6,0.4-0.9,0.7c-0.6,0.4-1.2,0.4-1.6-0.2c-0.4-0.5-0.3-1.1,0.2-1.6C27.5,23.6,27.6,23.5,27.6,23.4"/>
	<path class="st11" d="M21.3,43.3c0.1,0.1,0.2,0.2,0.4,0.4c-0.1,0.2,0,0.3,0.1,0.4c-0.2,0.6-0.6,1.1-1.1,1.5c-0.4,0.3-1.2,0-1.6-0.6
		c-0.3-0.4,0-0.8,0.3-1.1c0.4-0.5,0.8-1,1.5-0.7C21,43.3,21.1,43.3,21.3,43.3"/>
	<path class="st13" d="M33.6,3.6c-0.8,0.3-1.5,0.4-2.2-0.2c-0.2-0.1-0.3-0.2-0.3-0.4c0-0.2,0.2-0.2,0.4-0.3c0.7-0.3,1.3-0.2,2,0.1
		c0.1,0.2,0.3,0.3,0.4,0.5l0,0C33.8,3.4,33.7,3.5,33.6,3.6"/>
	<path class="st11" d="M2,43.9c0,0-0.6-0.8-0.4-1.5c0.2-0.7,0.7-0.1,0.8,0c0.1,0.1,0.7,0.9,0.6,1.5C2.9,44.4,2.8,45,2,43.9"/>
	<path class="st11" d="M2.7,41.7c0,0-0.7-0.8-0.4-1.7c0.3-0.9,0.7-1.7,0.9-1.9c0.1-0.2,0.7-0.6,1.2-0.1c0.6,0.5,0.5,1.2,0.3,1.6
		c-0.2,0.4-0.8,1.8-1,2.2C3.6,42.1,3.2,42.3,2.7,41.7"/>
	<path class="st11" d="M8.6,26.8c-1.6,1.4-1.1,3.4-1,3.9c0.1,0.5-0.1,0.8-0.1,0.8s-2,2.8-2.7,3.7c-0.7,0.9-0.3,1.6-0.2,1.8
		c0.1,0.2,0.9,1.3,1.6,0c1-1.6,2.6-3.6,2.6-3.6L9,33.3c0.2-0.3,0.5-0.4,1-0.2c1.2,0.5,2.5,0,3.1-0.8c1.5-2,0.4-4.2-0.4-5.2
		C11.9,26.2,10.2,25.4,8.6,26.8 M11.3,30.8c-0.5,0.4-1.2,0.3-1.6-0.2c-0.5-0.6-0.5-1.6,0-2.1c0.4-0.4,1.1-0.3,1.6,0.3
		C11.9,29.4,11.9,30.3,11.3,30.8"/>
	<path class="st13" d="M13.9,17.2c0,0,0.6,1.9-1,3.5c-1.6,1.5-3.4,0.9-4.1,0c-0.7-0.9-1.2-2.8,0.5-4.6c1.1-1,2.3-0.9,2.8-0.7
		c0.3,0.1,0.6,0.1,1-0.3c0.5-0.4,4-3.5,4.5-3.8c0.4-0.3,1.2-0.7,1.7-0.2c0.5,0.5,0,1.1-0.3,1.3c-0.2,0.2-3.9,3.1-4.5,3.7
		C13.9,16.7,13.9,16.7,13.9,17.2 M11.9,17.6c-0.5-0.7-1.3-0.4-1.6-0.2c-0.2,0.2-0.9,0.8-0.4,1.6c0.6,1,1.7,0.2,1.7,0.2
		C11.9,19,12.4,18.2,11.9,17.6"/>
	<path class="st11" d="M1.2,21.5c0,0-0.8,1.5-1.1,0.6c-0.3-0.9,0.4-1.7,0.7-2c0.3-0.3,0.5-0.5,0.7,0C1.7,20.6,1.4,21.2,1.2,21.5"/>
	<path class="st11" d="M5.5,16.5c0,0-2,2.1-2.6,2.9C2.3,20.1,1.6,20,2,18.6c0.2-0.5,0.5-0.9,3-3.5c0.6-0.4,0.8-0.2,0.9,0.1
		C6.1,15.4,6.1,15.8,5.5,16.5"/>
	<path class="st11" d="M15.5,7.6C15.1,8,14.2,8,13.9,7.7c-0.3-0.3-0.1-0.6,0.1-0.8c0.5-0.4,1.3-0.5,1.6-0.1
		C15.9,7,15.8,7.3,15.5,7.6 M13.9,9.2c0.5,0.2,1.6,0.1,2.7-0.6c1.1-0.7,1.1-1.6,1-2c-0.1-0.4,0-0.6,0.3-0.8c0.3-0.3,1.6-0.9,2.2-1.4
		c0.6-0.5,0.5-0.5,0.2-0.8c-0.6-0.6-1.9,0.4-3,1.2c-1.1,0.8-1.3,0.6-1.8,0.7c-0.5,0.1-1.7,0-2.5,0.7c-0.8,0.7-0.8,1.2-0.8,1.6
		c0,0.4,0.1,0.6-0.4,1C10,10.2,7.4,12.7,7,13c-0.4,0.3-0.5,0.6-0.3,1.1c0.2,0.5,0.6,0.6,1.1,0.1c0.5-0.5,5.1-4.7,5.2-4.7
		C13.1,9.2,13.5,9.1,13.9,9.2"/>
	<path class="st13" d="M30.2,5c0,0-3.6,1.8-8,4.9c-1,0.7-1.8,0.7-2,0.3c-0.3-0.4-0.6-0.6,0.8-1.6c1.4-1,5.3-3.6,8.1-4.9
		c0.6-0.2,1.4-0.3,1.8,0.1C31.2,4.2,31.5,4.6,30.2,5"/>
	<path class="st11" d="M22.3,2.8c0,0,1.5-0.7,2-0.9c0.5-0.2,1.2-0.8-0.3-0.9c-0.9,0-2.1,0.7-2.5,0.9c-0.4,0.3-0.9,0.4-0.4,0.8
		C21.6,3.1,22.1,2.9,22.3,2.8"/>
	<path class="st11" d="M26.4,1c0,0,1.9-0.5,2.3-0.5c0.4-0.1,1-0.3-0.1-0.4c-1.1-0.1-2.6,0.1-3.1,0.3c-0.4,0.2-1,0.4-0.3,0.5
		C25.8,1,26.4,1,26.4,1"/>
	<path class="st13" d="M34.1,2c0,0-0.8-0.1-0.3,0.4c0.4,0.5,0.9,0.6,1.6,0.6C36,3,36.9,3,37.3,3c0.3,0,0.7-0.1-0.5-0.5
		C35.7,2,34.8,1.8,34.1,2"/>
	<path class="st11" d="M36.4,30.3c-0.1,0.1-0.3,0.2-0.5,0.2c-0.5-0.1-0.9-0.3-1.1-0.8c-0.2-0.5-0.3-0.9,0-1.3
		c0.2-0.3,0.4-0.4,0.7-0.4c0.7,0,1,0.5,1.2,1C36.8,29.4,36.8,29.9,36.4,30.3 M32.5,30.3c-0.1,0.1-4.5,4.1-4.9,4.5
		c-0.4,0.4-1.6,1.3-0.9,2.1c0.6,0.8,1.2,0.6,2.1-0.2c0.9-0.8,4.8-4.4,5.1-4.6c0.3-0.2,0.4-0.2,0.8,0c0.4,0.2,1.8,0.9,2.9-0.1
		c1.1-1,0.9-2.4,0.8-2.8c0-0.4,0-0.6,0.2-0.7c0.3-0.2,2-1.3,2.4-1.6c0.4-0.3,1-0.7,0.6-1.5c-0.4-0.8-0.9-0.9-1.6-0.4
		c-0.7,0.5-1.9,1.4-2.3,1.6c-0.3,0.2-0.7,0.1-1-0.1c-0.4-0.2-1.7-1.2-3.1,0.1c-1.4,1.2-0.8,3-0.8,3S33,29.8,32.5,30.3"/>
	<path class="st11" d="M26.3,39.1c0,0-2.9,3.3-3.3,3.7c-0.4,0.4-1,0.3-1.4,0c-0.4-0.3-0.8-0.7-0.2-1.5c0.7-0.8,2.7-3.2,3-3.5
		c0.3-0.3,1.1-0.5,1.5-0.1C26.4,38.2,26.7,38.6,26.3,39.1"/>
	<path class="st13" d="M48.9,13c-0.1,0-0.2,0-0.3,0c-0.1,0-0.2,0-0.3,0c-0.5,0-1,0-1,0s0,0,0,0c-0.5,0-0.9-0.1-1.3-0.6
		c-0.3-0.4-0.7-0.8-1.2-1c-0.4-0.2-0.9-0.4-1.4-0.1c-0.5,0.3-0.5,0.8-0.4,1.3c0,0.1,0,0.2,0.1,0.4c0.2,0.9,0.2,0.8-0.7,1.2
		c-1.7,0.7-3.4,1.5-4.9,2.5c-0.5,0.3-0.6,0.8-0.4,1.3c0.4,0.7,1,0.9,1.7,0.5c1.7-1,3.4-1.9,5.2-2.6c0.3-0.1,0.5-0.1,0.7,0.2
		c0.4,0.4,0.9,0.8,1.4,1.1c0.7,0.4,1.4,0.3,1.8-0.3c0.2-0.3,0.1-0.7,0.1-1.1c-0.1-0.6-0.1-0.8,0.1-0.9c0.2,0,0.3,0,0.3,0
		s0.1,0,0.3,0c0,0,0.1,0,0.1,0c0.1,0,0.2,0,0.2,0c0.2,0,0.3,0,0.6-0.1c0,0,0,0,0,0c0.6-0.1,0.5-0.5,0.3-1C49.7,13.3,49.2,13,48.9,13
		 M46.5,14.6c0.1,0.3,0.1,0.5-0.2,0.7c-0.3,0.2-0.5,0-0.7-0.1c-0.1-0.1-0.3-0.2-0.4-0.3c-0.4-0.4-0.6-0.8-0.6-1.3
		c0-0.2,0-0.4,0.1-0.5c0.2-0.1,0.4-0.1,0.6,0C45.9,13.5,46.3,13.9,46.5,14.6"/>
	<path class="st11" d="M40.3,34.2c0,0,2.8-2.3,6.5-4.1c0.7-0.4,0.9,0.2,1,0.7c0.1,0.5,0.2,1-0.4,1.3c-0.7,0.4-3.4,1.6-5.8,3.5
		c-0.8,0.5-1,0.6-1.4,0C39.6,35.2,39.8,34.6,40.3,34.2"/>
	<path class="st11" d="M48.3,30.4c0,0,0,1.4,0.8,1.1c0.8-0.2,0.6-1.1,0.6-1.3c0-0.2,0-1.1-0.7-1C48.2,29.4,48.3,30.4,48.3,30.4"/>
	<path class="st11" d="M50.7,28.8c0,0-0.7,0-0.8,1.1c-0.1,1.1,0.4,1,0.8,1.1s1.3,0.2,1.4-0.8c0.1-0.5,0.2-1.3-0.4-1.3
		C51.3,28.8,50.7,28.8,50.7,28.8"/>
	<path class="st11" d="M52.8,29.3c0,0-0.4,0.6-0.2,1.5c0.2,0.4,0.3,0.6,0.5,0.8s0.4,0.7,0.5,0.4c0.1-0.3,0.4-1.3,0.3-1.6
		c-0.1-0.3-0.2-0.6-0.5-0.8C53.2,29.4,52.9,28.9,52.8,29.3"/>
</g>
</svg>
