<?xml version="1.0" encoding="utf-8"?>
<!-- Generator: Adobe Illustrator 22.1.0, SVG Export Plug-In . SVG Version: 6.00 Build 0)  -->
<svg version="1.1" id="Capa_1" xmlns="http://www.w3.org/2000/svg" xmlns:xlink="http://www.w3.org/1999/xlink" x="0px" y="0px"
	 viewBox="0 0 85.6 23.1" style="enable-background:new 0 0 85.6 23.1;" xml:space="preserve">
<style type="text/css">
	.st0{fill:#F1F1F1;}
	.st1{fill:#FFFFFF;}
	.st2{fill:#0187CD;}
	.st3{opacity:0.55;clip-path:url(#SVGID_2_);}
	.st4{opacity:0.55;clip-path:url(#SVGID_4_);}
	.st5{opacity:0.5;fill:none;stroke:#BEBEBE;stroke-miterlimit:10;}
	.st6{fill:#D8D8D8;}
	.st7{fill:#BEBEBE;}
	.st8{fill:#004485;}
	.st9{opacity:0.55;}
	.st10{fill:#004484;}
	.st11{fill:#87888B;}
	.st12{fill:#2F4C87;}
	.st13{fill:#E1E2E3;}
	.st14{fill:#C47930;}
	.st15{fill:#C3C3C3;}
	.st16{fill:#A4D523;}
	.st17{fill:#27608D;}
	.st18{fill:#749323;}
	.st19{fill:#FF0000;}
	.st20{fill:#CE7535;}
	.st21{fill:#265D9B;}
	.st22{opacity:5.000000e-02;}
	.st23{clip-path:url(#SVGID_6_);fill:#FFFFFF;}
	.st24{fill:#304483;}
	.st25{fill:#9D9FA1;}
	.st26{opacity:0.8;}
	.st27{fill:url(#SVGID_7_);}
	.st28{fill:url(#SVGID_8_);}
	.st29{opacity:0.3;fill:#FFFFFF;stroke:#FFFFFF;stroke-miterlimit:10;}
	.st30{opacity:5.000000e-02;fill:#004484;}
	.st31{opacity:0.15;fill:#004484;}
	.st32{opacity:0.3;fill:#004484;}
	.st33{opacity:0.4;fill:#004484;}
	.st34{opacity:0.5;fill:#004484;}
	.st35{opacity:0.6;fill:#004484;}
	.st36{opacity:0.7;fill:#004484;}
	.st37{opacity:0.8;fill:#004484;}
	.st38{opacity:0.9;fill:#004484;}
	.st39{fill:url(#SVGID_9_);}
	.st40{fill:none;stroke:#265D9B;stroke-width:1.5;stroke-miterlimit:10;}
	.st41{opacity:0.85;fill:#FFFFFF;}
	.st42{opacity:0.85;fill:#9D9FA1;}
	.st43{opacity:0.75;}
	.st44{fill:#2B6BA7;}
	.st45{fill:none;stroke:#265D9B;stroke-width:3;stroke-miterlimit:10;}
	.st46{fill:none;stroke:#CE7535;stroke-width:3;stroke-miterlimit:10;}
	.st47{fill:url(#SVGID_10_);stroke:#265D9B;stroke-miterlimit:10;}
	.st48{fill:url(#SVGID_11_);stroke:#265D9B;stroke-miterlimit:10;}
	.st49{fill:#F3F3F3;}
	.st50{fill:#040707;}
	.st51{fill:#6F7175;}
	.st52{fill:#01CCF7;}
	.st53{fill:#00C0F5;}
	.st54{fill:#707276;}
	.st55{fill:#04E777;}
	.st56{fill:#04D8F7;}
	.st57{fill:#F6C302;}
	.st58{fill:#D83155;}
	.st59{fill:#E9354C;}
	.st60{fill:#F6CE05;}
	.st61{fill:#F33A45;}
	.st62{fill:#4D4D4D;}
	.st63{opacity:0.5;}
	.st64{fill:none;stroke:#FFFFFF;stroke-width:3;stroke-miterlimit:10;}
	.st65{fill:none;stroke:#808080;stroke-width:1.5;stroke-miterlimit:10;}
	.st66{fill:#0039A6;}
	.st67{opacity:0.5;fill:none;stroke:#C3C3C3;stroke-miterlimit:10;}
	.st68{fill:url(#SVGID_12_);stroke:#265D9B;stroke-miterlimit:10;}
	.st69{fill:url(#SVGID_13_);stroke:#265D9B;stroke-miterlimit:10;}
	.st70{fill:url(#SVGID_14_);stroke:#265D9B;stroke-miterlimit:10;}
	.st71{fill:url(#SVGID_15_);stroke:#265D9B;stroke-miterlimit:10;}
	.st72{fill:none;stroke:#265D9B;stroke-width:0.25;stroke-miterlimit:10;}
	.st73{fill:#6D6D6D;}
	.st74{fill:#8CBF37;}
	.st75{fill:#0C6F9E;}
	.st76{fill:#DFB70E;}
	.st77{fill:#FAA93F;}
	.st78{fill:#6B7137;}
	.st79{fill:#AA6A43;}
	.st80{fill:#147DA1;}
	.st81{fill:#428B44;}
	.st82{fill:#E81D24;}
	.st83{fill:#8BC548;}
	.st84{fill:#0CB8B8;}
	.st85{fill:#002B51;}
	.st86{fill:#A5A7AA;}
	.st87{fill:#6F7173;}
	.st88{fill:#707274;}
	.st89{fill:#A6A8AB;}
	.st90{fill:#A6A7AA;}
	.st91{fill:#A6A8AA;}
	.st92{fill:#6E7072;}
	.st93{clip-path:url(#SVGID_19_);fill:#FFFFFF;}
	.st94{clip-path:url(#SVGID_19_);}
	.st95{fill:#054B8D;}
	.st96{fill:#B12E33;}
	.st97{fill:#B43439;}
	.st98{fill:#B32E33;}
	.st99{fill:#B02D32;}
	.st100{fill:#25AAC9;}
	.st101{clip-path:url(#SVGID_21_);fill:#FFFFFF;}
	.st102{clip-path:url(#SVGID_21_);fill:#B43439;}
	.st103{clip-path:url(#SVGID_23_);fill:#FFFFFF;}
	.st104{fill:none;stroke:#F3F3F3;stroke-miterlimit:10;}
	.st105{clip-path:url(#SVGID_25_);fill:#FFFFFF;}
	.st106{clip-path:url(#SVGID_25_);}
	.st107{clip-path:url(#SVGID_27_);fill:#FFFFFF;}
	.st108{clip-path:url(#SVGID_27_);fill:#B43439;}
	.st109{fill:none;stroke:#FFFFFF;stroke-miterlimit:10;}
	.st110{fill:none;stroke:#CE7535;stroke-miterlimit:10;}
	.st111{fill:none;stroke:#000000;stroke-miterlimit:10;}
	.st112{fill:#015594;}
	.st113{fill:#085A98;}
	.st114{fill:#2497D4;}
	.st115{fill:#10619E;}
	.st116{fill:#4C91C5;}
	.st117{fill:#2673AD;}
	.st118{fill:#1A68A4;}
	.st119{fill:#327CB3;}
	.st120{fill:#3A82B9;}
	.st121{fill:#64A4D4;}
	.st122{fill:#00427A;}
	.st123{fill:#F8FBFC;}
	.st124{fill:#7EC1E5;}
	.st125{fill:#C1E1F2;}
	.st126{fill:#FCFDFD;}
	.st127{fill:#E5BC2D;}
	.st128{fill:#DEB12D;}
	.st129{fill:#3A4981;}
	.st130{fill:#D19C2C;}
	.st131{fill:#6D6750;}
	.st132{fill:#3B5188;}
	.st133{fill:#4C7FB7;}
	.st134{fill:#3B5892;}
	.st135{fill:#426499;}
	.st136{fill:#4874A9;}
	.st137{fill:#4A3C1D;}
	.st138{fill:#5F7682;}
	.st139{fill:#DDA62B;}
	.st140{fill:#383D75;}
	.st141{fill:#DDAB2C;}
	.st142{clip-path:url(#SVGID_31_);fill:#FFFFFF;}
	.st143{clip-path:url(#SVGID_31_);}
	.st144{fill:none;stroke:#CE7535;stroke-width:2;stroke-miterlimit:10;}
	.st145{fill:none;}
	.st146{opacity:5.000000e-02;fill:#FFFFFF;}
	.st147{fill:#25ABCA;}
	.st148{fill:#B8272D;}
	.st149{fill:#29A2D9;}
	.st150{fill:#D0D721;}
</style>
<g class="st43">
	<path class="st149" d="M84,0.9c-1.4-0.1-2.7-0.2-4.1,0.2c-1.3,0.3-2.1,1.1-2.5,2.5c-0.3,1.1-0.4,2.2-0.4,3.3c0,0.4-0.1,0.5-0.5,0.5
		c-0.5,0-1.1,0-1.4,0.5c-0.5,0.7-0.5,1.6-0.2,2.4c0.2,0.7,0.9,0.8,1.5,0.8c0.4,0,0.5,0.2,0.5,0.6c0,3.1,0,6.2,0,9.3
		c0,1.8,0.4,2.2,2.2,2.2c1.8,0,2.2-0.4,2.2-2.2c0-3.1,0-6.2,0-9.4c0-0.4,0.1-0.6,0.5-0.5c0.4,0,0.8,0,1.2,0c1.4,0,2-0.6,1.9-2
		c0-0.2,0-0.3-0.1-0.5c-0.1-0.7-0.4-0.9-1.1-1.1c-0.4-0.1-0.8-0.1-1.2-0.1c-1.2,0-1.2,0-1.2-1.2c0-0.9,0.4-1.2,1.3-1.3
		c0.4,0,0.7,0,1.1-0.1c0.8-0.1,1.4-0.4,1.8-1.1c0-0.6,0-1.2,0-1.8C85.3,1.2,84.7,0.9,84,0.9z"/>
	<path class="st149" d="M14.5,11.4c1.2-1,1.7-2.3,1.8-3.7c0.1-0.8,0-1.6-0.1-2.4C15.9,3.4,14.9,2,13,1.4c-0.9-0.3-1.8-0.5-2.7-0.5
		c-2.9,0-5.8,0-8.7,0C0.5,0.8,0,1.3,0,2.5c0,3,0,6,0,8.9c0,3.3,0,6.6,0,9.9c0,1.1,0.4,1.5,1.5,1.6c0.4,0,0.7,0,1.1,0
		c2.4,0,4.7,0,7.1,0c1,0,1.9-0.1,2.9-0.3c1.6-0.4,3-1.1,3.7-2.7c0.8-2.1,0.8-4.2,0.2-6.3C16.1,12.6,15.4,12,14.5,11.4z M4.6,5.1
		c0-0.2,0-0.4,0.3-0.4c1.7,0,3.3-0.1,5,0.1c1.1,0.1,1.5,0.6,1.6,1.7c0,0.5,0,1,0,1.6c-0.1,0.9-0.5,1.3-1.3,1.5
		c-1,0.2-1.9,0.1-2.7,0.1c-0.9,0-1.7,0-2.4,0c-0.3,0-0.4-0.1-0.4-0.4C4.6,7.8,4.6,6.5,4.6,5.1z M12,17.5c-0.2,0.9-0.5,1.2-1.4,1.4
		c-1,0.2-2.1,0-2.9,0.1c-1,0-1.8,0-2.6,0c-0.3,0-0.5-0.1-0.5-0.4c0-1.6,0-3.1,0-4.7c0-0.3,0.1-0.4,0.4-0.4c1.7,0,3.4,0,5.1,0
		c1.3,0,1.8,0.5,1.9,1.8C12.2,16.1,12.2,16.8,12,17.5z"/>
	<path class="st149" d="M65.2,11.4c1-0.8,1.5-1.8,1.7-2.9c0.2-1.1,0.2-2.1,0-3.2c-0.3-1.9-1.3-3.2-3.1-3.9c-0.9-0.3-1.9-0.5-2.9-0.6
		c-2.8,0-5.7,0-8.5,0c-1.3,0-1.7,0.5-1.7,1.7c0,6.1,0,12.2,0,18.3c0,1.8,0.4,2.2,2.2,2.2c2.6,0,5.1,0,7.7,0c0.9,0,1.9-0.1,2.8-0.3
		c1.8-0.4,3.3-1.3,3.9-3.2c0.6-1.8,0.6-3.7,0.1-5.6C67,12.8,66.2,12,65.2,11.4z M55.3,5.1c0-0.2,0-0.4,0.3-0.4c1.7,0,3.3-0.1,5,0.1
		c1.1,0.1,1.5,0.6,1.6,1.7c0,0.5,0,1,0,1.5c-0.1,0.9-0.5,1.3-1.3,1.5c-1,0.2-1.9,0.1-2.7,0.1c-0.9,0-1.7,0-2.4,0
		c-0.3,0-0.4-0.1-0.4-0.4C55.3,7.8,55.3,6.5,55.3,5.1z M62.7,17.7c-0.1,0.7-0.6,1.1-1.2,1.2C60.7,19.1,60,19,59.3,19
		c-1.2,0-2.3,0-3.5,0c-0.4,0-0.5-0.1-0.5-0.5c0-1.5,0-3,0-4.5c0-0.4,0.1-0.6,0.5-0.5c0.8,0,1.7,0,2.5,0c0,0,0,0,0,0
		c0.9,0,1.7,0,2.6,0c1.2,0.1,1.7,0.5,1.8,1.7C62.9,16.1,62.9,16.9,62.7,17.7z"/>
	<path class="st149" d="M32.7,15.5c0-2.2,0-4,0-5.8c0-0.4,0-0.8-0.1-1.2c-0.1-0.6-0.3-1-0.9-1.1c-0.8-0.2-1.6-0.2-2.4,0
		c-0.4,0.1-0.7,0.3-0.8,0.6c-0.1,0.4-0.3,0.4-0.6,0.2c-1.7-0.7-3.4-1.2-5.3-1.1c-1.5,0.1-2.5,0.8-3.1,2.2c-0.2,0.4-0.3,0.8-0.4,1.3
		c-0.4,1.9-0.5,3.8-0.4,5.7c0,1.5,0.2,3.1,0.7,4.5c0.5,1.2,1.3,1.9,2.6,2.2c0.7,0.1,1.3,0.2,2,0.1c1.4-0.1,2.7-0.6,4-1.1
		c0.3-0.1,0.4-0.1,0.5,0.2c0.1,0.4,0.4,0.6,0.8,0.7c0.6,0.2,1.3,0.1,1.9,0.1c1,0,1.4-0.5,1.5-1.5C32.7,19.3,32.6,17.2,32.7,15.5z
		 M28.1,18.1c-1.2,0.5-2.4,1-3.7,1.1c-0.7,0-1-0.1-1.1-0.8c-0.3-1.4-0.3-2.8-0.3-4.1c0-0.8,0-1.7,0.3-2.5c0.2-0.8,0.4-1,1.2-0.9
		c1.3,0.1,2.4,0.6,3.6,1.1c0.2,0.1,0.2,0.3,0.2,0.5c0,0.9,0,1.7,0,2.6c0,0.9,0,1.7,0,2.6C28.2,17.9,28.3,18.1,28.1,18.1z"/>
	<path class="st149" d="M47.8,9.1c-0.6-1.1-1.4-1.8-2.7-1.9c-0.7-0.1-1.4-0.1-2.1,0c-1.4,0.2-2.7,0.7-4,1.2
		c-0.1-0.8-0.7-1.1-1.4-1.1c-0.6-0.1-1.2-0.1-1.8,0c-0.8,0.1-1.1,0.5-1.2,1.3c0,0.2,0,0.5,0,0.7c0,3.8,0,7.6,0,11.5
		c0,1.8,0.4,2.1,2.1,2.1c1.9,0,2.3-0.4,2.3-2.3c0-2.7,0-5.4,0-8.1c0-0.2-0.1-0.5,0.2-0.6c1.1-0.4,2.1-0.9,3.2-1.1
		c1.1-0.2,1.4,0.1,1.5,1.2c0,0.3,0.1,0.6,0.1,0.9c0,1.8,0,3.5,0,5.3c0,1.1,0,2.2,0,3.3c0,0.9,0.4,1.3,1.2,1.4c0.7,0.1,1.4,0.1,2,0
		c0.7-0.1,1-0.4,1.2-1.1c0-0.3,0.1-0.5,0.1-0.8c0-2.7,0-5.3,0-8C48.6,11.6,48.4,10.3,47.8,9.1z"/>
	<path class="st149" d="M73.7,8.7c-0.1-0.9-0.4-1.2-1.2-1.4c-0.4-0.1-0.7-0.1-1.1-0.1c-1.7,0-2.2,0.4-2.2,2.1c0,3.8,0,7.6,0,11.4
		c0,0.3,0,0.7,0.1,1c0.2,0.7,0.5,1,1.2,1.1c0.5,0.1,1.1,0.1,1.6,0c1.1-0.1,1.5-0.5,1.5-1.6c0.1-2.1,0-4.1,0-6.2c0-0.3,0-0.7,0-1
		C73.7,12.3,73.8,10.5,73.7,8.7z"/>
	<path class="st150" d="M73,0.4c-1-0.6-2.3-0.6-3.3,0.1c-1,0.7-1.4,1.9-1.1,3.1c0.3,1.3,1,2.3,2.3,2.6c0.1,0,0.2,0,0.3,0
		c1.7,0.1,3.1-1.4,3.1-3.3C74.4,1.9,73.9,1,73,0.4z M71,4.4c-0.7,0-1.3-0.8-1.3-1.6c0-0.8,0.6-1.4,1.4-1.4c0.8,0,1.4,0.6,1.4,1.5
		C72.5,3.7,71.8,4.4,71,4.4z"/>
</g>
</svg>
