<?xml version="1.0" encoding="utf-8"?>
<!-- Generator: Adobe Illustrator 22.1.0, SVG Export Plug-In . SVG Version: 6.00 Build 0)  -->
<svg version="1.1" id="Capa_1" xmlns="http://www.w3.org/2000/svg" xmlns:xlink="http://www.w3.org/1999/xlink" x="0px" y="0px"
	 viewBox="0 0 70.7 71.2" style="enable-background:new 0 0 70.7 71.2;" xml:space="preserve">
<style type="text/css">
	.st0{opacity:0.55;clip-path:url(#SVGID_2_);}
	.st1{opacity:0.5;fill:none;stroke:#BFBFBF;stroke-miterlimit:10;}
	.st2{fill:#D9D9D9;}
	.st3{fill:#004486;}
	.st4{opacity:0.55;}
	.st5{fill:#FFFFFF;}
	.st6{fill:#004485;}
	.st7{fill:#88898C;}
	.st8{fill:#2F4C88;}
	.st9{fill:#E2E3E4;}
	.st10{fill:#C57930;}
	.st11{fill:#C4C4C4;}
	.st12{fill:#A5D623;}
	.st13{fill:#27608E;}
	.st14{fill:#749423;}
	.st15{fill:#FF0000;}
	.st16{fill:#CF7535;}
	.st17{fill:#265D9C;}
	.st18{opacity:5.000000e-02;}
	.st19{clip-path:url(#SVGID_4_);fill:#FFFFFF;}
	.st20{fill:#304484;}
	.st21{fill:#9EA0A2;}
	.st22{fill:#F2F2F2;}
	.st23{opacity:0.8;}
	.st24{fill:url(#SVGID_5_);}
	.st25{fill:url(#SVGID_6_);}
	.st26{opacity:0.3;fill:#FFFFFF;stroke:#FFFFFF;stroke-miterlimit:10;}
	.st27{fill:none;stroke:#265D9C;stroke-width:1.5;stroke-miterlimit:10;}
	.st28{opacity:0.85;fill:#FFFFFF;}
	.st29{opacity:0.85;fill:#9EA0A2;}
	.st30{opacity:0.75;}
	.st31{opacity:0.75;fill:none;}
	.st32{fill:#2B6BA8;}
	.st33{fill:none;stroke:#265D9C;stroke-width:3;stroke-miterlimit:10;}
	.st34{fill:none;stroke:#CF7535;stroke-width:3;stroke-miterlimit:10;}
	.st35{fill:url(#SVGID_7_);stroke:#265D9C;stroke-miterlimit:10;}
	.st36{fill:url(#SVGID_8_);stroke:#265D9C;stroke-miterlimit:10;}
	.st37{fill:#F4F4F4;}
	.st38{fill:#040707;}
	.st39{fill:#6F7175;}
	.st40{fill:#01CDF8;}
	.st41{fill:#00C1F6;}
	.st42{fill:#707276;}
	.st43{fill:#04E877;}
	.st44{fill:#04D9F8;}
	.st45{fill:#F7C402;}
	.st46{fill:#D93155;}
	.st47{fill:#EA354C;}
	.st48{fill:#F7CF05;}
	.st49{fill:#F43A45;}
	.st50{fill:#4D4D4D;}
	.st51{opacity:0.5;}
	.st52{fill:none;stroke:#FFFFFF;stroke-width:3;stroke-miterlimit:10;}
	.st53{fill:none;stroke:#808080;stroke-width:1.5;stroke-miterlimit:10;}
	.st54{opacity:0.5;fill:none;stroke:#C4C4C4;stroke-miterlimit:10;}
	.st55{fill:none;stroke:#265D9C;stroke-width:0.25;stroke-miterlimit:10;}
	.st56{fill:#6D6D6D;}
	.st57{clip-path:url(#SVGID_12_);fill:#FFFFFF;}
	.st58{clip-path:url(#SVGID_12_);}
	.st59{fill:#054B8E;}
	.st60{fill:#B22E33;}
	.st61{fill:#B53439;}
	.st62{fill:#B42E33;}
	.st63{fill:#B12D32;}
	.st64{fill:#25ABCA;}
	.st65{clip-path:url(#SVGID_14_);fill:#FFFFFF;}
	.st66{clip-path:url(#SVGID_14_);fill:#B53439;}
	.st67{clip-path:url(#SVGID_16_);fill:#FFFFFF;}
	.st68{fill:none;stroke:#F4F4F4;stroke-miterlimit:10;}
	.st69{clip-path:url(#SVGID_18_);fill:#FFFFFF;}
	.st70{clip-path:url(#SVGID_18_);}
	.st71{clip-path:url(#SVGID_20_);fill:#FFFFFF;}
	.st72{clip-path:url(#SVGID_20_);fill:#B53439;}
	.st73{fill:none;stroke:#FFFFFF;stroke-miterlimit:10;}
	.st74{fill:none;stroke:#CF7535;stroke-miterlimit:10;}
</style>
<g>
	<g class="st18">
		<defs>
			<rect id="SVGID_3_" x="-1134" y="-482.5" class="st18" width="943.6" height="842"/>
		</defs>
		<clipPath id="SVGID_2_">
			<use xlink:href="#SVGID_3_"  style="overflow:visible;"/>
		</clipPath>
		<path style="clip-path:url(#SVGID_2_);fill:#FFFFFF;" d="M12.2,64.4c-0.5,0.4-13.7,0.7-14.7,21.5c-1.1,20.8,8.8,20.3,16.3,20.9
			s25.3,3.2,28.4-15.9c1.5-10.3,4.7-25.8-6.9-26.4C23.6,64,12.2,64.4,12.2,64.4"/>
		<path style="clip-path:url(#SVGID_2_);fill:#FFFFFF;" d="M52.8,73.4c0,0-7.1,11.4-3.6,29.9c3.1,8.4,6.4,11.4,9.9,15.6
			s7.3,13.7,9.1,8.3s7.9-26.2,6.4-31.6c-1.6-5.5-4.6-11-9.1-15.2C61.1,76.2,55.4,65.9,52.8,73.4"/>
	</g>
</g>
<g>
	<g>
		<path class="st17" d="M35.4,11.4c0,0-8.5,7-19.7,7.7v22.6c0,0,0.9,14,19.7,19.4C54.1,55.7,55,41.7,55,41.7V19
			C43.9,18.4,35.4,11.4,35.4,11.4z"/>
		<path class="st5" d="M44.8,31.5v-4c0-5.2-4.3-9.5-9.5-9.5c-5.2,0-9.5,4.3-9.5,9.5v4h-1.1v17.8h21.1V31.5H44.8z M28.9,27.5
			c0-3.5,2.9-6.4,6.4-6.4s6.4,2.9,6.4,6.4v4H28.9V27.5z"/>
		
			<ellipse transform="matrix(0.2298 -0.9732 0.9732 0.2298 -7.6735 62.0488)" class="st55" cx="35.4" cy="35.9" rx="34.6" ry="34.6"/>
		
			<ellipse transform="matrix(0.2298 -0.9732 0.9732 0.2298 -7.6735 62.0488)" class="st55" cx="35.4" cy="35.9" rx="32.1" ry="32.1"/>
	</g>
	<g>
		<path class="st17" d="M40.6,36.3c-0.7,0-1.2-0.3-1.6-1c-0.2-0.5-0.2-1-0.2-1l0-0.2h-3.5h-0.1h-3.5l0,0.2c0,0,0,0.5-0.2,1
			c-0.3,0.7-0.8,1-1.6,1h-0.2v5.4c0,0,0,0.8,0.7,1.9c0.6,0.9,2,2.3,4.8,3.5l0-0.1l0,0.1c2.8-1.2,4.1-2.6,4.8-3.5
			c0.7-1.1,0.7-1.8,0.7-1.9v-5.4H40.6z M40.4,41.7c0,0,0,0.7-0.7,1.7c-0.6,0.9-1.8,2.2-4.5,3.3c-2.6-1.1-3.9-2.4-4.5-3.3
			c-0.6-1-0.7-1.7-0.7-1.7v-5c1-0.1,1.5-0.7,1.7-1.2c0.2-0.4,0.2-0.8,0.3-1h3.1h0.1h3.1c0,0.2,0.1,0.6,0.3,1
			c0.2,0.5,0.7,1.1,1.7,1.2V41.7z"/>
		<path class="st17" d="M38,37.3c-0.3-0.3-0.2-0.8-0.2-0.9l0-0.2l-0.2,0h-2.2h-0.1H33l-0.2,0l0,0.2c0,0,0.1,0.5-0.2,0.9
			c-0.2,0.2-0.4,0.3-0.7,0.3l-0.2,0v3.8l0,0c0,0.1,0.5,2.2,3.6,3.5l0-0.1l0,0.1c3.1-1.3,3.6-3.4,3.6-3.5l0,0v-3.8l-0.2,0
			C38.4,37.6,38.2,37.5,38,37.3z M38.5,41.4c0,0.1-0.1,0.6-0.6,1.1c-0.4,0.6-1.2,1.4-2.7,2c-1.5-0.6-2.3-1.4-2.7-2
			c-0.4-0.6-0.5-1-0.6-1.1V38c0.4-0.1,0.6-0.2,0.8-0.4c0.3-0.3,0.3-0.7,0.3-0.9h2h0.1h2c0,0.2,0.1,0.6,0.3,0.9
			c0.2,0.2,0.5,0.4,0.8,0.4V41.4z"/>
		<path class="st17" d="M35.4,40L35.4,40c-0.6-0.1-0.9-0.2-0.9-0.6c0-0.1,0-0.3,0.1-0.4c0.2-0.2,0.5-0.3,0.7-0.3
			c0.3,0,0.7,0.1,0.8,0.5c0,0,0,0,0.1,0c0,0,0,0,0.1,0l0.2-0.1c0,0,0-0.1,0-0.1c-0.2-0.4-0.5-0.6-1-0.7v-0.4c0,0,0-0.1-0.1-0.1h-0.2
			c0,0-0.1,0-0.1,0.1v0.4c-0.6,0.1-1.1,0.4-1.1,1.1c0,0.7,0.6,0.9,1.2,1l0,0c0.6,0.1,0.9,0.2,0.9,0.7c0,0.5-0.6,0.6-0.9,0.6
			c-0.4,0-0.8-0.1-1-0.5c0,0,0,0,0,0c0,0,0,0-0.1,0L34,41.3c0,0,0,0.1,0,0.1c0.2,0.4,0.6,0.7,1.1,0.8v0.4c0,0,0,0.1,0.1,0.1h0.2
			c0,0,0.1,0,0.1-0.1v-0.4c0.5-0.1,1.1-0.4,1.1-1.1C36.6,40.2,36,40.1,35.4,40z"/>
	</g>
</g>
</svg>
