<?xml version="1.0" encoding="utf-8"?>
<!-- Generator: Adobe Illustrator 22.1.0, SVG Export Plug-In . SVG Version: 6.00 Build 0)  -->
<svg version="1.1" id="Capa_1" xmlns="http://www.w3.org/2000/svg" xmlns:xlink="http://www.w3.org/1999/xlink" x="0px" y="0px"
	 viewBox="0 0 36.9 31.3" style="enable-background:new 0 0 36.9 31.3;" xml:space="preserve">
<style type="text/css">
	.st0{fill:#F2F2F2;}
	.st1{fill:#FFFFFF;}
	.st2{fill:none;stroke:#2F4C88;stroke-width:0.5;stroke-miterlimit:10;}
	.st3{fill:none;stroke:#25ABCA;stroke-width:0.5;stroke-miterlimit:10;}
	.st4{fill:#25ABCA;}
	.st5{fill:none;stroke:#B3B3B3;stroke-width:0.5;stroke-miterlimit:10;}
	.st6{fill:#EFEFEF;}
	.st7{fill:none;stroke:#050505;stroke-width:0.5;stroke-miterlimit:10;}
	.st8{fill:none;stroke:#E6E6E6;stroke-width:0.5;stroke-miterlimit:10;}
	.st9{fill:#29ABE2;}
	.st10{fill:#46BE8A;}
	.st11{fill:#F96868;}
	.st12{fill:#F1F4F5;}
	.st13{fill:#004485;}
	.st14{opacity:0.5;fill:none;stroke:#000000;stroke-miterlimit:10;}
	.st15{fill:#F7F7F7;}
	.st16{fill:none;stroke:#9EA0A2;stroke-width:0.5;stroke-miterlimit:10;}
	.st17{fill:#2F4C88;}
	.st18{fill:none;stroke:#999999;stroke-width:0.5;stroke-miterlimit:10;}
	.st19{fill:#88898C;}
	.st20{fill:#E2E3E4;}
	.st21{fill:#C57930;}
	.st22{fill:#CF7535;}
	.st23{fill:none;stroke:#CCCCCC;stroke-width:0.5;stroke-miterlimit:10;}
	.st24{fill:#666666;}
	.st25{fill:none;stroke:#666666;stroke-width:0.5;stroke-miterlimit:10;}
	.st26{fill:#999999;}
	.st27{fill:#EBFFF2;}
	.st28{fill:none;stroke:#CCCCCC;stroke-width:0.75;stroke-miterlimit:10;}
	.st29{fill:none;stroke:#004485;stroke-width:0.5;stroke-miterlimit:10;}
	.st30{fill:none;stroke:#CF7535;stroke-miterlimit:10;}
	.st31{fill:#87888B;}
	.st32{opacity:0.85;fill:#FFFFFF;}
	.st33{opacity:0.85;fill:#9D9FA1;}
	.st34{fill:#C47930;}
	.st35{fill:#CE7535;}
	.st36{fill:#9EA0A2;}
	.st37{fill:none;stroke:#000000;stroke-miterlimit:10;}
	.st38{fill:none;stroke:#CF7535;stroke-width:4;stroke-miterlimit:10;}
	.st39{opacity:0.2;fill:#2F4C88;}
	.st40{fill:#004484;}
	.st41{fill:#27608D;}
	.st42{fill:#749323;}
	.st43{clip-path:url(#SVGID_2_);fill:#FFFFFF;}
	.st44{clip-path:url(#SVGID_2_);}
	.st45{fill:#054B8D;}
	.st46{fill:#B12E33;}
	.st47{fill:#B43439;}
	.st48{fill:#B32E33;}
	.st49{fill:#B02D32;}
	.st50{clip-path:url(#SVGID_4_);fill:#FFFFFF;}
	.st51{clip-path:url(#SVGID_4_);fill:#B43439;}
	.st52{opacity:0.55;}
	.st53{fill:#0187CD;}
	.st54{fill:#015594;}
	.st55{fill:#085A98;}
	.st56{fill:#2497D4;}
	.st57{fill:#10619E;}
	.st58{fill:#4C91C5;}
	.st59{fill:#2673AD;}
	.st60{fill:#1A68A4;}
	.st61{fill:#327CB3;}
	.st62{fill:#3A82B9;}
	.st63{fill:#64A4D4;}
	.st64{fill:#00427A;}
	.st65{fill:#F8FBFC;}
	.st66{fill:#7EC1E5;}
	.st67{fill:#C1E1F2;}
	.st68{fill:#FCFDFD;}
	.st69{fill:none;}
	.st70{fill:#FFFFFF;stroke:#CCCCCC;stroke-miterlimit:10;}
	.st71{clip-path:url(#SVGID_6_);fill:#FFFFFF;}
	.st72{clip-path:url(#SVGID_6_);}
	.st73{clip-path:url(#SVGID_8_);fill:#FFFFFF;}
	.st74{clip-path:url(#SVGID_8_);fill:#B43439;}
	.st75{clip-path:url(#SVGID_10_);fill:#FFFFFF;}
	.st76{clip-path:url(#SVGID_10_);}
	.st77{clip-path:url(#SVGID_12_);fill:#FFFFFF;}
	.st78{clip-path:url(#SVGID_12_);fill:#B43439;}
	.st79{clip-path:url(#SVGID_14_);fill:#FFFFFF;}
	.st80{clip-path:url(#SVGID_14_);}
	.st81{clip-path:url(#SVGID_16_);fill:#FFFFFF;}
	.st82{clip-path:url(#SVGID_16_);fill:#B43439;}
	.st83{clip-path:url(#SVGID_18_);fill:#FFFFFF;}
	.st84{clip-path:url(#SVGID_18_);}
	.st85{clip-path:url(#SVGID_20_);fill:#FFFFFF;}
	.st86{clip-path:url(#SVGID_20_);fill:#B43439;}
	.st87{fill:#8CC63F;}
	.st88{fill:none;stroke:#FFFFFF;stroke-width:0.5;stroke-miterlimit:10;}
	.st89{opacity:0.7;}
	.st90{fill:#F2F2F2;stroke:#B3B3B3;stroke-width:0.5;stroke-miterlimit:10;}
	.st91{fill:#265D9B;}
	.st92{fill:none;stroke:#265D9B;stroke-width:0.5;stroke-miterlimit:10;}
	.st93{clip-path:url(#SVGID_22_);fill:#FFFFFF;}
	.st94{clip-path:url(#SVGID_22_);}
	.st95{fill:#25AAC9;}
	.st96{clip-path:url(#SVGID_24_);fill:#FFFFFF;}
	.st97{clip-path:url(#SVGID_24_);}
	.st98{fill:#C3C3C3;}
	.st99{fill:none;stroke:#004485;stroke-width:0.6;stroke-miterlimit:10;}
	.st100{clip-path:url(#SVGID_26_);fill:#FFFFFF;}
	.st101{clip-path:url(#SVGID_26_);fill:#B43439;}
	.st102{fill:#808080;}
</style>
<g>
	<path class="st1" d="M12.3,14.1c0.6-0.5,1.2-1.1,1.8-1.6c0.1-0.1,0.2-0.2,0.2-0.5c-0.3-0.8-0.1-1.6,0.5-2.1
		c0.6-0.6,1.4-0.7,2.2-0.5c1,0.3,1.7,0.9,1.9,1.9c0.4,1.5-0.8,2.7-2.4,2.5c-0.3,0-0.5-0.1-0.7-0.2c-0.3-0.1-0.5-0.1-0.7,0.1
		c-1.3,1-2.5,2.2-3.7,3.4c-0.2,0.2-0.5,0.5-0.7,0.7c-0.3,0.3-0.7,0.3-1,0c-0.3-0.2-0.3-0.6-0.1-1c0.3-0.5,0.7-0.8,1.1-1.2
		C11.1,15.1,11.7,14.6,12.3,14.1C12.3,14.1,12.3,14.1,12.3,14.1 M15.8,12c0.4,0.4,1,0.5,1.4,0.2c0.3-0.3,0.3-0.8,0-1.1
		c-0.4-0.4-1-0.5-1.3-0.1C15.5,11.1,15.5,11.6,15.8,12"/>
	<path class="st34" d="M9.7,30.5c-0.9,0.4-1.7,0.1-2.3-0.4c-0.6-0.4-1.1-1-1.3-1.8C5.8,27,6.7,26.1,8,26.5c0.5,0.2,0.7,0,1-0.4
		c1.1-1.4,2.2-2.8,3.5-4c0.4-0.4,0.8-0.4,1.1-0.1c0.3,0.3,0.3,0.8-0.1,1.2C12.7,24.1,11.8,25,11,26c-0.3,0.4-0.7,0.9-1,1.3
		c-0.2,0.2-0.2,0.4,0,0.6c0.4,0.7,0.6,1.3,0.2,2.1C10,30.2,9.8,30.3,9.7,30.5 M8.7,28.2c-0.1-0.1-0.2-0.2-0.3-0.3
		c-0.3-0.2-0.6-0.2-0.8,0c-0.3,0.2-0.2,0.5-0.1,0.8c0.2,0.3,0.4,0.6,0.7,0.6c0.3,0.1,0.5,0.1,0.7-0.2c0.2-0.2,0.1-0.5,0-0.7
		C8.8,28.3,8.7,28.3,8.7,28.2"/>
	<path class="st1" d="M19.1,9.4c-0.4-0.4-0.6-0.9-0.6-1.5c0-1,0.8-1.6,1.8-1.6c0.4,0,0.9,0.1,1.3,0.3c0.2,0.1,0.4,0.1,0.6,0
		c1-0.5,1.9-1.1,3-1.5c0.5-0.2,1.1,0.1,1.3,0.6c0.1,0.2,0,0.4-0.2,0.5c-1,0.4-1.9,0.9-2.8,1.3c-0.3,0.2-0.5,0.3-0.3,0.8
		c0.4,1-0.4,2-1.5,2.1C20.6,10.5,19.8,10,19.1,9.4 M21.5,7.9c-0.1-0.1-0.2-0.2-0.3-0.2c-0.4-0.3-0.9-0.2-1.2,0.2
		c-0.2,0.3,0,0.7,0.3,1C20.5,8.9,20.6,9,20.8,9c0.4,0.1,0.7,0.1,0.9-0.2C21.9,8.5,21.7,8.2,21.5,7.9"/>
	<path class="st1" d="M21.4,29.2c-0.1-0.1-0.2-0.2-0.3-0.3c0,0-0.1-0.1-0.1-0.2c0-0.1-0.1-0.1-0.1-0.2c0,0,0-0.1-0.1-0.2
		c-0.2-0.5-0.1-1.1,0.3-1.5c0.4-0.4,1-0.6,1.6-0.4c0.2,0.1,0.3,0.1,0.6,0.2c0.1,0.1,0.2,0,0.3-0.1c0.2-0.2,0.4-0.4,0.7-0.6
		c0.5-0.5,0.9-0.7,1.3-1.1c0.1-0.1,0.2-0.2,0.3-0.3c0.3-0.2,0.4-0.4,0.7-0.3c0.3,0.1,0.4,0.4,0.5,0.7c0,0.1,0,0.2-0.2,0.4
		c-0.3,0.3-0.5,0.4-0.8,0.7c-0.6,0.5-1,0.9-1.6,1.4c-0.1,0.1-0.1,0.2,0,0.4c0.3,0.5,0.3,1,0,1.5C24.1,30,23.6,30,23.2,30
		c-0.4,0-0.8-0.1-1.2-0.3l-0.1-0.1C21.7,29.5,21.6,29.4,21.4,29.2 M23.2,28c-0.3-0.3-0.8-0.4-1.1-0.2c-0.2,0.2-0.2,0.6,0.1,0.9
		c0.3,0.3,0.8,0.5,1.1,0.2C23.6,28.6,23.5,28.3,23.2,28"/>
	<path class="st1" d="M35.2,16.7c0,0,0-0.1-0.1-0.1c0-0.1-0.1-0.2-0.1-0.3c-0.3-0.8-0.3-0.8-1.3-0.6c-0.3,0.1-0.5,0.1-0.8,0.2
		c-0.4,0.1-0.6,0-0.7-0.5c-0.2-0.5-0.1-0.8,0.3-0.9c0.5-0.2,1-0.3,1.5-0.4c0.3,0,0.4-0.1,0.3-0.4c0-0.4-0.1-1,0.3-1.2
		c0.1,0,0.1,0,0.2,0.1c0.1,0.1,0.2,0.1,0.3,0.3c0.1,0.1,0.1,0.2,0.2,0.3c0.6,1.1,0.8,2.3,0.7,3.6c0,0.3-0.2,0.4-0.3,0.4
		c-0.1,0-0.3-0.1-0.4-0.2C35.2,16.9,35.2,16.8,35.2,16.7 M35.4,15.7c0,0,0,0.1,0.1,0c0.1,0,0.1-0.1,0.1-0.2c0-0.5-0.1-0.9-0.3-1.4
		c0-0.1-0.1-0.2-0.2-0.1c-0.1,0-0.1,0.1-0.1,0.2C34.9,14.7,35,15.1,35.4,15.7"/>
	<path class="st34" d="M18,18.7c-0.6,0.6-1.2,1.1-1.8,1.7c-0.1,0.1-0.3,0.2-0.3,0.4c-0.4,0.3-0.6,0.6-0.9,0.9
		c-0.1-0.1-0.2,0-0.3,0.1c-0.4,0-0.7-0.2-0.9-0.6c-0.1-0.3,0.1-0.6,0.3-0.9c0.8-0.8,1.7-1.6,2.5-2.4c0.3-0.3,0.6-0.3,0.9-0.1
		C18,17.9,18.1,18.3,18,18.7"/>
	<path class="st34" d="M24.4,13.9c-0.8,0.5-1.6,1.1-2.5,1.8c-0.3,0.2-0.9,0.1-1.1-0.2c-0.2-0.4-0.2-0.8,0.2-1.1
		c0.9-0.6,1.7-1.3,2.6-1.8c0.4-0.2,0.8-0.2,1.1,0.2C25,13.2,24.9,13.5,24.4,13.9"/>
	<path class="st1" d="M31.1,5.7c-1-0.4-2.1-0.3-3.1,0c-0.4,0.1-1.1-0.2-1.3-0.6c-0.1-0.1-0.2-0.4,0.1-0.4c0.9-0.2,1.9-0.5,2.8-0.1
		C30.2,4.8,30.6,5.3,31.1,5.7"/>
	<path class="st1" d="M31.4,15.2c0.4,0.5,0.3,1.1-0.3,1.4c-0.4,0.2-0.8,0.4-1.2,0.6c-0.4,0.2-0.6,0-0.7-0.3c-0.2-0.4-0.2-0.9,0.1-1
		c0.5-0.3,1-0.5,1.5-0.8C31.1,15,31.3,15,31.4,15.2"/>
	<path class="st34" d="M18.9,16c0.2-0.2,0.4-0.3,0.6-0.4c0.4-0.2,0.8-0.1,1,0.3c0.2,0.3,0.2,0.7-0.1,1c-0.2,0.2-0.4,0.3-0.6,0.5
		c-0.4,0.3-0.8,0.3-1.1-0.1c-0.3-0.3-0.2-0.8,0.1-1.1C18.8,16.1,18.9,16.1,18.9,16"/>
	<path class="st1" d="M14.6,29.6c0.1,0.1,0.2,0.2,0.2,0.2c0,0.1,0,0.2,0.1,0.3c-0.1,0.4-0.4,0.8-0.8,1c-0.3,0.2-0.8,0-1.1-0.4
		c-0.2-0.3,0-0.5,0.2-0.8c0.3-0.3,0.5-0.7,1-0.5C14.4,29.6,14.5,29.6,14.6,29.6"/>
	<path class="st34" d="M23,2.5c-0.5,0.2-1,0.2-1.5-0.1c-0.1-0.1-0.2-0.1-0.2-0.3c0-0.1,0.2-0.1,0.3-0.2C22,1.7,22.5,1.7,22.9,2
		c0.1,0.1,0.2,0.2,0.3,0.3l0,0C23.1,2.3,23.1,2.4,23,2.5"/>
	<path class="st1" d="M1.4,30.1c0,0-0.4-0.6-0.3-1c0.1-0.5,0.5-0.1,0.6,0c0.1,0.1,0.5,0.6,0.4,1C2,30.4,1.9,30.8,1.4,30.1"/>
	<path class="st1" d="M1.9,28.5c0,0-0.5-0.5-0.3-1.2c0.2-0.6,0.5-1.1,0.6-1.3C2.3,25.9,2.7,25.6,3,26c0.4,0.4,0.3,0.8,0.2,1.1
		c-0.1,0.3-0.6,1.3-0.7,1.5C2.5,28.8,2.2,28.9,1.9,28.5"/>
	<path class="st1" d="M5.9,18.3c-1.1,0.9-0.7,2.3-0.7,2.7c0.1,0.3,0,0.5,0,0.5S3.8,23.4,3.4,24c-0.5,0.6-0.2,1.1-0.1,1.2
		c0.1,0.1,0.6,0.9,1.1,0c0.7-1.1,1.8-2.5,1.8-2.5l0-0.1c0.1-0.2,0.4-0.2,0.7-0.1c0.8,0.4,1.7,0,2.1-0.5c1-1.4,0.3-2.8-0.2-3.5
		C8.1,17.9,6.9,17.4,5.9,18.3 M7.8,21.1c-0.3,0.3-0.8,0.2-1.1-0.1c-0.3-0.4-0.3-1.1,0-1.4c0.3-0.3,0.8-0.2,1.1,0.2
		C8.1,20.1,8.1,20.7,7.8,21.1"/>
	<path class="st34" d="M9.5,11.7c0,0,0.4,1.3-0.7,2.4c-1.1,1-2.3,0.6-2.8,0c-0.5-0.6-0.8-1.9,0.3-3.1c0.7-0.7,1.6-0.6,1.9-0.5
		c0.2,0.1,0.4,0.1,0.7-0.2C9.3,10,11.7,7.9,12,7.7c0.3-0.2,0.8-0.5,1.2-0.1c0.4,0.4,0,0.7-0.2,0.9c-0.2,0.2-2.7,2.2-3.1,2.5
		C9.5,11.4,9.5,11.4,9.5,11.7 M8.1,12c-0.3-0.4-0.9-0.3-1.1-0.1C6.9,12,6.5,12.4,6.8,13C7.2,13.6,8,13.1,8,13.1
		C8.1,13,8.5,12.5,8.1,12"/>
	<path class="st1" d="M0.8,14.7c0,0-0.6,1-0.8,0.4c-0.2-0.6,0.3-1.2,0.5-1.4c0.2-0.2,0.4-0.4,0.5,0C1.1,14.1,1,14.5,0.8,14.7"/>
	<path class="st1" d="M3.8,11.3c0,0-1.3,1.5-1.8,2c-0.4,0.5-0.9,0.4-0.6-0.5c0.1-0.3,0.4-0.6,2.1-2.4c0.4-0.3,0.6-0.2,0.6,0
		C4.2,10.6,4.2,10.8,3.8,11.3"/>
	<path class="st1" d="M10.6,5.2c-0.3,0.3-0.9,0.3-1.1,0.1C9.3,5,9.4,4.8,9.6,4.7c0.3-0.3,0.9-0.3,1.1-0.1C10.9,4.8,10.8,5,10.6,5.2
		 M9.5,6.3c0.3,0.1,1.1,0,1.8-0.4c0.8-0.5,0.7-1.1,0.7-1.4c-0.1-0.3,0-0.4,0.2-0.6c0.2-0.2,1.1-0.6,1.5-1c0.4-0.3,0.4-0.3,0.1-0.6
		c-0.4-0.4-1.3,0.3-2,0.8c-0.7,0.5-0.9,0.4-1.2,0.5c-0.4,0.1-1.1,0-1.7,0.5C8.3,4.7,8.3,5,8.3,5.3c0,0.3,0,0.4-0.3,0.7
		C6.8,7,5,8.7,4.8,8.9C4.5,9.1,4.4,9.3,4.6,9.6C4.7,10,5,10,5.3,9.7c0.3-0.3,3.5-3.2,3.6-3.2C9,6.3,9.3,6.2,9.5,6.3"/>
	<path class="st34" d="M20.7,3.4c0,0-2.5,1.2-5.5,3.4C14.5,7.3,14,7.3,13.8,7c-0.2-0.3-0.4-0.4,0.5-1.1c0.9-0.7,3.7-2.5,5.6-3.3
		c0.4-0.1,1-0.2,1.2,0C21.4,2.9,21.6,3.1,20.7,3.4"/>
	<path class="st1" d="M15.3,1.9c0,0,1-0.4,1.4-0.6c0.3-0.1,0.8-0.6-0.2-0.6c-0.6,0-1.4,0.5-1.7,0.6c-0.3,0.2-0.6,0.3-0.3,0.5
		C14.7,2.1,15.1,2,15.3,1.9"/>
	<path class="st1" d="M18,0.7c0,0,1.3-0.3,1.6-0.4c0.3,0,0.7-0.2-0.1-0.3c-0.7-0.1-1.8,0.1-2.1,0.2c-0.3,0.1-0.7,0.3-0.2,0.4
		C17.7,0.7,18,0.7,18,0.7"/>
	<path class="st34" d="M23.3,1.4c0,0-0.5,0-0.2,0.3c0.3,0.4,0.6,0.4,1.1,0.4c0.5,0,1.1,0,1.4-0.1c0.2,0,0.5-0.1-0.3-0.4
		C24.4,1.4,23.8,1.3,23.3,1.4"/>
	<path class="st1" d="M24.9,20.7c-0.1,0.1-0.2,0.1-0.4,0.1c-0.3,0-0.6-0.2-0.8-0.5c-0.2-0.3-0.2-0.6,0-0.9c0.1-0.2,0.3-0.3,0.5-0.3
		c0.5,0,0.7,0.3,0.8,0.7C25.2,20.1,25.2,20.4,24.9,20.7 M22.2,20.7c-0.1,0.1-3.1,2.8-3.3,3.1c-0.3,0.2-1.1,0.9-0.6,1.4
		c0.4,0.5,0.8,0.4,1.4-0.1c0.6-0.6,3.3-3,3.5-3.1c0.2-0.2,0.3-0.2,0.5,0c0.3,0.2,1.2,0.6,2,0c0.8-0.7,0.6-1.6,0.6-1.9
		c0-0.3,0-0.4,0.2-0.5c0.2-0.1,1.4-0.9,1.6-1.1c0.2-0.2,0.7-0.4,0.4-1c-0.3-0.6-0.6-0.6-1.1-0.3c-0.5,0.3-1.3,0.9-1.6,1.1
		c-0.2,0.1-0.4,0.1-0.7-0.1c-0.3-0.2-1.1-0.8-2.1,0c-0.9,0.8-0.5,2-0.5,2S22.6,20.4,22.2,20.7"/>
	<path class="st1" d="M18,26.7c0,0-2,2.3-2.2,2.5c-0.3,0.3-0.7,0.2-0.9,0c-0.2-0.2-0.6-0.5-0.1-1c0.4-0.5,1.9-2.2,2.1-2.4
		c0.2-0.2,0.7-0.3,1-0.1C18,26.1,18.3,26.4,18,26.7"/>
	<path class="st34" d="M33.4,8.9c-0.1,0-0.1,0-0.2,0c0,0-0.1,0-0.2,0c-0.3,0-0.7,0-0.7,0s0,0,0,0c-0.3,0-0.6-0.1-0.9-0.4
		c-0.2-0.3-0.5-0.5-0.8-0.7c-0.3-0.1-0.6-0.3-1-0.1c-0.3,0.2-0.3,0.6-0.3,0.9c0,0.1,0,0.2,0,0.2c0.1,0.6,0.1,0.6-0.5,0.8
		c-1.2,0.5-2.3,1.1-3.4,1.7c-0.4,0.2-0.4,0.5-0.2,0.9c0.2,0.5,0.7,0.6,1.2,0.3c1.2-0.7,2.3-1.3,3.6-1.8c0.2-0.1,0.4-0.1,0.5,0.1
		c0.3,0.3,0.6,0.6,0.9,0.8c0.5,0.3,1,0.2,1.2-0.2c0.1-0.2,0.1-0.5,0.1-0.7c-0.1-0.4-0.1-0.5,0-0.6c0.1,0,0.2,0,0.2,0s0.1,0,0.2,0
		c0,0,0,0,0.1,0c0.1,0,0.1,0,0.2,0c0.1,0,0.2,0,0.4,0c0,0,0,0,0,0c0.4,0,0.4-0.3,0.2-0.7C34,9.1,33.7,8.9,33.4,8.9 M31.8,10
		c0,0.2,0.1,0.3-0.1,0.5c-0.2,0.1-0.3,0-0.5-0.1c-0.1-0.1-0.2-0.1-0.3-0.2c-0.3-0.3-0.4-0.5-0.4-0.9c0-0.1,0-0.2,0.1-0.3
		c0.1-0.1,0.3-0.1,0.4,0C31.4,9.2,31.7,9.5,31.8,10"/>
	<path class="st1" d="M27.5,23.4c0,0,1.9-1.6,4.4-2.8c0.5-0.2,0.6,0.1,0.7,0.5c0,0.3,0.2,0.7-0.3,0.9c-0.4,0.2-2.3,1.1-4,2.4
		c-0.5,0.3-0.7,0.4-1,0C27.1,24,27.2,23.7,27.5,23.4"/>
	<path class="st1" d="M33,20.8c0,0,0,0.9,0.5,0.8c0.5-0.2,0.4-0.8,0.4-0.9c0-0.1,0-0.8-0.5-0.7C33,20.1,33,20.8,33,20.8"/>
	<path class="st1" d="M34.7,19.7c0,0-0.5,0-0.5,0.7c0,0.7,0.3,0.7,0.6,0.7c0.3,0,0.9,0.1,1-0.6c0.1-0.4,0.2-0.9-0.2-0.9
		C35.1,19.7,34.7,19.7,34.7,19.7"/>
	<path class="st1" d="M36.1,20c0,0-0.2,0.4-0.1,1c0.1,0.3,0.2,0.4,0.3,0.5c0.1,0.1,0.3,0.5,0.3,0.3c0.1-0.2,0.3-0.9,0.2-1.1
		c-0.1-0.2-0.2-0.4-0.3-0.5C36.4,20.1,36.2,19.8,36.1,20"/>
</g>
</svg>
