<?xml version="1.0" encoding="utf-8"?>
<!-- Generator: Adobe Illustrator 22.1.0, SVG Export Plug-In . SVG Version: 6.00 Build 0)  -->
<svg version="1.1" id="Capa_1" xmlns="http://www.w3.org/2000/svg" xmlns:xlink="http://www.w3.org/1999/xlink" x="0px" y="0px"
	 viewBox="0 0 1350 719" style="enable-background:new 0 0 1350 719;" xml:space="preserve">
<style type="text/css">
	.st0{fill:#F4F4F4;}
	.st1{fill:#F2F2F2;}
	.st2{fill:none;stroke:#CCCCCC;stroke-width:0.75;stroke-miterlimit:10;}
	.st3{fill:none;stroke:#004485;stroke-width:0.5;stroke-miterlimit:10;}
	.st4{fill:#004485;}
	.st5{fill:#F7F7F7;}
	.st6{fill:none;stroke:#CF7535;stroke-width:0.5;stroke-miterlimit:10;}
	.st7{opacity:7.000000e-02;}
	.st8{fill:#9EA0A2;}
	.st9{fill:#88898C;}
	.st10{fill:#2F4C88;}
	.st11{fill:#E2E3E4;}
	.st12{fill:#C57930;}
	.st13{fill:#009245;}
	.st14{fill:#FFFFFF;}
	.st15{fill:none;stroke:#E6E6E6;stroke-width:0.5;stroke-miterlimit:10;}
	.st16{opacity:0.15;}
	.st17{clip-path:url(#SVGID_4_);fill:#FFFFFF;}
	.st18{fill:#304484;}
	.st19{fill:#F2F2F2;stroke:#CCCCCC;stroke-miterlimit:10;}
	.st20{fill:#FFFFFF;stroke:#CCCCCC;stroke-miterlimit:10;}
	.st21{fill:#CF7535;}
	.st22{fill:#999999;}
	.st23{fill:none;stroke:#25ABCA;stroke-width:0.5;stroke-miterlimit:10;}
	.st24{fill:#25ABCA;}
	.st25{fill:#CCCCCC;}
	.st26{fill:none;stroke:#2B6BA8;stroke-width:0.75;stroke-miterlimit:10;}
	.st27{fill:#0091FF;}
	.st28{fill:#808080;}
	.st29{opacity:7.000000e-02;fill:#9EA0A2;}
	.st30{fill:#666666;}
	.st31{fill:#004485;stroke:#004485;stroke-width:2;stroke-miterlimit:10;}
	.st32{fill:none;stroke:#B3B3B3;stroke-width:2;stroke-linecap:round;stroke-linejoin:round;stroke-miterlimit:10;}
	.st33{fill:none;stroke:#FFFFFF;stroke-miterlimit:10;}
	.st34{fill:none;stroke:#FFFFFF;stroke-linecap:round;stroke-linejoin:round;stroke-miterlimit:10;}
	.st35{fill:#B3B3B3;}
	.st36{fill:#F1F4F5;}
	.st37{fill:#87888B;}
	.st38{opacity:0.85;fill:#FFFFFF;}
	.st39{opacity:0.85;fill:#9D9FA1;}
	.st40{fill:#C47930;}
	.st41{opacity:0.15;fill:none;stroke:#304484;stroke-miterlimit:10;}
	.st42{fill:#CE7535;}
	.st43{fill:#46BE8A;}
	.st44{fill:none;stroke:#999999;stroke-width:0.5;stroke-miterlimit:10;}
	.st45{fill:none;stroke:#CCCCCC;stroke-miterlimit:10;}
	.st46{fill:#FFEEEE;}
	.st47{fill:#E25142;}
	.st48{fill:none;stroke:#B3B3B3;stroke-miterlimit:10;}
	.st49{fill:#E6F0FF;}
	.st50{fill:#E9F8FF;}
	.st51{fill:#E3FFE6;}
	.st52{fill:none;stroke:#46BE8A;stroke-width:2;stroke-linecap:round;stroke-linejoin:round;stroke-miterlimit:10;}
	.st53{fill:none;stroke:#004485;stroke-miterlimit:10;}
	.st54{fill:none;stroke:#CCCCCC;stroke-width:0.5;stroke-miterlimit:10;}
	.st55{fill:none;stroke:#4D4D4D;stroke-width:0.5;stroke-miterlimit:10;}
	.st56{fill:none;stroke:#9EA0A2;stroke-width:0.5;stroke-miterlimit:10;}
	.st57{fill:#EFEFEF;}
	.st58{fill:none;stroke:#050505;stroke-width:0.5;stroke-miterlimit:10;}
	.st59{opacity:0.14;fill:#B3B3B3;}
	.st60{fill:none;stroke:#CF7535;stroke-width:0.55;stroke-miterlimit:10;}
	.st61{fill:none;stroke:#0091FF;stroke-width:0.5;stroke-miterlimit:10;}
	.st62{fill:none;stroke:#666666;stroke-width:0.5;stroke-miterlimit:10;}
	.st63{fill:none;stroke:#B3B3B3;stroke-width:0.5;stroke-miterlimit:10;}
	.st64{fill:#004484;}
	.st65{clip-path:url(#SVGID_10_);fill:#FFFFFF;}
	.st66{clip-path:url(#SVGID_10_);}
	.st67{fill:#054B8D;}
	.st68{fill:#B12E33;}
	.st69{fill:#B43439;}
	.st70{fill:#B32E33;}
	.st71{fill:#B02D32;}
	.st72{clip-path:url(#SVGID_12_);fill:#FFFFFF;}
	.st73{clip-path:url(#SVGID_12_);fill:#B43439;}
	.st74{fill:#27608D;}
	.st75{fill:#749323;}
	.st76{fill:#EBFFF2;}
	.st77{opacity:0.2;fill:#2F4C88;}
	.st78{fill:none;stroke:#265D9B;stroke-width:0.5;stroke-miterlimit:10;}
	.st79{clip-path:url(#SVGID_14_);fill:#FFFFFF;}
	.st80{clip-path:url(#SVGID_14_);}
	.st81{fill:#25AAC9;}
	.st82{fill:#265D9B;}
	.st83{clip-path:url(#SVGID_16_);fill:#FFFFFF;}
	.st84{clip-path:url(#SVGID_16_);}
	.st85{fill:none;}
	.st86{clip-path:url(#SVGID_18_);fill:#FFFFFF;}
	.st87{clip-path:url(#SVGID_18_);}
	.st88{clip-path:url(#SVGID_20_);fill:#FFFFFF;}
	.st89{clip-path:url(#SVGID_20_);fill:#B43439;}
	.st90{fill:none;stroke:#FFFFFF;stroke-width:0.5;stroke-miterlimit:10;}
	.st91{clip-path:url(#SVGID_22_);fill:#FFFFFF;}
	.st92{clip-path:url(#SVGID_22_);}
	.st93{clip-path:url(#SVGID_24_);fill:#FFFFFF;}
	.st94{clip-path:url(#SVGID_24_);fill:#B43439;}
	.st95{clip-path:url(#SVGID_26_);fill:#FFFFFF;}
	.st96{clip-path:url(#SVGID_26_);}
	.st97{clip-path:url(#SVGID_28_);fill:#FFFFFF;}
	.st98{clip-path:url(#SVGID_28_);fill:#B43439;}
	.st99{fill:#8CBF37;}
	.st100{fill:#0C6F9E;}
	.st101{fill:#DFB70E;}
	.st102{fill:#FAA93F;}
	.st103{fill:#6B7137;}
	.st104{fill:#AA6A43;}
	.st105{fill:#147DA1;}
	.st106{fill:#428B44;}
	.st107{fill:#E81D24;}
	.st108{fill:#8BC548;}
	.st109{fill:#0CB8B8;}
	.st110{fill:#0187CD;}
	.st111{fill:#6D6D6D;}
	.st112{fill:#015594;}
	.st113{fill:#085A98;}
	.st114{fill:#2497D4;}
	.st115{fill:#10619E;}
	.st116{fill:#4C91C5;}
	.st117{fill:#2673AD;}
	.st118{fill:#1A68A4;}
	.st119{fill:#327CB3;}
	.st120{fill:#3A82B9;}
	.st121{fill:#64A4D4;}
	.st122{fill:#00427A;}
	.st123{fill:#F8FBFC;}
	.st124{fill:#7EC1E5;}
	.st125{fill:#C1E1F2;}
	.st126{fill:#FCFDFD;}
	.st127{fill:#002B51;}
	.st128{fill:#B0CB3C;}
	.st129{fill:#E72476;}
	.st130{fill:#B0CD3B;}
	.st131{fill:#B0CC3C;}
	.st132{fill:#B1CA3D;}
	.st133{fill:#1C4794;}
	.st134{fill:#18A6C1;}
	.st135{fill:#8CC63F;}
	.st136{opacity:0.7;}
	.st137{fill:#C3C3C3;}
	.st138{fill:none;stroke:#004485;stroke-width:0.6;stroke-miterlimit:10;}
	.st139{clip-path:url(#SVGID_30_);fill:#FFFFFF;}
	.st140{clip-path:url(#SVGID_30_);fill:#B43439;}
	.st141{clip-path:url(#SVGID_32_);fill:#FFFFFF;}
	.st142{clip-path:url(#SVGID_32_);}
	.st143{clip-path:url(#SVGID_34_);fill:#FFFFFF;}
	.st144{clip-path:url(#SVGID_34_);}
	.st145{fill:none;stroke:#00B9FF;stroke-width:0.5;stroke-miterlimit:10;}
	.st146{clip-path:url(#SVGID_36_);fill:#FFFFFF;}
	.st147{clip-path:url(#SVGID_36_);fill:#B43439;}
	.st148{clip-path:url(#SVGID_38_);fill:#FFFFFF;}
	.st149{clip-path:url(#SVGID_38_);}
	.st150{clip-path:url(#SVGID_40_);fill:#FFFFFF;}
	.st151{clip-path:url(#SVGID_40_);}
	.st152{clip-path:url(#SVGID_42_);fill:#FFFFFF;}
	.st153{clip-path:url(#SVGID_42_);fill:#B43439;}
	.st154{clip-path:url(#SVGID_44_);fill:#FFFFFF;}
	.st155{clip-path:url(#SVGID_44_);}
	.st156{clip-path:url(#SVGID_46_);fill:#FFFFFF;}
	.st157{clip-path:url(#SVGID_46_);}
	.st158{clip-path:url(#SVGID_48_);fill:#FFFFFF;}
	.st159{clip-path:url(#SVGID_48_);fill:#B43439;}
	.st160{opacity:0.55;}
	.st161{fill:#2F4C87;}
	.st162{fill:#E1E2E3;}
	.st163{fill:#A4D523;}
	.st164{fill:#FF0000;}
	.st165{clip-path:url(#SVGID_50_);fill:#FFFFFF;}
	.st166{clip-path:url(#SVGID_50_);}
	.st167{clip-path:url(#SVGID_52_);fill:#FFFFFF;}
	.st168{clip-path:url(#SVGID_52_);fill:#B43439;}
	.st169{fill:none;stroke:#0091FF;stroke-miterlimit:10;}
</style>
<path class="st29" d="M453.2,859c1.2,0,2.4,0,3.6,0C455.5,859,454.3,859,453.2,859 M693.9,317.4c-0.2-0.2-0.5-0.5-0.7-0.7
	c-16.2,14.8-33,29.1-48.5,44.7c-10.8,10.9-23.5,20.4-31.3,33.9c-5.6,9.6-3.2,21.8,4.3,27.7c9.3,7.4,19.4,7.1,28.6-1.4
	c7.2-6.6,14-13.6,20.9-20.6c33.7-34.3,69-66.8,106.4-97.1c7-5.7,12.4-6.7,20.3-2.7c6.4,3.2,13.6,4.8,21,5.7
	c44.7,5.1,78.8-29.9,68.2-71.9c-7.3-28.7-27.7-46.4-56-54c-23-6.1-45.2-1.7-62.4,14.7c-17.5,16.6-22.5,38.2-14.6,61.5
	c2.3,6.9-0.9,9.6-4.8,13.2C728.2,286.1,711.1,301.7,693.9,317.4 M796.5,255.3c-9.4-10.5-9.4-24.3,0-32.5c10.3-9,28.3-7.2,38.5,4
	c9.1,9.9,9.3,24.9,0.5,33C824.9,269.4,807.4,267.4,796.5,255.3 M619.4,790.2c4.8-4.4,9.6-8.8,14.4-13.2c10.3-21.2,5.7-41.1-5.9-59.9
	c-4.2-6.9-4.7-11.9,0.7-18.2c10.3-12.1,19.8-24.8,29.7-37.2c22.8-28.6,47.2-56,72.2-82.7c10.5-11.2,11.8-24.3,2-34.4
	c-9.3-9.6-22.1-9-33,2.1c-36.1,36.5-69.3,75.6-100,116.6c-8.3,11.1-14.4,15.5-29.7,10.7c-36-11.3-63.8,15.1-55.3,52.8
	c5.1,22.5,19.8,39.5,37.2,52.1C571.3,793,594.3,801.4,619.4,790.2 M590.6,722.7c1.8,2.9,3.5,5.7,5.2,8.4c4.1,6.7,5.4,13.5,0.5,20.3
	c-5.3,7.4-12.6,7.7-20.8,5.6c-10.3-2.7-17-9.9-21.4-18.6c-4-7.8-5-17,3.1-23.3c7.5-5.8,16-4.6,23.8,0.4
	C584.3,717.6,587.4,720.3,590.6,722.7 M892,181c20.1,19,43.1,31.8,72.4,30.4c32.9-1.7,56.1-31.6,44.7-60.2
	c-5.1-12.8-0.6-16.9,9.5-21.9c26.7-13.4,53-27.6,81-38.2c6.7-2.5,9-7.7,5.9-14.7c-6-13.6-23.5-21.1-37.5-16.1
	c-30.3,10.8-58.1,26.9-86.3,41.9c-7.1,3.8-11.3,3.9-18.3,0.3c-11.1-5.7-23.6-8.1-36.3-8.3c-31.1-0.5-51.8,17.1-52.7,44.8
	C873.8,155.3,881.9,168.3,892,181 M960.4,138.5c7.1,8,12.4,16,6,25.6c-6.6,9.9-16.8,10.2-27.1,7c-3.8-1.2-7.5-3.1-10.8-5.5
	c-10.6-7.6-14.7-20.4-9.4-28.2c7-10.3,22.3-12.8,33.6-5.3C955.8,134.1,958.3,136.8,960.4,138.5 M956.8,753.9
	c7.2,6.2,8.7,7.7,14.1,10.5l3.4,1.5c12.4,6,22.4,8.9,35.1,9.2c12.9,0.3,26.4-0.3,34.3-12.7c8.9-14.2,8.7-29.4,0.6-44
	c-2.5-4.5-2.1-7.1,1.4-10.4c15.5-14.3,26.7-25.6,44.9-41c9-8.2,13.5-11.5,22.5-19.7c7.2-6,6.9-10.1,6.7-12.1
	c-1.1-9.3-4.9-17.4-13.9-20.9c-9.1-3.6-13.3,1.4-21,7.6c-2.9,2.3-6.4,5.8-9.2,8.2c-12.2,10.7-21.4,17.8-36.7,31.1
	c-6.5,6.1-12.9,12.2-19.5,18.3c-2.5,2.3-5,3.9-8.5,1.9c-7.1-4.2-11.2-4.6-16.6-6.2c-17.3-5.3-34.7-1.4-46.5,11.2
	c-10.2,10.9-14.5,26.5-7.3,42.3c0.5,2.4,1.1,3.9,1.6,4.9c0.8,1.5,1.6,3,2.3,4.6c1.3,2.9,2.7,5.2,3.7,6.3
	C951.1,747.5,953.9,750.7,956.8,753.9 M1010.5,716.9c8.5,9.4,9.3,19.7,2,25.6c-7.9,6.5-22.7,3.5-31.4-6.5
	c-7.1-8.1-7.9-19.7-1.9-25.3C986.5,704,1001.7,707,1010.5,716.9 M1354.2,392.4c1.2,2.6,2.4,5.5,4.8,8.3c2.8,3.3,6.5,5.1,10.6,6.2
	c4.4,0.5,7.8-3.1,8.9-12.4c2.4-36.4-4.5-70.9-21-103.4c-1.5-3.7-2.6-5.5-4.7-8.9c-3.2-4.7-6-6.9-8.7-8.9c-1.7-0.7-3.2-1.8-5.1-1.9
	c-12.1,4-9.4,21.9-8.6,33.7c0.5,8.4-1.4,11.5-9.8,12.3c-14.9,1.4-29.5,4.8-43.5,10.3c-11.1,4.4-12.9,11.7-7.7,27.4
	c4.1,12.4,10.2,16.4,21,13.7c7.4-1.9,14.6-4.2,22-5.9c27.1-6.2,27.1-6.1,36.9,18.3c0.9,2.2,1.4,4.9,2.8,7.2
	C1353,389.8,1353.3,391,1354.2,392.4 M1360.2,362.3c-9.7-15-11.9-28.4-12.1-42.3c0-2.4,0-5.3,2.7-6.2c3.2-1.1,5.6,1.2,6.9,3.8
	c6.4,12.5,10.1,25.6,9.2,39.7c-0.2,2.4,0.1,5.2-3,5.9C1360.9,363.8,1359.6,361.4,1360.2,362.3 M860,451.2c3.4-13.3,0.4-23-10.6-29.1
	c-9.5-5.3-18.8-3.2-26.8,4.1c-24.7,22.4-49.6,44.5-72.9,68.4c-6.8,7-13,14.7-9.1,24.7c4.2,10.8,12.4,18,25.2,17.6
	c2.2-1.7,4.3-3.6,7.4-2.2c9-8.5,17-18.1,27.2-25.4c0.4-5.2,4.9-7.2,8-10.1C825.5,483,842.8,467.1,860,451.2 M1044.3,311.4
	c14.7-12,16.3-21.6,8.4-32.5c-8.3-11.5-18.9-13.5-30.5-6.8c-26.8,15.6-50.5,35.6-76.1,52.8c-10.4,7-12.5,21-5.7,31.3
	c6.3,9.5,21.8,13.5,31.1,6.6C996.7,344.3,1021.8,325.6,1044.3,311.4 M1236.9,74.5c-14.5-11.1-24.5-27-42.3-33.7
	c-28-10.5-54.9-2.2-82,3.9c-8.8,2-4,8.6-2,12.6c5.9,11.8,24.3,20.2,37.2,16.7C1177.4,66.2,1206.7,62.9,1236.9,74.5 M1247.3,349.2
	c-4.3-5.6-10.1-7-16.9-3.7c-14.9,7.3-30,14.3-44.6,22.1c-8.3,4.4-8.9,16.9-2.6,29.7c4.6,9.4,11.2,13.9,21.5,9
	c11.7-5.6,23.3-11.5,35-17.1C1256.4,381.3,1260,363.6,1247.3,349.2 M884.8,372.9c-0.7,0.7-2.5,2.3-4.3,3.9
	c-10.1,9.3-11.4,21.3-3.2,31.1c9.1,10.9,20.4,12.1,32,3.4c5.8-4.4,11.9-8.5,17.4-13.2c8.6-7.4,10.1-19.3,4.2-28.4
	c-7.3-11.2-17.5-14.2-29.2-9C895.6,363.4,891.3,368.4,884.8,372.9 M760.8,765.2c-3.6,0.5-6.3-0.8-8.3-3.8
	c-15.1-5.4-22,5.8-30.1,14.7c-6,6.5-11.2,13.3-5,22.1c7.8,11.1,22.6,17.2,31,11.8c10.6-6.8,18-16.7,21.7-29
	c-1.9-2.6-3.5-5.3-2.3-8.7C765.4,770,763.1,767.6,760.8,765.2 M1003.9-18.9c1.9-1.7,3.8-3.4,5.6-5l0-0.3c-2.8-3-5.7-6.1-8.5-9.1
	c-12.8-6.5-25.8-8.3-39.3-2.1c-2.7,1.3-7,0.8-7.4,5.1c-0.4,4.2,2.8,6.1,5.8,8.4C974.2-11.7,988.9-13.2,1003.9-18.9 M380,777.6
	c15.9,21.7,16.8,9.2,19.3-1.5c2.5-10.7-9.3-26.5-11.5-28.9c-2.3-2.5-13.3-13.8-16.6,0.3C367.9,761.5,380,777.6,380,777.6
	 M393.5,732.9c10.6,12.3,18.2,7.9,21.2,1.3c3-6.6,16.1-35.5,19.5-43.1c3.4-7.6,5-21.4-6.4-31.7c-11.4-10.3-21.5-2.3-24.4,2.3
	c-2.9,4.6-10.7,19.5-17.6,37.4C379,717,393.5,732.9,393.5,732.9 M509.8,438.8c30.6-27.4,65.1-11.6,80.5,8
	c15.4,19.6,37.1,61.9,6.9,101.8c-12.6,16.7-38.4,26-61.3,15.9c-8.3-3.4-15.5-2.1-18.8,3.6l-1.1,1.6c0,0-31.5,39.2-50.5,70.8
	c-14.6,24.4-29.6,3.5-32.1-0.4c-2.5-3.9-10-18,3.6-35.7c13.6-17.6,52.6-72,52.6-72s3.6-5.9,1-15.9
	C488.2,506.5,479.2,466.2,509.8,438.8 M563.9,518.1c10.4-9.7,10.4-27.8,0-39.6c-9.5-10.9-23.4-13-32-5c-9.8,9.2-10.1,30.2-0.5,41.4
	C540.1,525,555,526.5,563.9,518.1 M613.4,249c0.4-8.8,0.7-9.1,12.4-20.4c11.7-11.3,84.9-68.6,89.5-73.4c4.6-4.9,16.3-16.2,5.6-26.5
	c-10.7-10.3-25.6-2.5-34.3,4.2c-8.8,6.7-79.4,66.8-88.6,75.2c-9.2,8.4-14.2,7.8-20.2,6.2c-10-3.8-34.5-6.6-55.4,13.1
	c-32,34.4-22.9,73.4-9.1,90.6c13.8,17.2,50.1,29.3,80.8-0.8C624.8,287.1,613.4,249,613.4,249 M575.1,256.8c9.9,13-1,29.4-5.5,32.9
	c0,0-21.3,14.4-32.6-4.5c-9.8-16.3,2.6-28.3,7.2-32.5C548.8,248.5,565.2,243.8,575.1,256.8 M364,335.2c4.3-5.9,8.6-18.2,5-28.5
	c-3.6-10.3-8.5-6.5-14.2,0c-5.7,6.6-19.3,22.8-13.3,40C347.5,363.9,364,335.2,364,335.2 M448.3,235.5c12.1-14.3,11.7-20.4,9.6-26.3
	c-2.1-5.8-7-9.1-18.5-1.2c-49.3,50.2-56.1,59.7-59.6,68.7c-8,28.1,6.1,30,17.9,15.4C409.5,277.4,448.3,235.5,448.3,235.5
	 M646.2,59.4c6.4-5.9,7.3-11.6,2.6-16.6c-6.8-7.2-22.8-6-32,2.4c-5.4,4.9-8.5,10.2-2.6,16.6C620.8,69,637.3,67.7,646.2,59.4
	 M614.3,92.1c-7-2.7-15.2,0.3-19.1,4.6c-1,1.1-93,83.1-102.6,93.1c-9.6,10.1-17.6,7.7-21.2-1.3c-3.7-9-0.3-15.2,6.7-21
	c7-5.8,59-56.5,93.4-84.7c9.2-9.1,8-11.8,8-20.3c0-8.4,1.1-17.9,16.6-31.4c15.5-13.5,38.1-12.2,48.7-14c8.2-1.7,13.5,0.6,34.8-14.3
	c21.3-14.9,46.9-35.1,58.9-23.4c7.5,6.8,8.8,7.5-3.1,16.4c-11.9,8.9-37.9,22.3-43.5,27.5c-5.6,5.2-7.5,8.1-5.1,16.3
	c2.3,8.2,3.6,26.5-19,40.1C645,93.2,623.6,95.3,614.3,92.1 M935.9,9.8c26.1-9.7,20.7-16.3,13.3-24.4c-7.4-8.1-23.8-5.5-35.5-1.2
	C858.5,8.7,780.4,60.7,753.1,80.4c-27.3,19.7-20,23.5-15,31.8c5,8.3,19.6,8,40.2-5.6C864.6,45.2,935.9,9.8,935.9,9.8 M780.6-34
	c0,0,29.7-12.9,39.6-16.8c10-3.9,24.4-16.5-5.6-17.5c-16.9-0.8-41.5,13.4-50.2,18.7c-8.7,5.4-18,8.7-8.4,14.8
	C765.5-28.6,775.7-31.5,780.6-34 M860.3-70.6c0,0,38-9.5,46.1-10.4c8.2-1,18.9-5.6-2.7-7.9c-21.5-2.3-52.2,2.4-60.8,5.7
	c-8.6,3.3-19.3,7.9-6.2,10.2C849.9-70.8,860.3-70.6,860.3-70.6 M1011.9-49.3c0,0-15.5-1.4-6.8,8.8c8.7,10.2,17.5,11.9,30.9,11.2
	c13.4-0.7,32.6-1.2,39.3-1.6c6.7-0.4,13.3-2.5-9-10.6C1044-49.6,1027.6-53.3,1011.9-49.3 M1057.6,509.1c9.3-9,8.9-18.6,5.4-27.3
	c-4.2-10.2-10.7-19.1-23.9-19.1c-6.4,0-11.4,2.1-14.4,7.4c-4.9,8.8-4.2,17.6,0.6,26.6c4.8,9,11.8,14.1,21.7,15.5
	C1051.7,512.8,1055.8,511.3,1057.6,509.1 M981.9,507.6c9.2-8.7,4.5-17,4.5-17s-11.3-34.3,15.8-58.5c27.1-24.1,52.7-6.1,60.3-1.4
	c7.6,4.7,13.9,6.7,20.5,2.6c6.6-4.1,30.4-22,45-31.5c14.6-9.5,24-8.4,32.1,8.2c8.1,16.6-4.8,24.5-11.8,29.6
	c-7,5.1-40.8,28.3-46.4,31.4c-5.6,3.1-5.7,6.5-4.7,14.7c1,8.2,5.8,36.1-16,55.4c-21.8,19.3-50.6,5.5-57.9,1.1
	c-7.2-4.4-9.3-4.5-15.2,0.3c-6,4.8-82.1,74.4-100.1,90.9c-18,16.4-28.3,20-40.8,4.3c-12.5-15.8,10.7-34.3,18.4-41.4
	C893.3,589.2,980.1,509.3,981.9,507.6 M859.1,681.4c7.9-9.8,1.1-17.9-6.9-26c-8.1-8.1-22.8-3.7-28.8,1.7c-6,5.5-46.7,53.7-59.6,68.7
	c-12.8,15-3.8,24.2,3.4,29.2c7.2,5.1,19.2,8.3,27.1-0.1C802.1,746.4,859.1,681.4,859.1,681.4 M1304.6,166c7,1.3,15.2,6.8,19.9,16.8
	c4.6,10,7.1,18.1-5.6,19.4c-0.3,0-0.6,0-0.8,0.1c-6.5,0.5-8.3,0.8-11.8,1.2c-1.4,0.2-3.2,0-4.8,0c-0.8,0-1.5-0.1-2.2-0.1
	c-3.8,0.1-6.3,0.1-6.3,0.1s-2.9,0.6-6.6,0.5c-3.7,1.6-3.2,6.1-1.4,17.1c1.2,7.3,1.9,14.6-1.5,21.3c-6.3,12.2-20.4,14.4-34.9,6
	c-10.3-6-19.3-13.5-27.2-22.3c-4.6-5.1-8.4-5.5-14.7-3c-35.8,14.3-70,31.5-103.2,50.9c-13.3,7.8-26.5,3.5-33.5-10
	c-5.5-10.6-3.6-19.9,6.9-26c31.5-18.4,63.7-35.4,97.6-49c16.7-6.7,16.9-6.1,13.7-23c-0.5-2.4-0.9-4.8-1.1-7.2
	c-1-10-0.8-19.5,8.7-26.1c9.6-6.7,18.8-2.5,27.5,1.6c9.7,4.5,18.3,11.1,24.2,19.9c6.3,9.3,14.8,11.4,24.8,11.3c0-0.1,0-0.2,0-0.2
	s10.9-0.2,20.4,0c2.7,0.1,4.6,0.4,5.6,0.2C1300.8,165.6,1303.1,165.7,1304.6,166 M1256.9,199.1c-2.8-13.6-11.5-22.9-22.2-30.6
	c-3.3-2.4-7.4-3.3-11.3-0.6c-3.5,2.4-3,5.8-2.9,9.6c0.1,10.8,4.7,17,12.4,25.8c2.6,2,5.1,4.1,7.7,6c3.9,2.9,8,6.3,13.1,2.8
	C1258.4,209,1258,204.1,1256.9,199.1 M1134.5,586c-8.4,6.8-12.2,18.1-4.2,29.1c8.1,11,13,9.2,28.3-0.8
	c48.4-36.2,102.2-61.7,115.1-68.7c12.9-6.9,9.6-16,8.5-25.9c-1.1-10-4.9-20.8-19.5-13.8C1189.5,541.3,1134.5,586,1134.5,586
	 M1292.3,511.1c-0.2,0.7,0,26.8,15.4,21.9c15.4-4.9,12.3-22.2,12.7-26c0.5-3.9,0.5-22.4-14.2-19
	C1291.5,491.4,1292.3,511.1,1292.3,511.1"/>
</svg>
