<?xml version="1.0" encoding="utf-8"?>
<!-- Generator: Adobe Illustrator 22.1.0, SVG Export Plug-In . SVG Version: 6.00 Build 0)  -->
<svg version="1.1" id="Capa_1" xmlns="http://www.w3.org/2000/svg" xmlns:xlink="http://www.w3.org/1999/xlink" x="0px" y="0px"
	 viewBox="0 0 17.2 23" style="enable-background:new 0 0 17.2 23;" xml:space="preserve">
<style type="text/css">
	.st0{opacity:0.55;clip-path:url(#SVGID_2_);}
	.st1{opacity:0.5;fill:none;stroke:#BFBFBF;stroke-miterlimit:10;}
	.st2{fill:#D9D9D9;}
	.st3{fill:#004486;}
	.st4{opacity:0.55;}
	.st5{fill:#FFFFFF;}
	.st6{fill:#004485;}
	.st7{fill:#88898C;}
	.st8{fill:#2F4C88;}
	.st9{fill:#E2E3E4;}
	.st10{fill:#C57930;}
	.st11{fill:#C4C4C4;}
	.st12{fill:#A5D623;}
	.st13{fill:#27608E;}
	.st14{fill:#749423;}
	.st15{fill:#FF0000;}
	.st16{fill:#CF7535;}
	.st17{fill:#265D9C;}
	.st18{opacity:5.000000e-02;}
	.st19{clip-path:url(#SVGID_4_);fill:#FFFFFF;}
	.st20{fill:#304484;}
	.st21{fill:#9EA0A2;}
	.st22{fill:#F2F2F2;}
	.st23{opacity:0.8;}
	.st24{fill:url(#SVGID_5_);}
	.st25{fill:url(#SVGID_6_);}
	.st26{opacity:0.3;fill:#FFFFFF;stroke:#FFFFFF;stroke-miterlimit:10;}
	.st27{fill:none;stroke:#265D9C;stroke-width:1.5;stroke-miterlimit:10;}
	.st28{opacity:0.85;fill:#FFFFFF;}
	.st29{opacity:0.85;fill:#9EA0A2;}
	.st30{opacity:0.75;}
	.st31{opacity:0.75;fill:none;}
	.st32{fill:#2B6BA8;}
	.st33{fill:none;stroke:#265D9C;stroke-width:3;stroke-miterlimit:10;}
	.st34{fill:none;stroke:#CF7535;stroke-width:3;stroke-miterlimit:10;}
	.st35{fill:url(#SVGID_7_);stroke:#265D9C;stroke-miterlimit:10;}
	.st36{fill:url(#SVGID_8_);stroke:#265D9C;stroke-miterlimit:10;}
	.st37{fill:#F4F4F4;}
	.st38{fill:#040707;}
	.st39{fill:#6F7175;}
	.st40{fill:#01CDF8;}
	.st41{fill:#00C1F6;}
	.st42{fill:#707276;}
	.st43{fill:#04E877;}
	.st44{fill:#04D9F8;}
	.st45{fill:#F7C402;}
	.st46{fill:#D93155;}
	.st47{fill:#EA354C;}
	.st48{fill:#F7CF05;}
	.st49{fill:#F43A45;}
	.st50{fill:#4D4D4D;}
	.st51{opacity:0.5;}
	.st52{fill:none;stroke:#FFFFFF;stroke-width:3;stroke-miterlimit:10;}
	.st53{fill:none;stroke:#808080;stroke-width:1.5;stroke-miterlimit:10;}
	.st54{opacity:0.5;fill:none;stroke:#C4C4C4;stroke-miterlimit:10;}
	.st55{fill:none;stroke:#265D9C;stroke-width:0.25;stroke-miterlimit:10;}
	.st56{fill:#6D6D6D;}
	.st57{clip-path:url(#SVGID_12_);fill:#FFFFFF;}
	.st58{clip-path:url(#SVGID_12_);}
	.st59{fill:#054B8E;}
	.st60{fill:#B22E33;}
	.st61{fill:#B53439;}
	.st62{fill:#B42E33;}
	.st63{fill:#B12D32;}
	.st64{fill:#25ABCA;}
	.st65{clip-path:url(#SVGID_14_);fill:#FFFFFF;}
	.st66{clip-path:url(#SVGID_14_);fill:#B53439;}
	.st67{clip-path:url(#SVGID_16_);fill:#FFFFFF;}
	.st68{fill:none;stroke:#F4F4F4;stroke-miterlimit:10;}
	.st69{clip-path:url(#SVGID_18_);fill:#FFFFFF;}
	.st70{clip-path:url(#SVGID_18_);}
	.st71{clip-path:url(#SVGID_20_);fill:#FFFFFF;}
	.st72{clip-path:url(#SVGID_20_);fill:#B53439;}
	.st73{fill:none;stroke:#FFFFFF;stroke-miterlimit:10;}
	.st74{fill:none;stroke:#CF7535;stroke-miterlimit:10;}
</style>
<g>
	<g class="st18">
		<defs>
			<rect id="SVGID_3_" x="-1165.6" y="-713.9" class="st18" width="943.6" height="842"/>
		</defs>
		<clipPath id="SVGID_2_">
			<use xlink:href="#SVGID_3_"  style="overflow:visible;"/>
		</clipPath>
	</g>
</g>
<path class="st11" d="M15.5,8.9c-0.5,0-0.9-0.4-0.9-0.9l0-1.8c0-0.4,0.2-2.8-1.3-4.5C12.2,0.6,10.8,0,9,0c-4,0-5.6,2.4-6,4.2
	C2.9,4.8,3.4,5.3,3.9,5.3h0c0.4,0,0.8-0.3,0.9-0.7c0.2-1,1.1-2.8,4.2-2.8c1.3,0,2.2,0.3,2.8,1C12.9,4.1,12.8,6,12.7,6l0,0.1l0,1.9
	c0,0.5-0.4,0.9-0.9,0.9H1.2c-0.5,0-0.9,0.4-0.9,0.9v12.3c0,0.5,0.4,0.9,0.9,0.9h15c0.5,0,0.9-0.4,0.9-0.9V9.8c0-0.5-0.4-0.9-0.9-0.9
	H15.5z M14.4,21.2H3c-0.5,0-0.9-0.4-0.9-0.9v-8.7c0-0.5,0.4-0.9,0.9-0.9h11.4c0.5,0,0.9,0.4,0.9,0.9v8.7
	C15.3,20.8,14.9,21.2,14.4,21.2z M9.3,19.1H8.1c-0.6,0-1-0.6-0.9-1.1L7.7,16c0.1-0.3,0-0.7-0.3-0.9c-1-0.9-0.1-2.2,1.3-2.2
	c1.7,0.1,1.9,1.6,1.2,2.3c-0.3,0.3-0.5,0.7-0.4,1.1l0.6,1.6C10.4,18.4,9.9,19.1,9.3,19.1z"/>
</svg>
