<?xml version="1.0" encoding="utf-8"?>
<!-- Generator: Adobe Illustrator 22.1.0, SVG Export Plug-In . SVG Version: 6.00 Build 0)  -->
<svg version="1.1" id="Capa_1" xmlns="http://www.w3.org/2000/svg" xmlns:xlink="http://www.w3.org/1999/xlink" x="0px" y="0px"
	 viewBox="0 0 82.6 82.7" style="enable-background:new 0 0 82.6 82.7;" xml:space="preserve">
<style type="text/css">
	.st0{fill:#FFFFFF;}
	.st1{fill:#0187CD;}
	.st2{opacity:0.55;clip-path:url(#SVGID_2_);}
	.st3{opacity:0.5;fill:none;stroke:#BEBEBE;stroke-miterlimit:10;}
	.st4{fill:#D8D8D8;}
	.st5{fill:#004485;}
	.st6{opacity:0.55;}
	.st7{fill:#004484;}
	.st8{fill:#87888B;}
	.st9{fill:#2F4C87;}
	.st10{fill:#E1E2E3;}
	.st11{fill:#C47930;}
	.st12{fill:#C3C3C3;}
	.st13{fill:#A4D523;}
	.st14{fill:#27608D;}
	.st15{fill:#749323;}
	.st16{fill:#FF0000;}
	.st17{fill:#CE7535;}
	.st18{fill:#265D9B;}
	.st19{opacity:5.000000e-02;}
	.st20{clip-path:url(#SVGID_4_);fill:#FFFFFF;}
	.st21{fill:#304483;}
	.st22{fill:#9D9FA1;}
	.st23{fill:#F1F1F1;}
	.st24{opacity:0.8;}
	.st25{fill:url(#SVGID_5_);}
	.st26{fill:url(#SVGID_6_);}
	.st27{opacity:0.3;fill:#FFFFFF;stroke:#FFFFFF;stroke-miterlimit:10;}
	.st28{fill:none;stroke:#265D9B;stroke-width:1.5;stroke-miterlimit:10;}
	.st29{opacity:0.85;fill:#FFFFFF;}
	.st30{opacity:0.85;fill:#9D9FA1;}
	.st31{opacity:0.75;}
	.st32{fill:#2B6BA7;}
	.st33{fill:none;stroke:#265D9B;stroke-width:3;stroke-miterlimit:10;}
	.st34{fill:none;stroke:#CE7535;stroke-width:3;stroke-miterlimit:10;}
	.st35{fill:url(#SVGID_7_);stroke:#265D9B;stroke-miterlimit:10;}
	.st36{fill:url(#SVGID_8_);stroke:#265D9B;stroke-miterlimit:10;}
	.st37{fill:#F3F3F3;}
	.st38{fill:#040707;}
	.st39{fill:#6F7175;}
	.st40{fill:#01CCF7;}
	.st41{fill:#00C0F5;}
	.st42{fill:#707276;}
	.st43{fill:#04E777;}
	.st44{fill:#04D8F7;}
	.st45{fill:#F6C302;}
	.st46{fill:#D83155;}
	.st47{fill:#E9354C;}
	.st48{fill:#F6CE05;}
	.st49{fill:#F33A45;}
	.st50{fill:#4D4D4D;}
	.st51{opacity:0.5;}
	.st52{fill:none;stroke:#FFFFFF;stroke-width:3;stroke-miterlimit:10;}
	.st53{fill:none;stroke:#808080;stroke-width:1.5;stroke-miterlimit:10;}
	.st54{opacity:0.5;fill:none;stroke:#C3C3C3;stroke-miterlimit:10;}
	.st55{fill:none;stroke:#265D9B;stroke-width:0.25;stroke-miterlimit:10;}
	.st56{fill:#6D6D6D;}
	.st57{fill:#8CBF37;}
	.st58{fill:#0C6F9E;}
	.st59{fill:#DFB70E;}
	.st60{fill:#FAA93F;}
	.st61{fill:#6B7137;}
	.st62{fill:#AA6A43;}
	.st63{fill:#147DA1;}
	.st64{fill:#428B44;}
	.st65{fill:#E81D24;}
	.st66{fill:#8BC548;}
	.st67{fill:#0CB8B8;}
	.st68{fill:#002B51;}
	.st69{fill:#A5A7AA;}
	.st70{fill:#6F7173;}
	.st71{fill:#707274;}
	.st72{fill:#A6A8AB;}
	.st73{fill:#A6A7AA;}
	.st74{fill:#A6A8AA;}
	.st75{fill:#6E7072;}
	.st76{clip-path:url(#SVGID_12_);fill:#FFFFFF;}
	.st77{clip-path:url(#SVGID_12_);}
	.st78{fill:#054B8D;}
	.st79{fill:#B12E33;}
	.st80{fill:#B43439;}
	.st81{fill:#B32E33;}
	.st82{fill:#B02D32;}
	.st83{fill:#25AAC9;}
	.st84{clip-path:url(#SVGID_14_);fill:#FFFFFF;}
	.st85{clip-path:url(#SVGID_14_);fill:#B43439;}
	.st86{clip-path:url(#SVGID_16_);fill:#FFFFFF;}
	.st87{fill:#004D8D;}
	.st88{fill:none;stroke:#F3F3F3;stroke-miterlimit:10;}
	.st89{clip-path:url(#SVGID_18_);fill:#FFFFFF;}
	.st90{clip-path:url(#SVGID_18_);}
	.st91{clip-path:url(#SVGID_20_);fill:#FFFFFF;}
	.st92{clip-path:url(#SVGID_20_);fill:#B43439;}
	.st93{fill:none;stroke:#FFFFFF;stroke-miterlimit:10;}
	.st94{fill:none;stroke:#CE7535;stroke-miterlimit:10;}
	.st95{fill:none;stroke:#000000;stroke-miterlimit:10;}
	.st96{fill:#015594;}
	.st97{fill:#085A98;}
	.st98{fill:#2497D4;}
	.st99{fill:#10619E;}
	.st100{fill:#4C91C5;}
	.st101{fill:#2673AD;}
	.st102{fill:#1A68A4;}
	.st103{fill:#327CB3;}
	.st104{fill:#3A82B9;}
	.st105{fill:#64A4D4;}
	.st106{fill:#00427A;}
	.st107{fill:#F8FBFC;}
	.st108{fill:#7EC1E5;}
	.st109{fill:#C1E1F2;}
	.st110{fill:#FCFDFD;}
	.st111{fill:#E5BC2D;}
	.st112{fill:#DEB12D;}
	.st113{fill:#3A4981;}
	.st114{fill:#D19C2C;}
	.st115{fill:#6D6750;}
	.st116{fill:#3B5188;}
	.st117{fill:#4C7FB7;}
	.st118{fill:#3B5892;}
	.st119{fill:#426499;}
	.st120{fill:#4874A9;}
	.st121{fill:#4A3C1D;}
	.st122{fill:#5F7682;}
	.st123{fill:#DDA62B;}
	.st124{fill:#383D75;}
	.st125{fill:#DDAB2C;}
	.st126{fill:#BEBEBE;}
</style>
<g>
	<path class="st18" d="M79.8,55.3c1.7-4.5,2.5-9.3,2.5-14.1C82.3,18.5,63.8,0,41.2,0C18.5,0,0,18.5,0,41.2
		c0,22.7,18.5,41.2,41.2,41.2c4.8,0,9.5-0.8,14-2.4c2.9,1.8,6.2,2.8,9.6,2.8c9.8,0,17.9-8,17.9-17.9C82.6,61.4,81.6,58.1,79.8,55.3z
		 M41.2,3.1c21,0,38.1,17.1,38.1,38.1c0,3.8-0.6,7.6-1.7,11.3c-3.4-3.5-8-5.4-12.8-5.4c-9.8,0-17.9,8-17.9,17.9
		c0,4.8,2,9.4,5.4,12.8c-3.6,1.1-7.3,1.7-11.1,1.7c-21,0-38.1-17.1-38.1-38.1C3.1,20.2,20.2,3.1,41.2,3.1z M64.7,50
		c8.2,0,14.8,6.6,14.8,14.8s-6.6,14.8-14.8,14.8S49.9,73,49.9,64.8S56.6,50,64.7,50z"/>
	<path class="st18" d="M10.2,43.1c1.1,0,1.9-0.9,1.9-1.9c0-1.1-0.9-1.9-1.9-1.9c-1.1,0-1.9,0.9-1.9,1.9C8.2,42.2,9.1,43.1,10.2,43.1
		z"/>
	<path class="st18" d="M72,43.1c1.1,0,1.9-0.9,1.9-1.9c0-1.1-0.9-1.9-1.9-1.9c-1.1,0-1.9,0.9-1.9,1.9C70.1,42.2,70.9,43.1,72,43.1z"
		/>
	<path class="st18" d="M14,27.1c1.1,0,1.9-0.9,1.9-1.9c0-1.1-0.9-1.9-1.9-1.9c-1.1,0-1.9,0.9-1.9,1.9C12.1,26.3,13,27.1,14,27.1z"/>
	<path class="st18" d="M68.2,27.1c1.1,0,1.9-0.9,1.9-1.9c0-1.1-0.9-1.9-1.9-1.9c-1.1,0-1.9,0.9-1.9,1.9
		C66.3,26.3,67.1,27.1,68.2,27.1z"/>
	<path class="st18" d="M14,59.2c1.1,0,1.9-0.9,1.9-1.9c0-1.1-0.9-1.9-1.9-1.9c-1.1,0-1.9,0.9-1.9,1.9C12.1,58.4,13,59.2,14,59.2z"/>
	<path class="st18" d="M25.5,70.1c1.1,0,1.9-0.9,1.9-1.9c0-1.1-0.9-1.9-1.9-1.9c-1.1,0-1.9,0.9-1.9,1.9
		C23.5,69.3,24.4,70.1,25.5,70.1z"/>
	<path class="st18" d="M25.5,16.1c1.1,0,1.9-0.9,1.9-1.9c0-1.1-0.9-1.9-1.9-1.9c-1.1,0-1.9,0.9-1.9,1.9
		C23.5,15.2,24.4,16.1,25.5,16.1z"/>
	<path class="st18" d="M56.5,16.1c1.1,0,1.9-0.9,1.9-1.9c0-1.1-0.9-1.9-1.9-1.9s-1.9,0.9-1.9,1.9C54.6,15.2,55.5,16.1,56.5,16.1z"/>
	<path class="st18" d="M41.2,11c1.1,0,1.9-0.9,1.9-1.9c0-1.1-0.9-1.9-1.9-1.9c-1.1,0-1.9,0.9-1.9,1.9C39.2,10.1,40.1,11,41.2,11z"/>
	<path class="st18" d="M41.2,70.6c-1.1,0-1.9,0.9-1.9,1.9c0,1.1,0.9,1.9,1.9,1.9c1.1,0,1.9-0.9,1.9-1.9
		C43.1,71.4,42.2,70.6,41.2,70.6z"/>
	<path class="st18" d="M41.2,46.4c2.3,0,4.4-1.5,5.1-3.8h15v-3.1h-15c-0.5-1.7-1.8-3-3.5-3.5V16.8h-3.1v19.3
		c-2.2,0.7-3.8,2.7-3.8,5.1C35.9,44.1,38.2,46.4,41.2,46.4z M41.2,43.4c-1.2,0-2.2-1-2.2-2.2c0-1.2,1-2.2,2.2-2.2
		c1.2,0,2.2,1,2.2,2.2C43.4,42.4,42.4,43.4,41.2,43.4z"/>
	<path class="st18" d="M63.8,73.3v1.6c0,0.3,0.3,0.6,0.6,0.6h0.8c0.3,0,0.6-0.3,0.6-0.6v-1.6c2.4-0.3,4.8-1.7,4.8-4.8
		c0-3.8-3.1-4.5-5.5-5.1l-0.1,0c-2.5-0.5-3.5-1-3.5-2.4c0-0.6,0.2-1,0.5-1.4c0.7-0.7,2-1,2.8-1c1.3,0,2.8,0.5,3.4,1.8
		c0.1,0.2,0.2,0.3,0.4,0.3c0.2,0,0.4,0,0.5-0.1l0.9-0.6c0.3-0.2,0.4-0.5,0.2-0.8c-0.8-1.6-2.3-2.7-4.3-3v-1.7c0-0.3-0.3-0.6-0.6-0.6
		h-0.8c-0.3,0-0.6,0.3-0.6,0.6v1.7c-2.2,0.3-4.7,1.8-4.6,4.8c0.1,3.4,3,4.1,5.4,4.6c2.7,0.6,3.9,1.1,3.9,2.8c0,1.9-2.2,2.4-3.6,2.4
		c-1.5,0-3.3-0.5-3.9-2.1c-0.1-0.2-0.2-0.3-0.4-0.3c-0.2-0.1-0.4,0-0.5,0.1l-0.9,0.5c-0.3,0.2-0.4,0.5-0.3,0.8
		C59.6,71.8,61.5,73,63.8,73.3z"/>
</g>
</svg>
