<?xml version="1.0" encoding="utf-8"?>
<!-- Generator: Adobe Illustrator 22.1.0, SVG Export Plug-In . SVG Version: 6.00 Build 0)  -->
<svg version="1.1" id="Capa_1" xmlns="http://www.w3.org/2000/svg" xmlns:xlink="http://www.w3.org/1999/xlink" x="0px" y="0px"
	 viewBox="0 0 88.3 84.6" style="enable-background:new 0 0 88.3 84.6;" xml:space="preserve">
<style type="text/css">
	.st0{fill:#FFFFFF;}
	.st1{fill:#0187CD;}
	.st2{opacity:0.55;clip-path:url(#SVGID_2_);}
	.st3{opacity:0.5;fill:none;stroke:#BEBEBE;stroke-miterlimit:10;}
	.st4{fill:#D8D8D8;}
	.st5{fill:#004485;}
	.st6{opacity:0.55;}
	.st7{fill:#004484;}
	.st8{fill:#87888B;}
	.st9{fill:#2F4C87;}
	.st10{fill:#E1E2E3;}
	.st11{fill:#C47930;}
	.st12{fill:#C3C3C3;}
	.st13{fill:#A4D523;}
	.st14{fill:#27608D;}
	.st15{fill:#749323;}
	.st16{fill:#FF0000;}
	.st17{fill:#CE7535;}
	.st18{fill:#265D9B;}
	.st19{opacity:5.000000e-02;}
	.st20{clip-path:url(#SVGID_4_);fill:#FFFFFF;}
	.st21{fill:#304483;}
	.st22{fill:#9D9FA1;}
	.st23{fill:#F1F1F1;}
	.st24{opacity:0.8;}
	.st25{fill:url(#SVGID_5_);}
	.st26{fill:url(#SVGID_6_);}
	.st27{opacity:0.3;fill:#FFFFFF;stroke:#FFFFFF;stroke-miterlimit:10;}
	.st28{fill:none;stroke:#265D9B;stroke-width:1.5;stroke-miterlimit:10;}
	.st29{opacity:0.85;fill:#FFFFFF;}
	.st30{opacity:0.85;fill:#9D9FA1;}
	.st31{opacity:0.75;}
	.st32{fill:#2B6BA7;}
	.st33{fill:none;stroke:#265D9B;stroke-width:3;stroke-miterlimit:10;}
	.st34{fill:none;stroke:#CE7535;stroke-width:3;stroke-miterlimit:10;}
	.st35{fill:url(#SVGID_7_);stroke:#265D9B;stroke-miterlimit:10;}
	.st36{fill:url(#SVGID_8_);stroke:#265D9B;stroke-miterlimit:10;}
	.st37{fill:#F3F3F3;}
	.st38{fill:#040707;}
	.st39{fill:#6F7175;}
	.st40{fill:#01CCF7;}
	.st41{fill:#00C0F5;}
	.st42{fill:#707276;}
	.st43{fill:#04E777;}
	.st44{fill:#04D8F7;}
	.st45{fill:#F6C302;}
	.st46{fill:#D83155;}
	.st47{fill:#E9354C;}
	.st48{fill:#F6CE05;}
	.st49{fill:#F33A45;}
	.st50{fill:#4D4D4D;}
	.st51{opacity:0.5;}
	.st52{fill:none;stroke:#FFFFFF;stroke-width:3;stroke-miterlimit:10;}
	.st53{fill:none;stroke:#808080;stroke-width:1.5;stroke-miterlimit:10;}
	.st54{opacity:0.5;fill:none;stroke:#C3C3C3;stroke-miterlimit:10;}
	.st55{fill:none;stroke:#265D9B;stroke-width:0.25;stroke-miterlimit:10;}
	.st56{fill:#6D6D6D;}
	.st57{fill:#8CBF37;}
	.st58{fill:#0C6F9E;}
	.st59{fill:#DFB70E;}
	.st60{fill:#FAA93F;}
	.st61{fill:#6B7137;}
	.st62{fill:#AA6A43;}
	.st63{fill:#147DA1;}
	.st64{fill:#428B44;}
	.st65{fill:#E81D24;}
	.st66{fill:#8BC548;}
	.st67{fill:#0CB8B8;}
	.st68{fill:#002B51;}
	.st69{fill:#A5A7AA;}
	.st70{fill:#6F7173;}
	.st71{fill:#707274;}
	.st72{fill:#A6A8AB;}
	.st73{fill:#A6A7AA;}
	.st74{fill:#A6A8AA;}
	.st75{fill:#6E7072;}
	.st76{clip-path:url(#SVGID_12_);fill:#FFFFFF;}
	.st77{clip-path:url(#SVGID_12_);}
	.st78{fill:#054B8D;}
	.st79{fill:#B12E33;}
	.st80{fill:#B43439;}
	.st81{fill:#B32E33;}
	.st82{fill:#B02D32;}
	.st83{fill:#25AAC9;}
	.st84{clip-path:url(#SVGID_14_);fill:#FFFFFF;}
	.st85{clip-path:url(#SVGID_14_);fill:#B43439;}
	.st86{clip-path:url(#SVGID_16_);fill:#FFFFFF;}
	.st87{fill:#004D8D;}
	.st88{fill:none;stroke:#F3F3F3;stroke-miterlimit:10;}
	.st89{clip-path:url(#SVGID_18_);fill:#FFFFFF;}
	.st90{clip-path:url(#SVGID_18_);}
	.st91{clip-path:url(#SVGID_20_);fill:#FFFFFF;}
	.st92{clip-path:url(#SVGID_20_);fill:#B43439;}
	.st93{fill:none;stroke:#FFFFFF;stroke-miterlimit:10;}
	.st94{fill:none;stroke:#CE7535;stroke-miterlimit:10;}
	.st95{fill:none;stroke:#000000;stroke-miterlimit:10;}
	.st96{fill:#015594;}
	.st97{fill:#085A98;}
	.st98{fill:#2497D4;}
	.st99{fill:#10619E;}
	.st100{fill:#4C91C5;}
	.st101{fill:#2673AD;}
	.st102{fill:#1A68A4;}
	.st103{fill:#327CB3;}
	.st104{fill:#3A82B9;}
	.st105{fill:#64A4D4;}
	.st106{fill:#00427A;}
	.st107{fill:#F8FBFC;}
	.st108{fill:#7EC1E5;}
	.st109{fill:#C1E1F2;}
	.st110{fill:#FCFDFD;}
	.st111{fill:#E5BC2D;}
	.st112{fill:#DEB12D;}
	.st113{fill:#3A4981;}
	.st114{fill:#D19C2C;}
	.st115{fill:#6D6750;}
	.st116{fill:#3B5188;}
	.st117{fill:#4C7FB7;}
	.st118{fill:#3B5892;}
	.st119{fill:#426499;}
	.st120{fill:#4874A9;}
	.st121{fill:#4A3C1D;}
	.st122{fill:#5F7682;}
	.st123{fill:#DDA62B;}
	.st124{fill:#383D75;}
	.st125{fill:#DDAB2C;}
	.st126{fill:#BEBEBE;}
</style>
<g>
	<g>
		<path class="st18" d="M62.5,84.6H0V72.3h10.4V71h-3V60h47.6V71h-3v1.2h10.4V84.6z M3.8,80.9h55V76H48.3v-8.7h3v-3.6H11.2v3.6h3V76
			H3.8V80.9z M79.7,70.6c-1.8,0-3.6-0.6-5-2L52.4,47.2l1.7-1.7l-9.9-9.5l-1.2,1.2c0.7,0.9,1.1,2,1.1,3.1c0,1.4-0.5,2.7-1.5,3.7
			l-1.2,1.2c-2,2.1-5.3,2.1-7.4,0.1L17.9,29.8c-1-1-1.6-2.3-1.6-3.7c0-1.4,0.5-2.7,1.5-3.7l1.2-1.2c2-2,5.2-2.1,7.3-0.3l10.4-10.8
			c-0.9-1-1.4-2.2-1.5-3.5c0-1.4,0.5-2.7,1.5-3.7l1.2-1.2c1-1,2.3-1.6,3.7-1.6c1.4,0,2.7,0.5,3.7,1.5l16.2,15.6
			c2.1,2,2.1,5.3,0.1,7.4l-1.2,1.2c-1,1-2.3,1.6-3.7,1.6c-1.2,0-2.3-0.3-3.2-1l-1.2,1.2l9.9,9.5l1.7-1.7l22.3,21.4
			c3,2.9,2.9,7.9-0.3,11.2l0,0C84.1,69.7,81.9,70.6,79.7,70.6z M57.7,47.1l19.6,18.8c1.5,1.4,4.1,1.2,5.8-0.6l0,0
			c1.7-1.8,1.9-4.4,0.4-5.9L64,40.6l-1.7,1.7L47,27.6l6.3-6.6l2.2,2.1c0.3,0.3,0.6,0.4,1,0.4c0,0,0,0,0,0c0.4,0,0.8-0.2,1-0.5
			l1.2-1.2c0.6-0.6,0.6-1.5,0-2.1L42.5,4.2c-0.3-0.3-0.7-0.4-1.1-0.4c-0.4,0-0.8,0.2-1,0.5l-1.2,1.2c-0.3,0.3-0.4,0.7-0.4,1.1
			c0,0.4,0.2,0.8,0.5,1l2.6,2.5L26.3,26.2l-2.6-2.5c-0.6-0.6-1.5-0.6-2.1,0L20.5,25C20.2,25.2,20,25.6,20,26c0,0.4,0.2,0.8,0.5,1
			l16.2,15.6c0.6,0.6,1.5,0.6,2.1,0l1.2-1.2c0.3-0.3,0.4-0.7,0.4-1.1c0-0.4-0.2-0.8-0.5-1l-2.2-2.1l6.3-6.6l15.3,14.7L57.7,47.1z"/>
	</g>
</g>
</svg>
