<?xml version="1.0" encoding="utf-8"?>
<!-- Generator: Adobe Illustrator 22.1.0, SVG Export Plug-In . SVG Version: 6.00 Build 0)  -->
<svg version="1.1" id="Capa_1" xmlns="http://www.w3.org/2000/svg" xmlns:xlink="http://www.w3.org/1999/xlink" x="0px" y="0px"
	 viewBox="0 0 72.4 71.9" style="enable-background:new 0 0 72.4 71.9;" xml:space="preserve">
<style type="text/css">
	.st0{opacity:0.55;clip-path:url(#SVGID_2_);}
	.st1{fill:#004483;}
	.st2{opacity:5.000000e-02;}
	.st3{clip-path:url(#SVGID_4_);fill:#FFFFFF;}
	.st4{fill:none;stroke:#265D9A;stroke-width:1.5;stroke-miterlimit:10;}
	.st5{fill:#86878A;}
	.st6{opacity:0.85;fill:#FFFFFF;}
	.st7{opacity:0.85;fill:#9C9EA0;}
	.st8{fill:#FFFFFF;}
	.st9{fill:#C37930;}
	.st10{opacity:0.75;}
	.st11{fill:#2B6BA6;}
	.st12{fill:#265D9A;}
	.st13{fill:none;stroke:#265D9A;stroke-width:0.25;stroke-miterlimit:10;}
	.st14{fill:#2ECF6E;}
	.st15{clip-path:url(#SVGID_6_);fill:#FFFFFF;}
	.st16{clip-path:url(#SVGID_6_);}
	.st17{fill:#054B8C;}
	.st18{fill:#B02E33;}
	.st19{fill:#B33439;}
	.st20{fill:#B22E33;}
	.st21{fill:#AF2D32;}
	.st22{fill:#25A9C8;}
	.st23{clip-path:url(#SVGID_8_);fill:#FFFFFF;}
	.st24{clip-path:url(#SVGID_8_);fill:#B33439;}
	.st25{fill:#C2C2C2;}
	.st26{opacity:0.55;}
	.st27{fill:#F0F0F0;}
	.st28{clip-path:url(#SVGID_10_);fill:#FFFFFF;}
	.st29{opacity:0.5;fill:none;stroke:#BDBDBD;stroke-miterlimit:10;}
	.st30{fill:#D7D7D7;}
	.st31{fill:#2F4C86;}
	.st32{fill:#E0E1E2;}
	.st33{fill:#A3D423;}
	.st34{fill:#27608C;}
	.st35{fill:#749223;}
	.st36{fill:#FF0000;}
	.st37{fill:#CD7535;}
	.st38{opacity:0.8;}
	.st39{opacity:0.3;fill:#FFFFFF;stroke:#FFFFFF;stroke-miterlimit:10;}
	.st40{fill:#9C9EA0;}
	.st41{fill:none;stroke:#CD7535;stroke-width:3;stroke-miterlimit:10;}
	.st42{fill:url(#SVGID_11_);stroke:#265D9A;stroke-miterlimit:10;}
	.st43{fill:url(#SVGID_12_);stroke:#265D9A;stroke-miterlimit:10;}
	.st44{fill:#F2F2F2;}
	.st45{fill:#040707;}
	.st46{fill:#6F7175;}
	.st47{fill:#01CBF6;}
	.st48{fill:#00BFF4;}
	.st49{fill:#707276;}
	.st50{fill:#04E677;}
	.st51{fill:#04D7F6;}
	.st52{fill:#F5C202;}
	.st53{fill:#D73155;}
	.st54{fill:#E8354C;}
	.st55{fill:#F5CD05;}
	.st56{fill:#F23A45;}
	.st57{fill:#4D4D4D;}
	.st58{opacity:0.5;}
	.st59{opacity:0.55;clip-path:url(#SVGID_14_);}
	.st60{fill:none;stroke:#265D9A;stroke-width:3;stroke-miterlimit:10;}
	.st61{fill:none;stroke:#808080;stroke-width:1.5;stroke-miterlimit:10;}
	.st62{fill:#6D6D6D;}
	.st63{fill:none;stroke:#000000;stroke-miterlimit:10;}
	.st64{clip-path:url(#SVGID_20_);fill:#FFFFFF;}
	.st65{clip-path:url(#SVGID_20_);}
	.st66{clip-path:url(#SVGID_22_);fill:#FFFFFF;}
	.st67{clip-path:url(#SVGID_22_);fill:#B33439;}
	.st68{opacity:7.000000e-02;fill:#25A9C8;}
	.st69{opacity:0.55;clip-path:url(#SVGID_24_);}
	.st70{opacity:0.5;fill:none;stroke:#C2C2C2;stroke-miterlimit:10;}
	.st71{opacity:0.55;clip-path:url(#SVGID_26_);}
	.st72{fill:none;stroke:#A9A9A9;stroke-width:0.5;stroke-miterlimit:10;}
	.st73{clip-path:url(#SVGID_28_);fill:#FFFFFF;}
	.st74{clip-path:url(#SVGID_28_);}
	.st75{clip-path:url(#SVGID_30_);fill:#FFFFFF;}
	.st76{clip-path:url(#SVGID_30_);fill:#B33439;}
	.st77{fill:#0186CC;}
	.st78{fill:#015593;}
	.st79{fill:#085A97;}
	.st80{fill:#2496D3;}
	.st81{fill:#10619D;}
	.st82{fill:#4C90C4;}
	.st83{fill:#2673AC;}
	.st84{fill:#1A68A3;}
	.st85{fill:#327CB2;}
	.st86{fill:#3A81B8;}
	.st87{fill:#64A3D3;}
	.st88{fill:#00427A;}
	.st89{fill:#F7FAFB;}
	.st90{fill:#7EC0E4;}
	.st91{fill:#C0E0F1;}
	.st92{fill:#FBFCFC;}
	.st93{fill:#EEEEEE;}
	.st94{fill:none;stroke:#050505;stroke-width:0.5;stroke-miterlimit:10;}
	.st95{fill:#03397D;}
	.st96{fill:#C5CDD4;}
	.st97{fill:#C6CED4;}
	.st98{fill:#073B7E;}
	.st99{fill:#063B7E;}
	.st100{fill:#083C7F;}
	.st101{fill:#0C3E80;}
	.st102{fill:#0A3D7F;}
	.st103{fill:#D1D7DC;}
	.st104{fill:#EDEFF0;}
	.st105{fill:#DFE3E6;}
	.st106{fill:#0E4080;}
	.st107{fill:#FCFBFC;}
	.st108{fill:#878686;}
	.st109{fill:#6285C1;}
	.st110{fill:#E09F1B;}
	.st111{fill:#D07630;}
	.st112{fill:#5F7FBD;}
	.st113{fill:#039DDF;}
	.st114{fill:#3E579F;}
	.st115{fill:#8BC5DF;}
	.st116{fill:#E7BC3E;}
	.st117{fill:#DFEEF6;}
	.st118{fill:#888787;}
	.st119{fill:#4B4D96;}
	.st120{fill:#969595;}
	.st121{fill:#5FB2D1;}
	.st122{fill:#B1D5E7;}
	.st123{fill:#FFFFFF;stroke:#4D4D4D;stroke-width:0.15;stroke-miterlimit:10;}
	.st124{fill:none;stroke:#999999;stroke-width:0.5;stroke-miterlimit:10;}
	.st125{fill:#CF7535;}
	.st126{fill:#2F4C88;}
	.st127{fill:none;stroke:#CCCCCC;stroke-width:0.5;stroke-miterlimit:10;}
	.st128{fill:none;stroke:#2F4C88;stroke-width:0.5;stroke-miterlimit:10;}
	.st129{fill:#EFEFEF;}
	.st130{fill:none;stroke:#666666;stroke-width:0.5;stroke-miterlimit:10;}
	.st131{fill:#A9A9A9;}
	.st132{fill:#025290;}
	.st133{fill:#055492;}
	.st134{opacity:0.55;clip-path:url(#SVGID_34_);}
	.st135{fill:none;stroke:#FFFFFF;stroke-width:0.5;stroke-miterlimit:10;}
	.st136{fill:none;stroke:#4D4D4D;stroke-miterlimit:10;}
	.st137{fill:none;stroke:#FFFFFF;stroke-width:3;stroke-miterlimit:10;}
	.st138{fill:none;stroke:#FFFFFF;stroke-miterlimit:10;}
</style>
<g>
	<circle class="st77" cx="36.5" cy="35.8" r="35.8"/>
	<g>
		<path class="st77" d="M17.4,66.9c-9.9-6-15.7-14.7-17.2-26.2c-2.1-17,8.3-32.9,24.7-38C40.8-2,57.6,4.4,66.1,18.5
			c0.3,0.4,0.5,0.9,0.7,1.3c-1.5,0.2-2.9,0.9-4.2,1.6c-1,0.2-2,0.5-2.8,1.1c-1,0.3-1.9,0.5-2.8,1.1c-0.5,0.2-1.1,0.4-1.6,0.7
			c-1.6,0.6-3.1,1.1-4.7,1.7c-0.6-0.8-1.5-1.4-2.2-2c-0.4-0.8-1.3-1.1-1.9-1.7c-0.4-0.8-1.2-1.2-1.9-1.7c-0.6-1-1.6-1.5-2.5-2.2
			c-1-1.3-2.4-2.2-3.6-3.3c-0.6-0.5-1-1.3-1.9-1.4c-0.5-0.9-1.4-1.4-2-2.1c-0.8-0.9-1.5-0.8-2.2,0.2c-2.2,1.6-4.1,3.5-6.1,5.3
			c-3.3,2.9-6.6,5.7-9.9,8.6c-1.3,1.2-1.3,1.9,0.3,2.3c2.5,0.6,2.4,2.3,2.3,4.1c0,0.6,0,1.3,0,1.9c0,0.7-0.2,0.9-0.9,1
			c-2.2,0.3-4.3,0.8-6.2,2c-0.5,0.3-0.9,0.7-0.9,1.4c0.1,2.9,0,5.8,0.1,8.7c0,0.7,0.6,1,1.1,1.3c2,1,4.1,1.5,6.3,1.8
			c0,0.6,0,1.1,0,1.7C18.1,57,17.6,61.9,17.4,66.9z"/>
		<path class="st77" d="M67.4,20.9c2.8,5.8,4.2,11.8,3.6,18.3c-1.3,13.5-8.2,23.2-20.2,29.3c-0.3,0.1-0.6,0.2-0.9,0.3
			c-0.1-3.6-0.9-7.2-0.9-10.8c-0.1-2.6-0.3-5.2-0.8-7.8c2.4-0.2,4.6-0.8,6.7-1.8c0.5-0.2,0.8-0.6,0.8-1.2c0.6-1.4,0.2-2.9,0.2-4.4
			c0-1.8,0.3-3.6-0.2-5.4c0.2-0.1,0.3-0.1,0.5-0.2c0.7,0.2,1.4,0.3,2,0.5c0.9,0.5,2,0.7,3,0.8c1,0.5,2,0.7,3.1,0.8
			c0.7,0.6,1.6,0.5,2.4,0.8c1.3,0.5,1.5-0.1,1.4-1.2c-0.2-2.2-0.4-4.4-0.5-6.6c-0.2-3.6-0.4-7.1-0.8-10.7
			C66.8,21.5,66.7,21,67.4,20.9z"/>
		<path class="st78" d="M17.4,66.9c0.1-5,0.6-10,1.1-15c0.1-0.5,0-1.1,0-1.7c0.1-0.3,0.3-0.6,0.2-0.9c-0.1-1,0.3-1.3,1.3-1.4
			c3.4-0.4,6.7-0.6,10.1-0.8c-0.2,0.7-0.3,1.4-0.3,2.2c0,6.8,0,13.6,0,20.4c0,0.5,0.2,1.1-0.3,1.6c-0.2,0-0.4,0-0.5-0.1
			c-0.3-0.3-0.6-0.2-0.9-0.2C24.3,70.4,20.7,69,17.4,66.9z"/>
		<path class="st79" d="M29.6,71.4c0.5-0.4,0.3-1,0.3-1.6c0-6.8,0-13.6,0-20.4c0-0.7,0.1-1.5,0.3-2.2c1.4,0,2.8,0,4.2,0
			c0,8.2,0,16.4,0,24.6C32.8,72,31.2,71.7,29.6,71.4z"/>
		<path class="st80" d="M67.4,20.9c-0.7,0.1-0.6,0.6-0.6,1c0.4,3.5,0.6,7.1,0.8,10.7c0.1,2.2,0.3,4.4,0.5,6.6
			c0.1,1.1-0.2,1.7-1.4,1.2c-0.8-0.3-1.7-0.2-2.4-0.8c0.1-0.8-0.2-1.4-0.3-2.2c-0.3-4.4-0.5-8.9-0.9-13.3c-0.1-0.9-0.1-1.8-0.6-2.6
			c1.4-0.7,2.7-1.4,4.2-1.6C67.2,20.1,67.3,20.5,67.4,20.9z"/>
		<path class="st81" d="M34.4,71.9c0-8.2,0-16.4,0-24.6c1.1,0,2.2,0,3.3,0c-0.4,1.3-0.3,2.5-0.3,3.8c0,6.3,0,12.7,0,19
			c0,0.6,0.1,1.2-0.3,1.7C36.2,71.9,35.3,71.9,34.4,71.9z"/>
		<path class="st82" d="M48.3,50.3c0.5,2.6,0.6,5.2,0.8,7.8c-0.7,0.1-0.5,0.7-0.5,1.1c0,3.4,0,6.9,0,10.3c-0.9,0.5-1.8,0.8-2.8,1
			c-0.2-0.6-0.3-1.2-0.3-1.9c0-6.9,0-13.8,0-20.7C48.2,47.8,48.3,47.8,48.3,50.3z"/>
		<path class="st83" d="M42.1,71.3c-0.7,0.1-1.4,0.5-2.2,0.3c0-8,0-16.1,0-24.1c0.9,0,1.9,0,2.8,0c0,7.3,0,14.7,0,22
			C42.7,70.2,42.8,70.9,42.1,71.3z"/>
		<path class="st84" d="M39.9,47.5c0,8,0,16.1,0,24.1c-0.9,0.3-1.8,0.4-2.8,0.3c0.4-0.5,0.3-1.1,0.3-1.7c0-6.3,0-12.7,0-19
			c0-1.3-0.1-2.6,0.3-3.8C38.4,47.4,39.2,47,39.9,47.5z"/>
		<path class="st85" d="M42.1,71.3c0.7-0.4,0.5-1.1,0.5-1.7c0-7.3,0-14.7,0-22c0.5,0,1-0.2,1.4,0.2c0,7.7,0,15.4,0,23
			C43.5,71.1,42.8,71.3,42.1,71.3z"/>
		<path class="st86" d="M44.1,70.8c0-7.7,0-15.4,0-23c0.5,0,0.9,0.1,1.4,0.1c0,6.9,0,13.8,0,20.7c0,0.7,0.1,1.3,0.3,1.9
			C45.2,70.6,44.7,70.9,44.1,70.8z"/>
		<path class="st87" d="M48.5,69.5c0-3.4,0-6.9,0-10.3c0-0.4-0.2-1,0.5-1.1c0,3.6,0.8,7.2,0.9,10.8C49.5,69.3,49,69.4,48.5,69.5z"/>
		<path class="st79" d="M28.2,71.1c0.3,0,0.7-0.1,0.9,0.2C28.8,71.4,28.4,71.4,28.2,71.1z"/>
		<path class="st78" d="M11.1,47.3c0-2.9,0-5.8-0.1-8.7c0-0.7,0.4-1.1,0.9-1.4c1.9-1.3,4-1.7,6.2-2c0.7-0.1,1-0.4,0.9-1
			c0-0.6,0-1.3,0-1.9c0.1-1.9,0.2-3.5-2.3-4.1c-1.7-0.4-1.6-1.1-0.3-2.3c3.3-2.9,6.6-5.8,9.9-8.6c0.5,0.6,0.6,1.3,0.6,2.1
			c0,2.4,0,4.8,0,7.3c-1.2,0.1-2.4,0.1-3.6,0.2c-0.6,0-0.9,0.2-0.9,0.9c0,2.1,0,4.2,0,6.3c0,0.7,0.2,0.8,0.9,0.8
			c1.5-0.1,2.9-0.2,4.4-0.3c0,3.3,0,6.6,0,9.9C22,44.4,16.4,44.7,11.1,47.3z"/>
		<path class="st88" d="M11.1,47.3c5.2-2.6,10.9-2.9,16.6-3.1c1.7-0.5,3.5-0.2,5.3-0.3c1.8,0,3.7,0,5.5,0c0.8,0,1.5,0.4,2.2,0.2
			c1.3,0.1,2.6,0,3.9,0.3c0.6,0,1.1,0,1.7,0.1c1.1,0.2,2.2,0.4,3.3,0.5c0.7,0.2,1.5,0.3,2.2,0.5c1.4,0.5,2.7,0.8,3.9,1.8
			c0.1,0.6-0.3,0.9-0.8,1.2c-2.1,1.1-4.3,1.7-6.7,1.8c0-2.4,0-2.5-2.8-2.4c-0.5,0-0.9-0.1-1.4-0.1c-0.4-0.4-0.9-0.2-1.4-0.2
			c-0.9,0-1.9,0-2.8,0c-0.7-0.5-1.5-0.2-2.2-0.2c-1.1,0-2.2,0-3.3,0c-1.4,0-2.8,0-4.2,0c-3.4,0.1-6.7,0.3-10.1,0.8
			c-1,0.1-1.4,0.4-1.3,1.4c0,0.3-0.2,0.6-0.2,0.9c-2.2-0.3-4.3-0.8-6.3-1.8C11.7,48.3,11.1,48,11.1,47.3z"/>
		<path class="st79" d="M33,43.9c-1.8,0.1-3.5-0.2-5.3,0.3c0-3.3,0-6.6,0-9.9c1,0,2-0.1,3-0.1c0.6,0,0.9-0.2,0.9-0.9
			c0-2.1,0-4.1,0-6.2c0-0.7-0.2-0.8-0.9-0.8c-1.3,0.1-2.6,0-3.8,0.1c0-2.4,0-4.8,0-7.3c0-0.7-0.1-1.5-0.6-2.1c2-1.8,3.9-3.7,6.1-5.3
			c0.8,0.4,0.6,1.1,0.6,1.7C33,23.6,33,33.8,33,43.9z"/>
		<path class="st81" d="M33,43.9c0-10.1,0-20.3,0-30.4c0-0.6,0.2-1.3-0.6-1.7c0.6-1,1.4-1.1,2.2-0.2c0.6,0.7,1.6,1.2,2,2.1
			c0,4.2,0,8.3,0,12.5c-0.7,0-0.7,0.5-0.7,1.1c0,1.3,0,2.7,0,4c0,2.8,0,2.8,2.7,3.1c0,3.2,0,6.4-0.1,9.6
			C36.7,43.9,34.8,43.9,33,43.9z"/>
		<path class="st89" d="M56.2,37.4c-0.2,0.1-0.3,0.1-0.5,0.2c-1.2-0.9-2.6-0.9-3.9-1.4c-0.7-0.2-1.4-0.6-2.2-0.6
			c-1.5-0.2-1.8-1.1-1.7-2.5c0.1-2,0-4,0.1-6.1c1-0.1,1.9-0.6,2.8-1.1c1.6-0.6,3.1-1.1,4.7-1.7c0,1.2,0,2.5,0.1,3.7
			C55.7,31.1,56,34.3,56.2,37.4z"/>
		<path class="st84" d="M36.6,26.2c0-4.2,0-8.3,0-12.5c0.9,0.1,1.3,0.9,1.9,1.4c1.2,1,2.6,2,3.6,3.3c-0.5,2.6-0.2,5.2-0.3,7.7
			C40.1,26.2,38.3,26.2,36.6,26.2z"/>
		<path class="st86" d="M48,27.1c0,2,0.1,4.1-0.1,6.1c-0.1,1.4,0.2,2.3,1.7,2.5c0,3.1,0,6.2,0,9.4c-1.1-0.2-2.2-0.4-3.3-0.5
			c0-5.6,0-11.1,0-16.7c0-1.8-0.2-3.7,0.3-5.5c0.6,0.6,1.5,0.9,1.9,1.7C47.4,24.9,48.2,26,48,27.1z"/>
		<path class="st87" d="M62.6,21.4c0.5,0.8,0.5,1.8,0.6,2.6c0.3,4.4,0.6,8.9,0.9,13.3c0,0.7,0.4,1.4,0.3,2.2c-1-0.2-2.1-0.3-3.1-0.8
			c0.1-4.9-0.7-9.7-0.9-14.5c0-0.5-0.1-1.2-0.6-1.7C60.7,21.9,61.6,21.6,62.6,21.4z"/>
		<path class="st90" d="M59.8,22.5c0.5,0.5,0.5,1.1,0.6,1.7c0.1,4.9,1,9.7,0.9,14.5c-1-0.2-2.1-0.3-3-0.8c-0.2-3.5-0.3-7-0.7-10.5
			c-0.1-1.2,0.1-2.6-0.6-3.7C57.9,23.1,58.9,22.8,59.8,22.5z"/>
		<path class="st85" d="M46.6,22.3c-0.4,1.8-0.3,3.6-0.3,5.5c0,5.6,0,11.1,0,16.7c-0.6,0-1.1,0-1.7-0.1c0-3.3-0.1-6.5-0.1-9.8
			c0-1.6,0.1-3.2,0-4.8c0-1.2,0.3-2.5-0.2-3.6c0-0.5,0-1,0-1.5c0.1-1.3-0.3-2.7,0.3-4C45.3,21.1,46.1,21.5,46.6,22.3z"/>
		<path class="st91" d="M57,23.6c0.7,1.2,0.4,2.5,0.6,3.7c0.4,3.5,0.5,7,0.7,10.5c-0.7-0.2-1.4-0.3-2-0.5c-0.2-3.1-0.5-6.3-0.7-9.4
			c-0.1-1.2-0.1-2.5-0.1-3.7C56,24.1,56.5,23.8,57,23.6z"/>
		<path class="st83" d="M44.6,20.6c-0.6,1.3-0.1,2.7-0.3,4c0,0.5,0,1,0,1.5c-0.8,0-1.7,0-2.5,0c0.1-2.6-0.2-5.2,0.3-7.7
			C43,19.1,44,19.7,44.6,20.6z"/>
		<path class="st82" d="M48,27.1c0.2-1-0.5-2.2,0.5-3.1c0.8,0.6,1.6,1.2,2.2,2C49.9,26.5,49,26.9,48,27.1z"/>
		<path class="st87" d="M51.8,36.2c1.3,0.5,2.7,0.5,3.9,1.4c0.6,1.8,0.2,3.6,0.2,5.4c0,1.4,0.3,2.9-0.2,4.4
			c-1.1-0.9-2.5-1.3-3.9-1.8C51.8,42.4,51.8,39.3,51.8,36.2z"/>
		<path class="st92" d="M26.9,26.4c1.3,0,2.6,0,3.8-0.1c0.6,0,0.9,0.1,0.9,0.8c0,2.1,0,4.1,0,6.2c0,0.7-0.2,0.9-0.9,0.9
			c-1,0-2,0.1-3,0.1c-1.5,0.1-2.9,0.1-4.4,0.3c-0.7,0.1-0.9-0.1-0.9-0.8c0-2.1,0-4.2,0-6.3c0-0.7,0.3-0.9,0.9-0.9
			C24.5,26.5,25.7,26.4,26.9,26.4z"/>
		<path class="st83" d="M44.5,34.6c0,3.3,0.1,6.5,0.1,9.8c-1.3-0.3-2.6-0.1-3.9-0.3c0-3.2,0-6.5,0-9.7C42,34.5,43.3,34.6,44.5,34.6z
			"/>
		<path class="st84" d="M40.7,34.5c0,3.2,0,6.5,0,9.7c-0.8,0.2-1.5-0.2-2.2-0.2c0-3.2,0-6.4,0.1-9.6C39.3,34.2,40,34.3,40.7,34.5z"
			/>
		<path class="st82" d="M51.8,36.2c0,3.1,0,6.2,0,9.3c-0.7-0.2-1.5-0.3-2.2-0.5c0-3.1,0-6.2,0-9.4C50.4,35.6,51.1,36,51.8,36.2z"/>
		<path class="st89" d="M40.7,34.5c-0.7-0.1-1.4-0.2-2.2-0.1c-2.7-0.3-2.7-0.3-2.7-3.1c0-1.3,0-2.7,0-4c0-0.5,0-1,0.7-1.1
			c1.8,0,3.5,0,5.3,0c0.8,0,1.7,0,2.5,0c0.5,1.2,0.2,2.4,0.2,3.6c0.1,1.6,0,3.2,0,4.8C43.3,34.6,42,34.5,40.7,34.5z"/>
	</g>
</g>
</svg>
