<?xml version="1.0" encoding="utf-8"?>
<!-- Generator: Adobe Illustrator 22.1.0, SVG Export Plug-In . SVG Version: 6.00 Build 0)  -->
<svg version="1.1" id="Layer_1" xmlns="http://www.w3.org/2000/svg" xmlns:xlink="http://www.w3.org/1999/xlink" x="0px" y="0px"
	 viewBox="0 0 630.2 149.1" style="enable-background:new 0 0 630.2 149.1;" xml:space="preserve">
<style type="text/css">
	.st0{fill:#919295;}
	.st1{fill:#2F4C91;}
	.st2{fill:#EBECED;}
	.st3{fill:#CE7931;}
</style>
<g>
	<g>
		<rect x="190.2" y="17.5" class="st0" width="0.7" height="128"/>
	</g>
	<polygon class="st1" points="325.2,62.9 304.9,21.7 291.1,21.7 291.1,79.8 305.6,79.8 305.6,55.2 317.4,79.8 333.1,79.8 
		344.9,55.2 344.9,79.8 359.4,79.8 359.4,21.7 345.6,21.7 	"/>
	<path class="st1" d="M410.9,21.7h-32.3c-4,0-7.1,1.2-9.3,3.7c-2.2,2.4-3.3,5.4-3.3,9v32.7c0,3.6,1.2,6.6,3.5,9
		c2.4,2.4,5.4,3.7,9.1,3.7h42.2V65.3h-40.3V58h30.5c3.8,0,6.9-1.3,9.3-3.9c2.2-2.4,3.3-5.4,3.3-8.8V34.4c0-3.6-1.2-6.6-3.5-9
		C417.6,23,414.5,21.7,410.9,21.7 M409,43.5h-28.6v-7.2H409V43.5z"/>
	<path class="st1" d="M471.3,43.5h-26.8v-7.2h35.7V21.7h-37.5c-3.7,0-6.7,1.3-9.1,3.9c-2.4,2.5-3.6,5.5-3.6,8.8v10.9
		c0,1.2,0.1,2.4,0.4,3.4c0.6,2.8,2.1,5.1,4.3,6.8c2.2,1.7,4.9,2.5,8,2.5h26.8v7.2h-38.5v14.5h40.4c3.9,0,7-1.3,9.3-3.8
		c2.2-2.3,3.3-5.3,3.3-8.9V56.2c0-3.5-1.2-6.5-3.6-9C477.9,44.7,474.9,43.5,471.3,43.5"/>
	<path class="st1" d="M543.3,25.4c-2.4-2.4-5.4-3.7-9.1-3.7h-44.9v14.5h43.1v7.2h-30.5c-3.8,0-6.9,1.3-9.2,3.7
		c-2.3,2.4-3.4,5.5-3.4,8.9v10.9c0,3.6,1.2,6.6,3.6,9c2.4,2.4,5.4,3.7,9,3.7h44.9V34.4C546.8,30.8,545.6,27.8,543.3,25.4
		 M532.3,65.3h-28.6V58h28.6V65.3z"/>
	<path class="st1" d="M339.3,85.6h-49.2v58.1h49.2c9,0,13.8-4.4,13.8-12.7V98.3c0-3.4-1.3-6.5-4-8.9
		C346.5,86.9,343.2,85.6,339.3,85.6 M337.3,129.2H306v-29h31.4V129.2z"/>
	<rect x="359.5" y="85.6" class="st1" width="15.8" height="58.1"/>
	<path class="st1" d="M427.7,85.6h-46.2v58.1h15.8v-43.5h28.3v43.5h15.8V98.3c0-1.4-0.1-2.6-0.4-3.9
		C440.1,90.4,436.9,85.6,427.7,85.6"/>
	<polygon class="st1" points="447.5,143.7 498.8,143.7 498.8,129.2 463.4,129.2 463.4,122 498.8,122 498.8,107.4 463.4,107.4 
		463.4,100.2 498.8,100.2 498.8,85.6 447.5,85.6 	"/>
	<path class="st1" d="M549.5,85.6h-44.1v58.1h15.8v-43.5h26.3v10.9h15.9V98.3c0-1.4-0.2-2.7-0.5-3.9
		C561.9,90.4,558.7,85.6,549.5,85.6"/>
	<path class="st1" d="M626.2,89.4c-2.7-2.5-6-3.8-9.8-3.8h-35.4c-4,0-7.3,1.3-9.9,3.9c-2.6,2.5-3.9,5.5-3.9,8.8V131
		c0,1.4,0.2,2.8,0.5,4c1.1,3.9,4.2,8.6,13.3,8.6h35.4c9,0,13.8-4.4,13.8-12.7V98.3C630.2,94.9,628.8,91.9,626.2,89.4 M614.3,129.2
		H583v-29h31.4V129.2z"/>
	<path class="st0" d="M579.3,44.1h-20.6c-2,0-3.8,0.7-5.2,2.1c-1.4,1.4-2.1,3-2.1,4.9v21.5c0,0.7,0.1,1.3,0.2,1.8
		c0.4,1.7,1.2,3,2.5,3.9c1.3,0.9,2.8,1.4,4.6,1.4h28.4V33.3h-7.8V44.1z M559.2,51.9h20.2v21.7h-20.2V51.9z"/>
	<path class="st0" d="M622.3,65.9c2.2,0.1,4-0.7,5.4-2.1c1.2-1.4,1.3-5.1,1.3-5.1v-7.3c0-2.1-0.7-3.8-2-5.2
		c-1.3-1.4-3.1-2.1-5.2-2.1h-21.3c-2.3,0-4.1,0.7-5.3,2c-1.2,1.4-1.9,3.1-1.9,5.2v20.7c0,2.2,0.7,4,2,5.5c1.3,1.5,3.1,2.2,5.2,2.2
		h26.9v-7.8H601v-6.2H622.3z M601,51.9h21.7v7.8H601V51.9z"/>
	<polygon class="st0" points="245.9,56.5 219.6,56.5 219.6,22.4 225.8,22.4 225.8,50.3 245.9,50.3 	"/>
	<path class="st0" d="M283.1,56.5h-27.3c-2,0-3.6-0.6-4.9-1.9c-1.3-1.3-1.9-2.9-1.9-4.9V43c0,0,1.2-3.6,2.4-4.9c1.2-1.3,2.9-2,5-1.7
		h20.5v-7.8H249v-6.2h27.3c2,0,3.6,0.6,4.9,1.9c1.3,1.3,1.9,2.9,1.9,4.9V56.5z M276.9,42.6h-20.2v7.8h20.2V42.6z"/>
	<path class="st2" d="M17.8,149.1c0.2,0,0.4,0,0.6,0C18.2,149.1,18,149.1,17.8,149.1"/>
	<path class="st1" d="M55.6,64c2.7-2.5,5.4-4.9,8.1-7.4c0.6-0.6,1.1-1,0.8-2.1c-1.2-3.6-0.5-7.1,2.3-9.7c2.7-2.6,6.2-3.3,9.8-2.3
		c4.4,1.2,7.7,4,8.8,8.5c1.7,6.6-3.7,12.1-10.7,11.3c-1.2-0.1-2.3-0.4-3.3-0.9c-1.2-0.6-2.1-0.5-3.2,0.4
		c-5.9,4.8-11.4,9.9-16.7,15.3c-1.1,1.1-2.1,2.2-3.3,3.2c-1.5,1.3-3,1.4-4.5,0.2c-1.2-0.9-1.5-2.8-0.7-4.4c1.2-2.1,3.2-3.6,4.9-5.3
		c2.4-2.5,5.1-4.7,7.6-7C55.6,63.9,55.6,63.9,55.6,64 M71.8,54.2c1.7,1.9,4.5,2.2,6.1,0.7c1.4-1.3,1.4-3.6-0.1-5.2
		c-1.6-1.7-4.4-2-6.1-0.6C70.3,50.4,70.3,52.6,71.8,54.2"/>
	<path class="st3" d="M43.9,138.3c-3.9,1.8-7.6,0.4-10.6-1.8c-2.7-2-5-4.6-5.8-8.2c-1.3-5.9,3-10.1,8.7-8.3c2.4,0.8,3.4,0.1,4.7-1.7
		c4.8-6.5,10.1-12.6,15.7-18.3c1.7-1.7,3.7-1.8,5.2-0.3c1.5,1.6,1.3,3.6-0.3,5.4c-3.9,4.2-7.8,8.5-11.4,13c-1.6,2-3.1,3.9-4.7,5.8
		c-0.8,1-0.8,1.8-0.1,2.9c1.8,3,2.5,6.1,0.9,9.4C45.4,136.9,44.7,137.6,43.9,138.3 M39.4,127.7c-0.5-0.4-1-0.8-1.5-1.1
		c-1.2-0.8-2.6-1-3.7-0.1c-1.3,1-1.1,2.4-0.5,3.7c0.7,1.4,1.7,2.5,3.4,2.9c1.3,0.3,2.4,0.3,3.3-0.9c0.8-1.1,0.6-2.1-0.1-3.2
		C39.9,128.6,39.7,128.1,39.4,127.7"/>
	<path class="st1" d="M86.8,42.5c-1.6-2-2.9-4-2.8-6.6c0.2-4.4,3.4-7.1,8.3-7c2,0,4,0.4,5.7,1.3c1.1,0.6,1.8,0.5,2.9,0
		c4.4-2.4,8.8-4.9,13.6-6.6c2.2-0.8,5,0.4,5.9,2.5c0.5,1.1,0.1,1.9-0.9,2.3c-4.4,1.7-8.5,3.9-12.7,6c-1.6,0.8-2.3,1.4-1.5,3.4
		c1.8,4.5-1.9,9.2-7,9.5C93.5,47.5,89.9,45.5,86.8,42.5 M97.5,35.9c-0.3-0.3-0.7-0.7-1.2-1c-1.8-1.2-4.2-0.8-5.3,0.8
		c-0.8,1.2-0.2,3.2,1.5,4.4c0.5,0.4,1.1,0.7,1.7,0.9c1.6,0.5,3.2,0.5,4.3-1.1C99.5,38.4,98.6,37.1,97.5,35.9"/>
	<path class="st1" d="M96.9,132.6c-0.4-0.5-0.9-1-1.3-1.5c-0.2-0.2-0.4-0.5-0.6-1c-0.1-0.2-0.2-0.5-0.4-0.7
		c-0.1-0.2-0.2-0.4-0.2-0.8c-1.1-2.5-0.5-4.9,1.2-6.6c1.9-2,4.6-2.6,7.3-1.8c0.9,0.3,1.5,0.3,2.6,1c0.5,0.3,0.9,0.1,1.3-0.3
		c1-1,2-1.9,3.1-2.9c2.4-2.1,3.9-3.2,5.8-4.9c0.4-0.4,1-0.9,1.5-1.3c1.2-1,1.9-1.8,3.3-1.2c1.4,0.6,2,1.8,2.2,3.3c0,0.3,0.1,1-1,1.9
		c-1.4,1.3-2.1,1.8-3.5,3.1c-2.9,2.4-4.6,4.2-7.1,6.4c-0.6,0.5-0.6,0.9-0.2,1.6c1.3,2.3,1.3,4.7-0.1,6.9c-1.2,2-3.4,2.1-5.4,2
		c-2-0.1-3.6-0.5-5.5-1.5l-0.5-0.2C98.3,133.8,98.1,133.5,96.9,132.6 M105.4,126.8c-1.4-1.5-3.8-2-4.9-1c-1,0.9-0.8,2.7,0.3,4
		c1.4,1.6,3.7,2,4.9,1C106.8,129.9,106.7,128.2,105.4,126.8"/>
	<path class="st1" d="M159.4,75.8c-0.1-0.2-0.2-0.4-0.3-0.6c-0.2-0.4-0.3-0.8-0.4-1.1c-1.5-3.8-1.5-3.8-5.8-2.9
		c-1.2,0.3-2.3,0.6-3.5,0.9c-1.7,0.4-2.7-0.2-3.3-2.2c-0.8-2.5-0.5-3.6,1.2-4.3c2.2-0.9,4.5-1.4,6.8-1.6c1.3-0.1,1.6-0.6,1.5-1.9
		c-0.1-1.9-0.5-4.7,1.4-5.3c0.3,0,0.5,0.2,0.8,0.3c0.4,0.3,0.9,0.7,1.4,1.4c0.3,0.5,0.5,0.8,0.7,1.4c2.6,5.1,3.7,10.5,3.3,16.3
		c-0.2,1.5-0.7,2-1.4,2c-0.6-0.2-1.2-0.5-1.7-1C159.8,76.6,159.6,76.2,159.4,75.8 M160.3,71c-0.1-0.1,0.1,0.2,0.6,0.1
		c0.5-0.1,0.4-0.5,0.5-0.9C161.5,68,161,66,160,64c-0.2-0.4-0.6-0.8-1.1-0.6c-0.4,0.1-0.4,0.6-0.4,1C158.5,66.6,158.8,68.7,160.3,71
		"/>
	<path class="st3" d="M81.7,85c-2.7,2.5-5.4,5-8.1,7.5c-0.5,0.5-1.2,0.8-1.3,1.6c-1.6,1.1-2.9,2.6-4.3,4c-0.5-0.2-0.8,0.1-1.2,0.3
		c-2,0.1-3.3-1.1-4-2.8c-0.6-1.6,0.4-2.8,1.4-3.9c3.7-3.8,7.6-7.2,11.5-10.8c1.3-1.1,2.7-1.5,4.2-0.6C81.8,81.4,82.3,82.9,81.7,85"
		/>
	<path class="st3" d="M110.7,63c-3.5,2.2-7.5,5.2-11.4,8.1c-1.5,1.1-3.9,0.5-4.9-1c-1.1-1.6-0.7-3.8,0.9-4.9c4-2.7,7.8-5.8,12-8.3
		c1.8-1.1,3.5-0.7,4.8,1.1C113.3,59.6,113,61.1,110.7,63"/>
	<path class="st1" d="M141,25.8c-4.7-1.8-9.4-1.3-14-0.1c-2,0.5-4.9-0.8-5.8-2.6c-0.3-0.6-1.1-1.7,0.3-2c4.2-1,8.5-2.3,12.9-0.6
		C137.1,21.5,138.7,24.1,141,25.8"/>
	<path class="st1" d="M142.6,69c2,2.3,1.4,5-1.2,6.3c-1.8,0.9-3.7,1.8-5.5,2.7c-1.6,0.8-2.7,0.1-3.4-1.4c-1-2-0.9-4,0.4-4.7
		c2.3-1.2,4.7-2.3,7-3.5C141,67.9,141.9,68.1,142.6,69"/>
	<path class="st3" d="M85.6,72.7c1-0.7,1.7-1.5,2.7-1.9c1.8-0.8,3.4-0.3,4.6,1.4c0.9,1.4,0.7,3.3-0.7,4.5c-0.9,0.7-1.8,1.4-2.7,2.1
		c-1.8,1.4-3.6,1.2-5-0.5c-1.3-1.5-1.1-3.4,0.5-4.9C85.2,73.1,85.5,72.8,85.6,72.7"/>
	<path class="st1" d="M66.1,134.4c0.4,0.4,0.7,0.8,1.1,1.1c-0.2,0.5,0.1,1,0.4,1.4c-0.6,1.9-1.7,3.5-3.4,4.6
		c-1.3,0.8-3.7-0.1-4.9-1.9c-1-1.4-0.2-2.4,0.8-3.5c1.3-1.4,2.4-3.2,4.7-2.3C65.1,134.2,65.6,134.4,66.1,134.4"/>
	<path class="st3" d="M104.3,11.1c-2.4,0.9-4.7,1.1-6.9-0.5c-0.5-0.4-1-0.7-0.9-1.3c0.1-0.7,0.7-0.6,1.2-0.8c2.1-1,4.2-0.7,6.2,0.3
		c0.4,0.5,0.9,1,1.3,1.4l0,0C104.9,10.6,104.6,10.9,104.3,11.1"/>
	<path class="st1" d="M6.3,136.3c0,0-1.9-2.5-1.4-4.7c0.5-2.2,2.3-0.4,2.6,0c0.4,0.4,2.2,2.9,1.8,4.5C8.9,137.8,8.8,139.7,6.3,136.3
		"/>
	<path class="st1" d="M8.4,129.3c0,0-2.3-2.5-1.2-5.3c1.1-2.8,2.3-5.2,2.8-5.9c0.5-0.7,2.1-2,3.8-0.4c1.8,1.6,1.5,3.8,1,5
		c-0.5,1.2-2.6,5.7-3.1,6.8C11.3,130.5,10.1,131.2,8.4,129.3"/>
	<path class="st1" d="M26.7,83.1c-4.8,4.3-3.4,10.6-3,12.2c0.4,1.6-0.2,2.5-0.2,2.5s-6.1,8.5-8.3,11.3c-2.1,2.8-1,5-0.6,5.6
		c0.4,0.6,2.7,3.9,5,0.1c3-5,7.9-11.1,7.9-11.1l0.2-0.3c0.5-0.9,1.6-1.1,2.9-0.6c3.6,1.6,7.6,0.1,9.6-2.5c4.7-6.3,1.3-12.9-1.1-16
		C36.9,81.2,31.5,78.8,26.7,83.1 M35.2,95.5c-1.4,1.3-3.8,1.1-5.1-0.5c-1.5-1.8-1.5-5.1,0.1-6.5c1.3-1.3,3.5-0.9,5,0.8
		C36.8,91.2,36.8,94,35.2,95.5"/>
	<path class="st3" d="M43,53.2c0,0,1.8,6-3,10.7c-4.8,4.7-10.5,2.8-12.7,0.1c-2.2-2.7-3.6-8.8,1.4-14.2c3.3-3.1,7.1-2.7,8.7-2.1
		c0.9,0.3,1.7,0.3,3.2-1C42,45.5,53.1,36,54.5,35c1.4-1.1,3.7-2.3,5.4-0.7c1.7,1.6-0.2,3.4-0.9,4.2c-0.7,0.8-12.2,9.8-14.1,11.5
		C43.1,51.8,43,51.8,43,53.2 M37,54.4c-1.6-2-4.1-1.3-4.9-0.6c-0.7,0.7-2.7,2.5-1.1,5.1c1.8,3,5.1,0.7,5.1,0.7
		C36.8,59.1,38.5,56.5,37,54.4"/>
	<path class="st1" d="M3.8,66.8c0,0-2.6,4.5-3.5,1.8c-0.9-2.7,1.2-5.3,2.1-6.3c0.9-1,1.7-1.6,2.2,0C5.1,63.9,4.4,65.8,3.8,66.8"/>
	<path class="st1" d="M17,51.1c0,0-6.1,6.6-7.9,8.9c-1.9,2.3-4.1,2-2.8-2.4c0.5-1.4,1.6-2.9,9.4-10.8c1.8-1.2,2.6-0.7,2.9,0.2
		C18.9,47.9,18.9,48.8,17,51.1"/>
	<path class="st1" d="M48.1,23.4c-1.4,1.3-4,1.5-5,0.4c-0.9-1-0.4-1.8,0.4-2.6c1.5-1.3,4-1.5,5-0.4C49.3,21.6,49.1,22.5,48.1,23.4
		 M43.1,28.6c1.5,0.5,4.8,0.2,8.4-2c3.6-2.1,3.4-5,3-6.3c-0.4-1.3-0.1-1.8,0.8-2.6c0.9-0.8,5-2.9,6.8-4.3c1.9-1.4,1.7-1.5,0.5-2.6
		c-1.9-1.8-5.9,1.3-9.3,3.7c-3.3,2.3-4.2,2-5.5,2.3c-1.7,0.3-5.2,0.1-7.6,2.2c-2.4,2.1-2.6,3.6-2.6,4.9c0,1.3,0.2,1.8-1.3,3.2
		C31,31.5,22.8,39.5,21.7,40.4c-1.1,0.9-1.6,1.9-1.1,3.3c0.6,1.4,1.8,1.8,3.3,0.2c1.5-1.6,16-14.5,16.1-14.6
		C40.7,28.6,42,28.1,43.1,28.6"/>
	<path class="st3" d="M93.7,15.6c0,0-11.2,5.6-24.8,15.2c-3.2,2.1-5.5,2.2-6.3,0.9c-0.8-1.3-1.9-1.9,2.3-5
		c4.3-3.1,16.6-11.3,25.2-15.1c1.8-0.7,4.4-1.1,5.6,0.2C96.9,13.1,97.8,14.1,93.7,15.6"/>
	<path class="st1" d="M69.3,8.7c0,0,4.7-2,6.2-2.6c1.6-0.6,3.8-2.6-0.9-2.8c-2.7-0.1-6.5,2.1-7.9,2.9c-1.4,0.8-2.8,1.4-1.3,2.3
		C66.9,9.6,68.5,9.1,69.3,8.7"/>
	<path class="st1" d="M81.8,3c0,0,6-1.5,7.2-1.6c1.3-0.2,3-0.9-0.4-1.2c-3.4-0.4-8.2,0.4-9.6,0.9c-1.4,0.5-3,1.2-1,1.6
		C80.1,3,81.8,3,81.8,3"/>
	<path class="st3" d="M105.6,6.3c0,0-2.4-0.2-1.1,1.4c1.4,1.6,2.8,1.9,4.9,1.8c2.1-0.1,5.1-0.2,6.2-0.3c1.1-0.1,2.1-0.4-1.4-1.7
		S108.1,5.7,105.6,6.3"/>
	<path class="st1" d="M112.8,94.1c-0.3,0.4-0.9,0.6-1.7,0.5c-1.6-0.2-2.7-1-3.4-2.4c-0.8-1.4-0.9-2.8-0.1-4.2
		c0.5-0.8,1.3-1.2,2.3-1.2c2.1,0,3.1,1.4,3.8,3C114.2,91.2,114.3,92.7,112.8,94.1 M100.9,93.9c-0.3,0.3-13.9,12.8-15.1,13.9
		c-1.2,1.1-4.9,4-2.9,6.5c2,2.5,3.6,1.9,6.4-0.7c2.8-2.6,14.8-13.5,15.7-14.3c0.9-0.8,1.3-0.7,2.4-0.1c1.1,0.7,5.7,2.9,9.1-0.2
		c3.4-3,2.7-7.4,2.5-8.7c-0.2-1.3-0.1-1.8,0.7-2.3c0.9-0.5,6.2-4.1,7.3-4.9c1.1-0.8,3.1-2,1.9-4.6c-1.3-2.6-2.7-2.8-5-1.3
		c-2.3,1.5-6,4.3-7.1,4.9c-1,0.6-2,0.3-3.2-0.4c-1.2-0.7-5.2-3.6-9.5,0.2c-4.3,3.8-2.5,9.2-2.5,9.2S102.3,92.5,100.9,93.9"/>
	<path class="st1" d="M81.6,121.2c0,0-9,10.2-10.2,11.6c-1.2,1.3-3.1,0.8-4.3,0c-1.1-0.8-2.6-2.2-0.5-4.6c2-2.4,8.4-9.9,9.4-10.8
		c0.9-0.9,3.3-1.6,4.5-0.3C81.8,118.4,82.8,119.6,81.6,121.2"/>
	<path class="st3" d="M151.6,40.2c-0.2,0-0.6-0.1-1-0.1c-0.2,0-0.5,0-0.9,0c-1.5,0-3.2,0-3.2,0s0,0,0,0c-1.6,0-2.9-0.3-3.9-1.8
		c-0.9-1.4-2.3-2.4-3.8-3.1c-1.4-0.6-2.8-1.3-4.3-0.2c-1.5,1-1.5,2.5-1.4,4.1c0,0.4,0.1,0.8,0.2,1.1c0.5,2.7,0.5,2.6-2.1,3.6
		c-5.3,2.1-10.4,4.8-15.3,7.7c-1.7,1-2,2.4-1.1,4.1c1.1,2.1,3.2,2.8,5.3,1.6c5.2-3.1,10.6-5.8,16.2-8c1-0.4,1.6-0.3,2.3,0.5
		c1.2,1.4,2.7,2.6,4.3,3.5c2.3,1.3,4.5,1,5.5-0.9c0.5-1.1,0.4-2.2,0.2-3.3c-0.3-1.7-0.4-2.4,0.2-2.7c0.6,0,1-0.1,1-0.1s0.4,0,1,0
		c0.1,0,0.2,0,0.4,0c0.3,0,0.5,0,0.8,0c0.6-0.1,0.8-0.1,1.9-0.2c0,0,0.1,0,0.1,0c2-0.2,1.6-1.5,0.9-3
		C154,41.2,152.7,40.4,151.6,40.2 M144.1,45.4c0.2,0.8,0.2,1.5-0.5,2c-0.8,0.5-1.4,0-2.1-0.4c-0.4-0.3-0.8-0.6-1.2-0.9
		c-1.2-1.4-1.9-2.4-2-4.1c0-0.6-0.1-1.1,0.5-1.5c0.6-0.4,1.3-0.3,1.8,0.1C142.3,41.8,143.7,43.3,144.1,45.4"/>
	<path class="st1" d="M124.9,106.2c0,0,8.6-7,20.2-12.6c2.3-1.1,2.9,0.6,3.1,2.2c0.2,1.6,0.7,3-1.3,4.1c-2,1.1-10.5,5.1-18.1,10.8
		c-2.4,1.6-3.2,1.9-4.4,0.1C123,109,123.6,107.3,124.9,106.2"/>
	<path class="st1" d="M149.7,94.4c0,0.1,0,4.2,2.4,3.4c2.4-0.8,1.9-3.5,2-4.1c0.1-0.6,0.1-3.5-2.2-3
		C149.6,91.3,149.7,94.4,149.7,94.4"/>
	<path class="st1" d="M157.4,89.4c-0.1,0.1-2.2,0.1-2.3,3.4c-0.2,3.3,1.4,3.2,2.6,3.3c1.2,0.1,4,0.5,4.5-2.5
		c0.2-1.6,0.7-4.1-1.1-4.2C159.2,89.3,157.4,89.4,157.4,89.4"/>
	<path class="st1" d="M163.8,90.8c0,0-1.1,1.8-0.6,4.7c0.5,1.3,1,1.8,1.6,2.5s1.2,2.2,1.4,1.3c0.3-0.8,1.2-4.1,1-5
		c-0.2-0.9-0.7-1.7-1.4-2.4C165.1,91.2,164.2,89.6,163.8,90.8"/>
</g>
</svg>
