<?xml version="1.0" encoding="utf-8"?>
<!-- Generator: Adobe Illustrator 22.1.0, SVG Export Plug-In . SVG Version: 6.00 Build 0)  -->
<svg version="1.1" id="Capa_1" xmlns="http://www.w3.org/2000/svg" xmlns:xlink="http://www.w3.org/1999/xlink" x="0px" y="0px"
	 viewBox="0 0 79.6 55.7" style="enable-background:new 0 0 79.6 55.7;" xml:space="preserve">
<style type="text/css">
	.st0{opacity:0.55;clip-path:url(#SVGID_2_);}
	.st1{fill:#004483;}
	.st2{opacity:5.000000e-02;}
	.st3{clip-path:url(#SVGID_4_);fill:#FFFFFF;}
	.st4{fill:none;stroke:#265D9A;stroke-width:1.5;stroke-miterlimit:10;}
	.st5{fill:#86878A;}
	.st6{opacity:0.85;fill:#FFFFFF;}
	.st7{opacity:0.85;fill:#9C9EA0;}
	.st8{fill:#FFFFFF;}
	.st9{fill:#C37930;}
	.st10{opacity:0.75;}
	.st11{fill:#2B6BA6;}
	.st12{fill:#265D9A;}
	.st13{fill:none;stroke:#265D9A;stroke-width:0.25;stroke-miterlimit:10;}
	.st14{fill:#2ECF6E;}
	.st15{clip-path:url(#SVGID_6_);fill:#FFFFFF;}
	.st16{clip-path:url(#SVGID_6_);}
	.st17{fill:#054B8C;}
	.st18{fill:#B02E33;}
	.st19{fill:#B33439;}
	.st20{fill:#B22E33;}
	.st21{fill:#AF2D32;}
	.st22{fill:#25A9C8;}
	.st23{clip-path:url(#SVGID_8_);fill:#FFFFFF;}
	.st24{clip-path:url(#SVGID_8_);fill:#B33439;}
	.st25{fill:#C2C2C2;}
	.st26{opacity:0.55;}
	.st27{fill:#F0F0F0;}
	.st28{clip-path:url(#SVGID_10_);fill:#FFFFFF;}
	.st29{opacity:0.5;fill:none;stroke:#BDBDBD;stroke-miterlimit:10;}
	.st30{fill:#D7D7D7;}
	.st31{fill:#2F4C86;}
	.st32{fill:#E0E1E2;}
	.st33{fill:#A3D423;}
	.st34{fill:#27608C;}
	.st35{fill:#749223;}
	.st36{fill:#FF0000;}
	.st37{fill:#CD7535;}
	.st38{opacity:0.8;}
	.st39{opacity:0.3;fill:#FFFFFF;stroke:#FFFFFF;stroke-miterlimit:10;}
	.st40{fill:#9C9EA0;}
	.st41{fill:none;stroke:#CD7535;stroke-width:3;stroke-miterlimit:10;}
	.st42{fill:url(#SVGID_11_);stroke:#265D9A;stroke-miterlimit:10;}
	.st43{fill:url(#SVGID_12_);stroke:#265D9A;stroke-miterlimit:10;}
	.st44{fill:#F2F2F2;}
	.st45{fill:#040707;}
	.st46{fill:#6F7175;}
	.st47{fill:#01CBF6;}
	.st48{fill:#00BFF4;}
	.st49{fill:#707276;}
	.st50{fill:#04E677;}
	.st51{fill:#04D7F6;}
	.st52{fill:#F5C202;}
	.st53{fill:#D73155;}
	.st54{fill:#E8354C;}
	.st55{fill:#F5CD05;}
	.st56{fill:#F23A45;}
	.st57{fill:#4D4D4D;}
	.st58{opacity:0.5;}
	.st59{opacity:0.55;clip-path:url(#SVGID_14_);}
	.st60{fill:none;stroke:#265D9A;stroke-width:3;stroke-miterlimit:10;}
	.st61{fill:none;stroke:#808080;stroke-width:1.5;stroke-miterlimit:10;}
	.st62{fill:#6D6D6D;}
	.st63{fill:none;stroke:#000000;stroke-miterlimit:10;}
	.st64{clip-path:url(#SVGID_20_);fill:#FFFFFF;}
	.st65{clip-path:url(#SVGID_20_);}
	.st66{clip-path:url(#SVGID_22_);fill:#FFFFFF;}
	.st67{clip-path:url(#SVGID_22_);fill:#B33439;}
	.st68{opacity:7.000000e-02;fill:#25A9C8;}
	.st69{opacity:0.55;clip-path:url(#SVGID_24_);}
	.st70{opacity:0.5;fill:none;stroke:#C2C2C2;stroke-miterlimit:10;}
	.st71{opacity:0.55;clip-path:url(#SVGID_26_);}
	.st72{fill:none;stroke:#A9A9A9;stroke-width:0.5;stroke-miterlimit:10;}
	.st73{clip-path:url(#SVGID_28_);fill:#FFFFFF;}
	.st74{clip-path:url(#SVGID_28_);}
	.st75{clip-path:url(#SVGID_30_);fill:#FFFFFF;}
	.st76{clip-path:url(#SVGID_30_);fill:#B33439;}
	.st77{fill:#0186CC;}
	.st78{fill:#015593;}
	.st79{fill:#085A97;}
	.st80{fill:#2496D3;}
	.st81{fill:#10619D;}
	.st82{fill:#4C90C4;}
	.st83{fill:#2673AC;}
	.st84{fill:#1A68A3;}
	.st85{fill:#327CB2;}
	.st86{fill:#3A81B8;}
	.st87{fill:#64A3D3;}
	.st88{fill:#00427A;}
	.st89{fill:#F7FAFB;}
	.st90{fill:#7EC0E4;}
	.st91{fill:#C0E0F1;}
	.st92{fill:#FBFCFC;}
	.st93{fill:#EEEEEE;}
	.st94{fill:none;stroke:#050505;stroke-width:0.5;stroke-miterlimit:10;}
	.st95{fill:#03397D;}
	.st96{fill:#C5CDD4;}
	.st97{fill:#C6CED4;}
	.st98{fill:#073B7E;}
	.st99{fill:#063B7E;}
	.st100{fill:#083C7F;}
	.st101{fill:#0C3E80;}
	.st102{fill:#0A3D7F;}
	.st103{fill:#D1D7DC;}
	.st104{fill:#EDEFF0;}
	.st105{fill:#DFE3E6;}
	.st106{fill:#0E4080;}
	.st107{fill:#FCFBFC;}
	.st108{fill:#878686;}
	.st109{fill:#6285C1;}
	.st110{fill:#E09F1B;}
	.st111{fill:#D07630;}
	.st112{fill:#5F7FBD;}
	.st113{fill:#039DDF;}
	.st114{fill:#3E579F;}
	.st115{fill:#8BC5DF;}
	.st116{fill:#E7BC3E;}
	.st117{fill:#DFEEF6;}
	.st118{fill:#888787;}
	.st119{fill:#4B4D96;}
	.st120{fill:#969595;}
	.st121{fill:#5FB2D1;}
	.st122{fill:#B1D5E7;}
	.st123{fill:#FFFFFF;stroke:#4D4D4D;stroke-width:0.15;stroke-miterlimit:10;}
	.st124{fill:none;stroke:#C2C2C2;stroke-width:0.25;stroke-miterlimit:10;}
	.st125{fill:none;stroke:#999999;stroke-width:0.5;stroke-miterlimit:10;}
	.st126{fill:#CF7535;}
	.st127{fill:#2F4C88;}
	.st128{fill:none;stroke:#CCCCCC;stroke-width:0.5;stroke-miterlimit:10;}
	.st129{fill:none;stroke:#2F4C88;stroke-width:0.5;stroke-miterlimit:10;}
	.st130{fill:#EFEFEF;}
	.st131{fill:none;stroke:#666666;stroke-width:0.5;stroke-miterlimit:10;}
	.st132{fill:#A9A9A9;}
	.st133{fill:#025290;}
	.st134{fill:#055492;}
	.st135{opacity:0.55;clip-path:url(#SVGID_34_);}
	.st136{fill:none;stroke:#FFFFFF;stroke-width:0.5;stroke-miterlimit:10;}
	.st137{fill:none;stroke:#4D4D4D;stroke-miterlimit:10;}
	.st138{fill:none;stroke:#FFFFFF;stroke-width:3;stroke-miterlimit:10;}
	.st139{fill:none;stroke:#FFFFFF;stroke-miterlimit:10;}
</style>
<path class="st12" d="M61.9,29.1c0.2-0.3,0.3-0.7,0.3-1.1l-0.2-1.2c0.6-0.3,1.1-0.6,1.6-1l1,0.7c0.3,0.2,0.7,0.3,1.1,0.3
	c0.4-0.1,0.7-0.3,0.9-0.6l2.4-3.3c0.2-0.3,0.3-0.7,0.3-1.1c-0.1-0.4-0.3-0.7-0.6-0.9l-1-0.7c0.2-0.6,0.4-1.2,0.4-1.9l1.2-0.2
	c0.4-0.1,0.7-0.3,0.9-0.6c0.2-0.3,0.3-0.7,0.3-1.1l-0.6-4.1c-0.1-0.4-0.3-0.7-0.6-0.9c-0.3-0.2-0.7-0.3-1.1-0.3L67,11.5
	c-0.3-0.6-0.6-1.1-1-1.6l0.7-1C66.9,8.5,67,8.2,67,7.8s-0.3-0.7-0.6-0.9l-3.3-2.4c-0.1-0.1-0.2-0.1-0.2-0.1
	c-0.6-0.3-1.3-0.1-1.8,0.5l-0.7,1c-0.6-0.2-1.2-0.4-1.9-0.4l-0.2-1.2c-0.1-0.4-0.3-0.7-0.6-0.9c-0.3-0.2-0.7-0.3-1.1-0.3l-4.1,0.6
	c-0.8,0.1-1.3,0.8-1.2,1.6l0.2,1.2C51,6.7,50.5,7,50,7.4l-1-0.7c-0.3-0.2-0.7-0.3-1.1-0.3C47.6,6.5,47.2,6.7,47,7l-2.4,3.3
	c-0.2,0.3-0.3,0.7-0.3,1.1c0.1,0.4,0.3,0.7,0.6,0.9l1,0.7c-0.2,0.6-0.4,1.2-0.4,1.9l-1.2,0.2c-0.4,0.1-0.7,0.3-0.9,0.6
	c-0.2,0.3-0.3,0.7-0.3,1.1l0.6,4.1c0.1,0.4,0.3,0.7,0.6,0.9c0.3,0.2,0.7,0.3,1.1,0.3l1.2-0.2c0.3,0.6,0.6,1.1,1,1.6l-0.7,1
	c-0.2,0.3-0.3,0.7-0.3,1.1c0.1,0.4,0.3,0.7,0.6,0.9l3.3,2.4c0.3,0.2,0.7,0.3,1.1,0.3c0.4-0.1,0.7-0.3,0.9-0.6l0.7-1
	c0.6,0.2,1.2,0.4,1.9,0.4l0.2,1.2c0.1,0.4,0.3,0.7,0.6,0.9c0.2,0.2,0.5,0.3,0.8,0.3c0.1,0,0.2,0,0.2,0l4.1-0.6
	C61.3,29.6,61.6,29.4,61.9,29.1z M59.1,27.1l-1.3,0.2l-0.1-0.9c-0.1-0.7-0.7-1.2-1.3-1.2c-1.1-0.1-2.1-0.3-3.1-0.7
	c-0.2-0.1-0.4-0.1-0.6-0.1c-0.4,0-0.9,0.2-1.1,0.6L51,25.7l-1-0.8l0.5-0.7c0.4-0.5,0.4-1.3-0.1-1.8c-0.7-0.8-1.3-1.7-1.7-2.7
	c-0.2-0.6-0.9-1-1.5-0.9l-0.9,0.1l-0.2-1.3l0.9-0.1c0.7-0.1,1.2-0.7,1.2-1.3c0.1-1.1,0.3-2.1,0.7-3.1c0.3-0.6,0.1-1.3-0.5-1.7
	l-0.7-0.5l0.8-1l0.7,0.5c0.5,0.4,1.3,0.4,1.8-0.1c0.8-0.7,1.7-1.3,2.7-1.7c0.6-0.2,1-0.9,0.9-1.5l-0.1-0.9l1.3-0.2l0.1,0.9
	C56,7.5,56.5,8,57.2,8c1.1,0.1,2.1,0.3,3.1,0.7C60.9,9,61.6,8.8,62,8.3l0.5-0.7l1,0.8L63.1,9c-0.4,0.5-0.3,1.3,0.1,1.8
	c0.7,0.8,1.3,1.7,1.7,2.7c0.2,0.6,0.9,1,1.5,0.9l0.9-0.1l0.2,1.3l-0.9,0.1c-0.7,0.1-1.2,0.7-1.2,1.3c-0.1,1.1-0.3,2.1-0.7,3.1
	c-0.3,0.6-0.1,1.3,0.5,1.7l0.7,0.5l-0.8,1l-0.7-0.5c-0.5-0.4-1.3-0.4-1.8,0.1c-0.8,0.7-1.7,1.3-2.7,1.7c-0.6,0.2-1,0.9-0.9,1.5
	L59.1,27.1z M62.5,20.8c1.1-1.5,1.6-3.4,1.3-5.3c-0.3-1.9-1.3-3.5-2.8-4.6c-0.4-0.3-0.8-0.5-1.2-0.7C56.7,8.8,53,9.7,51,12.5
	c-1.1,1.5-1.6,3.4-1.3,5.3c0.3,1.9,1.3,3.5,2.8,4.6v0c1.2,0.9,2.7,1.4,4.2,1.4c0.4,0,0.7,0,1.1-0.1C59.8,23.3,61.4,22.3,62.5,20.8z
	 M55,20.5c-0.2-0.1-0.5-0.3-0.7-0.4c-0.9-0.7-1.5-1.7-1.7-2.8c-0.2-1.1,0.1-2.2,0.8-3.2l0,0c0.7-0.9,1.7-1.5,2.8-1.7
	c0.2,0,0.5-0.1,0.7-0.1c0.9,0,1.8,0.3,2.5,0.8c0.9,0.7,1.5,1.7,1.7,2.8c0.2,1.1-0.1,2.2-0.8,3.2c-0.7,0.9-1.7,1.5-2.8,1.7
	C56.6,21,55.7,20.8,55,20.5z M79.5,37.3c-0.1-0.3-0.4-0.5-0.7-0.6L78,36.5c0-0.4-0.1-0.9-0.1-1.3l0.7-0.4c0.3-0.1,0.5-0.4,0.6-0.7
	c0.1-0.3,0.1-0.6-0.1-0.9l-1.5-2.7c-0.1-0.3-0.4-0.5-0.7-0.6c-0.3-0.1-0.6-0.1-0.9,0.1l-0.7,0.4c-0.3-0.3-0.6-0.6-1-0.8l0.2-0.8
	c0.1-0.3,0.1-0.6-0.1-0.9c-0.1-0.2-0.3-0.4-0.5-0.5l-3.1-1c-0.3-0.1-0.6-0.1-0.9,0.1c-0.3,0.1-0.5,0.4-0.6,0.7L69.1,28
	c-0.4,0-0.9,0.1-1.3,0.1l-0.4-0.7c-0.1-0.3-0.4-0.5-0.7-0.6c-0.3-0.1-0.6-0.1-0.9,0.1L63,28.3c-0.6,0.3-0.8,1-0.5,1.6l0.4,0.7
	c-0.3,0.3-0.6,0.6-0.8,1l-0.8-0.2c-0.3-0.1-0.6-0.1-0.9,0.1c-0.3,0.1-0.5,0.4-0.6,0.7l-0.9,3c-0.2,0.6,0.2,1.3,0.8,1.5l0.8,0.2
	c0,0.4,0.1,0.9,0.1,1.3l-0.7,0.4c-0.3,0.1-0.5,0.4-0.6,0.7c-0.1,0.3-0.1,0.6,0.1,0.9l1.5,2.7c0.1,0.3,0.4,0.5,0.7,0.6
	c0.3,0.1,0.6,0.1,0.9-0.1l0.7-0.4c0.3,0.3,0.6,0.6,1,0.8L64,44.6c-0.2,0.6,0.2,1.3,0.8,1.5l3,0.9c0.1,0,0.2,0.1,0.3,0.1
	c0.2,0,0.4,0,0.6-0.1c0.3-0.1,0.5-0.4,0.6-0.7l0.2-0.8c0.4,0,0.9-0.1,1.3-0.1l0.4,0.7c0.1,0.3,0.4,0.5,0.7,0.6
	c0.3,0.1,0.6,0.1,0.9-0.1l2.7-1.5c0.3-0.1,0.5-0.4,0.6-0.7c0.1-0.3,0.1-0.6-0.1-0.9l-0.4-0.7c0.3-0.3,0.6-0.6,0.8-1l0.8,0.2
	c0.3,0.1,0.6,0.1,0.9-0.1c0.3-0.1,0.5-0.4,0.6-0.7l0.9-3C79.7,37.9,79.6,37.6,79.5,37.3z M74.8,39.8c-0.4,0.7-0.9,1.3-1.5,1.8
	c-0.4,0.4-0.5,1-0.3,1.5l0.3,0.5l-0.6,0.3l-0.3-0.5c-0.3-0.5-0.8-0.7-1.4-0.6c-0.8,0.2-1.5,0.3-2.3,0.2c-0.6,0-1.1,0.3-1.2,0.8
	l-0.2,0.5l-0.7-0.2l0.2-0.5c0.2-0.5-0.1-1.1-0.6-1.4c-0.7-0.4-1.3-0.9-1.8-1.5c-0.4-0.4-1-0.6-1.5-0.3l-0.5,0.3l-0.3-0.6l0.5-0.3
	c0.5-0.3,0.7-0.8,0.6-1.4c-0.2-0.8-0.3-1.6-0.2-2.3c0.1-0.6-0.3-1.1-0.8-1.2l-0.5-0.2l0.2-0.7l0.5,0.2c0.5,0.2,1.1-0.1,1.4-0.6
	c0.4-0.7,0.9-1.3,1.5-1.8c0.4-0.4,0.6-1,0.3-1.5l-0.3-0.5l0.6-0.3l0.3,0.5c0.3,0.5,0.8,0.7,1.4,0.6c0.8-0.2,1.6-0.3,2.3-0.2
	c0.6,0,1.1-0.3,1.2-0.8l0.2-0.5l0.7,0.2l-0.2,0.5c-0.2,0.5,0.1,1.1,0.6,1.4c0.7,0.4,1.3,0.9,1.8,1.5c0.1,0.1,0.2,0.2,0.4,0.3
	c0.3,0.2,0.7,0.1,1.1,0l0.5-0.3l0.3,0.6L76,33.5c-0.5,0.3-0.7,0.8-0.6,1.4c0.2,0.8,0.3,1.6,0.2,2.3c-0.1,0.6,0.3,1.1,0.8,1.2
	l0.5,0.2l-0.2,0.7l-0.5-0.2C75.7,39,75.1,39.3,74.8,39.8z M71.6,31.8c-0.2-0.1-0.5-0.2-0.7-0.3c-2.9-0.9-5.9,0.7-6.8,3.6
	c-0.4,1.4-0.3,2.9,0.4,4.2s1.8,2.2,3.2,2.7c0.5,0.2,1.1,0.2,1.6,0.2c0.9,0,1.8-0.2,2.6-0.6c1.3-0.7,2.2-1.8,2.7-3.2
	C75.3,35.7,74,32.9,71.6,31.8z M72.2,37.6L72.2,37.6c-0.2,0.8-0.8,1.4-1.5,1.8c-0.7,0.4-1.6,0.5-2.3,0.2c-0.1,0-0.3-0.1-0.4-0.2
	c-1.4-0.6-2.1-2.2-1.6-3.7c0.2-0.8,0.8-1.4,1.5-1.8c0.5-0.2,0.9-0.4,1.4-0.4c0.3,0,0.6,0,0.9,0.1c0.8,0.2,1.4,0.8,1.8,1.5
	C72.4,36,72.4,36.8,72.2,37.6z M48.3,30.7c-2.9-2.5-7.1-3.7-12.5-3.6c3.4-2.9,5.4-7.2,5.4-11.7C41.2,6.9,34.3,0,25.8,0
	c-8.5,0-15.4,6.9-15.4,15.4c0,4.3,1.8,8.4,4.9,11.3c-4.6-0.2-12.7,1-15.3,10C0,36.9,0,37,0,37.2v16.9c0,0.9,0.7,1.6,1.6,1.6h48.9
	c0.9,0,1.6-0.7,1.6-1.6l0-16.2C52.2,37.7,51.9,33.8,48.3,30.7z M13.6,15.4c0-6.8,5.5-12.3,12.3-12.3s12.3,5.5,12.3,12.3
	c0,6.7-5.5,12.2-12.2,12.3h-0.1C19,27.6,13.6,22.1,13.6,15.4z M29.2,33.2l-0.3-0.6c0.7-0.5,1.1-1.3,1.1-2.2c0-0.1,0-0.1,0-0.2
	c0.3-0.1,0.6-0.2,1-0.3L29.2,33.2z M22.3,30.4C22.3,30.4,22.3,30.4,22.3,30.4c0,1,0.5,1.9,1.3,2.4l-0.2,0.9l-1.8-3.5
	C21.7,30.2,22,30.3,22.3,30.4z M26,33.2h0.4l1.4,2.8l-1.6,3.2L25,37L26,33.2z M27.2,30.7H25c-0.1,0-0.3-0.1-0.3-0.3s0.1-0.3,0.3-0.3
	h2.1c0.1,0,0.3,0.1,0.3,0.3S27.3,30.7,27.2,30.7z M26.1,44.4c0.6,0,1.2-0.3,1.5-0.9l6.7-13.1c5.3-0.4,9.3,0.5,11.9,2.7
	c2.4,2.1,2.7,4.6,2.8,4.8v14.4H3.3v-15c2.6-8.6,11.5-7.8,14.6-7.2l6.8,13.4C24.9,44.1,25.5,44.4,26.1,44.4z"/>
</svg>
