<?xml version="1.0" encoding="utf-8"?>
<!-- Generator: Adobe Illustrator 22.1.0, SVG Export Plug-In . SVG Version: 6.00 Build 0)  -->
<svg version="1.1" id="Capa_1" xmlns="http://www.w3.org/2000/svg" xmlns:xlink="http://www.w3.org/1999/xlink" x="0px" y="0px"
	 viewBox="0 0 85.4 69.6" style="enable-background:new 0 0 85.4 69.6;" xml:space="preserve">
<style type="text/css">
	.st0{fill:#FFFFFF;}
	.st1{fill:#0187CD;}
	.st2{opacity:0.55;clip-path:url(#SVGID_2_);}
	.st3{opacity:0.5;fill:none;stroke:#BEBEBE;stroke-miterlimit:10;}
	.st4{fill:#D8D8D8;}
	.st5{fill:#004485;}
	.st6{opacity:0.55;}
	.st7{fill:#004484;}
	.st8{fill:#87888B;}
	.st9{fill:#2F4C87;}
	.st10{fill:#E1E2E3;}
	.st11{fill:#C47930;}
	.st12{fill:#C3C3C3;}
	.st13{fill:#A4D523;}
	.st14{fill:#27608D;}
	.st15{fill:#749323;}
	.st16{fill:#FF0000;}
	.st17{fill:#CE7535;}
	.st18{fill:#265D9B;}
	.st19{opacity:5.000000e-02;}
	.st20{clip-path:url(#SVGID_4_);fill:#FFFFFF;}
	.st21{fill:#304483;}
	.st22{fill:#9D9FA1;}
	.st23{fill:#F1F1F1;}
	.st24{opacity:0.8;}
	.st25{fill:url(#SVGID_5_);}
	.st26{fill:url(#SVGID_6_);}
	.st27{opacity:0.3;fill:#FFFFFF;stroke:#FFFFFF;stroke-miterlimit:10;}
	.st28{fill:none;stroke:#265D9B;stroke-width:1.5;stroke-miterlimit:10;}
	.st29{opacity:0.85;fill:#FFFFFF;}
	.st30{opacity:0.85;fill:#9D9FA1;}
	.st31{opacity:0.75;}
	.st32{fill:#2B6BA7;}
	.st33{fill:none;stroke:#265D9B;stroke-width:3;stroke-miterlimit:10;}
	.st34{fill:none;stroke:#CE7535;stroke-width:3;stroke-miterlimit:10;}
	.st35{fill:url(#SVGID_7_);stroke:#265D9B;stroke-miterlimit:10;}
	.st36{fill:url(#SVGID_8_);stroke:#265D9B;stroke-miterlimit:10;}
	.st37{fill:#F3F3F3;}
	.st38{fill:#040707;}
	.st39{fill:#6F7175;}
	.st40{fill:#01CCF7;}
	.st41{fill:#00C0F5;}
	.st42{fill:#707276;}
	.st43{fill:#04E777;}
	.st44{fill:#04D8F7;}
	.st45{fill:#F6C302;}
	.st46{fill:#D83155;}
	.st47{fill:#E9354C;}
	.st48{fill:#F6CE05;}
	.st49{fill:#F33A45;}
	.st50{fill:#4D4D4D;}
	.st51{opacity:0.5;}
	.st52{fill:none;stroke:#FFFFFF;stroke-width:3;stroke-miterlimit:10;}
	.st53{fill:none;stroke:#808080;stroke-width:1.5;stroke-miterlimit:10;}
	.st54{opacity:0.5;fill:none;stroke:#C3C3C3;stroke-miterlimit:10;}
	.st55{fill:none;stroke:#265D9B;stroke-width:0.25;stroke-miterlimit:10;}
	.st56{fill:#6D6D6D;}
	.st57{fill:#8CBF37;}
	.st58{fill:#0C6F9E;}
	.st59{fill:#DFB70E;}
	.st60{fill:#FAA93F;}
	.st61{fill:#6B7137;}
	.st62{fill:#AA6A43;}
	.st63{fill:#147DA1;}
	.st64{fill:#428B44;}
	.st65{fill:#E81D24;}
	.st66{fill:#8BC548;}
	.st67{fill:#0CB8B8;}
	.st68{fill:#002B51;}
	.st69{fill:#A5A7AA;}
	.st70{fill:#6F7173;}
	.st71{fill:#707274;}
	.st72{fill:#A6A8AB;}
	.st73{fill:#A6A7AA;}
	.st74{fill:#A6A8AA;}
	.st75{fill:#6E7072;}
	.st76{clip-path:url(#SVGID_12_);fill:#FFFFFF;}
	.st77{clip-path:url(#SVGID_12_);}
	.st78{fill:#054B8D;}
	.st79{fill:#B12E33;}
	.st80{fill:#B43439;}
	.st81{fill:#B32E33;}
	.st82{fill:#B02D32;}
	.st83{fill:#25AAC9;}
	.st84{clip-path:url(#SVGID_14_);fill:#FFFFFF;}
	.st85{clip-path:url(#SVGID_14_);fill:#B43439;}
	.st86{clip-path:url(#SVGID_16_);fill:#FFFFFF;}
	.st87{fill:#004D8D;}
	.st88{fill:none;stroke:#F3F3F3;stroke-miterlimit:10;}
	.st89{clip-path:url(#SVGID_18_);fill:#FFFFFF;}
	.st90{clip-path:url(#SVGID_18_);}
	.st91{clip-path:url(#SVGID_20_);fill:#FFFFFF;}
	.st92{clip-path:url(#SVGID_20_);fill:#B43439;}
	.st93{fill:none;stroke:#FFFFFF;stroke-miterlimit:10;}
	.st94{fill:none;stroke:#CE7535;stroke-miterlimit:10;}
	.st95{fill:none;stroke:#000000;stroke-miterlimit:10;}
	.st96{fill:#015594;}
	.st97{fill:#085A98;}
	.st98{fill:#2497D4;}
	.st99{fill:#10619E;}
	.st100{fill:#4C91C5;}
	.st101{fill:#2673AD;}
	.st102{fill:#1A68A4;}
	.st103{fill:#327CB3;}
	.st104{fill:#3A82B9;}
	.st105{fill:#64A4D4;}
	.st106{fill:#00427A;}
	.st107{fill:#F8FBFC;}
	.st108{fill:#7EC1E5;}
	.st109{fill:#C1E1F2;}
	.st110{fill:#FCFDFD;}
	.st111{fill:#E5BC2D;}
	.st112{fill:#DEB12D;}
	.st113{fill:#3A4981;}
	.st114{fill:#D19C2C;}
	.st115{fill:#6D6750;}
	.st116{fill:#3B5188;}
	.st117{fill:#4C7FB7;}
	.st118{fill:#3B5892;}
	.st119{fill:#426499;}
	.st120{fill:#4874A9;}
	.st121{fill:#4A3C1D;}
	.st122{fill:#5F7682;}
	.st123{fill:#DDA62B;}
	.st124{fill:#383D75;}
	.st125{fill:#DDAB2C;}
	.st126{fill:#BEBEBE;}
</style>
<g id="XMLID_2_">
	<g>
		<path class="st18" d="M56.7,8.2c-0.4,0-0.7-0.1-1.1-0.1c-2.5-1-7-1.8-12.3,2.3l-0.1,0.1l-1.7,1.7c-6.5-4.4-11.7-1.7-13.2-0.7
			l-7.6-7.6L0,24.4l8.9,8.9c0.1,3.5,1.3,7.1,3.7,10.7c1,1.5,2.2,2.9,3.4,4.1c1.6,1.6,3.2,3.2,4.8,4.9c-1.8,2.6-1,4.7,0.8,6.6
			c1.9,2,3.6,2.2,6.2,1.5c0,0,0,0,0.1,0c1.8,2.8,3.5,4.1,5.4,4.2c0.8,0.7,1.5,1.5,2.3,2.2c2.3,2.2,5.7,2.7,8.5,1.1
			c1.2-0.7,1.4-1.2,2-2.2c4.6,3.9,7.7,4,11.3-1.5c0,0,0,0,0.1,0c2.6,0.7,4.3,0.5,6.2-1.5c1.9-2,2.7-4.3,0.5-7c0,0-0.6-0.7-0.5-0.7
			c1.5,0,2.8-0.9,3.4-1.8c1.8-2.3,1.7-4.7-0.2-7.1c0.8-0.8,1.7-1.7,2.5-2.5c1.3-1.3,2.4-2.6,3.4-4.1c2.4-3.6,3.7-7.2,3.7-10.7
			l8.9-8.9L64.9,0L56.7,8.2z M17.3,45.2c-2.4-2.5-4.1-5.3-4.9-8.4c-0.2-0.7-0.3-1.4-0.4-2.1c-0.1-0.6-0.1-1.2-0.1-1.8L4,24.9l17-17
			l5.4,5.4l0.4,0.4l0,0.1l2.6,0.2l0.2-0.4c1-0.7,5.3-3.1,11.1,1.3l7.6,7.6c0.4,0.4,0.6,0.9,0.6,1.4c0,0.5-0.2,1.1-0.6,1.4l-0.5,0.5
			c-0.8,0.8-2.1,0.8-2.9,0l-7.8-7.8l-1.9,1.3l2.1,2.5l0.9,0.9c-0.9,0.9-1.8,1.8-2.7,2.7c-0.2,0.2-0.3,0.5-0.4,0.7
			c0,0-0.1,0.1-0.1,0.1C29.8,31.5,24.6,36.8,19.3,42C18.3,43.1,17.6,44.1,17.3,45.2z M42.5,66.4c-0.6,0.6-1.2,0.9-2.1,0.9
			c-1.2-0.1-2.1-1-2.7-1.6c-0.4-0.4-0.7-0.7-1.1-1.1c0.9-0.5,1.8-1.1,2.8-1.9c0.6,1,0.8,1.5,2,2.2c0.5,0.3,1.1,0.5,1.7,0.7
			C42.9,65.8,42.7,66.2,42.5,66.4z M53.7,65.3c-1.2,1.4-2.5,1.5-4.2-0.1c-0.3-0.2-0.5-0.5-0.8-0.7c0.4-0.2,0.7-0.5,1.1-0.8
			c1-0.9,1.9-1.9,2.9-2.8c0.1,0.1,0.2,0.2,0.3,0.3C54.6,62.7,54.8,64,53.7,65.3z M61.8,61.1c-1.2,1.6-3,1.6-4.6,0
			c-0.8-0.8-1.6-1.6-2.4-2.4c1.3-1.3,2.6-2.6,4-3.9c0.7,0.7,1.5,1.5,2.2,2.2C62.5,58.5,62.7,59.9,61.8,61.1z M65.1,51.5
			c-0.6,1.5-2.4,2.2-3.8,1.4c-0.1-0.1-0.3-0.2-0.4-0.3c1.3-1.3,2.5-2.5,3.8-3.8C65.3,49.6,65.6,50.5,65.1,51.5z M81.4,21l-7.9,7.9
			c0,0.6,0,1.2-0.1,1.8c-0.1,0.7-0.2,1.4-0.4,2.1c-0.8,3.1-2.6,5.9-4.9,8.4c-3.2,3.4-6.6,6.6-9.9,10c-3.5,3.5-6.9,7-10.4,10.4
			c-0.6,0.6-1.5,1.5-2.7,1.6c-0.9,0.1-1.5-0.3-2.1-0.9c-0.5-0.5-0.7-1.8-0.5-2.6c0.2-0.9,1-1.7,1.7-2.4c1.6-1.6,3.2-3.2,4.8-4.8
			c0.8-0.8,1.6-1.6,2.3-2.4c0.8-0.8,3.2-2.6,1.9-3.9c-1.2-1.2-3,1.1-3.7,1.8c-0.8,0.8-1.6,1.6-2.4,2.3c-3.7,3.6-7.3,7.2-11.1,10.7
			c-1.7,1.6-3,1.5-4.2,0.1c-1.1-1.3-0.9-2.6,0.7-4.2c4.2-4.2,8.3-8.3,12.5-12.5c0.6-0.6,1.1-1,1.2-1.9c0.1-0.7-0.2-1.2-0.8-1.3
			c-1.1-0.2-1.6,0.3-2.4,1c-4.9,4.9-9.8,9.8-14.7,14.7c-1.6,1.6-3.4,1.6-4.6,0c-0.9-1.2-0.6-2.6,0.8-4c5-5,10-10,15-15
			c0.8-0.8,1.5-1.7,0.5-2.7c-1-0.9-1.8-0.1-2.5,0.6c-3.8,3.9-7.7,7.7-11.5,11.5c-0.5,0.5-1.1,1-1.7,1.4c-1.4,0.8-3.2,0.1-3.8-1.4
			c-0.6-1.5,0.2-2.5,1.2-3.5c6.4-6.4,12.8-12.7,19.1-19.1l2.6,2.6c0.9,0.9,2.1,1.3,3.2,1.3c1.2,0,2.3-0.4,3.2-1.3l0.5-0.5
			c0.9-0.9,1.3-2,1.3-3.2c0-1.1-0.4-2.2-1.2-3.1l-5.8-5.9l0,0l-1.1-1.1l1.5-1.6c2.4-1.8,4.5-2.5,6.3-2.6c3.2-0.3,6.1,1.4,6.1,1.4
			l1.7-1.7L64.4,4L81.4,21z"/>
	</g>
</g>
</svg>
