<?xml version="1.0" encoding="utf-8"?>
<!-- Generator: Adobe Illustrator 22.1.0, SVG Export Plug-In . SVG Version: 6.00 Build 0)  -->
<svg version="1.1" id="Capa_1" xmlns="http://www.w3.org/2000/svg" xmlns:xlink="http://www.w3.org/1999/xlink" x="0px" y="0px"
	 viewBox="0 0 1377.8 678.7" style="enable-background:new 0 0 1377.8 678.7;" xml:space="preserve">
<style type="text/css">
	.st0{fill:#F1F1F1;}
	.st1{fill:#FFFFFF;}
	.st2{fill:#0187CD;}
	.st3{opacity:0.55;clip-path:url(#SVGID_2_);}
	.st4{opacity:0.55;clip-path:url(#SVGID_4_);}
	.st5{opacity:0.5;fill:none;stroke:#BEBEBE;stroke-miterlimit:10;}
	.st6{fill:#D8D8D8;}
	.st7{fill:#BEBEBE;}
	.st8{fill:#004485;}
	.st9{opacity:0.55;}
	.st10{fill:#004484;}
	.st11{fill:#87888B;}
	.st12{fill:#2F4C87;}
	.st13{fill:#E1E2E3;}
	.st14{fill:#C47930;}
	.st15{fill:#C3C3C3;}
	.st16{fill:#A4D523;}
	.st17{fill:#27608D;}
	.st18{fill:#749323;}
	.st19{fill:#FF0000;}
	.st20{fill:#CE7535;}
	.st21{fill:#265D9B;}
	.st22{opacity:5.000000e-02;}
	.st23{clip-path:url(#SVGID_6_);fill:#FFFFFF;}
	.st24{fill:#304483;}
	.st25{fill:#9D9FA1;}
	.st26{opacity:0.8;}
	.st27{fill:url(#SVGID_7_);}
	.st28{fill:url(#SVGID_8_);}
	.st29{opacity:0.3;fill:#FFFFFF;stroke:#FFFFFF;stroke-miterlimit:10;}
	.st30{opacity:5.000000e-02;fill:#004484;}
	.st31{opacity:0.15;fill:#004484;}
	.st32{opacity:0.3;fill:#004484;}
	.st33{opacity:0.4;fill:#004484;}
	.st34{opacity:0.5;fill:#004484;}
	.st35{opacity:0.6;fill:#004484;}
	.st36{opacity:0.7;fill:#004484;}
	.st37{opacity:0.8;fill:#004484;}
	.st38{opacity:0.9;fill:#004484;}
	.st39{fill:url(#SVGID_9_);}
	.st40{fill:none;stroke:#265D9B;stroke-width:1.5;stroke-miterlimit:10;}
	.st41{opacity:0.85;fill:#FFFFFF;}
	.st42{opacity:0.85;fill:#9D9FA1;}
	.st43{opacity:0.75;}
	.st44{fill:#2B6BA7;}
	.st45{fill:none;stroke:#265D9B;stroke-width:3;stroke-miterlimit:10;}
	.st46{fill:none;stroke:#CE7535;stroke-width:3;stroke-miterlimit:10;}
	.st47{fill:url(#SVGID_10_);stroke:#265D9B;stroke-miterlimit:10;}
	.st48{fill:url(#SVGID_11_);stroke:#265D9B;stroke-miterlimit:10;}
	.st49{fill:#F3F3F3;}
	.st50{fill:#040707;}
	.st51{fill:#6F7175;}
	.st52{fill:#01CCF7;}
	.st53{fill:#00C0F5;}
	.st54{fill:#707276;}
	.st55{fill:#04E777;}
	.st56{fill:#04D8F7;}
	.st57{fill:#F6C302;}
	.st58{fill:#D83155;}
	.st59{fill:#E9354C;}
	.st60{fill:#F6CE05;}
	.st61{fill:#F33A45;}
	.st62{fill:#4D4D4D;}
	.st63{opacity:0.5;}
	.st64{fill:none;stroke:#FFFFFF;stroke-width:3;stroke-miterlimit:10;}
	.st65{fill:none;stroke:#808080;stroke-width:1.5;stroke-miterlimit:10;}
	.st66{fill:#0039A6;}
	.st67{opacity:0.5;fill:none;stroke:#C3C3C3;stroke-miterlimit:10;}
	.st68{fill:url(#SVGID_12_);stroke:#265D9B;stroke-miterlimit:10;}
	.st69{fill:url(#SVGID_13_);stroke:#265D9B;stroke-miterlimit:10;}
	.st70{fill:url(#SVGID_14_);stroke:#265D9B;stroke-miterlimit:10;}
	.st71{fill:url(#SVGID_15_);stroke:#265D9B;stroke-miterlimit:10;}
	.st72{fill:none;stroke:#265D9B;stroke-width:0.25;stroke-miterlimit:10;}
	.st73{fill:#6D6D6D;}
	.st74{fill:#8CBF37;}
	.st75{fill:#0C6F9E;}
	.st76{fill:#DFB70E;}
	.st77{fill:#FAA93F;}
	.st78{fill:#6B7137;}
	.st79{fill:#AA6A43;}
	.st80{fill:#147DA1;}
	.st81{fill:#428B44;}
	.st82{fill:#E81D24;}
	.st83{fill:#8BC548;}
	.st84{fill:#0CB8B8;}
	.st85{fill:#002B51;}
	.st86{fill:#A5A7AA;}
	.st87{fill:#6F7173;}
	.st88{fill:#707274;}
	.st89{fill:#A6A8AB;}
	.st90{fill:#A6A7AA;}
	.st91{fill:#A6A8AA;}
	.st92{fill:#6E7072;}
	.st93{clip-path:url(#SVGID_19_);fill:#FFFFFF;}
	.st94{clip-path:url(#SVGID_19_);}
	.st95{fill:#054B8D;}
	.st96{fill:#B12E33;}
	.st97{fill:#B43439;}
	.st98{fill:#B32E33;}
	.st99{fill:#B02D32;}
	.st100{fill:#25AAC9;}
	.st101{clip-path:url(#SVGID_21_);fill:#FFFFFF;}
	.st102{clip-path:url(#SVGID_21_);fill:#B43439;}
	.st103{clip-path:url(#SVGID_23_);fill:#FFFFFF;}
	.st104{fill:none;stroke:#F3F3F3;stroke-miterlimit:10;}
	.st105{clip-path:url(#SVGID_25_);fill:#FFFFFF;}
	.st106{clip-path:url(#SVGID_25_);}
	.st107{clip-path:url(#SVGID_27_);fill:#FFFFFF;}
	.st108{clip-path:url(#SVGID_27_);fill:#B43439;}
	.st109{fill:none;stroke:#FFFFFF;stroke-miterlimit:10;}
	.st110{fill:none;stroke:#CE7535;stroke-miterlimit:10;}
	.st111{fill:none;stroke:#000000;stroke-miterlimit:10;}
	.st112{fill:#015594;}
	.st113{fill:#085A98;}
	.st114{fill:#2497D4;}
	.st115{fill:#10619E;}
	.st116{fill:#4C91C5;}
	.st117{fill:#2673AD;}
	.st118{fill:#1A68A4;}
	.st119{fill:#327CB3;}
	.st120{fill:#3A82B9;}
	.st121{fill:#64A4D4;}
	.st122{fill:#00427A;}
	.st123{fill:#F8FBFC;}
	.st124{fill:#7EC1E5;}
	.st125{fill:#C1E1F2;}
	.st126{fill:#FCFDFD;}
	.st127{fill:#E5BC2D;}
	.st128{fill:#DEB12D;}
	.st129{fill:#3A4981;}
	.st130{fill:#D19C2C;}
	.st131{fill:#6D6750;}
	.st132{fill:#3B5188;}
	.st133{fill:#4C7FB7;}
	.st134{fill:#3B5892;}
	.st135{fill:#426499;}
	.st136{fill:#4874A9;}
	.st137{fill:#4A3C1D;}
	.st138{fill:#5F7682;}
	.st139{fill:#DDA62B;}
	.st140{fill:#383D75;}
	.st141{fill:#DDAB2C;}
	.st142{clip-path:url(#SVGID_31_);fill:#FFFFFF;}
	.st143{clip-path:url(#SVGID_31_);}
	.st144{fill:none;stroke:#CE7535;stroke-width:2;stroke-miterlimit:10;}
	.st145{fill:none;}
	.st146{opacity:5.000000e-02;fill:#FFFFFF;}
</style>
<path class="st145" d="M791.6,158.3c-4.6,4.2-16.9,16.1-7.2,32.3c11.2,18.8,32.5,4.5,32.5,4.5c4.5-3.5,15.4-19.9,5.5-32.8
	C812.6,149.5,796.2,154.1,791.6,158.3z"/>
<path class="st145" d="M837.9,626.3c-3.2-2.4-6.3-5.1-9.7-7.2c-7.8-4.9-16.2-6.2-23.7-0.4c-8,6.2-7,15.4-3,23.2
	c4.4,8.7,11,15.9,21.3,18.6c8.1,2.1,15.4,1.8,20.7-5.5c4.9-6.7,3.6-13.5-0.5-20.2C841.3,631.9,839.6,629.2,837.9,626.3z"/>
<path class="st145" d="M1284.4,367.4c-6.3,0-11.4,2.1-14.3,7.4c-4.9,8.8-4.2,17.5,0.6,26.5c4.8,8.9,11.7,14,21.6,15.4
	c4.7,0.6,8.8-0.8,10.6-3.1c9.2-9,8.9-18.5,5.3-27.2C1304,376.2,1297.5,367.4,1284.4,367.4z"/>
<path class="st145" d="M1198.4,38.2c-11.2-7.5-26.5-5-33.5,5.3c-5.3,7.7-1.2,20.5,9.3,28.1c3.2,2.3,6.9,4.3,10.7,5.5
	c10.3,3.3,20.4,2.9,27-6.9c6.4-9.5,1-17.5-6-25.5C1204,42.9,1201.4,40.2,1198.4,38.2z"/>
<path class="st145" d="M1081.7,165.3c8.8-8.1,8.6-23-0.5-32.9c-10.2-11.1-28.1-12.9-38.4-4c-9.4,8.2-9.4,21.9,0,32.4
	C1053.7,173,1071.2,175,1081.7,165.3z"/>
<path class="st145" d="M811.3,422.6c10.4-9.7,10.4-27.6,0-39.5c-9.5-10.8-23.3-13-31.8-5c-9.8,9.2-10,30.1-0.5,41.2
	C787.5,429.4,802.4,430.9,811.3,422.6z"/>
<path class="st145" d="M1224.8,614.4c-6,5.5-5.1,17.2,1.9,25.2c8.7,9.9,23.4,13,31.2,6.5c7.2-6,6.5-16.2-2-25.5
	C1247.2,610.7,1232,607.7,1224.8,614.4z"/>
<path class="st146" d="M991.9,176c-17.1,15.6-34.1,31.2-51.2,46.7c-0.2-0.2-0.4-0.5-0.7-0.7c-16.2,14.8-32.9,29-48.3,44.5
	c-10.8,10.9-23.4,20.3-31.2,33.8c-5.5,9.6-3.2,21.7,4.2,27.6c9.3,7.3,19.3,7.1,28.5-1.4c7.2-6.6,14-13.5,20.8-20.5
	c33.6-34.2,68.7-66.6,106-96.7c7-5.7,12.4-6.7,20.3-2.7c6.4,3.2,13.6,4.8,20.9,5.6c44.5,5.1,78.5-29.8,67.9-71.6
	c-7.2-28.5-27.6-46.2-55.7-53.7c-22.9-6.1-45-1.7-62.1,14.6c-17.4,16.5-22.4,38.1-14.5,61.2C999,169.7,995.8,172.4,991.9,176z
	 M1042.9,128.5c10.3-9,28.2-7.1,38.4,4c9,9.9,9.2,24.8,0.5,32.9c-10.5,9.7-28,7.7-38.9-4.4C1033.5,150.4,1033.5,136.7,1042.9,128.5z
	 M880.9,680.3c10.3-21.1,5.7-40.9-5.8-59.7c-4.2-6.8-4.7-11.8,0.7-18.2c10.2-12,19.7-24.7,29.5-37.1c22.7-28.5,47-55.7,71.9-82.3
	c10.4-11.1,11.7-24.2,2-34.2c-9.3-9.6-22-8.9-32.9,2.1c-35.9,36.4-69,75.3-99.6,116.1c-8.3,11-14.3,15.4-29.6,10.6
	c-35.8-11.3-63.5,15.1-55,52.6c5.1,22.4,19.7,39.3,37,51.9c0.1,0.1,0.1,0.1,0.2,0.2h79.3C879.4,681.7,880.1,681,880.9,680.3z
	 M843.5,654.9c-5.3,7.3-12.5,7.7-20.7,5.5c-10.3-2.7-16.9-9.9-21.3-18.6c-3.9-7.8-5-16.9,3-23.2c7.4-5.8,15.9-4.5,23.7,0.4
	c3.4,2.2,6.5,4.8,9.7,7.2c1.8,2.9,3.5,5.6,5.2,8.4C847.1,641.3,848.4,648.2,843.5,654.9z M1227.3,8.4c-7.1,3.8-11.2,3.9-18.3,0.3
	c-11.1-5.7-23.5-8.1-36.1-8.3c-30.9-0.5-51.6,17-52.5,44.6c-0.6,16.3,7.5,29.3,17.5,41.9c20,18.9,42.9,31.7,72.1,30.2
	c32.7-1.7,55.8-31.5,44.5-59.9c-5.1-12.7-0.6-16.8,9.4-21.8c24.1-12.1,47.9-24.9,72.9-35h-94.8C1237.2,3.1,1232.2,5.7,1227.3,8.4z
	 M1212,70.1c-6.6,9.8-16.7,10.2-27,6.9c-3.8-1.2-7.5-3.1-10.7-5.5c-10.6-7.6-14.6-20.3-9.3-28.1c7-10.3,22.2-12.7,33.5-5.3
	c3,2,5.6,4.7,7.6,6.4C1213.1,52.6,1218.4,60.6,1212,70.1z M1291,611.7c15.4-14.2,26.6-25.4,44.7-40.8c9-8.2,13.4-11.5,22.4-19.7
	c7.2-6,6.8-10.1,6.6-12c-1-9.3-4.9-17.3-13.8-20.8c-9.1-3.6-13.3,1.4-20.9,7.5c-2.8,2.3-6.4,5.8-9.2,8.1
	c-12.1,10.7-21.3,17.8-36.6,31c-6.5,6.1-12.9,12.2-19.4,18.2c-2.5,2.3-5,3.9-8.4,1.9c-7.1-4.1-11.1-4.6-16.6-6.2
	c-17.2-5.2-34.6-1.4-46.3,11.1c-10.2,10.9-14.5,26.4-7.3,42.1c0.5,2.4,1.1,3.9,1.6,4.9c0.8,1.5,1.6,3,2.3,4.5
	c1.3,2.9,2.7,5.2,3.7,6.3c2.8,3.2,5.7,6.3,8.5,9.5c7.2,6.1,8.7,7.7,14.1,10.5l3.4,1.5c12.3,5.9,22.3,8.9,35,9.2
	c12.9,0.3,26.3-0.3,34.1-12.7c8.9-14.1,8.6-29.3,0.6-43.8C1287.1,617.5,1287.5,615,1291,611.7z M1257.9,646
	c-7.9,6.5-22.6,3.4-31.2-6.5c-7-8-7.9-19.6-1.9-25.2c7.2-6.6,22.3-3.7,31.2,6.1C1264.4,629.9,1265.2,640.1,1257.9,646z
	 M1012.4,441.2c-12.7,0.3-20.9-6.8-25.1-17.6c-3.9-9.9,2.2-17.6,9-24.6c23.2-23.8,48-45.8,72.5-68.1c8-7.2,17.2-9.3,26.7-4
	c10.9,6,13.9,15.7,10.5,29c-17.1,15.9-34.3,31.7-51.3,47.8c-3.1,2.9-7.6,5-8,10.1c-10.2,7.2-18.1,16.8-27.1,25.3
	C1016.6,437.6,1014.5,439.5,1012.4,441.2z M1186.1,261.4c-6.8-10.2-4.7-24.3,5.7-31.2c25.5-17.1,49.1-37,75.8-52.5
	c11.5-6.7,22.1-4.7,30.4,6.7c7.8,10.9,6.3,20.5-8.4,32.4c-22.3,14.1-47.3,32.8-72.5,51.2C1207.7,274.8,1192.4,270.8,1186.1,261.4z
	 M1126.5,281.9c1.8-1.6,3.6-3.3,4.3-3.9c6.5-4.5,10.7-9.5,16.8-12.2c11.6-5.2,21.8-2.2,29,9c5.9,9.1,4.4,21-4.2,28.3
	c-5.5,4.7-11.5,8.8-17.4,13.2c-11.5,8.6-22.8,7.4-31.8-3.4C1115.1,303.1,1116.4,291.2,1126.5,281.9z M1015.1,682.4h-48.6
	c0.8-1,1.6-1.9,2.5-2.9c8.1-8.9,15-20,30-14.6c2,2.9,4.8,4.2,8.3,3.8c2.3,2.4,4.6,4.8,6.9,7.2C1013.4,678.3,1014,680.4,1015.1,682.4
	z M646.8,682.4h-17.6c-0.3-0.5-0.7-0.9-1-1.4c0,0-12.1-16-8.8-30c3.3-14,14.3-2.7,16.5-0.3c2.2,2.5,14,18.1,11.5,28.8
	C647.2,680.4,647,681.4,646.8,682.4z M682.2,594.8c-3.4,7.6-16.4,36.3-19.4,42.9c-3,6.6-10.6,11-21.2-1.3c0,0-14.4-15.8-7.6-33.7
	c6.9-17.9,14.6-32.7,17.5-37.3c2.9-4.6,13-12.5,24.3-2.3C687.2,573.5,685.5,587.2,682.2,594.8z M685,508.4
	c-13.6,17.6-6.1,31.7-3.6,35.5c2.5,3.9,17.4,24.7,32,0.4c18.9-31.5,50.3-70.5,50.3-70.5l1.1-1.6c3.3-5.6,10.4-6.9,18.7-3.5
	c22.8,10.1,48.5,0.8,61-15.8c30.1-39.7,8.4-81.8-6.9-101.3c-15.3-19.5-49.6-35.2-80.1-8c-30.5,27.3-21.5,67.4-19,77.3
	s-1,15.8-1,15.8S698.6,490.8,685,508.4z M779.5,378.2c8.5-8,22.4-5.8,31.8,5c10.4,11.8,10.3,29.8,0,39.5c-8.9,8.3-23.8,6.8-32.3-3.2
	C769.4,408.2,769.7,387.3,779.5,378.2z M933.4,39.1c-8.7,6.7-79.1,66.5-88.2,74.8c-9.1,8.3-14.2,7.8-20.1,6.2
	c-9.9-3.8-34.4-6.6-55.1,13c-31.8,34.3-22.8,73.1-9.1,90.2c13.7,17.1,49.9,29.2,80.5-0.8c30.6-29.9,19.2-67.8,19.2-67.8
	c0.4-8.7,0.7-9.1,12.4-20.3c11.6-11.3,84.5-68.3,89.1-73.1c4.6-4.8,16.2-16.1,5.5-26.4C956.9,24.6,942.1,32.4,933.4,39.1z
	 M816.9,195.1c0,0-21.2,14.3-32.5-4.5c-9.7-16.3,2.6-28.2,7.2-32.3c4.6-4.2,20.9-8.8,30.8,4.1C832.3,175.3,821.5,191.6,816.9,195.1z
	 M589.8,251.9c-6-17.1,7.6-33.3,13.2-39.8c5.7-6.5,10.6-10.3,14.1,0c3.6,10.3-0.7,22.5-5,28.4C612.2,240.5,595.8,269.1,589.8,251.9z
	 M705.7,115.1c2.1,5.8,2.5,11.9-9.6,26.2c0,0-38.6,41.7-50.3,56.3c-11.8,14.6-25.8,12.6-17.8-15.3c3.4-8.9,10.3-18.4,59.3-68.4
	C698.7,106,703.6,109.2,705.7,115.1z M805.5,0.4h40.2c-1.3,0.8-2.4,1.7-3.3,2.6c-1,1-92.6,82.7-102.1,92.7
	c-9.5,10-17.5,7.6-21.1-1.3c-3.6-8.9-0.3-15.2,6.7-20.9C731.9,68.5,772.5,29,805.5,0.4z M983.9,0.4h58.7c-5.9,4-11.8,8.2-17.8,12.5
	c-20.5,13.6-35,13.9-40,5.6C981.2,12.6,976.6,9,983.9,0.4z M1372.9,306.9c-14.6,9.4-38.3,27.2-44.8,31.3c-6.6,4.1-12.9,2.1-20.4-2.6
	c-7.5-4.7-33-22.7-60,1.4c-27,24-15.7,58.2-15.7,58.2s4.7,8.3-4.5,17c-1.8,1.7-88.2,81.2-95.9,88.3c-7.7,7.1-30.8,25.6-18.3,41.3
	c12.4,15.7,22.7,12.1,40.6-4.2c17.9-16.4,93.7-85.7,99.7-90.5c5.9-4.8,8-4.7,15.2-0.3c7.2,4.4,35.9,18.1,57.6-1.1
	c21.7-19.2,16.9-47.1,15.9-55.2c-1-8.1-0.8-11.5,4.7-14.6c3.5-2,18.6-12.2,30.9-20.6V304C1376.2,304.8,1374.6,305.8,1372.9,306.9z
	 M1302.9,413.6c-1.9,2.3-5.9,3.7-10.6,3.1c-9.9-1.4-16.8-6.5-21.6-15.4c-4.8-9-5.5-17.7-0.6-26.5c3-5.3,8-7.5,14.3-7.4
	c13.1,0.1,19.7,8.9,23.8,19.1C1311.7,395.1,1312.1,404.6,1302.9,413.6z M1010.3,629.4c12.8-14.9,53.3-62.9,59.3-68.4
	c6-5.5,20.6-9.8,28.7-1.7c8.1,8.1,14.8,16.1,6.9,25.9c0,0-56.8,64.8-64.6,73.2c-7.8,8.4-19.8,5.2-26.9,0.1
	C1006.5,653.5,997.5,644.3,1010.3,629.4z M1377.8,113.3V163c-9.9,5.3-19.7,10.8-29.5,16.5c-13.2,7.8-26.4,3.5-33.4-10
	c-5.5-10.6-3.6-19.8,6.9-25.9C1340.2,132.9,1358.8,122.6,1377.8,113.3z M1377.8,491.7v30.7c-0.8-0.9-1.6-1.9-2.5-3.1
	C1367.8,509,1370.6,498.5,1377.8,491.7z"/>
</svg>
