<?xml version="1.0" encoding="utf-8"?>
<!-- Generator: Adobe Illustrator 22.1.0, SVG Export Plug-In . SVG Version: 6.00 Build 0)  -->
<svg version="1.1" id="Capa_1" xmlns="http://www.w3.org/2000/svg" xmlns:xlink="http://www.w3.org/1999/xlink" x="0px" y="0px"
	 viewBox="0 0 80 20.2" style="enable-background:new 0 0 80 20.2;" xml:space="preserve">
<style type="text/css">
	.st0{fill:#FFFFFF;}
	.st1{fill:#0187CD;}
	.st2{opacity:0.55;clip-path:url(#SVGID_2_);}
	.st3{opacity:0.5;fill:none;stroke:#BEBEBE;stroke-miterlimit:10;}
	.st4{fill:#D8D8D8;}
	.st5{fill:#004485;}
	.st6{opacity:0.55;}
	.st7{fill:#004484;}
	.st8{fill:#87888B;}
	.st9{fill:#2F4C87;}
	.st10{fill:#E1E2E3;}
	.st11{fill:#C47930;}
	.st12{fill:#C3C3C3;}
	.st13{fill:#A4D523;}
	.st14{fill:#27608D;}
	.st15{fill:#749323;}
	.st16{fill:#FF0000;}
	.st17{fill:#CE7535;}
	.st18{fill:#265D9B;}
	.st19{opacity:5.000000e-02;}
	.st20{clip-path:url(#SVGID_4_);fill:#FFFFFF;}
	.st21{fill:#304483;}
	.st22{fill:#9D9FA1;}
	.st23{fill:#F1F1F1;}
	.st24{opacity:0.8;}
	.st25{fill:url(#SVGID_5_);}
	.st26{fill:url(#SVGID_6_);}
	.st27{opacity:0.3;fill:#FFFFFF;stroke:#FFFFFF;stroke-miterlimit:10;}
	.st28{fill:none;stroke:#265D9B;stroke-width:1.5;stroke-miterlimit:10;}
	.st29{opacity:0.85;fill:#FFFFFF;}
	.st30{opacity:0.85;fill:#9D9FA1;}
	.st31{opacity:0.75;}
	.st32{fill:#2B6BA7;}
	.st33{fill:none;stroke:#265D9B;stroke-width:3;stroke-miterlimit:10;}
	.st34{fill:none;stroke:#CE7535;stroke-width:3;stroke-miterlimit:10;}
	.st35{fill:url(#SVGID_7_);stroke:#265D9B;stroke-miterlimit:10;}
	.st36{fill:url(#SVGID_8_);stroke:#265D9B;stroke-miterlimit:10;}
	.st37{fill:#F3F3F3;}
	.st38{fill:#040707;}
	.st39{fill:#6F7175;}
	.st40{fill:#01CCF7;}
	.st41{fill:#00C0F5;}
	.st42{fill:#707276;}
	.st43{fill:#04E777;}
	.st44{fill:#04D8F7;}
	.st45{fill:#F6C302;}
	.st46{fill:#D83155;}
	.st47{fill:#E9354C;}
	.st48{fill:#F6CE05;}
	.st49{fill:#F33A45;}
	.st50{fill:#4D4D4D;}
	.st51{opacity:0.5;}
	.st52{fill:none;stroke:#FFFFFF;stroke-width:3;stroke-miterlimit:10;}
	.st53{fill:none;stroke:#808080;stroke-width:1.5;stroke-miterlimit:10;}
	.st54{opacity:0.5;fill:none;stroke:#C3C3C3;stroke-miterlimit:10;}
	.st55{fill:none;stroke:#265D9B;stroke-width:0.25;stroke-miterlimit:10;}
	.st56{fill:#6D6D6D;}
	.st57{fill:#8CBF37;}
	.st58{fill:#0C6F9E;}
	.st59{fill:#DFB70E;}
	.st60{fill:#FAA93F;}
	.st61{fill:#6B7137;}
	.st62{fill:#AA6A43;}
	.st63{fill:#147DA1;}
	.st64{fill:#428B44;}
	.st65{fill:#E81D24;}
	.st66{fill:#8BC548;}
	.st67{fill:#0CB8B8;}
	.st68{fill:#002B51;}
	.st69{fill:#A5A7AA;}
	.st70{fill:#6F7173;}
	.st71{fill:#707274;}
	.st72{fill:#A6A8AB;}
	.st73{fill:#A6A7AA;}
	.st74{fill:#A6A8AA;}
	.st75{fill:#6E7072;}
	.st76{clip-path:url(#SVGID_12_);fill:#FFFFFF;}
	.st77{clip-path:url(#SVGID_12_);}
	.st78{fill:#054B8D;}
	.st79{fill:#B12E33;}
	.st80{fill:#B43439;}
	.st81{fill:#B32E33;}
	.st82{fill:#B02D32;}
	.st83{fill:#25AAC9;}
	.st84{clip-path:url(#SVGID_14_);fill:#FFFFFF;}
	.st85{clip-path:url(#SVGID_14_);fill:#B43439;}
	.st86{clip-path:url(#SVGID_16_);fill:#FFFFFF;}
	.st87{fill:#004D8D;}
	.st88{fill:none;stroke:#F3F3F3;stroke-miterlimit:10;}
	.st89{clip-path:url(#SVGID_18_);fill:#FFFFFF;}
	.st90{clip-path:url(#SVGID_18_);}
	.st91{clip-path:url(#SVGID_20_);fill:#FFFFFF;}
	.st92{clip-path:url(#SVGID_20_);fill:#B43439;}
	.st93{fill:none;stroke:#FFFFFF;stroke-miterlimit:10;}
	.st94{fill:none;stroke:#CE7535;stroke-miterlimit:10;}
	.st95{fill:none;stroke:#000000;stroke-miterlimit:10;}
	.st96{fill:#015594;}
	.st97{fill:#085A98;}
	.st98{fill:#2497D4;}
	.st99{fill:#10619E;}
	.st100{fill:#4C91C5;}
	.st101{fill:#2673AD;}
	.st102{fill:#1A68A4;}
	.st103{fill:#327CB3;}
	.st104{fill:#3A82B9;}
	.st105{fill:#64A4D4;}
	.st106{fill:#00427A;}
	.st107{fill:#F8FBFC;}
	.st108{fill:#7EC1E5;}
	.st109{fill:#C1E1F2;}
	.st110{fill:#FCFDFD;}
	.st111{fill:#E5BC2D;}
	.st112{fill:#DEB12D;}
	.st113{fill:#3A4981;}
	.st114{fill:#D19C2C;}
	.st115{fill:#6D6750;}
	.st116{fill:#3B5188;}
	.st117{fill:#4C7FB7;}
	.st118{fill:#3B5892;}
	.st119{fill:#426499;}
	.st120{fill:#4874A9;}
	.st121{fill:#4A3C1D;}
	.st122{fill:#5F7682;}
	.st123{fill:#DDA62B;}
	.st124{fill:#383D75;}
	.st125{fill:#DDAB2C;}
</style>
<path class="st0" d="M73.9,2.6c2.3,1.1,4.1,2.9,5.5,5c0.9,1.4,0.8,3-0.2,4.3c-2,2.7-4.6,4.8-7.7,6.2c-1.8,0.8-3.9,0-4.9-1.8
	c-0.3-0.5-0.1-0.7,0.3-0.9c0.7-0.3,1.4-0.8,2-1.2c2.1-1.3,3.7-3,4.8-5.2c0.8-1.1,0.6-2.4,0.7-3.6C74.6,4.4,74.1,3.6,73.9,2.6z
	 M68.9,2.6c-0.6,0.5-1.1,1.1-1.5,1.8c-0.4,0.6-0.4,1,0.4,1.3c1.7,0.8,3.3,1.9,4.6,3.4C73.1,8,73,6.7,73.1,5.5c0.1-1-0.4-1.9-0.6-2.8
	C71.1,1.6,70.3,1.6,68.9,2.6z M8,5.5C7.9,6.7,8.1,8,7.3,9.1c-1.1,2.2-2.7,3.9-4.8,5.2c-0.7,0.4-1.3,0.8-2,1.2
	c-0.5,0.2-0.6,0.4-0.3,0.9c1,1.7,3.1,2.6,4.9,1.8c3.1-1.4,5.6-3.4,7.7-6.2c1-1.4,1.1-2.9,0.2-4.3c-1.4-2.1-3.2-3.9-5.5-5
	C7.6,3.6,8.1,4.4,8,5.5z M2.5,2.6C1.8,3.1,1.4,3.8,0.9,4.4c-0.4,0.6-0.4,1,0.4,1.3C3,6.5,4.6,7.6,5.9,9.1C6.6,8,6.5,6.7,6.6,5.5
	c0.1-1-0.4-1.9-0.6-2.8C4.6,1.6,3.8,1.6,2.5,2.6z M61.8,7.4c0.1-0.3,0.1-0.6,0.1-0.9C61.9,6.8,61.9,7.1,61.8,7.4z M48.8,1.5
	c-0.1-0.2-0.3-0.2-0.5-0.2c-0.1,0-0.1,0-0.2,0C48,1.2,47.9,1,47.8,0.9c-2.1-0.7-4.2-1-6.3-0.4c-3.7,0.5-7,3.7-7.9,7.7
	c-0.6,2.6-0.8,5.3,0.4,7.8c1.7,3.5,7.9,5.3,11.3,3.2c0.4-0.3,0.8-0.6,0.9-1.1c0.3-1,0.5-2,0.8-3.3c-1.7,1.2-3.4,1.8-5.2,1.4
	c-0.7-0.1-1.5-0.1-2.2-0.8c-1.4-1.5-1.6-3.2-1.4-5.1c0.4-4.1,3.5-6.8,7.6-6.3c1.2,0.1,2.3,0.6,3.4,1.3c0.2-0.6,0.3-1.2,0.4-1.7
	C49.7,2.7,49.7,2,48.8,1.5z M30.7,14c-0.2,2.3-1.5,3.8-3.6,4.7c-3.1,1.3-6.3,1.4-9.5,0.7c-1.9-0.4-2.5-1.8-2-4.3
	c0.9-4.5,2-9.1,3-13.6c0.1-0.4,0.2-0.6,0.6-0.7c3.1-0.3,6.1-0.8,9.1,0.2c0.7,0.2,1.4,0.4,1.9,1c2.1,1.6,2.1,4.2,0,6
	c-0.6,0.8-1.6,1-2.6,1.5C29.9,10.4,30.9,11.9,30.7,14z M26,13c-0.2-1.1-1.1-1.5-2.1-1.7c-0.4-0.1-0.9-0.1-1.4-0.1
	c-1.2-0.2-1.9,0.1-2,1.5c0,0.7-0.3,1.4-0.4,2.1c-0.4,1.8-0.3,1.9,1.7,1.8c1,0,2.1-0.2,3.1-0.8C25.9,15.1,26.3,14.1,26,13z M26.5,4.2
	c-1.1-0.6-2.3-0.6-3.5-0.3c-0.9,0.2-0.4,1.2-0.8,1.7c0,0.8-0.5,1.6-0.3,2.5c1.5,0.3,3,0.2,4.3-0.5C27.6,6.7,27.8,4.9,26.5,4.2z
	 M61.8,7.4c0.1-0.3,0.1-0.6,0.1-0.9C61.9,6.8,61.9,7.1,61.8,7.4z M65.4,7.7c-1,3.4-4,5.6-8.1,5.8c-1,0.1-2,0-3,0
	c-0.3,1.4-0.6,2.8-1,4.2c-0.4,1.5-1.1,2.1-2.8,2c-0.3,0-0.5,0-0.8,0c-1.5,0.1-1.5,0.1-1.1-1.4c0.2-0.9,0.4-1.7,0.6-2.6
	c1-4.7,2-9.4,3-14.1c0.1-0.5,0.4-0.7,0.8-0.8c2.9-0.4,5.8-0.7,8.7,0.2C65,2,66.3,4.5,65.4,7.7z M60.4,9.1c0.9-1.2,1.4-2.5,0.9-4
	c-0.4-0.6-1-0.9-1.7-1.2c-0.9,0-1.9,0-2.8,0c-0.7,1.7-0.9,3.6-1.3,5.4c-0.1,0.3,0,0.7,0.3,0.9c1.4,0.3,2.7,0,4-0.6
	C60,9.4,60.2,9.2,60.4,9.1z M61.9,6.4c0,0.3,0,0.6-0.1,0.9C61.9,7.1,61.9,6.8,61.9,6.4z"/>
</svg>
