<?xml version="1.0" encoding="utf-8"?>
<!-- Generator: Adobe Illustrator 22.1.0, SVG Export Plug-In . SVG Version: 6.00 Build 0)  -->
<svg version="1.1" id="Capa_1" xmlns="http://www.w3.org/2000/svg" xmlns:xlink="http://www.w3.org/1999/xlink" x="0px" y="0px"
	 viewBox="0 0 150.9 27" style="enable-background:new 0 0 150.9 27;" xml:space="preserve">
<style type="text/css">
	.st0{fill:#F1F1F1;}
	.st1{fill:#FFFFFF;}
	.st2{fill:#0187CD;}
	.st3{opacity:0.55;clip-path:url(#SVGID_2_);}
	.st4{opacity:0.55;clip-path:url(#SVGID_4_);}
	.st5{opacity:0.5;fill:none;stroke:#BEBEBE;stroke-miterlimit:10;}
	.st6{fill:#D8D8D8;}
	.st7{fill:#BEBEBE;}
	.st8{fill:#004485;}
	.st9{opacity:0.55;}
	.st10{fill:#004484;}
	.st11{fill:#87888B;}
	.st12{fill:#2F4C87;}
	.st13{fill:#E1E2E3;}
	.st14{fill:#C47930;}
	.st15{fill:#C3C3C3;}
	.st16{fill:#A4D523;}
	.st17{fill:#27608D;}
	.st18{fill:#749323;}
	.st19{fill:#FF0000;}
	.st20{fill:#CE7535;}
	.st21{fill:#265D9B;}
	.st22{opacity:5.000000e-02;}
	.st23{clip-path:url(#SVGID_6_);fill:#FFFFFF;}
	.st24{fill:#304483;}
	.st25{fill:#9D9FA1;}
	.st26{opacity:0.8;}
	.st27{fill:url(#SVGID_7_);}
	.st28{fill:url(#SVGID_8_);}
	.st29{opacity:0.3;fill:#FFFFFF;stroke:#FFFFFF;stroke-miterlimit:10;}
	.st30{opacity:5.000000e-02;fill:#004484;}
	.st31{opacity:0.15;fill:#004484;}
	.st32{opacity:0.3;fill:#004484;}
	.st33{opacity:0.4;fill:#004484;}
	.st34{opacity:0.5;fill:#004484;}
	.st35{opacity:0.6;fill:#004484;}
	.st36{opacity:0.7;fill:#004484;}
	.st37{opacity:0.8;fill:#004484;}
	.st38{opacity:0.9;fill:#004484;}
	.st39{fill:url(#SVGID_9_);}
	.st40{fill:none;stroke:#265D9B;stroke-width:1.5;stroke-miterlimit:10;}
	.st41{opacity:0.85;fill:#FFFFFF;}
	.st42{opacity:0.85;fill:#9D9FA1;}
	.st43{opacity:0.75;}
	.st44{fill:#2B6BA7;}
	.st45{fill:none;stroke:#265D9B;stroke-width:3;stroke-miterlimit:10;}
	.st46{fill:none;stroke:#CE7535;stroke-width:3;stroke-miterlimit:10;}
	.st47{fill:url(#SVGID_10_);stroke:#265D9B;stroke-miterlimit:10;}
	.st48{fill:url(#SVGID_11_);stroke:#265D9B;stroke-miterlimit:10;}
	.st49{fill:#F3F3F3;}
	.st50{fill:#040707;}
	.st51{fill:#6F7175;}
	.st52{fill:#01CCF7;}
	.st53{fill:#00C0F5;}
	.st54{fill:#707276;}
	.st55{fill:#04E777;}
	.st56{fill:#04D8F7;}
	.st57{fill:#F6C302;}
	.st58{fill:#D83155;}
	.st59{fill:#E9354C;}
	.st60{fill:#F6CE05;}
	.st61{fill:#F33A45;}
	.st62{fill:#4D4D4D;}
	.st63{opacity:0.5;}
	.st64{fill:none;stroke:#FFFFFF;stroke-width:3;stroke-miterlimit:10;}
	.st65{fill:none;stroke:#808080;stroke-width:1.5;stroke-miterlimit:10;}
	.st66{fill:#0039A6;}
	.st67{opacity:0.5;fill:none;stroke:#C3C3C3;stroke-miterlimit:10;}
	.st68{fill:url(#SVGID_12_);stroke:#265D9B;stroke-miterlimit:10;}
	.st69{fill:url(#SVGID_13_);stroke:#265D9B;stroke-miterlimit:10;}
	.st70{fill:url(#SVGID_14_);stroke:#265D9B;stroke-miterlimit:10;}
	.st71{fill:url(#SVGID_15_);stroke:#265D9B;stroke-miterlimit:10;}
	.st72{fill:none;stroke:#265D9B;stroke-width:0.25;stroke-miterlimit:10;}
	.st73{fill:#6D6D6D;}
	.st74{fill:#8CBF37;}
	.st75{fill:#0C6F9E;}
	.st76{fill:#DFB70E;}
	.st77{fill:#FAA93F;}
	.st78{fill:#6B7137;}
	.st79{fill:#AA6A43;}
	.st80{fill:#147DA1;}
	.st81{fill:#428B44;}
	.st82{fill:#E81D24;}
	.st83{fill:#8BC548;}
	.st84{fill:#0CB8B8;}
	.st85{fill:#002B51;}
	.st86{fill:#A5A7AA;}
	.st87{fill:#6F7173;}
	.st88{fill:#707274;}
	.st89{fill:#A6A8AB;}
	.st90{fill:#A6A7AA;}
	.st91{fill:#A6A8AA;}
	.st92{fill:#6E7072;}
	.st93{clip-path:url(#SVGID_19_);fill:#FFFFFF;}
	.st94{clip-path:url(#SVGID_19_);}
	.st95{fill:#054B8D;}
	.st96{fill:#B12E33;}
	.st97{fill:#B43439;}
	.st98{fill:#B32E33;}
	.st99{fill:#B02D32;}
	.st100{fill:#25AAC9;}
	.st101{clip-path:url(#SVGID_21_);fill:#FFFFFF;}
	.st102{clip-path:url(#SVGID_21_);fill:#B43439;}
	.st103{clip-path:url(#SVGID_23_);fill:#FFFFFF;}
	.st104{fill:#004D8D;}
	.st105{fill:none;stroke:#F3F3F3;stroke-miterlimit:10;}
	.st106{clip-path:url(#SVGID_25_);fill:#FFFFFF;}
	.st107{clip-path:url(#SVGID_25_);}
	.st108{clip-path:url(#SVGID_27_);fill:#FFFFFF;}
	.st109{clip-path:url(#SVGID_27_);fill:#B43439;}
	.st110{fill:none;stroke:#FFFFFF;stroke-miterlimit:10;}
	.st111{fill:none;stroke:#CE7535;stroke-miterlimit:10;}
	.st112{fill:none;stroke:#000000;stroke-miterlimit:10;}
	.st113{fill:#015594;}
	.st114{fill:#085A98;}
	.st115{fill:#2497D4;}
	.st116{fill:#10619E;}
	.st117{fill:#4C91C5;}
	.st118{fill:#2673AD;}
	.st119{fill:#1A68A4;}
	.st120{fill:#327CB3;}
	.st121{fill:#3A82B9;}
	.st122{fill:#64A4D4;}
	.st123{fill:#00427A;}
	.st124{fill:#F8FBFC;}
	.st125{fill:#7EC1E5;}
	.st126{fill:#C1E1F2;}
	.st127{fill:#FCFDFD;}
	.st128{fill:#E5BC2D;}
	.st129{fill:#DEB12D;}
	.st130{fill:#3A4981;}
	.st131{fill:#D19C2C;}
	.st132{fill:#6D6750;}
	.st133{fill:#3B5188;}
	.st134{fill:#4C7FB7;}
	.st135{fill:#3B5892;}
	.st136{fill:#426499;}
	.st137{fill:#4874A9;}
	.st138{fill:#4A3C1D;}
	.st139{fill:#5F7682;}
	.st140{fill:#DDA62B;}
	.st141{fill:#383D75;}
	.st142{fill:#DDAB2C;}
	.st143{clip-path:url(#SVGID_31_);fill:#FFFFFF;}
	.st144{clip-path:url(#SVGID_31_);}
	.st145{fill:none;stroke:#CE7535;stroke-width:2;stroke-miterlimit:10;}
</style>
<path class="st1" d="M0,26.8c1.5-1.5,3.1-3,4.6-4.6C5,21.8,5.5,21.6,6,21.6c2.4,0,4.9,0,7.3,0c4.1,0,7.6-3.2,8.1-7.3
	c0-0.1,0-0.3,0.1-0.4c1.1,2.2,1.3,4.5,0.6,6.8c-1.2,3.8-4.7,6.3-8.7,6.3C8.9,27,4.5,27,0,27C0,26.9,0,26.8,0,26.8z M26.5,0
	c-0.2,0-0.4,0-0.6,0c-4.3,0-8.5,0-12.8,0C6.8,0,2.4,6.6,4.8,12.5C4.9,12.7,4.8,13,5.2,13c0.2-4,4-7.9,8.8-7.6c2.2,0.2,4.5,0,6.7,0
	c0.3,0,0.7,0,1-0.3c1.7-1.7,3.4-3.3,5.1-4.9C26.7,0.2,26.6,0.1,26.5,0z M102,19.9c0.1-0.3,0.3-0.6,0.5,0c0.3,0.3,0.7,0.5,1.1,0.7
	c2.6,1,5.4-0.1,6.4-2.6c1.3-3,0.2-6.5-2.4-7.7c-0.2-0.1-0.4-0.1-0.6-0.2c-0.2,0.2-0.3,0.1-0.4-0.1c-0.1,0-0.3-0.1-0.4-0.1
	c-0.8,0.1-1.6,0.2-2.4,0.2c-0.4,0.1-0.8,0.3-1.2,0.5c-0.5,0.3-0.6,0.3-0.6-0.3c0-1.2,0-2.4,0-3.6c0-0.7-0.2-1-0.9-0.9
	c-0.9,0.1-1.7-0.2-2.6,0.2c0,4.8,0,9.6,0,14.3c0.2,0.1,0.2,0.2,0.3,0.4c1,0,2,0,3,0C101.9,20.4,101.9,20.2,102,19.9z M103.8,17.9
	c-1-0.4-1.6-1.3-1.5-2.8c0-1.2,0.7-2.2,1.7-2.5c1.5-0.4,2.8,0.8,2.8,2.7C106.7,17.3,105.3,18.5,103.8,17.9z M37.4,6.6
	c-1.9,0.7-2.9,1.9-3,3.6c-0.1,1.8,0.7,3,2.7,3.9c0.9,0.4,1.8,0.7,2.7,1.1c0.7,0.3,1.3,0.7,1.1,1.6c-0.2,0.9-1,1-1.7,1
	c-1.3,0.1-2.5-0.3-3.6-0.8c-0.5-0.2-0.7-0.2-0.7,0.4c-0.1,0.8-0.1,1.6-0.2,2.3c0,0.3,0,0.5,0.4,0.6c2.7,0.6,5.3,0.9,7.9-0.4
	c1.4-0.7,2.1-1.8,2.3-3.4c0.1-2-0.7-3.4-2.8-4.3c-1-0.4-2-0.8-3.1-1.2c-0.5-0.2-0.8-0.5-0.7-1.1c0.1-0.5,0.5-0.8,1-0.9
	c0.7-0.2,1.4-0.1,2.2,0c0.8,0.1,1.7,0.9,2.2,0.4c0.5-0.5,0.2-1.6,0.4-2.4c0.1-0.5-0.1-0.7-0.6-0.8c-0.9-0.2-1.9-0.3-2.5-0.3
	C39.7,6.1,38.5,6.2,37.4,6.6z M93.6,20.7c0.6-0.1,1.3-0.1,1.9,0c0.6,0,0.7-0.2,0.7-0.8c0-2.4,0-4.8,0-7.2c0-0.9,0.4-2.1-0.2-2.6
	c-0.5-0.5-1.7-0.1-2.6-0.2c-0.7-0.1-1.1,0.1-1,0.9c-2.7-1.7-5.4-1.4-7.1,0.6c-1.8,2.1-1.8,5.7,0,7.8c1.7,2,4.3,2.2,7.1,0.5
	C92.4,20.6,92.9,20.8,93.6,20.7z M91.8,17.4c-1,1.1-2.5,0.9-3.3-0.3c-0.5-0.8-0.7-1.8-0.4-2.7c0.3-1.1,1.1-1.8,2.1-1.8
	c1,0,1.9,0.7,2.2,1.9c0.1,0.3,0.1,0.6,0.1,0.7C92.5,16.1,92.3,16.8,91.8,17.4z M143.9,16.1c0.9,1.3,1.8,2.7,2.7,4
	c0.2,0.3,0.3,0.6,0.8,0.6c1.2,0,2.4,0,3.5,0c0-0.2,0-0.2,0-0.3c-0.8-1.2-1.7-2.4-2.5-3.7c-1.2-1.8-1.2-1.8,0.1-3.4
	c0.5-0.6,1-1.3,1.5-2c0.3-0.4,0.7-0.8,1-1.4c-0.5,0-0.8,0.1-1.1,0c-2.1-0.4-3.6,0.4-4.6,2.3c-0.3,0.7-0.8,1.3-1.5,1.9
	c0-2.7,0-5.2,0-7.7c0-0.7-0.2-0.9-0.8-0.9c-0.8,0.1-1.5,0-2.3,0c-0.5,0-0.7,0.2-0.6,0.7c0,1.1,0,2.2,0,3.3c0,3.4,0,6.9,0,10.3
	c0,0.7,0.2,0.9,0.9,0.8c0.7-0.1,1.5,0,2.2,0c0.6,0,0.8-0.2,0.7-0.8c0-1.3,0-2.6,0-3.8C143.7,16.1,143.8,16.1,143.9,16.1z
	 M113.4,11.2c-1.9,2-2,5.5-0.3,7.8c1.7,2.2,4.1,2.5,7.4,0.7c-0.3,1.1,0.4,1,1.1,1c0.6,0,1.2,0,1.8,0c0.6,0.1,0.8-0.2,0.8-0.8
	c0-2.4,0-4.8,0-7.3c0-0.8,0.4-1.9-0.2-2.5c-0.6-0.6-1.7-0.1-2.5-0.2c-0.6-0.1-1.2,0-0.9,1C118,9,114.9,9.6,113.4,11.2z M116.6,13.2
	c0.8-0.8,1.9-0.9,2.8-0.2c1.4,1.1,1.3,3.7-0.2,4.7c-1,0.7-2.3,0.4-2.9-0.7c-0.3-0.5-0.4-1.1-0.4-1.7
	C115.9,14.5,116.1,13.8,116.6,13.2z M63.1,20.9c2.3-0.3,4.1-1.3,4.9-3.5c0.7-2.1,0.5-4.1-1.1-5.7c-2.4-2.6-7.3-2.5-9.6,0.1
	c-0.6,0.6-1,1.4-1.2,2.2c-1,3.8,1.7,7,6.2,7C62.4,20.9,62.8,20.9,63.1,20.9z M64.1,17.1c-0.9,1.4-2.8,1.5-3.8,0.1
	c-0.7-1-0.7-2.8,0-3.8c0.9-1.3,2.9-1.3,3.8,0c0.4,0.6,0.5,1.2,0.5,1.9C64.5,16,64.4,16.6,64.1,17.1z M128.6,10c-0.5,0-0.9,0-1.4,0
	c-0.6-0.1-0.8,0.2-0.7,0.8c0,2.4,0,4.8,0,7.2c0,0.9-0.4,2.1,0.2,2.6c0.6,0.5,1.7,0.1,2.7,0.2c0.6,0.1,0.8-0.2,0.8-0.8
	c0-1.6,0-3.2,0-4.8c0.1-1.5,1.3-2.4,2.6-2c1,0.3,1.2,1.2,1.3,2.1c0,1.6,0,3.2,0,4.8c0,0.5,0.1,0.7,0.6,0.7c0.8,0,1.6,0,2.4,0
	c0.5,0,0.7-0.1,0.7-0.6c0-2,0-4,0-6c-0.1-2.3-1.5-3.9-3.6-4.2c-1.6-0.2-2.9,0.2-4.2,1.3C130.1,9.9,129.3,10,128.6,10z M71.5,6.5
	c-0.8-0.1-1.1,0.2-1,1c0.1,0.6,0,1.2,0,1.8c0,0.5-0.2,0.7-0.7,0.6c-0.9-0.2-1.1,0.3-1,1.1c0,0.2,0,0.5,0,0.8c-0.1,0.7,0.1,1,0.9,0.9
	c0.6-0.1,0.8,0.2,0.8,0.8c0,1.3-0.1,2.6,0,4c0.1,2.1,1.4,3.3,3.5,3.4c2.3,0.1,2.4,0,2.7-2.2c0.1-0.6,0-0.8-0.7-0.8
	c-1.2,0.1-1.8-0.4-1.8-1.6c0-0.9,0.1-1.7,0-2.6c-0.1-0.8,0.2-1.1,1-1c1.5,0.1,1.3,0.2,1.3-1.3c0-0.1,0-0.2,0-0.3
	c0.2-0.9-0.2-1.2-1.1-1.1c-1.2,0.1-1.2,0-1.2-1.2c0-0.1,0-0.3,0-0.4c0-1.8,0-1.8-1.8-1.8C72.1,6.5,71.8,6.6,71.5,6.5z M54.9,18
	c0-0.5-0.2-0.6-0.7-0.4c-0.2,0.1-0.4,0.2-0.6,0.2c-1.1,0.2-2,0-2.7-0.9c-0.7-0.9-0.8-1.9-0.2-2.8c0.5-1,1.5-1.4,2.5-1.3
	c0.4,0,0.7,0.1,1.1,0.3c0.3,0.1,0.5,0.1,0.6-0.3c0.5-2.4,0-3-2.4-3c-2.9,0-5.1,1.5-5.7,4c-1.2,4.5,2.3,8,7,7.1
	c1.3-0.3,1.3-0.3,1.3-1.8C54.9,18.8,54.9,18.4,54.9,18z M82.4,10.7c0-0.6-0.2-0.8-0.7-0.7c-0.8,0-1.5,0-2.3,0
	c-0.6,0-0.8,0.2-0.8,0.8c0,2.3,0,4.7,0,7c0,1-0.4,2.3,0.2,2.8c0.7,0.5,1.9,0.1,2.9,0.2c0.5,0,0.6-0.2,0.6-0.7c0-1.5,0-3.1,0-4.6
	C82.4,13.9,82.4,12.3,82.4,10.7z M14.8,13.3c1.6,0,1.6,0,1.3-1.6c-0.3-1.5-0.3-1.5-1.8-1.5c-0.4,0-0.9,0-1.3,0
	c-2.3,0-2.4,0.2-2.6,2.4c0,0.5,0.1,0.7,0.6,0.7c0.8,0,1.6,0,2.3,0C13.8,13.3,14.3,13.3,14.8,13.3z M11,13.9c-0.3,0-0.6-0.1-0.6,0.4
	c0.1,0.8,0.1,1.8,0.6,2.4c0.4,0.5,1.2,0.1,1.8,0.2c0.3,0,0.6,0,0.9,0c2.2,0,2.2,0,2.5-2.3c0.1-0.5,0-0.8-0.6-0.8
	c-0.7,0.1-1.5,0-2.3,0C12.5,13.9,11.8,13.9,11,13.9z M78.4,6.7c0,1.1,0.9,2,2,2c1.1,0,2.1-0.9,2.1-2.1c0-1.1-0.9-2.1-2.1-2.1
	C79.3,4.6,78.4,5.5,78.4,6.7z M20.3,13.3c0.3,0,0.5-0.1,0.5-0.4c-0.1-0.9-0.2-1.7-0.7-2.4c-0.4-0.6-1.1-0.2-1.7-0.3
	c-0.2,0-0.3,0-0.5,0c-1.4,0-1.4,0-1.2,1.4c0.3,1.7,0.3,1.7,2.1,1.7C19.3,13.3,19.8,13.3,20.3,13.3z M9.9,11.8
	c0.3-1.6,0.3-1.6-1.4-1.6c-0.6,0-1.2-0.1-1.8,0.1c-0.3,0.1-1.1,2.4-0.9,2.7c0.4,0.6,1,0.2,1.5,0.3c0.1,0,0.2,0,0.4,0
	C9.6,13.3,9.6,13.3,9.9,11.8z M20.6,15c0.2-1.2,0.2-1.2-0.9-1.2c-0.4,0-0.9,0-1.3,0c-1.4,0-1.4,0-1.7,1.4c-0.3,1.6-0.3,1.6,1.4,1.6
	C20.2,16.9,20.2,16.9,20.6,15z M6.3,13.9c-0.4,0-0.5,0.1-0.5,0.5c0.1,2,0.7,2.6,2.6,2.6c0.1,0,0.3,0,0.4,0c1.4,0,1.4,0,1.1-1.4
	c-0.4-1.7-0.4-1.7-2.1-1.7C7.3,13.9,6.8,13.9,6.3,13.9z M10.1,9.5c0.2,0,0.4,0,0.5-0.2c0.5-1.2,1.3-2.2,2.4-3.1
	c-2.2-0.1-4.7,1.3-5.8,3.3C8.2,9.5,9.2,9.5,10.1,9.5z M12.8,20.8c-0.9-0.9-1.7-1.8-2.2-2.9c-0.1-0.2-0.3-0.3-0.5-0.3c-1,0-1.9,0-3,0
	C8.5,19.7,11,21.1,12.8,20.8z M19.5,17.5c-1.1,0-2.1,0-3,0c-0.3,0-0.5,0.1-0.6,0.4c-0.5,1.1-1.3,2-2.3,3.1
	C16.3,20.8,18.1,19.6,19.5,17.5z M16,9.3c0.1,0.2,0.3,0.3,0.5,0.3c1,0,1.9,0,2.9,0c-1-2-3.5-3.5-5.6-3.3C14.7,7.2,15.5,8.1,16,9.3z
	 M14.6,9.5c0.2,0,0.5,0.1,0.7-0.1c0.1-0.3-0.1-0.4-0.3-0.7c-0.1-0.1-0.1-0.2-0.2-0.3c-1.6-2-1.3-2-2.9,0c-0.2,0.3-0.7,0.7-0.5,1
	c0.2,0.3,0.7,0.1,1.1,0.1c0.3,0,0.6,0,0.8,0C13.8,9.5,14.2,9.6,14.6,9.5z M13,17.5c-0.5,0.1-1.4-0.3-1.6,0.2c-0.2,0.5,0.4,1,0.8,1.5
	c1,1.4,1.2,1.3,2.2-0.1c0.3-0.4,0.9-0.9,0.7-1.4c-0.2-0.3-0.9-0.1-1.4-0.1c-0.1,0-0.3,0-0.4,0S13.2,17.5,13,17.5z"/>
</svg>
