<?xml version="1.0" encoding="utf-8"?>
<!-- Generator: Adobe Illustrator 22.1.0, SVG Export Plug-In . SVG Version: 6.00 Build 0)  -->
<svg version="1.1" id="Capa_1" xmlns="http://www.w3.org/2000/svg" xmlns:xlink="http://www.w3.org/1999/xlink" x="0px" y="0px"
	 viewBox="0 0 250 74.4" style="enable-background:new 0 0 250 74.4;" xml:space="preserve">
<style type="text/css">
	.st0{fill:#F1F1F1;}
	.st1{fill:#FFFFFF;}
	.st2{fill:#0187CD;}
	.st3{opacity:0.55;clip-path:url(#SVGID_2_);}
	.st4{opacity:0.55;clip-path:url(#SVGID_4_);}
	.st5{opacity:0.5;fill:none;stroke:#BEBEBE;stroke-miterlimit:10;}
	.st6{fill:#D8D8D8;}
	.st7{fill:#004485;}
	.st8{opacity:0.55;}
	.st9{fill:#004484;}
	.st10{fill:#87888B;}
	.st11{fill:#2F4C87;}
	.st12{fill:#E1E2E3;}
	.st13{fill:#C47930;}
	.st14{fill:#C3C3C3;}
	.st15{fill:#A4D523;}
	.st16{fill:#27608D;}
	.st17{fill:#749323;}
	.st18{fill:#FF0000;}
	.st19{fill:#CE7535;}
	.st20{fill:#265D9B;}
	.st21{opacity:5.000000e-02;}
	.st22{clip-path:url(#SVGID_6_);fill:#FFFFFF;}
	.st23{fill:#304483;}
	.st24{fill:#9D9FA1;}
	.st25{opacity:0.8;}
	.st26{fill:url(#SVGID_7_);}
	.st27{fill:url(#SVGID_8_);}
	.st28{opacity:0.3;fill:#FFFFFF;stroke:#FFFFFF;stroke-miterlimit:10;}
	.st29{opacity:5.000000e-02;fill:#004484;}
	.st30{opacity:0.15;fill:#004484;}
	.st31{opacity:0.3;fill:#004484;}
	.st32{opacity:0.4;fill:#004484;}
	.st33{opacity:0.5;fill:#004484;}
	.st34{opacity:0.6;fill:#004484;}
	.st35{opacity:0.7;fill:#004484;}
	.st36{opacity:0.8;fill:#004484;}
	.st37{opacity:0.9;fill:#004484;}
	.st38{fill:url(#SVGID_9_);}
	.st39{fill:none;stroke:#265D9B;stroke-width:1.5;stroke-miterlimit:10;}
	.st40{opacity:0.85;fill:#FFFFFF;}
	.st41{opacity:0.85;fill:#9D9FA1;}
	.st42{opacity:0.75;}
	.st43{fill:#2B6BA7;}
	.st44{fill:none;stroke:#265D9B;stroke-width:3;stroke-miterlimit:10;}
	.st45{fill:none;stroke:#CE7535;stroke-width:3;stroke-miterlimit:10;}
	.st46{fill:url(#SVGID_10_);stroke:#265D9B;stroke-miterlimit:10;}
	.st47{fill:url(#SVGID_11_);stroke:#265D9B;stroke-miterlimit:10;}
	.st48{fill:#F3F3F3;}
	.st49{fill:#040707;}
	.st50{fill:#6F7175;}
	.st51{fill:#01CCF7;}
	.st52{fill:#00C0F5;}
	.st53{fill:#707276;}
	.st54{fill:#04E777;}
	.st55{fill:#04D8F7;}
	.st56{fill:#F6C302;}
	.st57{fill:#D83155;}
	.st58{fill:#E9354C;}
	.st59{fill:#F6CE05;}
	.st60{fill:#F33A45;}
	.st61{fill:#4D4D4D;}
	.st62{opacity:0.5;}
	.st63{fill:none;stroke:#FFFFFF;stroke-width:3;stroke-miterlimit:10;}
	.st64{fill:none;stroke:#808080;stroke-width:1.5;stroke-miterlimit:10;}
	.st65{opacity:0.5;fill:none;stroke:#C3C3C3;stroke-miterlimit:10;}
	.st66{fill:url(#SVGID_12_);stroke:#265D9B;stroke-miterlimit:10;}
	.st67{fill:url(#SVGID_13_);stroke:#265D9B;stroke-miterlimit:10;}
	.st68{fill:url(#SVGID_14_);stroke:#265D9B;stroke-miterlimit:10;}
	.st69{fill:url(#SVGID_15_);stroke:#265D9B;stroke-miterlimit:10;}
	.st70{fill:none;stroke:#265D9B;stroke-width:0.25;stroke-miterlimit:10;}
	.st71{fill:#6D6D6D;}
	.st72{fill:#8CBF37;}
	.st73{fill:#0C6F9E;}
	.st74{fill:#DFB70E;}
	.st75{fill:#FAA93F;}
	.st76{fill:#6B7137;}
	.st77{fill:#AA6A43;}
	.st78{fill:#147DA1;}
	.st79{fill:#428B44;}
	.st80{fill:#E81D24;}
	.st81{fill:#8BC548;}
	.st82{fill:#0CB8B8;}
	.st83{fill:#002B51;}
	.st84{fill:#A5A7AA;}
	.st85{fill:#6F7173;}
	.st86{fill:#707274;}
	.st87{fill:#A6A8AB;}
	.st88{fill:#A6A7AA;}
	.st89{fill:#A6A8AA;}
	.st90{fill:#6E7072;}
	.st91{clip-path:url(#SVGID_19_);fill:#FFFFFF;}
	.st92{clip-path:url(#SVGID_19_);}
	.st93{fill:#054B8D;}
	.st94{fill:#B12E33;}
	.st95{fill:#B43439;}
	.st96{fill:#B32E33;}
	.st97{fill:#B02D32;}
	.st98{fill:#25AAC9;}
	.st99{clip-path:url(#SVGID_21_);fill:#FFFFFF;}
	.st100{clip-path:url(#SVGID_21_);fill:#B43439;}
	.st101{clip-path:url(#SVGID_23_);fill:#FFFFFF;}
	.st102{fill:#004D8D;}
	.st103{fill:none;stroke:#F3F3F3;stroke-miterlimit:10;}
	.st104{clip-path:url(#SVGID_25_);fill:#FFFFFF;}
	.st105{clip-path:url(#SVGID_25_);}
	.st106{clip-path:url(#SVGID_27_);fill:#FFFFFF;}
	.st107{clip-path:url(#SVGID_27_);fill:#B43439;}
	.st108{fill:none;stroke:#FFFFFF;stroke-miterlimit:10;}
	.st109{fill:none;stroke:#CE7535;stroke-miterlimit:10;}
	.st110{fill:none;stroke:#000000;stroke-miterlimit:10;}
	.st111{fill:#015594;}
	.st112{fill:#085A98;}
	.st113{fill:#2497D4;}
	.st114{fill:#10619E;}
	.st115{fill:#4C91C5;}
	.st116{fill:#2673AD;}
	.st117{fill:#1A68A4;}
	.st118{fill:#327CB3;}
	.st119{fill:#3A82B9;}
	.st120{fill:#64A4D4;}
	.st121{fill:#00427A;}
	.st122{fill:#F8FBFC;}
	.st123{fill:#7EC1E5;}
	.st124{fill:#C1E1F2;}
	.st125{fill:#FCFDFD;}
	.st126{fill:#E5BC2D;}
	.st127{fill:#DEB12D;}
	.st128{fill:#3A4981;}
	.st129{fill:#D19C2C;}
	.st130{fill:#6D6750;}
	.st131{fill:#3B5188;}
	.st132{fill:#4C7FB7;}
	.st133{fill:#3B5892;}
	.st134{fill:#426499;}
	.st135{fill:#4874A9;}
	.st136{fill:#4A3C1D;}
	.st137{fill:#5F7682;}
	.st138{fill:#DDA62B;}
	.st139{fill:#383D75;}
	.st140{fill:#DDAB2C;}
	.st141{fill:#BEBEBE;}
	.st142{fill:none;}
	.st143{clip-path:url(#SVGID_31_);fill:#FFFFFF;}
	.st144{clip-path:url(#SVGID_31_);}
	.st145{clip-path:url(#SVGID_33_);fill:#FFFFFF;}
	.st146{clip-path:url(#SVGID_33_);fill:#B43439;}
	.st147{fill:none;stroke:#CE7535;stroke-width:2;stroke-miterlimit:10;}
</style>
<path class="st49" d="M77.8,18.3c0-2.6,0-5.1,0-7.7c0-0.6-0.1-0.6,0.6-0.7c2.2-0.3,4.5-0.4,6.7-0.1c0.6,0.1,1.2,0.3,1.8,0.5
	c2.3,0.9,3.8,2.5,4.4,4.9c0.5,2,0.4,3.9-0.2,5.9c-0.9,2.9-3,4.6-5.9,5.3c-1.7,0.4-3.5,0.4-5.3,0.3c-0.6,0-1.1-0.1-1.7-0.1
	c-0.5,0-0.5-0.1-0.5-0.6c0-1.6,0-3.2,0-4.8C77.8,20.3,77.8,19.3,77.8,18.3z M80,18.2c0,2.1,0,4.1,0,6.2c0,0.3-0.1,0.5,0.4,0.6
	c1.4,0.1,2.7,0.1,4-0.2c2.5-0.6,4.1-2.1,4.7-4.7c0.3-1.2,0.3-2.4,0.1-3.6c-0.4-2.5-1.9-4.2-4.3-4.8c-1.5-0.4-3-0.3-4.4-0.1
	C80,11.6,80,11.6,80,12.1C80,14.1,80,16.2,80,18.2z M118,24.1c-0.7-2.8-1.6-5.5-2.4-8.2c-0.1-0.4-0.1-1-0.5-1.2
	c-0.4-0.2-0.9-0.1-1.4-0.1c-0.3,0-0.4,0.1-0.5,0.4c-0.9,3-1.9,5.9-2.8,8.9c0,0.2,0,0.4-0.2,0.5c-0.5-2.4-1.2-4.7-1.8-7.1
	c-0.2-0.8-0.4-1.5-0.6-2.3c-0.1-0.2-0.1-0.4-0.4-0.4c-0.6,0-1.3,0-1.9,0c-0.1,0.2,0,0.3,0,0.4c0.5,1.5,0.9,3,1.4,4.5
	c0.7,2.2,1.3,4.4,2,6.6c0.1,0.4,0.2,0.5,0.6,0.5c0.4,0,0.8,0,1.1,0c0.3,0,0.4-0.1,0.5-0.4c0.9-2.9,2.1-5.8,2.8-8.7
	c0-0.1,0-0.2,0.1-0.2c0.1,0,0.1,0.1,0.1,0.1c0.6,2.7,1.6,5.3,2.4,7.9c0.1,0.4,0.1,1,0.5,1.2c0.3,0.3,0.9,0.1,1.3,0.1
	c0.8,0,0.6,0,0.8-0.6c1.2-3.6,2.3-7.3,3.5-10.9c0.1-0.2,0.2-0.3,0.1-0.6c-0.5,0-1.1,0-1.7,0c-0.3,0-0.4,0.1-0.5,0.4
	c-0.8,3-1.8,6-2.4,9.1c0,0.1,0,0.2-0.2,0.3C118.1,24.2,118,24.2,118,24.1z M176.1,24.6c-0.6,1.1-1.5,1.7-2.5,2
	c-2.4,0.8-4.9-0.2-6-2.5c-1.2-2.4-1.1-4.9,0.2-7.2c1.2-2.2,3.6-3.1,5.9-2.4c0.7,0.2,1.4,0.6,1.9,1.2c0.1,0.1,0.1,0.2,0.3,0.2
	c0.1-0.2,0.1-0.4,0.1-0.6c0-2,0-3.9,0-5.9c0-0.5,0-0.5,0.5-0.5c0.4,0,0.9,0,1.3,0c0.3,0,0.4,0.1,0.3,0.4c0,0.2,0,0.3,0,0.5
	c0,4.8,0,9.5,0,14.3c0,0.7,0.1,1.5,0.1,2.2c0,0.4,0,0.4-0.4,0.4c-0.4,0-0.8,0-1.2,0c-0.3,0-0.3-0.1-0.4-0.4
	C176.3,25.8,176.3,25.3,176.1,24.6z M176,20.5c0-0.5,0-1.1-0.1-1.6c-0.2-1.5-1.2-2.5-2.5-2.8c-1.5-0.3-2.8,0.3-3.6,1.6
	c-1,1.8-1,3.7-0.1,5.6c0.7,1.4,2,2,3.6,1.7c1.4-0.2,2.4-1.4,2.7-2.8C176,21.7,176,21.2,176,20.5z M229.1,15.6c0-2,0-4,0-5.9
	c0-0.1,0-0.3,0-0.4c0-0.3-0.1-0.4-0.3-0.4c-0.4,0-0.8,0-1.1,0c-0.8,0-0.7-0.1-0.7,0.7c0,5.4,0,10.8,0,16.2c0,0.2,0,0.3,0,0.5
	c0,0.2,0.1,0.3,0.3,0.3c0.5,0,1.1,0,1.6,0c0.2,0,0.3-0.1,0.3-0.3c0-0.2,0-0.3,0-0.5c0-2.2,0-4.4,0-6.6c0-1.3,0.6-2.2,1.7-2.8
	c1.7-0.9,3.6-0.1,4,1.8c0.1,0.6,0.1,1.1,0.1,1.7c0,2,0,4,0,6.1c0,0.5,0,0.5,0.4,0.5c0.4,0,0.8,0,1.3,0c0.5,0,0.5,0,0.5-0.5
	c0-2.3,0-4.6,0-6.9c0-0.8-0.2-1.7-0.5-2.5c-0.8-1.7-2.5-2.7-4.3-2.4c-1.3,0.2-2.4,0.8-3.3,1.9C229.1,16,229.1,15.8,229.1,15.6z
	 M198.1,20.6c0,0.6-0.1,1.3-0.2,1.9c-0.9,3.5-4,4.7-6.5,4.4c-2.8-0.3-4.8-2.3-5.1-5.2c-0.1-1-0.1-2,0.2-3c0.9-3.3,3.7-4.6,6.4-4.3
	c2.9,0.3,4.9,2.4,5.1,5.3C198.1,19.9,198.1,20.3,198.1,20.6z M195.8,20.6c0-1.1-0.3-2.1-0.7-2.9c-1.3-2.2-4.5-2.3-5.8-0.1
	c-1.1,1.9-1.2,3.9-0.1,5.8c1.4,2.4,4.5,2.4,5.9,0C195.6,22.6,195.8,21.6,195.8,20.6z M142.3,20.6c0-0.8,0.1-1.6,0.3-2.3
	c1-3.1,3.7-4.3,6.3-4c2.9,0.3,4.8,2.3,5.1,5.2c0.1,1,0.1,2-0.2,3c-0.9,3.4-3.9,4.6-6.4,4.3c-2.9-0.3-4.9-2.5-5.1-5.4
	C142.3,21.2,142.3,20.9,142.3,20.6z M144.5,20.6c0,1.1,0.2,2.2,1,3.2c0.7,0.9,1.6,1.5,2.8,1.4c1.4,0,2.4-0.8,3-2
	c0.9-1.8,0.8-3.6,0-5.3c-0.6-1.2-1.6-1.9-3-1.9c-1.4,0-2.4,0.7-3.1,1.9C144.6,18.7,144.5,19.6,144.5,20.6z M93.1,20.7
	c0-0.8,0.1-1.5,0.3-2.2c1-3.2,3.8-4.4,6.4-4.1c2.8,0.3,4.7,2.3,5.1,5.1c0.1,1,0.1,1.9-0.1,2.9c-0.7,3.4-3.7,4.8-6.5,4.5
	c-3-0.3-5-2.6-5.1-5.7C93.1,21,93.1,20.8,93.1,20.7z M95.3,20.6c0,0.9,0.1,1.8,0.6,2.7c0.4,0.8,1.1,1.5,2,1.8
	c1.6,0.6,3.3-0.1,4.1-1.7c1-1.8,0.9-3.7,0-5.6c-0.6-1.1-1.6-1.8-2.9-1.8c-1.4,0-2.4,0.6-3.1,1.8C95.5,18.6,95.3,19.6,95.3,20.6z
	 M248.9,24.6c0.1,0.4,0.2,0.8,0.3,1.2c0.1,0.3,0,0.5-0.3,0.6c-1.1,0.4-2.2,0.5-3.3,0.6c-0.8,0-1.6,0-2.3-0.3
	c-2.3-0.7-3.5-2.3-3.8-4.6c-0.2-1.6-0.1-3.1,0.6-4.6c1.3-2.6,3.8-3.5,6.3-3c1.8,0.4,2.8,1.6,3.3,3.3c0.3,0.8,0.4,1.7,0.3,2.6
	c0,0.7,0,0.7-0.7,0.7c-2.4,0-4.8,0-7.1,0c-0.8,0-0.8,0-0.7,0.8c0.2,2,1.7,3.4,3.8,3.5c0.6,0,1.2,0,1.8-0.1
	C247.7,25,248.3,24.8,248.9,24.6z M241.5,19.4c0.3,0,0.6,0,0.8,0c1.6,0,3.1,0,4.7,0c1.1,0,1.1,0.2,0.9-1c-0.4-2.1-2.5-3.1-4.4-2.1
	C242.2,16.9,241.7,18,241.5,19.4z M156.7,16.8c-0.1-0.4-0.3-0.8-0.4-1.1c-0.1-0.3,0-0.4,0.2-0.5c1.8-0.9,3.6-1.2,5.6-0.6
	c1.5,0.5,2.3,1.7,2.6,3.2c0.1,0.5,0.1,1,0.1,1.5c0,1.7,0,3.3,0,5c0,0.8,0.1,1.5,0.2,2.3c-0.6,0.1-1.2,0-1.8,0
	c-0.2,0-0.2-0.1-0.3-0.3c0-0.4-0.1-0.7-0.1-1.1c-0.3,0.1-0.3,0.3-0.5,0.4c-1.3,1.2-2.8,1.6-4.5,1.1c-2.9-0.8-3.1-4.3-1.4-6
	c0.8-0.9,1.9-1.3,3.1-1.5c0.9-0.2,1.8-0.3,2.7-0.3c0.5,0,0.5,0,0.5-0.5c-0.1-1.5-0.9-2.4-2.4-2.5C159,15.9,157.9,16.2,156.7,16.8z
	 M162.7,21.7C162.7,21.7,162.7,21.7,162.7,21.7c0-0.3,0-0.6,0-0.9c0-0.3-0.1-0.4-0.4-0.4c-0.9,0-1.7,0.1-2.6,0.3
	c-0.4,0.1-0.7,0.2-1,0.4c-1,0.6-1.4,1.8-1,2.9c0.2,0.6,0.7,1,1.2,1.1c2.2,0.5,3.7-1.1,3.7-2.7C162.7,22.2,162.7,22,162.7,21.7z
	 M126.5,15.4c-0.1-0.9,0-0.9-0.9-0.9c-0.2,0-0.5,0-0.7,0c-0.3,0-0.4,0.1-0.4,0.4c0.1,3.7,0.1,7.3,0.1,11c0,0.1,0,0.2,0,0.3
	c0,0.3,0.1,0.4,0.4,0.4c0.4,0,0.8,0,1.2,0c0.6,0,0.6,0,0.6-0.6c0-1.5,0-2.9,0-4.4c0-0.8,0-1.6,0-2.4c0.1-1.2,0.6-2.2,1.7-2.8
	c1.7-0.9,3.6-0.1,4,1.8c0.1,0.5,0.1,1.1,0.1,1.7c0,1.8,0,3.6,0,5.5c0,0.3,0,0.5,0,0.8c0,0.3,0.1,0.4,0.4,0.4c0.4,0,0.8,0,1.2,0
	c0.7,0,0.6,0,0.6-0.6c0-2.2,0-4.4,0-6.6c0-0.5,0-1-0.1-1.5c-0.3-1.7-1.2-3-3-3.5c-1.9-0.5-3.5,0-4.8,1.5c-0.1,0.1-0.2,0.3-0.4,0.4
	C126.5,16,126.5,15.7,126.5,15.4z M202.2,15c0-0.3-0.1-0.5-0.4-0.4c-0.4,0-0.8,0-1.2,0c-0.3,0-0.4,0.1-0.4,0.4
	c0,0.8,0.1,1.6,0.1,2.3c0,2.8,0,5.7,0,8.5c0,0.2,0,0.3,0,0.5c0,0.2,0.1,0.4,0.3,0.4c0.4,0,0.8,0,1.1,0c0.8,0,0.7,0.1,0.7-0.7
	c0-2.1,0-4.2,0-6.3c0-1.1,0.3-2.1,1.2-2.8c1.8-1.5,4.2-0.6,4.6,1.6c0,0.1,0,0.3,0.1,0.4c0.1,0.8,0.1,1.6,0.1,2.4c0,1.6,0,3.3,0,4.9
	c0,0.3,0.1,0.5,0.4,0.4c0.4,0,0.8,0,1.3,0c0.5,0,0.5,0,0.5-0.5c0-2.4,0-4.8,0-7.1c0-0.7-0.1-1.5-0.4-2.1c-0.5-1.2-1.4-2-2.6-2.4
	c-1.8-0.5-3.8,0.1-4.9,1.6c-0.1,0.1-0.1,0.3-0.3,0.3C202.2,15.9,202.2,15.5,202.2,15z M220.3,11.6c-0.4,0.1-0.5,0.2-0.5,0.6
	c0,0.6,0,1.3,0,1.9c0,0.5,0,0.5-0.5,0.5c0,0-0.1,0-0.1,0c-1.3,0-1.3,0-1.2,1.3c0,0.3,0.1,0.4,0.4,0.3c0.4,0,0.8,0,1.2,0
	c0.2,0,0.3,0.1,0.3,0.3c0,0.2,0,0.3,0,0.5c0,1.9,0,3.8,0,5.7c0,0.6,0,1.3,0.2,1.9c0.2,0.9,0.7,1.6,1.6,2c1,0.4,2.1,0.3,3.1,0.1
	c0.2,0,0.3-0.1,0.3-0.3c0-0.5-0.1-0.9-0.1-1.4c-0.5,0.1-1,0.1-1.4,0.1c-0.7,0-1.1-0.4-1.3-1c-0.1-0.4-0.2-0.7-0.2-1.1
	c0-2.1,0-4.2,0-6.3c0-0.3,0.1-0.4,0.4-0.4c0.5,0,1,0,1.5,0c0.4,0,0.8,0.2,1.1-0.1c0.3-0.3,0.1-0.8,0.1-1.1c0-0.4,0-0.5-0.5-0.5
	c-0.7,0-1.3,0-2,0c-0.7,0-0.7,0-0.7-0.6c0-0.9,0-1.8,0-2.8C221.4,11.3,220.9,11.4,220.3,11.6z M137.8,25.9c0,0.2,0,0.3,0,0.5
	c0,0.2,0.1,0.3,0.3,0.3c0.4,0,0.8,0,1.2,0c0.8,0,0.7,0.1,0.7-0.7c0-5.4,0-10.8,0-16.3c0-0.2,0-0.3,0-0.5c0-0.2-0.1-0.3-0.3-0.3
	c-0.6,0-1.1,0-1.7,0c-0.2,0-0.3,0.1-0.3,0.3c0,0.2,0,0.3,0,0.5c0,2.7,0,5.4,0,8.1C137.8,20.5,137.8,23.2,137.8,25.9z M47.8,73.4
	c1.5-0.8,2.8-1.9,3.9-3.2c2.8-3.2,5.1-6.6,6.9-10.5c0.7-1.5,1.3-3.1,1.9-4.7c0.1-0.3,0.1-0.6-0.3-0.7c-0.1,0-0.2-0.1-0.4-0.2
	c-2.2-1.1-4-2.5-5.5-4.4c-3-3.6-4-7.7-3.6-12.2c0.2-2.1,0.8-4.1,1.8-6c0.8-1.4,1.8-2.7,3-3.8c0.9-0.8,1.8-1.5,2.8-2.2
	c0.4-0.2,0.4-0.3,0.1-0.6c-0.5-0.7-1.1-1.4-1.7-2c-1.4-1.4-3.1-2.6-5-3.4c-2.2-1-4.5-1.5-6.8-1.6c-2.3-0.2-4.5,0.3-6.6,1
	c-1.8,0.6-3.5,1.3-5.3,1.8c-2.5,0.8-2.2,0.9-4.9,0c-1.6-0.5-3.2-1.2-4.9-1.7c-2-0.7-4.1-1.1-6.2-0.8c-4,0.4-7.5,2-10.4,4.7
	c-2.2,2-3.8,4.5-5,7.3c-1,2.4-1.5,4.9-1.7,7.5C-0.1,40,0,42.2,0.2,44.5c0.3,2.8,0.9,5.5,1.7,8.2c1,3.1,2.2,6.1,3.8,8.9
	c1.5,2.7,3.3,5.2,5.3,7.7c1.2,1.4,2.5,2.7,4.1,3.8c1.9,1.2,3.9,1.6,6,1.2c1.2-0.2,2.3-0.6,3.4-1c1-0.4,2-0.8,3-1.1
	c2.6-0.8,5.2-0.9,7.9-0.1c1.3,0.4,2.6,0.9,3.9,1.4c1.5,0.6,3,1,5.1,1C45.3,74.3,46.5,74,47.8,73.4z M110.5,60.3c0,0.2,0,0.4,0,0.6
	c0,3,0,6,0,9c0,0.2,0,0.3,0,0.5c0,0.2-0.1,0.3-0.3,0.3c-1,0-2,0-3,0c-0.2,0-0.2-0.1-0.2-0.3c0-0.2,0-0.4,0-0.6c0-7.1,0-14.3,0-21.4
	c0-1.5-0.1-3-0.1-4.5c0-0.3,0.1-0.4,0.4-0.4c0.9,0,1.8,0,2.7,0c0.1,1.1,0.1,2.1,0.2,3.3c0.3-0.2,0.4-0.4,0.5-0.6
	c1.5-2,3.5-2.9,5.9-3c4-0.2,6.7,2.2,7.9,5.3c1.2,3.3,1.2,6.6-0.2,9.8c-2,4.6-6.7,5.7-10.1,4.7c-1.4-0.4-2.5-1.2-3.3-2.3
	c-0.1-0.1-0.1-0.1-0.2-0.2C110.6,60.3,110.6,60.3,110.5,60.3z M121.8,52.9c0-0.2,0-0.6-0.1-1c-0.2-1.6-0.6-3-1.7-4.2
	c-1.3-1.5-3-2-4.9-1.7c-2,0.3-4.3,2.1-4.6,5.4c-0.1,1.3-0.1,2.7,0,4c0.1,1.8,1,3.2,2.5,4.2c2.3,1.5,6,1.2,7.8-2
	C121.5,56.1,121.8,54.6,121.8,52.9z M132.7,43.5c0.2,1.1,0.1,2.1,0.2,3.2c0.2,0,0.3-0.2,0.3-0.3c2.9-4.4,10.3-4.7,13.4,0.7
	c0.7,1.3,1.2,2.7,1.3,4.2c0.2,2.3,0,4.5-0.9,6.6c-2.1,5-7.2,6-10.6,4.8c-1.3-0.5-2.4-1.3-3.2-2.5c-0.1,0.2-0.1,0.4-0.1,0.6
	c0,3,0,6.1,0,9.1c0,0.2,0,0.3,0,0.5c0,0.2-0.1,0.3-0.3,0.3c-1,0-2,0-2.9,0c-0.2,0-0.3-0.1-0.3-0.3c0-0.2,0-0.4,0-0.5
	c0-7,0-13.9,0-20.9c0-1.7-0.1-3.4-0.1-5.1c0-0.5,0-0.5,0.4-0.5C130.9,43.5,131.7,43.5,132.7,43.5z M144.5,52.9c0-0.3,0-0.8-0.1-1.3
	c-0.2-1.4-0.6-2.8-1.6-3.9c-1.3-1.5-3-2.1-5-1.8c-2.5,0.5-4.4,2.7-4.6,5.4c-0.1,1.3,0,2.7,0,4c0.1,1.5,0.7,2.8,1.9,3.8
	c2.3,2,6.8,1.9,8.6-2C144.3,55.8,144.5,54.5,144.5,52.9z M80.7,62.8c0.5-1.5,1-2.8,1.4-4.2c2.5-7.3,5-14.6,7.5-21.9
	c0.3-0.9,0.1-0.8,1.1-0.8c1,0,1.9,0,2.9,0c0.4,0,0.6,0.2,0.7,0.5c1,3.1,2.1,6.2,3.2,9.3c1.9,5.5,3.7,10.9,5.6,16.4
	c0.1,0.2,0.2,0.4,0.1,0.8c-1.1,0-2.2,0-3.4,0c-0.2,0-0.3-0.1-0.4-0.3c-0.2-0.5-0.3-1-0.5-1.5c-0.7-2.1-1.4-4.1-2.1-6.2
	c-0.1-0.4-0.3-0.5-0.7-0.5c-2.8,0-5.7,0-8.5,0c-0.4,0-0.6,0.2-0.7,0.5c-0.8,2.5-1.6,4.9-2.4,7.4c-0.2,0.6-0.2,0.6-0.8,0.6
	C82.8,62.8,81.8,62.8,80.7,62.8z M95.9,51.6c-1.3-4.2-3-8.3-4-12.5c-0.6,2.1-1.2,4.2-1.9,6.3c-0.7,2.1-1.4,4.1-2.1,6.2
	C90.6,51.6,93.2,51.6,95.9,51.6z M159.9,60.6c-0.3,0.9-0.3,0.9,0.6,1.3c1.9,0.9,4,1.2,6.1,1.3c1.7,0,3.3-0.2,4.8-0.9
	c3.9-1.6,5.1-5.3,4.4-8.7c-0.4-1.7-1.3-2.9-2.6-4c-1.2-0.9-2.5-1.5-3.9-2.1c-0.8-0.3-1.7-0.7-2.5-1.1c-0.7-0.3-1.3-0.7-1.9-1.3
	c-1.9-1.8-1.5-4.8,0.8-6.2c0.7-0.4,1.5-0.6,2.3-0.7c1.9-0.1,3.8,0.2,5.5,1c0.1,0.1,0.2,0.2,0.4,0.1c0.2-0.6,0.4-1.3,0.7-1.9
	c0.3-0.9,0.3-0.9-0.5-1.2c-2.4-1-4.9-1.2-7.5-0.7c-1.5,0.3-2.9,0.9-4.1,1.9c-3,2.5-3.3,7.3-0.2,10.1c0.7,0.6,1.4,1.1,2.2,1.6
	c0.8,0.4,1.6,0.8,2.5,1.1c1.3,0.5,2.5,1,3.6,1.8c1.5,1.2,2.1,3.1,1.5,5c-0.5,1.6-1.7,2.5-3.2,2.9c-1.4,0.4-2.9,0.4-4.4,0.1
	c-1.4-0.3-2.8-0.8-4.1-1.5C160.3,59.2,160.1,59.9,159.9,60.6z M211,53c0,1.5-0.2,2.9-0.7,4.3c-1.4,3.5-4,5.3-7.6,5.9
	c-1.4,0.2-2.8,0.1-4.2-0.3c-2.8-0.9-4.8-2.8-5.8-5.6c-1-2.7-0.9-5.5,0.1-8.2c1.2-3.3,4.2-5.6,8.2-5.9c1.6-0.1,3.2,0.1,4.7,0.8
	c2.7,1.3,4.2,3.4,4.9,6.3C210.9,51.1,211,52.1,211,53z M207.4,52.7c0-1.4-0.4-3.1-1.4-4.6c-1.3-1.9-3.2-2.7-5.6-2.3
	c-1.8,0.3-3,1.4-3.8,3c-0.9,1.8-1.1,3.6-0.9,5.6c0.2,1.6,0.7,3,1.8,4.2c1,1.2,2.3,1.8,3.9,1.9c2.1,0,3.7-1,4.8-2.8
	C207,56.4,207.4,54.8,207.4,52.7z M242,59.6c0.2,0.7,0.3,1.4,0.5,2.2c0.1,0.2-0.1,0.3-0.2,0.3c-0.5,0.2-1,0.4-1.5,0.5
	c-2.3,0.6-4.6,0.8-7,0.4c-3.5-0.7-5.8-2.7-6.8-6.1c-0.9-3.1-0.6-6.2,0.9-9.1c2.3-4.4,6.8-5.3,10.4-4.3c1.9,0.6,3.2,1.8,4.2,3.5
	c1,1.9,1.3,4,1.2,6.2c0,0.6-0.1,0.6-0.7,0.6c-4.1,0-8.1,0-12.2,0c-0.9,0-0.8-0.1-0.7,0.8c0,0.6,0.2,1.1,0.3,1.7
	c0.8,2.4,2.8,3.9,5.4,4.1c2,0.1,4-0.1,5.9-0.8C241.7,59.5,241.8,59.5,242,59.6z M230,51.2c0.3,0.1,0.5,0.1,0.8,0.1
	c2.9,0,5.7,0,8.6,0c0.2,0,0.4,0,0.5,0c0.2,0,0.4-0.1,0.3-0.3c-0.1-1-0.2-1.9-0.7-2.8c-0.4-0.8-1-1.5-1.8-1.9c-1.9-1-4.3-0.6-5.8,0.9
	C230.8,48.1,230.3,49.6,230,51.2z M45.2,0.5c0-0.5,0-0.5-0.5-0.5c-0.5,0-1,0.1-1.4,0.2c-3.4,0.9-6.4,2.5-8.8,5.1
	c-1.1,1.2-2,2.5-2.7,3.9c-0.9,1.8-1.4,3.7-1.6,5.7c0,0.7-0.1,1.3,0,2c0,0.3,0.2,0.3,0.4,0.4c2.3,0.1,4.5-0.4,6.5-1.6
	c2.1-1.3,3.8-3,5.2-5.1c1.8-2.7,2.9-5.7,2.9-9C45.2,1.2,45.2,0.9,45.2,0.5z M181.8,38.7c-0.5,0.1-0.5,0.1-0.5,0.7c0,1.2,0,2.4,0,3.7
	c0,0.3-0.1,0.5-0.5,0.5c-0.7,0-1.4,0-2.1,0c-0.4,0-0.5,0.1-0.4,0.5c0,0.6,0,1.2,0,1.8c0,0.4,0.1,0.4,0.5,0.4c0.7,0,1.5,0,2.2,0
	c0.3,0,0.4,0.1,0.4,0.3c0,0.2,0,0.3,0,0.5c0,3.3,0,6.6,0,9.9c0,0.8,0,1.6,0.2,2.3c0.4,2.1,1.6,3.4,3.5,3.9c0.7,0.2,1.5,0.2,2.3,0.1
	c0.7-0.1,1.3-0.1,2-0.3c0.2-0.1,0.3-0.2,0.3-0.4c0-0.6-0.1-1.3-0.1-1.9c0-0.3-0.2-0.4-0.5-0.3c-0.6,0.1-1.1,0.2-1.7,0.1
	c-1.2,0-2-0.6-2.3-1.8c-0.2-0.7-0.2-1.4-0.2-2c0-3.2,0-6.5,0-9.7c0-0.6,0-0.6,0.6-0.6c1.3,0,2.7,0,4,0c0.3,0,0.5-0.1,0.5-0.4
	c0-0.6,0-1.2,0-1.7c0-0.5,0-0.5-0.5-0.5c-1.2,0-2.4,0-3.7,0c-1,0-0.9,0.2-0.9-0.8c0-1.3,0-2.7,0-4c0-0.2,0.1-0.4-0.1-0.7
	C183.7,38.2,182.8,38.4,181.8,38.7z M218.4,46.8c0-1-0.1-1.9-0.1-2.9c0-0.3-0.1-0.5-0.4-0.5c-0.8,0-1.5,0-2.3,0
	c-0.3,0-0.4,0.1-0.4,0.4c0.1,0.9,0.1,1.9,0.1,2.8c0,5.1,0,10.2,0,15.3c0,0.2,0,0.4,0,0.5c0,0.2,0.1,0.3,0.3,0.3c1,0,1.9,0,2.9,0
	c0.2,0,0.3-0.1,0.3-0.3c0-0.2,0-0.3,0-0.5c0-3.1,0-6.2,0-9.3c0-1.3,0.2-2.6,0.8-3.7c0.7-1.3,1.7-2.2,3.2-2.5c0.6-0.1,1.1-0.1,1.7,0
	c0.2,0,0.4,0,0.4-0.3c0-0.9,0-1.8,0-2.7c0-0.3-0.1-0.3-0.4-0.4c-0.5,0-1.1,0-1.6,0.1c-2,0.4-3.2,1.6-4.1,3.4
	c-0.1,0.2-0.1,0.5-0.3,0.7C218.4,47.1,218.4,46.9,218.4,46.8z"/>
</svg>
