<?xml version="1.0" encoding="utf-8"?>
<!-- Generator: Adobe Illustrator 22.1.0, SVG Export Plug-In . SVG Version: 6.00 Build 0)  -->
<svg version="1.1" id="Capa_1" xmlns="http://www.w3.org/2000/svg" xmlns:xlink="http://www.w3.org/1999/xlink" x="0px" y="0px"
	 viewBox="0 0 26.2 26.2" style="enable-background:new 0 0 26.2 26.2;" xml:space="preserve">
<style type="text/css">
	.st0{fill:#F1F1F1;}
	.st1{fill:#FFFFFF;}
	.st2{fill:#0187CD;}
	.st3{opacity:0.55;clip-path:url(#SVGID_2_);}
	.st4{opacity:0.55;clip-path:url(#SVGID_4_);}
	.st5{opacity:0.5;fill:none;stroke:#BEBEBE;stroke-miterlimit:10;}
	.st6{fill:#D8D8D8;}
	.st7{fill:#BEBEBE;}
	.st8{fill:#004485;}
	.st9{opacity:0.55;}
	.st10{fill:#004484;}
	.st11{fill:#87888B;}
	.st12{fill:#2F4C87;}
	.st13{fill:#E1E2E3;}
	.st14{fill:#C47930;}
	.st15{fill:#C3C3C3;}
	.st16{fill:#A4D523;}
	.st17{fill:#27608D;}
	.st18{fill:#749323;}
	.st19{fill:#FF0000;}
	.st20{fill:#CE7535;}
	.st21{fill:#265D9B;}
	.st22{opacity:5.000000e-02;}
	.st23{clip-path:url(#SVGID_6_);fill:#FFFFFF;}
	.st24{fill:#304483;}
	.st25{fill:#9D9FA1;}
	.st26{opacity:0.8;}
	.st27{fill:url(#SVGID_7_);}
	.st28{fill:url(#SVGID_8_);}
	.st29{opacity:0.3;fill:#FFFFFF;stroke:#FFFFFF;stroke-miterlimit:10;}
	.st30{opacity:5.000000e-02;fill:#004484;}
	.st31{opacity:0.15;fill:#004484;}
	.st32{opacity:0.3;fill:#004484;}
	.st33{opacity:0.4;fill:#004484;}
	.st34{opacity:0.5;fill:#004484;}
	.st35{opacity:0.6;fill:#004484;}
	.st36{opacity:0.7;fill:#004484;}
	.st37{opacity:0.8;fill:#004484;}
	.st38{opacity:0.9;fill:#004484;}
	.st39{fill:url(#SVGID_9_);}
	.st40{fill:none;stroke:#265D9B;stroke-width:1.5;stroke-miterlimit:10;}
	.st41{opacity:0.85;fill:#FFFFFF;}
	.st42{opacity:0.85;fill:#9D9FA1;}
	.st43{opacity:0.75;}
	.st44{fill:#2B6BA7;}
	.st45{fill:none;stroke:#265D9B;stroke-width:3;stroke-miterlimit:10;}
	.st46{fill:none;stroke:#CE7535;stroke-width:3;stroke-miterlimit:10;}
	.st47{fill:url(#SVGID_10_);stroke:#265D9B;stroke-miterlimit:10;}
	.st48{fill:url(#SVGID_11_);stroke:#265D9B;stroke-miterlimit:10;}
	.st49{fill:#F3F3F3;}
	.st50{fill:#040707;}
	.st51{fill:#6F7175;}
	.st52{fill:#01CCF7;}
	.st53{fill:#00C0F5;}
	.st54{fill:#707276;}
	.st55{fill:#04E777;}
	.st56{fill:#04D8F7;}
	.st57{fill:#F6C302;}
	.st58{fill:#D83155;}
	.st59{fill:#E9354C;}
	.st60{fill:#F6CE05;}
	.st61{fill:#F33A45;}
	.st62{fill:#4D4D4D;}
	.st63{opacity:0.5;}
	.st64{fill:none;stroke:#FFFFFF;stroke-width:3;stroke-miterlimit:10;}
	.st65{fill:none;stroke:#808080;stroke-width:1.5;stroke-miterlimit:10;}
	.st66{fill:#0039A6;}
	.st67{opacity:0.5;fill:none;stroke:#C3C3C3;stroke-miterlimit:10;}
	.st68{fill:url(#SVGID_12_);stroke:#265D9B;stroke-miterlimit:10;}
	.st69{fill:url(#SVGID_13_);stroke:#265D9B;stroke-miterlimit:10;}
	.st70{fill:url(#SVGID_14_);stroke:#265D9B;stroke-miterlimit:10;}
	.st71{fill:url(#SVGID_15_);stroke:#265D9B;stroke-miterlimit:10;}
	.st72{fill:none;stroke:#265D9B;stroke-width:0.25;stroke-miterlimit:10;}
	.st73{fill:#6D6D6D;}
	.st74{fill:#8CBF37;}
	.st75{fill:#0C6F9E;}
	.st76{fill:#DFB70E;}
	.st77{fill:#FAA93F;}
	.st78{fill:#6B7137;}
	.st79{fill:#AA6A43;}
	.st80{fill:#147DA1;}
	.st81{fill:#428B44;}
	.st82{fill:#E81D24;}
	.st83{fill:#8BC548;}
	.st84{fill:#0CB8B8;}
	.st85{fill:#002B51;}
	.st86{fill:#A5A7AA;}
	.st87{fill:#6F7173;}
	.st88{fill:#707274;}
	.st89{fill:#A6A8AB;}
	.st90{fill:#A6A7AA;}
	.st91{fill:#A6A8AA;}
	.st92{fill:#6E7072;}
	.st93{clip-path:url(#SVGID_19_);fill:#FFFFFF;}
	.st94{clip-path:url(#SVGID_19_);}
	.st95{fill:#054B8D;}
	.st96{fill:#B12E33;}
	.st97{fill:#B43439;}
	.st98{fill:#B32E33;}
	.st99{fill:#B02D32;}
	.st100{fill:#25AAC9;}
	.st101{clip-path:url(#SVGID_21_);fill:#FFFFFF;}
	.st102{clip-path:url(#SVGID_21_);fill:#B43439;}
	.st103{clip-path:url(#SVGID_23_);fill:#FFFFFF;}
	.st104{fill:#004D8D;}
	.st105{fill:none;stroke:#F3F3F3;stroke-miterlimit:10;}
	.st106{clip-path:url(#SVGID_25_);fill:#FFFFFF;}
	.st107{clip-path:url(#SVGID_25_);}
	.st108{clip-path:url(#SVGID_27_);fill:#FFFFFF;}
	.st109{clip-path:url(#SVGID_27_);fill:#B43439;}
	.st110{fill:none;stroke:#FFFFFF;stroke-miterlimit:10;}
	.st111{fill:none;stroke:#CE7535;stroke-miterlimit:10;}
	.st112{fill:none;stroke:#000000;stroke-miterlimit:10;}
	.st113{fill:#015594;}
	.st114{fill:#085A98;}
	.st115{fill:#2497D4;}
	.st116{fill:#10619E;}
	.st117{fill:#4C91C5;}
	.st118{fill:#2673AD;}
	.st119{fill:#1A68A4;}
	.st120{fill:#327CB3;}
	.st121{fill:#3A82B9;}
	.st122{fill:#64A4D4;}
	.st123{fill:#00427A;}
	.st124{fill:#F8FBFC;}
	.st125{fill:#7EC1E5;}
	.st126{fill:#C1E1F2;}
	.st127{fill:#FCFDFD;}
	.st128{fill:#E5BC2D;}
	.st129{fill:#DEB12D;}
	.st130{fill:#3A4981;}
	.st131{fill:#D19C2C;}
	.st132{fill:#6D6750;}
	.st133{fill:#3B5188;}
	.st134{fill:#4C7FB7;}
	.st135{fill:#3B5892;}
	.st136{fill:#426499;}
	.st137{fill:#4874A9;}
	.st138{fill:#4A3C1D;}
	.st139{fill:#5F7682;}
	.st140{fill:#DDA62B;}
	.st141{fill:#383D75;}
	.st142{fill:#DDAB2C;}
	.st143{fill:none;}
	.st144{clip-path:url(#SVGID_31_);fill:#FFFFFF;}
	.st145{clip-path:url(#SVGID_31_);}
	.st146{clip-path:url(#SVGID_33_);fill:#FFFFFF;}
	.st147{clip-path:url(#SVGID_33_);fill:#B43439;}
	.st148{fill:none;stroke:#CE7535;stroke-width:2;stroke-miterlimit:10;}
</style>
<g>
	<path class="st66" d="M7.2,0c3.9,0,7.9,0,11.8,0c0,0,0,0,0.1,0c0.4,0,0.9,0.1,1.3,0.2c1.2,0.3,2.2,0.8,3.1,1.6
		c1.6,1.4,2.5,3.1,2.7,5.2c0,0.1,0,0.2,0,0.2c0,3.9,0,7.9,0,11.8c0,0,0,0,0,0.1c-0.1,1.4-0.5,2.6-1.3,3.8c-1.5,2.1-4,3.3-6.6,3.3
		c-3.5,0-7,0-10.5,0c-0.3,0-0.7,0-1,0c-0.7-0.1-1.5-0.3-2.1-0.6c-1.6-0.7-2.8-1.8-3.7-3.4C0.3,21.1,0,19.8,0,18.4
		c0-3.6,0-7.3,0-10.9c0-0.7,0.1-1.4,0.3-2.1C0.7,4,1.6,2.7,2.8,1.8C4,0.8,5.4,0.2,7,0C7,0,7.1,0,7.2,0z M2.2,12.9c0,1.8,0,3.7,0,5.5
		c0,0.3,0,0.7,0.1,1c0.2,1.3,0.9,2.4,1.9,3.3c1,0.9,2.2,1.3,3.5,1.3c3.7,0,7.4,0,11,0c0.3,0,0.7,0,1-0.1c1-0.2,2-0.6,2.7-1.3
		c1.3-1.1,1.9-2.6,1.9-4.3c0-3.7,0-7.3,0-11c0-0.3,0-0.5-0.1-0.8c-0.1-1-0.5-2-1.2-2.8c-1.1-1.3-2.5-2-4.3-2c-3.7,0-7.4,0-11.1,0
		c-0.5,0-0.9,0-1.4,0.2C4.9,2.3,3.7,3.2,2.9,4.6C2.4,5.4,2.2,6.4,2.2,7.4C2.2,9.2,2.2,11,2.2,12.9z"/>
	<path class="st66" d="M6.1,12.9c0-3.9,3.2-7.1,7.1-7.1c3.9,0,7.1,3.2,7,7.1c0,3.9-3.2,7.1-7.1,7.1C9.3,20,6.1,16.8,6.1,12.9z
		 M13.2,7.8c-2.8,0-5.1,2.2-5.1,5c0,2.8,2.2,5.1,5,5.1c2.8,0,5.1-2.2,5.1-5.1C18.2,10.1,16,7.8,13.2,7.8z"/>
	<path class="st66" d="M20.8,3.8c0.8,0,1.5,0.7,1.5,1.5c0,0.8-0.7,1.5-1.5,1.5c-0.8,0-1.5-0.7-1.5-1.5C19.3,4.5,19.9,3.8,20.8,3.8z"
		/>
</g>
</svg>
