<?xml version="1.0" encoding="utf-8"?>
<!-- Generator: Adobe Illustrator 22.1.0, SVG Export Plug-In . SVG Version: 6.00 Build 0)  -->
<svg version="1.1" id="Capa_1" xmlns="http://www.w3.org/2000/svg" xmlns:xlink="http://www.w3.org/1999/xlink" x="0px" y="0px"
	 viewBox="0 0 29 28.8" style="enable-background:new 0 0 29 28.8;" xml:space="preserve">
<style type="text/css">
	.st0{fill:none;stroke:#CF7535;stroke-width:4;stroke-miterlimit:10;}
	.st1{opacity:0.5;fill:none;stroke:#000000;stroke-miterlimit:10;}
	.st2{fill:#F1F4F5;}
	.st3{fill:#FFFFFF;}
	.st4{fill:none;stroke:#B3B3B3;stroke-width:0.5;stroke-miterlimit:10;}
	.st5{fill:#F2F2F2;stroke:#B3B3B3;stroke-width:0.5;stroke-miterlimit:10;}
	.st6{fill:#FFFFFF;stroke:#CCCCCC;stroke-miterlimit:10;}
	.st7{fill:#F4F4F4;}
	.st8{fill:#F2F2F2;}
	.st9{fill:none;stroke:#CCCCCC;stroke-width:0.75;stroke-miterlimit:10;}
	.st10{fill:none;stroke:#004485;stroke-width:0.5;stroke-miterlimit:10;}
	.st11{fill:#004485;}
	.st12{fill:#F7F7F7;}
	.st13{fill:#CF7535;}
	.st14{opacity:7.000000e-02;}
	.st15{fill:#9EA0A2;}
	.st16{fill:#88898C;}
	.st17{fill:#2F4C88;}
	.st18{fill:#E2E3E4;}
	.st19{fill:#C57930;}
	.st20{fill:#009245;}
	.st21{fill:none;stroke:#E6E6E6;stroke-width:0.5;stroke-miterlimit:10;}
	.st22{opacity:0.15;}
	.st23{clip-path:url(#SVGID_4_);fill:#FFFFFF;}
	.st24{fill:#304484;}
	.st25{fill:#F2F2F2;stroke:#CCCCCC;stroke-miterlimit:10;}
	.st26{fill:#999999;}
	.st27{fill:none;stroke:#25ABCA;stroke-width:0.5;stroke-miterlimit:10;}
	.st28{fill:#25ABCA;}
	.st29{fill:#CCCCCC;}
	.st30{fill:none;stroke:#2B6BA8;stroke-width:0.75;stroke-miterlimit:10;}
	.st31{fill:#0091FF;}
	.st32{fill:#808080;}
	.st33{opacity:7.000000e-02;fill:#9EA0A2;}
	.st34{fill:#666666;}
	.st35{fill:#004485;stroke:#004485;stroke-width:2;stroke-miterlimit:10;}
	.st36{fill:none;stroke:#B3B3B3;stroke-width:2;stroke-linecap:round;stroke-linejoin:round;stroke-miterlimit:10;}
	.st37{fill:none;stroke:#FFFFFF;stroke-miterlimit:10;}
	.st38{fill:none;stroke:#FFFFFF;stroke-linecap:round;stroke-linejoin:round;stroke-miterlimit:10;}
	.st39{fill:#B3B3B3;}
	.st40{fill:#87888B;}
	.st41{opacity:0.85;fill:#FFFFFF;}
	.st42{opacity:0.85;fill:#9D9FA1;}
	.st43{fill:#C47930;}
	.st44{opacity:0.15;fill:none;stroke:#304484;stroke-miterlimit:10;}
	.st45{fill:#CE7535;}
	.st46{fill:#46BE8A;}
	.st47{fill:none;stroke:#999999;stroke-width:0.5;stroke-miterlimit:10;}
	.st48{fill:none;stroke:#CCCCCC;stroke-miterlimit:10;}
	.st49{fill:#FFEEEE;}
	.st50{fill:#E25142;}
	.st51{fill:none;stroke:#B3B3B3;stroke-miterlimit:10;}
	.st52{fill:#E6F0FF;}
	.st53{fill:#E9F8FF;}
	.st54{fill:#E3FFE6;}
	.st55{fill:none;stroke:#46BE8A;stroke-width:2;stroke-linecap:round;stroke-linejoin:round;stroke-miterlimit:10;}
	.st56{fill:none;stroke:#004485;stroke-miterlimit:10;}
	.st57{fill:none;stroke:#CCCCCC;stroke-width:0.5;stroke-miterlimit:10;}
	.st58{fill:none;stroke:#4D4D4D;stroke-width:0.5;stroke-miterlimit:10;}
	.st59{fill:none;stroke:#9EA0A2;stroke-width:0.5;stroke-miterlimit:10;}
	.st60{fill:none;stroke:#2F4C88;stroke-width:0.5;stroke-miterlimit:10;}
	.st61{fill:#EFEFEF;}
	.st62{fill:none;stroke:#050505;stroke-width:0.5;stroke-miterlimit:10;}
	.st63{opacity:0.14;fill:#B3B3B3;}
	.st64{fill:none;stroke:#CF7535;stroke-width:0.55;stroke-miterlimit:10;}
	.st65{fill:none;stroke:#666666;stroke-width:0.5;stroke-miterlimit:10;}
	.st66{fill:#004484;}
	.st67{clip-path:url(#SVGID_10_);fill:#FFFFFF;}
	.st68{clip-path:url(#SVGID_10_);}
	.st69{fill:#054B8D;}
	.st70{fill:#B12E33;}
	.st71{fill:#B43439;}
	.st72{fill:#B32E33;}
	.st73{fill:#B02D32;}
	.st74{clip-path:url(#SVGID_12_);fill:#FFFFFF;}
	.st75{clip-path:url(#SVGID_12_);fill:#B43439;}
	.st76{fill:#27608D;}
	.st77{fill:#749323;}
	.st78{fill:#EBFFF2;}
	.st79{fill:none;stroke:#CF7535;stroke-miterlimit:10;}
	.st80{opacity:0.2;fill:#2F4C88;}
	.st81{fill:none;stroke:#265D9B;stroke-width:0.5;stroke-miterlimit:10;}
	.st82{fill:none;stroke:#CF7535;stroke-width:0.5;stroke-miterlimit:10;}
	.st83{clip-path:url(#SVGID_14_);fill:#FFFFFF;}
	.st84{clip-path:url(#SVGID_14_);}
	.st85{fill:#25AAC9;}
	.st86{fill:#265D9B;}
	.st87{clip-path:url(#SVGID_16_);fill:#FFFFFF;}
	.st88{clip-path:url(#SVGID_16_);}
	.st89{fill:none;}
	.st90{fill:#004485;stroke:#004485;stroke-width:0.75;stroke-miterlimit:10;}
	.st91{fill:#8CC63F;}
	.st92{fill:none;stroke:#FFFFFF;stroke-width:0.5;stroke-miterlimit:10;}
	.st93{opacity:0.7;}
	.st94{fill:#8CBF37;}
	.st95{fill:#0C6F9E;}
	.st96{fill:#DFB70E;}
	.st97{fill:#FAA93F;}
	.st98{fill:#6B7137;}
	.st99{fill:#AA6A43;}
	.st100{fill:#147DA1;}
	.st101{fill:#428B44;}
	.st102{fill:#E81D24;}
	.st103{fill:#8BC548;}
	.st104{fill:#0CB8B8;}
	.st105{fill:#0187CD;}
	.st106{fill:#6D6D6D;}
	.st107{fill:#015594;}
	.st108{fill:#085A98;}
	.st109{fill:#2497D4;}
	.st110{fill:#10619E;}
	.st111{fill:#4C91C5;}
	.st112{fill:#2673AD;}
	.st113{fill:#1A68A4;}
	.st114{fill:#327CB3;}
	.st115{fill:#3A82B9;}
	.st116{fill:#64A4D4;}
	.st117{fill:#00427A;}
	.st118{fill:#F8FBFC;}
	.st119{fill:#7EC1E5;}
	.st120{fill:#C1E1F2;}
	.st121{fill:#FCFDFD;}
	.st122{fill:#002B51;}
	.st123{fill:#B0CB3C;}
	.st124{fill:#E72476;}
	.st125{fill:#B0CD3B;}
	.st126{fill:#B0CC3C;}
	.st127{fill:#B1CA3D;}
	.st128{fill:#1C4794;}
	.st129{fill:#18A6C1;}
	.st130{fill:#C3C3C3;}
	.st131{fill:none;stroke:#004485;stroke-width:0.6;stroke-miterlimit:10;}
	.st132{clip-path:url(#SVGID_18_);fill:#FFFFFF;}
	.st133{clip-path:url(#SVGID_18_);fill:#B43439;}
	.st134{fill:none;stroke:#00B9FF;stroke-width:0.5;stroke-miterlimit:10;}
	.st135{clip-path:url(#SVGID_20_);fill:#FFFFFF;}
	.st136{clip-path:url(#SVGID_20_);}
	.st137{clip-path:url(#SVGID_22_);fill:#FFFFFF;}
	.st138{clip-path:url(#SVGID_22_);}
	.st139{clip-path:url(#SVGID_24_);fill:#FFFFFF;}
	.st140{clip-path:url(#SVGID_24_);fill:#B43439;}
	.st141{clip-path:url(#SVGID_26_);fill:#FFFFFF;}
	.st142{clip-path:url(#SVGID_26_);}
	.st143{clip-path:url(#SVGID_28_);fill:#FFFFFF;}
	.st144{clip-path:url(#SVGID_28_);}
	.st145{clip-path:url(#SVGID_30_);fill:#FFFFFF;}
	.st146{clip-path:url(#SVGID_30_);fill:#B43439;}
	.st147{clip-path:url(#SVGID_32_);fill:#FFFFFF;}
	.st148{clip-path:url(#SVGID_32_);}
	.st149{clip-path:url(#SVGID_34_);fill:#FFFFFF;}
	.st150{clip-path:url(#SVGID_34_);}
	.st151{clip-path:url(#SVGID_36_);fill:#FFFFFF;}
	.st152{clip-path:url(#SVGID_36_);fill:#B43439;}
	.st153{opacity:0.55;}
	.st154{fill:#2F4C87;}
	.st155{fill:#E1E2E3;}
	.st156{fill:#A4D523;}
	.st157{fill:#FF0000;}
	.st158{clip-path:url(#SVGID_40_);fill:#FFFFFF;}
	.st159{clip-path:url(#SVGID_40_);}
	.st160{clip-path:url(#SVGID_42_);fill:#FFFFFF;}
	.st161{clip-path:url(#SVGID_42_);fill:#B43439;}
	.st162{fill:none;stroke:#000000;stroke-miterlimit:10;}
	.st163{fill:none;stroke:#0091FF;stroke-miterlimit:10;}
	.st164{opacity:0.5;}
	.st165{clip-path:url(#SVGID_44_);fill:#FFFFFF;}
	.st166{clip-path:url(#SVGID_44_);}
	.st167{clip-path:url(#SVGID_46_);fill:#FFFFFF;}
	.st168{clip-path:url(#SVGID_46_);fill:#B43439;}
	.st169{clip-path:url(#SVGID_48_);fill:#FFFFFF;}
	.st170{clip-path:url(#SVGID_48_);}
	.st171{clip-path:url(#SVGID_50_);fill:#FFFFFF;}
	.st172{clip-path:url(#SVGID_50_);}
	.st173{clip-path:url(#SVGID_52_);fill:#FFFFFF;}
	.st174{clip-path:url(#SVGID_52_);fill:#B43439;}
	.st175{fill:none;stroke:#CF7535;stroke-width:2;stroke-miterlimit:10;}
</style>
<g>
	<circle class="st105" cx="14.6" cy="14.3" r="14.3"/>
	<g>
		<path class="st105" d="M7,26.8c-4-2.4-6.3-5.9-6.9-10.5C-0.7,9.5,3.4,3.1,10,1.1c6.3-1.9,13.1,0.6,16.5,6.3
			c0.1,0.2,0.2,0.4,0.3,0.5c-0.6,0.1-1.1,0.4-1.7,0.6C24.7,8.7,24.3,8.8,24,9c-0.4,0.1-0.8,0.2-1.1,0.4c-0.2,0.1-0.4,0.2-0.6,0.3
			c-0.6,0.2-1.2,0.5-1.9,0.7c-0.3-0.3-0.6-0.6-0.9-0.8c-0.2-0.3-0.5-0.4-0.8-0.7c-0.2-0.3-0.5-0.5-0.8-0.7c-0.2-0.4-0.7-0.6-1-0.9
			c-0.4-0.5-1-0.9-1.4-1.3c-0.2-0.2-0.4-0.5-0.8-0.6c-0.2-0.4-0.6-0.6-0.8-0.9c-0.3-0.4-0.6-0.3-0.9,0.1c-0.9,0.6-1.6,1.4-2.4,2.1
			C9.2,8,7.9,9.1,6.6,10.3c-0.5,0.5-0.5,0.7,0.1,0.9c1,0.3,1,0.9,0.9,1.7c0,0.3,0,0.5,0,0.8c0,0.3-0.1,0.4-0.4,0.4
			c-0.9,0.1-1.7,0.3-2.5,0.8c-0.2,0.1-0.4,0.3-0.4,0.6c0,1.2,0,2.3,0,3.5c0,0.3,0.2,0.4,0.4,0.5c0.8,0.4,1.7,0.6,2.5,0.7
			c0,0.2,0,0.4,0,0.7C7.2,22.8,7,24.8,7,26.8z"/>
		<path class="st105" d="M27,8.4c1.1,2.3,1.7,4.7,1.4,7.3c-0.5,5.4-3.3,9.3-8.1,11.7c-0.1,0.1-0.2,0.1-0.4,0.1
			c0-1.4-0.3-2.9-0.3-4.3c-0.1-1-0.1-2.1-0.3-3.1c0.9-0.1,1.8-0.3,2.7-0.7c0.2-0.1,0.3-0.2,0.3-0.5c0.2-0.6,0.1-1.2,0.1-1.7
			c0-0.7,0.1-1.4-0.1-2.1c0.1,0,0.1-0.1,0.2-0.1c0.3,0.1,0.5,0.1,0.8,0.2c0.4,0.2,0.8,0.3,1.2,0.3c0.4,0.2,0.8,0.3,1.2,0.3
			c0.3,0.3,0.7,0.2,1,0.3c0.5,0.2,0.6,0,0.6-0.5c-0.1-0.9-0.2-1.8-0.2-2.6c-0.1-1.4-0.2-2.9-0.3-4.3C26.7,8.6,26.7,8.4,27,8.4z"/>
		<path class="st107" d="M7,26.8c0.1-2,0.3-4,0.4-6c0-0.2,0-0.4,0-0.7c0-0.1,0.1-0.2,0.1-0.4c0-0.4,0.1-0.5,0.5-0.6
			c1.3-0.2,2.7-0.3,4-0.3C12,19.2,12,19.5,12,19.8c0,2.7,0,5.4,0,8.2c0,0.2,0.1,0.4-0.1,0.6c-0.1,0-0.1,0-0.2,0
			c-0.1-0.1-0.2-0.1-0.4-0.1C9.7,28.2,8.3,27.7,7,26.8z"/>
		<path class="st108" d="M11.9,28.6c0.2-0.2,0.1-0.4,0.1-0.6c0-2.7,0-5.4,0-8.2c0-0.3,0-0.6,0.1-0.9c0.6,0,1.1,0,1.7,0
			c0,3.3,0,6.6,0,9.9C13.1,28.8,12.5,28.7,11.9,28.6z"/>
		<path class="st109" d="M27,8.4c-0.3,0-0.2,0.2-0.2,0.4c0.2,1.4,0.3,2.8,0.3,4.3c0,0.9,0.1,1.8,0.2,2.6c0,0.5-0.1,0.7-0.6,0.5
			c-0.3-0.1-0.7-0.1-1-0.3c0-0.3-0.1-0.6-0.1-0.9c-0.1-1.8-0.2-3.6-0.3-5.3c0-0.4,0-0.7-0.2-1.1c0.5-0.3,1.1-0.6,1.7-0.6
			C26.9,8,27,8.2,27,8.4z"/>
		<path class="st110" d="M13.8,28.8c0-3.3,0-6.6,0-9.9c0.4,0,0.9,0,1.3,0c-0.1,0.5-0.1,1-0.1,1.5c0,2.5,0,5.1,0,7.6
			c0,0.2,0,0.5-0.1,0.7C14.5,28.8,14.1,28.8,13.8,28.8z"/>
		<path class="st111" d="M19.3,20.1c0.2,1,0.2,2.1,0.3,3.1c-0.3,0-0.2,0.3-0.2,0.4c0,1.4,0,2.8,0,4.1c-0.4,0.2-0.7,0.3-1.1,0.4
			c-0.1-0.2-0.1-0.5-0.1-0.8c0-2.8,0-5.5,0-8.3C19.3,19.2,19.3,19.2,19.3,20.1z"/>
		<path class="st112" d="M16.9,28.6c-0.3,0.1-0.6,0.2-0.9,0.1c0-3.2,0-6.4,0-9.6c0.4,0,0.7,0,1.1,0c0,2.9,0,5.9,0,8.8
			C17.1,28.1,17.2,28.4,16.9,28.6z"/>
		<path class="st113" d="M16,19c0,3.2,0,6.4,0,9.6c-0.4,0.1-0.7,0.1-1.1,0.1c0.1-0.2,0.1-0.5,0.1-0.7c0-2.5,0-5.1,0-7.6
			c0-0.5,0-1,0.1-1.5C15.4,19,15.7,18.8,16,19z"/>
		<path class="st114" d="M16.9,28.6c0.3-0.2,0.2-0.4,0.2-0.7c0-2.9,0-5.9,0-8.8c0.2,0,0.4-0.1,0.6,0.1c0,3.1,0,6.2,0,9.2
			C17.4,28.5,17.1,28.5,16.9,28.6z"/>
		<path class="st115" d="M17.6,28.4c0-3.1,0-6.2,0-9.2c0.2,0,0.4,0,0.6,0c0,2.8,0,5.5,0,8.3c0,0.3,0,0.5,0.1,0.8
			C18.1,28.3,17.9,28.4,17.6,28.4z"/>
		<path class="st116" d="M19.4,27.8c0-1.4,0-2.8,0-4.1c0-0.2-0.1-0.4,0.2-0.4c0,1.4,0.3,2.9,0.3,4.3C19.8,27.7,19.6,27.8,19.4,27.8z
			"/>
		<path class="st108" d="M11.3,28.5c0.1,0,0.3,0,0.4,0.1C11.5,28.6,11.4,28.6,11.3,28.5z"/>
		<path class="st107" d="M4.5,18.9c0-1.2,0-2.3,0-3.5c0-0.3,0.2-0.4,0.4-0.6c0.8-0.5,1.6-0.7,2.5-0.8c0.3,0,0.4-0.1,0.4-0.4
			c0-0.3,0-0.5,0-0.8c0-0.7,0.1-1.4-0.9-1.7c-0.7-0.2-0.7-0.4-0.1-0.9C7.9,9.1,9.2,8,10.5,6.8c0.2,0.2,0.2,0.5,0.2,0.8
			c0,1,0,1.9,0,2.9c-0.5,0-1,0.1-1.4,0.1C9.1,10.6,9,10.7,9,11c0,0.8,0,1.7,0,2.5c0,0.3,0.1,0.3,0.4,0.3c0.6-0.1,1.2-0.1,1.8-0.1
			c0,1.3,0,2.6,0,3.9C8.8,17.8,6.6,17.9,4.5,18.9z"/>
		<path class="st117" d="M4.5,18.9c2.1-1,4.4-1.2,6.6-1.2c0.7-0.2,1.4-0.1,2.1-0.1c0.7,0,1.5,0,2.2,0c0.3,0,0.6,0.2,0.9,0.1
			c0.5,0,1,0,1.6,0.1c0.2,0,0.4,0,0.7,0c0.4,0.1,0.9,0.1,1.3,0.2c0.3,0.1,0.6,0.1,0.9,0.2c0.5,0.2,1.1,0.3,1.6,0.7
			c0,0.2-0.1,0.4-0.3,0.5c-0.8,0.4-1.7,0.7-2.7,0.7c0-1,0-1-1.1-1c-0.2,0-0.4,0-0.6,0c-0.2-0.1-0.4-0.1-0.6-0.1c-0.4,0-0.7,0-1.1,0
			c-0.3-0.2-0.6-0.1-0.9-0.1c-0.4,0-0.9,0-1.3,0c-0.6,0-1.1,0-1.7,0c-1.4,0-2.7,0.1-4,0.3c-0.4,0.1-0.6,0.2-0.5,0.6
			c0,0.1-0.1,0.2-0.1,0.4c-0.9-0.1-1.7-0.3-2.5-0.7C4.7,19.3,4.5,19.2,4.5,18.9z"/>
		<path class="st108" d="M13.2,17.6c-0.7,0-1.4-0.1-2.1,0.1c0-1.3,0-2.6,0-3.9c0.4,0,0.8-0.1,1.2-0.1c0.3,0,0.4-0.1,0.3-0.3
			c0-0.8,0-1.7,0-2.5c0-0.3-0.1-0.3-0.4-0.3c-0.5,0-1,0-1.5,0c0-1,0-1.9,0-2.9c0-0.3,0-0.6-0.2-0.8c0.8-0.7,1.6-1.5,2.4-2.1
			c0.3,0.1,0.2,0.4,0.2,0.7C13.2,9.5,13.2,13.5,13.2,17.6z"/>
		<path class="st110" d="M13.2,17.6c0-4.1,0-8.1,0-12.2c0-0.2,0.1-0.5-0.2-0.7c0.3-0.4,0.5-0.4,0.9-0.1c0.3,0.3,0.6,0.5,0.8,0.9
			c0,1.7,0,3.3,0,5c-0.3,0-0.3,0.2-0.3,0.4c0,0.5,0,1.1,0,1.6c0,1.1,0,1.1,1.1,1.2c0,1.3,0,2.6,0,3.8C14.7,17.6,13.9,17.6,13.2,17.6
			z"/>
		<path class="st118" d="M22.5,15c-0.1,0-0.1,0.1-0.2,0.1c-0.5-0.3-1-0.4-1.6-0.5c-0.3-0.1-0.6-0.2-0.9-0.2c-0.6-0.1-0.7-0.5-0.7-1
			c0.1-0.8,0-1.6,0-2.4c0.4,0,0.8-0.2,1.1-0.4c0.6-0.2,1.2-0.5,1.9-0.7c0,0.5,0,1,0,1.5C22.3,12.5,22.4,13.7,22.5,15z"/>
		<path class="st113" d="M14.7,10.5c0-1.7,0-3.3,0-5c0.4,0,0.5,0.4,0.8,0.6c0.5,0.4,1,0.8,1.4,1.3c-0.2,1-0.1,2.1-0.1,3.1
			C16.1,10.5,15.4,10.5,14.7,10.5z"/>
		<path class="st115" d="M19.2,10.8c0,0.8,0,1.6,0,2.4c0,0.6,0.1,0.9,0.7,1c0,1.3,0,2.5,0,3.8c-0.4-0.1-0.9-0.1-1.3-0.2
			c0-2.2,0-4.5,0-6.7c0-0.7-0.1-1.5,0.1-2.2c0.2,0.2,0.6,0.4,0.8,0.7C19,10,19.3,10.4,19.2,10.8z"/>
		<path class="st116" d="M25.1,8.6c0.2,0.3,0.2,0.7,0.2,1.1c0.1,1.8,0.2,3.5,0.3,5.3c0,0.3,0.2,0.6,0.1,0.9
			c-0.4-0.1-0.8-0.1-1.2-0.3c0.1-2-0.3-3.9-0.3-5.8c0-0.2,0-0.5-0.2-0.7C24.3,8.8,24.7,8.7,25.1,8.6z"/>
		<path class="st119" d="M24,9c0.2,0.2,0.2,0.4,0.2,0.7c0.1,1.9,0.4,3.9,0.3,5.8c-0.4-0.1-0.8-0.1-1.2-0.3c-0.1-1.4-0.1-2.8-0.3-4.2
			c0-0.5,0-1-0.2-1.5C23.2,9.2,23.6,9.1,24,9z"/>
		<path class="st114" d="M18.6,8.9c-0.2,0.7-0.1,1.5-0.1,2.2c0,2.2,0,4.5,0,6.7c-0.2,0-0.4,0-0.7,0c0-1.3,0-2.6,0-3.9
			c0-0.6,0-1.3,0-1.9c0-0.5,0.1-1-0.1-1.5c0-0.2,0-0.4,0-0.6c0.1-0.5-0.1-1.1,0.1-1.6C18.1,8.5,18.5,8.6,18.6,8.9z"/>
		<path class="st120" d="M22.8,9.5c0.3,0.5,0.2,1,0.2,1.5c0.1,1.4,0.2,2.8,0.3,4.2c-0.3-0.1-0.5-0.1-0.8-0.2
			c-0.1-1.3-0.2-2.5-0.3-3.8c0-0.5,0-1,0-1.5C22.4,9.6,22.6,9.5,22.8,9.5z"/>
		<path class="st112" d="M17.9,8.3c-0.2,0.5-0.1,1.1-0.1,1.6c0,0.2,0,0.4,0,0.6c-0.3,0-0.7,0-1,0c0-1-0.1-2.1,0.1-3.1
			C17.2,7.7,17.6,7.9,17.9,8.3z"/>
		<path class="st111" d="M19.2,10.8c0.1-0.4-0.2-0.9,0.2-1.2c0.3,0.3,0.6,0.5,0.9,0.8C20,10.6,19.6,10.8,19.2,10.8z"/>
		<path class="st116" d="M20.7,14.5c0.5,0.2,1.1,0.2,1.6,0.5c0.2,0.7,0.1,1.4,0.1,2.1c0,0.6,0.1,1.2-0.1,1.7c-0.5-0.4-1-0.5-1.6-0.7
			C20.8,17,20.8,15.7,20.7,14.5z"/>
		<path class="st121" d="M10.8,10.6c0.5,0,1,0,1.5,0c0.3,0,0.4,0,0.4,0.3c0,0.8,0,1.7,0,2.5c0,0.3-0.1,0.4-0.3,0.3
			c-0.4,0-0.8,0-1.2,0.1c-0.6,0-1.2,0-1.8,0.1c-0.3,0-0.4,0-0.4-0.3c0-0.8,0-1.7,0-2.5c0-0.3,0.1-0.4,0.3-0.4
			C9.8,10.6,10.3,10.6,10.8,10.6z"/>
		<path class="st112" d="M17.8,13.9c0,1.3,0,2.6,0,3.9c-0.5-0.1-1-0.1-1.6-0.1c0-1.3,0-2.6,0-3.9C16.8,13.8,17.3,13.8,17.8,13.9z"/>
		<path class="st113" d="M16.3,13.8c0,1.3,0,2.6,0,3.9c-0.3,0.1-0.6-0.1-0.9-0.1c0-1.3,0-2.6,0-3.8C15.7,13.7,16,13.7,16.3,13.8z"/>
		<path class="st111" d="M20.7,14.5c0,1.2,0,2.5,0,3.7c-0.3-0.1-0.6-0.1-0.9-0.2c0-1.3,0-2.5,0-3.8C20.2,14.3,20.5,14.4,20.7,14.5z"
			/>
		<path class="st118" d="M16.3,13.8c-0.3-0.1-0.6-0.1-0.9-0.1c-1.1-0.1-1.1-0.1-1.1-1.2c0-0.5,0-1.1,0-1.6c0-0.2,0-0.4,0.3-0.4
			c0.7,0,1.4,0,2.1,0c0.3,0,0.7,0,1,0c0.2,0.5,0.1,1,0.1,1.5c0,0.6,0,1.3,0,1.9C17.3,13.8,16.8,13.8,16.3,13.8z"/>
	</g>
</g>
</svg>
