<?xml version="1.0" encoding="utf-8"?>
<!-- Generator: Adobe Illustrator 22.1.0, SVG Export Plug-In . SVG Version: 6.00 Build 0)  -->
<svg version="1.1" id="Capa_1" xmlns="http://www.w3.org/2000/svg" xmlns:xlink="http://www.w3.org/1999/xlink" x="0px" y="0px"
	 viewBox="0 0 180.1 40.6" style="enable-background:new 0 0 180.1 40.6;" xml:space="preserve">
<style type="text/css">
	.st0{opacity:0.55;clip-path:url(#SVGID_2_);}
	.st1{opacity:0.5;fill:none;stroke:#BFBFBF;stroke-miterlimit:10;}
	.st2{fill:#D9D9D9;}
	.st3{fill:#004486;}
	.st4{opacity:0.55;}
	.st5{fill:#FFFFFF;}
	.st6{fill:#004485;}
	.st7{fill:#88898C;}
	.st8{fill:#2F4C88;}
	.st9{fill:#E2E3E4;}
	.st10{fill:#C57930;}
	.st11{fill:#C4C4C4;}
	.st12{fill:#A5D623;}
	.st13{fill:#27608E;}
	.st14{fill:#749423;}
	.st15{fill:#FF0000;}
	.st16{fill:#CF7535;}
	.st17{fill:#265D9C;}
	.st18{opacity:5.000000e-02;}
	.st19{clip-path:url(#SVGID_4_);fill:#FFFFFF;}
	.st20{fill:#304484;}
	.st21{fill:#9EA0A2;}
	.st22{fill:#F2F2F2;}
	.st23{opacity:0.8;}
	.st24{fill:url(#SVGID_5_);}
	.st25{fill:url(#SVGID_6_);}
	.st26{opacity:0.3;fill:#FFFFFF;stroke:#FFFFFF;stroke-miterlimit:10;}
	.st27{fill:none;stroke:#265D9C;stroke-width:1.5;stroke-miterlimit:10;}
	.st28{opacity:0.85;fill:#FFFFFF;}
	.st29{opacity:0.85;fill:#9EA0A2;}
	.st30{opacity:0.75;}
	.st31{opacity:0.75;fill:none;}
	.st32{fill:#2B6BA8;}
	.st33{fill:none;stroke:#265D9C;stroke-width:3;stroke-miterlimit:10;}
	.st34{fill:none;stroke:#CF7535;stroke-width:3;stroke-miterlimit:10;}
	.st35{fill:url(#SVGID_7_);stroke:#265D9C;stroke-miterlimit:10;}
	.st36{fill:url(#SVGID_8_);stroke:#265D9C;stroke-miterlimit:10;}
	.st37{fill:#F4F4F4;}
	.st38{fill:#040707;}
	.st39{fill:#6F7175;}
	.st40{fill:#01CDF8;}
	.st41{fill:#00C1F6;}
	.st42{fill:#707276;}
	.st43{fill:#04E877;}
	.st44{fill:#04D9F8;}
	.st45{fill:#F7C402;}
	.st46{fill:#D93155;}
	.st47{fill:#EA354C;}
	.st48{fill:#F7CF05;}
	.st49{fill:#F43A45;}
	.st50{fill:#4D4D4D;}
	.st51{opacity:0.5;}
	.st52{fill:none;stroke:#FFFFFF;stroke-width:3;stroke-miterlimit:10;}
	.st53{fill:none;stroke:#808080;stroke-width:1.5;stroke-miterlimit:10;}
	.st54{opacity:0.5;fill:none;stroke:#C4C4C4;stroke-miterlimit:10;}
	.st55{fill:none;stroke:#265D9C;stroke-width:0.25;stroke-miterlimit:10;}
	.st56{fill:#6D6D6D;}
	.st57{clip-path:url(#SVGID_12_);fill:#FFFFFF;}
	.st58{clip-path:url(#SVGID_12_);}
	.st59{fill:#054B8E;}
	.st60{fill:#B22E33;}
	.st61{fill:#B53439;}
	.st62{fill:#B42E33;}
	.st63{fill:#B12D32;}
	.st64{fill:#25ABCA;}
	.st65{clip-path:url(#SVGID_14_);fill:#FFFFFF;}
	.st66{clip-path:url(#SVGID_14_);fill:#B53439;}
	.st67{clip-path:url(#SVGID_16_);fill:#FFFFFF;}
	.st68{fill:none;stroke:#F4F4F4;stroke-miterlimit:10;}
	.st69{clip-path:url(#SVGID_18_);fill:#FFFFFF;}
	.st70{clip-path:url(#SVGID_18_);}
	.st71{clip-path:url(#SVGID_20_);fill:#FFFFFF;}
	.st72{clip-path:url(#SVGID_20_);fill:#B53439;}
	.st73{fill:none;stroke:#FFFFFF;stroke-miterlimit:10;}
	.st74{fill:none;stroke:#CF7535;stroke-miterlimit:10;}
</style>
<g>
	<g>
		<rect x="57.2" y="4.1" class="st7" width="0.2" height="34.5"/>
	</g>
	<polygon class="st28" points="93.5,16.3 88,5.2 84.3,5.2 84.3,20.9 88.2,20.9 88.2,14.2 91.4,20.9 95.7,20.9 98.8,14.2 98.8,20.9 
		102.7,20.9 102.7,5.2 99,5.2 	"/>
	<path class="st28" d="M117.6,5.2h-8.7c-1.1,0-1.9,0.3-2.5,1c-0.6,0.6-0.9,1.5-0.9,2.4v8.8c0,1,0.3,1.8,1,2.4c0.6,0.7,1.5,1,2.4,1
		h11.4V17h-10.9V15h8.2c1,0,1.9-0.3,2.5-1c0.6-0.6,0.9-1.4,0.9-2.4V8.6c0-1-0.3-1.8-1-2.4C119.4,5.6,118.5,5.2,117.6,5.2
		 M117.1,11.1h-7.7V9.1h7.7V11.1z"/>
	<path class="st28" d="M134.8,11.1h-7.2V9.1h9.6V5.2h-10.1c-1,0-1.8,0.4-2.5,1c-0.6,0.7-1,1.5-1,2.4v2.9c0,0.3,0,0.6,0.1,0.9
		c0.2,0.8,0.6,1.4,1.2,1.8c0.6,0.4,1.3,0.7,2.2,0.7h7.2V17h-10.4v3.9h10.9c1,0,1.9-0.3,2.5-1c0.6-0.6,0.9-1.4,0.9-2.4v-2.9
		c0-0.9-0.3-1.8-1-2.4C136.6,11.4,135.7,11.1,134.8,11.1"/>
	<path class="st28" d="M155.1,6.2c-0.6-0.7-1.5-1-2.4-1h-12.1v3.9h11.6v1.9H144c-1,0-1.9,0.3-2.5,1c-0.6,0.7-0.9,1.5-0.9,2.4v2.9
		c0,1,0.3,1.8,1,2.4c0.6,0.7,1.5,1,2.4,1h12.1V8.6C156.1,7.7,155.8,6.9,155.1,6.2 M152.2,17h-7.7V15h7.7V17z"/>
	<path class="st28" d="M97.3,23.4H84.1V39h13.3c2.4,0,3.7-1.2,3.7-3.4v-8.8c0-0.9-0.4-1.7-1.1-2.4C99.3,23.7,98.4,23.4,97.3,23.4
		 M96.8,35.1h-8.4v-7.8h8.4V35.1z"/>
	<rect x="103.7" y="23.4" class="st28" width="4.3" height="15.6"/>
	<path class="st28" d="M123,23.4h-12.4V39h4.3V27.3h7.6V39h4.3V26.8c0-0.4,0-0.7-0.1-1C126.4,24.7,125.5,23.4,123,23.4"/>
	<polygon class="st28" points="129.3,39 143.1,39 143.1,35.1 133.6,35.1 133.6,33.2 143.1,33.2 143.1,29.3 133.6,29.3 133.6,27.3 
		143.1,27.3 143.1,23.4 129.3,23.4 	"/>
	<path class="st28" d="M157.8,23.4h-11.9V39h4.3V27.3h7.1v2.9h4.3v-3.4c0-0.4,0-0.7-0.1-1C161.1,24.7,160.2,23.4,157.8,23.4"/>
	<path class="st28" d="M179.4,24.4c-0.7-0.7-1.6-1-2.6-1h-9.5c-1.1,0-2,0.4-2.7,1c-0.7,0.7-1,1.5-1,2.4v8.8c0,0.4,0,0.7,0.1,1.1
		c0.3,1.1,1.1,2.3,3.6,2.3h9.5c2.4,0,3.7-1.2,3.7-3.4v-8.8C180.4,25.9,180.1,25.1,179.4,24.4 M176.2,35.1h-8.4v-7.8h8.4V35.1z"/>
	<path class="st29" d="M166.7,11.3h-5.6c-0.6,0-1,0.2-1.4,0.6c-0.4,0.4-0.6,0.8-0.6,1.3v5.8c0,0.2,0,0.3,0.1,0.5
		c0.1,0.5,0.3,0.8,0.7,1.1c0.3,0.3,0.7,0.4,1.2,0.4h7.6V8.3h-2.1V11.3z M161.3,13.4h5.4v5.8h-5.4V13.4z"/>
	<path class="st29" d="M178.3,17.1c0.6,0,1.1-0.2,1.4-0.6c0.3-0.4,0.4-1.4,0.4-1.4v-2c0-0.6-0.2-1-0.5-1.4c-0.4-0.4-0.8-0.6-1.4-0.6
		h-5.7c-0.6,0-1.1,0.2-1.4,0.6c-0.3,0.4-0.5,0.8-0.5,1.4v5.6c0,0.6,0.2,1.1,0.5,1.5c0.4,0.4,0.8,0.6,1.4,0.6h7.2v-2.1h-7.1v-1.7
		H178.3z M172.6,13.4h5.8v2.1h-5.8V13.4z"/>
	<polygon class="st29" points="72.2,14.6 65.1,14.6 65.1,5.4 66.7,5.4 66.7,12.9 72.2,12.9 	"/>
	<path class="st29" d="M82.2,14.6h-7.4c-0.5,0-1-0.2-1.3-0.5c-0.3-0.3-0.5-0.8-0.5-1.3V11c0,0,0.3-1,0.7-1.3C74,9.3,74.4,9.1,75,9.2
		h5.5V7.1H73V5.4h7.4c0.5,0,1,0.2,1.3,0.5c0.3,0.3,0.5,0.8,0.5,1.3V14.6z M80.5,10.9h-5.4v2.1h5.4V10.9z"/>
	<path class="st5" d="M16.7,18.3c0.8-0.7,1.5-1.4,2.3-2.1c0.2-0.2,0.3-0.3,0.2-0.6c-0.4-1-0.1-2,0.7-2.8c0.8-0.7,1.8-0.9,2.8-0.7
		c1.3,0.3,2.2,1.1,2.5,2.4c0.5,1.9-1.1,3.5-3.1,3.2c-0.3,0-0.7-0.1-0.9-0.3c-0.4-0.2-0.6-0.1-0.9,0.1c-1.7,1.4-3.3,2.8-4.8,4.4
		c-0.3,0.3-0.6,0.6-0.9,0.9c-0.4,0.4-0.9,0.4-1.3,0.1c-0.3-0.3-0.4-0.8-0.2-1.3c0.4-0.6,0.9-1,1.4-1.5C15.2,19.6,16,19,16.7,18.3
		C16.7,18.3,16.7,18.3,16.7,18.3 M21.3,15.5c0.5,0.5,1.3,0.6,1.8,0.2c0.4-0.4,0.4-1,0-1.5c-0.5-0.5-1.3-0.6-1.7-0.2
		C20.9,14.5,20.9,15.1,21.3,15.5"/>
	<path class="st10" d="M13.4,39.7c-1.1,0.5-2.2,0.1-3.1-0.5c-0.8-0.6-1.4-1.3-1.7-2.3c-0.4-1.7,0.9-2.9,2.5-2.4c0.7,0.2,1,0,1.3-0.5
		c1.4-1.8,2.9-3.6,4.5-5.3c0.5-0.5,1.1-0.5,1.5-0.1c0.4,0.5,0.4,1-0.1,1.5c-1.1,1.2-2.2,2.4-3.3,3.7c-0.4,0.6-0.9,1.1-1.3,1.7
		c-0.2,0.3-0.2,0.5,0,0.8c0.5,0.8,0.7,1.7,0.3,2.7C13.8,39.3,13.6,39.5,13.4,39.7 M12.1,36.6c-0.1-0.1-0.3-0.2-0.4-0.3
		c-0.4-0.2-0.7-0.3-1.1,0c-0.4,0.3-0.3,0.7-0.1,1c0.2,0.4,0.5,0.7,1,0.8c0.4,0.1,0.7,0.1,0.9-0.3c0.2-0.3,0.2-0.6,0-0.9
		C12.2,36.9,12.1,36.7,12.1,36.6"/>
	<path class="st5" d="M25.6,12.2c-0.5-0.6-0.8-1.2-0.8-1.9c0-1.3,1-2,2.4-2c0.6,0,1.1,0.1,1.6,0.4c0.3,0.2,0.5,0.2,0.8,0
		C31,8,32.2,7.2,33.6,6.8c0.6-0.2,1.4,0.1,1.7,0.7c0.1,0.3,0,0.5-0.3,0.7c-1.3,0.5-2.4,1.1-3.7,1.7c-0.5,0.2-0.7,0.4-0.4,1
		c0.5,1.3-0.5,2.6-2,2.7C27.6,13.6,26.6,13.1,25.6,12.2 M28.7,10.3c-0.1-0.1-0.2-0.2-0.3-0.3c-0.5-0.3-1.2-0.2-1.5,0.2
		c-0.2,0.3-0.1,0.9,0.4,1.3c0.1,0.1,0.3,0.2,0.5,0.2c0.5,0.1,0.9,0.1,1.2-0.3C29.3,11,29,10.6,28.7,10.3"/>
	<path class="st5" d="M28.6,38c-0.1-0.1-0.3-0.3-0.4-0.4c0-0.1-0.1-0.2-0.2-0.3c0-0.1-0.1-0.1-0.1-0.2c0,0,0-0.1-0.1-0.2
		c-0.3-0.7-0.1-1.4,0.3-1.9c0.5-0.6,1.3-0.7,2.1-0.5c0.2,0.1,0.4,0.1,0.7,0.3c0.2,0.1,0.3,0,0.4-0.1c0.3-0.3,0.6-0.6,0.9-0.8
		c0.7-0.6,1.1-0.9,1.7-1.4c0.1-0.1,0.3-0.3,0.4-0.4c0.3-0.3,0.5-0.5,0.9-0.3c0.4,0.2,0.6,0.5,0.6,0.9c0,0.1,0,0.3-0.3,0.5
		c-0.4,0.4-0.6,0.5-1,0.9c-0.8,0.7-1.3,1.2-2,1.8c-0.2,0.1-0.2,0.3-0.1,0.5c0.4,0.7,0.4,1.3,0,2c-0.4,0.6-1,0.6-1.5,0.6
		c-0.6,0-1-0.1-1.6-0.4l-0.2-0.1C29,38.4,28.9,38.3,28.6,38 M31,36.3c-0.4-0.4-1.1-0.6-1.4-0.3c-0.3,0.3-0.2,0.8,0.1,1.1
		c0.4,0.4,1.1,0.6,1.4,0.3C31.4,37.2,31.4,36.8,31,36.3"/>
	<path class="st5" d="M46.5,21.7c0-0.1-0.1-0.1-0.1-0.2c-0.1-0.1-0.1-0.2-0.1-0.3c-0.4-1.1-0.4-1.1-1.7-0.8c-0.3,0.1-0.7,0.2-1,0.3
		c-0.5,0.1-0.8-0.1-0.9-0.6c-0.2-0.7-0.2-1,0.3-1.2c0.6-0.2,1.3-0.4,2-0.5c0.4,0,0.5-0.2,0.4-0.6c0-0.5-0.2-1.3,0.4-1.5
		c0.1,0,0.2,0.1,0.2,0.1c0.1,0.1,0.2,0.2,0.4,0.4c0.1,0.2,0.1,0.2,0.2,0.4c0.7,1.5,1.1,3,0.9,4.7c-0.1,0.4-0.2,0.6-0.4,0.6
		c-0.2,0-0.3-0.1-0.5-0.3C46.6,22,46.5,21.8,46.5,21.7 M46.7,20.4c0,0,0,0.1,0.2,0c0.1,0,0.1-0.2,0.1-0.3c0-0.6-0.1-1.2-0.4-1.8
		c-0.1-0.1-0.2-0.2-0.3-0.2c-0.1,0-0.1,0.2-0.1,0.3C46.2,19.1,46.3,19.7,46.7,20.4"/>
	<path class="st10" d="M24.2,24.4c-0.8,0.7-1.6,1.4-2.3,2.2c-0.1,0.1-0.3,0.2-0.4,0.5c-0.5,0.3-0.8,0.8-1.2,1.1
		c-0.1-0.1-0.2,0-0.3,0.1c-0.6,0-0.9-0.3-1.1-0.8c-0.2-0.4,0.1-0.8,0.4-1.1c1-1.1,2.2-2.1,3.3-3.1c0.4-0.3,0.8-0.4,1.2-0.2
		C24.2,23.3,24.4,23.8,24.2,24.4"/>
	<path class="st10" d="M32.5,18.1c-1,0.6-2.1,1.5-3.3,2.3c-0.4,0.3-1.1,0.1-1.4-0.3c-0.3-0.5-0.2-1.1,0.3-1.4
		c1.2-0.8,2.2-1.7,3.4-2.4c0.5-0.3,1-0.2,1.4,0.3C33.2,17.1,33.2,17.5,32.5,18.1"/>
	<path class="st5" d="M41.2,7.4c-1.4-0.5-2.7-0.4-4,0c-0.6,0.2-1.4-0.2-1.7-0.8c-0.1-0.2-0.3-0.5,0.1-0.6c1.2-0.3,2.4-0.7,3.7-0.2
		C40.1,6.2,40.5,6.9,41.2,7.4"/>
	<path class="st5" d="M41.7,19.8c0.6,0.6,0.4,1.4-0.3,1.8c-0.5,0.3-1,0.5-1.6,0.8c-0.5,0.2-0.8,0-1-0.4c-0.3-0.6-0.3-1.1,0.1-1.3
		c0.7-0.4,1.3-0.7,2-1C41.2,19.5,41.5,19.5,41.7,19.8"/>
	<path class="st10" d="M25.3,20.8c0.3-0.2,0.5-0.4,0.8-0.6c0.5-0.2,1-0.1,1.3,0.4c0.3,0.4,0.2,0.9-0.2,1.3c-0.2,0.2-0.5,0.4-0.8,0.6
		c-0.5,0.4-1,0.3-1.4-0.2c-0.4-0.4-0.3-1,0.1-1.4C25.2,20.9,25.3,20.9,25.3,20.8"/>
	<path class="st5" d="M19.7,38.5c0.1,0.1,0.2,0.2,0.3,0.3c-0.1,0.2,0,0.3,0.1,0.4c-0.2,0.6-0.5,1-1,1.3c-0.4,0.2-1,0-1.4-0.5
		c-0.3-0.4,0-0.7,0.2-1c0.4-0.4,0.7-0.9,1.4-0.7C19.4,38.5,19.6,38.5,19.7,38.5"/>
	<path class="st10" d="M30.7,3.2c-0.7,0.3-1.3,0.3-2-0.1c-0.1-0.1-0.3-0.2-0.3-0.4c0-0.2,0.2-0.2,0.3-0.2c0.6-0.3,1.2-0.2,1.8,0.1
		c0.1,0.1,0.3,0.3,0.4,0.4l0,0C30.9,3,30.8,3.1,30.7,3.2"/>
	<path class="st5" d="M2.6,39.1c0,0-0.5-0.7-0.4-1.4c0.2-0.6,0.6-0.1,0.7,0C3,37.8,3.6,38.5,3.4,39C3.3,39.5,3.3,40.1,2.6,39.1"/>
	<path class="st5" d="M3.2,37.1c0,0-0.7-0.7-0.3-1.5c0.3-0.8,0.7-1.5,0.8-1.7c0.1-0.2,0.6-0.6,1.1-0.1c0.5,0.5,0.4,1.1,0.3,1.4
		c-0.2,0.3-0.7,1.6-0.9,1.9C4,37.4,3.7,37.6,3.2,37.1"/>
	<path class="st5" d="M8.4,23.8c-1.4,1.2-1,3.1-0.9,3.5c0.1,0.4,0,0.7,0,0.7s-1.8,2.5-2.4,3.2c-0.6,0.8-0.3,1.4-0.2,1.6
		c0.1,0.2,0.8,1.1,1.4,0c0.9-1.4,2.3-3.2,2.3-3.2l0-0.1c0.1-0.3,0.5-0.3,0.8-0.2c1,0.5,2.2,0,2.8-0.7c1.4-1.8,0.4-3.7-0.3-4.6
		C11.4,23.3,9.8,22.6,8.4,23.8 M10.9,27.4c-0.4,0.4-1.1,0.3-1.5-0.1c-0.4-0.5-0.4-1.5,0-1.9c0.4-0.4,1-0.3,1.4,0.2
		C11.3,26.1,11.3,27,10.9,27.4"/>
	<path class="st10" d="M13.1,15.3c0,0,0.5,1.7-0.9,3.1c-1.4,1.4-3,0.8-3.6,0c-0.6-0.8-1-2.5,0.4-4.1c0.9-0.9,2-0.8,2.5-0.6
		c0.3,0.1,0.5,0.1,0.9-0.3c0.4-0.4,3.6-3.1,4-3.4c0.4-0.3,1.1-0.7,1.5-0.2c0.5,0.5,0,1-0.3,1.2c-0.2,0.2-3.5,2.8-4,3.3
		C13.1,14.9,13.1,14.9,13.1,15.3 M11.4,15.6c-0.4-0.6-1.2-0.4-1.4-0.2c-0.2,0.2-0.8,0.7-0.3,1.5c0.5,0.9,1.5,0.2,1.5,0.2
		C11.3,16.9,11.8,16.2,11.4,15.6"/>
	<path class="st5" d="M1.9,19.1c0,0-0.7,1.3-1,0.5c-0.3-0.8,0.3-1.5,0.6-1.8c0.3-0.3,0.5-0.5,0.6,0C2.2,18.3,2,18.9,1.9,19.1"/>
	<path class="st5" d="M5.6,14.7c0,0-1.7,1.9-2.3,2.6c-0.5,0.7-1.2,0.6-0.8-0.7c0.2-0.4,0.5-0.8,2.7-3.1c0.5-0.4,0.7-0.2,0.8,0.1
		C6.2,13.7,6.2,14,5.6,14.7"/>
	<path class="st5" d="M14.6,6.7c-0.4,0.4-1.1,0.4-1.4,0.1c-0.3-0.3-0.1-0.5,0.1-0.7c0.4-0.4,1.1-0.4,1.4-0.1
		C14.9,6.2,14.9,6.4,14.6,6.7 M13.1,8.2c0.4,0.1,1.4,0,2.4-0.6c1-0.6,1-1.4,0.9-1.8c-0.1-0.4,0-0.5,0.2-0.7c0.3-0.2,1.4-0.8,2-1.2
		c0.5-0.4,0.5-0.4,0.1-0.7c-0.5-0.5-1.7,0.4-2.7,1.1c-1,0.7-1.2,0.6-1.6,0.6c-0.5,0.1-1.5,0-2.2,0.6c-0.7,0.6-0.7,1-0.7,1.4
		c0,0.4,0.1,0.5-0.4,0.9C9.7,9,7.3,11.3,7,11.6c-0.3,0.3-0.5,0.5-0.3,0.9c0.2,0.4,0.5,0.5,1,0.1c0.4-0.5,4.6-4.1,4.6-4.2
		C12.4,8.2,12.8,8.1,13.1,8.2"/>
	<path class="st10" d="M27.6,4.5c0,0-3.2,1.6-7.1,4.4c-0.9,0.6-1.6,0.6-1.8,0.3c-0.2-0.4-0.6-0.5,0.7-1.4c1.2-0.9,4.7-3.2,7.2-4.3
		c0.5-0.2,1.3-0.3,1.6,0.1C28.6,3.7,28.8,4,27.6,4.5"/>
	<path class="st5" d="M20.6,2.5c0,0,1.3-0.6,1.8-0.8C22.9,1.6,23.5,1,22.2,1c-0.8,0-1.9,0.6-2.3,0.8c-0.4,0.2-0.8,0.4-0.4,0.7
		C19.9,2.8,20.4,2.6,20.6,2.5"/>
	<path class="st5" d="M24.2,0.9c0,0,1.7-0.4,2.1-0.5c0.4,0,0.8-0.3-0.1-0.4c-1-0.1-2.4,0.1-2.7,0.3c-0.4,0.2-0.9,0.4-0.3,0.5
		C23.7,0.8,24.2,0.9,24.2,0.9"/>
	<path class="st10" d="M31.1,1.8c0,0-0.7-0.1-0.3,0.4c0.4,0.5,0.8,0.5,1.4,0.5c0.6,0,1.5-0.1,1.8-0.1c0.3,0,0.6-0.1-0.4-0.5
		C32.5,1.8,31.8,1.6,31.1,1.8"/>
	<path class="st5" d="M33.1,27c-0.1,0.1-0.3,0.2-0.5,0.1c-0.4-0.1-0.8-0.3-1-0.7c-0.2-0.4-0.2-0.8,0-1.2c0.1-0.2,0.4-0.3,0.6-0.3
		c0.6,0,0.9,0.4,1.1,0.9C33.5,26.1,33.5,26.6,33.1,27 M29.7,26.9c-0.1,0.1-4,3.7-4.3,4c-0.3,0.3-1.4,1.2-0.8,1.9
		c0.6,0.7,1,0.5,1.8-0.2c0.8-0.7,4.2-3.9,4.5-4.1c0.3-0.2,0.4-0.2,0.7,0c0.3,0.2,1.6,0.8,2.6-0.1c1-0.9,0.8-2.1,0.7-2.5
		c0-0.4,0-0.5,0.2-0.7c0.2-0.1,1.8-1.2,2.1-1.4c0.3-0.2,0.9-0.6,0.5-1.3c-0.4-0.7-0.8-0.8-1.4-0.4c-0.7,0.4-1.7,1.2-2,1.4
		c-0.3,0.2-0.6,0.1-0.9-0.1c-0.3-0.2-1.5-1-2.7,0.1c-1.2,1.1-0.7,2.6-0.7,2.6S30.1,26.5,29.7,26.9"/>
	<path class="st5" d="M24.2,34.7c0,0-2.6,2.9-2.9,3.3c-0.4,0.4-0.9,0.2-1.2,0c-0.3-0.2-0.7-0.6-0.2-1.3c0.6-0.7,2.4-2.8,2.7-3.1
		c0.3-0.2,0.9-0.4,1.3-0.1C24.2,33.9,24.5,34.3,24.2,34.7"/>
	<path class="st10" d="M44.2,11.5c-0.1,0-0.2,0-0.3,0c0,0-0.1,0-0.3,0c-0.4,0-0.9,0-0.9,0s0,0,0,0c-0.4,0-0.8-0.1-1.1-0.5
		c-0.3-0.4-0.7-0.7-1.1-0.9c-0.4-0.2-0.8-0.4-1.2-0.1c-0.4,0.3-0.4,0.7-0.4,1.2c0,0.1,0,0.2,0.1,0.3c0.1,0.8,0.1,0.7-0.6,1
		c-1.5,0.6-3,1.4-4.4,2.2c-0.5,0.3-0.6,0.7-0.3,1.2c0.3,0.6,0.9,0.8,1.5,0.5c1.5-0.9,3-1.7,4.7-2.3c0.3-0.1,0.5-0.1,0.7,0.1
		c0.4,0.4,0.8,0.7,1.2,1c0.7,0.4,1.3,0.3,1.6-0.3c0.2-0.3,0.1-0.6,0.1-1c-0.1-0.5-0.1-0.7,0.1-0.8c0.2,0,0.3,0,0.3,0s0.1,0,0.3,0
		c0,0,0.1,0,0.1,0c0.1,0,0.2,0,0.2,0c0.2,0,0.2,0,0.5-0.1c0,0,0,0,0,0c0.6-0.1,0.5-0.4,0.3-0.9C44.9,11.8,44.6,11.6,44.2,11.5
		 M42.1,13c0,0.2,0.1,0.4-0.1,0.6c-0.2,0.2-0.4,0-0.6-0.1c-0.1-0.1-0.2-0.2-0.3-0.3c-0.3-0.4-0.6-0.7-0.6-1.2c0-0.2,0-0.3,0.1-0.4
		c0.2-0.1,0.4-0.1,0.5,0C41.6,12,42,12.4,42.1,13"/>
	<path class="st5" d="M36.6,30.5c0,0,2.5-2,5.8-3.6c0.7-0.3,0.8,0.2,0.9,0.6c0,0.4,0.2,0.9-0.4,1.2c-0.6,0.3-3,1.5-5.2,3.1
		c-0.7,0.5-0.9,0.5-1.3,0C36,31.3,36.2,30.8,36.6,30.5"/>
	<path class="st5" d="M43.7,27.1c0,0,0,1.2,0.7,1c0.7-0.2,0.6-1,0.6-1.2c0-0.2,0-1-0.6-0.9C43.7,26.2,43.7,27.1,43.7,27.1"/>
	<path class="st5" d="M45.9,25.6c0,0-0.6,0-0.7,1c0,0.9,0.4,0.9,0.7,0.9s1.1,0.1,1.3-0.7c0.1-0.5,0.2-1.2-0.3-1.2
		C46.4,25.6,45.9,25.6,45.9,25.6"/>
	<path class="st5" d="M47.7,26c0,0-0.3,0.5-0.2,1.4c0.1,0.4,0.3,0.5,0.4,0.7s0.3,0.6,0.4,0.4s0.4-1.2,0.3-1.4
		c-0.1-0.2-0.2-0.5-0.4-0.7C48.1,26.2,47.9,25.7,47.7,26"/>
</g>
</svg>
