<?xml version="1.0" encoding="utf-8"?>
<!-- Generator: Adobe Illustrator 22.1.0, SVG Export Plug-In . SVG Version: 6.00 Build 0)  -->
<svg version="1.1" id="Capa_1" xmlns="http://www.w3.org/2000/svg" xmlns:xlink="http://www.w3.org/1999/xlink" x="0px" y="0px"
	 viewBox="0 0 31.6 21.2" style="enable-background:new 0 0 31.6 21.2;" xml:space="preserve">
<style type="text/css">
	.st0{fill:#FFFFFF;}
	.st1{fill:#0187CD;}
	.st2{opacity:0.55;clip-path:url(#SVGID_2_);}
	.st3{opacity:0.5;fill:none;stroke:#BEBEBE;stroke-miterlimit:10;}
	.st4{fill:#D8D8D8;}
	.st5{fill:#004485;}
	.st6{opacity:0.55;}
	.st7{fill:#004484;}
	.st8{fill:#87888B;}
	.st9{fill:#2F4C87;}
	.st10{fill:#E1E2E3;}
	.st11{fill:#C47930;}
	.st12{fill:#C3C3C3;}
	.st13{fill:#A4D523;}
	.st14{fill:#27608D;}
	.st15{fill:#749323;}
	.st16{fill:#FF0000;}
	.st17{fill:#CE7535;}
	.st18{fill:#265D9B;}
	.st19{opacity:5.000000e-02;}
	.st20{clip-path:url(#SVGID_4_);fill:#FFFFFF;}
	.st21{fill:#304483;}
	.st22{fill:#9D9FA1;}
	.st23{fill:#F1F1F1;}
	.st24{opacity:0.8;}
	.st25{fill:url(#SVGID_5_);}
	.st26{fill:url(#SVGID_6_);}
	.st27{opacity:0.3;fill:#FFFFFF;stroke:#FFFFFF;stroke-miterlimit:10;}
	.st28{fill:none;stroke:#265D9B;stroke-width:1.5;stroke-miterlimit:10;}
	.st29{opacity:0.85;fill:#FFFFFF;}
	.st30{opacity:0.85;fill:#9D9FA1;}
	.st31{opacity:0.75;}
	.st32{fill:#2B6BA7;}
	.st33{fill:none;stroke:#265D9B;stroke-width:3;stroke-miterlimit:10;}
	.st34{fill:none;stroke:#CE7535;stroke-width:3;stroke-miterlimit:10;}
	.st35{fill:url(#SVGID_7_);stroke:#265D9B;stroke-miterlimit:10;}
	.st36{fill:url(#SVGID_8_);stroke:#265D9B;stroke-miterlimit:10;}
	.st37{fill:#F3F3F3;}
	.st38{fill:#040707;}
	.st39{fill:#6F7175;}
	.st40{fill:#01CCF7;}
	.st41{fill:#00C0F5;}
	.st42{fill:#707276;}
	.st43{fill:#04E777;}
	.st44{fill:#04D8F7;}
	.st45{fill:#F6C302;}
	.st46{fill:#D83155;}
	.st47{fill:#E9354C;}
	.st48{fill:#F6CE05;}
	.st49{fill:#F33A45;}
	.st50{fill:#4D4D4D;}
	.st51{opacity:0.5;}
	.st52{fill:none;stroke:#FFFFFF;stroke-width:3;stroke-miterlimit:10;}
	.st53{fill:none;stroke:#808080;stroke-width:1.5;stroke-miterlimit:10;}
	.st54{opacity:0.5;fill:none;stroke:#C3C3C3;stroke-miterlimit:10;}
	.st55{fill:none;stroke:#265D9B;stroke-width:0.25;stroke-miterlimit:10;}
	.st56{fill:#6D6D6D;}
	.st57{fill:#8CBF37;}
	.st58{fill:#0C6F9E;}
	.st59{fill:#DFB70E;}
	.st60{fill:#FAA93F;}
	.st61{fill:#6B7137;}
	.st62{fill:#AA6A43;}
	.st63{fill:#147DA1;}
	.st64{fill:#428B44;}
	.st65{fill:#E81D24;}
	.st66{fill:#8BC548;}
	.st67{fill:#0CB8B8;}
	.st68{fill:#002B51;}
	.st69{fill:#A5A7AA;}
	.st70{fill:#6F7173;}
	.st71{fill:#707274;}
	.st72{fill:#A6A8AB;}
	.st73{fill:#A6A7AA;}
	.st74{fill:#A6A8AA;}
	.st75{fill:#6E7072;}
	.st76{clip-path:url(#SVGID_12_);fill:#FFFFFF;}
	.st77{clip-path:url(#SVGID_12_);}
	.st78{fill:#054B8D;}
	.st79{fill:#B12E33;}
	.st80{fill:#B43439;}
	.st81{fill:#B32E33;}
	.st82{fill:#B02D32;}
	.st83{fill:#25AAC9;}
	.st84{clip-path:url(#SVGID_14_);fill:#FFFFFF;}
	.st85{clip-path:url(#SVGID_14_);fill:#B43439;}
	.st86{clip-path:url(#SVGID_16_);fill:#FFFFFF;}
	.st87{fill:#004D8D;}
	.st88{fill:none;stroke:#F3F3F3;stroke-miterlimit:10;}
	.st89{clip-path:url(#SVGID_18_);fill:#FFFFFF;}
	.st90{clip-path:url(#SVGID_18_);}
	.st91{clip-path:url(#SVGID_20_);fill:#FFFFFF;}
	.st92{clip-path:url(#SVGID_20_);fill:#B43439;}
	.st93{fill:none;stroke:#FFFFFF;stroke-miterlimit:10;}
	.st94{fill:none;stroke:#CE7535;stroke-miterlimit:10;}
	.st95{fill:none;stroke:#000000;stroke-miterlimit:10;}
	.st96{fill:#015594;}
	.st97{fill:#085A98;}
	.st98{fill:#2497D4;}
	.st99{fill:#10619E;}
	.st100{fill:#4C91C5;}
	.st101{fill:#2673AD;}
	.st102{fill:#1A68A4;}
	.st103{fill:#327CB3;}
	.st104{fill:#3A82B9;}
	.st105{fill:#64A4D4;}
	.st106{fill:#00427A;}
	.st107{fill:#F8FBFC;}
	.st108{fill:#7EC1E5;}
	.st109{fill:#C1E1F2;}
	.st110{fill:#FCFDFD;}
	.st111{fill:#E5BC2D;}
	.st112{fill:#DEB12D;}
	.st113{fill:#3A4981;}
	.st114{fill:#D19C2C;}
	.st115{fill:#6D6750;}
	.st116{fill:#3B5188;}
	.st117{fill:#4C7FB7;}
	.st118{fill:#3B5892;}
	.st119{fill:#426499;}
	.st120{fill:#4874A9;}
	.st121{fill:#4A3C1D;}
	.st122{fill:#5F7682;}
	.st123{fill:#DDA62B;}
	.st124{fill:#383D75;}
	.st125{fill:#DDAB2C;}
	.st126{fill:#BEBEBE;}
	.st127{fill:none;}
	.st128{clip-path:url(#SVGID_24_);fill:#FFFFFF;}
	.st129{clip-path:url(#SVGID_24_);}
	.st130{clip-path:url(#SVGID_26_);fill:#FFFFFF;}
	.st131{clip-path:url(#SVGID_26_);fill:#B43439;}
</style>
<g>
	<g>
		<defs>
			<rect id="SVGID_23_" x="-0.1" y="-0.1" width="31.7" height="21.2"/>
		</defs>
		<clipPath id="SVGID_2_">
			<use xlink:href="#SVGID_23_"  style="overflow:visible;"/>
		</clipPath>
		<path style="clip-path:url(#SVGID_2_);fill:#FFFFFF;" d="M37.2,10.7c0,8-18.1,14-26.2,14S-3.5,18.2-3.5,10.2S3-4.4,11-4.4
			S37.2,2.6,37.2,10.7z"/>
		<g style="clip-path:url(#SVGID_2_);">
			<path class="st78" d="M11.1-4.8c0,4.1,0,8.2,0,12.2c0,1-0.6,1.5-1.5,1.5c-4.3,0-8.6,0-13,0c-0.2,0-0.4,0-0.5,0
				c0-0.1,0-0.1-0.1-0.2c0-0.1,0-0.1,0-0.2c0.1-0.2,0.1-0.3,0.2-0.5c0,0,0.1,0,0.1-0.1C-3.4,8-3.2,7.8-3,7.9c0,0,0,0,0.1,0
				c0.2,0.2,0.3,0.4,0.6,0.2c0,0,0,0,0-0.1c0.2-0.3,0-0.6,0-0.9C-2.2,7-2.1,7-2.1,7c0.3-0.1,0.4-0.3,0.4-0.5c0-0.2-0.3-0.3-0.4-0.3
				c-0.4,0-0.6-0.3-0.8-0.6c0,0,0,0-0.1,0c0,0,0,0,0-0.1c-0.4-0.3,0.1-1,0.3-1.3C-2.6,4-2.2,2.9-2,3.1c0.1,0.1,0.3,0.3,0.4,0.4
				c0,0.1,0,0.1,0,0.2c0,0.1,0,0.1,0,0.2c-0.2,0.2-0.2,0.4,0,0.6c0.2,0.2,0.4,0.1,0.6,0c0.1,0,0.2-0.1,0.2-0.2c0.1,0,0.2,0,0.3,0
				c0.2,0.2,0.4,0.4,0.8,0.2c0,0,0,0,0,0c0.3-0.2,0.1-0.5,0-0.7c0-0.2,0-0.3,0.2-0.4c0,0,0.1,0,0.1,0c0,0,0,0,0,0
				c0.1,0,0.2-0.1,0.2-0.2c0,0,0,0,0-0.1c0.1,0,0.2-0.1,0.1-0.2C0.7,2.6,0.6,2.5,0.3,2.5c-0.1,0-0.2,0-0.3,0c0-0.1-0.1-0.1-0.2-0.1
				c0,0,0,0,0,0c0-0.2-0.1-0.4-0.2-0.5c0,0-0.1-0.1-0.1-0.1c-0.1-0.2-0.2-0.2-0.3,0c0,0,0,0,0,0C-1.1,2-1.1,2.4-1.3,2.5
				c-0.1,0-0.2,0-0.3,0c-0.2,0,0.4-0.9,0.4-1C-1.2,1.4-1,1.3-0.9,1.1C-0.8,1-0.6,0.8-0.5,0.6C-0.3,0.4-0.2,0.2,0,0
				c0.3-0.4,0.7-0.3,0.5,0.2C0.4,0.4,0.3,0.7,0.6,0.8c0.1,0,0.1,0,0.2,0c0.4-0.2,0.8-0.3,1.2,0c0,0,0,0,0.1,0c0.1,0,0.1,0,0.2,0
				C2.6,0.7,2.6,0.5,2.4,0c0-0.1,0-0.1,0-0.2c0.1-0.1,0.2-0.2,0.3-0.3c0,0,0.1-0.1,0.1-0.1C2.9-0.6,3-0.7,3-0.9
				c0-0.2-0.2-0.3-0.4-0.2c-0.1,0-0.1,0-0.2,0C2.2-1.2,2-1.3,1.9-1.5c0-0.4,0.5-0.7,0.8-0.9C3-2.5,3.2-2.6,3.4-2.7
				c0.2-0.1,0.4-0.4,0.7-0.4C4.3-3.2,4.5-3,4.8-3C4.9-3,4.9-3,5-3c0.1,0,0.1-0.1,0.1-0.2c0-0.3,0.1-0.4,0.3-0.5
				c0.3-0.1,0.7-0.3,1-0.4c0.4-0.1,0.7-0.3,1.1-0.2c0.1,0.1,0.1,0.1,0.2,0.2C8-4,8-3.8,7.9-3.6c0,0.1,0,0.1,0,0.2
				C7.9-3.3,7.8-3.1,8.1-3c0.1,0,0.1,0,0.2,0c0.1,0,0.1,0,0.2-0.1c0,0,0,0,0.1,0c0.1,0,0.2,0,0.2-0.1c0,0,0.1,0,0.1,0
				c0.1,0,0.2,0.1,0.3,0.1c0,0,0,0,0.1,0.1C9.3-3.1,9.4-3,9.5-3c0.1,0,0.1,0,0.2,0c0.1,0,0.2,0,0.1-0.1c0-0.1,0-0.3,0-0.4
				c-0.1-0.3,0-0.5,0.2-0.7c0.1-0.1,0.1-0.1,0.2-0.2c0.1,0,0.1-0.1,0.1-0.2c0-0.1,0-0.1,0-0.2C10.6-4.9,10.9-4.7,11.1-4.8
				C11.1-4.9,11.1-4.8,11.1-4.8z M0.5,7.7c0,0.4,0.2,0.5,0.4,0.3c0.4-0.2,0.7-0.3,1.1,0c0.1,0.1,0.2,0.2,0.3,0
				C2.5,8,2.6,7.8,2.5,7.7C2.3,7.3,2.5,7,2.8,6.7C3.1,6.5,3,6.2,2.6,6.2C2.2,6.1,2,6,1.8,5.6c-0.2-0.4-0.5-0.4-0.6,0
				C1,6,0.8,6.1,0.4,6.2C0,6.2-0.1,6.4,0.2,6.8c0.1,0.1,0.1,0.1,0.2,0.2C0.6,7,0.6,7.2,0.5,7.5C0.5,7.6,0.5,7.7,0.5,7.7z M5.3,7.7
				c0,0.5,0.1,0.6,0.5,0.4c0.4-0.2,0.7-0.3,1,0C6.9,8.1,7,8.2,7.2,8.1C7.3,8,7.3,7.8,7.3,7.7C7.1,7.3,7.2,7,7.6,6.8
				c0,0,0.1-0.1,0.1-0.1c0.2-0.2,0.1-0.4-0.1-0.4c-0.1,0-0.3-0.1-0.4-0.1C6.9,6.1,6.7,6,6.7,5.8c0-0.1-0.1-0.2-0.1-0.3
				C6.3,5.2,6.1,5.2,6,5.5C5.8,5.9,5.6,6.1,5.1,6.2C4.8,6.2,4.7,6.5,5,6.7C5.3,7,5.4,7.3,5.3,7.7z M5.3,0.4c0,0.4,0.2,0.6,0.5,0.4
				c0.4-0.3,0.7-0.2,1.1,0c0.3,0.2,0.5,0,0.5-0.3c0-0.1,0-0.2-0.1-0.3C7.1,0,7.2-0.2,7.3-0.3c0.1-0.1,0.2-0.2,0.3-0.3
				c0.1-0.1,0.2-0.2,0.2-0.3C7.7-1.1,7.5-1.1,7.4-1.1c-0.4,0-0.6-0.2-0.8-0.6C6.4-2.1,6.1-2.1,6-1.7C5.8-1.3,5.6-1.1,5.1-1.1
				c-0.3,0-0.4,0.3-0.2,0.5C5.3-0.3,5.5,0,5.3,0.4z M7.9,4.1c0,0.4,0.2,0.6,0.6,0.3c0.3-0.2,0.6-0.2,0.8,0c0.1,0.1,0.3,0.2,0.5,0
				C10,4.4,9.9,4.2,9.9,4c-0.2-0.4,0-0.6,0.3-0.8c0.1-0.1,0.3-0.2,0.2-0.4c-0.1-0.2-0.3-0.3-0.4-0.2c-0.4,0-0.6-0.1-0.7-0.5
				c0-0.2-0.1-0.4-0.4-0.3c-0.2,0-0.3,0.2-0.3,0.4C8.4,2.4,8.3,2.6,7.9,2.5c-0.2,0-0.4,0.1-0.4,0.2C7.4,3,7.5,3.1,7.7,3.2
				c0,0,0.1,0.1,0.1,0.1C8,3.5,8,3.6,7.9,3.9C7.9,3.9,7.9,4.1,7.9,4.1z M3.1,4.2c0,0.3,0.2,0.5,0.5,0.3c0.3-0.2,0.6-0.2,0.9,0
				c0.1,0.1,0.3,0.1,0.4,0c0.2-0.1,0.2-0.3,0.1-0.4C4.9,3.7,5,3.4,5.4,3.2c0.1,0,0.1-0.1,0.1-0.2c0.1-0.2,0.1-0.3-0.1-0.4
				C5.3,2.6,5.2,2.5,5.1,2.5c-0.3,0-0.5-0.1-0.6-0.4c0-0.2-0.1-0.4-0.4-0.4c-0.2,0-0.3,0.2-0.4,0.4C3.6,2.4,3.5,2.6,3.2,2.5
				C3,2.5,2.8,2.6,2.7,2.8C2.6,3,2.8,3.1,2.9,3.3c0.3,0.2,0.3,0.4,0.2,0.7C3.1,4,3.1,4.1,3.1,4.2z"/>
			<path class="st79" d="M34.4,2.7c-0.1,0-0.3,0-0.4,0c-2.8,0-16.1,0-18.9,0c-0.8,0-1.5-0.5-1.4-1.4c0-0.2,0-0.3,0-0.5
				c-0.1-0.8,0.6-1.4,1.4-1.4c1.9,0,14.4,0,16.3,0c0.2,0,0.4,0,0.5,0c0.1,0,0.1,0.1,0.2,0.1c0,0,0,0,0,0c0.3,0.5,0.7,0.9,1.2,1.3
				c0,0,0,0.1,0.1,0.1c0,0.2,0.1,0.3,0.2,0.4C33.9,1.8,34.2,2.3,34.4,2.7z"/>
			<path class="st81" d="M-3.1,15.1c-0.4-1-0.6-2.1-0.7-3.2c0.2,0,0.5,0,0.7,0c9.5,0,29.5,0,39,0c0.2,0,0.3,0,0.5,0
				c-0.1,1.1-0.3,2.2-0.7,3.2c-9.1,0-28.8,0-37.9,0C-2.6,15.1-2.8,15.1-3.1,15.1z"/>
			<path class="st82" d="M35.7,5.6c0.4,1.1,0.6,2.1,0.6,3.3c-3.6,0-17.6,0-21.2,0c-1,0-1.4-0.4-1.4-1.4c0-0.3-0.1-0.6,0-0.9
				c0.2-0.6,0.7-0.9,1.3-0.9c3.3,0,17,0,20.2,0C35.5,5.6,35.6,5.6,35.7,5.6z"/>
			<path class="st81" d="M-1.6,18c0.1,0,0.3,0,0.4,0c8.2,0,26.8,0,35,0c0.1,0,0.3,0,0.4,0c-0.1,0.5-0.5,0.9-0.8,1.3
				c-0.5,0.7-1.1,1.3-1.8,1.9c-0.2,0-0.5,0-0.7,0c-6.3,0-23.1,0-29.4,0c-0.2,0-0.3,0-0.5,0c-3,0.7-1.7-1.7-2.4-2.8
				C-1.5,18.3-1.6,18.2-1.6,18z"/>
		</g>
	</g>
</g>
</svg>
