<?xml version="1.0" encoding="utf-8"?>
<!-- Generator: Adobe Illustrator 22.1.0, SVG Export Plug-In . SVG Version: 6.00 Build 0)  -->
<svg version="1.1" id="Capa_1" xmlns="http://www.w3.org/2000/svg" xmlns:xlink="http://www.w3.org/1999/xlink" x="0px" y="0px"
	 viewBox="0 0 285.8 64.9" style="enable-background:new 0 0 285.8 64.9;" xml:space="preserve">
<style type="text/css">
	.st0{opacity:0.55;clip-path:url(#SVGID_2_);}
	.st1{fill:#004483;}
	.st2{opacity:5.000000e-02;}
	.st3{clip-path:url(#SVGID_4_);fill:#FFFFFF;}
	.st4{fill:none;stroke:#265D9A;stroke-width:1.5;stroke-miterlimit:10;}
	.st5{fill:#86878A;}
	.st6{opacity:0.85;fill:#FFFFFF;}
	.st7{opacity:0.85;fill:#9C9EA0;}
	.st8{fill:#FFFFFF;}
	.st9{fill:#C37930;}
	.st10{opacity:0.75;}
	.st11{fill:#2B6BA6;}
	.st12{fill:#265D9A;}
	.st13{fill:none;stroke:#265D9A;stroke-width:0.25;stroke-miterlimit:10;}
	.st14{fill:#2ECF6E;}
	.st15{clip-path:url(#SVGID_6_);fill:#FFFFFF;}
	.st16{clip-path:url(#SVGID_6_);}
	.st17{fill:#054B8C;}
	.st18{fill:#B02E33;}
	.st19{fill:#B33439;}
	.st20{fill:#B22E33;}
	.st21{fill:#AF2D32;}
	.st22{fill:#25A9C8;}
	.st23{clip-path:url(#SVGID_8_);fill:#FFFFFF;}
	.st24{clip-path:url(#SVGID_8_);fill:#B33439;}
	.st25{fill:#C2C2C2;}
	.st26{opacity:0.55;}
	.st27{fill:#F0F0F0;}
	.st28{clip-path:url(#SVGID_10_);fill:#FFFFFF;}
	.st29{opacity:0.5;fill:none;stroke:#BDBDBD;stroke-miterlimit:10;}
	.st30{fill:#D7D7D7;}
	.st31{fill:#2F4C86;}
	.st32{fill:#E0E1E2;}
	.st33{fill:#A3D423;}
	.st34{fill:#27608C;}
	.st35{fill:#749223;}
	.st36{fill:#FF0000;}
	.st37{fill:#CD7535;}
	.st38{opacity:0.8;}
	.st39{opacity:0.3;fill:#FFFFFF;stroke:#FFFFFF;stroke-miterlimit:10;}
	.st40{fill:#9C9EA0;}
	.st41{fill:none;stroke:#CD7535;stroke-width:3;stroke-miterlimit:10;}
	.st42{fill:url(#SVGID_11_);stroke:#265D9A;stroke-miterlimit:10;}
	.st43{fill:url(#SVGID_12_);stroke:#265D9A;stroke-miterlimit:10;}
	.st44{fill:#F2F2F2;}
	.st45{fill:#040707;}
	.st46{fill:#6F7175;}
	.st47{fill:#01CBF6;}
	.st48{fill:#00BFF4;}
	.st49{fill:#707276;}
	.st50{fill:#04E677;}
	.st51{fill:#04D7F6;}
	.st52{fill:#F5C202;}
	.st53{fill:#D73155;}
	.st54{fill:#E8354C;}
	.st55{fill:#F5CD05;}
	.st56{fill:#F23A45;}
	.st57{fill:#4D4D4D;}
	.st58{opacity:0.5;}
	.st59{opacity:0.55;clip-path:url(#SVGID_14_);}
	.st60{fill:none;stroke:#265D9A;stroke-width:3;stroke-miterlimit:10;}
	.st61{fill:none;stroke:#808080;stroke-width:1.5;stroke-miterlimit:10;}
	.st62{fill:#6D6D6D;}
	.st63{clip-path:url(#SVGID_20_);fill:#FFFFFF;}
	.st64{clip-path:url(#SVGID_20_);}
	.st65{clip-path:url(#SVGID_22_);fill:#FFFFFF;}
	.st66{clip-path:url(#SVGID_22_);fill:#B33439;}
	.st67{opacity:7.000000e-02;fill:#25A9C8;}
	.st68{opacity:0.55;clip-path:url(#SVGID_24_);}
	.st69{opacity:0.5;fill:none;stroke:#C2C2C2;stroke-miterlimit:10;}
	.st70{opacity:0.55;clip-path:url(#SVGID_26_);}
	.st71{fill:none;stroke:#A9A9A9;stroke-width:0.5;stroke-miterlimit:10;}
	.st72{clip-path:url(#SVGID_28_);fill:#FFFFFF;}
	.st73{clip-path:url(#SVGID_28_);}
	.st74{clip-path:url(#SVGID_30_);fill:#FFFFFF;}
	.st75{clip-path:url(#SVGID_30_);fill:#B33439;}
	.st76{fill:#0186CC;}
	.st77{fill:#015593;}
	.st78{fill:#085A97;}
	.st79{fill:#2496D3;}
	.st80{fill:#10619D;}
	.st81{fill:#4C90C4;}
	.st82{fill:#2673AC;}
	.st83{fill:#1A68A3;}
	.st84{fill:#327CB2;}
	.st85{fill:#3A81B8;}
	.st86{fill:#64A3D3;}
	.st87{fill:#00427A;}
	.st88{fill:#F7FAFB;}
	.st89{fill:#7EC0E4;}
	.st90{fill:#C0E0F1;}
	.st91{fill:#FBFCFC;}
	.st92{fill:#EEEEEE;}
	.st93{fill:none;stroke:#050505;stroke-width:0.5;stroke-miterlimit:10;}
	.st94{fill:#03397D;}
	.st95{fill:#C5CDD4;}
	.st96{fill:#C6CED4;}
	.st97{fill:#073B7E;}
	.st98{fill:#063B7E;}
	.st99{fill:#083C7F;}
	.st100{fill:#0C3E80;}
	.st101{fill:#0A3D7F;}
	.st102{fill:#D1D7DC;}
	.st103{fill:#EDEFF0;}
	.st104{fill:#DFE3E6;}
	.st105{fill:#0E4080;}
	.st106{fill:#FCFBFC;}
	.st107{fill:#878686;}
	.st108{fill:#6285C1;}
	.st109{fill:#E09F1B;}
	.st110{fill:#D07630;}
	.st111{fill:#5F7FBD;}
	.st112{fill:#039DDF;}
	.st113{fill:#3E579F;}
	.st114{fill:#8BC5DF;}
	.st115{fill:#E7BC3E;}
	.st116{fill:#DFEEF6;}
	.st117{fill:#888787;}
	.st118{fill:#4B4D96;}
	.st119{fill:#969595;}
	.st120{fill:#5FB2D1;}
	.st121{fill:#B1D5E7;}
	.st122{fill:#FFFFFF;stroke:#4D4D4D;stroke-width:0.15;stroke-miterlimit:10;}
	.st123{fill:none;stroke:#999999;stroke-width:0.5;stroke-miterlimit:10;}
	.st124{fill:#CF7535;}
	.st125{fill:#2F4C88;}
	.st126{fill:none;stroke:#CCCCCC;stroke-width:0.5;stroke-miterlimit:10;}
	.st127{fill:none;stroke:#2F4C88;stroke-width:0.5;stroke-miterlimit:10;}
	.st128{fill:#EFEFEF;}
	.st129{fill:none;stroke:#666666;stroke-width:0.5;stroke-miterlimit:10;}
	.st130{fill:#A9A9A9;}
	.st131{fill:#025290;}
	.st132{fill:#055492;}
	.st133{opacity:0.55;clip-path:url(#SVGID_34_);}
	.st134{fill:none;stroke:#FFFFFF;stroke-width:0.5;stroke-miterlimit:10;}
	.st135{fill:none;stroke:#4D4D4D;stroke-miterlimit:10;}
	.st136{fill:none;stroke:#FFFFFF;stroke-width:3;stroke-miterlimit:10;}
</style>
<g>
	<path class="st94" d="M31,0c0,0.2,0.2,0.3,0.4,0.5c10,10,20,20,30,30c0.1,0.1,0.3,0.3,0.4,0.5c-0.5,0.5-1,1.1-1.6,1.6
		c0,0-0.1,0.1-0.1,0.1C50.6,42.3,41,51.9,31.3,61.5c-0.4,0.4-0.4,0.4-0.8,0c0,0-0.1-0.1-0.1-0.1c-8.5-8.5-17.1-17.1-25.6-25.6
		c-1.1-1.1-2.2-2.2-3.3-3.2C1,32,0.5,31.5,0,31c0.1-0.2,0.3-0.3,0.4-0.5c10-10,20-20,30-30c0.2-0.2,0.3-0.3,0.5-0.5
		C30.9,0,31,0,31,0z M21.7,38.2C28.8,31.1,35.9,24,43,16.9c0,0,0,0-0.1-0.1c-3.5-3.5-7-7-10.5-10.5c-0.2-0.2-0.3-0.2-0.5,0
		c0,0-0.1,0.1-0.1,0.1c-3.3,3.3-6.6,6.6-9.8,9.8c-0.4,0.4-0.8,0.8-1.1,1.2c-3,3.5-4,7.4-3.2,11.9c0.6,3.2,1.9,6,3.8,8.5
		C21.6,38.1,21.6,38.2,21.7,38.2z M18.9,45c0.1,0.1,0.2,0.2,0.3,0.3c3.4,3.4,6.8,6.8,10.1,10.1c0.1,0.1,0.1,0.1,0.2,0.2
		c0.1,0.2,0.3,0.1,0.4,0c0.1-0.1,0.1-0.1,0.2-0.2c3.3-3.3,6.6-6.6,9.9-9.9c0.5-0.5,1-1,1.4-1.6c2.6-3.2,3.5-6.9,2.9-10.9
		c-0.5-3.4-1.9-6.4-4-9.2c-0.1-0.1-0.1-0.2-0.2-0.2C33,30.8,25.9,37.9,18.9,45z"/>
	<path class="st95" d="M1.5,32.5c1.1,1.1,2.2,2.2,3.3,3.2c8.5,8.5,17.1,17.1,25.6,25.6c0,0,0.1,0.1,0.1,0.1c0.5,0.5,0.4,0.4,0.8,0
		c9.6-9.6,19.2-19.2,28.8-28.8c0,0,0.1-0.1,0.1-0.1c0,0.2,0.1,0.3,0.3,0.4c0.3,0.3,0.6,0.6,0.8,0.8c0.3,0.3,0.3,0.3,0,0.6
		c-0.1,0.1-0.2,0.2-0.2,0.2c-10,10-19.9,19.9-29.9,29.9c0,0-0.1,0.1-0.1,0.1c-0.4,0.4-0.4,0.4-0.8,0c-3.1-3.1-6.1-6.1-9.2-9.2
		C14.4,48.5,7.5,41.6,0.6,34.8c-0.6-0.6-0.6-0.5,0-1.1c0.2-0.2,0.5-0.5,0.7-0.7C1.4,32.8,1.5,32.7,1.5,32.5z"/>
	<path class="st96" d="M128.9,35.8c0.2,0,0.4,0,0.6,0c32.3,0,64.5,0,96.8,0c0.2,0,0.4,0,0.6,0c0,0.1,0,0.3-0.1,0.4
		c-0.1,0.5-0.2,0.5-0.6,0.5c-0.5,0-0.6,0.1-0.6,0.6c-1.2,0-2.4,0-3.5,0c-30.5,0-61.1,0-91.6,0c-0.2,0-0.5,0-0.7,0
		c0-0.4,0-0.7-0.5-0.8C129.1,36.4,128.9,36.1,128.9,35.8z"/>
	<path class="st97" d="M129.5,24c0.3-0.1,0.6-0.1,0.9-0.2c0.8-0.2,1.5-0.4,2.2-0.9c0.6-0.4,1-1,1.1-1.8c0.2-1.6-1-2.4-2.2-2.7
		c-0.6-0.1-1.3,0-1.9,0c-0.4,0-0.4,0.1-0.4,0.5c0,1.8,0,3.6,0,5.5c0,1.6,0,3.2,0,4.8c0,0.3,0,0.7,0.1,1c0.1,0.6,0.3,1.1,0.8,1.4
		c0.1,0,0.2,0.1,0.2,0.2c0,0.1-0.1,0.1-0.2,0.1c-1.5,0-3,0-4.5,0c0,0-0.1-0.1-0.1-0.1c0-0.1,0-0.2,0.1-0.2c0.6-0.3,0.8-0.9,0.9-1.5
		c0-0.2,0-0.5,0-0.8c0-3.4,0-6.8,0-10.1c0-0.4,0-0.7-0.1-1.1c-0.1-0.4-0.3-0.8-0.7-1c-0.1-0.1-0.2-0.1-0.2-0.2
		c0-0.1,0.2-0.1,0.3-0.1c2.1,0,4.2-0.1,6.3,0c0.8,0,1.5,0.2,2.2,0.6c2.2,1.1,2.7,3.7,1,5.6c-0.6,0.7-1.4,1.1-2.2,1.5
		c-0.1,0.1-0.3,0.1-0.4,0.2c0,0.2,0.2,0.3,0.3,0.4c1,1.2,2,2.4,3,3.5c1,1.1,2.1,2.1,3.4,2.9c0.3,0.2,0.4,0.2,0.6-0.1
		c0.2-0.3,0.4-0.6,0.4-0.9c0.1-0.4,0.1-0.8,0.1-1.2c0-3.3,0-6.6,0-9.9c0-0.4,0-0.7-0.1-1.1c-0.1-0.5-0.3-0.9-0.7-1.2
		c-0.1-0.1-0.2-0.1-0.2-0.2c0-0.1,0.2-0.1,0.3-0.1c1.4,0,2.8,0,4.2,0c0.1,0,0.2,0,0.3,0.1c0,0.1-0.1,0.1-0.2,0.2
		c-0.5,0.3-0.7,0.8-0.8,1.4c0,0.4-0.1,0.7-0.1,1.1c0,3.2,0,6.4,0,9.5c0,0.3,0,0.6,0,0.9c0,0.7,0.2,1.3,0.9,1.6
		c0.1,0,0.2,0.1,0.1,0.2c0,0.1-0.1,0.1-0.2,0.1c-0.1,0-0.2,0-0.3,0c-1.9,0-3.8,0-5.7,0c-0.4,0-0.9,0-1.3-0.1
		c-0.6-0.1-1.2-0.4-1.6-0.9C132.9,28.8,131,26.6,129.5,24z"/>
	<path class="st97" d="M148.8,20.5c-0.1,0.2-0.1,0.4-0.1,0.6c0,2.7,0,5.4,0,8c0,0.2,0,0.4,0,0.6c0,0.8,0.3,1.3,1,1.8
		c0.1,0,0.2,0.1,0.2,0.2c0.1,0.1,0.1,0.2-0.1,0.2c-0.1,0-0.2,0-0.3,0c-1.2,0-2.4,0-3.6,0c-0.1,0-0.1,0-0.2,0c-0.1,0-0.1,0-0.2-0.1
		c0-0.1,0-0.1,0.1-0.2c0.1,0,0.2-0.1,0.2-0.1c0.5-0.4,0.8-0.9,0.9-1.5c0-0.3,0.1-0.7,0.1-1c0-3.1,0-6.2,0-9.2c0-0.2,0-0.5,0-0.7
		c0-0.8-0.3-1.4-1-1.8c-0.1-0.1-0.2-0.1-0.2-0.2c0-0.1,0.2-0.1,0.3-0.1c1,0,2.1,0,3.1,0c0.1,0,0.3,0,0.4,0.2
		c0.5,0.8,1.1,1.4,1.6,2.1c2.4,2.9,4.8,5.7,7.2,8.5c0.1,0.1,0.2,0.3,0.4,0.4c0.1,0,0.1-0.1,0.1-0.2c0-2.8,0-5.7,0-8.5
		c0-0.9-0.2-1.7-1.1-2.1c-0.1,0-0.2-0.1-0.1-0.2c0-0.2,0.2-0.1,0.3-0.1c1.3,0,2.6,0,3.9,0c0.1,0,0.2,0,0.3,0.1
		c0,0.1-0.1,0.2-0.2,0.2c-0.8,0.4-1,1.1-1.1,2c0,0.2,0,0.4,0,0.6c0,4.1,0,8.2,0,12.3c0,0.2,0,0.4,0,0.5c-0.1,0.1-0.2,0-0.4,0
		c-1-0.3-1.9-0.9-2.5-1.6c-1.1-1.3-2.2-2.6-3.4-4c-1.7-2.1-3.4-4.1-5.2-6.2C149,20.7,148.9,20.6,148.8,20.5z"/>
	<path class="st97" d="M204.3,31.9c0-0.2,0.1-0.2,0.2-0.3c0.6-0.4,0.8-1,0.8-1.7c0-0.2,0-0.4,0-0.5c0-3.4,0-6.8,0-10.1
		c0-0.3,0-0.6-0.1-1c-0.1-0.5-0.3-0.9-0.8-1.1c-0.1,0-0.2-0.1-0.1-0.2c0-0.1,0.1-0.1,0.2-0.1c0.1,0,0.2,0,0.3,0c1.8,0,3.7,0,5.5,0
		c1.4,0,2.9,0.2,4.2,0.7c1,0.4,1.9,0.9,2.7,1.6c1.3,1.2,1.9,2.8,2,4.5c0.2,3.5-1.7,6.3-5.1,7.6c-1.3,0.5-2.7,0.7-4,0.7
		c-1.8,0-3.6,0-5.5,0C204.6,32,204.4,32,204.3,31.9z M208,24.4c0,1.7,0,3.4,0,5.1c0,0.4,0,0.4,0.4,0.5c1.6,0.2,3.2,0.1,4.7-0.6
		c1.5-0.7,2.6-1.7,3-3.3c0.2-0.9,0.2-1.8,0.1-2.7c-0.3-2.4-1.6-3.9-3.7-4.5c-1.3-0.4-2.7-0.4-4.1-0.2c-0.5,0.1-0.5,0.1-0.5,0.6
		C208,21.1,208,22.7,208,24.4z"/>
	<path class="st97" d="M234.9,20.6c-0.1,0.1-0.1,0.2-0.1,0.4c0,2.8,0,5.7,0,8.5c0,0.2,0,0.5,0,0.7c0.1,0.6,0.3,1,0.8,1.4
		c0.1,0.1,0.2,0.1,0.3,0.2c0.1,0.1,0.1,0.2-0.1,0.2c-0.1,0-0.2,0-0.3,0c-1.2,0-2.4,0-3.6,0c-0.1,0-0.2,0-0.3,0c0,0-0.1,0-0.1-0.1
		c0-0.1,0-0.1,0.1-0.2c0,0,0.1,0,0.1-0.1c0.8-0.5,1.1-1.3,1.1-2.2c0-3.3,0-6.7,0-10c0-0.9-0.2-1.8-1.1-2.3c-0.1,0-0.1-0.1-0.1-0.2
		c0.1-0.1,0.2-0.1,0.3-0.1c1,0,2,0,3,0c0.2,0,0.4,0.1,0.5,0.3c0.4,0.6,0.8,1.1,1.3,1.6c2.5,2.9,4.9,5.9,7.4,8.8
		c0.1,0.1,0.2,0.3,0.4,0.4c0.1-0.1,0.1-0.3,0.1-0.4c0-2.7,0-5.4,0-8.2c0-0.2,0-0.5,0-0.7c0-0.6-0.3-1.1-0.8-1.4
		c-0.1-0.1-0.2-0.1-0.3-0.2c0,0-0.1-0.1-0.1-0.1c0-0.1,0.1-0.1,0.2-0.1c0.1,0,0.2,0,0.3,0c1.2,0,2.4,0,3.5,0c0.1,0,0.1,0,0.2,0
		c0.1,0,0.2,0,0.2,0.1c0,0.1-0.1,0.2-0.1,0.2c-0.1,0-0.1,0.1-0.2,0.1c-0.5,0.4-0.8,0.9-0.9,1.5c0,0.3,0,0.6,0,0.9
		c0,4.1,0,8.2,0,12.3c0,0.2,0,0.4,0,0.6c-0.2,0.1-0.3,0-0.4,0c-1-0.3-1.9-0.9-2.6-1.7c-1.1-1.2-2.1-2.5-3.1-3.7
		c-1.7-2.1-3.5-4.2-5.2-6.3C235.2,20.8,235.1,20.6,234.9,20.6z"/>
	<path class="st98" d="M198.7,16.9c0.5-0.1,4-0.1,4.4,0c0,0.2-0.2,0.2-0.3,0.3c-0.6,0.4-0.9,1-0.9,1.7c0,0.2,0,0.5,0,0.8
		c0,4.1,0,8.3,0,12.4c0,0.2,0,0.4,0,0.5c-0.1,0.1-0.3,0-0.4,0c-1.1-0.4-2.1-1-2.8-1.9c-1.1-1.4-2.3-2.7-3.4-4.1
		c-1.6-1.9-3.1-3.8-4.7-5.6c-0.1-0.1-0.2-0.3-0.4-0.4c-0.1,0.1-0.1,0.3-0.1,0.4c0,2.8,0,5.5,0,8.3c0,0.3,0,0.6,0.1,0.9
		c0.1,0.5,0.3,1,0.8,1.3c0.1,0.1,0.2,0.1,0.3,0.2c0.1,0,0.1,0.1,0.1,0.2c0,0.1-0.1,0.1-0.2,0.1c-0.1,0-0.1,0-0.2,0
		c-1.2,0-2.4,0-3.6,0c-0.1,0-0.2,0-0.3,0c-0.1,0-0.1-0.1-0.1-0.2c0.1-0.1,0.1-0.1,0.2-0.2c0.6-0.4,0.9-1,1-1.8c0-0.2,0-0.3,0-0.5
		c0-3.3,0-6.6,0-9.9c0-0.3,0-0.6-0.1-0.9c-0.1-0.6-0.4-1-0.8-1.3c-0.1-0.1-0.1-0.1-0.2-0.2c-0.1,0-0.1-0.1-0.1-0.2
		c0-0.1,0.1-0.1,0.2-0.1c0.3,0,0.6,0,0.9,0c0.8,0,1.5,0,2.3,0c0.1,0,0.3,0,0.4,0.1c0.7,1.1,1.6,2.1,2.5,3.1c2.1,2.5,4.3,5.1,6.4,7.6
		c0.1,0.1,0.2,0.2,0.3,0.3c0.1-0.1,0.1-0.2,0.1-0.3c0-2.8,0-5.5,0-8.3c0-0.3,0-0.6-0.1-0.9c-0.1-0.5-0.4-0.9-0.8-1.2
		C198.9,17.2,198.7,17.1,198.7,16.9z"/>
	<path class="st98" d="M95,30.7c-1.5,1.3-3.1,1.7-4.8,1.6c-1,0-2-0.2-2.9-0.7c-1.6-0.8-2.4-2-2.5-3.8c-0.1-1.1,0-2.2,0-3.3
		c0-1.7,0-3.5,0-5.2c0-0.4,0-0.8-0.1-1.2c-0.1-0.5-0.3-0.9-0.8-1.1c-0.1,0-0.2-0.1-0.1-0.2c0-0.1,0.1-0.1,0.2-0.1c1.4,0,2.8,0,4.2,0
		c0.1,0,0.2,0,0.2,0.1c0.1,0.1-0.1,0.2-0.2,0.2c-0.5,0.3-0.7,0.7-0.8,1.3c-0.1,0.4-0.1,0.8-0.1,1.2c0,2.2,0,4.4,0,6.7
		c0,0.8,0.1,1.5,0.4,2.2c0.4,1,1.1,1.6,2.1,1.9c1.2,0.3,2.4,0.2,3.5-0.4c0.5-0.3,0.9-0.6,1.2-1.1c0.2-0.3,0.4-0.7,0.4-1.1
		c0-0.4,0-0.8,0-1.1c0-2.4,0-4.8,0-7.1c0-0.4,0-0.8-0.1-1.2c-0.1-0.5-0.3-0.9-0.8-1.1c-0.1,0-0.2-0.1-0.1-0.2c0-0.1,0.1-0.1,0.2-0.1
		c1.4,0,2.8,0,4.2,0c0.1,0,0.2,0,0.3,0.1c0,0.1-0.1,0.2-0.2,0.2c-0.5,0.3-0.7,0.7-0.8,1.2c-0.1,0.4-0.1,0.7-0.1,1.1
		c0,3.3,0,6.7,0,10c0,0.3,0,0.6,0.1,1c0.1,0.5,0.3,1,0.8,1.3c0.1,0.1,0.2,0.1,0.2,0.2c0,0.2-0.2,0.1-0.3,0.1c-1,0-2,0-3.1,0
		c-0.3,0-0.4-0.1-0.4-0.4C95,31.3,95,31.1,95,30.7z"/>
	<path class="st97" d="M276.8,26.3c-0.9,0-1.7,0-2.6,0c-0.3,0-0.4,0.1-0.5,0.4c-0.4,1-0.8,2.1-1.2,3.1c-0.1,0.2-0.1,0.4-0.2,0.6
		c-0.2,0.7,0,0.9,0.5,1.2c0.1,0,0.1,0.1,0.2,0.1c0.1,0.1,0.1,0.2-0.1,0.2c-0.1,0-0.2,0-0.3,0c-1.3,0-2.5,0-3.8,0c-0.1,0-0.2,0-0.3,0
		c0,0-0.1,0-0.1-0.1c0-0.1,0-0.1,0.1-0.2c0,0,0,0,0,0c1-0.5,1.5-1.4,1.9-2.4c1.4-3.4,2.8-6.7,4.3-10.1c0.1-0.3,0.3-0.7,0.4-1
		c0.1-0.5,0-0.8-0.4-1.1c-0.1-0.1-0.2-0.1-0.2-0.2c0-0.1,0.2-0.1,0.3-0.1c1.1,0,2.2,0,3.3,0c0.3,0,0.4,0.2,0.5,0.4
		c0.9,2.1,1.8,4.3,2.8,6.4c0.8,1.9,1.6,3.7,2.4,5.6c0.2,0.6,0.5,1.1,0.9,1.6c0.3,0.3,0.6,0.6,1,0.8c0.1,0,0.1,0.1,0.1,0.2
		c0,0.1-0.1,0.1-0.2,0.1c0,0,0,0-0.1,0c-1.5,0-3.1,0-4.6,0c-0.1,0-0.2,0-0.2-0.1c0-0.1,0.1-0.2,0.2-0.2c0.1,0,0.2-0.1,0.3-0.1
		c0.3-0.2,0.4-0.4,0.3-0.8c-0.1-0.2-0.1-0.4-0.2-0.7c-0.4-1.1-0.9-2.2-1.3-3.3c-0.2-0.5-0.1-0.5-0.7-0.5
		C278.4,26.3,277.6,26.3,276.8,26.3z M276.8,19.1c-0.8,1.9-1.5,3.6-2.2,5.3c1.5,0,2.9,0,4.4,0C278.2,22.7,277.5,21,276.8,19.1z"/>
	<path class="st97" d="M71.3,28.6c0.2,0,0.3,0.1,0.4,0.2c1.3,1,2.8,1.6,4.4,1.7c1.1,0.1,2.2-0.1,3.1-0.8c0.7-0.5,0.9-1.3,0.7-2
		c-0.1-0.4-0.4-0.8-0.8-1.1c-0.5-0.4-1.1-0.7-1.7-1c-0.8-0.4-1.7-0.7-2.5-1.1c-0.7-0.3-1.5-0.8-2.1-1.3c-1.1-1-1.4-2.3-1-3.7
		c0.2-0.8,0.8-1.4,1.5-1.9c0.8-0.5,1.8-0.8,2.8-1c1.7-0.3,3.3-0.1,5,0.3c0.3,0.1,0.4,0.2,0.4,0.5c0,0.8,0,1.6,0,2.4
		c-0.2,0-0.3-0.2-0.4-0.2c-1.5-1.1-3.1-1.5-4.9-1c-0.3,0.1-0.6,0.2-0.8,0.4c-0.9,0.6-1,1.7-0.3,2.5c0.3,0.4,0.8,0.7,1.2,0.9
		c0.7,0.4,1.5,0.7,2.2,1c0.8,0.3,1.5,0.7,2.2,1.1c0.4,0.2,0.8,0.5,1.2,0.9c1,1,1.3,2.2,0.8,3.5c-0.4,1.1-1.2,1.9-2.2,2.5
		c-1.4,0.9-3,1.2-4.7,1.1c-1.1,0-2.3-0.2-3.4-0.5c-0.3-0.1-0.5-0.2-0.6-0.6C71.8,30.4,71.5,29.5,71.3,28.6z"/>
	<path class="st97" d="M261.1,19.9c-0.9-0.5-1.7-0.9-2.6-1.1c-1.1-0.3-2.2-0.3-3.3-0.1c-2.1,0.5-3.4,1.8-3.9,3.9
		c-0.4,1.8-0.1,3.5,0.9,5.1c1.3,1.9,3.1,2.7,5.3,2.6c1.5-0.1,2.9-0.6,4.3-1.2c0.2-0.1,0.3-0.2,0.5-0.2c0.1,0.2,0,0.2,0,0.3
		c-0.3,0.7-0.7,1.4-1,2.1c-0.1,0.3-0.3,0.4-0.6,0.5c-0.8,0.3-1.7,0.5-2.5,0.5c-2,0.1-3.9-0.1-5.8-0.9c-2.5-1.1-3.9-3.1-4.3-5.8
		c-0.2-1.9,0-3.8,1.1-5.5c1.2-1.9,3.1-3,5.3-3.4c1.8-0.4,3.7-0.2,5.5,0.2c0.2,0,0.5,0.1,0.7,0.1c0.2,0,0.3,0.1,0.3,0.3
		C261.1,18.1,261.1,19,261.1,19.9z"/>
	<path class="st97" d="M124.3,28.8c-0.3,1-0.7,1.9-1,2.9c-0.1,0.2-0.2,0.3-0.4,0.2c-0.1,0-0.2,0-0.3,0c-3,0-6,0-9.1,0
		c-0.1,0-0.2,0-0.3,0c-0.1,0-0.2,0-0.3-0.1c0-0.1,0.1-0.2,0.2-0.2c0.5-0.3,0.7-0.7,0.8-1.2c0.1-0.3,0.1-0.6,0.1-1
		c0-3.4,0-6.8,0-10.1c0-0.3,0-0.6-0.1-1c-0.1-0.5-0.3-1-0.8-1.2c-0.1,0-0.1-0.1-0.1-0.2c0-0.1,0.1-0.1,0.2-0.1c0.1,0,0.3,0,0.4,0
		c2.4,0,4.9,0,7.3,0c0.4,0,0.7,0,1.1-0.1c0.1,0.3,0.1,2.2,0,2.9c-0.1,0-0.1,0-0.1,0c-0.5-0.6-1.2-0.8-2-0.9c-0.9-0.1-1.8,0-2.7,0
		c-0.5,0-0.5,0.1-0.5,0.5c0,1.1,0,2.1,0,3.2c0,0.4,0,0.4,0.5,0.4c0.7,0,1.5,0,2.2,0c0.4,0,0.9,0,1.2-0.1c0.1,0.1,0.1,0.3,0.1,0.4
		c0,0.6,0,1.3-0.1,1.9c0,0.2-0.1,0.3-0.2,0.2c-0.4-0.4-0.9-0.5-1.5-0.5c-0.6,0-1.3,0-1.9,0c-0.2,0-0.3,0.1-0.3,0.3
		c0,1.5,0,3.1,0,4.6c0,0.2,0,0.3,0.2,0.3c1.2,0.1,2.5,0.3,3.7,0.2c1.2-0.1,2.3-0.5,3.2-1.2C124,28.9,124.1,28.7,124.3,28.8
		L124.3,28.8z"/>
	<path class="st99" d="M219.9,16.9c0.2-0.1,0.4-0.1,0.6-0.1c2.3,0,4.7,0,7,0c0.5,0,1,0,1.4-0.1c0,1,0,1.9,0,2.8
		c-0.2,0.1-0.2,0-0.3-0.1c-0.5-0.4-1-0.7-1.6-0.7c-1-0.1-1.9,0-2.9,0c-0.5,0-0.5,0.1-0.5,0.5c0,1.1,0,2.1,0,3.2c0,0.4,0,0.4,0.4,0.4
		c0.8,0,1.7,0,2.5,0c0.3,0,0.7,0,1-0.1c0.1,0.4,0.1,2.1-0.1,2.5c-0.1,0-0.1,0-0.2-0.1c-0.3-0.3-0.7-0.4-1.1-0.5
		c-0.7-0.1-1.4,0-2.1,0c-0.4,0-0.4,0-0.4,0.4c0,1.2,0,2.5,0,3.7c0,0.3,0,0.6,0,0.9c0,0.1,0,0.3,0.2,0.3c1.3,0.1,2.6,0.3,3.9,0.2
		c1.2-0.1,2.3-0.5,3.2-1.2c0.1-0.1,0.2-0.1,0.3-0.2c0.1,0.2,0,0.3-0.1,0.4c-0.3,0.8-0.6,1.6-0.9,2.4c-0.2,0.4-0.2,0.4-0.6,0.4
		c-2,0-3.9,0-5.9,0c-1.1,0-2.2,0-3.3,0c-0.1,0-0.2,0-0.3,0c-0.1,0-0.2,0-0.3-0.1c0-0.1,0.1-0.1,0.2-0.2c0.6-0.3,0.8-0.9,0.9-1.5
		c0-0.2,0-0.5,0-0.7c0-3.4,0-6.8,0-10.1c0-0.3,0-0.6-0.1-1c-0.1-0.5-0.3-1-0.8-1.2C219.9,17.1,219.9,17,219.9,16.9z"/>
	<path class="st99" d="M183.7,16.7c0,1,0,1.9,0,2.8c-0.1,0.1-0.2,0-0.2,0c-0.5-0.5-1.1-0.8-1.9-0.8c-0.9-0.1-1.8,0-2.7,0
		c-0.5,0-0.5,0.1-0.5,0.5c0,1.1,0,2.1,0,3.2c0,0.4,0,0.4,0.4,0.4c0.9,0,1.8,0,2.7,0c0.3,0,0.6-0.1,0.9-0.1c0,0.9,0,1.7-0.1,2.5
		c-0.2,0.1-0.2,0-0.3-0.1c-0.3-0.3-0.6-0.4-1-0.4c-0.8-0.1-1.5,0-2.3,0c-0.3,0-0.3,0.1-0.3,0.3c0,1.5,0,3,0,4.6c0,0.1,0,0.3,0.2,0.3
		c1.3,0.1,2.6,0.3,3.8,0.2c1.2-0.1,2.2-0.5,3.2-1.2c0.1-0.1,0.2-0.1,0.3-0.2c0,0,0,0,0.1,0c0,0,0,0.1,0,0.1c-0.3,0.9-0.7,1.8-1,2.8
		c-0.1,0.2-0.2,0.3-0.4,0.3c-0.1,0-0.2,0-0.3,0c-3,0-6,0-9.1,0c-0.1,0-0.1,0-0.2,0c-0.1,0-0.3,0.1-0.4-0.1c-0.1-0.2,0.2-0.2,0.3-0.3
		c0.4-0.3,0.6-0.7,0.7-1.1c0.1-0.4,0.1-0.8,0.1-1.2c0-3.2,0-6.5,0-9.7c0-0.4,0-0.8-0.1-1.2c-0.1-0.5-0.3-1-0.8-1.2
		c-0.1-0.1-0.2-0.1-0.2-0.2c0-0.1,0.2-0.1,0.3-0.1c0.1,0,0.2,0,0.3,0c2.2,0,4.4,0,6.7,0C182.5,16.8,183.1,16.9,183.7,16.7z"/>
	<path class="st98" d="M104.7,24.8c0.6-0.1,1.2-0.1,1.6-0.3c0.7-0.2,1.3-0.5,1.9-1c0.7-0.7,1.1-1.6,0.9-2.6c-0.2-1.2-1-2-2.4-2.2
		c-0.7-0.1-1.4,0-2.1,0c-0.3,0-0.4,0.1-0.4,0.4c0,0.2,0,0.4,0,0.6c0,3.1,0,6.3,0,9.4c0,0.3,0,0.5,0,0.8c0,0.7,0.3,1.2,0.9,1.6
		c0.1,0.1,0.2,0.1,0.3,0.2c0.1,0.1,0.1,0.2-0.1,0.2c-0.1,0-0.2,0-0.3,0c-1.4,0-2.7,0-4.1,0c-0.1,0-0.2,0-0.3,0c-0.1,0-0.2,0-0.2-0.1
		c0-0.1,0-0.1,0.1-0.2c0.7-0.3,0.9-1,0.9-1.7c0-0.3,0-0.6,0-0.9c0-3.1,0-6.3,0-9.4c0-0.4,0-0.7-0.1-1.1c-0.1-0.6-0.2-1.2-0.9-1.6
		c-0.1,0-0.1-0.1-0.1-0.2c0-0.1,0.1-0.1,0.2-0.1c0.1,0,0.2,0,0.3,0c1.8,0,3.5,0,5.3,0c1,0,2,0.1,2.9,0.5c0.3,0.1,0.6,0.3,0.9,0.4
		c2.1,1.2,2.5,3.8,0.9,5.7c-0.8,1-1.9,1.5-3.2,1.7c-0.8,0.2-1.6,0.2-2.4,0C105.3,25.1,105,25,104.7,24.8z"/>
	<path class="st99" d="M161.5,19.6c0.3-0.9,0.6-1.8,0.9-2.7c0.1-0.2,0.2-0.2,0.3-0.2c0.4,0.1,0.9,0.1,1.3,0.1c2.5,0,5,0,7.6,0
		c0.9,0,1.8,0.1,2.7-0.2c-0.3,1-0.6,2-0.9,3c-0.1,0-0.1,0-0.1-0.1c-0.2-0.6-0.7-0.8-1.3-0.9c-0.8-0.1-1.6,0-2.5,0
		c-0.2,0-0.3,0.1-0.3,0.3c0,0.1,0,0.3,0,0.4c0,3.3,0,6.7,0,10c0,0.3,0,0.5,0,0.8c0.1,0.6,0.3,1.1,0.9,1.5c0.1,0.1,0.2,0.1,0.3,0.2
		c0.1,0.1,0.1,0.2-0.1,0.2c-0.1,0-0.2,0-0.3,0c-1.4,0-2.7,0-4.1,0c-0.1,0-0.1,0-0.2,0c-0.1,0-0.2,0-0.2-0.1c0-0.1,0-0.1,0.1-0.2
		c0.7-0.3,0.8-1,0.9-1.6c0-0.2,0-0.5,0-0.7c0-3.4,0-6.8,0-10.1c0-0.6,0.1-0.6-0.6-0.6c-0.6,0-1.3,0-1.9,0c-0.9,0-1.7,0.3-2.4,0.9
		C161.6,19.6,161.6,19.6,161.5,19.6z"/>
	<path class="st99" d="M217.9,51.6c-2-0.1-3.7-0.8-4.8-2.5c-1.6-2.4-1-5.6,1.3-7.2c2-1.4,4.1-1.5,6.3-0.5c1.9,0.9,3,2.5,3,4.7
		c0,2.2-1,3.8-3,4.9C219.8,51.4,218.9,51.6,217.9,51.6z M214,46c0,1.3,0.5,2.4,1.5,3.4c1.8,1.7,5.2,1.2,6.1-1.5
		c0.5-1.5,0.3-2.9-0.4-4.2c-1.4-2.4-4.4-2.2-5.8-0.9C214.4,43.7,214,44.8,214,46z"/>
	<path class="st97" d="M266.7,24.5c0,1.6,0,3.1,0,4.7c0,0.3,0,0.7,0,1c0.1,0.6,0.3,1.1,0.9,1.5c0.1,0,0.2,0.1,0.1,0.2
		c0,0.1-0.2,0.1-0.3,0.1c-0.7,0-1.4,0-2.1,0c-0.7,0-1.4,0-2.1,0c-0.1,0-0.2,0-0.3-0.1c-0.1-0.1,0.1-0.2,0.2-0.2
		c0.6-0.3,0.7-0.9,0.8-1.5c0-0.3,0-0.6,0-0.9c0-3.3,0-6.7,0-10c0-0.3,0-0.7-0.1-1c-0.1-0.5-0.3-0.9-0.8-1.2
		c-0.1-0.1-0.2-0.1-0.1-0.2c0-0.1,0.2-0.1,0.2-0.1c1.4,0,2.8,0,4.2,0c0.1,0,0.2,0,0.3,0.1c0,0.1-0.1,0.2-0.2,0.2
		c-0.4,0.2-0.6,0.6-0.7,1.1c-0.1,0.4-0.1,0.8-0.1,1.3C266.7,21.2,266.7,22.8,266.7,24.5z"/>
	<path class="st99" d="M81.9,41.1c1.7,0,3.4-0.2,5,0.1c0.2,0,0.5,0.1,0.7,0.2c2.3,0.6,3.6,2.3,3.6,4.7c0,2.4-1.4,4.3-3.7,5
		c-0.7,0.2-1.4,0.3-2.2,0.3c-1.2,0-2.3,0-3.5-0.1c0,0-0.1,0-0.2,0c0.5-0.5,0.6-1.1,0.6-1.7c0-2.3,0-4.5,0-6.8
		C82.3,42.1,82.4,41.5,81.9,41.1z M84,46.2c0,1.2,0,2.4,0,3.5c0,0.3,0.1,0.4,0.4,0.4c1.1,0.1,2.3,0,3.3-0.5c1-0.5,1.6-1.3,1.8-2.4
		c0.1-0.7,0.1-1.5-0.1-2.2c-0.3-1.3-1.1-2.2-2.5-2.6c-0.8-0.2-1.6-0.2-2.4-0.1C84,42.3,84,42.3,84,42.8C84,43.9,84,45,84,46.2z"/>
	<path class="st100" d="M127.3,43.4c-0.1,0.3-0.1,0.4-0.1,0.6c0,1.8,0,3.6,0,5.4c0,0.7,0,1.4,0.8,1.9c-1,0-1.8,0-2.6,0
		c0.3-0.3,0.5-0.6,0.6-1c0.1-0.4,0.1-0.7,0.1-1.1c0-2,0-4.1,0-6.1c0-0.7,0-1.4-0.8-2c0.8,0,1.4,0,2.1,0c0.2,0,0.2,0.1,0.3,0.3
		c1.9,2.4,3.8,4.9,5.7,7.3c0.1,0.1,0.1,0.2,0.2,0.1c0.1-0.1,0-0.3,0-0.4c0-1.9,0-3.7,0-5.6c0-0.6-0.1-1.2-0.7-1.6
		c0.4-0.1,1.8-0.1,2.5,0c0,0,0,0,0,0c-0.5,0.5-0.6,1.1-0.6,1.7c0,1.7,0,3.4,0,5.1c0,1.1,0,2.1,0,3.2c0,0.2,0,0.3,0,0.6
		c-0.5-0.1-0.9-0.4-1.3-0.7c-0.4-0.3-0.7-0.7-0.9-1c-1.7-2.1-3.3-4.2-5-6.4C127.5,43.6,127.5,43.5,127.3,43.4z"/>
	<path class="st99" d="M110.6,45.3c0.2,0.2,0.4,0.2,0.6,0.3c2,0.8,2.4,3.1,0.9,4.6c-0.6,0.6-1.3,0.9-2.1,1c-1.6,0.2-3.2,0.1-4.8,0.1
		c0.5-0.4,0.6-0.9,0.6-1.4c0-0.5,0-1,0-1.4c0-1.8,0-3.6,0-5.5c0-0.1,0-0.3,0-0.4c0-0.5-0.1-1.1-0.6-1.5c0.2,0,0.4,0,0.5,0
		c1.1,0,2.1,0,3.2,0c0.7,0,1.4,0.1,2,0.4c0.8,0.4,1.2,1.1,1.1,2c0,0.5-0.2,1-0.6,1.3C111.1,45,110.9,45.1,110.6,45.3z M107.3,48.1
		C107.3,48.1,107.3,48.1,107.3,48.1c0,0.4,0,0.8,0,1.1c0,0.8,0,0.8,0.8,0.9c0.6,0.1,1.2,0.1,1.8-0.1c1.5-0.5,1.7-2.1,1-3
		c-0.3-0.4-0.7-0.6-1.2-0.7c-0.7-0.2-1.3-0.1-2-0.1c-0.3,0-0.3,0.1-0.3,0.3C107.3,47.1,107.3,47.6,107.3,48.1z M107.3,43.6
		C107.3,43.6,107.3,43.6,107.3,43.6c0,0.4,0,0.8,0,1.2c0,0.2,0,0.3,0.2,0.3c0.7,0,1.5,0,2.1-0.5c0.7-0.4,0.8-1.2,0.4-1.9
		c-0.3-0.5-0.8-0.8-1.4-0.8c-0.4,0-0.7,0.1-1.1,0.1c-0.2,0-0.2,0.1-0.2,0.3C107.3,42.8,107.3,43.2,107.3,43.6z"/>
	<path class="st99" d="M199.8,41.1c1,0,1.8,0,2.8,0c-0.6,0.6-0.6,1.2-0.6,1.9c0,2.2,0,4.3,0,6.5c0,0.7,0,1.3,0.6,1.9
		c-0.7,0-1.3,0-2,0c-0.2,0-0.3-0.1-0.3-0.3c0-0.2,0-0.4,0-0.5c-0.1,0-0.1,0-0.2,0c-1.2,1.1-2.6,1.2-4.1,0.9
		c-1.5-0.4-2.4-1.5-2.4-3.1c0-1.8,0-3.5,0-5.3c0-0.2,0-0.4,0-0.6c0-0.5-0.1-1-0.6-1.3c0.9,0,1.8,0,2.8,0c-0.6,0.5-0.6,1.2-0.6,1.9
		c0,1.5,0,3,0,4.5c0,0.6,0.1,1.2,0.3,1.7c0.2,0.5,0.5,0.8,1,1c1,0.5,2.5,0.2,3.3-0.6c0.3-0.3,0.5-0.7,0.5-1.2c0-2,0-3.9,0-5.9
		C200.4,41.9,200.3,41.5,199.8,41.1z"/>
	<path class="st101" d="M204.1,41.1c0.2-0.1,0.3-0.1,0.4-0.1c1.1,0,2.1,0,3.2,0c0.6,0,1.2,0.1,1.8,0.3c1.4,0.6,1.9,2.3,1,3.6
		c-0.4,0.5-0.9,0.9-1.4,1.2c-0.2,0.1-0.3,0.1-0.5,0.3c0.7,0.9,1.4,1.8,2.1,2.6c0.7,0.9,1.6,1.6,2.5,2.3c-0.6,0-1.3,0.1-1.9,0
		c-0.4-0.1-0.8-0.3-1.1-0.6c-1.2-1.5-2.4-2.9-3.4-4.6c0.1-0.1,0.2-0.1,0.4-0.2c0.5-0.1,1-0.3,1.4-0.6c0.7-0.5,1-1.2,0.8-2
		c-0.2-0.7-0.8-1.2-1.6-1.3c-0.4,0-0.7,0-1.1,0.1c-0.2,0-0.2,0.1-0.2,0.2c0,0.1,0,0.3,0,0.4c0,2.3,0,4.5,0,6.8c0,0.6,0,1.3,0.6,1.7
		c-0.9,0-1.8,0-2.8,0c0.6-0.6,0.6-1.3,0.6-1.9c0-2.1,0-4.3,0-6.4c0-0.3,0-0.7-0.1-1C204.5,41.6,204.4,41.3,204.1,41.1z"/>
	<path class="st99" d="M191.2,42.8c-1.6-1-3.2-1.1-4.9-0.3c-1.2,0.6-1.9,1.6-2.1,3c-0.3,2.8,1.7,5,4.5,5c0.6,0,1.2-0.1,1.8-0.2
		c0.2-0.1,0.3-0.1,0.3-0.4c0-0.8,0-1.6,0-2.5c0-0.5-0.2-0.9-0.6-1.3c0.8,0,1.5,0,2.2,0c0,0.8,0,1.7,0,2.5c0,0.8,0,1.6,0,2.5
		c-0.5,0.2-1.1,0.2-1.6,0.3c-1.5,0.2-3,0.3-4.5-0.1c-0.6-0.2-1.2-0.4-1.8-0.8c-1.5-1-2.1-2.5-2.1-4.3c0-2.5,1.6-4.4,4.2-5.1
		c1.4-0.4,2.9-0.3,4.4-0.1c0.3,0,0.4,0.2,0.4,0.5C191.2,41.9,191.3,42.3,191.2,42.8z"/>
	<path class="st101" d="M124.6,51.3c-1.1,0-2,0-3,0c0.5-0.3,0.4-0.7,0.2-1.1c-0.3-0.8-0.6-1.6-0.9-2.3c-0.1-0.3-0.2-0.3-0.5-0.3
		c-1.1,0-2.1,0-3.2,0c-0.3,0-0.4,0.1-0.5,0.3c-0.2,0.7-0.5,1.4-0.8,2.1c-0.2,0.7-0.2,0.8,0.2,1.4c-0.9,0-1.7,0-2.7-0.1
		c0.7-0.5,1-1.1,1.3-1.7c0.9-2.3,1.8-4.5,2.7-6.8c0.1-0.1,0.1-0.3,0.2-0.4c0.2-0.4,0.3-0.9-0.2-1.3c0.8,0,1.4,0,2.1,0
		c0.3,0,0.3,0.2,0.4,0.3c0.5,1.2,1,2.3,1.4,3.5c0.5,1.4,1.1,2.7,1.6,4.1C123.5,49.8,123.8,50.7,124.6,51.3z M120.4,46.3
		c-0.5-1.3-0.9-2.5-1.5-3.8c-0.5,1.3-1,2.6-1.5,3.8C118.4,46.3,119.3,46.3,120.4,46.3z"/>
	<path class="st101" d="M254,41c0.8,0,1.4,0,2.1,0c0.3,0,0.3,0.2,0.4,0.4c0.5,1.3,1,2.5,1.5,3.8c0.5,1.2,1,2.4,1.5,3.7
		c0.4,0.9,0.6,1.8,1.5,2.4c-1.1,0-2,0-3.1,0c0.2-0.2,0.5-0.3,0.5-0.6c0-0.2-0.1-0.4-0.2-0.6c-0.3-0.8-0.6-1.5-0.9-2.3
		c-0.1-0.3-0.2-0.4-0.5-0.4c-1.1,0-2.1,0-3.2,0c-0.3,0-0.4,0.1-0.5,0.3c-0.2,0.7-0.5,1.4-0.8,2.1c-0.2,0.5-0.3,1,0.4,1.4
		c-1,0-1.8,0-2.8-0.1c0.7-0.4,1-1,1.2-1.7c0.9-2.3,1.9-4.6,2.8-7c0-0.1,0.1-0.2,0.1-0.3C254.4,41.9,254.5,41.4,254,41z M255.4,42.5
		c-0.6,1.2-1.1,2.4-1.5,3.7c1,0,2,0,3,0C256.3,45,255.8,43.8,255.4,42.5z"/>
	<path class="st101" d="M156.7,51.3c-1,0-2,0-3,0c0.5-0.3,0.4-0.7,0.2-1.1c-0.3-0.8-0.6-1.6-0.9-2.4c-0.1-0.3-0.2-0.3-0.5-0.3
		c-1.1,0-2.1,0-3.2,0c-0.3,0-0.4,0.1-0.5,0.3c-0.3,0.7-0.5,1.5-0.8,2.2c-0.2,0.5-0.2,0.9,0.4,1.2c-0.9,0-1.8,0-2.7,0
		c0.1-0.2,0.2-0.2,0.3-0.3c0.4-0.4,0.7-0.8,0.9-1.3c0.9-2.4,1.9-4.7,2.8-7.1c0-0.1,0.1-0.2,0.1-0.3c0.2-0.4,0.2-0.8-0.3-1.2
		c0.8,0,1.5,0,2.2,0c0.2,0,0.3,0.2,0.4,0.3c0.4,1,0.8,2.1,1.3,3.1c0.7,1.7,1.4,3.4,2.1,5.1C155.7,50.2,156,50.8,156.7,51.3z
		 M152.4,46.3c-0.5-1.3-0.9-2.5-1.5-3.8c-0.5,1.4-1,2.6-1.5,3.8C150.4,46.3,151.4,46.3,152.4,46.3z"/>
	<path class="st101" d="M224.2,49.2c0.2,0,0.3,0.2,0.5,0.3c0.9,0.6,1.8,0.9,2.8,0.9c0.6,0,1.1-0.1,1.6-0.4c0.9-0.6,1-1.6,0.2-2.3
		c-0.3-0.3-0.6-0.5-1-0.7c-0.5-0.3-1.1-0.5-1.6-0.7c-0.5-0.2-0.9-0.5-1.4-0.8c-1.3-1-1.3-3.3,0.5-4.2c0.5-0.2,1-0.4,1.6-0.5
		c0.9-0.1,1.9-0.1,2.8,0.1c0.6,0.1,0.5,0.1,0.5,0.6c0,0.4,0,0.8,0,1.2c-0.2,0.1-0.3-0.1-0.4-0.2c-0.8-0.6-1.7-0.8-2.7-0.6
		c-0.3,0.1-0.5,0.1-0.7,0.3c-0.6,0.4-0.8,1.2-0.3,1.8c0.3,0.4,0.6,0.6,1,0.8c0.6,0.3,1.2,0.6,1.8,0.9c0.5,0.2,0.9,0.5,1.3,0.8
		c1.1,0.9,1.3,2.1,0.5,3.2c-0.6,0.9-1.5,1.4-2.5,1.7c-1.3,0.3-2.5,0.1-3.8-0.2c-0.2,0-0.3-0.1-0.3-0.3
		C224.5,50.3,224.4,49.8,224.2,49.2z"/>
	<path class="st101" d="M172.4,42.9c-0.7-0.6-1.4-0.9-2.1-1c-0.6-0.1-1.1,0-1.6,0.3c-0.8,0.4-1,1.3-0.3,2c0.3,0.3,0.6,0.5,1,0.7
		c0.6,0.3,1.2,0.6,1.8,0.9c0.5,0.2,1,0.5,1.4,0.8c0.9,0.8,1.1,1.9,0.5,2.9c-0.6,1.1-1.6,1.6-2.7,1.9c-1.2,0.3-2.5,0.1-3.7-0.2
		c-0.2-0.1-0.3-0.1-0.4-0.3c-0.1-0.5-0.2-1.1-0.4-1.6c0.2,0,0.3,0.2,0.5,0.3c0.8,0.5,1.8,0.9,2.8,0.9c0.6,0,1.2-0.1,1.7-0.5
		c0.8-0.5,0.9-1.5,0.3-2.2c-0.3-0.3-0.6-0.5-1-0.7c-0.5-0.3-1.1-0.5-1.7-0.8c-0.5-0.2-0.9-0.5-1.4-0.8c-1.3-1-1.4-3.3,0.5-4.2
		c0.4-0.2,0.8-0.3,1.2-0.4c1.1-0.2,2.2-0.1,3.2,0.1c0.3,0.1,0.4,0.2,0.4,0.5C172.3,41.9,172.4,42.3,172.4,42.9z"/>
	<path class="st99" d="M145.5,49.4c-0.2,0.6-0.5,1.1-0.7,1.6c-0.1,0.2-0.2,0.2-0.4,0.3c-0.7,0.3-1.5,0.3-2.2,0.3
		c-0.9,0-1.8-0.2-2.7-0.5c-1.8-0.8-2.8-2.1-3-4c-0.1-0.8-0.1-1.6,0.1-2.4c0.6-2.1,2.2-3.5,4.3-3.8c1.2-0.1,2.4,0,3.5,0.3
		c0.2,0,0.3,0.1,0.3,0.3c0,0.5,0,1,0,1.5c-0.2,0-0.4-0.1-0.5-0.2c-0.9-0.5-1.9-0.7-3-0.6c-1.5,0.2-2.7,1.3-3,2.9
		c-0.2,1-0.1,2,0.3,2.9c0.8,1.8,2.6,2.7,4.7,2.2c0.6-0.1,1.2-0.4,1.8-0.6C145.2,49.4,145.3,49.3,145.5,49.4z"/>
	<path class="st102" d="M225.6,37.4c0-0.6,0-0.6,0.6-0.6c0.5,0,0.5-0.1,0.6-0.5c0-0.1,0.1-0.3,0.1-0.4c0.1,0,0.2,0,0.4,0
		c6.6,0,13.2,0,19.8,0c0.1,0,0.2,0,0.3,0c0,0.2-0.1,0.3-0.2,0.5c-0.2,0.1-0.3,0.1-0.5,0.1c-0.4,0-0.5,0.1-0.6,0.5c0,0.2,0,0.4,0,0.5
		C239.3,37.4,232.5,37.4,225.6,37.4z"/>
	<path class="st100" d="M92.6,51.2c0.5-0.4,0.5-0.9,0.5-1.5c0-2.4,0-4.8,0-7.1c0-0.6-0.1-1.1-0.6-1.6c2,0,3.8,0,5.7,0
		c0.1,0.5,0,1.1,0,1.6c-0.2,0.1-0.2-0.1-0.3-0.1c-0.2-0.2-0.5-0.3-0.8-0.3c-0.7-0.1-1.3,0-2,0c-0.2,0-0.3,0.1-0.3,0.4
		c0,0.8,0,1.5,0,2.3c0,0.2,0.1,0.3,0.3,0.3c0.7,0,1.3,0,2,0c0.2,0,0.3,0,0.3,0.3c0,0.4,0,0.8,0,1.3c-0.8-0.5-1.6-0.3-2.4-0.3
		c-0.1,0-0.2,0.1-0.2,0.2c0,0.3,0,0.5,0,0.8c0,0.8,0,1.5,0,2.3c0,0.2,0,0.3,0.3,0.4c0.8,0,1.5,0.2,2.3,0.2c0.6,0,1.2-0.2,1.7-0.5
		c0.2-0.1,0.3-0.2,0.6-0.4c-0.2,0.7-0.4,1.3-0.7,1.9c-0.1,0.2-0.2,0.2-0.4,0.2c-0.6,0-1.2,0-1.8,0c-1.4,0-2.8,0-4.2,0
		C92.6,51.3,92.6,51.2,92.6,51.2z"/>
	<path class="st101" d="M180.2,41c0,0.5,0,1.1,0,1.6c-0.2,0.1-0.2,0-0.3-0.1c-0.3-0.2-0.6-0.3-1-0.3c-0.6,0-1.2,0-1.8,0
		c-0.3,0-0.4,0.1-0.4,0.4c0,0.7,0,1.5,0,2.2c0,0.3,0.1,0.3,0.3,0.3c0.7,0,1.3,0,2,0c0.2,0,0.3,0,0.3,0.2c0,0.4,0,0.8,0,1.3
		c-0.7-0.5-1.5-0.3-2.3-0.4c-0.2,0-0.3,0.1-0.3,0.3c0,1,0,2,0,3.1c0,0.2,0,0.3,0.2,0.3c1,0.1,2,0.3,3,0.1c0.6-0.1,1.1-0.4,1.6-0.8
		c-0.2,0.7-0.4,1.3-0.6,1.9c-0.1,0.2-0.2,0.1-0.4,0.1c-0.8,0-1.5,0-2.3,0c-1.2,0-2.3,0-3.5,0c-0.1,0-0.2,0-0.3,0
		c0.5-0.4,0.6-1,0.6-1.5c0-2.4,0-4.7,0-7.1c0-0.6-0.1-1.1-0.6-1.6C176.5,41,178.4,41,180.2,41z"/>
	<path class="st101" d="M271.6,51.3c-1.1,0-2,0-3,0c0.5-0.5,0.6-1,0.6-1.6c0-2.3,0-4.6,0-7c0-0.6-0.1-1.2-0.6-1.7c0.4,0,0.6,0,0.8,0
		c1,0,2,0,2.9,0c0.7,0,1.3,0.1,1.9,0.4c2.1,0.9,2.1,3.3,0.7,4.5c-1,0.8-2.1,1-3.3,0.8c-0.1,0-0.1,0-0.1-0.1c0.2-0.1,0.5-0.1,0.7-0.2
		c0.5-0.1,1-0.4,1.4-0.8c0.6-0.6,0.7-1.4,0.4-2.1c-0.2-0.7-0.8-1-1.4-1.1c-0.5-0.1-1-0.1-1.5,0c-0.2,0-0.3,0.1-0.3,0.3
		c0,0.1,0,0.3,0,0.4c0,2.1,0,4.2,0,6.3c0,0.1,0,0.3,0,0.4C270.8,50.2,270.9,50.8,271.6,51.3z"/>
	<path class="st103" d="M99.4,37.4c-5.7,0-11.4,0-17.2,0c-0.3,0-0.6,0-0.7-0.5c0-0.2-0.2-0.3-0.4-0.3c-0.3,0-0.3-0.2-0.3-0.4
		c0-0.3,0.2-0.3,0.4-0.3c0,0,0,0,0.1,0c1.3,0.1,2.7-0.1,4-0.1c4.6,0,9.2,0,13.8,0c0,0.2-0.2,0.4,0,0.5C99.5,36.6,99.4,37,99.4,37.4z
		"/>
	<path class="st101" d="M241.8,45.5c0.7-1.1,1.4-2,2-3c0.4-0.6,0.3-0.8-0.2-1.4c0.5,0,0.9,0,1.3,0c0.4,0,0.8,0,1.2,0
		c0.1,0.2-0.1,0.3-0.2,0.5c-1.1,1.6-2.1,3.3-3.2,4.9c-0.2,0.3-0.3,0.6-0.3,0.9c0,0.6,0,1.3,0,1.9c0,1.2,0,1.2,0.7,2
		c-0.5,0-1,0-1.4,0c-0.5,0-0.9,0-1.5,0c0.6-0.5,0.6-1.1,0.6-1.7c0-0.8,0-1.6,0-2.4c0-0.3-0.1-0.5-0.2-0.8c-0.9-1.4-1.7-2.7-2.5-4.1
		c-0.3-0.5-0.7-0.9-1.2-1.3c0.7,0,1.3-0.1,2,0c0.3,0.1,0.5,0.3,0.6,0.6c0.7,1.1,1.3,2.2,2,3.3C241.5,45.1,241.6,45.3,241.8,45.5z"/>
	<path class="st103" d="M258.6,35.8c4.8,0,9.6,0,14.3,0c0.8,0,1.6,0.1,2.3,0.1c0.3,0,0.4,0.1,0.4,0.4c0,0.3-0.1,0.6-0.2,0.9
		c0,0.1-0.2,0.2-0.3,0.2c-0.1,0-0.2,0-0.3,0c-5.4,0-10.9,0-16.3,0c0-0.2,0-0.4-0.1-0.6c-0.1-0.1-0.1-0.3,0-0.4
		C258.7,36.2,258.6,36,258.6,35.8z"/>
	<path class="st104" d="M99.4,37.4c0-0.4,0.1-0.8-0.3-1.1c-0.2-0.1,0-0.4,0-0.5c5.2,0,10.4,0,15.6,0c0.1,0,0.2,0,0.4,0
		c0,0.2-0.1,0.5,0.1,0.7c0.3,0.3,0.3,0.6,0.3,0.9C110.1,37.4,104.7,37.4,99.4,37.4z"/>
	<path class="st101" d="M266.6,46.7c-0.8-0.5-1.6-0.3-2.3-0.4c-0.2,0-0.3,0.1-0.3,0.3c0,0.5,0,0.9,0,1.4c0,0.6,0,1.2,0,1.8
		c0,0.5,0.1,1.1,0.6,1.5c-0.9,0-1.8,0-2.8,0c0.6-0.5,0.6-1.1,0.6-1.7c0-2.3,0-4.6,0-6.9c0-0.6-0.1-1.2-0.6-1.7c1.9,0,3.8,0,5.7,0
		c0,0.5,0,1.1,0,1.7c-1-0.8-2-0.5-3.1-0.5c-0.3,0-0.4,0.1-0.4,0.4c0,0.7,0,1.5,0,2.2c0,0.3,0.1,0.3,0.4,0.3c0.6,0,1.3,0,1.9,0
		c0.2,0,0.3,0,0.3,0.2C266.6,45.8,266.6,46.2,266.6,46.7z"/>
	<path class="st102" d="M115.4,37.4c0-0.3,0-0.7-0.3-0.9c-0.2-0.2-0.1-0.4-0.1-0.7c4.6,0,9.2,0,13.8,0c0,0.3,0.1,0.6,0.4,0.8
		c0.4,0.2,0.5,0.5,0.5,0.8C125,37.4,120.2,37.4,115.4,37.4z"/>
	<path class="st104" d="M258.6,35.8c0.1,0.2,0.2,0.5-0.1,0.7c-0.1,0.1-0.1,0.2,0,0.4c0.1,0.2,0.1,0.4,0.1,0.6c-4.2,0-8.3,0-12.5,0
		c0-0.2,0-0.4,0-0.5c0-0.4,0.1-0.5,0.6-0.5c0.2,0,0.4,0,0.5-0.1c0.2-0.1,0.2-0.3,0.2-0.5c1.9,0,3.8,0,5.7,0
		C254.9,35.8,256.8,35.8,258.6,35.8z"/>
	<path class="st105" d="M157.9,52.9c0.3-0.3,0.5-0.5,0.6-0.7c0.1-0.2,0.3-0.4,0.4-0.6c0.1-0.1,0.1-0.3-0.1-0.3c-0.1,0-0.1,0-0.2-0.1
		c-0.4-0.2-0.6-0.5-0.5-0.9c0-0.4,0.3-0.7,0.7-0.8c0.4-0.1,0.8,0,1,0.4c0.2,0.3,0.2,0.6,0.2,0.9c-0.1,0.8-0.6,1.5-1.2,2
		C158.6,53.1,158.3,52.9,157.9,52.9z"/>
	<path class="st97" d="M124.3,28.8C124.3,28.8,124.3,28.8,124.3,28.8C124.3,28.7,124.3,28.8,124.3,28.8
		C124.4,28.8,124.3,28.7,124.3,28.8C124.3,28.8,124.3,28.8,124.3,28.8z"/>
	<path class="st106" d="M84,46.2c0-1.1,0-2.3,0-3.4c0-0.5,0-0.5,0.5-0.5c0.8-0.1,1.6-0.1,2.4,0.1c1.3,0.4,2.1,1.2,2.5,2.6
		c0.2,0.7,0.2,1.5,0.1,2.2c-0.2,1.1-0.8,1.9-1.8,2.4c-1,0.6-2.1,0.7-3.3,0.5c-0.3,0-0.4-0.1-0.4-0.4C84,48.5,84,47.4,84,46.2z"/>
</g>
</svg>
