<?xml version="1.0" encoding="utf-8"?>
<!-- Generator: Adobe Illustrator 22.1.0, SVG Export Plug-In . SVG Version: 6.00 Build 0)  -->
<svg version="1.1" id="Capa_1" xmlns="http://www.w3.org/2000/svg" xmlns:xlink="http://www.w3.org/1999/xlink" x="0px" y="0px"
	 viewBox="0 0 175 176" style="enable-background:new 0 0 175 176;" xml:space="preserve">
<style type="text/css">
	.st0{fill:#F1F1F1;}
	.st1{fill:#FFFFFF;}
	.st2{fill:#0187CD;}
	.st3{opacity:0.55;clip-path:url(#SVGID_2_);}
	.st4{opacity:0.5;fill:none;stroke:#BEBEBE;stroke-miterlimit:10;}
	.st5{fill:#D8D8D8;}
	.st6{fill:#004485;}
	.st7{opacity:0.55;}
	.st8{fill:#004484;}
	.st9{fill:#87888B;}
	.st10{fill:#2F4C87;}
	.st11{fill:#E1E2E3;}
	.st12{fill:#C47930;}
	.st13{fill:#C3C3C3;}
	.st14{fill:#A4D523;}
	.st15{fill:#27608D;}
	.st16{fill:#749323;}
	.st17{fill:#FF0000;}
	.st18{fill:#CE7535;}
	.st19{fill:#265D9B;}
	.st20{opacity:5.000000e-02;}
	.st21{clip-path:url(#SVGID_4_);fill:#FFFFFF;}
	.st22{fill:#304483;}
	.st23{fill:#9D9FA1;}
	.st24{opacity:0.8;}
	.st25{fill:url(#SVGID_5_);}
	.st26{fill:url(#SVGID_6_);}
	.st27{opacity:0.3;fill:#FFFFFF;stroke:#FFFFFF;stroke-miterlimit:10;}
	.st28{fill:none;stroke:#265D9B;stroke-width:1.5;stroke-miterlimit:10;}
	.st29{opacity:0.85;fill:#FFFFFF;}
	.st30{opacity:0.85;fill:#9D9FA1;}
	.st31{opacity:0.75;}
	.st32{fill:#2B6BA7;}
	.st33{fill:none;stroke:#265D9B;stroke-width:3;stroke-miterlimit:10;}
	.st34{fill:none;stroke:#CE7535;stroke-width:3;stroke-miterlimit:10;}
	.st35{fill:url(#SVGID_7_);stroke:#265D9B;stroke-miterlimit:10;}
	.st36{fill:url(#SVGID_8_);stroke:#265D9B;stroke-miterlimit:10;}
	.st37{fill:#F3F3F3;}
	.st38{fill:#040707;}
	.st39{fill:#6F7175;}
	.st40{fill:#01CCF7;}
	.st41{fill:#00C0F5;}
	.st42{fill:#707276;}
	.st43{fill:#04E777;}
	.st44{fill:#04D8F7;}
	.st45{fill:#F6C302;}
	.st46{fill:#D83155;}
	.st47{fill:#E9354C;}
	.st48{fill:#F6CE05;}
	.st49{fill:#F33A45;}
	.st50{fill:#4D4D4D;}
	.st51{opacity:0.5;}
	.st52{fill:none;stroke:#FFFFFF;stroke-width:3;stroke-miterlimit:10;}
	.st53{fill:none;stroke:#808080;stroke-width:1.5;stroke-miterlimit:10;}
	.st54{opacity:0.5;fill:none;stroke:#C3C3C3;stroke-miterlimit:10;}
	.st55{fill:url(#SVGID_9_);stroke:#265D9B;stroke-miterlimit:10;}
	.st56{fill:url(#SVGID_10_);stroke:#265D9B;stroke-miterlimit:10;}
	.st57{fill:url(#SVGID_11_);stroke:#265D9B;stroke-miterlimit:10;}
	.st58{fill:url(#SVGID_12_);stroke:#265D9B;stroke-miterlimit:10;}
	.st59{fill:none;stroke:#265D9B;stroke-width:0.25;stroke-miterlimit:10;}
	.st60{fill:#6D6D6D;}
	.st61{fill:#8CBF37;}
	.st62{fill:#0C6F9E;}
	.st63{fill:#DFB70E;}
	.st64{fill:#FAA93F;}
	.st65{fill:#6B7137;}
	.st66{fill:#AA6A43;}
	.st67{fill:#147DA1;}
	.st68{fill:#428B44;}
	.st69{fill:#E81D24;}
	.st70{fill:#8BC548;}
	.st71{fill:#0CB8B8;}
	.st72{fill:#002B51;}
	.st73{fill:#A5A7AA;}
	.st74{fill:#6F7173;}
	.st75{fill:#707274;}
	.st76{fill:#A6A8AB;}
	.st77{fill:#A6A7AA;}
	.st78{fill:#A6A8AA;}
	.st79{fill:#6E7072;}
	.st80{clip-path:url(#SVGID_16_);fill:#FFFFFF;}
	.st81{clip-path:url(#SVGID_16_);}
	.st82{fill:#054B8D;}
	.st83{fill:#B12E33;}
	.st84{fill:#B43439;}
	.st85{fill:#B32E33;}
	.st86{fill:#B02D32;}
	.st87{fill:#25AAC9;}
	.st88{clip-path:url(#SVGID_18_);fill:#FFFFFF;}
	.st89{clip-path:url(#SVGID_18_);fill:#B43439;}
	.st90{clip-path:url(#SVGID_20_);fill:#FFFFFF;}
	.st91{fill:#004D8D;}
	.st92{fill:none;stroke:#F3F3F3;stroke-miterlimit:10;}
	.st93{clip-path:url(#SVGID_22_);fill:#FFFFFF;}
	.st94{clip-path:url(#SVGID_22_);}
	.st95{clip-path:url(#SVGID_24_);fill:#FFFFFF;}
	.st96{clip-path:url(#SVGID_24_);fill:#B43439;}
	.st97{fill:none;stroke:#FFFFFF;stroke-miterlimit:10;}
	.st98{fill:none;stroke:#CE7535;stroke-miterlimit:10;}
	.st99{fill:none;stroke:#000000;stroke-miterlimit:10;}
	.st100{fill:#015594;}
	.st101{fill:#085A98;}
	.st102{fill:#2497D4;}
	.st103{fill:#10619E;}
	.st104{fill:#4C91C5;}
	.st105{fill:#2673AD;}
	.st106{fill:#1A68A4;}
	.st107{fill:#327CB3;}
	.st108{fill:#3A82B9;}
	.st109{fill:#64A4D4;}
	.st110{fill:#00427A;}
	.st111{fill:#F8FBFC;}
	.st112{fill:#7EC1E5;}
	.st113{fill:#C1E1F2;}
	.st114{fill:#FCFDFD;}
	.st115{fill:#E5BC2D;}
	.st116{fill:#DEB12D;}
	.st117{fill:#3A4981;}
	.st118{fill:#D19C2C;}
	.st119{fill:#6D6750;}
	.st120{fill:#3B5188;}
	.st121{fill:#4C7FB7;}
	.st122{fill:#3B5892;}
	.st123{fill:#426499;}
	.st124{fill:#4874A9;}
	.st125{fill:#4A3C1D;}
	.st126{fill:#5F7682;}
	.st127{fill:#DDA62B;}
	.st128{fill:#383D75;}
	.st129{fill:#DDAB2C;}
	.st130{fill:#BEBEBE;}
	.st131{fill:none;}
	.st132{clip-path:url(#SVGID_28_);fill:#FFFFFF;}
	.st133{clip-path:url(#SVGID_28_);}
	.st134{clip-path:url(#SVGID_30_);fill:#FFFFFF;}
	.st135{clip-path:url(#SVGID_30_);fill:#B43439;}
</style>
<g>
	<g>
		<path class="st8" d="M86.5,26.5c0,0-21.7,17.9-50.4,19.7v57.9c0,0,2.4,35.9,50.4,49.7c47.9-13.8,50.4-49.7,50.4-49.7V46.2
			C108.3,44.4,86.5,26.5,86.5,26.5z"/>
		<path class="st1" d="M110.8,78.2V67.8c0-13.4-10.9-24.3-24.3-24.3c-13.4,0-24.3,10.9-24.3,24.3v10.3h-2.7v45.7h54.1V78.2H110.8z
			 M70.1,67.8c0-9.1,7.4-16.5,16.5-16.5S103,58.7,103,67.8v10.3h-33V67.8z"/>
		<linearGradient id="SVGID_2_" gradientUnits="userSpaceOnUse" x1="86.5438" y1="174.9829" x2="86.5438" y2="3.5526">
			<stop  offset="0" style="stop-color:#FFFFFF;stop-opacity:0.5"/>
			<stop  offset="0.1291" style="stop-color:#FFFFFF;stop-opacity:0.4355"/>
			<stop  offset="1" style="stop-color:#FFFFFF;stop-opacity:0"/>
		</linearGradient>
		<circle style="fill:url(#SVGID_2_);stroke:#265D9B;stroke-miterlimit:10;" cx="86.5" cy="89.3" r="85.7"/>
		<linearGradient id="SVGID_4_" gradientUnits="userSpaceOnUse" x1="86.5438" y1="171.3811" x2="86.5438" y2="7.1545">
			<stop  offset="0" style="stop-color:#FFFFFF;stop-opacity:0.5"/>
			<stop  offset="0.1291" style="stop-color:#FFFFFF;stop-opacity:0.4355"/>
			<stop  offset="1" style="stop-color:#FFFFFF;stop-opacity:0"/>
		</linearGradient>
		<circle style="fill:url(#SVGID_4_);stroke:#265D9B;stroke-miterlimit:10;" cx="86.5" cy="89.3" r="82.1"/>
	</g>
	<g>
		<path class="st19" d="M100,90.3c-1.9,0-3.2-0.8-4-2.5c-0.6-1.3-0.6-2.6-0.6-2.6l0-0.5h-8.9h-0.2h-8.9l0,0.5c0,0,0,1.3-0.6,2.6
			c-0.8,1.7-2.1,2.5-4,2.5h-0.5v13.8c0,0.1,0,2.1,1.8,4.7c1.6,2.4,5,6,12.2,9l0.1-0.2l0.1,0.2c7.2-3.1,10.6-6.6,12.2-9
			c1.8-2.7,1.8-4.7,1.8-4.7V90.3H100z M99.5,104.1c0,0,0,1.8-1.7,4.3c-1.5,2.3-4.7,5.5-11.4,8.4c-6.7-2.9-9.9-6.2-11.4-8.4
			c-1.6-2.5-1.7-4.2-1.7-4.3V91.3c2.5-0.2,3.8-1.8,4.4-3.1c0.5-1,0.6-1.9,0.7-2.5h7.9h0.2h7.9c0.1,0.6,0.2,1.5,0.7,2.5
			c0.6,1.3,1.9,2.9,4.4,3.1V104.1z"/>
		<path class="st19" d="M93.3,92.9c-0.7-0.9-0.6-2.2-0.6-2.2l0.1-0.6l-0.6,0h-5.7h-0.2h-5.7l-0.6,0l0.1,0.6c0,0,0.1,1.3-0.6,2.2
			c-0.4,0.5-1.1,0.8-1.9,0.8l-0.5,0v9.8l0,0c0,0.2,1.2,5.7,9.2,9l0.1-0.2l0.1,0.2c8-3.2,9.2-8.7,9.2-9l0,0v-9.8l-0.5,0
			C94.4,93.6,93.7,93.4,93.3,92.9z M94.7,103.4c-0.1,0.2-0.4,1.4-1.4,2.9c-1.1,1.5-3.1,3.6-6.8,5.1c-3.7-1.6-5.8-3.6-6.8-5.1
			c-1.1-1.5-1.4-2.7-1.4-2.9v-8.8c0.9-0.1,1.6-0.5,2.1-1.1c0.7-0.8,0.8-1.8,0.8-2.4h5.2h0.2h5.2c0,0.6,0.2,1.6,0.8,2.4
			c0.5,0.6,1.2,1,2.1,1.1V103.4z"/>
		<path class="st19" d="M86.6,99.7L86.6,99.7c-1.4-0.3-2.3-0.6-2.3-1.6c0-0.4,0.1-0.7,0.4-1c0.5-0.5,1.3-0.6,1.8-0.6
			c0.8,0,1.8,0.3,2.2,1.2c0,0.1,0.1,0.1,0.1,0.1c0.1,0,0.1,0,0.2,0l0.5-0.3c0.1-0.1,0.1-0.2,0.1-0.3c-0.4-1-1.4-1.6-2.6-1.7v-1.1
			c0-0.1-0.1-0.2-0.2-0.2h-0.5c-0.1,0-0.2,0.1-0.2,0.2v1.1c-1.4,0.2-2.8,1-2.7,2.7c0,1.9,1.6,2.3,3,2.6l0,0c1.5,0.3,2.4,0.6,2.4,1.8
			c0,1.3-1.4,1.6-2.3,1.6c-0.9,0-2.1-0.3-2.5-1.3c0-0.1-0.1-0.1-0.1-0.1c-0.1,0-0.1,0-0.2,0l-0.5,0.3c-0.1,0.1-0.1,0.2-0.1,0.3
			c0.5,1.1,1.6,1.8,2.9,1.9v1.1c0,0.1,0.1,0.2,0.2,0.2h0.5c0.1,0,0.2-0.1,0.2-0.2v-1.1c1.4-0.1,2.8-0.9,2.9-2.7
			C89.8,100.4,88.1,100.1,86.6,99.7z"/>
	</g>
</g>
</svg>
