<?xml version="1.0" encoding="utf-8"?>
<!-- Generator: Adobe Illustrator 22.1.0, SVG Export Plug-In . SVG Version: 6.00 Build 0)  -->
<svg version="1.1" id="Capa_1" xmlns="http://www.w3.org/2000/svg" xmlns:xlink="http://www.w3.org/1999/xlink" x="0px" y="0px"
	 viewBox="0 0 120.5 59.5" style="enable-background:new 0 0 120.5 59.5;" xml:space="preserve">
<style type="text/css">
	.st0{fill:#0187CD;}
	.st1{opacity:0.55;clip-path:url(#SVGID_2_);}
	.st2{opacity:0.5;fill:none;stroke:#BEBEBE;stroke-miterlimit:10;}
	.st3{fill:#D8D8D8;}
	.st4{fill:#004485;}
	.st5{opacity:0.55;}
	.st6{fill:#FFFFFF;}
	.st7{fill:#004484;}
	.st8{fill:#87888B;}
	.st9{fill:#2F4C87;}
	.st10{fill:#E1E2E3;}
	.st11{fill:#C47930;}
	.st12{fill:#C3C3C3;}
	.st13{fill:#A4D523;}
	.st14{fill:#27608D;}
	.st15{fill:#749323;}
	.st16{fill:#FF0000;}
	.st17{fill:#CE7535;}
	.st18{fill:#265D9B;}
	.st19{opacity:5.000000e-02;}
	.st20{clip-path:url(#SVGID_4_);fill:#FFFFFF;}
	.st21{fill:#304483;}
	.st22{fill:#9D9FA1;}
	.st23{fill:#F1F1F1;}
	.st24{opacity:0.8;}
	.st25{fill:url(#SVGID_5_);}
	.st26{fill:url(#SVGID_6_);}
	.st27{opacity:0.3;fill:#FFFFFF;stroke:#FFFFFF;stroke-miterlimit:10;}
	.st28{fill:none;stroke:#265D9B;stroke-width:1.5;stroke-miterlimit:10;}
	.st29{opacity:0.85;fill:#FFFFFF;}
	.st30{opacity:0.85;fill:#9D9FA1;}
	.st31{opacity:0.75;}
	.st32{opacity:0.75;fill:none;}
	.st33{fill:#2B6BA7;}
	.st34{fill:none;stroke:#265D9B;stroke-width:3;stroke-miterlimit:10;}
	.st35{fill:none;stroke:#CE7535;stroke-width:3;stroke-miterlimit:10;}
	.st36{fill:url(#SVGID_7_);stroke:#265D9B;stroke-miterlimit:10;}
	.st37{fill:url(#SVGID_8_);stroke:#265D9B;stroke-miterlimit:10;}
	.st38{fill:#F3F3F3;}
	.st39{fill:#040707;}
	.st40{fill:#6F7175;}
	.st41{fill:#01CCF7;}
	.st42{fill:#00C0F5;}
	.st43{fill:#707276;}
	.st44{fill:#04E777;}
	.st45{fill:#04D8F7;}
	.st46{fill:#F6C302;}
	.st47{fill:#D83155;}
	.st48{fill:#E9354C;}
	.st49{fill:#F6CE05;}
	.st50{fill:#F33A45;}
	.st51{fill:#4D4D4D;}
	.st52{opacity:0.5;}
	.st53{fill:none;stroke:#FFFFFF;stroke-width:3;stroke-miterlimit:10;}
	.st54{fill:none;stroke:#808080;stroke-width:1.5;stroke-miterlimit:10;}
	.st55{opacity:0.5;fill:none;stroke:#C3C3C3;stroke-miterlimit:10;}
	.st56{fill:none;stroke:#265D9B;stroke-width:0.25;stroke-miterlimit:10;}
	.st57{fill:#6D6D6D;}
	.st58{fill:#8CBF37;}
	.st59{fill:#0C6F9E;}
	.st60{fill:#DFB70E;}
	.st61{fill:#FAA93F;}
	.st62{fill:#6B7137;}
	.st63{fill:#AA6A43;}
	.st64{fill:#147DA1;}
	.st65{fill:#428B44;}
	.st66{fill:#E81D24;}
	.st67{fill:#8BC548;}
	.st68{fill:#0CB8B8;}
	.st69{fill:#002B51;}
	.st70{fill:#A5A7AA;}
	.st71{fill:#6F7173;}
	.st72{fill:#707274;}
	.st73{fill:#A6A8AB;}
	.st74{fill:#A6A7AA;}
	.st75{fill:#A6A8AA;}
	.st76{fill:#6E7072;}
	.st77{clip-path:url(#SVGID_12_);fill:#FFFFFF;}
	.st78{clip-path:url(#SVGID_12_);}
	.st79{fill:#054B8D;}
	.st80{fill:#B12E33;}
	.st81{fill:#B43439;}
	.st82{fill:#B32E33;}
	.st83{fill:#B02D32;}
	.st84{fill:#25AAC9;}
	.st85{clip-path:url(#SVGID_14_);fill:#FFFFFF;}
	.st86{clip-path:url(#SVGID_14_);fill:#B43439;}
	.st87{clip-path:url(#SVGID_16_);fill:#FFFFFF;}
	.st88{fill:none;stroke:#F3F3F3;stroke-miterlimit:10;}
	.st89{clip-path:url(#SVGID_18_);fill:#FFFFFF;}
	.st90{clip-path:url(#SVGID_18_);}
	.st91{clip-path:url(#SVGID_20_);fill:#FFFFFF;}
	.st92{clip-path:url(#SVGID_20_);fill:#B43439;}
	.st93{fill:none;stroke:#FFFFFF;stroke-miterlimit:10;}
	.st94{fill:none;stroke:#CE7535;stroke-miterlimit:10;}
	.st95{fill:none;stroke:#000000;stroke-miterlimit:10;}
	.st96{fill:#015594;}
	.st97{fill:#085A98;}
	.st98{fill:#2497D4;}
	.st99{fill:#10619E;}
	.st100{fill:#4C91C5;}
	.st101{fill:#2673AD;}
	.st102{fill:#1A68A4;}
	.st103{fill:#327CB3;}
	.st104{fill:#3A82B9;}
	.st105{fill:#64A4D4;}
	.st106{fill:#00427A;}
	.st107{fill:#F8FBFC;}
	.st108{fill:#7EC1E5;}
	.st109{fill:#C1E1F2;}
	.st110{fill:#FCFDFD;}
	.st111{fill:#E5BC2D;}
	.st112{fill:#DEB12D;}
	.st113{fill:#3A4981;}
	.st114{fill:#D19C2C;}
	.st115{fill:#6D6750;}
	.st116{fill:#3B5188;}
	.st117{fill:#4C7FB7;}
	.st118{fill:#3B5892;}
	.st119{fill:#426499;}
	.st120{fill:#4874A9;}
	.st121{fill:#4A3C1D;}
	.st122{fill:#5F7682;}
	.st123{fill:#DDA62B;}
	.st124{fill:#383D75;}
	.st125{fill:#DDAB2C;}
</style>
<g>
	<path class="st69" d="M96.4,50.3c1.3-0.4,2.2-1.3,2.9-2.4c2.4-4.2-0.2-9.9-5.2-10.8c-3.7-0.7-7.4-0.2-11.1-0.3
		c-0.5,0-0.6,0.3-0.7,0.7c-0.6,1.8-1.2,3.6-1.8,5.4c0.6,0.5,1.6-0.3,2.1,0.7c0,4.6,0,9.3-0.1,13.9c0,0.4,0.1,0.7,0.6,0.6
		c1.9,0.2,3.9,0.1,5.8,0c0.2,0,0.3-0.2,0.2-0.3c0-1.8,0-3.5,0-5.3c0.1,0,0.3,0,0.4-0.1c0.9,1.6,1.8,3.3,2.7,4.9
		c0.3,0.7,0.8,0.9,1.5,0.9c1.9,0,3.8,0,5.8,0c0.9,0,0.9-0.2,0.5-0.9c-1.3-2-2.5-4-3.8-6C95.7,50.7,95.7,50.5,96.4,50.3z M91.5,46.3
		c-0.3,0-0.6,0-1.1,0C90,46.2,89.1,46.7,89,46c-0.2-0.9,0-1.8,0-2.7c0-0.1,0.3-0.2,0.5-0.2c0.8,0,1.5-0.1,2.3,0.1
		c0.9,0.2,1.5,0.6,1.4,1.6C93.1,45.8,92.4,46.2,91.5,46.3z"/>
	<path class="st69" d="M120.4,37.5c0-0.1,0-0.2,0-0.2c-0.1-0.4-0.4-0.3-0.7-0.3c-1.6,0-3.2,0-4.8,0c-0.3,0-0.7-0.2-0.8,0.3
		c0,0.1,0,0.2,0,0.2c0,3.9,0,7.8,0,11.7c0,0.7-0.1,1.3-0.3,1.9c-0.4,0.9-1,1.4-2.1,1.3c-1-0.1-1.6-0.6-1.9-1.5
		c-0.2-0.5-0.2-1-0.2-1.5c0-3.8,0-7.5,0-11.3c0-0.9-0.2-1.1-1.1-1.1c-1.6,0.1-3.2,0-4.8,0c-0.6,0-1,0.2-1.1,0.8
		c-0.5,1.7-1,3.4-1.6,5c-0.3,0.7,0,0.8,0.6,0.8c0.5,0,1.1-0.2,1.6,0.2c0,0.2,0,0.3,0,0.5c-0.1,2.2-0.1,4.5,0,6.7c0,0.2,0,0.5,0,0.7
		c0.2,3.5,2.5,5.9,6.5,6.9c5.3,1.3,10.3-1.9,10.6-7C120.6,46.8,120.4,42.1,120.4,37.5z"/>
	<path class="st69" d="M79.9,51.4c-2.2,0-4.4,0-6.6,0c-0.7,0-0.9-0.2-0.9-0.9c0-0.9,0.1-1.4,1.2-1.3c0.6,0.1,1.3,0,1.9,0
		c1.2,0,2.6,0.5,3.4-0.2c0.7-0.7,0.8-2.1,1.2-3.2c0,0,0-0.1,0-0.1c0.3-0.7,0.1-0.9-0.7-0.9c-2,0-3.9,0-5.9,0c-0.8,0-1.1-0.1-1.1-1
		c0-0.9,0.4-0.9,1.1-0.9c1.6,0,3.1,0,4.7,0c0.6,0,0.9-0.1,1.1-0.8c0.5-1.9,1-3.7,1.6-5.5c0.2-0.6,0-0.9-0.6-0.8c-1.6,0-3.1,0-4.7,0
		c-0.3,0-0.8-0.1-0.9,0.4c-0.2,0.6-0.6,0.5-1.1,0.5c-2,0-4.1,0-6.1,0c-0.5,0-0.9,0-1.1,0.6c-0.5,1.7-1,3.3-1.5,4.9
		c-0.2,0.5-0.1,0.8,0.5,0.7c1.3-0.2,1.3,0.5,1.3,1.5c0,4,0,8,0.1,12c0.1,0.6-0.5,1.2,0.3,1.6c3.8,0,7.5,0,11.3,0.1
		c0.5,0,0.7-0.2,0.8-0.7c0.5-1.7,1-3.5,1.6-5.2C80.8,51.6,80.7,51.4,79.9,51.4z"/>
	<path class="st69" d="M59.6,37.2c-1.7-0.8-3.5-1-5.4-0.9c-2-0.1-4-0.1-6.1,0c-0.1,0-0.2,0-0.2,0c-0.4,0.2-0.5,0.6-0.5,1.1
		c-0.1,0.2-0.1,0.3-0.2,0.5c0.1,0.2,0.1,0.3,0.1,0.4c0-0.1-0.1-0.3-0.1-0.4c-0.2,0.5-0.3,1-0.5,1.4c-0.2,0.7-0.4,1.5-0.7,2.2
		c-0.4,0.9-0.2,1.3,0.8,1.1c1-0.2,1.2,0.3,1.1,1.2c0,3.3,0,6.7,0,10c0,1.3-0.5,3.1,0.2,3.8c0.8,0.8,2.6,0.2,3.9,0.2
		c2.4,0,2.4,0,2.4-2.3c0-2.8,0-2.8,2.8-3.2c3.7-0.5,6.1-2.5,6.6-5.8C64.5,42.7,62.7,38.7,59.6,37.2z M55.3,48c-0.6,0-1-0.1-0.9-0.8
		c0.1-0.6,0-1.3,0-1.9c0-0.6,0-1.2,0-1.8c-0.1-0.8,0.2-1,1-1c1.3,0.1,2.4,1.3,2.4,2.7C57.8,46.7,56.6,48,55.3,48z"/>
	<path class="st69" d="M11.9,37.7c0-0.6-0.2-0.9-0.9-0.9c-2.4,0-4.7,0-7.1,0c-0.6,0-0.8,0.2-1,0.7c-0.6,1.8-1.2,3.6-1.8,5.3
		c-0.2,0.6-0.1,0.8,0.5,0.8c0.9,0,1.8,0,2.6,0c0.8-0.1,1,0.2,1,1c-0.1,2-0.1,3.9,0,5.9c0.1,1.9-1.2,2-2.3,1.5
		c-0.3-0.1-0.6-0.3-1-0.6C1.3,53.4,0.7,55.2,0,57c-0.1,0.3,0,0.5,0.3,0.7c2.5,1.2,5,1.8,7.6,0.5c2.6-1.3,3.9-3.5,3.9-6.3
		C12,47.2,11.9,42.4,11.9,37.7z"/>
	<path class="st69" d="M24.5,42.8c-1.6-0.6-3.2-0.9-4.8-0.7c-3.4,0.3-6,2.7-6.7,6.1c-0.7,3.8,0.6,6.7,3.9,8.3c3,1.5,6.2,1.7,9.5,1.3
		c0.3,0,0.7-0.1,0.8-0.5c0.4-1.5,0.8-3,1.2-4.5c-5.9,0.6-7.2,0.4-8.5-1.3c0.4-0.2,0.8-0.1,1.2-0.1c2.4,0,4.8,0,7.2,0
		c0.3,0,0.9,0.2,0.9-0.5C29,47.3,28.3,44.3,24.5,42.8z M23,48c-0.6,0-1.2,0-1.8,0c-0.5,0-1,0-1.4,0c-0.3,0-0.7,0.1-0.9-0.2
		c-0.2-0.4,0-0.8,0.3-1.1c0.6-0.8,1.4-1,2.3-0.8c0.9,0.1,1.6,0.7,2,1.5C23.7,47.9,23.5,48.1,23,48z"/>
	<path class="st69" d="M39.1,41.9c-0.2,0-0.3,0-0.5,0c-0.7,0.1-0.9-0.2-0.9-0.9c0-0.9,0-1.9,0-2.9c-1.8,0.5-3.4,1-5,1.4
		c-0.3,0.1-0.7,0.1-0.7,0.4c0.3,1.3-0.7,2-1,3c-0.3,1-0.6,2-0.9,3c-0.5,1.6-0.5,1.6,1.2,1.7c0.2,0,0.3,0.1,0.4,0.2c0,0.3,0,0.6,0,1
		c-0.1,2.6-0.1,5.3,0,7.9c0,0.1,0,0.2,0,0.2l0,0c0,0.2,0,0.3,0,0.5c0.4,0.6,1,0.2,1.5,0.3c1.3,0.1,2.6,0.1,3.8,0c0.2,0,0.3,0,0.5,0
		c0.4-0.3,0.2-0.7,0.2-1.1c0-2.6,0-5.3,0-7.9c0-0.3-0.2-1,0.4-1c1.2,0.1,1.1-0.7,1.3-1.4c0.3-1,0.4-2.1,0.8-3
		C40.6,42,40.2,41.8,39.1,41.9z"/>
</g>
<g>
	<path class="st111" d="M74.8,10.2c0,0,0,0.1,0,0.1c-0.1,0.2-0.2,0.4-0.2,0.7c0,0.3-0.7,1.6-0.9,1.6c-0.1,0-0.2-0.2-0.4-0.3
		c-0.2-0.1-0.5,0-0.3,0.2c0.4,0.5-0.2,1,0,1.5c-0.1,0.1-0.1,0.1-0.2,0.2c-0.2,0-0.4,0.1-0.4,0.4c0,0,0,0,0,0c-0.3,0-0.8,0-0.9,0.3
		c-0.2,0.6-0.8,0.7-1.3,0.8c-0.3-0.4-0.3-0.9-0.5-1.3c-0.3,0.2-0.2,0.5-0.4,0.7c-0.1,0.1-0.2,0.1-0.2,0.2c-0.4,0.1-0.8,0.1-1.1,0.2
		C67.6,15,67.9,14,66.9,14c-0.4,0-1-0.4-1.1-0.1c-0.2,0.6,0.6,0.3,0.9,0.6c0.1,0.6-0.5,0.9-0.8,1.3c-0.2,0.1-0.5,0.1-0.7,0.2
		c-0.1-0.9-0.6-1.7-1-2.7c-0.4,0.9,0.2,1.3,0.3,1.9c0,0.1,0.1,0.2,0.1,0.3c0,0.1,0.1,0.1,0.1,0.2c-1.2,0.2-2.5,0.5-3.7,0.7
		c-0.3,0.1-0.7,0.1-0.7,0.6c-0.8,0.3-1-0.6-1.5-0.8c-0.1-0.3,0.2-0.7-0.2-1c0.1-0.7,0.5-1.2,1-1.7c0.3-0.3,0.5-0.6,0.8-0.9
		c0.4,0,0.9,0.2,0.9-0.5c0.1,0.1,0.1,0.1,0.2,0.2c0.2,0.4,0.2,1.2,0.9,0.9c0.6-0.2,0.4-0.9,0.3-1.4c0-0.1-0.1-0.2-0.1-0.2
		c0.3-0.3,0.7-0.4,0.9,0.1c0.3,0.7,0.8,0.2,1.1,0.2c0.5,0.1,0.2-0.4,0.2-0.6c0-0.4,0.2-0.4,0.5-0.5c2.3-0.4,4.5-0.8,6.8-1.1
		c0.8-0.1,1.7-0.6,2.6-0.2c0,0,0,0,0,0C74.5,9.7,74.5,10,74.8,10.2z M66.2,11.2c-0.6,0.2-0.4,0.7-0.4,1c0,0.2,0.1,0.3,0.3,0.2
		c0.2,0,0.2-0.2,0.2-0.4C66.1,11.8,65.9,11.6,66.2,11.2z"/>
	<path class="st112" d="M61.2,12c0,0.7-0.5,0.5-0.9,0.5c-0.7,0.2-0.6-0.5-0.8-0.7c0-0.4,0.8-0.5,0.5-1.1c0.1-0.1,0.3-0.3,0.4-0.4
		c0.2,0,0.4,0,0.5-0.2c0.1-0.3,0.3-0.7,0.1-1c0.5,0.2,1,0.6,1.5,0.2c0.1,0.3,0.4,0.5,0.7,0.3C64.1,9,65,9.1,65.9,8.9
		c1.2-0.3,2.5-0.5,3.7-0.6c1.2-0.2,2.5-0.2,3.8-0.5c0.1,0,0.1,0,0.2,0c0,0,0,0,0,0c0,0.3,0.1,0.5,0.4,0.6c0,0,0,0,0,0
		c0,0.2,0,0.3,0.2,0.4c0,0,0,0,0,0c0.1,0.1,0.1,0.1,0.2,0.2c0.2,0.1,0.2,0.3,0.2,0.5c-0.9-0.3-1.7,0.1-2.6,0.2
		c-2.3,0.3-4.5,0.7-6.8,1.1c-0.3,0-0.5,0.1-0.5,0.5c0,0.2,0.3,0.7-0.2,0.6c-0.4,0-0.9,0.5-1.1-0.2c-0.2-0.4-0.6-0.3-0.9-0.1
		c-0.1,0-0.1,0-0.2,0c-0.1-0.1-0.1-0.2-0.2-0.3c0,0-0.1,0-0.1,0.1c0.1,0.1,0.2,0.2,0.2,0.2c0,0.3,0.2,0.6-0.1,0.9
		c-0.3-0.1-0.2-0.4-0.4-0.6c-0.2-0.2-0.4-0.2-0.6-0.1C61,11.8,61.1,11.9,61.2,12z"/>
	<path class="st113" d="M72.3,23.1c-1.5,1.7-3.4,3-5.5,3.8c-0.3,0-0.3-0.2-0.2-0.4c0,0,0,0,0,0c0.2,0,0.3,0,0.4-0.2l0,0
		c0.2,0,0.3,0,0.4-0.2c0.2,0,0.3,0,0.4-0.2c0.3,0,0.4-0.1,0.6-0.4c0.2,0,0.3,0,0.4-0.2c0.1-0.1,0.1-0.1,0.2-0.2
		c0.3,0,0.4-0.1,0.5-0.4c0.1-0.1,0.1-0.1,0.2-0.2c0,0,0.1-0.1,0.1-0.1c0,0-0.1,0.1-0.1,0.1c-0.1,0.1-0.1,0.1-0.2,0.2
		c-0.1,0-0.2,0-0.4,0c-0.3-0.2-0.1,0.1-0.2,0.2c0,0.1,0,0.1,0,0.2c-0.1,0.1-0.1,0.1-0.2,0.2c-0.2,0-0.3,0-0.4,0.2
		c-0.3,0-0.4,0.1-0.5,0.4c-0.2,0-0.3,0-0.4,0.2c-0.1,0-0.1,0-0.2,0c-0.1-0.8-0.6-0.9-1.3-0.8c-0.6,0.1-1,0.4-1.6,0.6
		c-0.1,0-0.2,0-0.2,0c-0.4-0.6-1-0.5-1.6-0.5c0.2-0.6,0.3-1.1,0.5-1.7c0.2,0.3,0.6,0.3,0.9,0.4c0.5,0.2,0.9-0.2,1.4,0.2
		c0,0.1,0,0.2,0,0.4c-0.3,0.1-0.4,0.3-0.4,0.5c0,0,0,0-0.1,0c0,0,0,0,0,0.1c0,0,0.1-0.1,0.1-0.1c0.2-0.1,0.4-0.3,0.4-0.5
		c0.2-0.1,0.2-0.2,0.2-0.4l0,0c0.1-0.1,0.1-0.1,0.2-0.2l0,0c0.2-0.1,0.2-0.2,0.2-0.4l0,0c0.4-0.2,0.4-0.6,0.4-0.9c0,0,0,0,0,0
		c0.3-0.1,0.3-0.3,0.4-0.5c0.8,0.5,1.6,0.7,2.5,0.5c-0.1,0.2-0.1,0.4-0.2,0.6c0,0,0,0,0,0c-0.1,0.1-0.1,0.1-0.2,0.2c0,0,0,0,0,0
		c-0.2,0.1-0.2,0.2-0.2,0.4l0,0c-0.1,0.1-0.1,0.1-0.2,0.2c-0.1,0-0.2,0.1-0.3,0.1c0,0,0,0.1,0.1,0.1c0.1-0.1,0.1-0.2,0.2-0.3
		c0,0,0.1,0,0.1,0l0.1,0c0.6-0.2,1.2-0.1,1.8-0.5c0.5-0.3,0.6-1,1.3-1c0.1,0.3,0.3,0.4,0.7,0.3C72.3,23.1,72.3,23.1,72.3,23.1z"/>
	<path class="st114" d="M62.6,9.3c-0.6,0.4-1,0-1.5-0.2C61,9,60.9,9,60.8,8.9c0-0.1,0-0.1,0-0.2c0.2-0.1,0-0.2,0-0.4
		c0.3-0.5,0.6-1,0.8-1.5c0.3-0.5,0.8-0.6,1.3-0.9c0.2,0.1,0.4,0.1,0.6,0.1c0.4,0.1,1,0.2,1.2,0.4c0.4,0.5,0.6,0.3,0.9,0
		c0.9-0.1,0.5-0.6,0.3-1c0.4-0.4,0.9-0.8,1.3-1.3c0.2,0,0.5-0.1,0.5,0.2c0,0.2-0.2,0.3-0.3,0.4c-0.2,0.1-0.4,0.1-0.5,0.3
		c-0.2,0.2-0.6,0.4-0.2,0.8c0.3,0.4,0.6,0.2,0.8-0.1c0.2-0.3,0.5-0.4,0.9-0.3c0.3,0.1,0.6,0.2,0.8-0.2l0,0c0.2-0.1,0.4-0.2,0.6-0.3
		C70,5,70.4,4.8,70.9,4.6c0.8,0.5,1.4,1.1,1.8,1.8c0,0,0,0,0,0c-1.5-0.5-3,0.1-4.5,0.2c-1.6,0.2-3.2,0.8-4.9,0.9
		c-0.2,0-0.3,0-0.3,0.2c0,0.1,0.1,0.3,0.1,0.3c1,0.2,0.4,0.4,0,0.6C62.8,8.8,62.8,9.1,62.6,9.3z"/>
	<path class="st113" d="M70.9,4.6C70.4,4.8,70,5,69.6,5.1c-1,0.2-1.4-0.6-1.9-1.1c-0.6-0.6-0.4,0-0.5,0.3c-0.4,0.4-0.9,0.8-1.3,1.3
		c0,0-0.1,0-0.1,0c0,0,0-0.1,0-0.1c0-0.2,0-0.3-0.2-0.4l0,0c0-0.3,0-0.5-0.3-0.5c-0.8,0.2-1.6,0.2-2.4,0c-0.2-0.2-0.1-0.5-0.2-0.7
		c0-0.3,0.2-0.5,0.5-0.3c0.4,0.2,0.9,0.1,1.3,0.1c0.1-0.1,0.1-0.1,0.2-0.2c0.1-0.6,0.9,0.1,0.9-0.5c0.2-0.1,0.2-0.3,0-0.4
		c-0.2-0.2-0.3-0.1-0.4,0c0,0-0.1-0.1-0.1-0.1c0-0.3,0.4-0.5,0-0.8C67.2,2.1,69.2,3.2,70.9,4.6z M69,3.9c-0.1-0.1-0.1-0.1-0.2-0.2
		c-0.1-0.2-0.2-0.2-0.4-0.2c-0.1-0.1-0.1-0.1-0.2-0.2c-0.1-0.1-0.2-0.2-0.4-0.2c-0.1-0.2-0.2-0.3-0.4-0.3c0,0-0.1,0.1-0.1,0.1
		c0.1,0.2,0.3,0.2,0.4,0.3c0.1,0.1,0.2,0.2,0.4,0.2c0.1,0.1,0.1,0.1,0.2,0.2c0.1,0.1,0.2,0.2,0.4,0.2C68.9,3.8,68.9,3.9,69,3.9
		C69,4,69.1,4,69.1,4C69.1,4,69.1,4,69,3.9z M69.8,4.5C69.7,4.5,69.7,4.5,69.8,4.5C69.7,4.4,69.7,4.4,69.8,4.5
		C69.7,4.5,69.7,4.5,69.8,4.5C69.8,4.5,69.8,4.6,69.8,4.5C69.8,4.6,69.8,4.6,69.8,4.5C69.8,4.6,69.8,4.5,69.8,4.5z"/>
	<path class="st113" d="M53.2,26.7c-2.3-1-4.2-2.4-5.7-4.4c0.3,0,0.6-0.1,0.7-0.4c0.4,0.2,0.5,0.8,1.1,1c-0.1-0.2-0.1-0.3-0.2-0.5
		c0.6,0,0.9-0.4,1.3-0.7c0.1,0.1,0.2,0.1,0.3,0.2c0,0.2,0,0.3,0.2,0.4l0,0c0.1,0.2,0,0.5,0.4,0.4c0.5,0.3,1.1,0.4,1.6,0.5
		c0,0.3,0,0.6,0,0.9c0,0-0.1,0-0.1,0c0,0,0,0.1,0.1,0.1c0,0.1-0.1,0.2,0,0.3c0.2,0.5-0.4,1.2,0.4,1.6C53.3,26.5,53.4,26.6,53.2,26.7
		z M51.3,25C51.3,25,51.4,25,51.3,25C51.4,25,51.3,25,51.3,25c-0.1-0.1-0.1-0.1-0.2-0.2c-0.1-0.1-0.2-0.2-0.4-0.2c0,0,0,0,0.1,0
		c0,0,0-0.1,0-0.1c0,0,0,0-0.1,0c0,0,0,0,0.1,0.1c0.1,0.2,0.2,0.2,0.4,0.2C51.2,24.8,51.3,24.9,51.3,25z"/>
	<path class="st114" d="M46,9.1c0.4-1,0.9-1.9,1.7-2.6c0.9-0.3,1.8,0.1,2.7,0.2c0.2,0,0.5,0,0.7,0c0.2,0.1,0.4,0.1,0.6,0
		c0.6-0.5,0.7,0,0.7,0.4c-0.3,0.4-0.5,0.8-1.1,1c-1.1,0-1.7,1-2.7,1.2c-0.1,0-0.3,0.3-0.3,0.4c0,0.6-0.4,0.3-0.6,0.4
		c0,0-0.1,0-0.1,0C47.5,9,46.8,9,46,9.1z"/>
	<path class="st115" d="M53.2,26.7c0.2-0.1,0.1-0.3,0.1-0.5c0,0,0.1-0.1,0.1-0.1c0.1,0.2,0.2,0.4,0.3,0.6c0.2,0,0.4-0.1,0.4-0.4
		c0.1,0.1,0.2,0.2,0.3,0.2c0,0,0.1,0,0.1,0.1c0,0,0-0.1-0.1-0.1c0-0.2-0.2-0.3-0.4-0.3c0-0.2,0-0.4,0.1-0.6c0.1,0.6,0.9,0.6,1.1,1.1
		c-0.1,0-0.3,0-0.4,0.1c0,0,0,0.1,0.1,0.1c0.2,0.1,0.3,0,0.4-0.1c0.8,0,1.3,0.6,2.2,0.7c-0.3-0.3-0.5-0.6-0.7-0.9c0,0,0,0,0,0
		c0.7,0.1,1.1,0.8,1.8,1c0.7,0.2,0.5-0.1,0.4-0.5c0.5,0,0.5,0.6,1,0.7c0.8,0.2,1.1-0.4,1.6-0.7c0,0.4,0.1,0.6,0.5,0.4
		c0.2-0.1,0.5-0.2,0.7-0.2c0.2,0.3,0.5,0.1,0.7,0c0.6-0.2,1.1-0.5,1.7-0.6c0,0,0,0,0,0C65.1,26.8,65,26.9,65,27
		c-0.1,0.2,0.1,0.2,0.2,0.1c0.5-0.2,1-0.3,1.4-0.5c-0.1,0.2-0.2,0.4,0.2,0.4C62.3,28.8,57.7,28.8,53.2,26.7z"/>
	<path class="st115" d="M65,1.6c0.4,0.3-0.1,0.5,0,0.8c-0.7-0.2-1.3-0.5-2-0.6c-1.7-0.3-3.4-0.9-5.1,0.1c-0.1,0-0.2,0.1-0.2,0
		c-0.3-0.6-0.7-0.1-1,0c-0.8,0.2-1.3,1-2.2,1c0-0.1,0-0.2,0-0.3c0.2-0.1,0.1-0.2,0-0.2c0.1-0.2,0.2-0.3,0.3-0.5
		c2.4-1,4.9-1.1,7.4-0.9C63.1,1,64.1,1.2,65,1.6z"/>
	<path class="st116" d="M50.4,6.7c-0.9-0.1-1.8-0.5-2.7-0.2c0.8-1,1.8-1.9,2.9-2.6c0.2,0.3,0.4,0.3,0.7,0.3c0.1,0,0.2,0,0.4,0
		c0.1,0.2,0.4,0.3,0.6,0.4c0,0.2,0,0.4,0,0.6l0,0c-0.2,0-0.4,0.1-0.4,0.4l0,0c-0.1,0.1-0.1,0.1-0.2,0.2l0,0
		c-0.2,0.1-0.2,0.2-0.2,0.4l0,0C51.1,6.1,50.9,6.6,50.4,6.7z"/>
	<path class="st114" d="M74.7,19.3c-0.5,1.4-1.3,2.7-2.4,3.8c0,0-0.1,0-0.1,0c0.1-0.7-0.2-1.1-0.8-1.3c0.4-0.9,1.2-1.3,1.8-2
		c0.1-0.1,0.2-0.2,0.4-0.3C73.9,19.3,74.3,19,74.7,19.3z"/>
	<path class="st117" d="M44.9,12.4c0-0.5,0.1-0.9,0.3-1.3c0.4-0.1,0.8-0.4,1.1,0c-0.2,1.3-0.5,2.7-0.4,4c-0.4,0-0.7,0-1.1,0
		C44.9,14.2,44.9,13.3,44.9,12.4z"/>
	<path class="st114" d="M73,14c-0.2-0.5,0.4-1,0-1.5c-0.1-0.1,0.1-0.3,0.3-0.2c0.1,0.1,0.3,0.3,0.4,0.3c0.2,0,0.9-1.3,0.9-1.6
		c0-0.2,0.2-0.4,0.2-0.7c0.5,0.5,0.3,1.3,0.6,1.9c0,0.7-0.8,0.9-1.1,1.4c-0.2-0.1-0.4-0.1-0.7-0.2C73.1,13,73.3,13.8,73,14z"/>
	<path class="st118" d="M48.2,22c-0.1,0.3-0.4,0.4-0.7,0.4c-0.8-1-1.5-2-1.9-3.3c0.3,0.5,0.8,0.6,1.3,0.4c0.3,0.4,0.3,0.9,0.7,1.3
		l0,0c0,0.2,0,0.3,0.2,0.4l0,0c0,0.2,0.1,0.4,0.4,0.4l0,0C48.2,21.6,48.2,21.8,48.2,22z"/>
	<path class="st119" d="M46.9,19.5c-0.5,0.2-1,0.2-1.3-0.4c-0.4-0.7-0.6-1.5-0.7-2.2c0-0.1,0-0.3,0-0.4c0.2,0.6,0.3,1.3,1.2,0.9
		c0.3,0.4,0.2,0.9,0.5,1.3C46.8,18.9,46.9,19.2,46.9,19.5z"/>
	<path class="st119" d="M74.7,19.3c-0.4-0.3-0.8-0.1-1.1,0.2c0-0.1,0-0.3,0-0.4c0,0,0,0,0,0c0.4-0.5,0.4-1.3,0.7-1.8
		c1,0.2,1.2-0.4,1.2-1.2c0,0,0,0,0.1-0.1c0,0.1,0,0.1,0,0.2C75.5,17.3,75.2,18.4,74.7,19.3z"/>
	<path class="st117" d="M75.6,16.3c0-0.1,0-0.1,0-0.2c0-0.5,0-1,0-1.5c-0.3,0.4-0.5,0.8-1.1,0.4c-0.1-0.4,0.8-0.9-0.1-1.3
		c0.3-0.5,1-0.7,1.1-1.4C75.8,13.5,75.9,14.9,75.6,16.3z"/>
	<path class="st113" d="M51.3,4.1c-0.3,0-0.5,0-0.7-0.3c1.3-0.9,2.6-1.7,4.1-2c-0.1,0.2-0.2,0.3-0.3,0.5l0,0c-0.4,0-0.7,0.1-0.9,0.4
		l0,0c-0.2,0-0.3,0-0.4,0.2l0,0c-0.2,0-0.3,0-0.4,0.2l0,0c-0.4,0-0.6,0.2-0.7,0.6l0,0c-0.2,0-0.3,0-0.4,0.2l0,0
		C51.5,3.8,51.4,4,51.3,4.1z"/>
	<path class="st120" d="M46.4,11.1c-0.4-0.4-0.7-0.1-1.1,0c0-0.6,0.3-1.1,0.6-1.6c0.4,0.1,0.7,0.1,1.1,0.3c0,0.1,0,0.2,0,0.3l0,0.1
		c-0.2,0.2-0.2,0.4-0.2,0.6c0,0,0,0,0,0C46.6,10.8,46.5,11,46.4,11.1z"/>
	<path class="st121" d="M47,9.7c-0.3-0.2-0.7-0.2-1.1-0.3C45.9,9.3,46,9.2,46,9.1C46.8,9,47.5,9,47.7,10c0,0.2,0,0.4-0.2,0.5
		c-0.1-0.2-0.1-0.3-0.2-0.5C47.2,9.8,47.1,9.8,47,9.7z"/>
	<path class="st122" d="M45,16.4c0,0.1,0,0.3,0,0.4c-0.3-1.5-0.3-3,0-4.5c0,0.9,0,1.8,0,2.7c0,0.1,0,0.2,0,0.4c0,0.1,0,0.2,0,0.4
		C44.9,16,44.9,16.2,45,16.4z"/>
	<path class="st112" d="M74.8,10.2c-0.3-0.2-0.4-0.4-0.3-0.7C74.8,9.6,74.9,9.9,74.8,10.2z"/>
	<path class="st114" d="M72.7,6.5C72.9,6.6,73,6.8,73.1,7c0,0,0,0,0,0C72.8,7,72.7,6.8,72.7,6.5L72.7,6.5z"/>
	<path class="st114" d="M74,8.3c-0.3-0.1-0.4-0.3-0.4-0.6C73.8,7.9,73.9,8.1,74,8.3z"/>
	<path class="st114" d="M74.2,8.7C74,8.6,74,8.5,74,8.3C74.1,8.4,74.2,8.5,74.2,8.7z"/>
	<path class="st114" d="M73.6,7.8c-0.1,0-0.1,0-0.2,0c0-0.1,0-0.2,0-0.4c0,0,0,0,0,0C73.5,7.5,73.5,7.6,73.6,7.8z"/>
	<path class="st114" d="M73.1,7c0.1,0.1,0.1,0.1,0.2,0.2c0,0,0,0,0,0C73.1,7.2,73.1,7.1,73.1,7C73,7.1,73.1,7,73.1,7z"/>
	<path class="st114" d="M74.3,8.9c-0.1-0.1-0.1-0.1-0.2-0.2C74.2,8.7,74.3,8.8,74.3,8.9z"/>
	<path class="st114" d="M73.3,7.2c0,0.1,0.1,0.1,0.1,0.2c0,0,0,0,0,0C73.3,7.4,73.3,7.3,73.3,7.2C73.2,7.2,73.3,7.2,73.3,7.2z"/>
	<path class="st112" d="M65.2,16c0.2-0.1,0.5-0.1,0.7-0.2c0,1-0.8,1.6-1,2.4c-0.1,0.1-0.1,0.2-0.2,0.4c-1,0.3-2.1,0-2.9,0.7
		c-0.2-0.4-0.3-0.8-0.5-1.1c0.3-0.9-0.1-1.2-1-1.2c0.1-0.4,0.4-0.5,0.7-0.6c1.2-0.3,2.5-0.5,3.7-0.7C64.9,15.7,64.9,16,65.2,16z"/>
	<path class="st117" d="M59.5,13.4c-0.4,0.5-0.9,1-1,1.7c-0.4,0.6-1.1,0.2-1.6,0.4c0-1.4,0-2.8,0-4.2c0.5,0,1.1,0.1,1.6-0.1
		c0.7-0.2,0.7,0.1,0.7,0.6C58.9,12.4,59.5,12.9,59.5,13.4z"/>
	<path class="st120" d="M73,14c0.3-0.2,0-1,0.7-0.5c0,0.2-0.3,0.5,0.1,0.4c0.6-0.1,0.5,0.3,0.5,0.6c0.1,1.1-0.2,2.1-0.4,3.2
		c-0.2,0-0.5-0.1-0.7,0.1c-0.1,0-0.2,0-0.3,0c0.1-0.4,0.1-0.9-0.3-1.1c-0.3-0.1-0.5,0.4-0.7,0.6c0,0,0,0.1,0,0.1
		c-0.1,0.1-0.2,0.1-0.3,0.2c-0.1-1.2,0.1-2.2,0.9-3.1c0,0,0,0,0,0c0.2,0,0.3-0.2,0.4-0.4C72.9,14.1,73,14.1,73,14z"/>
	<path class="st120" d="M57,15.5c0.5-0.1,1.2,0.2,1.6-0.4c0.4,0.3,0.1,0.7,0.2,1c-0.2,0.7,0.2,1.3,1,1.3c0.6,0,1.1,0.1,1.4,0.7
		c0.2,0.4,0.3,0.8,0.5,1.1c-0.2,0.2-0.2,0.4-0.2,0.7c0,0-0.1,0-0.1,0c0-1.6-1.3-2.4-2.9-2c-0.3,0.1-0.6,0.1-0.4,0.6
		c0.3,0.6-0.3,0.1-0.4,0.3c-0.2-0.3-0.1-0.9-0.7-1C57,17.1,57,16.3,57,15.5z"/>
	<path class="st120" d="M64.8,18.2c0.3-0.8,1.1-1.4,1-2.4c0.3-0.4,0.8-0.6,0.8-1.3c0.3,0.1,0.7,0.1,0.6,0.4c-0.1,0.6,0.5,1,0.4,1.6
		c-0.6,0.6-0.1,1.5-0.5,2.2C66.4,18.4,65.6,18.6,64.8,18.2z"/>
	<path class="st120" d="M69.2,15.3c0.1-0.1,0.2-0.1,0.2-0.2c0.4,0.5,0.3,1.3,0.7,1.8c0,0.1,0,0.2,0,0.3c-0.2,0.2-0.2,0.4,0,0.6
		c-0.2,0-0.3,0-0.5,0.1c-0.6,0.4-1.2,0.6-1.9,0.2c0-0.5,0-1,0-1.4c0.3,0,0.5-0.1,0.8-0.1C68.9,16.3,69,15.7,69.2,15.3z"/>
	<path class="st114" d="M70.1,17.2c0-0.1,0-0.2,0-0.3c0.2,0,0.5,0.1,0.4-0.3c-0.1-0.3-0.2-0.6-0.2-0.9c0.5-0.1,1-0.2,1.3-0.8
		c0.1-0.3,0.5-0.3,0.9-0.3c-0.8,0.9-1,1.9-0.9,3.1c-0.1,0.8,0.7,0.7,1,1.1c-0.2,0.1-0.3,0.1-0.5,0.2c-0.4-0.1-0.7-0.3-1-0.7
		C70.8,17.9,70.6,17.4,70.1,17.2z"/>
	<path class="st121" d="M68.5,16.7c-0.3,0-0.5,0.1-0.8,0.1c0-0.1,0-0.1-0.1-0.2c0.1-0.6-0.5-1-0.4-1.6c0-0.3-0.4-0.3-0.6-0.4
		c-0.2-0.3-1.1,0-0.9-0.6c0.1-0.3,0.7,0.1,1.1,0.1c1.1,0,0.7,1,1.2,1.5C68.1,15.9,68.3,16.3,68.5,16.7z"/>
	<path class="st121" d="M61.2,18.1c-0.3-0.6-0.8-0.7-1.4-0.7c-0.8,0-1.2-0.7-1-1.3c0.5,0.2,0.7,1,1.5,0.8
		C61.1,16.9,61.5,17.2,61.2,18.1z"/>
	<path class="st115" d="M61.2,12c-0.1-0.1-0.2-0.3,0-0.3c0.2-0.1,0.4-0.1,0.6,0.1c0.1,0.2,0.1,0.5,0.4,0.6c0.2-0.3,0-0.6,0.1-0.9
		l0,0c0.1,0,0.1,0,0.2,0c0,0.1,0.1,0.2,0.1,0.2c0.1,0.5,0.3,1.2-0.3,1.4c-0.7,0.2-0.7-0.5-0.9-0.9C61.3,12.1,61.2,12.1,61.2,12z"/>
	<path class="st121" d="M70.3,15.6c0.1,0.3,0.2,0.6,0.2,0.9c0.1,0.4-0.2,0.3-0.4,0.3c-0.4-0.5-0.3-1.3-0.7-1.8
		c0.2-0.2,0.1-0.5,0.4-0.7C70,14.8,70,15.3,70.3,15.6z"/>
	<path class="st121" d="M65.2,16c-0.3,0-0.3-0.3-0.5-0.4c0-0.1-0.1-0.1-0.1-0.2c0-0.1-0.1-0.2-0.1-0.3c0-0.6-0.6-1-0.3-1.9
		C64.6,14.3,65.1,15.1,65.2,16z"/>
	<path class="st114" d="M68.5,16.7c-0.2-0.4-0.4-0.7-0.5-1.2c0.4-0.1,0.8-0.1,1.1-0.2C69,15.7,68.9,16.3,68.5,16.7z"/>
	<path class="st115" d="M59.5,13.4c0-0.5-0.6-1-0.2-1.6c0,0,0.1,0,0.1,0c0.3,0.3,0.2,0.9,0.8,0.7C60.1,12.8,59.8,13.1,59.5,13.4z"/>
	<path class="st112" d="M66.2,11.2c-0.3,0.3,0,0.6,0,0.9c0,0.2,0,0.3-0.2,0.4c-0.2,0-0.3-0.1-0.3-0.2C65.8,11.9,65.6,11.4,66.2,11.2
		z"/>
	<path class="st114" d="M72.9,14.2c-0.1,0.2-0.2,0.3-0.4,0.4C72.5,14.3,72.6,14.2,72.9,14.2z"/>
	<path class="st112" d="M64.5,15.2c0,0.1,0.1,0.2,0.1,0.3C64.6,15.4,64.5,15.3,64.5,15.2z"/>
	<path class="st123" d="M73.2,7.2c0.1,0.1,0.1,0.1,0.2,0.2c0,0.1,0,0.2,0,0.4c-1.2,0.3-2.5,0.3-3.8,0.5c-1.3,0.2-2.5,0.4-3.7,0.6
		C65,9.1,64.1,9,63.3,9.5c-0.3,0.2-0.5,0-0.7-0.3c0.1-0.2,0.2-0.4,0.4-0.5c0.4-0.2,1-0.4,0-0.6c-0.1,0-0.1-0.2-0.1-0.3
		c0-0.2,0.2-0.2,0.3-0.2c1.7-0.1,3.3-0.7,4.9-0.9c1.5-0.2,3-0.7,4.5-0.2c0,0.3,0.1,0.4,0.4,0.5C73.1,7.1,73.1,7.2,73.2,7.2z"/>
	<path class="st120" d="M59.5,11.8c0,0-0.1,0-0.1,0c0-0.5-0.1-0.8-0.7-0.6c-0.5,0.1-1.1,0.1-1.6,0.1c-0.2-0.4,0.3-0.8,0-1.2
		c-0.1,0.2-0.2,0.3-0.2,0.5c-0.4,0-0.9,0-1.3,0c0.4-0.5-0.1-1-0.2-1.4C55.4,9,55.5,9,55.5,8.9c0.1,0,0.2,0,0.3,0
		c0.5,0.2,0.9,0.6,1.4,0.1c0.4-0.4,0.7-0.3,1.1-0.1c0.5,0.3,1,0.1,1.4,0c0,0.1,0,0.2-0.1,0.3C59,10.1,59,10.4,60,10.7
		C60.3,11.3,59.5,11.4,59.5,11.8z"/>
	<path class="st115" d="M60,10.7c-1-0.3-1.1-0.6-0.4-1.5c0.5,0.2,0.3,0.9,0.8,1.1C60.3,10.5,60.2,10.6,60,10.7z"/>
	<path class="st114" d="M60.5,10.3c-0.5-0.2-0.3-0.9-0.8-1.1c0-0.1,0-0.2,0.1-0.3c0.2-0.2,0.3-0.2,0.5,0c0.2,0.4,0.2,1,0.8,1.2
		C60.9,10.4,60.7,10.3,60.5,10.3z"/>
	<path class="st122" d="M61,10.1c-0.5-0.2-0.5-0.8-0.8-1.2c0.2,0,0.4,0,0.6,0C60.9,9,61,9,61.1,9.1C61.2,9.5,61.1,9.8,61,10.1z"/>
	<path class="st115" d="M62.2,11.5c-0.1-0.1-0.2-0.2-0.2-0.2c0,0,0.1,0,0.1-0.1C62.2,11.2,62.2,11.3,62.2,11.5
		C62.3,11.4,62.2,11.5,62.2,11.5z"/>
	<path class="st116" d="M65.2,24.4c-0.4-0.3-0.9,0-1.4-0.2c-0.3-0.1-0.6-0.1-0.9-0.4c0-0.3,0-0.6,0-0.9c0-0.1,0-0.2,0-0.3
		c0.1,0,0.1,0,0.1,0c0.1-0.1,0.1-0.1,0.2-0.2c0.2-0.4,0.5-0.8,0.7-1.2c0.2-0.3,0.4-0.5,0.7-0.2c0.2,0.2,0.3,0.3,0.6,0.3
		c0,0.2-0.1,0.4,0.1,0.6c0-0.9,0.6-0.6,1.1-0.6c-0.1,0.6-0.5,1-0.5,1.6c0,0,0,0,0,0c-0.3,0.2-0.4,0.6-0.4,0.9c0,0,0,0,0,0
		c-0.2,0.1-0.2,0.2-0.2,0.4c0,0,0,0,0,0c-0.1,0.1-0.1,0.1-0.2,0.2c0,0,0,0,0,0C65.3,24.4,65.2,24.4,65.2,24.4z"/>
	<path class="st118" d="M69,22.9c-0.9,0.2-1.8,0-2.5-0.5c0.2-0.7,0.5-1.3,0.7-2c1.1,0.4,2.2-0.1,3.3,0c0,0.1,0,0.2,0,0.4
		c0,0,0,0,0,0c-0.1,0.1-0.1,0.1-0.2,0.2l0,0c-0.2,0.1-0.2,0.3-0.2,0.6l0,0c-0.4,0.2-0.6,0.5-0.6,0.9l0,0
		C69.2,22.4,69.2,22.7,69,22.9z"/>
	<path class="st124" d="M65.2,26.8c-0.6,0-1.1,0.4-1.7,0.6c-0.2,0.1-0.5,0.3-0.7,0l0,0c0.3,0,0.5-0.2,0.6-0.6l0,0
		c0.5,0,0.7-0.4,1-0.7c0.5-0.2,1-0.5,1.6-0.6c0.7-0.1,1.2,0,1.3,0.8c-0.1,0.1-0.1,0.1-0.2,0.2c0,0,0,0,0,0c-0.2,0-0.3,0-0.4,0.2
		c0,0,0,0,0,0c-0.5,0.2-1,0.4-1.4,0.5c-0.1,0-0.3,0.1-0.2-0.1C65,26.9,65.1,26.8,65.2,26.8c0,0,0.1,0,0.1-0.1
		C65.2,26.7,65.2,26.7,65.2,26.8z M65.6,26.5c0.3,0,0.5-0.2,0.6-0.6C65.9,26.2,65.7,26.2,65.6,26.5z"/>
	<path class="st116" d="M71.6,22.8c-0.7,0-0.8,0.7-1.3,1c-0.6,0.4-1.2,0.3-1.8,0.5c0-0.1,0-0.1,0-0.2c0,0,0,0,0,0
		c0.2-0.1,0.2-0.2,0.2-0.4c0,0,0,0,0,0c0.1-0.1,0.1-0.1,0.2-0.2c0,0,0,0,0,0c0.4-0.2,0.7-0.6,0.7-1.1c0,0,0,0,0,0
		c0.4-0.2,0.5-0.5,0.6-0.9c0,0,0,0,0,0c0.1,0,0.1,0,0.2,0c0.3,0.1,0.6,0.3,0.9,0.4C70.9,22.3,71.5,22.4,71.6,22.8z"/>
	<path class="st124" d="M62.8,27.3c-0.3,0-0.5,0.1-0.7,0.2c-0.4,0.2-0.5,0-0.5-0.4c0,0,0,0,0,0c0.1-0.1,0.1-0.1,0.2-0.2l0,0
		c0.2-0.1,0.2-0.3,0.2-0.6l0,0c0.4-0.2,0.3-0.6,0.6-0.9c0.6,0,1.2-0.1,1.6,0.5c-0.3,0.2-0.7,0.3-0.7,0.8c0,0,0,0,0,0
		C63,26.8,62.9,27.1,62.8,27.3L62.8,27.3z"/>
	<path class="st115" d="M62.5,25.5c-0.2,0.3-0.1,0.8-0.6,0.9c0-0.5,0.2-0.9,0.3-1.3c0.1-0.4,0.2-0.8,0.4-1.2c0.2-0.6,0-1-0.7-0.8
		c-0.1-0.4-0.1-0.9-0.2-1.3c0.3,0.5,0.3,1.4,1.3,1.1c0,0.3,0,0.6,0,0.9C62.8,24.4,62.6,24.9,62.5,25.5z"/>
	<path class="st121" d="M71.6,22.8c0-0.3-0.7-0.4-0.3-0.9c0.1,0,0.1,0,0.2,0c0.6,0.2,0.9,0.6,0.8,1.3C71.9,23.2,71.7,23,71.6,22.8z"
		/>
	<path class="st115" d="M67.2,20.4c-0.2,0.7-0.5,1.3-0.7,2c0,0.2-0.1,0.5-0.4,0.5c0-0.6,0.4-1.1,0.5-1.6c0.1-0.5,0.3-1,0.5-1.5
		C67.3,20,67.2,20.2,67.2,20.4z"/>
	<path class="st115" d="M69.6,22.4c-0.1,0.5-0.3,0.9-0.7,1.1c0.1-0.2,0.1-0.4,0.2-0.6C69.2,22.7,69.2,22.4,69.6,22.4z"/>
	<path class="st115" d="M63.4,26.8c0-0.5,0.5-0.5,0.7-0.8c0.1,0,0.2,0,0.2,0C64,26.3,63.8,26.7,63.4,26.8z"/>
	<path class="st115" d="M65.7,23.9c0-0.4,0.1-0.7,0.4-0.9C66.1,23.3,66.1,23.7,65.7,23.9z"/>
	<path class="st115" d="M67.7,26c0.1-0.2,0.3-0.4,0.5-0.4c0,0,0,0,0,0C68.2,25.9,68,26,67.7,26C67.7,26,67.7,26,67.7,26z"/>
	<path class="st115" d="M68.8,25.3c0-0.1,0-0.1,0-0.2C68.9,25.1,69,25,69,25c0.1,0,0.2,0,0.4,0c0,0,0,0,0,0
		C69.3,25.2,69.1,25.3,68.8,25.3C68.8,25.3,68.8,25.3,68.8,25.3z"/>
	<path class="st115" d="M64.8,25.3c0-0.3,0.1-0.5,0.4-0.5c0,0,0,0,0,0C65.2,25,65.1,25.2,64.8,25.3L64.8,25.3z"/>
	<path class="st115" d="M68.3,24.2c-0.1,0.1-0.1,0.2-0.2,0.3c0,0,0-0.1-0.1-0.1C68.1,24.3,68.2,24.3,68.3,24.2
		C68.3,24.2,68.3,24.2,68.3,24.2z"/>
	<path class="st115" d="M65.5,24.2c0-0.2,0-0.3,0.2-0.4C65.7,24,65.7,24.1,65.5,24.2z"/>
	<path class="st115" d="M65.2,24.4c0.1,0,0.1,0,0.2,0c0,0.2,0,0.3-0.2,0.4c0,0,0,0,0,0C65.2,24.6,65.2,24.5,65.2,24.4z"/>
	<path class="st124" d="M69,25c-0.1,0.1-0.1,0.1-0.2,0.2C68.9,25,68.8,24.8,69,25z"/>
	<path class="st115" d="M68.7,25.5c-0.1,0.1-0.2,0.2-0.4,0.2c0,0,0,0,0,0C68.4,25.5,68.5,25.5,68.7,25.5L68.7,25.5z"/>
	<path class="st115" d="M67.4,26.2c0.1-0.2,0.2-0.2,0.4-0.2c0,0,0,0,0,0C67.7,26.2,67.5,26.2,67.4,26.2
		C67.4,26.2,67.4,26.2,67.4,26.2z"/>
	<path class="st115" d="M67,26.4c0.1-0.1,0.1-0.1,0.2-0.2c0.1,0,0.1,0,0.2,0c0,0,0,0,0,0C67.3,26.4,67.2,26.4,67,26.4z"/>
	<path class="st115" d="M68.7,23.7c0,0.2,0,0.3-0.2,0.4C68.5,23.9,68.5,23.7,68.7,23.7z"/>
	<path class="st115" d="M66.6,26.6c0.1-0.2,0.2-0.2,0.4-0.2C66.9,26.6,66.8,26.6,66.6,26.6z"/>
	<path class="st115" d="M68.8,23.5c-0.1,0.1-0.1,0.1-0.2,0.2C68.7,23.6,68.8,23.5,68.8,23.5z"/>
	<path class="st115" d="M68.5,24c0,0.1,0,0.1,0,0.2c0,0-0.1,0-0.1,0s-0.1,0-0.1,0c0,0,0,0,0,0C68.4,24.2,68.4,24.1,68.5,24z"/>
	<path class="st115" d="M65.4,24.4c0.1-0.1,0.1-0.1,0.2-0.2C65.5,24.3,65.4,24.3,65.4,24.4z"/>
	<path class="st115" d="M69.6,24.8C69.6,24.7,69.6,24.7,69.6,24.8C69.6,24.7,69.6,24.7,69.6,24.8C69.6,24.8,69.6,24.8,69.6,24.8z"/>
	<path class="st115" d="M64.8,25.3C64.8,25.3,64.8,25.4,64.8,25.3C64.7,25.4,64.7,25.3,64.8,25.3C64.8,25.3,64.8,25.3,64.8,25.3
		C64.8,25.3,64.8,25.3,64.8,25.3z"/>
	<path class="st115" d="M68.7,25.5c0.1-0.1,0.1-0.1,0.2-0.2c0,0,0,0,0,0C68.8,25.4,68.7,25.4,68.7,25.5
		C68.7,25.5,68.7,25.5,68.7,25.5z"/>
	<path class="st115" d="M69.6,24.8c-0.1,0.1-0.1,0.1-0.2,0.2c0,0,0,0,0,0C69.4,24.9,69.5,24.8,69.6,24.8
		C69.6,24.8,69.6,24.8,69.6,24.8z"/>
	<path class="st119" d="M60.8,8.9c-0.2,0-0.4,0-0.6,0c-0.2-0.2-0.3-0.3-0.5,0c-0.5,0.2-0.9,0.3-1.4,0C58,8.7,57.6,8.7,57.2,9
		c-0.4,0.4-0.9,0-1.4-0.1c0,0,0-0.1,0-0.1c0.7-0.3,0.8-1.4,1.7-1.5c0.1,0,0.1,0,0.1-0.1c0.1-0.1,0.1-0.1,0.2-0.2c0,0,0.1,0,0.1,0
		c0,0.1,0,0.1,0,0.2c-0.1,0.4-0.2,0.9,0.2,1.2c0.2,0.2,0.4-0.1,0.5-0.2c0.3-0.3,0.8-0.6,0.3-1.2c0.8-0.5,1.7,0.1,2.6-0.1
		c-0.3,0.5-0.6,1-0.8,1.5c-0.1,0.1-0.3,0.1-0.2,0.3c0,0,0.1,0.1,0.2,0.1C60.8,8.8,60.8,8.8,60.8,8.9z"/>
	<path class="st118" d="M61.7,6.9c-0.9,0.2-1.7-0.4-2.6,0.1c0,0,0,0,0,0c0-0.1,0-0.1,0-0.2c0,0-0.1,0.1-0.1,0.1
		c-0.3,0.1-0.6,0.2-0.9,0.3c0-0.1,0-0.1,0-0.2c0.2-0.5,0.4-0.9,0.6-1.4c0.2-0.2,0.1-0.4,0.2-0.6c0.2,0,0.6,0.4,0.7-0.1
		c0.1-0.2,0.2-0.1,0.3,0c0.9,0.2,1.8,0.5,2.7,0.4c0,0.3,0,0.5,0.4,0.6c0,0,0,0.1,0,0.1c0,0,0,0.1,0,0.1C62.5,6.3,61.9,6.3,61.7,6.9z
		"/>
	<path class="st116" d="M63,5.9C63,5.9,63,5.8,63,5.9c-0.1-0.5-0.1-0.9-0.2-1.4c0.8,0.2,1.6,0.2,2.4,0c0,0.3,0.1,0.4,0.3,0.5
		c0,0,0,0,0,0c0,0.2,0.1,0.3,0.2,0.4c0,0,0,0.1,0,0.1c0,0.3-0.3,0.6-0.1,1c-0.3,0.3-0.5,0.5-0.9,0c-0.2-0.3-0.8-0.3-1.2-0.4
		C63.4,6,63.2,6,63,5.9z"/>
	<path class="st122" d="M67.2,4.3c0-0.3-0.1-0.9,0.5-0.3c0.6,0.5,0.9,1.4,1.9,1.1c-0.2,0.1-0.4,0.2-0.6,0.3c0,0-0.1-0.1-0.1-0.1
		c0,0,0.1,0.1,0.1,0.1c-0.2,0.4-0.5,0.3-0.8,0.2c-0.4-0.1-0.6,0-0.9,0.3C67.2,6.2,67,6.4,66.6,6c-0.4-0.4,0-0.6,0.2-0.8
		c0.1-0.1,0.4-0.2,0.5-0.3c0.2-0.1,0.3-0.2,0.3-0.4C67.7,4.2,67.4,4.4,67.2,4.3z"/>
	<path class="st115" d="M65.6,6.5c-0.1-0.3,0.1-0.6,0.1-1c0,0,0.1,0,0.1,0C66.1,6,66.5,6.4,65.6,6.5z"/>
	<path class="st122" d="M60.8,8.7c-0.1,0-0.2,0-0.2-0.1c0-0.2,0.1-0.2,0.2-0.3C60.8,8.5,61,8.6,60.8,8.7z"/>
	<path class="st115" d="M63,5.9C63.2,6,63.4,6,63.5,6.1c-0.2,0-0.4,0-0.6-0.1C63,6,63,5.9,63,5.9z"/>
	<path class="st124" d="M54.4,2.9c0.9,0,1.4-0.8,2.2-1c0.3-0.1,0.7-0.6,1,0c0,0,0.2,0,0.2,0c1.7-1,3.4-0.4,5.1-0.1
		c0.7,0.1,1.3,0.4,2,0.6c0,0,0.1,0.1,0.1,0.1c0.1,0.1,0.3,0.3,0.4,0.4c-0.1,0.6-0.8-0.1-0.9,0.5c-0.1,0.1-0.1,0.1-0.2,0.2
		c-0.4,0-0.9,0.1-1.3-0.1c-0.3-0.1-0.5,0-0.5,0.3c-0.4-0.4-0.3-1.1-1-1.5c0.2,0.5,0.3,0.8,0.4,1.1c-0.9,0.1-1.9-0.2-2.8,0.3
		C59.1,3.1,58.6,3,58,3.1c-1.2,0.2-2.3,0.4-3.4,0.7c0-0.2,0-0.4-0.2-0.6C54.4,3.1,54.4,3,54.4,2.9L54.4,2.9z M63.4,2.3
		C63.4,2.3,63.3,2.3,63.4,2.3C63.3,2.2,63.3,2.2,63.4,2.3C63.3,2.3,63.3,2.3,63.4,2.3C63.4,2.3,63.4,2.4,63.4,2.3
		C63.4,2.4,63.4,2.4,63.4,2.3C63.4,2.4,63.4,2.3,63.4,2.3z M64.1,2.9C64.1,2.8,64.1,2.8,64.1,2.9C64,2.8,64,2.8,64.1,2.9
		C64,2.8,64.1,2.8,64.1,2.9C64.1,2.9,64.1,2.9,64.1,2.9C64.1,2.9,64.1,2.9,64.1,2.9C64.1,2.9,64.1,2.9,64.1,2.9z"/>
	<path class="st115" d="M62.1,3.4c-0.1-0.3-0.2-0.6-0.4-1.1c0.7,0.4,0.6,1.1,1,1.5c0,0.2,0,0.5,0.2,0.7c0.1,0.4,0.1,0.9,0.2,1.3
		c-0.4,0-0.4-0.3-0.4-0.6C62.4,4.6,62.2,4,62.1,3.4z"/>
	<path class="st115" d="M65.6,2.9c-0.1-0.1-0.3-0.3-0.4-0.4c0.1-0.2,0.3-0.2,0.4,0C65.7,2.6,65.7,2.7,65.6,2.9z"/>
	<path class="st115" d="M65.6,5.1c-0.2-0.1-0.3-0.3-0.3-0.5C65.6,4.6,65.6,4.8,65.6,5.1z"/>
	<path class="st115" d="M67.9,3.2c-0.2,0-0.4-0.1-0.4-0.3c0,0,0-0.1,0.1-0.1C67.7,2.9,67.8,3,67.9,3.2L67.9,3.2z"/>
	<path class="st115" d="M67.9,3.2c0.2,0,0.3,0,0.4,0.2l0,0C68.1,3.4,68,3.4,67.9,3.2C67.9,3.2,67.9,3.2,67.9,3.2z"/>
	<path class="st115" d="M65.7,5.5c-0.1-0.1-0.2-0.2-0.2-0.4C65.7,5.1,65.7,5.3,65.7,5.5z"/>
	<path class="st115" d="M68.5,3.6c0.2,0,0.3,0,0.4,0.2l0,0C68.7,3.8,68.5,3.7,68.5,3.6C68.5,3.6,68.5,3.6,68.5,3.6z"/>
	<path class="st115" d="M69.8,4.5C69.8,4.5,69.8,4.6,69.8,4.5C69.8,4.6,69.8,4.6,69.8,4.5C69.8,4.6,69.8,4.5,69.8,4.5L69.8,4.5z"/>
	<path class="st115" d="M69.7,4.5C69.7,4.5,69.7,4.5,69.7,4.5C69.7,4.4,69.7,4.4,69.7,4.5C69.7,4.5,69.7,4.5,69.7,4.5
		C69.8,4.5,69.7,4.5,69.7,4.5z"/>
	<path class="st115" d="M69,3.9c0,0,0.1,0.1,0.1,0.1C69.1,4,69,4,69,3.9C69,4,69,3.9,69,3.9z"/>
	<path class="st115" d="M68.8,3.8C68.9,3.8,69,3.9,69,3.9c0,0,0,0,0,0C68.9,3.9,68.9,3.8,68.8,3.8C68.8,3.8,68.8,3.8,68.8,3.8z"/>
	<path class="st115" d="M68.3,3.4c0.1,0.1,0.1,0.1,0.2,0.2c0,0,0,0,0,0C68.4,3.5,68.3,3.5,68.3,3.4C68.3,3.4,68.3,3.4,68.3,3.4z"/>
	<path class="st115" d="M64.4,3.6c0.1-0.1,0.1-0.1,0.2-0.2C64.6,3.5,64.5,3.5,64.4,3.6z"/>
	<path class="st118" d="M50.4,21.8c-0.3,0.4-0.7,0.7-1.3,0.7c-0.3-0.4-0.6-0.7-0.9-1.1c0,0,0,0,0,0c-0.1-0.2-0.2-0.3-0.4-0.4
		c0,0,0,0,0,0c0-0.2,0-0.3-0.2-0.4c0,0,0,0,0,0c-0.1-0.3-0.1-0.6-0.2-0.9c0.2-0.1,0.3-0.2,0.5-0.1c0.6,0.5,1,0.1,1.4-0.3l0,0
		c0,0.2,0,0.3,0.2,0.4c0.4,0.5,0.3,1.2,0.9,1.7C50.4,21.6,50.4,21.7,50.4,21.8z"/>
	<path class="st116" d="M52.9,23.3c-0.5-0.2-1.1-0.2-1.6-0.5c-0.1-0.2-0.2-0.3-0.4-0.4c0,0,0,0,0,0c0-0.1,0-0.2,0-0.4
		c0.6-0.1,1.3-0.1,1.7-0.7c0.4,0.2,0.3,0.5,0.4,0.9C53,22.6,52.9,22.9,52.9,23.3z"/>
	<path class="st115" d="M52.9,23.3c0-0.4,0-0.7,0-1.1c0.3,0.4,0.1,0.9,0.2,1.3c0.1,0.9-0.2,1.8,0.2,2.7c0,0-0.1,0.1-0.1,0.1
		c-0.7-0.4-0.2-1.1-0.4-1.6c0-0.1,0-0.2,0-0.3c0-0.1,0-0.1,0-0.2C52.9,23.9,52.9,23.6,52.9,23.3z"/>
	<path class="st115" d="M48.2,21.5c0.3,0.4,0.6,0.7,0.9,1.1c0,0.1,0.1,0.3,0.2,0.5c-0.6-0.2-0.6-0.8-1.1-1
		C48.2,21.8,48.2,21.6,48.2,21.5z"/>
	<path class="st115" d="M50.9,22.4c0.2,0.1,0.3,0.2,0.4,0.4C50.9,22.9,51,22.6,50.9,22.4z"/>
	<path class="st115" d="M50.4,21.8c0-0.1,0-0.2,0-0.3c0,0,0,0,0,0c0.2,0.1,0.4,0.3,0.4,0.5l0,0C50.6,22,50.5,21.9,50.4,21.8z"/>
	<path class="st115" d="M50.9,22c0,0.1,0,0.2,0,0.4c-0.2-0.1-0.2-0.2-0.2-0.4c0,0,0,0,0,0C50.8,22,50.9,22,50.9,22z"/>
	<path class="st115" d="M51.1,24.8c-0.2,0-0.3,0-0.4-0.2C50.9,24.6,51.1,24.6,51.1,24.8C51.1,24.8,51.1,24.8,51.1,24.8z"/>
	<path class="st116" d="M52.9,24.2c0,0.1,0,0.1,0,0.2C52.9,24.4,52.9,24.3,52.9,24.2C52.9,24.3,52.9,24.2,52.9,24.2z"/>
	<path class="st115" d="M50.7,24.6C50.7,24.5,50.7,24.5,50.7,24.6C50.7,24.5,50.7,24.5,50.7,24.6C50.8,24.5,50.8,24.6,50.7,24.6
		C50.7,24.6,50.7,24.6,50.7,24.6z"/>
	<path class="st115" d="M51.3,25c-0.1-0.1-0.1-0.1-0.2-0.2c0,0,0,0,0,0C51.2,24.8,51.3,24.9,51.3,25L51.3,25z"/>
	<path class="st115" d="M51.3,24.9C51.3,25,51.4,25,51.3,24.9C51.4,25,51.3,25,51.3,24.9C51.3,25,51.3,24.9,51.3,24.9z"/>
	<path class="st123" d="M47.8,10c0.2-0.1,0.7,0.2,0.6-0.4c0-0.1,0.2-0.4,0.3-0.4C49.7,9,50.3,8,51.4,8c0,0.3,0,0.5,0,0.8
		c0,0.1,0.1,0.2,0.1,0.2c0,0,0,0,0,0c0,0.3,0.2,0.7-0.2,0.8c-1.1,0.5-2.1,1.4-3.5,1.5C47.8,11,47.8,10.5,47.8,10z"/>
	<path class="st118" d="M52.4,7.1c0-0.5-0.1-0.9-0.7-0.4c-0.2,0.1-0.4,0.1-0.6,0c0.1-0.3,0.4-0.4,0.4-0.7c0,0,0,0,0,0
		c0.1-0.1,0.2-0.2,0.2-0.4l0,0c0.1-0.1,0.1-0.1,0.2-0.2c0,0,0,0,0,0C52,5.4,52.2,5.2,52.2,5c0,0,0,0,0,0c0.1-0.1,0.2-0.1,0.3-0.2
		c0.3,0,0.5,0,0.8,0c0,0.4,0.3,0.3,0.5,0.4c0.3,0.3,0.6,0.6,0.4,1.1c-0.2,0.3-0.4,0.6-0.5,0.9C53.4,6.5,52.8,7.4,52.4,7.1z"/>
	<path class="st119" d="M52.4,7.1c0.4,0.3,0.9-0.5,1.3,0.2c0,0.2,0.1,0.5-0.1,0.7c-0.5-0.2-0.8,0-0.9,0.4c-0.1,0.4,0,0.9-0.2,1.1
		c-0.5,0.5-0.5-0.7-1-0.4c0,0,0,0,0,0c0-0.1-0.1-0.2-0.1-0.2c0-0.3,0-0.5,0-0.8C51.9,7.9,52.1,7.5,52.4,7.1z"/>
	<path class="st115" d="M47.8,10c0,0.5,0,0.9,0.1,1.4c0,0.5-0.1,1,0.1,1.5c0,0,0,0.1,0,0.1c-0.1,0-0.1,0.1-0.2,0.1
		c-0.2,0.2-0.1,0.4-0.2,0.6c-0.3-1-0.1-2.1-0.2-3.2c0.3-0.1,0.2-0.3,0.2-0.5C47.7,10,47.8,10,47.8,10z"/>
	<path class="st115" d="M51.5,6c0,0.3-0.3,0.5-0.4,0.7c-0.2,0-0.5,0-0.7,0C50.9,6.6,51.1,6.1,51.5,6z"/>
	<path class="st124" d="M56.8,26.6c0.2,0.3,0.4,0.5,0.7,0.9c-0.8-0.1-1.4-0.7-2.2-0.7l0,0c-0.2-0.5-1-0.5-1.1-1.1
		c0.1-0.4,0.1-0.8,0.2-1.2c0.1-0.3,0.2-0.6,0.6-0.4c0.9,0.3,1.8,0.4,2.7,0.4c0.3,0.5,0.3,1.2,0.7,1.6l0,0c0,0.5,0.1,0.8,0.6,1.1l0,0
		c0.1,0.3,0.3,0.7-0.4,0.5C57.9,27.4,57.5,26.7,56.8,26.6c-0.1-0.1-0.1-0.1-0.2-0.2c-0.1-0.1-0.1-0.1-0.2-0.2
		c-0.1-0.1-0.1-0.1-0.2-0.2c0-0.2,0-0.4-0.2-0.4c0,0-0.1,0-0.1,0.1c0,0.2,0.1,0.3,0.3,0.4c0.1,0.1,0.1,0.1,0.2,0.2
		c0.1,0.1,0.1,0.1,0.2,0.2C56.7,26.5,56.7,26.5,56.8,26.6z"/>
	<path class="st124" d="M62.2,25.1c-0.1,0.4-0.4,0.8-0.3,1.3c0,0,0,0,0,0c-0.2,0.1-0.2,0.3-0.2,0.6c0,0,0,0,0,0
		c-0.1,0.1-0.1,0.1-0.2,0.2c0,0,0,0,0,0c-0.5,0.3-0.8,0.9-1.6,0.7c-0.5-0.1-0.5-0.7-1-0.7c0,0,0,0,0,0c0-0.5-0.1-0.9-0.6-1.1
		c0,0,0,0,0,0c0-0.2,0-0.5,0-0.7C59.7,25,61,25.2,62.2,25.1z"/>
	<path class="st114" d="M55,24c-0.4-0.2-0.5,0.1-0.6,0.4c-0.1,0.4-0.1,0.8-0.2,1.2c-0.1,0.2-0.2,0.4-0.1,0.6c0,0.1,0,0.1,0,0.2
		c0,0.3-0.2,0.4-0.4,0.4c0-0.2,0.1-0.5,0-0.6c-0.6-1.1-0.3-2.3-0.3-3.4c0.3,0,0.5-0.1,0.8-0.4c0.6-0.5,1.1-1.3,2.1-0.7
		C55.6,22.4,55.2,23.2,55,24z"/>
	<path class="st121" d="M53.3,22.8c0.1,1.1-0.3,2.3,0.3,3.4c0.1,0.2,0,0.4,0,0.6c-0.1-0.2-0.2-0.4-0.3-0.6c-0.4-0.9-0.1-1.8-0.2-2.7
		c0-0.4,0.2-0.9-0.2-1.3c0-0.3,0-0.7-0.4-0.9c0,0,0-0.1,0-0.1c0.4-0.1,0.5,0.1,0.6,0.5C53.3,22,53.3,22.4,53.3,22.8z"/>
	<path class="st124" d="M54.1,26.4c0-0.1,0-0.1,0-0.2c0.2,0,0.3,0.1,0.4,0.3c0,0-0.1,0.1-0.1,0.1C54.3,26.5,54.2,26.5,54.1,26.4z"/>
	<path class="st124" d="M55.3,26.8c-0.1,0.1-0.2,0.2-0.4,0.1c0,0,0,0-0.1-0.1C55,26.8,55.2,26.8,55.3,26.8
		C55.3,26.8,55.3,26.8,55.3,26.8z"/>
	<path class="st124" d="M54.5,26.5c0,0,0,0.1,0.1,0.1C54.5,26.7,54.4,26.6,54.5,26.5C54.4,26.6,54.4,26.6,54.5,26.5z"/>
	<path class="st113" d="M53.3,4.9c-0.3,0-0.5,0-0.8,0c0-0.2-0.1-0.4-0.3-0.3c-0.2-0.1-0.4-0.2-0.6-0.4c0-0.1,0-0.2,0-0.3
		c0,0,0,0,0,0c0.2,0,0.3,0,0.4-0.2c0,0,0,0,0,0c0.4,0,0.6-0.2,0.7-0.6c0,0,0,0,0,0c0.2,0,0.3,0,0.4-0.2c0,0,0,0,0,0
		c0.2,0,0.3,0,0.4-0.2c0,0,0,0,0,0c0.3-0.1,0.6-0.1,0.9-0.2c0,0,0,0,0,0c0,0.1,0,0.2,0,0.3c0,0,0,0,0,0C54.2,3,53.9,3,53.9,3.4
		c-0.3,0-0.6-0.1-0.7,0.4c0,0-0.1,0.1-0.1,0.1c0,0,0.1,0,0.1,0c0-0.1,0-0.1,0-0.2c0.3,0,0.6,0,0.7-0.4c0.2-0.1,0.3-0.1,0.5-0.2
		c0.2,0.1,0.2,0.3,0.2,0.6c-0.2,0.2-0.3,0.4-0.5,0.6c0,0,0,0,0,0c-0.1,0-0.1,0-0.2-0.1c-0.1-0.1-0.1-0.1-0.1,0l0,0
		C53.3,4.3,53.3,4.6,53.3,4.9L53.3,4.9z"/>
	<path class="st113" d="M54.4,2.3c0.1,0.1,0.2,0.1,0,0.2c0,0,0,0,0,0C54.4,2.4,54.4,2.4,54.4,2.3L54.4,2.3z"/>
	<path class="st115" d="M52.2,4.5c0.2,0,0.4,0.1,0.3,0.3c-0.1,0.1-0.2,0.1-0.3,0.2C52.2,4.9,52.2,4.7,52.2,4.5z"/>
	<path class="st115" d="M51.7,3.8c0,0.1,0,0.2,0,0.3c-0.1,0-0.2,0-0.4,0C51.4,4,51.5,3.8,51.7,3.8z"/>
	<path class="st115" d="M52.2,5c-0.1,0.2-0.2,0.3-0.4,0.4C51.9,5.2,52,5,52.2,5z"/>
	<path class="st115" d="M51.7,5.6c0,0.2,0,0.3-0.2,0.4C51.5,5.8,51.5,5.7,51.7,5.6z"/>
	<path class="st115" d="M51.9,5.4c-0.1,0.1-0.1,0.1-0.2,0.2C51.7,5.5,51.8,5.5,51.9,5.4z"/>
	<path class="st119" d="M71.4,21.8c-0.1,0-0.1,0-0.2,0c-0.3-0.1-0.6-0.3-0.9-0.4c0-0.2,0-0.4,0-0.5c0,0,0,0,0,0
		c0.1-0.1,0.1-0.1,0.2-0.2c0,0,0,0,0,0c0.2-0.1,0.2-0.4,0.2-0.6c0,0,0,0,0,0c0.3-0.2,0.3-0.6,0.4-0.9c0.9,0.2,0.9,0.2,1-0.3
		c0.2-0.1,0.3-0.1,0.5-0.2c0.7,0,0.7-0.5,0.6-1c0.2-0.2,0.5-0.1,0.7-0.1c-0.1,0.5-0.4,0.9-0.3,1.5c0,0,0,0,0,0
		c-0.3,0.2-0.3,0.4-0.4,0.7C72.6,20.5,71.8,21,71.4,21.8z"/>
	<path class="st115" d="M73.2,19.8c0.1-0.3,0.1-0.5,0.4-0.7c0,0.1,0,0.3,0,0.4C73.5,19.6,73.3,19.7,73.2,19.8z"/>
	<path class="st120" d="M44.9,15.4c0-0.1,0-0.2,0-0.4c0.4,0,0.7,0,1.1,0c0,0.2,0,0.4,0,0.6c0,0-0.1,0-0.1,0c0,0,0,0.1,0.1,0.1
		c0.2,0.5,0.2,1,0.2,1.5c-0.9,0.4-1.1-0.2-1.2-0.9c0-0.2,0-0.4,0-0.6C45.1,15.7,45.1,15.6,44.9,15.4z"/>
	<path class="st122" d="M46.2,17.3c0-0.5,0-1-0.2-1.5c0-0.1,0-0.1,0-0.2c0-0.2,0-0.4,0-0.6c-0.1-1.4,0.2-2.7,0.4-4
		c0.1-0.1,0.2-0.2,0.4-0.4c0.1,0.5-0.2,0.9-0.2,1.4c-0.1,1.1-0.6,2.2-0.1,3.3c0,0.7,0,1.5,0.4,2.2c0,0.3,0,0.6,0.2,0.9
		c-0.1,0-0.1,0-0.2,0C46.4,18.2,46.5,17.7,46.2,17.3z"/>
	<path class="st115" d="M73.6,19.1c0-0.5,0.2-1,0.3-1.5c0.2-1.1,0.5-2.1,0.4-3.2c0-0.3,0.2-0.7-0.5-0.6c-0.4,0.1-0.1-0.3-0.1-0.4
		c0.2,0.1,0.4,0.1,0.7,0.2c0.9,0.4-0.1,0.9,0.1,1.3c-0.1,0.8-0.1,1.6-0.2,2.4C74,17.9,74,18.6,73.6,19.1z"/>
	<path class="st115" d="M46.7,18.6c0.1,0,0.1,0,0.2,0c0.2,0.4,0.4,0.8,0.5,1.3c0.1,0.3,0.1,0.6,0.2,0.9c-0.4-0.3-0.5-0.9-0.7-1.3
		C46.9,19.2,46.8,18.9,46.7,18.6z"/>
	<path class="st115" d="M47.8,21.1c0.2,0,0.3,0.2,0.4,0.4C48,21.5,47.8,21.4,47.8,21.1z"/>
	<path class="st115" d="M47.7,20.7c0.2,0.1,0.2,0.2,0.2,0.4C47.7,21,47.7,20.9,47.7,20.7z"/>
	<path class="st120" d="M74.3,17.3c0.1-0.8,0.1-1.6,0.2-2.4c0.5,0.4,0.7,0,1.1-0.4c0,0.5,0,1,0,1.5c0,0-0.1,0-0.1,0.1
		C75.4,16.9,75.2,17.5,74.3,17.3z"/>
	<path class="st115" d="M54.4,2.3c0,0.1,0,0.1,0,0.2c-0.3,0.1-0.6,0.1-0.9,0.2C53.7,2.4,54.1,2.3,54.4,2.3z"/>
	<path class="st115" d="M52.8,3c-0.1,0.3-0.4,0.5-0.7,0.6C52.2,3.3,52.4,3.1,52.8,3z"/>
	<path class="st115" d="M52,3.6c-0.1,0.2-0.2,0.2-0.4,0.2C51.8,3.6,51.9,3.6,52,3.6z"/>
	<path class="st115" d="M53.5,2.7c-0.1,0.2-0.2,0.2-0.4,0.2C53.2,2.7,53.4,2.7,53.5,2.7z"/>
	<path class="st115" d="M53.1,2.9C53.1,3,52.9,3,52.8,3C52.9,2.9,53,2.9,53.1,2.9z"/>
	<path class="st117" d="M46.4,15.5c-0.4-1.1,0-2.2,0.1-3.3c0-0.5,0.3-0.9,0.2-1.4c0,0,0,0,0,0c0.2-0.1,0.2-0.4,0.2-0.6
		c0,0,0-0.1,0-0.1c0.1,0,0.2,0,0.3,0c0.1,0.2,0.1,0.3,0.2,0.5c0.1,1.1-0.2,2.1,0.2,3.2c0.3,0.5,0.8,0.9,0.7,1.6
		c-0.4-0.3-0.9-0.3-1.2,0C46.9,15.5,46.6,15.4,46.4,15.5z"/>
	<path class="st122" d="M46.9,10.1c0,0.2,0.1,0.5-0.2,0.6C46.7,10.5,46.7,10.3,46.9,10.1z"/>
	<path class="st122" d="M47.3,10c-0.1,0-0.2,0-0.3,0c0-0.1,0-0.2,0-0.3C47.1,9.8,47.2,9.8,47.3,10z"/>
	<path class="st117" d="M44.9,15.4c0.2,0.1,0.2,0.2,0,0.4C44.9,15.7,44.9,15.6,44.9,15.4z"/>
	<path class="st119" d="M67.2,20.4c0-0.2,0.1-0.4-0.1-0.6c-0.2,0.5-0.3,1-0.5,1.5c-0.5,0-1.1-0.3-1.1,0.6c-0.2-0.2-0.1-0.4-0.1-0.6
		c0.3-0.4,0.3-0.9,0.4-1.4c0.1-0.5,0.1-0.8-0.5-0.4c-0.4,0.2-0.5,0.1-0.5-0.3c0-0.2-0.1-0.5-0.2-0.7c0.1-0.1,0.1-0.2,0.2-0.4
		c0.7,0.4,1.6,0.2,2.3,0.5c0,0.2,0,0.4,0,0.6c0.5-0.3,0.2-0.9,0.5-1.2c0.7,0.4,1.3,0.2,1.9-0.2c0.2-0.1,0.3-0.1,0.5-0.1
		c0.3,0.4,0.5,0.7,0.8,1.1c-0.1,0.4-0.1,0.9-0.2,1.3c0,0,0,0,0,0c-0.1,0.1-0.1,0.1-0.2,0.2C69.4,20.2,68.3,20.8,67.2,20.4z"/>
	<path class="st114" d="M64.6,18.6c0.1,0.2,0.2,0.5,0.2,0.7c0,0.4,0.1,0.5,0.5,0.3c0.6-0.4,0.6-0.1,0.5,0.4
		c-0.1,0.5-0.2,0.9-0.4,1.4c-0.2,0-0.4-0.1-0.6-0.3c-0.3-0.3-0.5-0.1-0.7,0.2c-0.3,0.4-0.5,0.8-0.7,1.2c-0.1,0.1-0.1,0.1-0.2,0.2
		c0,0-0.1,0-0.1,0c-0.7-0.1-0.9-0.6-1-1.2c-0.1-0.5-0.1-1.1-0.6-1.5c0-0.3,0.1-0.5,0.2-0.7C62.6,18.6,63.7,18.9,64.6,18.6z"/>
	<path class="st122" d="M56.8,10.5c0.1-0.1,0.1-0.3,0.2-0.5c0.3,0.4-0.2,0.8,0,1.2c0,1.4,0,2.8,0,4.2c0,0.8,0,1.7,0,2.5
		c-0.1,0-0.1,0-0.2,0c-0.1-0.8,0.2-1.7-0.2-2.5C56.6,13.8,56.9,12.2,56.8,10.5z"/>
	<path class="st114" d="M71.9,17.4C71.9,17.4,71.9,17.4,71.9,17.4c0.2-0.3,0.4-0.8,0.7-0.7c0.4,0.1,0.4,0.7,0.3,1.1
		C72.3,18.3,72.1,18.3,71.9,17.4z"/>
	<path class="st115" d="M71.9,17.4c0.3,0.9,0.4,0.9,1.1,0.4c0.1,0,0.2,0,0.3,0c0,0.5,0.1,1-0.6,1c-0.3-0.4-1.1-0.4-1-1.1
		C71.7,17.6,71.8,17.5,71.9,17.4z"/>
	<path class="st123" d="M56.8,18c0.1,0,0.1,0,0.2,0c0.6,0.1,0.5,0.6,0.7,1c0,0.2,0,0.4-0.2,0.6c-0.6,0.1-0.6,0.6-0.7,1.1
		c-0.2,0.4-0.2,0.8-0.6,1.1c-1-0.5-1.5,0.3-2.1,0.7c-0.3,0.2-0.5,0.4-0.8,0.4c0-0.4-0.1-0.7-0.1-1.1c-0.1-0.3-0.2-0.6-0.6-0.5
		c-0.1-0.1-0.2-0.2-0.2-0.3c0.3-0.3,0.1-0.6,0.1-0.9c1.2-0.3,2.2-1.1,3.4-1.4c0.5-0.1,0.3-0.5,0.2-0.8C56.3,17.9,56.5,17.9,56.8,18z
		"/>
	<path class="st119" d="M57.5,19.5c0.2-0.2,0.1-0.4,0.2-0.6c0.1-0.1,0.7,0.3,0.4-0.3c-0.2-0.5,0-0.5,0.4-0.6c1.6-0.5,2.9,0.4,2.9,2
		c0,0.1,0,0.1,0,0.2c-0.1,0-0.1,0-0.2,0c-0.1-0.4-0.4-0.4-0.7-0.3c-0.5,0.2-1,0.2-1.5,0.1c-0.6-0.1-1.1-0.1-1.7,0.2
		C57.4,20,57.5,19.7,57.5,19.5z"/>
	<path class="st121" d="M61.4,20.2c0-0.1,0-0.1,0-0.2c0.1,0,0.1,0,0.1-0.1c0.4,0.4,0.4,1,0.6,1.5c0.1,0.6,0.3,1.1,1,1.2
		c0,0.1,0,0.2,0,0.3c-1,0.3-1-0.6-1.3-1.1c0,0,0-0.1,0-0.1c0-0.4-0.1-0.8-0.4-1.1l0,0C61.4,20.4,61.4,20.3,61.4,20.2z"/>
	<path class="st122" d="M67.7,18.2c-0.3,0.3,0,0.9-0.5,1.2c0-0.2,0-0.4,0-0.6c0.4-0.7-0.1-1.6,0.5-2.2c0,0.1,0,0.1,0.1,0.2
		C67.8,17.2,67.7,17.7,67.7,18.2z"/>
	<path class="st121" d="M70.9,18.9c-0.3-0.4-0.5-0.7-0.8-1.1c-0.2-0.2-0.1-0.4,0-0.6c0.5,0.2,0.7,0.6,0.9,1c0.2,0.4,0.5,0.6,1,0.7
		c-0.1,0.4-0.1,0.4-1,0.3C71,19.1,70.9,19,70.9,18.9z"/>
	<path class="st117" d="M56.8,10.5c0.1,1.6-0.2,3.3-0.2,4.9c-0.4-0.4-0.9-0.4-1.4-0.3c-0.5,0.1-1.1,0.1-1.6,0.1
		c-0.1-0.1-0.2-0.1-0.3-0.2c0-0.3,0-0.5-0.4-0.5c0.1-0.8-0.2-1.6,0.2-2.4c0-0.1,0-0.1,0-0.2c0.1-0.1,0.1-0.1,0.2-0.2
		c0.4,0,0.6-0.2,0.7-0.5l0,0c0.1,0,0.2-0.1,0.2-0.2c0,0,0,0,0,0c0.1,0,0.1,0,0.2,0c0.2-0.1,0.7,0.1,0.7-0.4l0,0l0,0
		c0.1-0.1,0.2-0.1,0.3-0.2c0,0,0,0,0,0C55.9,10.5,56.4,10.5,56.8,10.5z"/>
	<path class="st125" d="M55.2,10.7L55.2,10.7C55.2,10.7,55.2,10.7,55.2,10.7c-0.3,0-0.5,0-0.6,0c-0.6-0.5-1.7-0.2-1.8,0
		c-0.6,1-1.8,1.1-2.6,1.7c-0.6,0.4-1.4,1-2.3,0.5c-0.2-0.5-0.1-1-0.1-1.5c1.3-0.1,2.3-1,3.5-1.5c0.3-0.2,0.1-0.5,0.2-0.8
		c0.5-0.3,0.5,0.9,1,0.4c0.2-0.2,0.1-0.8,0.2-1.1c0.1-0.4,0.4-0.7,0.9-0.4c0.1,1.1,1.1,0.6,1.6,0.9c0,0,0,0,0,0
		c0.1,0.1,0.1,0.1,0.2,0.2c0.1,0.5,0.6,0.9,0.2,1.4c0,0,0,0,0,0C55.4,10.6,55.3,10.6,55.2,10.7z"/>
	<path class="st121" d="M54.2,6.3c0.2-0.5-0.1-0.8-0.4-1.1C53.9,5.1,54.1,5,54.2,5c0,0,0.1,0.1,0.2,0.1l0,0c0.5,0.5,0.4,1.2,0.6,1.8
		c0.1,0.8,0.4,1.4,0.9,1.9c0,0,0,0.1,0,0.1c-0.1,0-0.2,0-0.3,0c-0.1,0-0.3,0-0.4,0c0,0,0,0,0,0C54.8,8,54.5,7.2,54.2,6.3z"/>
	<path class="st122" d="M55.1,8.9c0.1,0,0.3,0,0.4,0C55.5,9,55.4,9,55.3,9.1C55.3,9,55.2,8.9,55.1,8.9z"/>
	<path class="st115" d="M63.2,22.6c0.1-0.1,0.1-0.1,0.2-0.2C63.3,22.5,63.3,22.5,63.2,22.6z"/>
	<path class="st115" d="M70.1,21.5c-0.1,0.4-0.2,0.7-0.6,0.9C69.5,22,69.7,21.7,70.1,21.5z"/>
	<path class="st115" d="M70.5,20.4c0.1-0.1,0.1-0.1,0.2-0.2c0,0.2,0,0.4-0.2,0.6C70.5,20.6,70.5,20.5,70.5,20.4z"/>
	<path class="st115" d="M70.3,20.9c0,0.2,0,0.4,0,0.5c-0.1,0-0.1,0-0.2,0C70.1,21.3,70.1,21.1,70.3,20.9z"/>
	<path class="st115" d="M70.5,20.7c-0.1,0.1-0.1,0.1-0.2,0.2C70.4,20.9,70.4,20.8,70.5,20.7z"/>
	<path class="st115" d="M65.6,26.5c0.1-0.4,0.3-0.4,0.6-0.6C66.1,26.4,65.9,26.5,65.6,26.5z"/>
	<path class="st115" d="M62.8,27.3c0.1-0.3,0.2-0.5,0.6-0.6C63.4,27.1,63.1,27.3,62.8,27.3z"/>
	<path class="st115" d="M65.2,26.8c0,0,0.1-0.1,0.1-0.1C65.3,26.7,65.2,26.7,65.2,26.8C65.2,26.8,65.2,26.8,65.2,26.8z"/>
	<path class="st115" d="M61.7,27c0-0.2,0-0.4,0.2-0.6C61.9,26.6,61.9,26.8,61.7,27z"/>
	<path class="st115" d="M61.5,27.1c0.1-0.1,0.1-0.1,0.2-0.2C61.7,27,61.6,27.1,61.5,27.1z"/>
	<path class="st113" d="M62.2,25.1c-1.3,0.1-2.6-0.2-3.8,0.2c-0.3-0.6-0.5-1.3-0.6-2c0.3-0.1,0.6,0,0.9,0c1.1-0.1,2.1,0.3,3.2-0.2
		c0.7-0.1,0.9,0.2,0.7,0.8C62.5,24.3,62.4,24.7,62.2,25.1z"/>
	<path class="st116" d="M61.9,23.1c-1,0.5-2.1,0.1-3.2,0.2c-0.3,0-0.6,0-0.9,0c-0.1-0.5-0.5-1.1-0.2-1.6c0.3,0.1,0.4-0.5,0.8-0.3
		c0.5,0.3,1.1,0.1,1.7,0.3c0.5,0.2,0.9-0.3,1.3-0.1c0.1,0,0.2,0.1,0.3,0.1c0,0,0,0.1,0,0.1C61.8,22.2,61.9,22.7,61.9,23.1z"/>
	<path class="st111" d="M55,6.9c-0.2-0.6-0.1-1.3-0.6-1.8c0.5,0,1-0.4,1.5-0.1c0.9,0.4,1.8,0.2,2.8,0.1c0,0.2,0,0.4,0,0.6
		c-0.2,0.5-0.4,0.9-0.6,1.4c0,0-0.1,0-0.1,0c-0.1,0.1-0.1,0.1-0.2,0.2c0,0-0.1,0.1-0.1,0.1C56.7,7,55.8,6.9,55,6.9z"/>
	<path class="st123" d="M55,6.9c0.9,0,1.8,0.1,2.6,0.4c-0.9,0.1-1,1.2-1.7,1.5C55.4,8.2,55,7.6,55,6.9z"/>
	<path class="st114" d="M58.1,7.2C58.4,7.1,58.7,7,59,6.9c0,0,0.1,0,0.1,0l0.1,0c0,0,0,0,0,0c0.5,0.5,0,0.8-0.3,1.2
		c-0.1,0.1-0.3,0.4-0.5,0.2C57.9,8.1,57.9,7.6,58.1,7.2z"/>
	<path class="st123" d="M57.7,7.2c0.1-0.1,0.1-0.1,0.2-0.2C57.8,7.1,57.8,7.2,57.7,7.2z"/>
	<path class="st113" d="M62.1,3.4c0.2,0.6,0.4,1.2,0.6,1.8c-0.9,0.2-1.8-0.2-2.7-0.4c-0.1,0-0.3-0.2-0.3,0c-0.2,0.5-0.5,0.1-0.7,0.1
		c0-0.2-0.1-0.4-0.1-0.5c0,0,0,0,0,0c0.2-0.3,0.2-0.6,0.6-0.7C60.2,3.2,61.1,3.5,62.1,3.4z"/>
	<path class="st114" d="M58.7,4.5c0,0.2,0.1,0.4,0.1,0.5c-0.1,0.2,0,0.4-0.2,0.6c0-0.2,0-0.4,0-0.6C58.6,4.9,58.7,4.7,58.7,4.5z"/>
	<path class="st119" d="M59.1,7L59.1,7c-0.1,0-0.1,0-0.1,0c0,0,0.1-0.1,0.1-0.1C59.1,6.9,59.1,6.9,59.1,7z"/>
	<path class="st113" d="M69,5.4C69,5.4,69,5.4,69,5.4C69,5.4,69,5.4,69,5.4C69,5.4,69,5.4,69,5.4z"/>
	<path class="st114" d="M59.3,3.8c-0.3,0.1-0.4,0.5-0.6,0.7c-1.5-0.2-3.1-0.2-4.6-0.2c0.2-0.2,0.3-0.4,0.5-0.6
		c1.1-0.2,2.3-0.5,3.4-0.7C58.6,3,59.1,3.1,59.3,3.8z"/>
	<path class="st115" d="M54.4,3.2c-0.2,0.1-0.3,0.1-0.5,0.2l0,0c0-0.4,0.3-0.4,0.6-0.5C54.4,3,54.4,3.1,54.4,3.2z"/>
	<path class="st115" d="M64.1,2.9C64.1,2.9,64.1,2.9,64.1,2.9C64.1,2.9,64.1,2.9,64.1,2.9C64.1,2.9,64.1,2.9,64.1,2.9
		C64.1,2.9,64.1,2.9,64.1,2.9z"/>
	<path class="st115" d="M64.1,2.9C64.1,2.8,64,2.8,64.1,2.9C64,2.8,64,2.8,64.1,2.9C64.1,2.8,64.1,2.8,64.1,2.9
		C64.1,2.9,64.1,2.9,64.1,2.9z"/>
	<path class="st115" d="M63.4,2.3C63.4,2.3,63.4,2.4,63.4,2.3C63.4,2.4,63.4,2.4,63.4,2.3C63.4,2.4,63.4,2.3,63.4,2.3
		C63.4,2.3,63.4,2.3,63.4,2.3z"/>
	<path class="st115" d="M63.4,2.3C63.3,2.3,63.3,2.3,63.4,2.3C63.3,2.2,63.3,2.2,63.4,2.3C63.3,2.3,63.4,2.3,63.4,2.3
		C63.4,2.3,63.4,2.3,63.4,2.3z"/>
	<path class="st119" d="M47.5,19.9c-0.2-0.4-0.4-0.8-0.5-1.3c-0.1-0.3-0.2-0.6-0.2-0.9c0.8,0.1,1.6-0.3,2.3,0.4
		c0.2,0.5,0.3,0.9,0.3,1.4c-0.4,0.4-0.8,0.8-1.4,0.3C47.8,19.6,47.6,19.8,47.5,19.9z"/>
	<path class="st115" d="M49.3,19.4c0-0.5-0.2-1-0.3-1.4c0-0.7-0.3-1.4-0.2-2.1c0.2-0.2,0.1-0.4,0.1-0.6c0.1,0,0.2,0,0.3-0.1
		c0,0.2,0,0.4,0,0.5c0,0.6-0.1,1.2,0.1,1.8c0,0.7,0.2,1.3,0.5,1.8c0,0.7,0.6,1.3,0.6,2c0,0,0,0,0,0c-0.6-0.4-0.5-1.2-0.9-1.7
		C49.5,19.7,49.5,19.5,49.3,19.4L49.3,19.4z"/>
	<path class="st119" d="M49.3,19.5c0.2,0.1,0.2,0.2,0.2,0.4C49.3,19.8,49.3,19.6,49.3,19.5z"/>
	<path class="st118" d="M50.4,21.5c0-0.7-0.5-1.3-0.6-2c0.4-0.7,1.2,0,1.7-0.4c0.3,0.6,0.6,1.2,0.8,1.8c0.1,0.1,0.2,0.2,0.2,0.3
		c0,0,0,0.1,0,0.1c-0.4,0.7-1.1,0.6-1.7,0.7c-0.1,0-0.1,0-0.2,0C50.8,21.8,50.7,21.6,50.4,21.5z"/>
	<path class="st125" d="M51.3,8.8c0,0.1,0.1,0.2,0.1,0.2C51.4,9,51.4,8.9,51.3,8.8z"/>
	<path class="st125" d="M54.1,4.3c1.5,0,3.1-0.1,4.6,0.2c0,0,0,0,0,0c0,0.2-0.1,0.4-0.1,0.5c-0.9,0.1-1.8,0.4-2.8-0.1
		c-0.5-0.3-1,0.2-1.5,0.1c0,0,0,0,0,0c0-0.1,0-0.2-0.2-0.1c-0.2,0-0.3,0.1-0.4,0.2c-0.2,0-0.5,0-0.5-0.4c0,0,0,0,0,0
		c0.1-0.1,0.3-0.2,0.4-0.4C53.8,4.5,53.9,4.4,54.1,4.3L54.1,4.3z"/>
	<path class="st122" d="M54.2,6.3c0.3,0.9,0.6,1.7,0.9,2.6c-0.5-0.4-1.5,0.1-1.6-0.9c0.2-0.2,0.1-0.4,0.1-0.7
		C53.9,6.9,54.1,6.6,54.2,6.3z"/>
	<path class="st112" d="M49.1,15.3c-0.1,0-0.2,0-0.3,0.1c-0.2-0.7-0.4-1.4-0.9-2c0-0.1,0-0.2,0-0.4c0,0,0-0.1,0-0.1
		c0.9,0.4,1.6-0.1,2.3-0.5c0.9-0.5,2-0.7,2.6-1.7c0.1-0.2,1.2-0.5,1.8,0l0,0c-0.2,0-0.4,0.1-0.4,0.3c0,0,0,0,0,0
		c-0.1,0.1-0.1,0.1-0.2,0.2c0,0,0,0,0,0c-0.4,0-0.7,0-0.7,0.5c-0.1,0.1-0.1,0.1-0.2,0.2c-0.1,0-0.1,0.1-0.2,0.1
		c-0.6,0.6-1.4,1.1-1.4,2.1c-0.1-0.4-0.3-0.7-0.7-0.7c-0.3,0-0.6,0.1-0.4,0.5c-0.2,0.4,0,0.7,0.3,0.9c0.3,0.2,0.4-0.1,0.5-0.3
		c0.1,0.1,0.2,0.2,0.2,0.2c-0.1,0.6,0.4,0.9,0.6,1.3c0.3,0.7,0.6,0.5,0.9,0c0.3-0.2,0.6-0.3,0.9,0c0.2,0.2,0.5,0.4,0.8,0.4
		c0.5,0,0.8,0.3,0.9,0.8c0.1,0.3,0.3,0.4,0.5,0.5c0.1,0.3,0.4,0.7-0.2,0.8c-1.2,0.3-2.2,1.1-3.4,1.4c-0.2-0.5-0.5-1-0.7-1.6
		c0,0,0-0.1,0.1-0.1c0.2-0.2,0.3-0.4,0.2-0.7c-0.1-0.2-0.1-0.4-0.2-0.6c0.1-0.5-0.3-0.9-0.7-0.9C50.4,16,49.8,15.6,49.1,15.3z"/>
	<path class="st121" d="M48,13.3c0.5,0.6,0.7,1.3,0.9,2c0,0.2,0.1,0.4-0.1,0.6c-0.1-0.1-0.1-0.2-0.2-0.3c-0.1-0.1-0.1-0.1-0.2-0.2
		c0-0.1,0-0.1,0-0.2c0-0.7-0.4-1.1-0.7-1.6c0-0.2,0-0.5,0.2-0.6C47.9,13.2,47.9,13.3,48,13.3z"/>
	<path class="st125" d="M48,13.3c-0.1-0.1-0.1-0.2-0.2-0.3c0.1,0,0.1-0.1,0.2-0.1C48,13.1,48,13.2,48,13.3z"/>
	<path class="st116" d="M56.2,21.7c0.4-0.3,0.4-0.7,0.6-1.1c0.6,1.2,0.6,2.5,0.9,3.8c-0.9,0-1.9-0.1-2.7-0.4
		C55.2,23.2,55.6,22.4,56.2,21.7z"/>
	<path class="st115" d="M57.7,24.4c-0.3-1.3-0.3-2.6-0.9-3.8c0.1-0.4,0.2-0.9,0.7-1.1c-0.1,0.2-0.1,0.5-0.2,0.7
		c-0.1,0.5,0.2,1,0.3,1.5c-0.3,0.6,0.1,1.1,0.2,1.6c0,0.7,0.2,1.4,0.6,2c0,0.2,0,0.5,0,0.7C58,25.6,58,24.9,57.7,24.4z"/>
	<path class="st115" d="M58.4,26c0.4,0.2,0.5,0.6,0.6,1.1C58.6,26.9,58.4,26.5,58.4,26z"/>
	<path class="st115" d="M56.2,26c-0.2-0.1-0.3-0.2-0.3-0.4c0,0,0.1-0.1,0.1-0.1C56.2,25.7,56.2,25.9,56.2,26
		C56.2,26,56.2,26,56.2,26z"/>
	<path class="st115" d="M56.4,26.2c-0.1-0.1-0.1-0.1-0.2-0.2c0,0,0,0,0,0C56.3,26.1,56.4,26.2,56.4,26.2L56.4,26.2z"/>
	<path class="st115" d="M56.4,26.2c0.1,0.1,0.1,0.1,0.2,0.2c0,0,0,0,0,0C56.5,26.3,56.5,26.3,56.4,26.2
		C56.4,26.2,56.4,26.2,56.4,26.2z"/>
	<path class="st115" d="M56.6,26.4c0.1,0.1,0.1,0.1,0.2,0.2c0,0,0,0,0,0C56.7,26.5,56.7,26.5,56.6,26.4
		C56.6,26.4,56.6,26.4,56.6,26.4z"/>
	<path class="st115" d="M53.9,3.4c-0.1,0.3-0.4,0.4-0.7,0.4l0,0C53.2,3.3,53.6,3.4,53.9,3.4C53.9,3.4,53.9,3.4,53.9,3.4z"/>
	<path class="st118" d="M53.7,4.5c-0.1,0.1-0.3,0.2-0.4,0.4c0-0.3,0-0.6,0.4-0.5C53.7,4.4,53.7,4.5,53.7,4.5z"/>
	<path class="st114" d="M53.7,4.5c0-0.1,0-0.1,0-0.2c0,0,0,0,0,0c0.1,0,0.1,0,0.1,0c0.1,0,0.1,0,0.2,0.1C53.9,4.4,53.8,4.5,53.7,4.5
		z"/>
	<path class="st115" d="M53.1,3.8c0,0.1,0,0.1,0,0.2c0,0-0.1,0-0.1,0C53.1,3.9,53.1,3.8,53.1,3.8C53.1,3.8,53.1,3.8,53.1,3.8z"/>
	<path class="st118" d="M53.9,4.3c0,0-0.1,0-0.1,0C53.7,4.2,53.8,4.2,53.9,4.3z"/>
	<path class="st115" d="M70.9,18.9c0.1,0.1,0.1,0.3,0.2,0.4C71,19.6,71,20,70.7,20.2C70.7,19.8,70.8,19.3,70.9,18.9z"/>
	<path class="st117" d="M46,15.6c0,0.1,0,0.1,0,0.2C46,15.8,46,15.7,46,15.6C45.9,15.7,46,15.7,46,15.6z"/>
	<path class="st120" d="M48.4,15.3c0,0.1,0,0.1,0,0.2c0.1,0.1,0.1,0.1,0.2,0.2c0.1,0.1,0.1,0.2,0.2,0.3C48.7,16.6,49,17.3,49,18
		c-0.7-0.6-1.5-0.3-2.3-0.4c-0.4-0.7-0.4-1.4-0.4-2.2c0.3,0,0.5,0,0.7-0.2C47.5,15,48,14.9,48.4,15.3z"/>
	<path class="st120" d="M56,17.9c-0.2-0.1-0.4-0.2-0.5-0.5c-0.1-0.5-0.4-0.7-0.9-0.8c-0.3,0-0.6-0.1-0.8-0.4c-0.3-0.3-0.6-0.2-0.9,0
		c0-0.2,0-0.4,0-0.6c0.3-0.1,0.5-0.2,0.6-0.4c0.5,0,1.1-0.1,1.6-0.1c0.5-0.1,1,0,1.4,0.3c0.4,0.8,0.1,1.7,0.2,2.5
		C56.5,17.9,56.3,17.9,56,17.9z"/>
	<path class="st121" d="M51.8,18.4c0.1,0.6,0.4,1.1,0.7,1.6c0.1,0.3,0.2,0.6-0.1,0.9c-0.3-0.6-0.6-1.2-0.8-1.8
		C51.6,18.9,51.7,18.6,51.8,18.4z"/>
	<path class="st118" d="M57.7,21.7c-0.1-0.5-0.5-0.9-0.3-1.5c0.5-0.3,1.1-0.3,1.7-0.2c0.5,0.1,1,0.1,1.5-0.1
		c0.3-0.1,0.6-0.1,0.7,0.3c0.1,0.1,0.1,0.2,0.2,0.3c0,0,0,0,0,0c0,0.4,0,0.7,0.1,1.1c-0.4-0.3-0.8,0.2-1.3,0.1
		c-0.5-0.2-1.1,0-1.7-0.3C58.1,21.2,58,21.7,57.7,21.7z"/>
	<path class="st115" d="M61.4,20.6c-0.1-0.1-0.1-0.2-0.2-0.3c0.1,0,0.1,0,0.2,0C61.4,20.3,61.4,20.4,61.4,20.6z"/>
	<path class="st115" d="M61.4,21.6c0-0.4,0-0.7-0.1-1.1c0.3,0.3,0.4,0.7,0.4,1.1C61.6,21.7,61.5,21.7,61.4,21.6z"/>
	<path class="st122" d="M53,15.6c0,0.2,0,0.4,0,0.6c-0.3,0.4-0.6,0.7-0.9,0c-0.2-0.4-0.7-0.7-0.6-1.3c0-0.2,0.1-0.5,0.1-0.7
		c0.1-1,0.9-1.4,1.4-2.1c0,0,0.1,0,0.1,0l0.1,0c-0.3,0.8-0.1,1.6-0.2,2.4c0,0.1,0,0.1,0,0.2c-0.3,0-0.7-0.3-1,0.1
		C52.3,15.2,52.8,15.2,53,15.6z"/>
	<path class="st114" d="M53,15.6c-0.2-0.4-0.7-0.5-1.1-0.7c0.3-0.4,0.7-0.1,1-0.1c0.1,0.2,0.2,0.3,0.4,0.3c0.1,0.1,0.2,0.1,0.3,0.2
		C53.4,15.4,53.2,15.6,53,15.6z"/>
	<path class="st125" d="M53.3,11.8c0-0.5,0.3-0.5,0.7-0.5C53.9,11.6,53.7,11.8,53.3,11.8z"/>
	<path class="st120" d="M54.6,10.7c0.2,0,0.4,0,0.5,0c0,0.5-0.5,0.3-0.7,0.4C54.5,11,54.6,10.8,54.6,10.7
		C54.6,10.7,54.6,10.7,54.6,10.7z"/>
	<path class="st120" d="M53.3,15.1c-0.2,0-0.3-0.1-0.4-0.3c0-0.1,0-0.1,0-0.2C53.3,14.6,53.3,14.8,53.3,15.1z"/>
	<path class="st125" d="M54.6,10.7c-0.1,0.1-0.1,0.2-0.2,0.3c-0.1,0-0.1,0-0.2,0C54.2,10.8,54.4,10.7,54.6,10.7z"/>
	<path class="st125" d="M53.1,12.2L53.1,12.2c-0.1,0-0.2,0-0.2,0c0.1,0,0.1-0.1,0.2-0.1C53.2,12,53.1,12.1,53.1,12.2z"/>
	<path class="st125" d="M54.1,11.3c0.1-0.1,0.1-0.1,0.2-0.2C54.2,11.2,54.2,11.3,54.1,11.3z"/>
	<path class="st120" d="M55.2,10.7c0.1-0.1,0.2-0.1,0.3-0.2C55.4,10.6,55.3,10.6,55.2,10.7z"/>
	<path class="st111" d="M54.2,5c0.1-0.1,0.1-0.1,0.2,0.1C54.3,5.1,54.3,5.1,54.2,5z"/>
	<path class="st119" d="M51.8,18.4c-0.1,0.2-0.2,0.5-0.3,0.7c-0.5,0.4-1.2-0.3-1.7,0.4c-0.3-0.6-0.5-1.2-0.5-1.8
		c0.6-0.2,1.2-0.3,1.8-0.2c0.6,0.1,0.6-0.2,0.5-0.6c0.1,0,0.2,0,0.4,0.1c0.1,0.2,0.1,0.4,0.2,0.6c-0.2,0.2-0.1,0.5-0.2,0.7
		C51.8,18.3,51.8,18.4,51.8,18.4z"/>
	<path class="st120" d="M51.5,16.9c0.1,0.4,0.2,0.7-0.5,0.6c-0.6-0.1-1.2,0-1.8,0.2c-0.3-0.6-0.2-1.2-0.1-1.8
		C49.8,16.4,50.9,16.2,51.5,16.9z"/>
	<path class="st121" d="M51.5,16.9c-0.6-0.7-1.7-0.5-2.4-1.1c0-0.2,0-0.4,0-0.5c0.7,0.3,1.3,0.7,2,0.8c0.4,0,0.7,0.4,0.7,0.9
		C51.7,17,51.6,16.9,51.5,16.9z"/>
	<path class="st121" d="M51.5,14.2c0,0.2-0.1,0.5-0.1,0.7c-0.1-0.1-0.2-0.2-0.2-0.2c-0.1-0.5-0.3-0.8-0.8-0.6
		c-0.1-0.4,0.1-0.5,0.4-0.5C51.2,13.5,51.4,13.8,51.5,14.2z"/>
	<path class="st120" d="M50.4,14c0.5-0.1,0.8,0.2,0.8,0.6c-0.1,0.2-0.3,0.5-0.5,0.3C50.4,14.7,50.2,14.4,50.4,14z"/>
	<path class="st121" d="M51.8,18.3c0.1-0.2,0-0.5,0.2-0.7C52.1,17.9,52,18.1,51.8,18.3z"/>
	<path class="st117" d="M48.6,15.6c-0.1-0.1-0.1-0.1-0.2-0.2C48.5,15.5,48.5,15.6,48.6,15.6z"/>
</g>
</svg>
