<?xml version="1.0" encoding="utf-8"?>
<!-- Generator: Adobe Illustrator 22.1.0, SVG Export Plug-In . SVG Version: 6.00 Build 0)  -->
<svg version="1.1" id="Capa_1" xmlns="http://www.w3.org/2000/svg" xmlns:xlink="http://www.w3.org/1999/xlink" x="0px" y="0px"
	 viewBox="0 0 123.1 55.7" style="enable-background:new 0 0 123.1 55.7;" xml:space="preserve">
<style type="text/css">
	.st0{fill:#0187CD;}
	.st1{opacity:0.55;clip-path:url(#SVGID_2_);}
	.st2{opacity:0.5;fill:none;stroke:#BEBEBE;stroke-miterlimit:10;}
	.st3{fill:#D8D8D8;}
	.st4{fill:#004485;}
	.st5{opacity:0.55;}
	.st6{fill:#FFFFFF;}
	.st7{fill:#004484;}
	.st8{fill:#87888B;}
	.st9{fill:#2F4C87;}
	.st10{fill:#E1E2E3;}
	.st11{fill:#C47930;}
	.st12{fill:#C3C3C3;}
	.st13{fill:#A4D523;}
	.st14{fill:#27608D;}
	.st15{fill:#749323;}
	.st16{fill:#FF0000;}
	.st17{fill:#CE7535;}
	.st18{fill:#265D9B;}
	.st19{opacity:5.000000e-02;}
	.st20{clip-path:url(#SVGID_4_);fill:#FFFFFF;}
	.st21{fill:#304483;}
	.st22{fill:#9D9FA1;}
	.st23{fill:#F1F1F1;}
	.st24{opacity:0.8;}
	.st25{fill:url(#SVGID_5_);}
	.st26{fill:url(#SVGID_6_);}
	.st27{opacity:0.3;fill:#FFFFFF;stroke:#FFFFFF;stroke-miterlimit:10;}
	.st28{fill:none;stroke:#265D9B;stroke-width:1.5;stroke-miterlimit:10;}
	.st29{opacity:0.85;fill:#FFFFFF;}
	.st30{opacity:0.85;fill:#9D9FA1;}
	.st31{opacity:0.75;}
	.st32{opacity:0.75;fill:none;}
	.st33{fill:#2B6BA7;}
	.st34{fill:none;stroke:#265D9B;stroke-width:3;stroke-miterlimit:10;}
	.st35{fill:none;stroke:#CE7535;stroke-width:3;stroke-miterlimit:10;}
	.st36{fill:url(#SVGID_7_);stroke:#265D9B;stroke-miterlimit:10;}
	.st37{fill:url(#SVGID_8_);stroke:#265D9B;stroke-miterlimit:10;}
	.st38{fill:#F3F3F3;}
	.st39{fill:#040707;}
	.st40{fill:#6F7175;}
	.st41{fill:#01CCF7;}
	.st42{fill:#00C0F5;}
	.st43{fill:#707276;}
	.st44{fill:#04E777;}
	.st45{fill:#04D8F7;}
	.st46{fill:#F6C302;}
	.st47{fill:#D83155;}
	.st48{fill:#E9354C;}
	.st49{fill:#F6CE05;}
	.st50{fill:#F33A45;}
	.st51{fill:#4D4D4D;}
	.st52{opacity:0.5;}
	.st53{fill:none;stroke:#FFFFFF;stroke-width:3;stroke-miterlimit:10;}
	.st54{fill:none;stroke:#808080;stroke-width:1.5;stroke-miterlimit:10;}
	.st55{opacity:0.5;fill:none;stroke:#C3C3C3;stroke-miterlimit:10;}
	.st56{fill:none;stroke:#265D9B;stroke-width:0.25;stroke-miterlimit:10;}
	.st57{fill:#6D6D6D;}
	.st58{fill:#8CBF37;}
	.st59{fill:#0C6F9E;}
	.st60{fill:#DFB70E;}
	.st61{fill:#FAA93F;}
	.st62{fill:#6B7137;}
	.st63{fill:#AA6A43;}
	.st64{fill:#147DA1;}
	.st65{fill:#428B44;}
	.st66{fill:#E81D24;}
	.st67{fill:#8BC548;}
	.st68{fill:#0CB8B8;}
	.st69{fill:#002B51;}
	.st70{fill:#A5A7AA;}
	.st71{fill:#6F7173;}
	.st72{fill:#707274;}
	.st73{fill:#A6A8AB;}
	.st74{fill:#A6A7AA;}
	.st75{fill:#A6A8AA;}
	.st76{fill:#6E7072;}
	.st77{clip-path:url(#SVGID_12_);fill:#FFFFFF;}
	.st78{clip-path:url(#SVGID_12_);}
	.st79{fill:#054B8D;}
	.st80{fill:#B12E33;}
	.st81{fill:#B43439;}
	.st82{fill:#B32E33;}
	.st83{fill:#B02D32;}
	.st84{fill:#25AAC9;}
	.st85{clip-path:url(#SVGID_14_);fill:#FFFFFF;}
	.st86{clip-path:url(#SVGID_14_);fill:#B43439;}
	.st87{clip-path:url(#SVGID_16_);fill:#FFFFFF;}
	.st88{fill:none;stroke:#F3F3F3;stroke-miterlimit:10;}
	.st89{clip-path:url(#SVGID_18_);fill:#FFFFFF;}
	.st90{clip-path:url(#SVGID_18_);}
	.st91{clip-path:url(#SVGID_20_);fill:#FFFFFF;}
	.st92{clip-path:url(#SVGID_20_);fill:#B43439;}
	.st93{fill:none;stroke:#FFFFFF;stroke-miterlimit:10;}
	.st94{fill:none;stroke:#CE7535;stroke-miterlimit:10;}
	.st95{fill:none;stroke:#000000;stroke-miterlimit:10;}
	.st96{fill:#015594;}
	.st97{fill:#085A98;}
	.st98{fill:#2497D4;}
	.st99{fill:#10619E;}
	.st100{fill:#4C91C5;}
	.st101{fill:#2673AD;}
	.st102{fill:#1A68A4;}
	.st103{fill:#327CB3;}
	.st104{fill:#3A82B9;}
	.st105{fill:#64A4D4;}
	.st106{fill:#00427A;}
	.st107{fill:#F8FBFC;}
	.st108{fill:#7EC1E5;}
	.st109{fill:#C1E1F2;}
	.st110{fill:#FCFDFD;}
	.st111{fill:#E5BC2D;}
	.st112{fill:#DEB12D;}
	.st113{fill:#3A4981;}
	.st114{fill:#D19C2C;}
	.st115{fill:#6D6750;}
	.st116{fill:#3B5188;}
	.st117{fill:#4C7FB7;}
	.st118{fill:#3B5892;}
	.st119{fill:#426499;}
	.st120{fill:#4874A9;}
	.st121{fill:#4A3C1D;}
	.st122{fill:#5F7682;}
	.st123{fill:#DDA62B;}
	.st124{fill:#383D75;}
	.st125{fill:#DDAB2C;}
</style>
<path class="st61" d="M10.3,4.7c1.4,0.4,2.8,0.7,4,1.6c1,0.8,1.9,0.4,2.9-0.1c1.4-0.8,2.9-1.5,4.6-1.5c1.6,1.9,2.8,4.1,2.8,6.7
	c-0.1,0.1-0.1,0.1-0.2,0.2c-1.8-0.5-3.2,0.9-4.8,1.3c0-0.6,0.1-1.2-0.1-1.8c-0.5-1.7-1.7-3.3-3.3-3.5c-1.7-0.2-2.6,1.6-3.5,3
	c-0.6,1,0.1,1.9,0.1,2.8c-1.7-0.7-3.2-2.1-5.2-1.8l-0.2-0.2C7.5,8.8,8.6,6.6,10.3,4.7z"/>
<path class="st62" d="M10.3,4.7c-1.6,1.9-2.8,4-2.8,6.7c-2.7-0.2-4.7,1.1-6.6,2.8c-0.9-2.6-0.4-5.2,0.3-7.8C1.3,5.6,1.8,5.2,2.5,5
	C5,4.3,7.6,3.9,10.3,4.7z"/>
<path class="st63" d="M24.6,11.4c0-2.6-1.2-4.7-2.8-6.7C24.4,3.9,27,4.3,29.5,5c0.7,0.2,1.1,0.6,1.3,1.3c0.8,2.6,1.2,5.1,0.3,7.8
	C29.3,12.5,27.2,11.2,24.6,11.4z"/>
<path class="st64" d="M21.9,35c1-2,2.7-3.7,2.7-6.1c0-0.4,0.5-0.5,0.9-0.5c2.2-0.3,4-1.6,5.8-2.7c0.7,2.5,0.3,4.9-0.3,7.4
	c-0.3,1-0.9,1.4-1.8,1.6C26.7,35.3,24.3,35.4,21.9,35z"/>
<path class="st65" d="M0.8,25.6c1.8,1.1,3.4,2.3,5.6,2.6c0.5,0.1,1.2,0.1,1.2,0.8c0,2.4,1.7,4,2.7,5.9c-2.3,0.3-4.5,0.3-6.8-0.2
	c-1.5-0.3-2.2-1.1-2.5-2.6C0.4,30,0.1,27.8,0.8,25.6z"/>
<path class="st66" d="M15.6,32.6c-1.7-1.5-3-3.3-3.6-5.6c3-3.5,4.9-3.6,7.5-0.4c0,0.6,0,1.2,0.1,1.8c-0.4,1.9-2.3,2.7-3.2,4.2
	C16.2,32.6,15.9,32.6,15.6,32.6z"/>
<path class="st67" d="M0.8,14.1c1.9-1.7,4-2.9,6.6-2.8c0,0,0.2,0.2,0.2,0.2c-0.2,1.9,0.9,3.3,1.6,4.9c-2.8-0.7-4.3,1.2-5.9,3.1
	c-0.1,0-0.3,0-0.4,0C1.7,17.9,0.9,16.1,0.8,14.1z"/>
<path class="st67" d="M24.6,11.4c2.7-0.2,4.7,1.1,6.6,2.8c-0.1,2-1,3.7-2.1,5.4c-0.1,0-0.3,0-0.4,0c-1.5-1.9-3-3.7-5.9-3.1
	c0.7-1.6,1.9-3,1.7-4.9C24.5,11.5,24.5,11.4,24.6,11.4z"/>
<path class="st68" d="M18.3,33.7c0.8-0.7,1.2-0.5,1.3,0.5C19.1,34.2,18.6,34.2,18.3,33.7z"/>
<path class="st66" d="M19.6,12.8c-2.4,3-4.4,3.1-6.8,0.5c0-0.9-0.7-1.8-0.1-2.8c0.8-1.4,1.8-3.2,3.5-3c1.7,0.2,2.8,1.8,3.3,3.5
	C19.7,11.6,19.6,12.2,19.6,12.8z"/>
<path class="st65" d="M23,23.3c-3.1-2.2-3.1-4.5-0.3-6.9c2.8-0.7,4.4,1.2,5.9,3.1C27.8,22.3,25.7,23.2,23,23.3z"/>
<path class="st68" d="M29.1,19.5c-0.1,0-0.3,0-0.4,0c-0.8,2.8-2.9,3.7-5.6,3.8c0.4,1.1,0.8,2.2,1.2,3.3c0.4,1.1-0.1,1.5-1.1,1.5
	c-0.2,0.6-0.4,1.4-0.7,1.8c0.3-0.4,0.5-1.2,0.7-1.8c-1.3-0.2-2.4-1-3.6-1.4c0,0.6,0,1.2,0.1,1.8c-0.4,1.9-2.3,2.7-3.2,4.2
	c0.4,0.8,1.1,1,1.8,1.1c0.8-0.7,1.2-0.5,1.3,0.5c0.7,0.5,1.5,0.7,2.3,0.8c1-2,2.7-3.7,2.7-6.1c0-0.4,0.5-0.5,0.9-0.5
	c2.2-0.3,4-1.6,5.8-2.7C31.2,23.3,29.8,21.5,29.1,19.5z M22,30c0.1,0,0.2,0,0.3-0.1C22.2,30,22.1,30.1,22,30z"/>
<path class="st65" d="M9.3,16.4c2.8,2.4,2.8,4.4-0.2,6.9c-0.5-0.3-1-0.2-1.5-0.1c-2.2-0.3-3.5-1.7-4.2-3.7
	C4.9,17.6,6.4,15.7,9.3,16.4z"/>
<path class="st68" d="M8.9,28.1c0.4-0.1,0.8-0.1,1.2-0.2c0.7,0.6,1,1.8,0.2,2C9.2,30.2,9.2,28.8,8.9,28.1z"/>
<path class="st68" d="M12,27.1c-0.8,0-1.3,0.4-1.9,0.8c0.7,0.6,1,1.8,0.2,2c-1.1,0.3-1.1-1-1.4-1.8c-2.6-0.2-0.5-1.9-0.9-2.8l0,0
	c0.6-0.5,0.8-1.3,1.1-2c-0.5-0.3-1-0.2-1.5-0.1c-2.2-0.3-3.5-1.7-4.2-3.7c-0.1,0-0.3,0-0.4,0c-0.4,0.9-0.7,1.8-1.1,2.7
	C1.4,22.8,1,23.5,1,24.4c-0.1,0.4-0.2,0.8-0.2,1.2c1.8,1.1,3.4,2.3,5.6,2.6c0.5,0.1,1.2,0.1,1.2,0.8c0,2.4,1.7,4,2.7,5.9
	c2-0.4,3.9-1,5.4-2.4C13.9,31.1,12.6,29.3,12,27.1z"/>
<path d="M123.2,32.1c-2.8,2-3.5,1.9-5.7-1c-0.7-0.9-1.1-0.8-1.8-0.2c-2.4,1.8-5,2.8-8.1,2.5c-3.7-0.3-6.4-2.7-6.7-6.2
	c-0.3-3.6,1.7-6.3,5.4-7.2c2.6-0.7,5.2-1.1,7.8-1.8c0.8-0.2,2.3,0.2,2.2-1.5c-0.1-1.6-0.5-3-2.3-3.5c-2.8-0.9-5.6,0.1-7.2,2.5
	c-0.4,0.6-0.8,1.3-1.3,1.7c-0.8,0.6-1.7,0.4-2.4-0.1c-0.8-0.5-1.2-1.2-1.1-2.2c0.2-2.2,1.4-3.8,3.3-4.8c4.3-2.2,8.8-2.2,13.2-0.5
	c2.3,0.9,3.2,3,3.6,5.3c0.5,3.1,0.2,6.2,0.2,9.3c0,1.8-0.1,3.6,1,5.1C123.2,30.4,123.2,31.2,123.2,32.1z M116.3,21.4
	c-2.2,0.5-4.4,1-6.6,1.6c-2.2,0.6-3.2,1.9-2.9,3.6c0.3,1.8,2.2,3,4.3,2.7C114.9,28.9,116.6,26.5,116.3,21.4z"/>
<path d="M66.4,55.1c-0.1-1.1-0.3-2.2-0.4-3.5c-1.4,0.5-2.7,1-4,0c-1.2-1-1.4-2.3-1.3-3.7c0.2-2.6,2-3.8,4.5-3
	c0.3,0.1,0.6,0.4,0.7,0.4c3-1.7,2.1,0.9,2.1,2c0,2.6,0.4,5.3-0.3,7.9C67.3,55.1,66.8,55.1,66.4,55.1z M66.1,48.4
	c0-1.2-0.3-2.3-1.7-2.4c-1.4-0.1-1.8,1-1.8,2.2c0,1.2,0.3,2.3,1.7,2.4C65.6,50.7,66,49.6,66.1,48.4z"/>
<path d="M82.5,55.1c-0.9-3.2-0.2-6.4-0.4-9.6c0-0.5,0.5-1.1,0.7-0.9c1.4,1.1,2.6-0.3,3.9-0.1c1.9,0.3,3.1,2.2,2.7,4.6
	c-0.3,2.1-1.8,3.2-3.8,3C85,52,84.7,51.4,84,51.7c-0.3,1.1,0.2,2.4-0.7,3.4C83,55.1,82.7,55.1,82.5,55.1z M84,48.1
	c0,1.2,0.2,2.4,1.6,2.6c1.3,0.1,1.7-0.9,1.8-2c0.1-1.2-0.1-2.5-1.6-2.6C84.6,45.9,84.2,46.9,84,48.1z"/>
<path d="M84.5,22c-0.1,2.3-0.1,5.1,0.8,7.9c0.5,1.4,0,2.5-1.4,3.2c-1.3,0.7-2.6,0.2-3.2-0.9c-1.2-2.2-2.4-1.8-4.1-0.5
	c-2.1,1.5-4.6,2-7.2,1.7c-3.5-0.4-6-2.9-6.2-6.2c-0.3-3.4,1.6-6.1,5.1-7.1c2.6-0.7,5.4-1.2,8-1.9c0.9-0.2,2.4,0.2,2.3-1.6
	c-0.1-1.6-0.6-3-2.4-3.5c-2.9-0.8-5.5,0.1-7.2,2.7c-0.2,0.2-0.3,0.5-0.5,0.7c-0.7,1.1-1.6,1.4-2.8,1c-1.2-0.4-1.7-1.3-1.6-2.5
	c0.2-2.3,1.6-3.9,3.6-4.8c4.2-2,8.5-1.9,12.8-0.4c2.2,0.8,3.1,2.7,3.5,4.9C84.6,16.9,84.5,19.2,84.5,22z M78.7,23.1
	c0.5-1.7-0.3-1.9-1.9-1.3c-1.6,0.5-3.2,0.8-4.8,1.2c-2.2,0.6-3.2,2-2.9,3.7c0.3,1.8,2.2,3,4.3,2.7C76.7,28.9,78.4,27,78.7,23.1z"/>
<path d="M43.3,20.8c0,2,0.2,3.5,1,5c1.8,3.6,6.5,4.1,9,1c0.5-0.7,0.9-1.4,1.4-2.2c0.8-1.2,1.8-1.7,3.2-1.1c1.3,0.6,1.8,1.7,1.5,3.1
	c-0.5,2.6-2.2,4.4-4.5,5.5c-4.4,2-8.9,2.2-13-0.7c-4.1-2.9-4.9-7.3-4.4-12C38.6,10.4,46.9,6,54.6,10c2,1,3.6,2.5,4.3,4.6
	c0.5,1.4,0.2,2.8-1.3,3.5c-1.4,0.7-2.5,0.1-3.3-1.1c-0.2-0.3-0.4-0.6-0.6-0.9c-1.4-2-3.2-3.1-5.7-2.6c-2.4,0.5-3.6,2.2-4.2,4.5
	C43.4,19,43.4,20.1,43.3,20.8z"/>
<path d="M96.3,24.7c-0.2,3.6,0.3,7.9-0.3,12.2c-0.6,4.8-6.7,7.4-10.7,4.6c-1.1-0.8-1.4-1.8-1-3c0.4-1.2,1.4-1.6,2.6-1.5
	c3.1,0.1,3.4-0.2,3.4-3.4c0-6.7,0-13.4,0-20.2c0-0.8,0-1.6,0.2-2.4c0.3-1.5,1.2-2.3,2.7-2.3c1.6,0,2.7,0.9,2.9,2.4
	c0.2,1.6,0.2,3.2,0.2,4.8C96.3,18.6,96.3,21.2,96.3,24.7z"/>
<path d="M41.9,44.4c2.4,0,3.2,0.8,3.2,3.3c0,0.7,0,1.4,0,2.2c0.1,1.3,0.9,3.2-1.7,1.6c-0.5-0.3-0.9,0.3-1.3,0.5
	c-1.8,0.6-3.5,0-3.8-1.3c-0.4-2,1-2.5,2.5-2.8c0.3-0.1,0.6-0.1,0.8-0.2c0.5-0.2,1.2-0.1,1.4-0.7c0.1-0.2-0.1-0.6-0.3-0.7
	c-0.6-0.5-1.2-0.3-1.8-0.1c-0.3,0.1-0.6,0.4-0.8,0.7c-0.4,0.4-0.8,0.7-1.3,0.3c-0.5-0.5-0.3-1.1,0.1-1.5
	C39.7,44.6,40.8,44.5,41.9,44.4z M42.4,48.6c-0.7,0.4-1.9,0-2.2,1.2c-0.1,0.7,0.4,1,1.1,1c1,0,1.6-0.5,1.8-1.5
	C43.3,48.8,43.1,48.5,42.4,48.6z"/>
<path d="M97.4,48.4c0,0.5-0.1,1,0,1.5c0.3,1.5,1,3.2-1.7,1.5c-0.5-0.3-1,0.4-1.5,0.5c-1.5,0.3-3,0.5-3.6-1.4
	c-0.6-1.9,0.9-2.5,2.4-2.8c0.3-0.1,0.6-0.1,0.8-0.1c0.5-0.2,1.1-0.3,1.5-0.7c0.2-0.2-0.1-0.7-0.4-0.9c-0.6-0.3-1.3-0.3-1.9,0
	c-0.2,0.1-0.5,0.3-0.6,0.6c-0.4,0.5-0.8,0.9-1.4,0.3c-0.7-0.7-0.1-1.3,0.3-1.7c1.3-1.2,2.9-1.1,4.5-0.6c1.4,0.4,1.4,1.6,1.5,2.8
	C97.4,47.8,97.4,48.1,97.4,48.4C97.4,48.4,97.4,48.4,97.4,48.4z M94.5,48.7c-0.5,0.4-1.8-0.1-2,1.2c-0.1,0.7,0.5,1,1.2,0.9
	c1,0,1.6-0.5,1.8-1.5C95.5,48.7,95.3,48.5,94.5,48.7z"/>
<path d="M52.4,48.4c0-1.8,0.6-3.3,2.5-3.8c1.8-0.4,3.3-0.1,4.3,1.6c0.8,1.6,0.3,2.5-1.4,2.6c-0.6,0-1.2-0.1-1.7,0
	c-0.5,0.1-1.5-0.4-1.5,0.6c0,0.9,0.8,1.3,1.7,1.3c0.6,0,1.1-0.3,1.5-0.7c0.4-0.3,0.9-1,1.4-0.3c0.5,0.7-0.1,1.2-0.6,1.6
	c-1.3,1-2.9,1-4.3,0.3C52.9,51.2,52.4,49.9,52.4,48.4z M56,47.7c0.5-0.2,1.5,0.4,1.5-0.5c0.1-0.7-0.6-1.3-1.4-1.3
	c-0.8,0-1.5,0.4-1.5,1.2C54.5,48.2,55.5,47.5,56,47.7z"/>
<path d="M76.5,48.5c0,0.6,0,1.2,0,1.7c0,1.2,0.1,2.6-1.8,1.2c-0.6-0.4-0.8,0.3-1.2,0.4c-2,0.7-3.5-0.2-3.6-2.3c-0.1-1.3,0-2.6,0-3.9
	c0-0.6,0.2-1.2,0.9-1.2c0.8,0,0.9,0.5,0.9,1.2c0,1.1,0,2.2,0,3.2c0,0.8,0.3,1.7,1.3,1.6c0.9,0,1.4-0.7,1.5-1.6c0.1-1,0-2,0-3
	c0-0.7,0-1.4,0.9-1.4c1-0.1,1,0.7,1,1.3C76.5,46.8,76.5,47.7,76.5,48.5z"/>
<path d="M90.3,3.1c0-1.7,1.3-3.1,2.9-3.1c1.6,0,2.9,1.1,3,2.8c0.1,1.7-1.1,3.1-2.8,3.2C91.8,6.1,90.4,4.8,90.3,3.1z"/>
<path d="M46.9,48.2c0-0.6,0-1.3,0-1.9c0-1.2,0-2.4,1.8-1.4c0.7,0.4,1.2-0.7,1.9-0.4c0.6,0.2,1.4,0.2,1.5,1c0.1,0.9-0.7,1-1.3,0.8
	c-1.3-0.3-1.6,0.5-1.7,1.6c-0.1,1-0.1,2-0.1,3c0,0.6-0.1,1.2-0.9,1.2c-0.9,0-1.1-0.6-1.1-1.3C46.9,50,46.9,49.1,46.9,48.2z"/>
<path d="M80.2,48.4c0,0.9,0,1.9,0,2.8c0,0.6-0.3,0.9-0.9,1c-0.6,0-1-0.4-1-0.9c0-1.9-0.1-3.9,0-5.8c0-0.5,0.4-0.9,1-0.9
	c0.6,0.1,0.9,0.4,0.9,1C80.3,46.5,80.2,47.4,80.2,48.4z"/>
<path d="M79.2,43.7c-0.5-0.2-1-0.5-0.9-1c0.1-0.5,0.5-0.9,1-0.8c0.5,0.1,0.9,0.4,0.9,1C80.1,43.4,79.7,43.6,79.2,43.7z"/>
</svg>
