<?xml version="1.0" encoding="utf-8"?>
<!-- Generator: Adobe Illustrator 22.1.0, SVG Export Plug-In . SVG Version: 6.00 Build 0)  -->
<svg version="1.1" id="Capa_1" xmlns="http://www.w3.org/2000/svg" xmlns:xlink="http://www.w3.org/1999/xlink" x="0px" y="0px"
	 viewBox="0 0 167.1 18.6" style="enable-background:new 0 0 167.1 18.6;" xml:space="preserve">
<style type="text/css">
	.st0{fill:#0187CD;}
	.st1{opacity:0.55;clip-path:url(#SVGID_2_);}
	.st2{opacity:0.5;fill:none;stroke:#BEBEBE;stroke-miterlimit:10;}
	.st3{fill:#D8D8D8;}
	.st4{fill:#004485;}
	.st5{opacity:0.55;}
	.st6{fill:#FFFFFF;}
	.st7{fill:#004484;}
	.st8{fill:#87888B;}
	.st9{fill:#2F4C87;}
	.st10{fill:#E1E2E3;}
	.st11{fill:#C47930;}
	.st12{fill:#C3C3C3;}
	.st13{fill:#A4D523;}
	.st14{fill:#27608D;}
	.st15{fill:#749323;}
	.st16{fill:#FF0000;}
	.st17{fill:#CE7535;}
	.st18{fill:#265D9B;}
	.st19{opacity:5.000000e-02;}
	.st20{clip-path:url(#SVGID_4_);fill:#FFFFFF;}
	.st21{fill:#304483;}
	.st22{fill:#9D9FA1;}
	.st23{fill:#F1F1F1;}
	.st24{opacity:0.8;}
	.st25{fill:url(#SVGID_5_);}
	.st26{fill:url(#SVGID_6_);}
	.st27{opacity:0.3;fill:#FFFFFF;stroke:#FFFFFF;stroke-miterlimit:10;}
	.st28{fill:none;stroke:#265D9B;stroke-width:1.5;stroke-miterlimit:10;}
	.st29{opacity:0.85;fill:#FFFFFF;}
	.st30{opacity:0.85;fill:#9D9FA1;}
	.st31{opacity:0.75;}
	.st32{opacity:0.75;fill:none;}
	.st33{fill:#2B6BA7;}
	.st34{fill:none;stroke:#265D9B;stroke-width:3;stroke-miterlimit:10;}
	.st35{fill:none;stroke:#CE7535;stroke-width:3;stroke-miterlimit:10;}
	.st36{fill:url(#SVGID_7_);stroke:#265D9B;stroke-miterlimit:10;}
	.st37{fill:url(#SVGID_8_);stroke:#265D9B;stroke-miterlimit:10;}
	.st38{fill:#F3F3F3;}
	.st39{fill:#040707;}
	.st40{fill:#6F7175;}
	.st41{fill:#01CCF7;}
	.st42{fill:#00C0F5;}
	.st43{fill:#707276;}
	.st44{fill:#04E777;}
	.st45{fill:#04D8F7;}
	.st46{fill:#F6C302;}
	.st47{fill:#D83155;}
	.st48{fill:#E9354C;}
	.st49{fill:#F6CE05;}
	.st50{fill:#F33A45;}
	.st51{fill:#4D4D4D;}
	.st52{opacity:0.5;}
	.st53{fill:none;stroke:#FFFFFF;stroke-width:3;stroke-miterlimit:10;}
	.st54{fill:none;stroke:#808080;stroke-width:1.5;stroke-miterlimit:10;}
	.st55{opacity:0.5;fill:none;stroke:#C3C3C3;stroke-miterlimit:10;}
	.st56{fill:none;stroke:#265D9B;stroke-width:0.25;stroke-miterlimit:10;}
	.st57{fill:#6D6D6D;}
	.st58{fill:#8CBF37;}
	.st59{fill:#0C6F9E;}
	.st60{fill:#DFB70E;}
	.st61{fill:#FAA93F;}
	.st62{fill:#6B7137;}
	.st63{fill:#AA6A43;}
	.st64{fill:#147DA1;}
	.st65{fill:#428B44;}
	.st66{fill:#E81D24;}
	.st67{fill:#8BC548;}
	.st68{fill:#0CB8B8;}
	.st69{fill:#002B51;}
	.st70{fill:#A5A7AA;}
	.st71{fill:#6F7173;}
	.st72{fill:#707274;}
	.st73{fill:#A6A8AB;}
	.st74{fill:#A6A7AA;}
	.st75{fill:#A6A8AA;}
	.st76{fill:#6E7072;}
	.st77{clip-path:url(#SVGID_12_);fill:#FFFFFF;}
	.st78{clip-path:url(#SVGID_12_);}
	.st79{fill:#054B8D;}
	.st80{fill:#B12E33;}
	.st81{fill:#B43439;}
	.st82{fill:#B32E33;}
	.st83{fill:#B02D32;}
	.st84{fill:#25AAC9;}
	.st85{clip-path:url(#SVGID_14_);fill:#FFFFFF;}
	.st86{clip-path:url(#SVGID_14_);fill:#B43439;}
	.st87{clip-path:url(#SVGID_16_);fill:#FFFFFF;}
	.st88{fill:none;stroke:#F3F3F3;stroke-miterlimit:10;}
	.st89{clip-path:url(#SVGID_18_);fill:#FFFFFF;}
	.st90{clip-path:url(#SVGID_18_);}
	.st91{clip-path:url(#SVGID_20_);fill:#FFFFFF;}
	.st92{clip-path:url(#SVGID_20_);fill:#B43439;}
	.st93{fill:none;stroke:#FFFFFF;stroke-miterlimit:10;}
	.st94{fill:none;stroke:#CE7535;stroke-miterlimit:10;}
	.st95{fill:none;stroke:#000000;stroke-miterlimit:10;}
	.st96{fill:#015594;}
	.st97{fill:#085A98;}
	.st98{fill:#2497D4;}
	.st99{fill:#10619E;}
	.st100{fill:#4C91C5;}
	.st101{fill:#2673AD;}
	.st102{fill:#1A68A4;}
	.st103{fill:#327CB3;}
	.st104{fill:#3A82B9;}
	.st105{fill:#64A4D4;}
	.st106{fill:#00427A;}
	.st107{fill:#F8FBFC;}
	.st108{fill:#7EC1E5;}
	.st109{fill:#C1E1F2;}
	.st110{fill:#FCFDFD;}
	.st111{fill:#E5BC2D;}
	.st112{fill:#DEB12D;}
	.st113{fill:#3A4981;}
	.st114{fill:#D19C2C;}
	.st115{fill:#6D6750;}
	.st116{fill:#3B5188;}
	.st117{fill:#4C7FB7;}
	.st118{fill:#3B5892;}
	.st119{fill:#426499;}
	.st120{fill:#4874A9;}
	.st121{fill:#4A3C1D;}
	.st122{fill:#5F7682;}
	.st123{fill:#DDA62B;}
	.st124{fill:#383D75;}
	.st125{fill:#DDAB2C;}
</style>
<path class="st58" d="M158.4,14c1.6,0,3.4,1.1,4.9-0.7c0.1-0.1,0.5,0.2,0.8,0.3c0.6,0.1,1-0.1,0.7-0.8c-0.3-0.8-0.8-1.5-1.2-2.2
	c-0.4-0.7-2.2-0.8-1.1-2.3c0.2-0.2-0.4-1-0.9-1.3c-0.3-0.2-0.7-0.4-0.9-0.8c-0.7-1.6-2-2.1-3.6-1.7c-0.6,0.1-1.1,0.1-1.5-0.2
	c-1.3-1-2.9-0.6-4.3-0.5c-1,0.1-1.5,1.3-2,2.1c-0.6,0.8,0.8,1.2,1.1,1.8c-0.1,0-0.4,0.2-0.5,0.1c-2-1.3-2.5,0.3-3.2,1.7
	c-0.7,1.4-1.6,2.7-0.8,4.3c0.1,0.1-0.1,0.5-0.1,0.5c0.9,0.3,1.9,0,2.8,0.8c0.1,0.1,1.2-0.3,1.2-1.3c0-1.3,1.4-0.8,2.1-1.2
	c0.2,0.8,1.7,0,1.6,1.6c-0.2,3,0,3-3,3.5c-2.1,0.3-4.2,0.2-6.2,0.3c-1,0-1.2-0.4-1.2-1.3c0-5.1,0-10.2,0-15.3c0-0.8,0.6-0.5,1-0.5
	c2.7,0,5.4,0,8.1,0c4.5,0,9.1,0,13.6,0c1,0,1.2,0.3,1.2,1.2c0,4.8,0,9.7,0,14.5c0,0.8,0,1.4-1.1,1.4c-2.6-0.1-5.3,0.2-7.9-0.4
	c-2.3-0.5-3.6-2.7-2.7-4.7c0-0.1,0.2-0.3,0.2-0.2c1,0.5,1.7,0,2.6-0.3C159,12.1,157.8,13.3,158.4,14z M151.2,12.9
	c0.2,0.5,0.5,0.7,1,0.6c0.1,0,0.2-0.3,0.2-0.4C152.2,12.7,151.8,12.7,151.2,12.9z M153.4,13.5c0-0.1-0.1-0.2-0.1-0.2
	c0,0-0.1,0.1-0.1,0.1c0,0.1,0.1,0.2,0.1,0.2C153.3,13.6,153.4,13.5,153.4,13.5z M163.6,13.6c0,0,0.1-0.1,0.1-0.1
	c-0.1,0-0.2-0.1-0.2-0.1c0,0-0.1,0.1-0.1,0.1C163.5,13.5,163.6,13.5,163.6,13.6z"/>
<path class="st59" d="M134,8.3c3.2,1.7,4.3,3.6,3.3,6.3c-0.8,2-2.4,2.8-4.4,3.1c-1.8,0.3-3.5,0.1-5.3,0.1c-1.1,0-1.3-0.4-1.3-1.4
	c0-4,0-8.1,0-12.1c0-1.1,0-2.1-1.4-2.3c-0.3,0-0.6-0.2-0.6-0.6C124.3,1,124.7,1,125,1c2.8-0.2,5.6-0.5,8.4,0.3
	c1.3,0.4,2.5,1.1,2.8,2.6c0.3,1.6-0.1,2.9-1.4,3.9C134.5,7.9,134.3,8.1,134,8.3z M128.8,12.4c0,0.2,0,0.5,0,0.7
	c0.1,1.2-0.4,2.5,1,3.3c2,1.2,4.9-0.3,5.2-2.5c0.4-2.5-1.4-4.5-4.4-4.7C128.8,9.1,128.8,9.1,128.8,12.4z M128.8,4.9
	c0,0.6,0.1,1.2,0,1.8c-0.1,1.1,0.3,1.6,1.4,1.4c0.7-0.1,1.3-0.1,2-0.4c1.3-0.7,1.9-2.1,1.4-3.7c-0.4-1.4-2.2-2.5-3.8-2.1
	c-1.8,0.3-0.6,1.8-1,2.7C128.8,4.7,128.8,4.8,128.8,4.9z"/>
<path class="st59" d="M110.4,5c0,3.8,0,7.4,0,11.1c0,0.5,0.5,1.6-0.7,1.5c-1,0-0.6-0.9-0.6-1.5c0-3.3,0-6.6,0-9.9
	c0-2,0.5-4.4-3.1-4.6c2.6-1.2,4.7-0.8,6,0.9c2.7,3.4,5.6,6.7,8.6,9.8c0.2,0.2,0.4,0.6,1.1,0.6c0-3.1,0-6.2,0-9.2c0-0.6,0-1.1,0-1.7
	c0-0.4-0.2-0.9,0.5-1c0.7-0.1,0.7,0.5,0.7,1c0,3.5,0,7,0,10.5c0,1.4,0.1,2.8,0.1,4.2c0,0.5,0.2,1.1-0.4,1.2
	c-0.5,0.1-0.7-0.4-0.9-0.7c-3.4-3.8-6.8-7.7-10.2-11.5C111.3,5.4,111.1,5,110.4,5z"/>
<path class="st59" d="M105.2,13.9c0,3.4,0,3.3-3.5,3.8c-1.9,0.3-3.7,0.2-5.4-0.4c-4.4-1.3-6.4-4.4-6.1-9c0.3-3.6,3.3-6.7,7.3-7.3
	c1.7-0.3,3.4-0.3,5.1,0c2.2,0.3,3,1.5,2.7,3.7c0,0.2-0.1,0.5-0.3,0.6c-0.4,0.2-0.5-0.2-0.7-0.4c-1.9-2.7-3.5-3.5-6.1-3
	c-3,0.6-4.6,2.3-5.2,5.4c-1,5.3,2.8,10,7.8,9.5c1.3-0.1,2.3-0.6,2.1-2.1c-0.2-1.2,0.8-3.1-1.7-3c-0.4,0-0.9-0.1-0.9-0.5
	c0-0.7,0.6-0.5,1-0.5c0.2,0,0.5,0,0.7,0C105.2,10.7,105.2,10.7,105.2,13.9z"/>
<path d="M32.4,4.3c0,3.7,0,7.5,0,11.2c0,0.4,0,0.9,0,1.3c0,0.4,0,0.8-0.5,0.8c-0.5,0-0.5-0.5-0.5-0.8c0-1.8,0-3.6,0-5.3
	c0-3.5,0-6.9,0.4-10.6C35.3,5.4,38.9,10,42.9,15c0-3.3,0-6.1,0-8.9c0-1.3,0-2.7,0-4c0-0.5-0.1-1.1,0.6-1.1c0.7,0,0.6,0.7,0.6,1.1
	c0,3,0,6,0,9c0,2.2,0,4.4,0,6.5c-0.2,0.1-0.3,0.1-0.5,0.2C40,13.3,36.4,8.7,32.8,4.1C32.7,4.2,32.5,4.2,32.4,4.3z"/>
<path d="M67,9.2c0-5,3.6-8.4,8.7-8.4c4.8,0.1,8.5,3.8,8.5,8.5c0,4.8-3.8,8.6-8.7,8.6C70.5,18,66.9,14.3,67,9.2z M82.9,9.5
	c0.1-4.4-3-7.6-7.4-7.6c-4.2,0-7.4,3.1-7.5,7.2c-0.1,4.5,3,7.8,7.4,7.9C79.6,17,82.9,13.7,82.9,9.5z"/>
<path d="M8.2,8.8c2.4,1.6,3.1,3.6,2.4,6.1c-0.5,1.7-2.3,2.8-4.7,2.8c-1.5,0-3.1,0-4.6,0c-1,0-1.3-0.3-1.3-1.3C0,11.7,0,7,0,2.2
	C0,1.4,0.3,1.1,1.2,1c2-0.2,3.9-0.1,5.8,0.3C10.3,1.9,11,6.6,8.2,8.8z M1.1,12.8c0,3.8,0,3.8,3.9,3.8c0.5,0,1.1,0,1.6-0.1
	c2-0.2,2.9-1.3,3-3.3c0.1-2.8-1.2-3.9-4.6-4C1.1,9.1,1.1,9.1,1.1,12.8z M1.1,5.1c0,0.8,0,1.6,0,2.4c0,0.5,0.1,1,0.8,1
	c1.5,0,3,0.2,4.5-0.2c1.8-0.5,2.7-1.9,2.3-3.7C8.3,2.7,7.1,1.9,4.5,1.9C0.3,1.9,1.2,1.5,1.1,5.1z"/>
<path d="M48.6,9.3c0-3.2,1.2-5.7,4.1-7.3c3.1-1.7,6.2-1.6,9.3,0.1c0.4,0.2,0.8,0.6,1.1,1c0.3,0.3,0.9,0.7,0.4,1.2
	c-0.5,0.6-0.9,0-1.2-0.4c-1.8-1.8-4-2.3-6.4-1.8c-3.2,0.6-5.6,3-6.1,6.1c-0.5,3.2,1,6.3,3.9,7.9c2.5,1.4,6.3,0.9,8.6-1.1
	c0.1-0.1,0.3-0.3,0.4-0.4c0.3-0.4,0.7-0.7,1.1-0.3c0.6,0.5,0,0.9-0.3,1.2c-2.3,2.6-7.3,3.3-10.5,1.4C49.9,15.2,48.5,12.7,48.6,9.3z"
	/>
<path d="M20.7,0.8c2.2,5.3,4.3,10.4,6.4,15.5c0.2,0.4,0.5,1-0.2,1.2c-0.6,0.2-0.8-0.4-0.8-0.7c-0.6-3.7-3.2-4-6.2-3.6
	c-0.3,0-0.6,0-0.9,0c-1.9-0.3-3,0.3-3.5,2.3c-0.2,0.7-0.4,2.4-1.3,2C13,17,14.2,15.8,14.5,15c1.6-4.2,3.4-8.4,5.1-12.6
	C19.8,1.9,19.9,1.3,20.7,0.8z M20.5,3.1c-1.2,2.9-2.2,5.5-3.2,8c-0.3,0.8-0.1,1.1,0.7,1.1c1.6,0,3.3,0,4.9,0c0.8,0,1.2-0.2,0.8-1.1
	C22.6,8.6,21.6,6.1,20.5,3.1z"/>
</svg>
