<?xml version="1.0" encoding="utf-8"?>
<!-- Generator: Adobe Illustrator 22.1.0, SVG Export Plug-In . SVG Version: 6.00 Build 0)  -->
<svg version="1.1" id="Capa_1" xmlns="http://www.w3.org/2000/svg" xmlns:xlink="http://www.w3.org/1999/xlink" x="0px" y="0px"
	 viewBox="0 0 120.5 59.5" style="enable-background:new 0 0 120.5 59.5;" xml:space="preserve">
<style type="text/css">
	.st0{opacity:0.55;clip-path:url(#SVGID_2_);}
	.st1{opacity:0.5;fill:none;stroke:#BFBFBF;stroke-miterlimit:10;}
	.st2{fill:#D9D9D9;}
	.st3{fill:#004486;}
	.st4{opacity:0.55;}
	.st5{fill:#FFFFFF;}
	.st6{fill:#004485;}
	.st7{fill:#88898C;}
	.st8{fill:#2F4C88;}
	.st9{fill:#E2E3E4;}
	.st10{fill:#C57930;}
	.st11{fill:#C4C4C4;}
	.st12{fill:#A5D623;}
	.st13{fill:#27608E;}
	.st14{fill:#749423;}
	.st15{fill:#FF0000;}
	.st16{fill:#CF7535;}
	.st17{fill:#265D9C;}
	.st18{opacity:5.000000e-02;}
	.st19{clip-path:url(#SVGID_4_);fill:#FFFFFF;}
	.st20{fill:#304484;}
	.st21{fill:#9EA0A2;}
	.st22{fill:#F2F2F2;}
	.st23{opacity:0.8;}
	.st24{fill:url(#SVGID_5_);}
	.st25{fill:url(#SVGID_6_);}
	.st26{opacity:0.3;fill:#FFFFFF;stroke:#FFFFFF;stroke-miterlimit:10;}
	.st27{fill:none;stroke:#265D9C;stroke-width:1.5;stroke-miterlimit:10;}
	.st28{opacity:0.85;fill:#FFFFFF;}
	.st29{opacity:0.85;fill:#9EA0A2;}
	.st30{opacity:0.75;}
	.st31{opacity:0.75;fill:none;}
	.st32{fill:#2B6BA8;}
	.st33{fill:none;stroke:#265D9C;stroke-width:3;stroke-miterlimit:10;}
	.st34{fill:none;stroke:#CF7535;stroke-width:3;stroke-miterlimit:10;}
	.st35{fill:url(#SVGID_7_);stroke:#265D9C;stroke-miterlimit:10;}
	.st36{fill:url(#SVGID_8_);stroke:#265D9C;stroke-miterlimit:10;}
	.st37{fill:#F4F4F4;}
	.st38{fill:#040707;}
	.st39{fill:#6F7175;}
	.st40{fill:#01CDF8;}
	.st41{fill:#00C1F6;}
	.st42{fill:#707276;}
	.st43{fill:#04E877;}
	.st44{fill:#04D9F8;}
	.st45{fill:#F7C402;}
	.st46{fill:#D93155;}
	.st47{fill:#EA354C;}
	.st48{fill:#F7CF05;}
	.st49{fill:#F43A45;}
	.st50{fill:#4D4D4D;}
	.st51{opacity:0.5;}
	.st52{fill:none;stroke:#FFFFFF;stroke-width:3;stroke-miterlimit:10;}
	.st53{fill:none;stroke:#808080;stroke-width:1.5;stroke-miterlimit:10;}
	.st54{opacity:0.5;fill:none;stroke:#C4C4C4;stroke-miterlimit:10;}
	.st55{fill:none;stroke:#265D9C;stroke-width:0.25;stroke-miterlimit:10;}
	.st56{fill:#6D6D6D;}
	.st57{fill:#A6A8AB;}
	.st58{fill:#6F7173;}
	.st59{fill:#707274;}
	.st60{fill:#A7A9AC;}
	.st61{fill:#A7A8AB;}
	.st62{fill:#A7A9AB;}
	.st63{fill:#6E7072;}
	.st64{clip-path:url(#SVGID_12_);fill:#FFFFFF;}
	.st65{clip-path:url(#SVGID_12_);}
	.st66{fill:#054B8E;}
	.st67{fill:#B22E33;}
	.st68{fill:#B53439;}
	.st69{fill:#B42E33;}
	.st70{fill:#B12D32;}
	.st71{fill:#25ABCA;}
	.st72{clip-path:url(#SVGID_14_);fill:#FFFFFF;}
	.st73{clip-path:url(#SVGID_14_);fill:#B53439;}
	.st74{clip-path:url(#SVGID_16_);fill:#FFFFFF;}
	.st75{fill:none;stroke:#F4F4F4;stroke-miterlimit:10;}
	.st76{clip-path:url(#SVGID_18_);fill:#FFFFFF;}
	.st77{clip-path:url(#SVGID_18_);}
	.st78{clip-path:url(#SVGID_20_);fill:#FFFFFF;}
	.st79{clip-path:url(#SVGID_20_);fill:#B53439;}
	.st80{fill:none;stroke:#FFFFFF;stroke-miterlimit:10;}
	.st81{fill:none;stroke:#CF7535;stroke-miterlimit:10;}
	.st82{fill:none;stroke:#000000;stroke-miterlimit:10;}
</style>
<g>
	<g>
		<path class="st56" d="M96.4,50.3c1.3-0.4,2.2-1.3,2.9-2.4c2.4-4.2-0.2-9.9-5.2-10.8c-3.7-0.7-7.4-0.2-11.1-0.3
			c-0.5,0-0.6,0.3-0.7,0.7c-0.6,1.8-1.2,3.6-1.8,5.4c0.6,0.5,1.6-0.3,2.1,0.7c0,4.6,0,9.3-0.1,13.9c0,0.4,0.1,0.7,0.6,0.6
			c1.9,0.2,3.9,0.1,5.8,0c0.2,0,0.3-0.2,0.2-0.3c0-1.8,0-3.5,0-5.3c0.1,0,0.3,0,0.4-0.1c0.9,1.6,1.8,3.3,2.7,4.9
			c0.3,0.7,0.8,0.9,1.5,0.9c1.9,0,3.8,0,5.8,0c0.9,0,0.9-0.2,0.5-0.9c-1.3-2-2.5-4-3.8-6C95.7,50.7,95.7,50.5,96.4,50.3z M91.5,46.3
			c-0.3,0-0.6,0-1.1,0C90,46.2,89.1,46.7,89,46c-0.2-0.9,0-1.8,0-2.7c0-0.1,0.3-0.2,0.5-0.2c0.8,0,1.5-0.1,2.3,0.1
			c0.9,0.2,1.5,0.6,1.4,1.6C93.1,45.8,92.4,46.2,91.5,46.3z"/>
		<path class="st56" d="M120.4,37.5c0-0.1,0-0.2,0-0.2c-0.1-0.4-0.4-0.3-0.7-0.3c-1.6,0-3.2,0-4.8,0c-0.3,0-0.7-0.2-0.8,0.3
			c0,0.1,0,0.2,0,0.2c0,3.9,0,7.8,0,11.7c0,0.7-0.1,1.3-0.3,1.9c-0.4,0.9-1,1.4-2.1,1.3c-1-0.1-1.6-0.6-1.9-1.5
			c-0.2-0.5-0.2-1-0.2-1.5c0-3.8,0-7.5,0-11.3c0-0.9-0.2-1.1-1.1-1.1c-1.6,0.1-3.2,0-4.8,0c-0.6,0-1,0.2-1.1,0.8
			c-0.5,1.7-1,3.4-1.6,5c-0.3,0.7,0,0.8,0.6,0.8c0.5,0,1.1-0.2,1.6,0.2c0,0.2,0,0.3,0,0.5c-0.1,2.2-0.1,4.5,0,6.7c0,0.2,0,0.5,0,0.7
			c0.2,3.5,2.5,5.9,6.5,6.9c5.3,1.3,10.3-1.9,10.6-7C120.6,46.8,120.4,42.1,120.4,37.5z"/>
		<path class="st56" d="M79.9,51.4c-2.2,0-4.4,0-6.6,0c-0.7,0-0.9-0.2-0.9-0.9c0-0.9,0.1-1.4,1.2-1.3c0.6,0.1,1.3,0,1.9,0
			c1.2,0,2.6,0.5,3.4-0.2c0.7-0.7,0.8-2.1,1.2-3.2c0,0,0-0.1,0-0.1c0.3-0.7,0.1-0.9-0.7-0.9c-2,0-3.9,0-5.9,0c-0.8,0-1.1-0.1-1.1-1
			c0-0.9,0.4-0.9,1.1-0.9c1.6,0,3.1,0,4.7,0c0.6,0,0.9-0.1,1.1-0.8c0.5-1.9,1-3.7,1.6-5.5c0.2-0.6,0-0.9-0.6-0.8c-1.6,0-3.1,0-4.7,0
			c-0.3,0-0.8-0.1-0.9,0.4c-0.2,0.6-0.6,0.5-1.1,0.5c-2,0-4.1,0-6.1,0c-0.5,0-0.9,0-1.1,0.6c-0.5,1.7-1,3.3-1.5,4.9
			c-0.2,0.5-0.1,0.8,0.5,0.7c1.3-0.2,1.3,0.5,1.3,1.5c0,4,0,8,0.1,12c0.1,0.6-0.5,1.2,0.3,1.6c3.8,0,7.5,0,11.3,0.1
			c0.5,0,0.7-0.2,0.8-0.7c0.5-1.7,1-3.5,1.6-5.2C80.8,51.6,80.7,51.4,79.9,51.4z"/>
		<path class="st56" d="M59.6,37.2c-1.7-0.8-3.5-1-5.4-0.9c-2-0.1-4-0.1-6.1,0c-0.1,0-0.2,0-0.2,0c-0.4,0.2-0.5,0.6-0.5,1.1
			c-0.1,0.2-0.1,0.3-0.2,0.5c0.1,0.2,0.1,0.3,0.1,0.4c0-0.1-0.1-0.3-0.1-0.4c-0.2,0.5-0.3,1-0.5,1.4c-0.2,0.7-0.4,1.5-0.7,2.2
			c-0.4,0.9-0.2,1.3,0.8,1.1c1-0.2,1.2,0.3,1.1,1.2c0,3.3,0,6.7,0,10c0,1.3-0.5,3.1,0.2,3.8c0.8,0.8,2.6,0.2,3.9,0.2
			c2.4,0,2.4,0,2.4-2.3c0-2.8,0-2.8,2.8-3.2c3.7-0.5,6.1-2.5,6.6-5.8C64.5,42.7,62.7,38.7,59.6,37.2z M55.3,48c-0.6,0-1-0.1-0.9-0.8
			c0.1-0.6,0-1.3,0-1.9c0-0.6,0-1.2,0-1.8c-0.1-0.8,0.2-1,1-1c1.3,0.1,2.4,1.3,2.4,2.7C57.8,46.7,56.6,48,55.3,48z"/>
		<path class="st56" d="M11.9,37.7c0-0.6-0.2-0.9-0.9-0.9c-2.4,0-4.7,0-7.1,0c-0.6,0-0.8,0.2-1,0.7c-0.6,1.8-1.2,3.6-1.8,5.3
			c-0.2,0.6-0.1,0.8,0.5,0.8c0.9,0,1.8,0,2.6,0c0.8-0.1,1,0.2,1,1c-0.1,2-0.1,3.9,0,5.9c0.1,1.9-1.2,2-2.3,1.5
			c-0.3-0.1-0.6-0.3-1-0.6C1.3,53.4,0.7,55.2,0,57c-0.1,0.3,0,0.5,0.3,0.7c2.5,1.2,5,1.8,7.6,0.5c2.6-1.3,3.9-3.5,3.9-6.3
			C12,47.2,11.9,42.4,11.9,37.7z"/>
		<path class="st56" d="M24.5,42.8c-1.6-0.6-3.2-0.9-4.8-0.7c-3.4,0.3-6,2.7-6.7,6.1c-0.7,3.8,0.6,6.7,3.9,8.3
			c3,1.5,6.2,1.7,9.5,1.3c0.3,0,0.7-0.1,0.8-0.5c0.4-1.5,0.8-3,1.2-4.5c-5.9,0.6-7.2,0.4-8.5-1.3c0.4-0.2,0.8-0.1,1.2-0.1
			c2.4,0,4.8,0,7.2,0c0.3,0,0.9,0.2,0.9-0.5C29,47.3,28.3,44.3,24.5,42.8z M23,48c-0.6,0-1.2,0-1.8,0c-0.5,0-1,0-1.4,0
			c-0.3,0-0.7,0.1-0.9-0.2c-0.2-0.4,0-0.8,0.3-1.1c0.6-0.8,1.4-1,2.3-0.8c0.9,0.1,1.6,0.7,2,1.5C23.7,47.9,23.5,48.1,23,48z"/>
		<path class="st56" d="M39.1,41.9c-0.2,0-0.3,0-0.5,0c-0.7,0.1-0.9-0.2-0.9-0.9c0-0.9,0-1.9,0-2.9c-1.8,0.5-3.4,1-5,1.4
			c-0.3,0.1-0.7,0.1-0.7,0.4c0.3,1.3-0.7,2-1,3c-0.3,1-0.6,2-0.9,3c-0.5,1.6-0.5,1.6,1.2,1.7c0.2,0,0.3,0.1,0.4,0.2c0,0.3,0,0.6,0,1
			c-0.1,2.6-0.1,5.3,0,7.9c0,0.1,0,0.2,0,0.2l0,0c0,0.2,0,0.3,0,0.5c0.4,0.6,1,0.2,1.5,0.3c1.3,0.1,2.6,0.1,3.8,0c0.2,0,0.3,0,0.5,0
			c0.4-0.3,0.2-0.7,0.2-1.1c0-2.6,0-5.3,0-7.9c0-0.3-0.2-1,0.4-1c1.2,0.1,1.1-0.7,1.3-1.4c0.3-1,0.4-2.1,0.8-3
			C40.6,42,40.2,41.8,39.1,41.9z"/>
	</g>
	<ellipse class="st56" cx="58.1" cy="14.1" rx="14.9" ry="14.1"/>
</g>
</svg>
