<?xml version="1.0" encoding="utf-8"?>
<!-- Generator: Adobe Illustrator 22.1.0, SVG Export Plug-In . SVG Version: 6.00 Build 0)  -->
<svg version="1.1" id="Capa_1" xmlns="http://www.w3.org/2000/svg" xmlns:xlink="http://www.w3.org/1999/xlink" x="0px" y="0px"
	 viewBox="0 0 307.1 104" style="enable-background:new 0 0 307.1 104;" xml:space="preserve">
<style type="text/css">
	.st0{opacity:0.55;clip-path:url(#SVGID_2_);}
	.st1{fill:#004483;}
	.st2{opacity:5.000000e-02;}
	.st3{clip-path:url(#SVGID_4_);fill:#FFFFFF;}
	.st4{fill:none;stroke:#265D9A;stroke-width:1.5;stroke-miterlimit:10;}
	.st5{fill:#86878A;}
	.st6{opacity:0.85;fill:#FFFFFF;}
	.st7{opacity:0.85;fill:#9C9EA0;}
	.st8{fill:#FFFFFF;}
	.st9{fill:#C37930;}
	.st10{opacity:0.75;}
	.st11{fill:#2B6BA6;}
	.st12{fill:#265D9A;}
	.st13{fill:none;stroke:#265D9A;stroke-width:0.25;stroke-miterlimit:10;}
	.st14{fill:#2ECF6E;}
	.st15{clip-path:url(#SVGID_6_);fill:#FFFFFF;}
	.st16{clip-path:url(#SVGID_6_);}
	.st17{fill:#054B8C;}
	.st18{fill:#B02E33;}
	.st19{fill:#B33439;}
	.st20{fill:#B22E33;}
	.st21{fill:#AF2D32;}
	.st22{fill:#25A9C8;}
	.st23{clip-path:url(#SVGID_8_);fill:#FFFFFF;}
	.st24{clip-path:url(#SVGID_8_);fill:#B33439;}
	.st25{fill:#C2C2C2;}
	.st26{opacity:0.55;}
	.st27{fill:#F0F0F0;}
	.st28{clip-path:url(#SVGID_10_);fill:#FFFFFF;}
	.st29{opacity:0.5;fill:none;stroke:#BDBDBD;stroke-miterlimit:10;}
	.st30{fill:#D7D7D7;}
	.st31{fill:#2F4C86;}
	.st32{fill:#E0E1E2;}
	.st33{fill:#A3D423;}
	.st34{fill:#27608C;}
	.st35{fill:#749223;}
	.st36{fill:#FF0000;}
	.st37{fill:#CD7535;}
	.st38{opacity:0.8;}
	.st39{opacity:0.3;fill:#FFFFFF;stroke:#FFFFFF;stroke-miterlimit:10;}
	.st40{fill:#9C9EA0;}
	.st41{fill:none;stroke:#CD7535;stroke-width:3;stroke-miterlimit:10;}
	.st42{fill:url(#SVGID_11_);stroke:#265D9A;stroke-miterlimit:10;}
	.st43{fill:url(#SVGID_12_);stroke:#265D9A;stroke-miterlimit:10;}
	.st44{fill:#F2F2F2;}
	.st45{fill:#040707;}
	.st46{fill:#6F7175;}
	.st47{fill:#01CBF6;}
	.st48{fill:#00BFF4;}
	.st49{fill:#707276;}
	.st50{fill:#04E677;}
	.st51{fill:#04D7F6;}
	.st52{fill:#F5C202;}
	.st53{fill:#D73155;}
	.st54{fill:#E8354C;}
	.st55{fill:#F5CD05;}
	.st56{fill:#F23A45;}
	.st57{fill:#4D4D4D;}
	.st58{opacity:0.5;}
	.st59{opacity:0.55;clip-path:url(#SVGID_14_);}
	.st60{fill:none;stroke:#265D9A;stroke-width:3;stroke-miterlimit:10;}
	.st61{fill:none;stroke:#808080;stroke-width:1.5;stroke-miterlimit:10;}
	.st62{fill:#6D6D6D;}
	.st63{clip-path:url(#SVGID_20_);fill:#FFFFFF;}
	.st64{clip-path:url(#SVGID_20_);}
	.st65{clip-path:url(#SVGID_22_);fill:#FFFFFF;}
	.st66{clip-path:url(#SVGID_22_);fill:#B33439;}
	.st67{opacity:7.000000e-02;fill:#25A9C8;}
	.st68{opacity:0.55;clip-path:url(#SVGID_24_);}
	.st69{opacity:0.5;fill:none;stroke:#C2C2C2;stroke-miterlimit:10;}
	.st70{opacity:0.55;clip-path:url(#SVGID_26_);}
	.st71{fill:none;stroke:#A9A9A9;stroke-width:0.5;stroke-miterlimit:10;}
	.st72{clip-path:url(#SVGID_28_);fill:#FFFFFF;}
	.st73{clip-path:url(#SVGID_28_);}
	.st74{clip-path:url(#SVGID_30_);fill:#FFFFFF;}
	.st75{clip-path:url(#SVGID_30_);fill:#B33439;}
	.st76{fill:#0186CC;}
	.st77{fill:#015593;}
	.st78{fill:#085A97;}
	.st79{fill:#2496D3;}
	.st80{fill:#10619D;}
	.st81{fill:#4C90C4;}
	.st82{fill:#2673AC;}
	.st83{fill:#1A68A3;}
	.st84{fill:#327CB2;}
	.st85{fill:#3A81B8;}
	.st86{fill:#64A3D3;}
	.st87{fill:#00427A;}
	.st88{fill:#F7FAFB;}
	.st89{fill:#7EC0E4;}
	.st90{fill:#C0E0F1;}
	.st91{fill:#FBFCFC;}
	.st92{fill:#EEEEEE;}
	.st93{fill:none;stroke:#050505;stroke-width:0.5;stroke-miterlimit:10;}
	.st94{fill:#03397D;}
	.st95{fill:#C5CDD4;}
	.st96{fill:#C6CED4;}
	.st97{fill:#073B7E;}
	.st98{fill:#063B7E;}
	.st99{fill:#083C7F;}
	.st100{fill:#0C3E80;}
	.st101{fill:#0A3D7F;}
	.st102{fill:#D1D7DC;}
	.st103{fill:#EDEFF0;}
	.st104{fill:#DFE3E6;}
	.st105{fill:#0E4080;}
	.st106{fill:#FCFBFC;}
	.st107{fill:#878686;}
	.st108{fill:#6285C1;}
	.st109{fill:#E09F1B;}
	.st110{fill:#D07630;}
	.st111{fill:#5F7FBD;}
	.st112{fill:#039DDF;}
	.st113{fill:#3E579F;}
	.st114{fill:#8BC5DF;}
	.st115{fill:#E7BC3E;}
	.st116{fill:#DFEEF6;}
	.st117{fill:#888787;}
	.st118{fill:#4B4D96;}
	.st119{fill:#969595;}
	.st120{fill:#5FB2D1;}
	.st121{fill:#B1D5E7;}
	.st122{fill:#FFFFFF;stroke:#4D4D4D;stroke-width:0.15;stroke-miterlimit:10;}
	.st123{fill:none;stroke:#999999;stroke-width:0.5;stroke-miterlimit:10;}
	.st124{fill:#CF7535;}
	.st125{fill:#2F4C88;}
	.st126{fill:none;stroke:#CCCCCC;stroke-width:0.5;stroke-miterlimit:10;}
	.st127{fill:none;stroke:#2F4C88;stroke-width:0.5;stroke-miterlimit:10;}
	.st128{fill:#EFEFEF;}
	.st129{fill:none;stroke:#666666;stroke-width:0.5;stroke-miterlimit:10;}
	.st130{fill:#A9A9A9;}
	.st131{fill:#025290;}
	.st132{fill:#055492;}
	.st133{opacity:0.55;clip-path:url(#SVGID_34_);}
	.st134{fill:none;stroke:#FFFFFF;stroke-width:0.5;stroke-miterlimit:10;}
	.st135{fill:none;stroke:#4D4D4D;stroke-miterlimit:10;}
	.st136{fill:none;stroke:#FFFFFF;stroke-width:3;stroke-miterlimit:10;}
	.st137{fill:none;stroke:#000000;stroke-miterlimit:10;}
</style>
<g>
	<path class="st107" d="M190.9,66.9c-3.1,0-6.3,0-9.4,0c-1.1,0-1.4,0.3-1.2,1.4c0.4,2.3,2.1,4.3,4.1,4.7c2.4,0.4,4.7-0.5,5.8-2.6
		c0.6-1.2,1.3-1.4,2.5-1.4c2.5,0.1,5,0.1,7.5,0c1.6-0.1,1.6,0.5,1.2,1.7c-2.2,5.9-6.5,8.9-12.7,9.4c-2.4,0.2-4.8,0.3-7.2-0.1
		c-6.9-1-11.6-5.9-12.6-12.9c-0.4-3.2-0.3-6.4,0.7-9.5c1.9-6,7-10,13.3-10.3c1.9-0.1,3.8-0.1,5.6,0.1c8.2,1.2,12.6,6.3,13.2,14.9
		c0.3,4.5,0.3,4.5-4.2,4.5C195.3,66.9,193.1,66.9,190.9,66.9z M185.3,60.9c1.3,0,2.6-0.1,4,0c1,0.1,1.3-0.3,1.2-1.3
		c-0.3-2.9-2.3-5-4.9-5.1c-2.6-0.1-4.7,1.9-5.3,4.9c-0.2,1.1-0.2,1.6,1.2,1.5C182.7,60.9,184,60.9,185.3,60.9z"/>
	<path class="st107" d="M260.2,76c-4.3,4.2-9.3,4.9-14.7,3.7c-3.8-0.9-6.2-4-6.6-8c-0.4-3.9,1.5-7.1,5.2-8.7
		c3.3-1.5,6.9-1.7,10.3-2.8c1.2-0.4,2.4-0.7,3.6-1.1c0.7-0.3,1.7-0.3,1.6-1.5c-0.1-1.1-0.4-2.1-1.5-2.7c-2.1-1.1-5.8-0.2-7.2,1.7
		c-0.5,0.7-0.9,0.9-1.7,0.9c-2.7,0-5.4-0.1-8.1,0c-1.4,0-1.4-0.7-1.2-1.6c0.9-3.9,3.2-6.7,7.2-7.7c5.4-1.4,10.9-1.3,16.2-0.1
		c4.4,1,7,5.1,7,10.4c0,4.7,0,9.3,0,14c0,2,0.1,3.9,0.9,5.7c0.4,0.9,0.2,1.2-0.8,1.2c-2.6,0-5.3,0-7.9,0c-0.9,0-1.4-0.3-1.7-1.2
		C260.7,77.6,260.5,76.9,260.2,76z M259.4,64.8c-2.5,0.9-5,1.7-7.4,2.6c-1.6,0.6-2.2,2-1.9,3.6c0.3,2.1,2.7,3.1,5.3,2.1
		C258.8,71.9,260.1,69.5,259.4,64.8z"/>
	<path class="st107" d="M287.1,52.8c1.7-1.8,3-3.4,4.9-4.3c7.5-3.8,14.8,0.7,15,9.4c0.2,6.7,0,13.5,0.1,20.2c0,1.1-0.3,1.4-1.4,1.4
		c-2.8-0.1-5.5-0.1-8.3,0c-1.2,0-1.5-0.5-1.5-1.5c0-5.3,0-10.6,0-15.9c0-3.5-1-5-3.3-5.3c-2.3-0.2-3.9,1.4-4.5,4.6
		c-0.2,1-0.2,2-0.2,3c0,4.5,0,9.1,0,13.6c0,1.2-0.3,1.5-1.5,1.5c-2.7-0.1-5.4,0-8.1,0c-0.9,0-1.4-0.1-1.4-1.2c0-9.7,0-19.4,0-29.1
		c0-0.9,0.3-1.2,1.2-1.2c2.6,0,5.2,0,7.7,0c1,0,1.4,0.3,1.3,1.3C287.1,50.3,287.1,51.3,287.1,52.8z"/>
	<path class="st107" d="M229.1,57.5c-0.8,0-1.6,0-2.5,0c-1.5,0-2.9,0.3-3.6-1.9c-0.7-2-4.6-2.5-6.3-1.2c-0.6,0.5-1,1.1-0.9,2
		c0.1,1,0.9,1.6,1.7,1.8c2.3,0.5,4.6,0.8,6.8,1.2c1.4,0.3,2.7,0.5,4,1c3.9,1.3,6.4,4,6.6,8.2c0.3,4.2-1.5,7.4-5.1,9.6
		c-1.6,0.9-3.3,1.5-5.1,1.8c-4.1,0.5-8.3,0.6-12.3-0.5c-4.4-1.2-6.8-4.2-7.6-8.7c-0.2-1.3,0.1-1.8,1.5-1.8c2.6,0.1,5.3,0.1,7.9,0
		c1,0,1.4,0.3,1.7,1.3c1,3.1,4.7,4.4,7.6,2.7c0.9-0.5,1.6-1.3,1.5-2.4c-0.1-1.1-0.8-1.8-1.9-2.1c-3.2-0.7-6.4-1.4-9.5-2.3
		c-5.3-1.4-7.9-4.8-7.7-9.7c0.2-4.5,3.6-7.9,8.7-8.8c3.7-0.6,7.4-0.6,11.1,0c4.2,0.7,7.7,4.2,8.5,8.3c0.2,1,0.1,1.6-1.1,1.5
		C231.8,57.5,230.4,57.5,229.1,57.5z"/>
	<path class="st108" d="M72.7,9.6c0.1-1.7,0.2-3.4,0.3-5.1c0-1.1,0.7-1,1.4-1c3.7,0,7.3,0.4,10.8,1.3C86.8,5.3,87.5,5,88,3.3
		c1.2-3.8,1.3-3.9,5.1-2.5c21.2,7.7,34.5,22.6,40.5,44.3c-2,0.7-4.1,1.2-6.3,1.5c-0.5-2.3-1.4-4.5-2.2-6.8
		c-2.6-6.8-6.4-12.9-11.3-18.3c-1-1.1-1.8-1-2.8-0.1c-1,1-2,2.1-3,3.1c-0.1,0-0.2,0-0.4,0c-0.7-2-2.6-2.9-4-4
		C94.7,13.4,84.4,9.5,72.7,9.6z"/>
	<path class="st109" d="M127.4,46.6c2.1-0.3,4.2-0.8,6.3-1.5c1.6-0.3,3.2-0.6,4.8-1c1.1-0.3,1.7-0.2,2,1.1c1.2,5.4,1.8,10.8,2,16.2
		c0,1-0.2,1.5-1.4,1.4c-1.1-0.1-2.2,0.1-3.2-0.1c-1.8-0.3-2.1,0.6-2.1,2.1c0,4.7-0.9,9.4-1.9,14c-0.3,1.3-0.6,1.8-2.1,1.3
		c-3.7-1.2-7.4-2.3-11.1-3.4c2.7-9.4,2.9-18.9,0.6-28.4C123.2,47.4,125.4,47.5,127.4,46.6z"/>
	<path class="st110" d="M121.2,48.3c2.2,9.5,2.1,19-0.6,28.4c-1.6-0.4-3.3-0.9-4.9-1.3c-1.2-0.3-1.3-0.8-1-1.9
		c0.9-3.2,1.3-6.5,1.6-9.8c0.1-1.2-0.2-1.5-1.4-1.5c-1.6,0-3.3-0.2-4.9-0.3c0.1-3.6-0.3-7.2-1.2-10.8c-1.8-7-4.7-13.3-10-18.3
		c0-0.1-0.1-0.1-0.1-0.2c1.6-1.3,3-3,4.8-4.1c4.4,4.6,7.6,9.9,9.9,15.8c0.7,1.7,0.4,4.4,2.1,4.9c1.6,0.5,3.7-0.7,5.6-1.1L121.2,48.3
		z"/>
	<path class="st111" d="M103.5,28.7c-1.8,1.1-3.1,2.8-4.8,4.1c-0.5-1.2-1.7-1.7-2.6-2.4c-4.1-3.7-8.9-6.3-14.2-7.7
		c0.1-1.4,0.6-2.7,1.1-3.9c0.6-1.4,0.4-2.1-1.3-2.4c-3.2-0.6-6.4-1-9.6-1.1c0.2-1.9,0.3-3.8,0.5-5.7c11.7-0.1,22,3.9,31,11
		c1.4,1.1,3.3,2.1,4,4C106.3,26,104.9,27.4,103.5,28.7z"/>
	<path class="st112" d="M69.9,98.7c-6.9-1-13.2-3.3-18.9-7.4c-1.8-1.3-3.4-2.8-5-4.3c-1-1-1.4-1.7,0.1-2.5c1-0.6,1.8-1.4,2.7-2.1
		c0.3,0.2,0.5,0.3,0.8,0.5c7.8,7.7,17.1,11.5,28.1,10.4c3-0.3,6-0.6,8.6-2.3c2.4-0.4,4.3-1.7,6.2-3c0.9-0.6,1.3-0.5,1.9,0.4
		c0.6,1,1.4,1.9,2.1,2.9c-2.2,2-4.8,3.2-7.4,4.4C82.9,98.4,76.5,99,69.9,98.7z"/>
	<path class="st113" d="M69.9,98.7c6.6,0.3,13-0.3,19.1-3c2.6-1.2,5.2-2.4,7.4-4.4c2.2-1.3,3.9-3,5.5-5c0.7-1,1.4-1.2,2.4-0.2
		c0.6,0.6,1.3,1.2,2,1.6c0.6,0.4,0.6,0.8,0.3,1.4c-5,5.6-11,9.9-18.1,12.4c-5.8,2.1-11.7,2.7-17.8,2.4c-1.1-0.1-1.6-0.3-1.3-1.6
		C69.6,101.2,69.7,99.9,69.9,98.7z"/>
	<path class="st114" d="M86.2,91.1c-2.6,1.7-5.6,2.1-8.6,2.3c-11,1-20.3-2.7-28.1-10.4c-0.2-0.2-0.5-0.4-0.8-0.5
		c1.5-1.2,2.8-2.6,4.6-3.4c5.5,6.2,12.6,9,20.7,9.4c3.7,0.2,7.1-1,10.6-1.9C85.3,88.1,86.2,89.4,86.2,91.1z"/>
	<path class="st115" d="M98.8,33c5.3,5,8.3,11.3,10,18.3c0.9,3.5,1.2,7.1,1.2,10.8c-2,0-4.5,0.7-5.9-0.3c-1.5-1-0.6-3.7-0.9-5.6
		c-0.9-7.3-3.9-13.7-8.8-19.1C95.9,35.7,97.4,34.3,98.8,33z"/>
	<path class="st112" d="M94.2,37c-0.1,0.1-0.2,0.3-0.3,0.4c-1.2,1.1-2.4,2.9-3.8,3.2c-1.4,0.3-2.4-1.8-3.7-2.8
		C80.1,33.7,73.4,32,66,33.7c-1.1,0.2-1.7,0.3-1.8-1.1c-0.1-1.5-0.8-2.9-0.5-4.4c2.7-0.5,5.4-0.9,8.1-1c2.7,0.2,5.4,0.5,8.1,1
		c1.3,0.5,2.7,0.9,4,1.5C87.8,31.4,91.4,33.7,94.2,37z"/>
	<path class="st114" d="M79.9,28.2c-2.7-0.6-5.4-0.9-8.1-1c0-1.5,0-3,0.1-4.5c0.1-1.1-0.4-1.4-1.4-1.4c-2.8,0-5.4,0.6-8.1,1.2
		c-0.7-1.4-0.7-2.9-1.1-4.4c-0.3-1.1,0.4-1.5,1.4-1.8c3.1-0.7,6.3-1,9.5-1.2c3.2,0.1,6.4,0.5,9.6,1.1c1.6,0.3,1.9,1,1.3,2.4
		c-0.5,1.3-1.1,2.5-1.1,3.9C80.9,24.4,80.7,26.4,79.9,28.2z"/>
	<path class="st116" d="M84.7,86.6c-3.5,0.9-7,2.1-10.6,1.9C66,88,58.9,85.2,53.4,79c0.7-1.2,1.9-1.7,2.9-2.6c0.8-0.7,1.3-0.4,2,0.2
		c4.8,4.3,10.3,6.7,16.8,6.6c2.1-0.1,4.2-0.3,6.2-1.1c1.1-0.4,1.8-0.2,2.1,1C83.9,84.2,84.3,85.4,84.7,86.6z"/>
	<path class="st115" d="M106.6,89.2c0.4-0.6,0.3-1-0.3-1.4c-0.7-0.5-1.4-1-2-1.6c-0.9-1-1.6-0.8-2.4,0.2c-0.6-0.7,0-1.2,0.3-1.7
		c3.1-5.7,5.1-11.7,5.5-18.2c0.1-1.7,0.7-2.6,2.5-2.2c0.3,0.1,0.6,0,0.9,0c3.6,0,3.6,0,3.2,3.6c-0.8,7-2.8,13.6-6.2,19.8
		C107.9,88.3,107.9,89.5,106.6,89.2z"/>
	<path class="st117" d="M82.5,71.4c-0.9-0.2-1.7,0.3-2.3-0.7c-0.3-0.6-0.8,0-1.1,0.2c-1.5,0.7-2.9,1-4.6,0.7
		c-1.8-0.4-3.1-1.2-3.4-3.1c-0.3-1.9,0.3-3.5,1.9-4.6c1.6-1.1,3.4-1.1,5.2-1.4c0.3,0,0.6,0,0.9-0.1c1.1-0.2,2.5,0.1,2.9-1.5
		c0.2-0.7-0.2-1.4-0.9-1.7c-1.4-0.5-3-0.6-3.8,0.7c-0.9,1.5-2.2,1.1-3.4,1.2c-1,0.1-1.2-0.4-0.8-1.3c0.4-1,0.9-1.8,1.7-2.4
		c2.3-1.7,7.1-1.9,9.5-0.4c1.3,0.8,1.8,1.9,1.6,3.3c-0.3,3.5-1.7,6.8-1.9,10.3C84.2,71.9,83,71.1,82.5,71.4z M77.3,68.9
		c1.9,0,2.9-1,3.5-2.4c0.2-0.5,0.5-1.2,0.3-1.6c-0.3-0.6-1-0.1-1.5-0.1c-0.9,0.1-1.7,0.2-2.6,0.4c-1.1,0.3-1.9,1-1.7,2.3
		C75.5,68.8,76.5,68.9,77.3,68.9z"/>
	<path class="st117" d="M12.1,56.5c0.7,0.2,1.6-0.4,2,0.8c0.2,0.6,0.7-0.1,1.1-0.2c1.5-0.8,3-1.2,4.7-0.9c2.2,0.5,3.5,2.1,3.1,4.4
		c-0.6,3.2-1.2,6.4-2,9.6c-0.5,2.2-2.4,1-3.6,1.1c-1.2,0-0.5-1.1-0.4-1.7c0.5-2.5,1-4.9,1.5-7.4c0.1-0.8,0.4-1.6-0.5-2.3
		c-0.9-0.6-1.8-0.6-2.7-0.1c-1.4,0.6-2.1,1.8-2.5,3.2c-0.5,2.3-1,4.5-1.5,6.8c-0.3,1.4-3,2.4-4.2,1.5c-0.4-0.3-0.2-0.7-0.1-1
		c0.9-4.2,1.8-8.3,2.6-12.5C10.1,56.1,11.2,56.7,12.1,56.5z"/>
	<path class="st117" d="M35.5,71.4c-1.9,0.4-2.2-0.4-1.8-2c0.6-2.4,1-4.8,1.5-7.2c0.2-0.9,0.3-1.8-0.6-2.4c-0.9-0.6-1.8-0.4-2.7,0.1
		c-1.4,0.7-2,2-2.4,3.5c-0.6,2.3-1,4.5-1.5,6.8c-0.3,1.2-1.8,1.7-3.6,1.2c-1.3-0.4-0.5-1.3-0.4-2c0.8-3.8,1.6-7.6,2.4-11.4
		c0.1-0.6,0.2-1.4,1-1.3c1,0,2.6-0.6,3,0.3c0.5,1.3,0.8,0.6,1.3,0.3c1.5-0.9,3.1-1.3,4.9-1c2.2,0.5,3.2,1.6,3.1,3.8
		c-0.2,3.6-1.4,7-2,10.5C37.5,71.9,36.2,71.2,35.5,71.4z"/>
	<path class="st117" d="M56.8,62.6c0,5.4-3.5,9.2-8.6,9.2c-4.3,0-6.8-2.4-6.8-6.5c0-5.3,3.6-9.1,8.5-9.1
		C54.3,56.1,56.8,58.5,56.8,62.6z M52.7,62.8c0-1.5-0.2-2.8-1.6-3.3c-1.4-0.5-2.9-0.3-3.9,1c-1.2,1.4-1.6,3.1-1.6,4.9
		c0,1.2,0.5,2.4,1.8,2.9c1.3,0.4,2.5,0.1,3.5-0.9C52.1,66.2,52.5,64.5,52.7,62.8z"/>
	<path class="st117" d="M63.3,66.8c1.7-3.3,3.1-6.2,4.5-9c0.5-1,3.5-1.8,4.5-1.2c0.5,0.3,0.2,0.7,0,1c-2.4,4.4-4.7,8.8-7.2,13
		c-1,1.6-2.9,0.7-4.4,0.7c-1.2,0-0.8-1.2-0.9-1.9c-0.5-3.7-1-7.3-1.5-11c-0.1-0.8-0.4-2,1.1-1.7c1.1,0.2,2.9-1.2,3.1,1.4
		C62.7,60.7,63,63.5,63.3,66.8z"/>
	<path class="st118" d="M79.9,28.2c0.8-1.8,1-3.8,2.1-5.5c5.4,1.4,10.1,4,14.2,7.7c0.9,0.8,2.1,1.2,2.6,2.4c0,0.1,0,0.1,0.1,0.2
		c-1.5,1.4-2.9,2.7-4.4,4.1c-0.1,0-0.2,0-0.3,0c-2.8-3.4-6.4-5.6-10.2-7.4C82.6,29.1,81.2,28.7,79.9,28.2z"/>
	<path class="st107" d="M154.2,56c0-8,0-16,0-24c0-0.4,0-0.9,0-1.3c0-0.5,0.2-0.8,0.8-0.8c0.6,0,0.8,0.2,0.8,0.8c0,0.4,0,0.8,0,1.1
		c0,16.1,0,32.2,0,48.3c0,0.4,0,0.8,0,1.1c0,0.5-0.2,0.8-0.8,0.8c-0.5,0-0.8-0.2-0.8-0.8c0-0.4,0-0.9,0-1.3
		C154.2,72,154.2,64,154.2,56z"/>
	<path class="st117" d="M5.2,56.6c1.9-0.4,2.1,0.4,1.7,2c-0.9,3.8-1.7,7.6-2.5,11.4c-0.3,1.3-1.7,1.9-3.6,1.4
		c-1.4-0.4-0.5-1.4-0.4-2.2c0.7-3.6,1.6-7.1,2.2-10.7C2.9,56.8,3.6,56.2,5.2,56.6z"/>
	<path class="st116" d="M62.4,22.5c2.7-0.6,5.3-1.2,8.1-1.2c1,0,1.5,0.3,1.4,1.4c-0.1,1.5-0.1,3-0.1,4.5c-2.7,0.1-5.4,0.5-8.1,1
		C62.5,26.4,62.6,24.4,62.4,22.5z"/>
	<path class="st119" d="M191.3,31.3c1.1,0,1.9,0,2.8,0c-1.2,1.9-0.5,3.9-0.7,5.9c-0.1,0.6,0.3,1.5-0.3,1.7c-0.8,0.4-1.1-0.7-1.5-1.1
		c-1.2-1.4-2.3-2.8-3.8-4.5c0.2,2.2-0.6,4.1,0.9,5.7c-0.8,0.2-1.5,0.2-2.4,0c1.1-1.2,0.8-2.6,0.7-3.9c0-1.3,0.5-2.8-1-3.7
		c3.4,0,3.8,3.6,6.4,5C192.2,34.6,193.3,32.8,191.3,31.3z"/>
	<path class="st119" d="M298.2,39c1.1-1.5,1.2-6.1,0-7.9c2.5,0.2,5.1-0.7,7,1.5c1.1,1.2,1.1,2.8,0.3,4.2C303.8,39.8,301,39,298.2,39
		z M304.5,35c0.1-0.7,0-1.4-0.6-2.1c-0.8-0.9-1.9-1.4-3-1c-1,0.3-0.5,1.4-0.5,2.1c-0.1,0.8-0.1,1.6,0,2.4c0,0.6-0.3,1.4,0.5,1.8
		c0.8,0.4,1.6,0,2.3-0.4C304.2,37.3,304.6,36.3,304.5,35z"/>
	<path class="st119" d="M177,31.3c1-0.1,1.8-0.2,2.8,0.1c-1.2,0.9-0.9,2.1-0.9,3.2c-0.1,3.2-1,4.6-3.2,4.6c-2.2,0-3-1.2-3-4.6
		c0-2.4,0-2.4-0.8-3.4c0.9-0.2,1.9-0.2,2.8,0c-1.1,2-0.8,4-0.4,5.9c0.3,1.3,2.2,1.5,3.1,0.5C178.6,36.7,178.4,32.6,177,31.3z"/>
	<path class="st119" d="M270.4,39.1c1.3-1.4,1.4-6,0.2-7.9c2.6,0.2,5.1-0.7,7,1.5c1.1,1.3,1,2.9,0.2,4.2
		C276,39.8,273.2,38.9,270.4,39.1z M272.5,34.9c0,0.6,0,1.1,0,1.7c0.1,1.8,1,2.3,2.6,1.6c2.1-1,2.5-4.3,0.6-5.8
		c-0.8-0.6-1.8-0.9-2.7-0.5c-0.8,0.3-0.5,1.3-0.6,2C272.5,34.3,272.5,34.6,272.5,34.9z"/>
	<path class="st117" d="M236.8,31.3c1.4-0.1,2.8-0.3,4.1,0.1c1.3,0.4,2.1,1.9,1.2,2.8c-1.7,1.7-0.2,2.6,0.6,3.7
		c0.3,0.3,0.6,0.6,1.2,1.1c-1.2,0.4-1.9,0-2.5-0.8c-0.2-0.2-0.3-0.5-0.5-0.8c-0.5-0.6-0.8-2.1-1.8-1.3c-0.7,0.6-0.6,2,0.8,2.8
		c-1.1,0-2,0-2.9,0C238,37.5,238,32.7,236.8,31.3z M239.7,31.8c-1.2,0.1-0.9,1-0.9,1.7c0.1,0.6-0.6,1.7,0.7,1.7c1,0,1.6-0.6,1.6-1.7
		C241.1,32.5,240.6,32,239.7,31.8z"/>
	<path class="st119" d="M229.7,33.3c-0.9-1.3-1.8-2-2.8-1.2c-0.6,0.5-0.5,1.6-0.1,2.1c0.7,1,1.6,0.3,2.5-0.5c0,1,0,1.6,0,2.4
		c-0.9-0.4-1.8-1.3-2.5-0.2c-0.4,0.6-0.7,1.8,0.1,2.3c1.2,0.8,2.4,0.4,3.3-1.2c0.2,1.4,0.1,2.2-1.3,2.1c-1.4-0.1-2.9,0-4.4,0
		c1.1-1.4,1.3-6,0.3-7.6C228.1,30.7,229.6,31.1,229.7,33.3z"/>
	<path class="st119" d="M60.1,44.7c1.8,0,2.8,0.5,2.7,2.3c0,0.2,0.1,0.5,0,0.7c-0.5,1,1.4,2.3-0.1,2.8c-0.9,0.3-2.1,0.2-3.2,0.2
		c-1.6,0-2.3-1.3-1.6-2.7c0.2-0.3,0.7-0.6,0.5-0.9C57.1,44.7,59.3,45.2,60.1,44.7z M60.2,49.6c0.5-0.1,1.1-0.3,1-1
		c0-0.7-0.6-0.5-1-0.5c-0.6,0-1.2,0.2-1.1,0.9C59.2,49.6,59.7,49.6,60.2,49.6z M58.7,47.5c1.1-0.4,2-0.1,2.5-0.9
		c0.2-0.3-0.1-0.6-0.5-0.7C59.8,45.7,59.3,46.2,58.7,47.5z"/>
	<path class="st117" d="M52.8,45c3.3-0.5,5.1,1.3,4,4.1c-0.4,1.1-1.2,1.6-2.3,1.6c-3.1,0-3.1,0-3.1-3.1c0-1.2,0-2.4,0-3.6
		c0-0.4-0.2-1.1,0.5-1.2c0.9-0.1,0.6,0.7,0.7,1.2C52.7,44.4,52.7,44.7,52.8,45z M55.6,47.5c-0.1-0.7-0.3-1.6-1.5-1.6
		c-1.1,0-1.5,0.8-1.5,1.8c0,1,0.3,2,1.6,1.9C55.4,49.5,55.6,48.7,55.6,47.5z"/>
	<path class="st117" d="M69.3,46.9c0,0.3,0.1,0.6,0,0.9c-0.2,0.9,0.6,2.5-0.5,2.6c-1.4,0.2-3.1,1.1-4.4-0.5c-0.9-1.1-1-2.4-0.4-3.7
		c0.5-1.1,1.5-1.6,2.6-1.4c1.1,0.3,1.7,0.3,1.5-1.1c-0.1-0.4,0-0.9,0.7-0.9c0.7,0,0.5,0.6,0.6,1C69.3,44.8,69.3,45.8,69.3,46.9z
		 M65,47.7c0,1,0.3,1.8,1.4,1.9c1.2,0.1,1.5-0.9,1.5-1.7c0-1-0.3-2-1.5-2C65.4,45.9,65.1,46.8,65,47.7z"/>
	<path class="st117" d="M80.6,46.1c0.8-1.3,2.1-1.6,3.4-1.2c0.9,0.2,1.4,0.7,1.5,1.7c0.1,1.1-0.3,2.3,0.5,3.4
		c0.3,0.4-0.3,0.9-0.7,0.7c-1-0.5-1.9,0-2.9,0c-1,0-1.9-0.4-2-1.6c-0.1-1,0.6-1.5,1.5-1.8c0.7-0.2,2.2,0.1,1.9-1
		c-0.3-1.1-1.4-0.3-2.1,0.2C81.3,46.8,80.8,46.7,80.6,46.1C80.6,46.1,80.6,46.1,80.6,46.1z M84.1,48.6c0-0.7-0.5-0.6-0.9-0.5
		c-0.6,0-1.3,0.1-1.4,0.9c0,0.5,0.5,0.6,0.9,0.6C83.5,49.6,83.9,49.3,84.1,48.6z"/>
	<path class="st119" d="M50.3,47.8c0,0.1,0,0.1,0,0.2c0,2.7,0,2.7-2.9,2.7c-1.6,0-2.2-0.7-2.2-3c0-0.7,0-1.4,0-2.1
		c0-0.5,0.1-0.9,0.7-0.9c0.6,0,0.7,0.4,0.7,0.9c0,0.8,0,1.6,0,2.4c0,0.7,0.1,1.5,1.1,1.4c0.8-0.1,1.2-0.7,1.2-1.4c0-0.7,0-1.4,0-2.1
		c0-0.5-0.1-1.2,0.7-1.2c0.9,0,0.7,0.8,0.7,1.3C50.3,46.7,50.3,47.3,50.3,47.8z"/>
	<path class="st119" d="M210.1,31.3c1.1-0.1,1.9-0.2,2.7,0c-0.7,2,0.9,3.4,1.2,5.3c1.6-1.8,2.3-4,1.6-5.3c0.7-0.3,1.5-0.2,2.3-0.1
		c-1.9,2.3-2.3,5.3-3.8,8.1C212.3,36.8,212.2,33.7,210.1,31.3z"/>
	<path class="st117" d="M70.3,47.7c0-1.9,1.1-3,2.8-3c1.7,0,2.9,1.2,2.8,3c0,1.8-1.2,3-2.9,3C71.3,50.7,70.3,49.6,70.3,47.7z
		 M74.6,47.5c-0.1-0.8-0.4-1.6-1.5-1.6c-1.1,0-1.5,0.9-1.5,1.8c0,1,0.3,2,1.6,1.9C74.3,49.5,74.6,48.6,74.6,47.5z"/>
	<path class="st119" d="M254.1,33.1c-0.7,0-0.7-0.4-0.9-0.6c-0.6-0.8-1.3-1-2-0.3c-0.7,0.7-0.2,1.4,0.4,1.9c0.5,0.4,1.1,0.6,1.6,1
		c1,0.7,1.5,1.6,1,2.7c-0.6,1.4-1.9,1.7-3.3,1.4c-1.4-0.2-1.2-1.3-1.3-2.3c0.6-0.1,0.6,0.3,0.7,0.6c0.4,0.7,0.9,1.2,1.8,1.1
		c0.6-0.1,0.9-0.4,1-1c0.1-0.9-0.4-1.4-1.1-1.8c-0.6-0.4-1.2-0.7-1.7-1.2c-0.7-0.7-0.9-1.5-0.3-2.4c0.7-1.2,1.8-1.3,2.9-1.2
		C254.2,31.3,253.9,32.2,254.1,33.1z"/>
	<path class="st119" d="M40.3,47.6c0,0.7,0.1,1.5,0.8,1.8c0.7,0.3,1.2,0,1.6-0.6c0.3-0.5,0.9-0.7,1.3-0.4c0.6,0.5,0,1-0.3,1.4
		c-0.9,1.2-2.9,1.2-4,0.2c-1.1-1.1-1.1-3.6,0.1-4.6c1.1-1,3.2-0.9,4.1,0.2c0.2,0.3,0.7,0.8,0.2,1.1c-0.4,0.4-0.9,0.2-1.3-0.3
		c-0.4-0.5-1-0.8-1.6-0.4C40.5,46.4,40.4,47,40.3,47.6z"/>
	<path class="st119" d="M291.7,39.1c-0.8,0-1.3,0-1.9,0c-0.6,0-0.7-0.1-0.5-0.7c0.2-0.7,0-1.6-0.8-1.9c-0.6-0.2-1.6-0.4-2.1,0.3
		c-0.4,0.6-0.9,1.5,0.3,2.1c-0.9,0.3-1.7,0.2-2.5,0.1c2-2.3,2.2-5.4,3.9-8C289.6,33.6,289.8,36.6,291.7,39.1z M287.8,33.4
		c-0.4,0.7-0.8,1.3-0.8,2.2C289.8,35.6,287.7,34.2,287.8,33.4z"/>
	<path class="st117" d="M38,48.2c-0.3,0.7,0.6,2.3-0.6,2.3c-1.3,0-0.4-1.5-0.6-2.3c-0.1-0.3,0-0.6,0-0.9c-0.1-0.7-0.3-1.3-1.1-1.3
		c-0.7,0-1.1,0.5-1.2,1.2c-0.1,0.8,0,1.6-0.1,2.4c0,0.5-0.1,1-0.8,1c-0.7,0-0.6-0.5-0.6-1c0-0.6,0-1.3,0-1.9c0-2.9,0.5-3.4,3.4-2.9
		C38.4,45.1,37.8,46.7,38,48.2z"/>
	<path class="st119" d="M6.4,50.8c0.5,0.4,1.8-0.7,1.9,0.8c0.1,2.1-0.6,2.9-2.6,2.8c-0.7,0-2.1,0.9-2.1-0.9
		C3.6,51.3,4.2,50.8,6.4,50.8z"/>
	<path class="st119" d="M263.8,39c-1.1,0-2,0-2.9,0c1-1.6,1-6.2-0.1-7.6c1-0.4,2-0.1,3-0.2C262.6,32.7,262.6,37.5,263.8,39z"/>
	<path class="st119" d="M203.8,31.4c-1.3,1.3-1.4,6.1-0.1,7.6c-1,0.2-1.9,0.2-2.8,0c1-1.6,1-6,0-7.6
		C201.8,31.1,202.8,31.1,203.8,31.4z"/>
	<path class="st119" d="M80.6,46.1C80.6,46.1,80.6,46.1,80.6,46.1c-1.7-0.1-2.4,0.7-2.3,2.4c0,0.4,0,0.9,0,1.3
		c0,0.5-0.2,0.9-0.8,0.8c-0.5,0-0.7-0.3-0.7-0.7c0-1.4,0-2.9,0-4.3c0-0.7,0.5-0.8,1.1-0.7C78.9,45.1,80.4,44,80.6,46.1z"/>
	<path class="st107" d="M31.6,46.6c0,1,0,2,0,3c0,0.4-0.1,0.8-0.6,0.8c-0.6,0.1-0.8-0.3-0.8-0.8c0-2,0-4,0-6c0-0.4,0.2-0.7,0.7-0.7
		c0.5,0,0.7,0.3,0.7,0.7C31.6,44.6,31.6,45.6,31.6,46.6z"/>
	<path class="st120" d="M121.2,48.3c0,0-0.1-0.1-0.1-0.1c-2-9.2-6.4-17-13-23.7c1-1,2-2.1,3-3.1c0.9-1,1.8-1.1,2.8,0.1
		c4.9,5.4,8.7,11.5,11.3,18.3c0.8,2.2,1.7,4.4,2.2,6.8C125.4,47.5,123.2,47.4,121.2,48.3z"/>
	<path class="st121" d="M108.1,24.6c6.5,6.7,11,14.5,13,23.7c-1.9,0.4-4,1.6-5.6,1.1c-1.7-0.5-1.4-3.2-2.1-4.9
		c-2.3-5.9-5.5-11.2-9.9-15.8c1.4-1.4,2.8-2.7,4.2-4.1C107.9,24.6,108,24.6,108.1,24.6z"/>
</g>
</svg>
