<?xml version="1.0" encoding="utf-8"?>
<!-- Generator: Adobe Illustrator 22.1.0, SVG Export Plug-In . SVG Version: 6.00 Build 0)  -->
<svg version="1.1" id="Capa_1" xmlns="http://www.w3.org/2000/svg" xmlns:xlink="http://www.w3.org/1999/xlink" x="0px" y="0px"
	 viewBox="0 0 167.1 18.6" style="enable-background:new 0 0 167.1 18.6;" xml:space="preserve">
<style type="text/css">
	.st0{opacity:0.55;clip-path:url(#SVGID_2_);}
	.st1{opacity:0.5;fill:none;stroke:#BFBFBF;stroke-miterlimit:10;}
	.st2{fill:#D9D9D9;}
	.st3{fill:#004486;}
	.st4{opacity:0.55;}
	.st5{fill:#FFFFFF;}
	.st6{fill:#004485;}
	.st7{fill:#88898C;}
	.st8{fill:#2F4C88;}
	.st9{fill:#E2E3E4;}
	.st10{fill:#C57930;}
	.st11{fill:#C4C4C4;}
	.st12{fill:#A5D623;}
	.st13{fill:#27608E;}
	.st14{fill:#749423;}
	.st15{fill:#FF0000;}
	.st16{fill:#CF7535;}
	.st17{fill:#265D9C;}
	.st18{opacity:5.000000e-02;}
	.st19{clip-path:url(#SVGID_4_);fill:#FFFFFF;}
	.st20{fill:#304484;}
	.st21{fill:#9EA0A2;}
	.st22{fill:#F2F2F2;}
	.st23{opacity:0.8;}
	.st24{fill:url(#SVGID_5_);}
	.st25{fill:url(#SVGID_6_);}
	.st26{opacity:0.3;fill:#FFFFFF;stroke:#FFFFFF;stroke-miterlimit:10;}
	.st27{fill:none;stroke:#265D9C;stroke-width:1.5;stroke-miterlimit:10;}
	.st28{opacity:0.85;fill:#FFFFFF;}
	.st29{opacity:0.85;fill:#9EA0A2;}
	.st30{opacity:0.75;}
	.st31{opacity:0.75;fill:none;}
	.st32{fill:#2B6BA8;}
	.st33{fill:none;stroke:#265D9C;stroke-width:3;stroke-miterlimit:10;}
	.st34{fill:none;stroke:#CF7535;stroke-width:3;stroke-miterlimit:10;}
	.st35{fill:url(#SVGID_7_);stroke:#265D9C;stroke-miterlimit:10;}
	.st36{fill:url(#SVGID_8_);stroke:#265D9C;stroke-miterlimit:10;}
	.st37{fill:#F4F4F4;}
	.st38{fill:#040707;}
	.st39{fill:#6F7175;}
	.st40{fill:#01CDF8;}
	.st41{fill:#00C1F6;}
	.st42{fill:#707276;}
	.st43{fill:#04E877;}
	.st44{fill:#04D9F8;}
	.st45{fill:#F7C402;}
	.st46{fill:#D93155;}
	.st47{fill:#EA354C;}
	.st48{fill:#F7CF05;}
	.st49{fill:#F43A45;}
	.st50{fill:#4D4D4D;}
	.st51{opacity:0.5;}
	.st52{fill:none;stroke:#FFFFFF;stroke-width:3;stroke-miterlimit:10;}
	.st53{fill:none;stroke:#808080;stroke-width:1.5;stroke-miterlimit:10;}
	.st54{opacity:0.5;fill:none;stroke:#C4C4C4;stroke-miterlimit:10;}
	.st55{fill:none;stroke:#265D9C;stroke-width:0.25;stroke-miterlimit:10;}
	.st56{fill:#6D6D6D;}
	.st57{fill:#A6A8AB;}
	.st58{fill:#6F7173;}
	.st59{fill:#707274;}
	.st60{fill:#A7A9AC;}
	.st61{fill:#A7A8AB;}
	.st62{fill:#A7A9AB;}
	.st63{fill:#6E7072;}
	.st64{clip-path:url(#SVGID_12_);fill:#FFFFFF;}
	.st65{clip-path:url(#SVGID_12_);}
	.st66{fill:#054B8E;}
	.st67{fill:#B22E33;}
	.st68{fill:#B53439;}
	.st69{fill:#B42E33;}
	.st70{fill:#B12D32;}
	.st71{fill:#25ABCA;}
	.st72{clip-path:url(#SVGID_14_);fill:#FFFFFF;}
	.st73{clip-path:url(#SVGID_14_);fill:#B53439;}
	.st74{clip-path:url(#SVGID_16_);fill:#FFFFFF;}
	.st75{fill:none;stroke:#F4F4F4;stroke-miterlimit:10;}
	.st76{clip-path:url(#SVGID_18_);fill:#FFFFFF;}
	.st77{clip-path:url(#SVGID_18_);}
	.st78{clip-path:url(#SVGID_20_);fill:#FFFFFF;}
	.st79{clip-path:url(#SVGID_20_);fill:#B53439;}
	.st80{fill:none;stroke:#FFFFFF;stroke-miterlimit:10;}
	.st81{fill:none;stroke:#CF7535;stroke-miterlimit:10;}
	.st82{fill:none;stroke:#000000;stroke-miterlimit:10;}
</style>
<g>
	<path class="st56" d="M158.4,14c1.6,0,3.4,1.1,4.9-0.7c0.1-0.1,0.5,0.2,0.8,0.3c0.6,0.1,1-0.1,0.7-0.8c-0.3-0.8-0.8-1.5-1.2-2.2
		c-0.4-0.7-2.2-0.8-1.1-2.3c0.2-0.2-0.4-1-0.9-1.3c-0.3-0.2-0.7-0.4-0.9-0.8c-0.7-1.6-2-2.1-3.6-1.7c-0.6,0.1-1.1,0.1-1.5-0.2
		c-1.3-1-2.9-0.6-4.3-0.5c-1,0.1-1.5,1.3-2,2.1c-0.6,0.8,0.8,1.2,1.1,1.8c-0.1,0-0.4,0.2-0.5,0.1c-2-1.3-2.5,0.3-3.2,1.7
		c-0.7,1.4-1.6,2.7-0.8,4.3c0.1,0.1-0.1,0.5-0.1,0.5c0.9,0.3,1.9,0,2.8,0.8c0.1,0.1,1.2-0.3,1.2-1.3c0-1.3,1.4-0.8,2.1-1.2
		c0.2,0.8,1.7,0,1.6,1.6c-0.2,3,0,3-3,3.5c-2.1,0.3-4.2,0.2-6.2,0.3c-1,0-1.2-0.4-1.2-1.3c0-5.1,0-10.2,0-15.3c0-0.8,0.6-0.5,1-0.5
		c2.7,0,5.4,0,8.1,0c4.5,0,9.1,0,13.6,0c1,0,1.2,0.3,1.2,1.2c0,4.8,0,9.7,0,14.5c0,0.8,0,1.4-1.1,1.4c-2.6-0.1-5.3,0.2-7.9-0.4
		c-2.3-0.5-3.6-2.7-2.7-4.7c0-0.1,0.2-0.3,0.2-0.2c1,0.5,1.7,0,2.6-0.3C159,12.1,157.8,13.3,158.4,14z M151.2,12.9
		c0.2,0.5,0.5,0.7,1,0.6c0.1,0,0.2-0.3,0.2-0.4C152.2,12.7,151.8,12.7,151.2,12.9z M153.4,13.5c0-0.1-0.1-0.2-0.1-0.2
		c0,0-0.1,0.1-0.1,0.1c0,0.1,0.1,0.2,0.1,0.2C153.3,13.6,153.4,13.5,153.4,13.5z M163.6,13.6c0,0,0.1-0.1,0.1-0.1
		c-0.1,0-0.2-0.1-0.2-0.1c0,0-0.1,0.1-0.1,0.1C163.5,13.5,163.6,13.5,163.6,13.6z"/>
	<path class="st56" d="M134,8.3c3.2,1.7,4.3,3.6,3.3,6.3c-0.8,2-2.4,2.8-4.4,3.1c-1.8,0.3-3.5,0.1-5.3,0.1c-1.1,0-1.3-0.4-1.3-1.4
		c0-4,0-8.1,0-12.1c0-1.1,0-2.1-1.4-2.3c-0.3,0-0.6-0.2-0.6-0.6C124.3,1,124.7,1,125,1c2.8-0.2,5.6-0.5,8.4,0.3
		c1.3,0.4,2.5,1.1,2.8,2.6c0.3,1.6-0.1,2.9-1.4,3.9C134.5,7.9,134.3,8.1,134,8.3z M128.8,12.4c0,0.2,0,0.5,0,0.7
		c0.1,1.2-0.4,2.5,1,3.3c2,1.2,4.9-0.3,5.2-2.5c0.4-2.5-1.4-4.5-4.4-4.7C128.8,9.1,128.8,9.1,128.8,12.4z M128.8,4.9
		c0,0.6,0.1,1.2,0,1.8c-0.1,1.1,0.3,1.6,1.4,1.4c0.7-0.1,1.3-0.1,2-0.4c1.3-0.7,1.9-2.1,1.4-3.7c-0.4-1.4-2.2-2.5-3.8-2.1
		c-1.8,0.3-0.6,1.8-1,2.7C128.8,4.7,128.8,4.8,128.8,4.9z"/>
	<path class="st56" d="M110.4,5c0,3.8,0,7.4,0,11.1c0,0.5,0.5,1.6-0.7,1.5c-1,0-0.6-0.9-0.6-1.5c0-3.3,0-6.6,0-9.9
		c0-2,0.5-4.4-3.1-4.6c2.6-1.2,4.7-0.8,6,0.9c2.7,3.4,5.6,6.7,8.6,9.8c0.2,0.2,0.4,0.6,1.1,0.6c0-3.1,0-6.2,0-9.2c0-0.6,0-1.1,0-1.7
		c0-0.4-0.2-0.9,0.5-1c0.7-0.1,0.7,0.5,0.7,1c0,3.5,0,7,0,10.5c0,1.4,0.1,2.8,0.1,4.2c0,0.5,0.2,1.1-0.4,1.2
		c-0.5,0.1-0.7-0.4-0.9-0.7c-3.4-3.8-6.8-7.7-10.2-11.5C111.3,5.4,111.1,5,110.4,5z"/>
	<path class="st56" d="M105.2,13.9c0,3.4,0,3.3-3.5,3.8c-1.9,0.3-3.7,0.2-5.4-0.4c-4.4-1.3-6.4-4.4-6.1-9c0.3-3.6,3.3-6.7,7.3-7.3
		c1.7-0.3,3.4-0.3,5.1,0c2.2,0.3,3,1.5,2.7,3.7c0,0.2-0.1,0.5-0.3,0.6c-0.4,0.2-0.5-0.2-0.7-0.4c-1.9-2.7-3.5-3.5-6.1-3
		c-3,0.6-4.6,2.3-5.2,5.4c-1,5.3,2.8,10,7.8,9.5c1.3-0.1,2.3-0.6,2.1-2.1c-0.2-1.2,0.8-3.1-1.7-3c-0.4,0-0.9-0.1-0.9-0.5
		c0-0.7,0.6-0.5,1-0.5c0.2,0,0.5,0,0.7,0C105.2,10.7,105.2,10.7,105.2,13.9z"/>
	<path class="st56" d="M32.4,4.3c0,3.7,0,7.5,0,11.2c0,0.4,0,0.9,0,1.3c0,0.4,0,0.8-0.5,0.8c-0.5,0-0.5-0.5-0.5-0.8
		c0-1.8,0-3.6,0-5.3c0-3.5,0-6.9,0.4-10.6C35.3,5.4,38.9,10,42.9,15c0-3.3,0-6.1,0-8.9c0-1.3,0-2.7,0-4c0-0.5-0.1-1.1,0.6-1.1
		c0.7,0,0.6,0.7,0.6,1.1c0,3,0,6,0,9c0,2.2,0,4.4,0,6.5c-0.2,0.1-0.3,0.1-0.5,0.2C40,13.3,36.4,8.7,32.8,4.1
		C32.7,4.2,32.5,4.2,32.4,4.3z"/>
	<path class="st56" d="M67,9.2c0-5,3.6-8.4,8.7-8.4c4.8,0.1,8.5,3.8,8.5,8.5c0,4.8-3.8,8.6-8.7,8.6C70.5,18,66.9,14.3,67,9.2z
		 M82.9,9.5c0.1-4.4-3-7.6-7.4-7.6c-4.2,0-7.4,3.1-7.5,7.2c-0.1,4.5,3,7.8,7.4,7.9C79.6,17,82.9,13.7,82.9,9.5z"/>
	<path class="st56" d="M8.2,8.8c2.4,1.6,3.1,3.6,2.4,6.1c-0.5,1.7-2.3,2.8-4.7,2.8c-1.5,0-3.1,0-4.6,0c-1,0-1.3-0.3-1.3-1.3
		C0,11.7,0,7,0,2.2C0,1.4,0.3,1.1,1.2,1c2-0.2,3.9-0.1,5.8,0.3C10.3,1.9,11,6.6,8.2,8.8z M1.1,12.8c0,3.8,0,3.8,3.9,3.8
		c0.5,0,1.1,0,1.6-0.1c2-0.2,2.9-1.3,3-3.3c0.1-2.8-1.2-3.9-4.6-4C1.1,9.1,1.1,9.1,1.1,12.8z M1.1,5.1c0,0.8,0,1.6,0,2.4
		c0,0.5,0.1,1,0.8,1c1.5,0,3,0.2,4.5-0.2c1.8-0.5,2.7-1.9,2.3-3.7C8.3,2.7,7.1,1.9,4.5,1.9C0.3,1.9,1.2,1.5,1.1,5.1z"/>
	<path class="st56" d="M48.6,9.3c0-3.2,1.2-5.7,4.1-7.3c3.1-1.7,6.2-1.6,9.3,0.1c0.4,0.2,0.8,0.6,1.1,1c0.3,0.3,0.9,0.7,0.4,1.2
		c-0.5,0.6-0.9,0-1.2-0.4c-1.8-1.8-4-2.3-6.4-1.8c-3.2,0.6-5.6,3-6.1,6.1c-0.5,3.2,1,6.3,3.9,7.9c2.5,1.4,6.3,0.9,8.6-1.1
		c0.1-0.1,0.3-0.3,0.4-0.4c0.3-0.4,0.7-0.7,1.1-0.3c0.6,0.5,0,0.9-0.3,1.2c-2.3,2.6-7.3,3.3-10.5,1.4C49.9,15.2,48.5,12.7,48.6,9.3z
		"/>
	<path class="st56" d="M20.7,0.8c2.2,5.3,4.3,10.4,6.4,15.5c0.2,0.4,0.5,1-0.2,1.2c-0.6,0.2-0.8-0.4-0.8-0.7c-0.6-3.7-3.2-4-6.2-3.6
		c-0.3,0-0.6,0-0.9,0c-1.9-0.3-3,0.3-3.5,2.3c-0.2,0.7-0.4,2.4-1.3,2C13,17,14.2,15.8,14.5,15c1.6-4.2,3.4-8.4,5.1-12.6
		C19.8,1.9,19.9,1.3,20.7,0.8z M20.5,3.1c-1.2,2.9-2.2,5.5-3.2,8c-0.3,0.8-0.1,1.1,0.7,1.1c1.6,0,3.3,0,4.9,0c0.8,0,1.2-0.2,0.8-1.1
		C22.6,8.6,21.6,6.1,20.5,3.1z"/>
</g>
</svg>
