<?xml version="1.0" encoding="utf-8"?>
<!-- Generator: Adobe Illustrator 22.1.0, SVG Export Plug-In . SVG Version: 6.00 Build 0)  -->
<svg version="1.1" id="Capa_1" xmlns="http://www.w3.org/2000/svg" xmlns:xlink="http://www.w3.org/1999/xlink" x="0px" y="0px"
	 viewBox="0 0 160.5 26" style="enable-background:new 0 0 160.5 26;" xml:space="preserve">
<style type="text/css">
	.st0{opacity:0.55;clip-path:url(#SVGID_2_);}
	.st1{opacity:0.5;fill:none;stroke:#BFBFBF;stroke-miterlimit:10;}
	.st2{fill:#D9D9D9;}
	.st3{fill:#004486;}
	.st4{opacity:0.55;}
	.st5{fill:#FFFFFF;}
	.st6{fill:#004485;}
	.st7{fill:#88898C;}
	.st8{fill:#2F4C88;}
	.st9{fill:#E2E3E4;}
	.st10{fill:#C57930;}
	.st11{fill:#C4C4C4;}
	.st12{fill:#A5D623;}
	.st13{fill:#27608E;}
	.st14{fill:#749423;}
	.st15{fill:#FF0000;}
	.st16{fill:#CF7535;}
	.st17{fill:#265D9C;}
	.st18{opacity:5.000000e-02;}
	.st19{clip-path:url(#SVGID_4_);fill:#FFFFFF;}
	.st20{fill:#304484;}
	.st21{fill:#9EA0A2;}
	.st22{fill:#F2F2F2;}
	.st23{opacity:0.8;}
	.st24{fill:url(#SVGID_5_);}
	.st25{fill:url(#SVGID_6_);}
	.st26{opacity:0.3;fill:#FFFFFF;stroke:#FFFFFF;stroke-miterlimit:10;}
	.st27{fill:none;stroke:#265D9C;stroke-width:1.5;stroke-miterlimit:10;}
	.st28{opacity:0.85;fill:#FFFFFF;}
	.st29{opacity:0.85;fill:#9EA0A2;}
	.st30{opacity:0.75;}
	.st31{opacity:0.75;fill:none;}
	.st32{fill:#2B6BA8;}
	.st33{fill:none;stroke:#265D9C;stroke-width:3;stroke-miterlimit:10;}
	.st34{fill:none;stroke:#CF7535;stroke-width:3;stroke-miterlimit:10;}
	.st35{fill:url(#SVGID_7_);stroke:#265D9C;stroke-miterlimit:10;}
	.st36{fill:url(#SVGID_8_);stroke:#265D9C;stroke-miterlimit:10;}
	.st37{fill:#F4F4F4;}
	.st38{fill:#040707;}
	.st39{fill:#6F7175;}
	.st40{fill:#01CDF8;}
	.st41{fill:#00C1F6;}
	.st42{fill:#707276;}
	.st43{fill:#04E877;}
	.st44{fill:#04D9F8;}
	.st45{fill:#F7C402;}
	.st46{fill:#D93155;}
	.st47{fill:#EA354C;}
	.st48{fill:#F7CF05;}
	.st49{fill:#F43A45;}
	.st50{fill:#4D4D4D;}
	.st51{opacity:0.5;}
	.st52{fill:none;stroke:#FFFFFF;stroke-width:3;stroke-miterlimit:10;}
	.st53{fill:none;stroke:#808080;stroke-width:1.5;stroke-miterlimit:10;}
	.st54{opacity:0.5;fill:none;stroke:#C4C4C4;stroke-miterlimit:10;}
	.st55{fill:none;stroke:#265D9C;stroke-width:0.25;stroke-miterlimit:10;}
	.st56{fill:#6D6D6D;}
	.st57{fill:#A6A8AB;}
	.st58{fill:#6F7173;}
	.st59{fill:#707274;}
	.st60{fill:#A7A9AC;}
	.st61{fill:#A7A8AB;}
	.st62{fill:#A7A9AB;}
	.st63{fill:#6E7072;}
	.st64{clip-path:url(#SVGID_12_);fill:#FFFFFF;}
	.st65{clip-path:url(#SVGID_12_);}
	.st66{fill:#054B8E;}
	.st67{fill:#B22E33;}
	.st68{fill:#B53439;}
	.st69{fill:#B42E33;}
	.st70{fill:#B12D32;}
	.st71{fill:#25ABCA;}
	.st72{clip-path:url(#SVGID_14_);fill:#FFFFFF;}
	.st73{clip-path:url(#SVGID_14_);fill:#B53439;}
	.st74{clip-path:url(#SVGID_16_);fill:#FFFFFF;}
	.st75{fill:none;stroke:#F4F4F4;stroke-miterlimit:10;}
	.st76{clip-path:url(#SVGID_18_);fill:#FFFFFF;}
	.st77{clip-path:url(#SVGID_18_);}
	.st78{clip-path:url(#SVGID_20_);fill:#FFFFFF;}
	.st79{clip-path:url(#SVGID_20_);fill:#B53439;}
	.st80{fill:none;stroke:#FFFFFF;stroke-miterlimit:10;}
	.st81{fill:none;stroke:#CF7535;stroke-miterlimit:10;}
	.st82{fill:none;stroke:#000000;stroke-miterlimit:10;}
</style>
<g>
	<path class="st56" d="M138.6,22.7c0,0.8-0.3,1.5-0.4,2.3c0,0.3-0.2,0.3-0.4,0.3c-3.3,0-6.7,0-10,0c-0.4,0-0.4-0.2-0.5-0.5
		c-0.6-4.1-1.2-8.3-1.8-12.4c-0.2-1.1-0.3-2.1-0.5-3.3c-0.3,0.9-0.3,1.7-0.4,2.5c-0.6,4.3-1.2,8.7-1.8,13c-0.1,0.5-0.2,0.8-0.8,0.8
		c-3.2,0-6.3,0-9.5,0c-0.5,0-0.7-0.1-0.8-0.6c-1.7-8-3.4-16-5.2-23.9c-0.1-0.5,0-0.7,0.5-0.7c2.6,0,5.1,0,7.7,0
		c0.5,0,0.6,0.1,0.7,0.6c0.6,4.6,1.2,9.2,1.8,13.7c0.1,0.4,0.1,0.8,0.2,1.3c0.3-0.9,0.3-1.7,0.5-2.4c0.6-4.2,1.2-8.4,1.9-12.6
		c0.1-0.5,0.2-0.7,0.7-0.7c3,0,6.1,0,9.1,0c0.5,0,0.6,0.1,0.7,0.6c0.7,5,1.5,10.1,2.3,15.1c0.2-1.4,0.4-2.7,0.6-4.1
		c0.5-3.7,1-7.4,1.5-11.1c0.1-0.4,0.2-0.5,0.6-0.5c0.5,0,0.9,0,1.4,0c0,5.7,0,11.3,0,17C136.6,19.3,137.2,21.2,138.6,22.7z"/>
	<path class="st56" d="M160.4,9.2c0,2.4,0,4.8,0,7.2c0,5.2-2.3,8.1-7.4,9.2c-3.6,0.8-7.2,0.7-10.8-0.4c-0.9-0.3-1.7-0.8-2.5-1.3
		c-0.4-0.2-0.4-0.5-0.3-0.9c1.4-6.2,2.7-12.5,4.1-18.7c0.2-1.1,0.5-2.3,0.7-3.4c0.1-0.4,0.3-0.5,0.7-0.5c1.6,0,1.6,0,1.6,1.6
		c0,4.8,0,9.7,0,14.5c0,0.6,0,1.2,0.3,1.8c0.3,0.8,1,1.3,1.7,1.2c0.8,0,1.4-0.5,1.7-1.3c0.2-0.6,0.3-1.2,0.3-1.8
		c0-5.1,0-10.2,0-15.3c0-0.6,0.1-0.7,0.7-0.7c2.9,0,5.8,0,8.6,0c0.5,0,0.6,0.2,0.6,0.7C160.4,3.6,160.4,6.4,160.4,9.2z"/>
	<path class="st56" d="M5.6,7.1c0.3-2,0.6-4,0.9-5.9c0.1-0.6,0.3-0.8,0.9-0.8c1.1,0.1,2.2,0,3.3,0c0.4,0,0.6,0.1,0.6,0.5
		c0.3,2,0.6,4,0.8,5.9c0,0.1,0.1,0.1,0.2,0.3c0.2-1.3,0.3-2.4,0.5-3.5c0.1-1,0.3-1.9,0.4-2.9c0-0.2,0-0.4,0.3-0.4c1.2,0,2.4,0,3.7,0
		c-0.7,3.2-1.4,6.3-2,9.4c-0.1,0.5-0.2,0.9-0.3,1.4c0,0.4-0.3,0.5-0.6,0.5c-1.3,0-2.5,0-3.8,0c-0.4,0-0.5-0.1-0.6-0.5
		c-0.3-2-0.5-3.9-0.8-5.9c0-0.2,0-0.4-0.2-0.6C8.6,6.7,8.3,8.8,8,10.9c-0.1,0.5-0.2,0.7-0.8,0.7c-1.2-0.1-2.4,0-3.6,0
		c-0.4,0-0.6-0.1-0.7-0.5C2.2,7.7,1.5,4.3,0.7,0.9c-0.1-0.5,0-0.6,0.5-0.6c0.9,0,1.9,0,2.8,0c0.5,0,0.6,0.2,0.7,0.6
		c0.2,1.9,0.5,3.7,0.7,5.5C5.4,6.7,5.5,6.9,5.6,7.1C5.6,7.1,5.6,7.1,5.6,7.1z"/>
	<path class="st56" d="M86.7,5.1c0,1.9,0,3.9,0,5.8c0,0.6-0.2,0.7-0.7,0.7c-0.8,0-1.7,0-2.5,0c-0.4,0-0.5-0.1-0.5-0.5
		c0-3.5,0-6.9,0-10.4c0-0.4,0.2-0.5,0.5-0.5c1.5,0,2.9,0,4.4,0c0.4,0,0.6,0.1,0.7,0.5c0.6,1.9,1.3,3.8,2,5.7c0,0.1,0,0.2,0.2,0.3
		c0-1.9,0-3.8,0-5.8c0-0.6,0.1-0.8,0.7-0.8c0.8,0.1,1.6,0,2.3,0c0.4,0,0.6,0.1,0.6,0.5c0,3.4,0,6.8,0,10.2c0,0.4-0.1,0.6-0.5,0.5
		c-1.4,0-2.9,0-4.3,0c-0.4,0-0.6-0.1-0.7-0.5c-0.7-2-1.4-4-2.1-6C86.8,5.1,86.8,5.1,86.7,5.1z"/>
	<path class="st56" d="M90.9,20.4c0-1.9,0-3.9,0-5.8c0-0.6,0.1-0.7,0.7-0.7c0.8,0,1.7,0,2.5,0c0.4,0,0.5,0.1,0.5,0.5
		c0,3.5,0,6.9,0,10.4c0,0.5-0.2,0.5-0.6,0.5c-1.4,0-2.9,0-4.3,0c-0.4,0-0.6-0.1-0.7-0.5c-0.6-1.8-1.2-3.6-1.9-5.4
		c-0.1-0.2-0.1-0.4-0.3-0.5c0,0.3,0,0.6,0,0.9c0,1.7,0,3.3,0,5c0,0.4-0.1,0.6-0.6,0.6c-0.8,0-1.7,0-2.6,0c-0.4,0-0.5-0.1-0.5-0.5
		c0-3.4,0-6.9,0-10.3c0-0.4,0.1-0.5,0.5-0.5c1.5,0,2.9,0,4.4,0c0.4,0,0.5,0.2,0.6,0.5c0.6,1.8,1.3,3.6,1.9,5.4
		c0.1,0.2,0.2,0.4,0.2,0.6C90.8,20.4,90.8,20.4,90.9,20.4z"/>
	<path class="st56" d="M53.2,20.4c0-2,0-4,0-5.9c0-0.4,0.1-0.6,0.6-0.6c0.9,0,1.7,0,2.6,0c0.3,0,0.4,0.1,0.4,0.4c0,3.5,0,7,0,10.4
		c0,0.3-0.1,0.4-0.4,0.4c-1.5,0-3,0-4.5,0c-0.4,0-0.5-0.2-0.6-0.5c-0.6-1.9-1.3-3.8-2-5.7c-0.1-0.2-0.1-0.3-0.3-0.5c0,2,0,3.9,0,5.9
		c0,0.6-0.1,0.8-0.8,0.8c-0.8-0.1-1.6,0-2.4,0c-0.4,0-0.5-0.1-0.5-0.5c0-3.5,0-6.9,0-10.4c0-0.4,0.1-0.5,0.5-0.5c1.5,0,2.9,0,4.4,0
		c0.4,0,0.5,0.2,0.6,0.5c0.7,2,1.4,4,2.1,6C53.1,20.4,53.2,20.4,53.2,20.4z"/>
	<path class="st56" d="M77.5,5.9c1.5,0.2,1.9,1.1,2,2.3c0.1,1,0.2,2,0.5,3c0.1,0.3,0,0.5-0.4,0.5c-1.2,0-2.3,0-3.5,0
		c-0.4,0-0.5-0.3-0.5-0.6c-0.1-0.9-0.3-1.7-0.4-2.6c-0.1-0.7-0.7-1-1.4-0.9c-0.3,0.1-0.2,0.3-0.2,0.5c0,1,0,2,0,3
		c0,0.4-0.1,0.6-0.5,0.6c-1.1,0-2.2,0-3.3,0c-0.4,0-0.5-0.1-0.5-0.5c0-3.4,0-6.9,0-10.3c0-0.4,0.1-0.5,0.5-0.5c2.3,0,4.6,0,6.8,0
		c0.4,0,0.8,0.1,1.2,0.2c1.3,0.3,1.9,1.2,2,2.5C79.8,4.5,79.2,5.3,77.5,5.9z M73.5,4C73.8,4.3,73.1,5,74,5c0.9,0,1.4-0.4,1.4-1.1
		c0-0.7-0.4-1-1.3-1C73.1,2.9,73.8,3.6,73.5,4z"/>
	<path class="st56" d="M41.9,18c0,1,0,1.9,0,2.9c0,2.7-1,3.9-3.7,4.4c-1.4,0.3-2.8,0.2-4.2-0.2c-1.8-0.5-2.7-1.6-2.8-3.4
		c-0.1-2.5,0-4.9-0.1-7.4c0-0.4,0.2-0.4,0.5-0.4c1.1,0,2.3,0,3.4,0c0.5,0,0.6,0.1,0.6,0.6c0,2.1,0,4.2,0,6.3c0,1.2,0.2,1.7,0.9,1.7
		c0.6,0,0.9-0.5,0.9-1.7c0-2.1,0-4.1,0-6.2c0-0.5,0.1-0.6,0.6-0.6c1.1,0,2.2,0,3.3,0c0.4,0,0.6,0.1,0.5,0.5
		C41.8,15.6,41.9,16.8,41.9,18z"/>
	<path class="st56" d="M68.2,19.7c0-0.9,0.1-1.6,0.3-2.4c0.7-2.2,2.2-3.3,4.4-3.7c0.9-0.1,1.7-0.1,2.6,0c3,0.6,4.6,3,4.4,6.4
		c-0.2,2.1-0.9,4-3.1,4.8c-2.2,0.9-4.5,0.9-6.5-0.6C68.6,23.1,68.2,21.4,68.2,19.7z M75.2,19.5c0-0.7,0-1.4-0.2-2.2
		c-0.2-0.5-0.4-0.8-1-0.8c-0.5,0-0.8,0.3-0.9,0.8c-0.4,1.5-0.4,2.9,0,4.4c0.1,0.5,0.4,0.8,1,0.8c0.6,0,0.8-0.4,1-0.8
		C75.2,21,75.2,20.3,75.2,19.5z"/>
	<path class="st56" d="M33.5,8.1c0.4,0,0.7,0,1.1,0c0.5,0,1-0.1,1.1,0.7c0.1,0.4,0.5,0.5,0.9,0.5c0.4,0,0.8-0.1,1-0.5
		c0.3-0.5,0-0.9-0.6-1.1c-1-0.3-2-0.6-3-0.9c-2.1-0.6-3-2-2.4-4.1c0.3-1,1-1.7,1.9-2.1c2-0.8,4.1-0.8,6.1-0.1
		C40.8,1,41.4,1.8,41.6,3c0,0.3,0,0.5-0.4,0.5c-1.1,0-2.1,0-3.2,0c-0.3,0-0.4-0.1-0.5-0.4c-0.2-0.6-1.2-0.8-1.7-0.3
		c-0.4,0.3-0.2,0.9,0.4,1.1c0.7,0.2,1.5,0.4,2.2,0.6c0.6,0.2,1.1,0.4,1.7,0.6c2.7,1.1,2.2,4.5,0.7,5.7c-0.7,0.5-1.4,0.8-2.3,1
		c-1.6,0.3-3.2,0.3-4.7-0.2c-1.5-0.5-2.4-1.6-2.4-2.9c0-0.4,0.1-0.5,0.5-0.5C32.4,8.1,32.9,8.1,33.5,8.1z"/>
	<path class="st56" d="M19.9,5.9c0-1.7,0-3.4,0-5c0-0.4,0.1-0.6,0.5-0.5c2.5,0,5,0,7.5,0c0.4,0,0.6,0.1,0.5,0.5c0,0.6,0,1.2,0,1.9
		c0,0.4-0.1,0.6-0.5,0.5c-1.1,0-2.2,0-3.2,0c-0.5,0-0.5,0.2-0.5,0.6c0,0.4,0,0.7,0.5,0.6c1-0.1,1.9,0,2.9,0c0.5,0,0.6,0.2,0.6,0.6
		c0,0.6,0,1.2,0,1.7c0.1,0.6-0.2,0.6-0.7,0.6c-0.9,0-1.9,0-2.8,0c-0.6,0-0.5,0.3-0.5,0.7c0,0.4-0.1,0.7,0.5,0.6c1.1,0,2.3,0,3.5,0
		c0.4,0,0.5,0.1,0.5,0.5c0,0.7,0,1.4,0,2.1c0,0.4-0.2,0.4-0.5,0.4c-2.6,0-5.2,0-7.7,0c-0.4,0-0.5-0.2-0.5-0.5
		C19.9,9.4,19.9,7.6,19.9,5.9z"/>
	<path class="st56" d="M57.3,5.9c0-1.7,0-3.4,0-5c0-0.4,0.1-0.6,0.6-0.6c2.5,0,5,0,7.5,0c0.5,0,0.6,0.1,0.6,0.6c0,0.6,0,1.2,0,1.9
		c0,0.4-0.1,0.5-0.5,0.5c-1.1,0-2.2,0-3.3,0c-0.5,0-0.5,0.2-0.5,0.6c0,0.3-0.1,0.7,0.5,0.6c1,0,2,0,3,0c0.3,0,0.5,0.1,0.5,0.5
		c0,0.7,0,1.3,0,2c0,0.4-0.2,0.5-0.5,0.5c-1,0-2,0-3,0c-0.6,0-0.4,0.4-0.5,0.7c0,0.3,0,0.6,0.5,0.6c1.1,0,2.3,0,3.5,0
		c0.4,0,0.5,0.1,0.5,0.5c0,0.7,0,1.3,0,2c0,0.4-0.2,0.5-0.6,0.5c-2.6,0-5.1,0-7.7,0c-0.5,0-0.5-0.2-0.5-0.6
		C57.3,9.4,57.3,7.7,57.3,5.9z"/>
	<path class="st56" d="M49.4,0.3c1.5,0,2.9,0,4.4,0c0.5,0,0.6,0.1,0.6,0.6c0,0.7,0,1.3,0,2c0,0.4-0.1,0.5-0.5,0.5
		c-0.6,0-1.2,0-1.8,0c-0.4,0-0.5,0.1-0.5,0.6c0,2.3,0,4.7,0,7c0,0.5-0.1,0.7-0.6,0.7c-1.1,0-2.2,0-3.2,0c-0.5,0-0.6-0.1-0.6-0.6
		c0-2.3,0-4.7,0-7c0-0.5-0.1-0.7-0.6-0.6c-0.1,0-0.1,0-0.2,0c-0.6,0-1.6,0.3-1.8-0.1c-0.4-0.8-0.1-1.8-0.1-2.7
		c0-0.3,0.3-0.2,0.5-0.2C46.4,0.3,47.9,0.3,49.4,0.3z"/>
	<path class="st56" d="M64.9,19.6c0,1.7,0,3.4,0,5c0,0.4-0.1,0.6-0.5,0.5c-1.1,0-2.3,0-3.4,0c-0.4,0-0.6-0.1-0.6-0.5
		c0-3.4,0-6.8,0-10.2c0-0.4,0.1-0.6,0.5-0.5c1.1,0,2.3,0,3.4,0c0.5,0,0.6,0.2,0.5,0.6C64.9,16.1,64.9,17.8,64.9,19.6z"/>
	<path class="st56" d="M104.3,25.3c-0.6,0.2-0.7-0.2-0.8-0.7c-1.7-7.9-3.3-15.8-5-23.7c-0.1-0.2-0.3-0.7,0.1-0.7
		c0.4,0,1.1-0.4,1.3,0.4c1.7,8,3.4,16.1,5.1,24.1C105.2,25.5,104.8,25.4,104.3,25.3z"/>
	<path class="st56" d="M108.5,25.3c-0.6,0.1-0.8-0.1-0.9-0.6c-1.7-8-3.4-15.9-5.1-23.9c-0.1-0.6,0.1-0.7,0.6-0.7
		c0.5,0,0.8,0,0.9,0.6c1.7,7.9,3.3,15.9,5,23.8C109.2,25.3,109.1,25.5,108.5,25.3z"/>
</g>
</svg>
