<?xml version="1.0" encoding="utf-8"?>
<!-- Generator: Adobe Illustrator 22.1.0, SVG Export Plug-In . SVG Version: 6.00 Build 0)  -->
<svg version="1.1" id="Capa_1" xmlns="http://www.w3.org/2000/svg" xmlns:xlink="http://www.w3.org/1999/xlink" x="0px" y="0px"
	 viewBox="0 0 188.8 43.6" style="enable-background:new 0 0 188.8 43.6;" xml:space="preserve">
<style type="text/css">
	.st0{opacity:0.55;clip-path:url(#SVGID_2_);}
	.st1{opacity:0.5;fill:none;stroke:#BFBFBF;stroke-miterlimit:10;}
	.st2{fill:#D9D9D9;}
	.st3{fill:#004486;}
	.st4{opacity:0.55;}
	.st5{fill:#FFFFFF;}
	.st6{fill:#004485;}
	.st7{fill:#88898C;}
	.st8{fill:#2F4C88;}
	.st9{fill:#E2E3E4;}
	.st10{fill:#C57930;}
	.st11{fill:#C4C4C4;}
	.st12{fill:#A5D623;}
	.st13{fill:#27608E;}
	.st14{fill:#749423;}
	.st15{fill:#FF0000;}
	.st16{fill:#CF7535;}
	.st17{fill:#265D9C;}
	.st18{opacity:5.000000e-02;}
	.st19{clip-path:url(#SVGID_4_);fill:#FFFFFF;}
	.st20{fill:#304484;}
	.st21{fill:#9EA0A2;}
	.st22{fill:#F2F2F2;}
	.st23{opacity:0.8;}
	.st24{fill:url(#SVGID_5_);}
	.st25{fill:url(#SVGID_6_);}
	.st26{opacity:0.3;fill:#FFFFFF;stroke:#FFFFFF;stroke-miterlimit:10;}
	.st27{fill:none;stroke:#265D9C;stroke-width:1.5;stroke-miterlimit:10;}
	.st28{opacity:0.85;fill:#FFFFFF;}
	.st29{opacity:0.85;fill:#9EA0A2;}
	.st30{opacity:0.75;}
	.st31{opacity:0.75;fill:none;}
	.st32{fill:#2B6BA8;}
	.st33{fill:none;stroke:#265D9C;stroke-width:3;stroke-miterlimit:10;}
	.st34{fill:none;stroke:#CF7535;stroke-width:3;stroke-miterlimit:10;}
	.st35{fill:url(#SVGID_7_);stroke:#265D9C;stroke-miterlimit:10;}
	.st36{fill:url(#SVGID_8_);stroke:#265D9C;stroke-miterlimit:10;}
	.st37{fill:#F4F4F4;}
	.st38{fill:#040707;}
	.st39{fill:#6F7175;}
	.st40{fill:#01CDF8;}
	.st41{fill:#00C1F6;}
	.st42{fill:#707276;}
	.st43{fill:#04E877;}
	.st44{fill:#04D9F8;}
	.st45{fill:#F7C402;}
	.st46{fill:#D93155;}
	.st47{fill:#EA354C;}
	.st48{fill:#F7CF05;}
	.st49{fill:#F43A45;}
	.st50{fill:#4D4D4D;}
	.st51{opacity:0.5;}
	.st52{fill:none;stroke:#FFFFFF;stroke-width:3;stroke-miterlimit:10;}
	.st53{fill:none;stroke:#808080;stroke-width:1.5;stroke-miterlimit:10;}
	.st54{opacity:0.5;fill:none;stroke:#C4C4C4;stroke-miterlimit:10;}
	.st55{fill:none;stroke:#265D9C;stroke-width:0.25;stroke-miterlimit:10;}
	.st56{fill:#6D6D6D;}
	.st57{fill:#A6A8AB;}
	.st58{fill:#6F7173;}
	.st59{fill:#707274;}
	.st60{fill:#A7A9AC;}
	.st61{fill:#A7A8AB;}
	.st62{fill:#A7A9AB;}
	.st63{fill:#6E7072;}
	.st64{clip-path:url(#SVGID_12_);fill:#FFFFFF;}
	.st65{clip-path:url(#SVGID_12_);}
	.st66{fill:#054B8E;}
	.st67{fill:#B22E33;}
	.st68{fill:#B53439;}
	.st69{fill:#B42E33;}
	.st70{fill:#B12D32;}
	.st71{fill:#25ABCA;}
	.st72{clip-path:url(#SVGID_14_);fill:#FFFFFF;}
	.st73{clip-path:url(#SVGID_14_);fill:#B53439;}
	.st74{clip-path:url(#SVGID_16_);fill:#FFFFFF;}
	.st75{fill:none;stroke:#F4F4F4;stroke-miterlimit:10;}
	.st76{clip-path:url(#SVGID_18_);fill:#FFFFFF;}
	.st77{clip-path:url(#SVGID_18_);}
	.st78{clip-path:url(#SVGID_20_);fill:#FFFFFF;}
	.st79{clip-path:url(#SVGID_20_);fill:#B53439;}
	.st80{fill:none;stroke:#FFFFFF;stroke-miterlimit:10;}
	.st81{fill:none;stroke:#CF7535;stroke-miterlimit:10;}
	.st82{fill:none;stroke:#000000;stroke-miterlimit:10;}
</style>
<g>
	<g>
		<g>
			<path class="st56" d="M60.4,12c-1-0.9-2.4-1.4-3.7-1.4c-3.1,0-5,2.4-5,5.3c0,2.4,1.4,4.8,5,4.8c1.1,0,2.1-0.2,3.3-1.2v-2.6h-3.7
				v-2.4h6.2v6.1c-1.4,1.6-3.2,2.6-5.8,2.6c-5.4,0-7.6-3.6-7.6-7.4c0-4.1,2.5-7.8,7.6-7.8c1.9,0,3.9,0.7,5.4,2.2L60.4,12z"/>
			<path class="st56" d="M56.7,23.4c-5.8,0-7.8-3.9-7.8-7.6c0-4,2.4-8,7.8-8c2.1,0,4,0.8,5.5,2.3l0.1,0.1l-2,2l-0.1-0.1
				c-0.9-0.8-2.3-1.4-3.5-1.4c-2.8,0-4.8,2.1-4.8,5.1c0,2.2,1.3,4.6,4.8,4.6c1.2,0,2.1-0.3,3.1-1v-2.3h-3.7v-2.8h6.6v6.4l-0.1,0.1
				C61.1,22.5,59.1,23.4,56.7,23.4z M56.7,8.2c-5.1,0-7.4,3.8-7.4,7.6c0,3.5,2,7.2,7.4,7.2c2.3,0,4.1-0.8,5.5-2.5v-5.8h-5.8v2h3.7
				v2.9l-0.1,0.1c-1.1,0.8-2.1,1.2-3.4,1.2c-3.8,0-5.2-2.7-5.2-5c0-3.3,2.1-5.5,5.2-5.5c1.3,0,2.7,0.5,3.7,1.4l1.4-1.4
				C60.4,8.9,58.6,8.2,56.7,8.2z"/>
		</g>
		<g>
			<path class="st56" d="M77.3,22.9h-3.2L69.9,18h-2.6v4.8h-2.7V8.4c2.3,0,4.6,0,6.9,0c3.4,0,5.2,2.3,5.2,4.8c0,2-0.9,4-3.7,4.5
				l4.4,4.9V22.9z M67.2,11v4.6h4.1c1.7,0,2.5-1.2,2.5-2.3S73.1,11,71.4,11H67.2z"/>
			<path class="st56" d="M77.5,23.1H74l-4.2-4.8h-2.3v4.8h-3.1V8.2h0.2c1.1,0,2.3,0,3.4,0c1.1,0,2.3,0,3.4,0c3.7,0,5.4,2.6,5.4,5
				c0,2.4-1.3,4.1-3.5,4.7l4.2,4.7V23.1z M74.2,22.7H77l-4.5-5l0.3-0.1c3-0.6,3.5-3,3.5-4.3c0-2.2-1.6-4.6-5-4.6c-1.1,0-2.3,0-3.4,0
				c-1.1,0-2.2,0-3.2,0v14H67v-4.8h2.9L74.2,22.7z M71.4,15.8H67v-5h4.4c1.9,0,2.7,1.3,2.7,2.5S73.2,15.8,71.4,15.8z M67.4,15.4h3.9
				c1.7,0,2.3-1.1,2.3-2.1s-0.6-2.1-2.3-2.1h-3.9V15.4z"/>
		</g>
		<g>
			<path class="st56" d="M91.5,8.5v8.3c0,4.3-2.6,6.5-6.2,6.5c-3.5,0-6.4-2.1-6.4-6.5V8.5h2.7v8.3c0,2.6,1.5,4,3.7,4
				c2.2,0,3.5-1.5,3.5-4V8.5H91.5z"/>
			<path class="st56" d="M85.3,23.4c-4,0-6.6-2.6-6.6-6.7V8.2h3.1v8.5c0,2.4,1.3,3.8,3.5,3.8c2.1,0,3.3-1.4,3.3-3.8V8.2h3.1v8.5
				C91.7,20.8,89.2,23.4,85.3,23.4z M79.1,8.7v8.1c0,4.6,3.3,6.2,6.2,6.2c3.8,0,6-2.3,6-6.2V8.7H89v8.1c0,2.6-1.4,4.2-3.7,4.2
				c-2.5,0-3.9-1.6-3.9-4.2V8.7H79.1z"/>
		</g>
		<g>
			<path class="st56" d="M101,18.6h-4.1v4.2h-2.7V8.4c2.3,0,4.5,0,6.8,0C108,8.4,108.1,18.6,101,18.6z M96.9,16.1h4.1
				c3.5,0,3.5-5.1,0-5.1h-4.1V16.1z"/>
			<path class="st56" d="M97.1,23.1H94V8.2h0.2c1.1,0,2.3,0,3.4,0c1.1,0,2.3,0,3.4,0c3.8,0,5.5,2.8,5.5,5.3c0,1.4-0.5,2.7-1.4,3.6
				c-1,1.1-2.4,1.7-4.1,1.7h-3.9V23.1z M94.4,22.7h2.3v-4.2h4.3c1.6,0,2.9-0.5,3.8-1.5c0.8-0.9,1.3-2.1,1.3-3.4
				c0-2.4-1.6-4.9-5.1-4.9c-1.1,0-2.3,0-3.4,0c-1.1,0-2.1,0-3.2,0V22.7z M101,16.3h-4.3v-5.5h4.3c1.8,0,2.8,1.4,2.8,2.8
				c0,0.7-0.3,1.4-0.7,1.9C102.6,16,101.8,16.3,101,16.3z M97.1,15.9h3.9c0.7,0,1.4-0.3,1.8-0.7c0.4-0.4,0.6-1,0.6-1.6
				c0-1.1-0.8-2.4-2.4-2.4h-3.9V15.9z"/>
		</g>
		<g>
			<path class="st56" d="M122.3,15.7c0,3.7-2.3,7.5-7.4,7.5c-5.1,0-7.4-3.7-7.4-7.4c0-3.8,2.4-7.6,7.4-7.6
				C119.9,8.1,122.3,12,122.3,15.7z M110.2,15.8c0.1,2.4,1.3,4.9,4.7,4.9s4.7-2.6,4.7-4.9c0-2.4-1.3-5.2-4.7-5.2
				S110.1,13.4,110.2,15.8z"/>
			<path class="st56" d="M114.9,23.4c-5.3,0-7.6-3.8-7.6-7.7c0-3.8,2.4-7.8,7.6-7.8c2.2,0,4.1,0.7,5.4,2.1c1.4,1.4,2.2,3.5,2.2,5.7
				l0,0C122.5,19.6,120.1,23.4,114.9,23.4z M114.9,8.3c-5,0-7.2,3.8-7.2,7.4c0,3.6,2.2,7.2,7.2,7.2c4.9,0,7.2-3.6,7.2-7.3l0,0
				c0-2.1-0.7-4-2.1-5.4C118.7,9,117,8.3,114.9,8.3z M114.9,20.9c-3.6,0-4.9-2.6-4.9-5.1l0,0c0-1.6,0.5-3,1.5-4
				c0.9-0.9,2.1-1.4,3.5-1.4c1.4,0,2.6,0.5,3.5,1.3c1,1,1.5,2.4,1.5,4C119.8,18.1,118.5,20.9,114.9,20.9z M110.4,15.8
				c0.1,2.3,1.3,4.7,4.5,4.7c3.3,0,4.5-2.4,4.5-4.7c0-1.5-0.5-2.8-1.3-3.7c-0.8-0.8-1.9-1.2-3.2-1.2c-1.3,0-2.4,0.4-3.2,1.2
				C110.8,13,110.3,14.3,110.4,15.8L110.4,15.8z"/>
		</g>
		<g>
			<path class="st56" d="M141.2,21.1c-1.5,1.5-3.4,2.1-5.5,2.1c-5.4,0-7.6-3.7-7.7-7.4c0-3.8,2.4-7.6,7.7-7.6c2,0,3.8,0.7,5.3,2.2
				l-1.8,1.8c-0.9-0.9-2.2-1.4-3.5-1.4c-3.5,0-5,2.6-5,5c0,2.4,1.4,4.9,5,4.9c1.3,0,2.7-0.5,3.6-1.5L141.2,21.1z"/>
			<path class="st56" d="M135.7,23.4c-5.8,0-7.8-4.1-7.9-7.6c0-2.2,0.8-4.2,2.2-5.7c1.4-1.4,3.4-2.2,5.7-2.2c2.1,0,3.9,0.8,5.4,2.3
				l0.2,0.1l-2.1,2l-0.1-0.1c-0.9-0.8-2-1.3-3.3-1.3c-1.4,0-2.6,0.4-3.4,1.3c-0.9,0.9-1.3,2.1-1.3,3.5c0,2.3,1.3,4.7,4.8,4.7
				c1.3,0,2.6-0.5,3.5-1.4l0.1-0.1l2.1,2.2l-0.1,0.1C139.9,22.6,137.9,23.4,135.7,23.4z M135.7,8.3c-2.2,0-4,0.7-5.4,2
				c-1.3,1.3-2.1,3.3-2.1,5.4c0,3.3,2,7.2,7.4,7.2c2,0,3.8-0.7,5.2-1.9l-1.6-1.6c-0.9,0.9-2.3,1.4-3.6,1.4c-3.8,0-5.2-2.7-5.2-5.1
				c0-1.5,0.5-2.9,1.5-3.8c0.9-0.9,2.2-1.4,3.7-1.4c1.3,0,2.6,0.5,3.5,1.3l1.5-1.5C139.3,9,137.6,8.3,135.7,8.3z"/>
		</g>
		<g>
			<path class="st56" d="M156.9,15.7c0,3.7-2.3,7.5-7.4,7.5c-5.1,0-7.4-3.7-7.4-7.4c0-3.8,2.4-7.6,7.4-7.6
				C154.5,8.1,157,12,156.9,15.7z M144.8,15.8c0.1,2.4,1.3,4.9,4.7,4.9c3.4,0,4.7-2.6,4.7-4.9c0-2.4-1.3-5.2-4.7-5.2
				C146.1,10.6,144.7,13.4,144.8,15.8z"/>
			<path class="st56" d="M149.5,23.4c-5.3,0-7.6-3.8-7.6-7.7c0-3.8,2.4-7.8,7.6-7.8c2.2,0,4.1,0.7,5.4,2.1c1.4,1.4,2.2,3.5,2.2,5.7
				l0,0C157.1,19.6,154.7,23.4,149.5,23.4z M149.5,8.3c-5,0-7.2,3.8-7.2,7.4c0,3.6,2.2,7.2,7.2,7.2c4.9,0,7.2-3.6,7.2-7.3l0,0
				c0-2.1-0.7-4-2.1-5.4C153.4,9,151.6,8.3,149.5,8.3z M149.5,20.9c-3.6,0-4.9-2.6-4.9-5.1l0,0c0-1.6,0.5-3,1.5-4
				c0.9-0.9,2.1-1.4,3.5-1.4c1.4,0,2.6,0.5,3.5,1.3c1,1,1.5,2.4,1.5,4C154.4,18.1,153.1,20.9,149.5,20.9z M145,15.8
				c0.1,2.3,1.3,4.7,4.5,4.7c3.3,0,4.5-2.4,4.5-4.7c0-1.5-0.5-2.8-1.3-3.7c-0.8-0.8-1.9-1.2-3.2-1.2c-1.3,0-2.4,0.4-3.2,1.2
				C145.4,13,144.9,14.3,145,15.8L145,15.8z"/>
		</g>
		<g>
			<path class="st56" d="M171.7,22.9h-3.2l-4.2-4.8h-2.6v4.8h-2.7V8.4c2.3,0,4.6,0,6.9,0c3.4,0,5.2,2.3,5.2,4.8c0,2-0.9,4-3.7,4.5
				l4.4,4.9V22.9z M161.7,11v4.6h4.1c1.7,0,2.5-1.2,2.5-2.3s-0.8-2.3-2.5-2.3H161.7z"/>
			<path class="st56" d="M171.9,23.1h-3.5l-4.2-4.8h-2.3v4.8h-3.1V8.2h0.2c1.1,0,2.3,0,3.4,0c1.1,0,2.3,0,3.4,0c3.7,0,5.4,2.6,5.4,5
				c0,2.4-1.3,4.1-3.5,4.7l4.2,4.7V23.1z M168.6,22.7h2.9l-4.5-5l0.4-0.1c3-0.6,3.5-3,3.5-4.3c0-2.2-1.6-4.6-5-4.6
				c-1.1,0-2.3,0-3.4,0c-1.1,0-2.2,0-3.2,0v14h2.3v-4.8h2.9L168.6,22.7z M165.8,15.8h-4.4v-5h4.4c1.9,0,2.7,1.3,2.7,2.5
				S167.7,15.8,165.8,15.8z M161.9,15.4h3.9c1.7,0,2.3-1.1,2.3-2.1s-0.6-2.1-2.3-2.1h-3.9V15.4z"/>
		</g>
		<g>
			<path class="st56" d="M172.9,22.9V8.4h2.7v14.4H172.9z"/>
			<path class="st56" d="M175.8,23.1h-3.1V8.2h3.1V23.1z M173.1,22.7h2.3v-14h-2.3V22.7z"/>
		</g>
		<g>
			<path class="st56" d="M180.8,8.4v11.9h7.4v2.5h-10.1V8.4H180.8z"/>
			<path class="st56" d="M188.5,23.1h-10.6V8.2h3.1v11.9h7.4V23.1z M178.3,22.7h9.7v-2.1h-7.4V8.6h-2.3V22.7z"/>
		</g>
	</g>
	<g>
		<g>
			<path class="st56" d="M50.2,34.1v-4.6h0.9v4.6H50.2z"/>
		</g>
		<g>
			<path class="st56" d="M54.9,29.5h0.9v4.6h-0.5v0L52.8,31v3.1h-0.9v-4.6h0.7l2.2,2.8V29.5z"/>
		</g>
		<g>
			<path class="st56" d="M59,34.1h-0.9l-1.9-4.6h1l1.4,3.6l1.4-3.6h1L59,34.1z"/>
		</g>
		<g>
			<path class="st56" d="M64.9,34.1h-3.4c0-1.5,0-3.1,0-4.6h3.4v0.8h-2.6v1.1h2.5v0.8h-2.5v1h2.6V34.1z"/>
		</g>
		<g>
			<path class="st56" d="M69.6,34.1h-1l-1.3-1.5h-0.8v1.5h-0.9v-4.6c0.7,0,1.5,0,2.2,0c1.1,0,1.6,0.7,1.6,1.5c0,0.6-0.3,1.3-1.2,1.4
				L69.6,34.1L69.6,34.1z M66.4,30.4v1.5h1.3c0.5,0,0.8-0.4,0.8-0.7c0-0.4-0.2-0.7-0.8-0.7H66.4z"/>
		</g>
		<g>
			<path class="st56" d="M73,30.7c-0.2-0.3-0.6-0.5-1.1-0.5c-0.6,0-0.9,0.3-0.9,0.6c0,0.4,0.5,0.5,1,0.6c1,0.1,1.8,0.4,1.8,1.5
				c0,1-0.9,1.5-1.9,1.5c-0.9,0-1.7-0.3-2-1.1l0.7-0.4c0.2,0.5,0.7,0.7,1.3,0.7c0.5,0,1.1-0.2,1.1-0.7c0-0.4-0.5-0.6-1.1-0.7
				c-0.9-0.1-1.8-0.4-1.8-1.4c0-0.9,0.9-1.3,1.8-1.3c0.7,0,1.5,0.2,1.8,0.9L73,30.7z"/>
		</g>
		<g>
			<path class="st56" d="M74.5,34.1v-4.6h0.9v4.6H74.5z"/>
		</g>
		<g>
			<path class="st56" d="M80.8,31.9c0,1.2-0.7,2.4-2.3,2.4c-1.6,0-2.4-1.2-2.4-2.4c0-1.2,0.8-2.4,2.4-2.4
				C80,29.5,80.8,30.7,80.8,31.9z M76.9,31.9c0,0.8,0.4,1.6,1.5,1.6c1.1,0,1.5-0.8,1.5-1.6c0-0.8-0.4-1.6-1.5-1.6
				C77.4,30.2,76.9,31.1,76.9,31.9z"/>
		</g>
		<g>
			<path class="st56" d="M84.4,29.5h0.9v4.6h-0.5v0L82.3,31v3.1h-0.9v-4.6h0.7l2.2,2.8V29.5z"/>
		</g>
		<g>
			<path class="st56" d="M89.5,34.1h-3.4c0-1.5,0-3.1,0-4.6h3.4v0.8h-2.6v1.1h2.5v0.8h-2.5v1h2.6V34.1z"/>
		</g>
		<g>
			<path class="st56" d="M93.1,30.7c-0.2-0.3-0.6-0.5-1.1-0.5c-0.6,0-0.9,0.3-0.9,0.6c0,0.4,0.5,0.5,1,0.6c1,0.1,1.8,0.4,1.8,1.5
				c0,1-0.9,1.5-1.9,1.5c-0.9,0-1.7-0.3-2-1.1l0.7-0.4c0.2,0.5,0.7,0.7,1.3,0.7c0.5,0,1.1-0.2,1.1-0.7c0-0.4-0.5-0.6-1.1-0.7
				c-0.9-0.1-1.8-0.4-1.8-1.4c0-0.9,0.9-1.3,1.8-1.3c0.7,0,1.5,0.2,1.8,0.9L93.1,30.7z"/>
		</g>
		<g>
			<path class="st56" d="M97.9,31.4l1.2-1.9h1v0l-1.8,2.6v1.9h-0.9v-1.9l-1.8-2.6v0h1L97.9,31.4z"/>
		</g>
		<g>
			<path class="st56" d="M104.6,30.7c-0.2-0.3-0.6-0.5-1.1-0.5c-0.6,0-0.9,0.3-0.9,0.6c0,0.4,0.5,0.5,1,0.6c1,0.1,1.8,0.4,1.8,1.5
				c0,1-0.9,1.5-1.9,1.5c-0.9,0-1.7-0.3-2-1.1l0.7-0.4c0.2,0.5,0.7,0.7,1.3,0.7c0.5,0,1.1-0.2,1.1-0.7c0-0.4-0.5-0.6-1.1-0.7
				c-0.9-0.1-1.8-0.4-1.8-1.4c0-0.9,0.9-1.3,1.8-1.3c0.7,0,1.5,0.2,1.8,0.9L104.6,30.7z"/>
		</g>
		<g>
			<path class="st56" d="M110.6,31.9c0,1.2-0.7,2.4-2.3,2.4c-1.6,0-2.4-1.2-2.4-2.4c0-1.2,0.8-2.4,2.4-2.4
				C109.9,29.5,110.7,30.7,110.6,31.9z M106.8,31.9c0,0.8,0.4,1.6,1.5,1.6c1.1,0,1.5-0.8,1.5-1.6c0-0.8-0.4-1.6-1.5-1.6
				C107.2,30.2,106.8,31.1,106.8,31.9z"/>
		</g>
		<g>
			<path class="st56" d="M112.1,29.6v3.8h2.4v0.8h-3.2v-4.6H112.1z"/>
		</g>
		<g>
			<path class="st56" d="M118.8,29.6v2.6c0,1.4-0.8,2-2,2c-1.1,0-2-0.7-2-2v-2.6h0.9v2.6c0,0.8,0.5,1.3,1.2,1.3
				c0.7,0,1.1-0.5,1.1-1.3v-2.6H118.8z"/>
		</g>
		<g>
			<path class="st56" d="M123.7,33.6c-0.5,0.5-1.1,0.7-1.7,0.7c-1.7,0-2.4-1.2-2.4-2.4c0-1.2,0.8-2.4,2.4-2.4c0.6,0,1.2,0.2,1.7,0.7
				l-0.6,0.6c-0.3-0.3-0.7-0.4-1.1-0.4c-1.1,0-1.6,0.8-1.6,1.6c0,0.8,0.4,1.5,1.6,1.5c0.4,0,0.9-0.2,1.2-0.5L123.7,33.6z"/>
		</g>
		<g>
			<path class="st56" d="M124.2,34.1v-4.6h0.9v4.6H124.2z"/>
		</g>
		<g>
			<path class="st56" d="M130.5,31.9c0,1.2-0.7,2.4-2.3,2.4c-1.6,0-2.4-1.2-2.4-2.4c0-1.2,0.8-2.4,2.4-2.4
				C129.8,29.5,130.5,30.7,130.5,31.9z M126.7,31.9c0,0.8,0.4,1.6,1.5,1.6c1.1,0,1.5-0.8,1.5-1.6c0-0.8-0.4-1.6-1.5-1.6
				C127.1,30.2,126.7,31.1,126.7,31.9z"/>
		</g>
		<g>
			<path class="st56" d="M134.2,29.5h0.9v4.6h-0.5v0l-2.4-3.1v3.1h-0.9v-4.6h0.7l2.2,2.8V29.5z"/>
		</g>
		<g>
			<path class="st56" d="M139.2,34.1h-3.4c0-1.5,0-3.1,0-4.6h3.4v0.8h-2.6v1.1h2.5v0.8h-2.5v1h2.6V34.1z"/>
		</g>
		<g>
			<path class="st56" d="M142.9,30.7c-0.2-0.3-0.6-0.5-1.1-0.5c-0.6,0-0.9,0.3-0.9,0.6c0,0.4,0.5,0.5,1,0.6c1,0.1,1.8,0.4,1.8,1.5
				c0,1-0.9,1.5-1.9,1.5c-0.9,0-1.7-0.3-2-1.1l0.7-0.4c0.2,0.5,0.7,0.7,1.3,0.7c0.5,0,1.1-0.2,1.1-0.7c0-0.4-0.5-0.6-1.1-0.7
				c-0.9-0.1-1.8-0.4-1.8-1.4c0-0.9,0.9-1.3,1.8-1.3c0.7,0,1.5,0.2,1.8,0.9L142.9,30.7z"/>
		</g>
		<g>
			<path class="st56" d="M145.7,34.1v-4.6h3.3v0.8h-2.4v1.2h2.3v0.8h-2.3v1.7H145.7z"/>
		</g>
		<g>
			<path class="st56" d="M149.6,34.1v-4.6h0.9v4.6H149.6z"/>
		</g>
		<g>
			<path class="st56" d="M154.3,29.5h0.9v4.6h-0.5v0l-2.4-3.1v3.1h-0.9v-4.6h0.7l2.2,2.8V29.5z"/>
		</g>
		<g>
			<path class="st56" d="M159.2,33.3h-2.4l-0.4,0.9h-0.9l2.1-4.6h0.9l2.1,4.6h-0.9L159.2,33.3z M158,30.5l-0.8,1.9h1.7L158,30.5z"/>
		</g>
		<g>
			<path class="st56" d="M163.9,29.5h0.9v4.6h-0.5v0l-2.4-3.1v3.1H161v-4.6h0.7l2.2,2.8V29.5z"/>
		</g>
		<g>
			<path class="st56" d="M169.6,33.6c-0.5,0.5-1.1,0.7-1.7,0.7c-1.7,0-2.4-1.2-2.4-2.4c0-1.2,0.8-2.4,2.4-2.4c0.6,0,1.2,0.2,1.7,0.7
				l-0.6,0.6c-0.3-0.3-0.7-0.4-1.1-0.4c-1.1,0-1.6,0.8-1.6,1.6c0,0.8,0.4,1.5,1.6,1.5c0.4,0,0.9-0.2,1.2-0.5L169.6,33.6z"/>
		</g>
		<g>
			<path class="st56" d="M170.1,34.1v-4.6h0.9v4.6H170.1z"/>
		</g>
		<g>
			<path class="st56" d="M175.2,34.1h-3.4c0-1.5,0-3.1,0-4.6h3.4v0.8h-2.6v1.1h2.5v0.8h-2.5v1h2.6V34.1z"/>
		</g>
		<g>
			<path class="st56" d="M179.9,34.1h-1l-1.3-1.5h-0.8v1.5h-0.9v-4.6c0.7,0,1.5,0,2.2,0c1.1,0,1.6,0.7,1.6,1.5
				c0,0.6-0.3,1.3-1.2,1.4L179.9,34.1L179.9,34.1z M176.7,30.4v1.5h1.3c0.5,0,0.8-0.4,0.8-0.7c0-0.4-0.2-0.7-0.8-0.7H176.7z"/>
		</g>
		<g>
			<path class="st56" d="M183.5,33.3h-2.4l-0.4,0.9h-0.9l2.1-4.6h0.9l2.1,4.6h-0.9L183.5,33.3z M182.3,30.5l-0.8,1.9h1.7L182.3,30.5
				z"/>
		</g>
		<g>
			<path class="st56" d="M188,30.7c-0.2-0.3-0.6-0.5-1.1-0.5c-0.6,0-0.9,0.3-0.9,0.6c0,0.4,0.5,0.5,1,0.6c1,0.1,1.8,0.4,1.8,1.5
				c0,1-0.9,1.5-1.9,1.5c-0.9,0-1.7-0.3-2-1.1l0.7-0.4c0.2,0.5,0.7,0.7,1.3,0.7c0.5,0,1.1-0.2,1.1-0.7c0-0.4-0.5-0.6-1.1-0.7
				c-0.9-0.1-1.8-0.4-1.8-1.4c0-0.9,0.9-1.3,1.8-1.3c0.7,0,1.5,0.2,1.8,0.9L188,30.7z"/>
		</g>
	</g>
	<g>
		<g>
			<g>
				<path class="st56" d="M21.8,43.6C9.8,43.6,0,33.9,0,21.8S9.8,0,21.8,0s21.8,9.8,21.8,21.8S33.9,43.6,21.8,43.6z M21.8,0.8
					c-11.6,0-21,9.4-21,21s9.4,21,21,21s21-9.4,21-21S33.4,0.8,21.8,0.8z"/>
			</g>
		</g>
	</g>
	<g>
		<g>
			<g>
				<path class="st56" d="M22,43.6c-3.1,0-6.7-0.6-10.7-2.7l-0.3-0.1l1.5-12.2c0,0,6.7-0.6,8.9-0.6c1.9,0,7.4,0.6,7.4,0.6l1.8,13.1
					l-0.3,0.1C30.5,41.9,27.1,43.6,22,43.6z M11.9,40.3c1.6,0.8,3.2,1.4,4.7,1.8c6.8,1.7,4.1-12.7,4.1-12.7h-7.5L11.9,40.3z"/>
			</g>
		</g>
	</g>
	<g>
		<g>
			<g>
				<path class="st56" d="M33.6,28.8l-2.9,0.6c0,0,1.5-1.2,0.1-1.6c-3.7-1.1-11.7-2.8-20.3,0.1c-0.6,0.2,0.4,1.6,0.4,1.6L8,28.8
					v-7.1l0.3-0.1c0.1,0,9.8-3.3,24.9,0l0.3,0.1V28.8z M20.5,25.4c-0.1-0.1,6.5-4.1,4-4.3c-8.7-0.7-14.4,0.8-15.6,1.2v5.3
					C12.9,26,16.9,25.4,20.5,25.4z"/>
			</g>
		</g>
	</g>
	<g>
		<g>
			<g>
				<path class="st56" d="M20,20.6H14v-4.5H20V20.6z"/>
			</g>
		</g>
	</g>
	<g>
		<g>
			<g>
				<path class="st56" d="M27.2,20.6h-6.1v-4.5h6.1V20.6z"/>
			</g>
		</g>
	</g>
	<g>
		<g>
			<g>
				<path class="st56" d="M43.2,26.1l-15-5.5V16l12.9-4.4l0.2,0.3c3.7,7.8,2.1,13.5,2,13.8L43.2,26.1z"/>
			</g>
		</g>
	</g>
	<path class="st56" d="M32.1,15L20.7,6.1c0,0,0.8,6.5-5.7,8.1L32.1,15z"/>
</g>
</svg>
