<?xml version="1.0" encoding="utf-8"?>
<!-- Generator: Adobe Illustrator 22.1.0, SVG Export Plug-In . SVG Version: 6.00 Build 0)  -->
<svg version="1.1" id="Capa_1" xmlns="http://www.w3.org/2000/svg" xmlns:xlink="http://www.w3.org/1999/xlink" x="0px" y="0px"
	 viewBox="0 0 12.7 17.5" style="enable-background:new 0 0 12.7 17.5;" xml:space="preserve">
<style type="text/css">
	.st0{fill:#F4F4F4;}
	.st1{fill:#F2F2F2;}
	.st2{fill:none;stroke:#CCCCCC;stroke-width:0.75;stroke-miterlimit:10;}
	.st3{fill:none;stroke:#004485;stroke-width:0.5;stroke-miterlimit:10;}
	.st4{fill:#004485;}
	.st5{fill:#F7F7F7;}
	.st6{fill:none;stroke:#CF7535;stroke-width:0.5;stroke-miterlimit:10;}
	.st7{opacity:7.000000e-02;}
	.st8{fill:#9EA0A2;}
	.st9{fill:#88898C;}
	.st10{fill:#2F4C88;}
	.st11{fill:#E2E3E4;}
	.st12{fill:#C57930;}
	.st13{fill:#009245;}
	.st14{fill:#c3c3c3;}
	.st15{fill:none;stroke:#E6E6E6;stroke-width:0.5;stroke-miterlimit:10;}
	.st16{opacity:0.15;}
	.st17{clip-path:url(#SVGID_4_);fill:#FFFFFF;}
	.st18{fill:#304484;}
	.st19{fill:#F2F2F2;stroke:#CCCCCC;stroke-miterlimit:10;}
	.st20{fill:#FFFFFF;stroke:#CCCCCC;stroke-miterlimit:10;}
	.st21{fill:#CF7535;}
	.st22{fill:#999999;}
	.st23{fill:none;stroke:#25ABCA;stroke-width:0.5;stroke-miterlimit:10;}
	.st24{fill:#25ABCA;}
	.st25{fill:#CCCCCC;}
	.st26{fill:none;stroke:#2B6BA8;stroke-width:0.75;stroke-miterlimit:10;}
	.st27{fill:#0091FF;}
	.st28{fill:#808080;}
	.st29{fill:#666666;}
	.st30{fill:#004485;stroke:#004485;stroke-width:2;stroke-miterlimit:10;}
	.st31{fill:none;stroke:#B3B3B3;stroke-width:2;stroke-linecap:round;stroke-linejoin:round;stroke-miterlimit:10;}
	.st32{fill:none;stroke:#FFFFFF;stroke-miterlimit:10;}
	.st33{fill:none;stroke:#FFFFFF;stroke-linecap:round;stroke-linejoin:round;stroke-miterlimit:10;}
	.st34{fill:#B3B3B3;}
	.st35{fill:#F1F4F5;}
	.st36{fill:#87888B;}
	.st37{opacity:0.85;fill:#FFFFFF;}
	.st38{opacity:0.85;fill:#9D9FA1;}
	.st39{fill:#C47930;}
	.st40{opacity:0.15;fill:none;stroke:#304484;stroke-miterlimit:10;}
	.st41{fill:#CE7535;}
	.st42{fill:#46BE8A;}
	.st43{fill:none;stroke:#999999;stroke-width:0.5;stroke-miterlimit:10;}
	.st44{fill:none;stroke:#CCCCCC;stroke-miterlimit:10;}
	.st45{fill:#FFEEEE;}
	.st46{fill:#E25142;}
	.st47{fill:none;stroke:#B3B3B3;stroke-miterlimit:10;}
	.st48{fill:#E6F0FF;}
	.st49{fill:#E9F8FF;}
	.st50{fill:#E3FFE6;}
	.st51{fill:none;stroke:#46BE8A;stroke-width:2;stroke-linecap:round;stroke-linejoin:round;stroke-miterlimit:10;}
	.st52{fill:none;stroke:#004485;stroke-miterlimit:10;}
	.st53{fill:none;stroke:#CCCCCC;stroke-width:0.5;stroke-miterlimit:10;}
	.st54{fill:none;stroke:#4D4D4D;stroke-width:0.5;stroke-miterlimit:10;}
	.st55{fill:none;stroke:#9EA0A2;stroke-width:0.5;stroke-miterlimit:10;}
	.st56{fill:#EFEFEF;}
	.st57{fill:none;stroke:#050505;stroke-width:0.5;stroke-miterlimit:10;}
	.st58{opacity:0.14;fill:#B3B3B3;}
	.st59{fill:none;stroke:#CF7535;stroke-width:0.55;stroke-miterlimit:10;}
	.st60{fill:none;stroke:#0091FF;stroke-width:0.5;stroke-miterlimit:10;}
	.st61{fill:none;stroke:#666666;stroke-width:0.5;stroke-miterlimit:10;}
	.st62{fill:none;stroke:#B3B3B3;stroke-width:0.5;stroke-miterlimit:10;}
	.st63{fill:#004484;}
	.st64{clip-path:url(#SVGID_10_);fill:#FFFFFF;}
	.st65{clip-path:url(#SVGID_10_);}
	.st66{fill:#054B8D;}
	.st67{fill:#B12E33;}
	.st68{fill:#B43439;}
	.st69{fill:#B32E33;}
	.st70{fill:#B02D32;}
	.st71{clip-path:url(#SVGID_12_);fill:#FFFFFF;}
	.st72{clip-path:url(#SVGID_12_);fill:#B43439;}
	.st73{fill:#27608D;}
	.st74{fill:#749323;}
	.st75{fill:#EBFFF2;}
	.st76{opacity:0.2;fill:#2F4C88;}
	.st77{fill:none;stroke:#265D9B;stroke-width:0.5;stroke-miterlimit:10;}
	.st78{clip-path:url(#SVGID_14_);fill:#FFFFFF;}
	.st79{clip-path:url(#SVGID_14_);}
	.st80{fill:#25AAC9;}
	.st81{fill:#265D9B;}
	.st82{clip-path:url(#SVGID_16_);fill:#FFFFFF;}
	.st83{clip-path:url(#SVGID_16_);}
	.st84{fill:none;}
	.st85{clip-path:url(#SVGID_18_);fill:#FFFFFF;}
	.st86{clip-path:url(#SVGID_18_);}
	.st87{clip-path:url(#SVGID_20_);fill:#FFFFFF;}
	.st88{clip-path:url(#SVGID_20_);fill:#B43439;}
	.st89{fill:none;stroke:#FFFFFF;stroke-width:0.5;stroke-miterlimit:10;}
	.st90{clip-path:url(#SVGID_22_);fill:#FFFFFF;}
	.st91{clip-path:url(#SVGID_22_);}
	.st92{clip-path:url(#SVGID_24_);fill:#FFFFFF;}
	.st93{clip-path:url(#SVGID_24_);fill:#B43439;}
	.st94{clip-path:url(#SVGID_26_);fill:#FFFFFF;}
	.st95{clip-path:url(#SVGID_26_);}
	.st96{clip-path:url(#SVGID_28_);fill:#FFFFFF;}
	.st97{clip-path:url(#SVGID_28_);fill:#B43439;}
	.st98{fill:#8CBF37;}
	.st99{fill:#0C6F9E;}
	.st100{fill:#DFB70E;}
	.st101{fill:#FAA93F;}
	.st102{fill:#6B7137;}
	.st103{fill:#AA6A43;}
	.st104{fill:#147DA1;}
	.st105{fill:#428B44;}
	.st106{fill:#E81D24;}
	.st107{fill:#8BC548;}
	.st108{fill:#0CB8B8;}
	.st109{fill:#0187CD;}
	.st110{fill:#6D6D6D;}
	.st111{fill:#015594;}
	.st112{fill:#085A98;}
	.st113{fill:#2497D4;}
	.st114{fill:#10619E;}
	.st115{fill:#4C91C5;}
	.st116{fill:#2673AD;}
	.st117{fill:#1A68A4;}
	.st118{fill:#327CB3;}
	.st119{fill:#3A82B9;}
	.st120{fill:#64A4D4;}
	.st121{fill:#00427A;}
	.st122{fill:#F8FBFC;}
	.st123{fill:#7EC1E5;}
	.st124{fill:#C1E1F2;}
	.st125{fill:#FCFDFD;}
	.st126{fill:#002B51;}
	.st127{fill:#B0CB3C;}
	.st128{fill:#E72476;}
	.st129{fill:#B0CD3B;}
	.st130{fill:#B0CC3C;}
	.st131{fill:#B1CA3D;}
	.st132{fill:#1C4794;}
	.st133{fill:#18A6C1;}
	.st134{fill:#8CC63F;}
	.st135{opacity:0.7;}
	.st136{fill:#C3C3C3;}
	.st137{fill:none;stroke:#004485;stroke-width:0.6;stroke-miterlimit:10;}
	.st138{clip-path:url(#SVGID_30_);fill:#FFFFFF;}
	.st139{clip-path:url(#SVGID_30_);fill:#B43439;}
	.st140{clip-path:url(#SVGID_32_);fill:#FFFFFF;}
	.st141{clip-path:url(#SVGID_32_);}
	.st142{clip-path:url(#SVGID_34_);fill:#FFFFFF;}
	.st143{clip-path:url(#SVGID_34_);}
	.st144{fill:none;stroke:#00B9FF;stroke-width:0.5;stroke-miterlimit:10;}
	.st145{clip-path:url(#SVGID_36_);fill:#FFFFFF;}
	.st146{clip-path:url(#SVGID_36_);fill:#B43439;}
	.st147{clip-path:url(#SVGID_38_);fill:#FFFFFF;}
	.st148{clip-path:url(#SVGID_38_);}
	.st149{clip-path:url(#SVGID_40_);fill:#FFFFFF;}
	.st150{clip-path:url(#SVGID_40_);}
	.st151{clip-path:url(#SVGID_42_);fill:#FFFFFF;}
	.st152{clip-path:url(#SVGID_42_);fill:#B43439;}
	.st153{clip-path:url(#SVGID_44_);fill:#FFFFFF;}
	.st154{clip-path:url(#SVGID_44_);}
	.st155{clip-path:url(#SVGID_46_);fill:#FFFFFF;}
	.st156{clip-path:url(#SVGID_46_);}
	.st157{clip-path:url(#SVGID_48_);fill:#FFFFFF;}
	.st158{clip-path:url(#SVGID_48_);fill:#B43439;}
	.st159{opacity:0.55;}
	.st160{fill:#2F4C87;}
	.st161{fill:#E1E2E3;}
	.st162{fill:#A4D523;}
	.st163{fill:#FF0000;}
	.st164{clip-path:url(#SVGID_50_);fill:#FFFFFF;}
	.st165{clip-path:url(#SVGID_50_);}
	.st166{clip-path:url(#SVGID_52_);fill:#FFFFFF;}
	.st167{clip-path:url(#SVGID_52_);fill:#B43439;}
	.st168{fill:none;stroke:#0091FF;stroke-miterlimit:10;}
</style>
<path class="st14" d="M12.2,6.9h-0.6c-0.5,0-0.9-0.4-0.9-0.9l0-1.4c0-0.4,0.1-2.1-1-3.4C9,0.4,7.9,0,6.6,0C3.2,0,2.3,2.2,2.1,3.1
	c0,0.2,0,2.4,0,3.6l0,0.2H0.5C0.2,6.9,0,7.2,0,7.5V17c0,0.3,0.2,0.5,0.5,0.5h11.7c0.3,0,0.5-0.2,0.5-0.5V7.5
	C12.7,7.2,12.5,6.9,12.2,6.9z M3,6.7c0-0.5,0-1.3,0-1.9c0-1.3,0-1.4,0-1.4v0C3.3,2.5,4,1,6.6,1c1,0,1.8,0.3,2.3,0.9
	c0.9,1,0.7,2.6,0.7,2.6l0,1.5c0,0.2-0.1,0.5-0.3,0.6C9.2,6.9,9,6.9,8.8,6.9H3L3,6.7z M11.7,15.6c0,0.5-0.4,0.9-0.9,0.9H1.9
	c-0.5,0-0.9-0.4-0.9-0.9V8.9C1,8.4,1.4,8,1.9,8h8.9c0.5,0,0.9,0.4,0.9,0.9V15.6z M7.1,11.4c-0.3,0.3-0.5,0.7-0.4,1.1l0.5,1.3
	c0.1,0.2,0,0.3-0.1,0.5c-0.1,0.1-0.2,0.2-0.4,0.2H5.8c-0.2,0-0.3-0.1-0.4-0.2c-0.1-0.1-0.1-0.3-0.1-0.4l0.4-1.5
	c0.1-0.3,0-0.7-0.3-0.9c-0.3-0.2-0.3-0.5-0.2-0.8C5.4,10.3,5.8,10,6.3,10c0,0,0,0,0.1,0c0.5,0,0.9,0.2,1,0.6
	C7.5,10.9,7.4,11.3,7.1,11.4z"/>
</svg>
