<?xml version="1.0" encoding="utf-8"?>
<!-- Generator: Adobe Illustrator 22.1.0, SVG Export Plug-In . SVG Version: 6.00 Build 0)  -->
<svg version="1.1" id="Capa_1" xmlns="http://www.w3.org/2000/svg" xmlns:xlink="http://www.w3.org/1999/xlink" x="0px" y="0px"
	 viewBox="0 0 20.1 12" style="enable-background:new 0 0 20.1 12;" xml:space="preserve">
<style type="text/css">
	.st0{fill:#F4F4F4;}
	.st1{fill:#F2F2F2;}
	.st2{fill:none;stroke:#CCCCCC;stroke-width:0.75;stroke-miterlimit:10;}
	.st3{fill:none;stroke:#004485;stroke-width:0.5;stroke-miterlimit:10;}
	.st4{fill:#004485;}
	.st5{fill:#F7F7F7;}
	.st6{fill:none;stroke:#CF7535;stroke-width:0.5;stroke-miterlimit:10;}
	.st7{opacity:7.000000e-02;}
	.st8{fill:#9EA0A2;}
	.st9{fill:#88898C;}
	.st10{fill:#2F4C88;}
	.st11{fill:#E2E3E4;}
	.st12{fill:#C57930;}
	.st13{fill:#009245;}
	.st14{fill:#FFFFFF;}
	.st15{fill:none;stroke:#E6E6E6;stroke-width:0.5;stroke-miterlimit:10;}
	.st16{opacity:0.15;}
	.st17{clip-path:url(#SVGID_4_);fill:#FFFFFF;}
	.st18{fill:#304484;}
	.st19{fill:#F2F2F2;stroke:#CCCCCC;stroke-miterlimit:10;}
	.st20{fill:#FFFFFF;stroke:#CCCCCC;stroke-miterlimit:10;}
	.st21{fill:#CF7535;}
	.st22{fill:#999999;}
	.st23{fill:none;stroke:#25ABCA;stroke-width:0.5;stroke-miterlimit:10;}
	.st24{fill:#25ABCA;}
	.st25{fill:#CCCCCC;}
	.st26{fill:none;stroke:#2B6BA8;stroke-width:0.75;stroke-miterlimit:10;}
	.st27{fill:#0091FF;}
	.st28{fill:#808080;}
	.st29{opacity:7.000000e-02;fill:#9EA0A2;}
	.st30{fill:#666666;}
	.st31{fill:#004485;stroke:#004485;stroke-width:2;stroke-miterlimit:10;}
	.st32{fill:none;stroke:#B3B3B3;stroke-width:2;stroke-linecap:round;stroke-linejoin:round;stroke-miterlimit:10;}
	.st33{fill:none;stroke:#FFFFFF;stroke-miterlimit:10;}
	.st34{fill:none;stroke:#FFFFFF;stroke-linecap:round;stroke-linejoin:round;stroke-miterlimit:10;}
	.st35{fill:#B3B3B3;}
	.st36{fill:#F1F4F5;}
	.st37{fill:#87888B;}
	.st38{opacity:0.85;fill:#FFFFFF;}
	.st39{opacity:0.85;fill:#9D9FA1;}
	.st40{fill:#C47930;}
	.st41{opacity:0.15;fill:none;stroke:#304484;stroke-miterlimit:10;}
	.st42{fill:#CE7535;}
	.st43{fill:#46BE8A;}
	.st44{fill:none;stroke:#999999;stroke-width:0.5;stroke-miterlimit:10;}
	.st45{fill:none;stroke:#CCCCCC;stroke-miterlimit:10;}
	.st46{fill:#FFEEEE;}
	.st47{fill:#E25142;}
	.st48{fill:none;stroke:#B3B3B3;stroke-miterlimit:10;}
	.st49{fill:#E6F0FF;}
	.st50{fill:#E9F8FF;}
	.st51{fill:#E3FFE6;}
	.st52{fill:none;stroke:#46BE8A;stroke-width:2;stroke-linecap:round;stroke-linejoin:round;stroke-miterlimit:10;}
	.st53{fill:none;stroke:#004485;stroke-miterlimit:10;}
	.st54{fill:none;stroke:#CCCCCC;stroke-width:0.5;stroke-miterlimit:10;}
	.st55{fill:none;stroke:#4D4D4D;stroke-width:0.5;stroke-miterlimit:10;}
	.st56{fill:none;stroke:#9EA0A2;stroke-width:0.5;stroke-miterlimit:10;}
	.st57{fill:#EFEFEF;}
	.st58{fill:none;stroke:#050505;stroke-width:0.5;stroke-miterlimit:10;}
	.st59{opacity:0.14;fill:#B3B3B3;}
	.st60{fill:none;stroke:#CF7535;stroke-width:0.55;stroke-miterlimit:10;}
	.st61{fill:none;stroke:#0091FF;stroke-width:0.5;stroke-miterlimit:10;}
	.st62{fill:none;stroke:#666666;stroke-width:0.5;stroke-miterlimit:10;}
	.st63{fill:none;stroke:#B3B3B3;stroke-width:0.5;stroke-miterlimit:10;}
	.st64{fill:#004484;}
	.st65{clip-path:url(#SVGID_10_);fill:#FFFFFF;}
	.st66{clip-path:url(#SVGID_10_);}
	.st67{fill:#054B8D;}
	.st68{fill:#B12E33;}
	.st69{fill:#B43439;}
	.st70{fill:#B32E33;}
	.st71{fill:#B02D32;}
	.st72{clip-path:url(#SVGID_12_);fill:#FFFFFF;}
	.st73{clip-path:url(#SVGID_12_);fill:#B43439;}
	.st74{fill:#27608D;}
	.st75{fill:#749323;}
	.st76{fill:#EBFFF2;}
	.st77{opacity:0.2;fill:#2F4C88;}
	.st78{fill:none;stroke:#265D9B;stroke-width:0.5;stroke-miterlimit:10;}
	.st79{clip-path:url(#SVGID_14_);fill:#FFFFFF;}
	.st80{clip-path:url(#SVGID_14_);}
	.st81{fill:#25AAC9;}
	.st82{fill:#265D9B;}
	.st83{clip-path:url(#SVGID_16_);fill:#FFFFFF;}
	.st84{clip-path:url(#SVGID_16_);}
	.st85{fill:none;}
	.st86{clip-path:url(#SVGID_18_);fill:#FFFFFF;}
	.st87{clip-path:url(#SVGID_18_);}
	.st88{clip-path:url(#SVGID_20_);fill:#FFFFFF;}
	.st89{clip-path:url(#SVGID_20_);fill:#B43439;}
	.st90{fill:none;stroke:#FFFFFF;stroke-width:0.5;stroke-miterlimit:10;}
	.st91{clip-path:url(#SVGID_22_);fill:#FFFFFF;}
	.st92{clip-path:url(#SVGID_22_);}
	.st93{clip-path:url(#SVGID_24_);fill:#FFFFFF;}
	.st94{clip-path:url(#SVGID_24_);fill:#B43439;}
	.st95{clip-path:url(#SVGID_26_);fill:#FFFFFF;}
	.st96{clip-path:url(#SVGID_26_);}
	.st97{clip-path:url(#SVGID_28_);fill:#FFFFFF;}
	.st98{clip-path:url(#SVGID_28_);fill:#B43439;}
	.st99{fill:#8CBF37;}
	.st100{fill:#0C6F9E;}
	.st101{fill:#DFB70E;}
	.st102{fill:#FAA93F;}
	.st103{fill:#6B7137;}
	.st104{fill:#AA6A43;}
	.st105{fill:#147DA1;}
	.st106{fill:#428B44;}
	.st107{fill:#E81D24;}
	.st108{fill:#8BC548;}
	.st109{fill:#0CB8B8;}
	.st110{fill:#0187CD;}
	.st111{fill:#6D6D6D;}
	.st112{fill:#015594;}
	.st113{fill:#085A98;}
	.st114{fill:#2497D4;}
	.st115{fill:#10619E;}
	.st116{fill:#4C91C5;}
	.st117{fill:#2673AD;}
	.st118{fill:#1A68A4;}
	.st119{fill:#327CB3;}
	.st120{fill:#3A82B9;}
	.st121{fill:#64A4D4;}
	.st122{fill:#00427A;}
	.st123{fill:#F8FBFC;}
	.st124{fill:#7EC1E5;}
	.st125{fill:#C1E1F2;}
	.st126{fill:#FCFDFD;}
	.st127{fill:#002B51;}
	.st128{fill:#B0CB3C;}
	.st129{fill:#E72476;}
	.st130{fill:#B0CD3B;}
	.st131{fill:#B0CC3C;}
	.st132{fill:#B1CA3D;}
	.st133{fill:#1C4794;}
	.st134{fill:#18A6C1;}
	.st135{fill:#8CC63F;}
	.st136{opacity:0.7;}
	.st137{fill:#C3C3C3;}
	.st138{fill:none;stroke:#004485;stroke-width:0.6;stroke-miterlimit:10;}
	.st139{clip-path:url(#SVGID_30_);fill:#FFFFFF;}
	.st140{clip-path:url(#SVGID_30_);fill:#B43439;}
	.st141{clip-path:url(#SVGID_32_);fill:#FFFFFF;}
	.st142{clip-path:url(#SVGID_32_);}
	.st143{clip-path:url(#SVGID_34_);fill:#FFFFFF;}
	.st144{clip-path:url(#SVGID_34_);}
	.st145{fill:none;stroke:#00B9FF;stroke-width:0.5;stroke-miterlimit:10;}
	.st146{clip-path:url(#SVGID_36_);fill:#FFFFFF;}
	.st147{clip-path:url(#SVGID_36_);fill:#B43439;}
	.st148{clip-path:url(#SVGID_38_);fill:#FFFFFF;}
	.st149{clip-path:url(#SVGID_38_);}
	.st150{clip-path:url(#SVGID_40_);fill:#FFFFFF;}
	.st151{clip-path:url(#SVGID_40_);}
	.st152{clip-path:url(#SVGID_42_);fill:#FFFFFF;}
	.st153{clip-path:url(#SVGID_42_);fill:#B43439;}
	.st154{clip-path:url(#SVGID_44_);fill:#FFFFFF;}
	.st155{clip-path:url(#SVGID_44_);}
	.st156{clip-path:url(#SVGID_46_);fill:#FFFFFF;}
	.st157{clip-path:url(#SVGID_46_);}
	.st158{clip-path:url(#SVGID_48_);fill:#FFFFFF;}
	.st159{clip-path:url(#SVGID_48_);fill:#B43439;}
	.st160{opacity:0.55;}
	.st161{fill:#2F4C87;}
	.st162{fill:#E1E2E3;}
	.st163{fill:#A4D523;}
	.st164{fill:#FF0000;}
	.st165{clip-path:url(#SVGID_50_);fill:#FFFFFF;}
	.st166{clip-path:url(#SVGID_50_);}
	.st167{clip-path:url(#SVGID_52_);fill:#FFFFFF;}
	.st168{clip-path:url(#SVGID_52_);fill:#B43439;}
	.st169{fill:none;stroke:#0091FF;stroke-miterlimit:10;}
</style>
<path class="st28" d="M10.6,0c0.2,0,0.5,0,0.7,0.1c0.1,0,0.2,0,0.2,0c0.2,0,0.4,0.1,0.6,0.1c0.1,0,0.2,0,0.2,0
	c0.2,0,0.4,0.1,0.6,0.1c0.1,0,0.1,0,0.2,0.1c0.2,0.1,0.4,0.1,0.6,0.2c0.1,0,0.1,0,0.2,0.1c0.2,0.1,0.3,0.1,0.5,0.2
	c0,0,0.1,0,0.1,0.1c0.2,0.1,0.3,0.2,0.5,0.2c0.1,0.1,0.1,0.1,0.2,0.1c0.2,0.1,0.3,0.2,0.5,0.3c0,0,0.1,0.1,0.1,0.1
	c0.1,0.1,0.3,0.2,0.4,0.2C16.4,1.9,16.4,2,16.5,2c0.1,0.1,0.3,0.2,0.4,0.3c0.1,0,0.1,0.1,0.2,0.1c0.1,0.1,0.3,0.2,0.4,0.3
	c0,0.1,0.1,0.1,0.2,0.1C17.8,3,17.9,3.1,18,3.2c0.1,0.1,0.1,0.1,0.2,0.2c0.1,0.1,0.2,0.2,0.3,0.3c0,0,0.1,0.1,0.1,0.1
	c0.1,0.2,0.3,0.3,0.4,0.5c0,0,0.1,0.1,0.1,0.1c0.1,0.1,0.2,0.3,0.3,0.4c0,0.1,0,0.1,0.1,0.1c0.1,0.1,0.2,0.3,0.3,0.4
	c0,0.1,0.1,0.1,0.1,0.2c0.1,0.2,0.2,0.3,0.2,0.5c-0.1,0.2-0.2,0.4-0.3,0.6c-0.5,0.8-1.1,1.5-1.8,2.2c-0.6,0.5-1.2,1-1.8,1.4
	c-0.2,0.1-0.4,0.2-0.6,0.3c-0.5,0.2-0.9,0.5-1.4,0.7c-0.1,0-0.2,0.1-0.4,0.1c-0.4,0.1-0.7,0.2-1.1,0.3c-0.1,0-0.2,0-0.3,0.1
	c-0.3,0.1-0.6,0.1-0.9,0.2c-0.1,0-0.2,0-0.3,0c-0.3,0-0.5,0-0.8,0.1c-0.1,0-0.2,0-0.2,0c-0.2,0-0.5,0-0.7,0c-0.1,0-0.2,0-0.2,0
	c-0.2,0-0.4,0-0.6-0.1c-0.1,0-0.2,0-0.2,0c-0.2,0-0.4-0.1-0.6-0.1c-0.1,0-0.1,0-0.2,0c-0.2,0-0.4-0.1-0.6-0.1c0,0-0.1,0-0.1,0
	c-0.2-0.1-0.4-0.1-0.6-0.2c0-0.1-0.1,0-0.2-0.1c-0.2-0.1-0.4-0.2-0.6-0.2c-0.1-0.1-0.1-0.1-0.2-0.1c-0.1-0.1-0.3-0.1-0.4-0.2
	c-0.1-0.1-0.1-0.1-0.2-0.1c-0.1-0.1-0.3-0.2-0.4-0.2c-0.1-0.1-0.1-0.1-0.2-0.1C3.9,10.1,3.7,10,3.6,10C3.5,9.9,3.5,9.9,3.4,9.8
	C3.2,9.7,3.1,9.6,3,9.5c0,0-0.1-0.1-0.1-0.1C2.7,9.3,2.6,9.2,2.5,9.1C2.4,9.1,2.4,9,2.3,9C2.2,8.8,2.1,8.7,2,8.6
	C1.9,8.6,1.9,8.5,1.8,8.5C1.7,8.4,1.6,8.2,1.5,8.1C1.4,8.1,1.4,8,1.3,7.9C1.2,7.8,1.1,7.7,1,7.6c0,0-0.1-0.1-0.1-0.1
	C0.8,7.3,0.7,7.2,0.6,7c0-0.1-0.1-0.2-0.1-0.2C0.4,6.7,0.3,6.6,0.2,6.5c0-0.1,0-0.1-0.1-0.2c-0.3-0.3,0-0.6,0.1-0.8
	C0.4,5.2,0.6,5,0.7,4.7C1.4,3.9,2.1,3.1,3,2.4c0.1-0.1,0.2-0.1,0.3-0.2C3.5,2,3.7,1.9,4,1.7c0.5-0.3,1-0.6,1.5-0.8
	c0.1-0.1,0.3-0.1,0.4-0.2c0.4-0.1,0.7-0.2,1.1-0.4c0.1,0,0.2-0.1,0.3-0.1C7.7,0.2,8,0.2,8.3,0.1c0.1,0,0.2,0,0.3,0
	c0.3,0,0.5,0,0.8-0.1c0.1,0,0.2,0,0.2,0c0.3,0,0.5,0,0.8,0C10.5,0,10.6,0,10.6,0z M14.4,2.7c0,0.1,0.1,0.1,0.1,0.2
	c0.1,0.2,0.2,0.3,0.3,0.5c0,0,0,0.1,0.1,0.1C15,3.7,15.1,3.9,15.1,4c0,0.1,0.1,0.1,0.1,0.2c0.1,0.2,0.1,0.4,0.2,0.5
	c0,0.1,0,0.2,0.1,0.2c0,0.2,0,0.4,0.1,0.6c0,0.1,0,0.2,0,0.2c0,0.3,0,0.5,0,0.8c0,0.1,0,0.2-0.1,0.3c-0.1,0.3-0.2,0.7-0.3,1
	c-0.1,0.1-0.1,0.3-0.2,0.4c-0.5,0.9-1.3,1.7-2.2,2.3c0.4,0,0.8-0.2,1.2-0.3c0.2,0,0.3-0.1,0.4-0.2c0.6-0.2,1.1-0.5,1.6-0.9
	c0.4-0.2,0.7-0.5,1-0.7C17.7,8,18.5,7.2,19,6.2c0.2-0.2,0.2-0.3,0-0.5C19,5.6,19,5.6,18.9,5.5c0,0,0-0.1-0.1-0.1
	c-0.1-0.2-0.2-0.3-0.3-0.4c0-0.1-0.1-0.1-0.1-0.2c-0.1-0.2-0.2-0.3-0.3-0.4c0-0.1-0.1-0.1-0.2-0.2c-0.1-0.1-0.2-0.2-0.3-0.3
	c-0.1-0.1-0.1-0.1-0.2-0.2c-0.1-0.1-0.2-0.2-0.3-0.3c0-0.1-0.1-0.1-0.1-0.1c-0.1-0.1-0.3-0.2-0.4-0.3c-0.1-0.1-0.1-0.1-0.2-0.1
	c-0.1-0.1-0.3-0.2-0.4-0.3c0,0,0,0-0.1-0.1c-0.1-0.1-0.3-0.2-0.5-0.3c-0.1-0.1-0.1-0.1-0.2-0.1C15,2,14.8,1.9,14.6,1.8
	c-0.7-0.3-1.3-0.6-2.1-0.7c0.6,0.3,1.1,0.8,1.6,1.2C14.2,2.5,14.3,2.6,14.4,2.7z M4.8,9.8C5,9.9,5.1,10,5.3,10
	c0.7,0.4,1.4,0.6,2.1,0.8C6.8,10.4,6.3,10,5.8,9.4C5.7,9.3,5.6,9.1,5.5,9c0,0,0,0,0-0.1C5.3,8.8,5.3,8.6,5.2,8.4
	c0-0.1,0-0.1-0.1-0.2C5,8.1,4.9,7.9,4.9,7.7c0-0.1,0-0.1-0.1-0.2c0-0.2-0.1-0.4-0.1-0.5c0-0.1,0-0.2,0-0.2c0-0.2,0-0.5-0.1-0.7
	c0-0.1,0-0.2,0-0.2c0-0.3,0-0.5,0.1-0.8c0-0.1,0.1-0.2,0.1-0.3C4.8,4.3,5,3.9,5.1,3.5C5.2,3.4,5.3,3.2,5.4,3
	c0.5-0.7,1.1-1.3,1.9-1.8c-0.5,0.1-1,0.3-1.5,0.5C5.7,1.7,5.6,1.8,5.4,1.8C4.8,2.1,4.1,2.5,3.5,3C2.7,3.6,2,4.3,1.4,5.1
	C1.3,5.2,1.2,5.4,1,5.6C0.8,6,0.8,6,1.1,6.3c0,0,0,0.1,0.1,0.1c0.1,0.2,0.2,0.3,0.3,0.4c0,0.1,0.1,0.1,0.2,0.2
	c0.1,0.1,0.2,0.2,0.3,0.3C1.9,7.5,2,7.5,2,7.6c0.1,0.1,0.2,0.2,0.3,0.3C2.4,8,2.5,8,2.5,8.1c0.1,0.1,0.2,0.2,0.3,0.3
	C2.9,8.5,3,8.5,3,8.5c0.1,0.1,0.3,0.3,0.4,0.4c0,0,0.1,0.1,0.1,0.1C3.7,9.1,3.9,9.2,4,9.3c0,0.1,0.1,0.1,0.1,0.1
	c0.2,0.1,0.3,0.2,0.5,0.3C4.7,9.7,4.8,9.8,4.8,9.8z M6.8,9.4c0,0,0.1,0.1,0.1,0.1c0.1,0.1,0.3,0.3,0.4,0.3C7.4,9.9,7.5,9.9,7.6,10
	c0.2,0.1,0.3,0.2,0.5,0.3c0,0,0.1,0.1,0.1,0.1c0.2,0.1,0.4,0.2,0.6,0.2c0.1,0.1,0.2,0.1,0.2,0.1c0.2,0.1,0.4,0.1,0.6,0.1
	c0.1,0,0.2,0,0.3,0c0.2,0,0.5,0,0.7,0c0.1,0,0.2,0,0.3-0.1c0.4-0.1,0.8-0.2,1.1-0.4c0.9-0.4,1.6-1.1,2-2c0.2-0.4,0.3-0.7,0.4-1.1
	c0-0.1,0.1-0.2,0.1-0.3c0-0.2,0.1-0.5,0-0.7c0-0.1,0-0.2,0-0.3c0-0.2,0-0.4-0.1-0.6c0-0.1,0-0.2-0.1-0.2c0-0.2-0.1-0.4-0.2-0.6
	c0-0.1,0-0.1-0.1-0.1c-0.1-0.2-0.1-0.3-0.3-0.5c0-0.1-0.1-0.1-0.1-0.2c-0.1-0.2-0.2-0.3-0.3-0.4c0-0.1,0-0.1-0.1-0.1
	c-0.1-0.1-0.2-0.2-0.3-0.3c0-0.1-0.1-0.1-0.1-0.1c-0.1-0.1-0.3-0.2-0.4-0.3c0-0.1-0.1-0.1-0.2-0.1c-0.2-0.1-0.3-0.2-0.5-0.3
	c-0.1-0.1-0.2-0.1-0.2-0.1c-0.2-0.1-0.4-0.1-0.5-0.2c-0.1,0-0.1-0.1-0.2,0c-0.2-0.1-0.4-0.1-0.6-0.1c-0.1,0-0.2,0-0.3,0
	c-0.3,0-0.5,0-0.8,0.1c-0.1,0-0.2,0-0.3,0.1c-0.5,0.1-1,0.4-1.5,0.7C6.4,2.8,5.8,3.6,5.5,4.7C5.5,4.8,5.4,4.9,5.4,5.1
	C5.4,5.3,5.3,5.6,5.3,5.9c0,0.1,0,0.2,0,0.3c0,0.2,0,0.4,0.1,0.6c0,0.1,0,0.1,0,0.2c0,0.2,0.1,0.4,0.2,0.5c0,0.1,0,0.2,0.1,0.2
	C5.8,8,5.9,8.2,6,8.3c0,0.1,0,0.1,0.1,0.2c0.1,0.2,0.2,0.3,0.3,0.4C6.4,9,6.5,9,6.5,9C6.6,9.2,6.7,9.3,6.8,9.4z M12,3.6
	c-0.1-0.1-0.1-0.1-0.2-0.2c-0.1-0.1-0.3-0.1-0.4-0.2c-0.1,0-0.1-0.1-0.2-0.1C11,3.1,10.9,3,10.7,3c-0.1,0-0.2,0-0.2,0
	c-0.2,0-0.5,0-0.7,0C9.6,2.9,9.5,3,9.4,3C9.2,3,9.1,3.1,9,3.1C8.8,3.2,8.7,3.2,8.8,3.4c0.1,0.1,0.1,0.1,0.1,0.2
	c0.3,0.8-0.4,1.4-1.2,1.3c-0.1,0-0.1,0-0.2-0.1c-0.1,0-0.2-0.1-0.3-0.2C7.2,4.9,7.1,5.1,7,5.3C7,5.4,7,5.5,7,5.7c0,0.2,0,0.5,0,0.7
	c0,0.1,0,0.2,0,0.2C7.1,6.8,7.2,7,7.2,7.1c0,0.1,0.1,0.1,0.1,0.2c0.1,0.1,0.1,0.3,0.2,0.4c0.1,0.1,0.1,0.1,0.2,0.2
	C7.8,8,7.9,8.1,8,8.2c0.1,0,0.1,0.1,0.2,0.1c0.2,0.1,0.3,0.2,0.5,0.3c0,0,0.1,0,0.1,0.1c0.2,0.1,0.4,0.1,0.5,0.2c0.1,0,0.1,0,0.2,0
	c0.2,0,0.4,0,0.6,0c0.1,0,0.2,0,0.3,0c0.4-0.1,0.7-0.2,1.1-0.4c0.5-0.3,0.9-0.7,1.2-1.2c0.2-0.3,0.3-0.7,0.4-1.1c0-0.1,0-0.2,0-0.3
	c0-0.2,0-0.4,0-0.6c0-0.1,0-0.1,0-0.2c-0.1-0.2-0.1-0.4-0.2-0.5c0,0-0.1-0.1-0.1-0.1c-0.1-0.2-0.2-0.3-0.3-0.5
	c0-0.1-0.1-0.1-0.1-0.2C12.2,3.8,12.1,3.7,12,3.6z"/>
</svg>
