<?xml version="1.0" encoding="utf-8"?>
<!-- Generator: Adobe Illustrator 22.1.0, SVG Export Plug-In . SVG Version: 6.00 Build 0)  -->
<svg version="1.1" id="Capa_1" xmlns="http://www.w3.org/2000/svg" xmlns:xlink="http://www.w3.org/1999/xlink" x="0px" y="0px"
	 viewBox="0 0 223.8 62.3" style="enable-background:new 0 0 223.8 62.3;" xml:space="preserve">
<style type="text/css">
	.st0{opacity:0.55;clip-path:url(#SVGID_2_);}
	.st1{fill:#004483;}
	.st2{opacity:5.000000e-02;}
	.st3{clip-path:url(#SVGID_4_);fill:#FFFFFF;}
	.st4{fill:none;stroke:#265D9A;stroke-width:1.5;stroke-miterlimit:10;}
	.st5{fill:#86878A;}
	.st6{opacity:0.85;fill:#FFFFFF;}
	.st7{opacity:0.85;fill:#9C9EA0;}
	.st8{fill:#FFFFFF;}
	.st9{fill:#C37930;}
	.st10{opacity:0.75;}
	.st11{fill:#2B6BA6;}
	.st12{fill:#265D9A;}
	.st13{fill:none;stroke:#265D9A;stroke-width:0.25;stroke-miterlimit:10;}
	.st14{fill:#2ECF6E;}
	.st15{clip-path:url(#SVGID_6_);fill:#FFFFFF;}
	.st16{clip-path:url(#SVGID_6_);}
	.st17{fill:#054B8C;}
	.st18{fill:#B02E33;}
	.st19{fill:#B33439;}
	.st20{fill:#B22E33;}
	.st21{fill:#AF2D32;}
	.st22{fill:#25A9C8;}
	.st23{clip-path:url(#SVGID_8_);fill:#FFFFFF;}
	.st24{clip-path:url(#SVGID_8_);fill:#B33439;}
	.st25{fill:#C2C2C2;}
	.st26{opacity:0.55;}
	.st27{fill:#F0F0F0;}
	.st28{clip-path:url(#SVGID_10_);fill:#FFFFFF;}
	.st29{opacity:0.5;fill:none;stroke:#BDBDBD;stroke-miterlimit:10;}
	.st30{fill:#D7D7D7;}
	.st31{fill:#2F4C86;}
	.st32{fill:#E0E1E2;}
	.st33{fill:#A3D423;}
	.st34{fill:#27608C;}
	.st35{fill:#749223;}
	.st36{fill:#FF0000;}
	.st37{fill:#CD7535;}
	.st38{opacity:0.8;}
	.st39{opacity:0.3;fill:#FFFFFF;stroke:#FFFFFF;stroke-miterlimit:10;}
	.st40{fill:#9C9EA0;}
	.st41{fill:none;stroke:#CD7535;stroke-width:3;stroke-miterlimit:10;}
	.st42{fill:url(#SVGID_11_);stroke:#265D9A;stroke-miterlimit:10;}
	.st43{fill:url(#SVGID_12_);stroke:#265D9A;stroke-miterlimit:10;}
	.st44{fill:#F2F2F2;}
	.st45{fill:#040707;}
	.st46{fill:#6F7175;}
	.st47{fill:#01CBF6;}
	.st48{fill:#00BFF4;}
	.st49{fill:#707276;}
	.st50{fill:#04E677;}
	.st51{fill:#04D7F6;}
	.st52{fill:#F5C202;}
	.st53{fill:#D73155;}
	.st54{fill:#E8354C;}
	.st55{fill:#F5CD05;}
	.st56{fill:#F23A45;}
	.st57{fill:#4D4D4D;}
	.st58{opacity:0.5;}
	.st59{opacity:0.55;clip-path:url(#SVGID_14_);}
	.st60{fill:none;stroke:#265D9A;stroke-width:3;stroke-miterlimit:10;}
	.st61{fill:none;stroke:#808080;stroke-width:1.5;stroke-miterlimit:10;}
	.st62{fill:#6D6D6D;}
	.st63{clip-path:url(#SVGID_20_);fill:#FFFFFF;}
	.st64{clip-path:url(#SVGID_20_);}
	.st65{clip-path:url(#SVGID_22_);fill:#FFFFFF;}
	.st66{clip-path:url(#SVGID_22_);fill:#B33439;}
	.st67{opacity:7.000000e-02;fill:#25A9C8;}
	.st68{opacity:0.55;clip-path:url(#SVGID_24_);}
	.st69{opacity:0.5;fill:none;stroke:#C2C2C2;stroke-miterlimit:10;}
	.st70{opacity:0.55;clip-path:url(#SVGID_26_);}
	.st71{fill:none;stroke:#A9A9A9;stroke-width:0.5;stroke-miterlimit:10;}
	.st72{clip-path:url(#SVGID_28_);fill:#FFFFFF;}
	.st73{clip-path:url(#SVGID_28_);}
	.st74{clip-path:url(#SVGID_30_);fill:#FFFFFF;}
	.st75{clip-path:url(#SVGID_30_);fill:#B33439;}
	.st76{fill:#0186CC;}
	.st77{fill:#015593;}
	.st78{fill:#085A97;}
	.st79{fill:#2496D3;}
	.st80{fill:#10619D;}
	.st81{fill:#4C90C4;}
	.st82{fill:#2673AC;}
	.st83{fill:#1A68A3;}
	.st84{fill:#327CB2;}
	.st85{fill:#3A81B8;}
	.st86{fill:#64A3D3;}
	.st87{fill:#00427A;}
	.st88{fill:#F7FAFB;}
	.st89{fill:#7EC0E4;}
	.st90{fill:#C0E0F1;}
	.st91{fill:#FBFCFC;}
	.st92{fill:#EEEEEE;}
	.st93{fill:none;stroke:#050505;stroke-width:0.5;stroke-miterlimit:10;}
	.st94{fill:#03397D;}
	.st95{fill:#C5CDD4;}
	.st96{fill:#C6CED4;}
	.st97{fill:#073B7E;}
	.st98{fill:#063B7E;}
	.st99{fill:#083C7F;}
	.st100{fill:#0C3E80;}
	.st101{fill:#0A3D7F;}
	.st102{fill:#D1D7DC;}
	.st103{fill:#EDEFF0;}
	.st104{fill:#DFE3E6;}
	.st105{fill:#0E4080;}
	.st106{fill:#FCFBFC;}
	.st107{fill:#878686;}
	.st108{fill:#6285C1;}
	.st109{fill:#E09F1B;}
	.st110{fill:#D07630;}
	.st111{fill:#5F7FBD;}
	.st112{fill:#039DDF;}
	.st113{fill:#3E579F;}
	.st114{fill:#8BC5DF;}
	.st115{fill:#E7BC3E;}
	.st116{fill:#DFEEF6;}
	.st117{fill:#888787;}
	.st118{fill:#4B4D96;}
	.st119{fill:#969595;}
	.st120{fill:#5FB2D1;}
	.st121{fill:#B1D5E7;}
	.st122{fill:#FFFFFF;stroke:#4D4D4D;stroke-width:0.15;stroke-miterlimit:10;}
	.st123{fill:none;stroke:#999999;stroke-width:0.5;stroke-miterlimit:10;}
	.st124{fill:#CF7535;}
	.st125{fill:#2F4C88;}
	.st126{fill:none;stroke:#CCCCCC;stroke-width:0.5;stroke-miterlimit:10;}
	.st127{fill:none;stroke:#2F4C88;stroke-width:0.5;stroke-miterlimit:10;}
	.st128{fill:#EFEFEF;}
	.st129{fill:none;stroke:#666666;stroke-width:0.5;stroke-miterlimit:10;}
	.st130{fill:#A9A9A9;}
	.st131{fill:#025290;}
	.st132{fill:#055492;}
	.st133{opacity:0.55;clip-path:url(#SVGID_34_);}
	.st134{fill:none;stroke:#FFFFFF;stroke-width:0.5;stroke-miterlimit:10;}
	.st135{fill:none;stroke:#4D4D4D;stroke-miterlimit:10;}
	.st136{fill:none;stroke:#FFFFFF;stroke-width:3;stroke-miterlimit:10;}
</style>
<g>
	<g>
		<circle class="st76" cx="31.7" cy="31" r="31"/>
		<g>
			<path class="st76" d="M15.1,58C6.5,52.8,1.5,45.3,0.2,35.3C-1.6,20.6,7.5,6.8,21.7,2.4C35.3-1.8,49.9,3.8,57.3,16
				c0.2,0.4,0.4,0.8,0.6,1.2c-1.3,0.2-2.5,0.8-3.6,1.4c-0.9,0.2-1.7,0.4-2.4,1c-0.8,0.2-1.7,0.5-2.4,0.9C49,20.7,48.5,20.9,48,21
				c-1.4,0.5-2.7,1-4.1,1.5c-0.6-0.7-1.3-1.2-1.9-1.8c-0.4-0.7-1.1-0.9-1.7-1.5c-0.4-0.7-1.1-1-1.7-1.4c-0.5-0.9-1.4-1.3-2.2-1.9
				c-0.9-1.1-2.1-1.9-3.1-2.8c-0.5-0.4-0.9-1.1-1.7-1.2c-0.4-0.8-1.2-1.2-1.8-1.8c-0.7-0.8-1.3-0.7-1.9,0.2c-1.9,1.4-3.5,3-5.3,4.6
				c-2.8,2.5-5.7,5-8.5,7.5c-1.1,1-1.2,1.6,0.3,2c2.2,0.5,2.1,2,2,3.6c0,0.6,0,1.1,0,1.7c0,0.6-0.2,0.8-0.8,0.9
				c-1.9,0.3-3.8,0.7-5.4,1.8c-0.4,0.3-0.8,0.6-0.8,1.2c0.1,2.5,0,5,0.1,7.6c0,0.6,0.5,0.9,1,1.1c1.7,0.9,3.6,1.3,5.5,1.6
				c0,0.5,0,1,0,1.4C15.7,49.4,15.2,53.7,15.1,58z"/>
			<path class="st76" d="M58.4,18.1c2.5,5,3.7,10.3,3.1,15.8C60.4,45.7,54.4,54.1,44,59.4c-0.2,0.1-0.5,0.2-0.8,0.3
				c-0.1-3.1-0.7-6.2-0.8-9.3c-0.1-2.3-0.2-4.5-0.7-6.7c2-0.1,4-0.7,5.8-1.6c0.4-0.2,0.7-0.5,0.7-1c0.5-1.2,0.2-2.5,0.2-3.8
				c0-1.5,0.3-3.1-0.2-4.6c0.1-0.1,0.3-0.1,0.4-0.2c0.6,0.1,1.2,0.3,1.8,0.4c0.8,0.5,1.7,0.6,2.6,0.7c0.8,0.4,1.7,0.6,2.6,0.7
				c0.6,0.5,1.4,0.4,2.1,0.7c1.1,0.5,1.3,0,1.3-1c-0.2-1.9-0.4-3.8-0.5-5.7c-0.2-3.1-0.4-6.2-0.7-9.2C57.9,18.6,57.8,18.2,58.4,18.1
				z"/>
			<path class="st77" d="M15.1,58c0.1-4.3,0.6-8.7,1-13c0-0.5,0-1,0-1.4c0.1-0.3,0.2-0.5,0.2-0.8c-0.1-0.9,0.3-1.1,1.1-1.2
				c2.9-0.4,5.8-0.6,8.7-0.7c-0.2,0.6-0.3,1.2-0.2,1.9c0,5.9,0,11.8,0,17.7c0,0.5,0.2,1-0.3,1.3c-0.2,0-0.3,0-0.5-0.1
				c-0.2-0.3-0.5-0.2-0.8-0.2C21.1,61,18,59.8,15.1,58z"/>
			<path class="st78" d="M25.7,61.8c0.4-0.4,0.3-0.9,0.3-1.3c0-5.9,0-11.8,0-17.7c0-0.6,0.1-1.3,0.2-1.9c1.2,0,2.4,0,3.6,0
				c0,7.1,0,14.2,0,21.3C28.4,62.4,27,62.2,25.7,61.8z"/>
			<path class="st79" d="M58.4,18.1c-0.6,0.1-0.5,0.5-0.5,0.9c0.3,3.1,0.5,6.2,0.7,9.2c0.1,1.9,0.3,3.8,0.5,5.7c0.1,1-0.1,1.5-1.3,1
				c-0.7-0.3-1.5-0.2-2.1-0.7c0.1-0.7-0.2-1.3-0.2-1.9c-0.2-3.8-0.5-7.7-0.7-11.5c-0.1-0.8-0.1-1.6-0.5-2.3c1.2-0.6,2.3-1.2,3.6-1.4
				C58.2,17.4,58.3,17.7,58.4,18.1z"/>
			<path class="st80" d="M29.8,62.3c0-7.1,0-14.2,0-21.3c1,0,1.9,0,2.9,0c-0.3,1.1-0.2,2.2-0.2,3.3c0,5.5,0,11,0,16.5
				c0,0.5,0.1,1-0.2,1.5C31.4,62.3,30.6,62.3,29.8,62.3z"/>
			<path class="st81" d="M41.8,43.6c0.4,2.2,0.5,4.5,0.7,6.7c-0.6,0.1-0.4,0.6-0.4,0.9c0,3,0,6,0,8.9c-0.8,0.4-1.6,0.7-2.4,0.9
				c-0.1-0.5-0.2-1.1-0.2-1.6c0-6,0-12,0-18C41.8,41.4,41.8,41.5,41.8,43.6z"/>
			<path class="st82" d="M36.5,61.8c-0.6,0.1-1.3,0.4-1.9,0.2c0-7,0-13.9,0-20.9c0.8,0,1.6,0,2.4,0c0,6.4,0,12.7,0,19.1
				C37,60.8,37.1,61.4,36.5,61.8z"/>
			<path class="st83" d="M34.6,41.2c0,7,0,13.9,0,20.9c-0.8,0.2-1.6,0.3-2.4,0.2c0.3-0.5,0.2-1,0.2-1.5c0-5.5,0-11,0-16.5
				c0-1.1-0.1-2.2,0.2-3.3C33.3,41,34,40.7,34.6,41.2z"/>
			<path class="st84" d="M36.5,61.8c0.6-0.4,0.5-1,0.5-1.5c0-6.4,0-12.7,0-19.1c0.4,0,0.8-0.1,1.2,0.2c0,6.7,0,13.3,0,20
				C37.7,61.6,37.1,61.8,36.5,61.8z"/>
			<path class="st85" d="M38.2,61.4c0-6.7,0-13.3,0-20c0.4,0,0.8,0,1.2,0.1c0,6,0,12,0,18c0,0.6,0.1,1.1,0.2,1.6
				C39.1,61.2,38.7,61.4,38.2,61.4z"/>
			<path class="st86" d="M42,60.2c0-3,0-6,0-8.9c0-0.4-0.2-0.8,0.4-0.9c0,3.1,0.7,6.2,0.8,9.3C42.9,60,42.5,60.1,42,60.2z"/>
			<path class="st78" d="M24.4,61.6c0.3,0,0.6-0.1,0.8,0.2C24.9,61.8,24.7,61.8,24.4,61.6z"/>
			<path class="st77" d="M9.7,41c0-2.5,0-5-0.1-7.6c0-0.6,0.3-0.9,0.8-1.2c1.6-1.1,3.5-1.5,5.4-1.8c0.6-0.1,0.8-0.3,0.8-0.9
				c0-0.6,0-1.1,0-1.7c0.1-1.6,0.2-3.1-2-3.6c-1.4-0.4-1.4-1-0.3-2c2.8-2.5,5.7-5,8.5-7.5c0.4,0.5,0.5,1.1,0.5,1.8
				c0,2.1,0,4.2,0,6.3c-1,0.1-2.1,0.1-3.1,0.2c-0.5,0-0.8,0.2-0.8,0.8c0,1.8,0,3.7,0,5.5c0,0.6,0.2,0.7,0.8,0.7
				c1.3-0.1,2.5-0.2,3.8-0.2c0,2.8,0,5.7,0,8.5C19.1,38.5,14.2,38.7,9.7,41z"/>
			<path class="st87" d="M9.7,41c4.5-2.3,9.4-2.5,14.4-2.7c1.5-0.4,3-0.1,4.6-0.2c1.6,0,3.2,0,4.8,0c0.7,0,1.3,0.4,1.9,0.2
				c1.1,0.1,2.3,0,3.4,0.2c0.5,0,1,0,1.4,0.1c1,0.2,1.9,0.3,2.9,0.5c0.6,0.1,1.3,0.3,1.9,0.4c1.2,0.4,2.4,0.7,3.4,1.5
				c0.1,0.5-0.2,0.8-0.7,1c-1.8,0.9-3.8,1.5-5.8,1.6c0-2.1,0-2.1-2.4-2.1c-0.4,0-0.8,0-1.2-0.1c-0.4-0.3-0.8-0.2-1.2-0.2
				c-0.8,0-1.6,0-2.4,0C34,40.7,33.3,41,32.7,41c-1,0-1.9,0-2.9,0c-1.2,0-2.4,0-3.6,0c-2.9,0.1-5.8,0.3-8.7,0.7
				c-0.9,0.1-1.2,0.3-1.1,1.2c0,0.3-0.1,0.5-0.2,0.8c-1.9-0.3-3.8-0.7-5.5-1.6C10.2,41.8,9.7,41.6,9.7,41z"/>
			<path class="st78" d="M28.6,38.1c-1.5,0.1-3.1-0.2-4.6,0.2c0-2.8,0-5.7,0-8.5c0.9,0,1.7-0.1,2.6-0.1c0.6,0,0.8-0.2,0.8-0.8
				c0-1.8,0-3.6,0-5.4c0-0.6-0.2-0.7-0.8-0.7c-1.1,0.1-2.2,0-3.3,0c0-2.1,0-4.2,0-6.3c0-0.6-0.1-1.3-0.5-1.8
				c1.7-1.5,3.4-3.2,5.3-4.6c0.7,0.3,0.5,0.9,0.5,1.5C28.6,20.5,28.6,29.3,28.6,38.1z"/>
			<path class="st80" d="M28.6,38.1c0-8.8,0-17.6,0-26.4c0-0.5,0.2-1.2-0.5-1.5c0.6-0.9,1.2-1,1.9-0.2c0.5,0.6,1.3,1.1,1.8,1.8
				c0,3.6,0,7.2,0,10.8c-0.6,0-0.6,0.4-0.6,0.9c0,1.2,0,2.3,0,3.5c0,2.5,0,2.5,2.4,2.7c0,2.8,0,5.5-0.1,8.3
				C31.8,38.1,30.2,38.1,28.6,38.1z"/>
			<path class="st88" d="M48.7,32.4c-0.1,0.1-0.3,0.1-0.4,0.2c-1-0.7-2.3-0.8-3.4-1.2c-0.6-0.2-1.2-0.5-1.9-0.5
				c-1.3-0.2-1.5-1-1.5-2.2c0.1-1.7,0-3.5,0-5.3c0.9-0.1,1.7-0.5,2.4-0.9c1.4-0.5,2.7-1,4.1-1.5c0,1.1,0,2.1,0.1,3.2
				C48.3,27,48.5,29.7,48.7,32.4z"/>
			<path class="st83" d="M31.7,22.7c0-3.6,0-7.2,0-10.8c0.8,0.1,1.1,0.8,1.7,1.2c1.1,0.9,2.2,1.7,3.1,2.8c-0.4,2.2-0.2,4.5-0.2,6.7
				C34.7,22.7,33.2,22.7,31.7,22.7z"/>
			<path class="st85" d="M41.6,23.4c0,1.8,0.1,3.5,0,5.3c-0.1,1.2,0.2,2,1.5,2.2c0,2.7,0,5.4,0,8.1c-1-0.2-1.9-0.3-2.9-0.5
				c0-4.8,0-9.6,0-14.5c0-1.6-0.1-3.2,0.2-4.7c0.5,0.5,1.3,0.8,1.7,1.5C41.1,21.5,41.7,22.6,41.6,23.4z"/>
			<path class="st86" d="M54.3,18.6c0.4,0.7,0.4,1.5,0.5,2.3c0.3,3.8,0.5,7.7,0.7,11.5c0,0.6,0.3,1.2,0.2,1.9
				c-0.9-0.1-1.8-0.3-2.6-0.7c0.1-4.2-0.6-8.4-0.7-12.6c0-0.5-0.1-1-0.5-1.4C52.6,19,53.4,18.7,54.3,18.6z"/>
			<path class="st89" d="M51.8,19.5c0.4,0.4,0.5,1,0.5,1.4c0.1,4.2,0.9,8.4,0.7,12.6c-0.9-0.2-1.8-0.3-2.6-0.7
				c-0.2-3-0.3-6.1-0.6-9.1c-0.1-1.1,0.1-2.2-0.5-3.2C50.2,20,51,19.8,51.8,19.5z"/>
			<path class="st84" d="M40.3,19.3c-0.4,1.6-0.2,3.2-0.2,4.7c0,4.8,0,9.6,0,14.5c-0.5,0-1,0-1.4-0.1c0-2.8-0.1-5.7-0.1-8.5
				c0-1.4,0.1-2.8,0-4.2c0-1,0.3-2.1-0.2-3.1c0-0.4,0-0.9,0-1.3c0.1-1.2-0.3-2.4,0.2-3.5C39.3,18.3,40,18.6,40.3,19.3z"/>
			<path class="st90" d="M49.4,20.5c0.6,1,0.4,2.2,0.5,3.2c0.3,3,0.4,6.1,0.6,9.1c-0.6-0.1-1.2-0.3-1.8-0.4
				c-0.2-2.7-0.4-5.4-0.6-8.1C48,23.2,48,22.1,48,21C48.5,20.9,49,20.7,49.4,20.5z"/>
			<path class="st82" d="M38.7,17.9c-0.5,1.1-0.1,2.3-0.2,3.5c0,0.4,0,0.9,0,1.3c-0.7,0-1.4,0-2.2,0c0.1-2.2-0.2-4.5,0.2-6.7
				C37.2,16.6,38.1,17,38.7,17.9z"/>
			<path class="st81" d="M41.6,23.4c0.2-0.9-0.5-1.9,0.5-2.7c0.7,0.6,1.4,1.1,1.9,1.8C43.2,23,42.4,23.3,41.6,23.4z"/>
			<path class="st86" d="M44.9,31.4c1.1,0.4,2.4,0.4,3.4,1.2c0.5,1.5,0.2,3.1,0.2,4.6c0,1.3,0.3,2.5-0.2,3.8c-1-0.8-2.2-1.1-3.4-1.5
				C44.9,36.8,44.9,34.1,44.9,31.4z"/>
			<path class="st91" d="M23.3,22.8c1.1,0,2.2,0,3.3,0c0.6,0,0.8,0.1,0.8,0.7c0,1.8,0,3.6,0,5.4c0,0.6-0.2,0.8-0.8,0.8
				c-0.9,0-1.7,0.1-2.6,0.1c-1.3,0.1-2.5,0.1-3.8,0.2c-0.6,0.1-0.8-0.1-0.8-0.7c0-1.8,0-3.7,0-5.5c0-0.6,0.2-0.8,0.8-0.8
				C21.2,23,22.3,22.9,23.3,22.8z"/>
			<path class="st82" d="M38.6,30c0,2.8,0.1,5.7,0.1,8.5c-1.1-0.3-2.2-0.1-3.4-0.2c0-2.8,0-5.6,0-8.4C36.4,29.9,37.5,30,38.6,30z"/>
			<path class="st83" d="M35.3,29.9c0,2.8,0,5.6,0,8.4c-0.7,0.2-1.3-0.2-1.9-0.2c0-2.8,0-5.5,0.1-8.3C34.1,29.7,34.7,29.7,35.3,29.9
				z"/>
			<path class="st81" d="M44.9,31.4c0,2.7,0,5.4,0,8.1c-0.6-0.1-1.3-0.3-1.9-0.4c0-2.7,0-5.4,0-8.1C43.7,30.9,44.3,31.2,44.9,31.4z"
				/>
			<path class="st88" d="M35.3,29.9c-0.6-0.1-1.2-0.2-1.9-0.1c-2.4-0.2-2.4-0.2-2.4-2.7c0-1.2,0-2.3,0-3.5c0-0.5,0-0.9,0.6-0.9
				c1.5,0,3,0,4.6,0c0.7,0,1.4,0,2.2,0c0.4,1,0.2,2.1,0.2,3.1c0.1,1.4,0,2.8,0,4.2C37.5,30,36.4,29.9,35.3,29.9z"/>
		</g>
		<path class="st76" d="M80.3,41.4c1.5-0.4,2.9-0.6,4.4-0.8c0.7-0.1,1.5-0.1,2.2-0.2l2.2-0.1l127.1,0.1c0.7,0.1,1.5,0.1,2.2,0.2
			c1.5,0.1,2.9,0.4,4.4,0.8c-1.5,0.4-2.9,0.6-4.4,0.8c-0.7,0.1-1.5,0.1-2.2,0.2L89.1,42.4l-2.2-0.1c-0.7-0.1-1.5-0.1-2.2-0.2
			C83.3,42.1,81.8,41.8,80.3,41.4z"/>
		<g>
			<path class="st130" d="M91.6,48.1l-0.7,0.8c-0.3-0.4-0.7-0.6-1.1-0.6c-0.7,0-1.3,0.6-1.3,1.3c0,0.8,0.5,1.3,1.3,1.3
				c0.4,0,0.8-0.2,1.1-0.5l0.7,0.7c-0.5,0.5-1.2,0.8-1.9,0.8c-1.4,0-2.4-1-2.4-2.3c0-1.3,1-2.3,2.4-2.3
				C90.4,47.3,91.1,47.6,91.6,48.1z"/>
			<path class="st130" d="M97.6,49.6c0,1.3-1,2.3-2.5,2.3c-1.4,0-2.4-1-2.4-2.3c0-1.3,1-2.3,2.4-2.3C96.5,47.3,97.6,48.3,97.6,49.6z
				 M93.9,49.7c0,0.8,0.6,1.4,1.3,1.4c0.7,0,1.3-0.6,1.3-1.4c0-0.8-0.6-1.3-1.3-1.3C94.4,48.3,93.9,48.9,93.9,49.7z"/>
			<path class="st130" d="M101.2,50.6L101.2,50.6h-0.9v1.3h-1.2v-4.5h2c1.2,0,1.9,0.6,1.9,1.6c0,0.7-0.3,1.2-0.8,1.5l1,1.5h-1.3
				L101.2,50.6z M101.2,49.7c0.5,0,0.8-0.3,0.8-0.7c0-0.5-0.3-0.7-0.8-0.7h-0.9v1.4H101.2z"/>
			<path class="st130" d="M106.8,47.4c1.2,0,1.8,0.6,1.8,1.6c0,1.1-0.7,1.7-1.8,1.7H106v1.3h-1.2v-4.5H106.8z M106,49.7h0.8
				c0.5,0,0.8-0.3,0.8-0.7c0-0.5-0.3-0.7-0.8-0.7H106V49.7z"/>
			<path class="st130" d="M114.8,49.6c0,1.3-1,2.3-2.5,2.3c-1.4,0-2.4-1-2.4-2.3c0-1.3,1-2.3,2.4-2.3
				C113.8,47.3,114.8,48.3,114.8,49.6z M111.1,49.7c0,0.8,0.6,1.4,1.3,1.4c0.7,0,1.3-0.6,1.3-1.4c0-0.8-0.6-1.3-1.3-1.3
				S111.1,48.9,111.1,49.7z"/>
			<path class="st130" d="M118.4,50.6L118.4,50.6h-0.9v1.3h-1.2v-4.5h2c1.2,0,1.9,0.6,1.9,1.6c0,0.7-0.3,1.2-0.8,1.5l1,1.5h-1.3
				L118.4,50.6z M118.4,49.7c0.5,0,0.8-0.3,0.8-0.7c0-0.5-0.3-0.7-0.8-0.7h-0.9v1.4H118.4z"/>
			<path class="st130" d="M123.1,51.1l-0.3,0.8h-1.2l2-4.5h1.2l1.9,4.5h-1.2l-0.3-0.8H123.1z M124.1,48.5l-0.7,1.7h1.3L124.1,48.5z"
				/>
			<path class="st130" d="M131.8,48.1l-0.7,0.8c-0.3-0.4-0.7-0.6-1.1-0.6c-0.7,0-1.3,0.6-1.3,1.3c0,0.8,0.5,1.3,1.3,1.3
				c0.4,0,0.8-0.2,1.1-0.5l0.7,0.7c-0.5,0.5-1.2,0.8-1.9,0.8c-1.4,0-2.4-1-2.4-2.3c0-1.3,1-2.3,2.4-2.3
				C130.7,47.3,131.4,47.6,131.8,48.1z"/>
			<path class="st130" d="M133.3,51.9v-4.5h1.2v4.5H133.3z"/>
			<path class="st130" d="M141,49.6c0,1.3-1,2.3-2.5,2.3c-1.4,0-2.4-1-2.4-2.3c0-1.3,1-2.3,2.4-2.3C139.9,47.3,141,48.3,141,49.6z
				 M137.2,49.7c0,0.8,0.6,1.4,1.3,1.4c0.7,0,1.3-0.6,1.3-1.4c0-0.8-0.6-1.3-1.3-1.3S137.2,48.9,137.2,49.7z M138.8,47h-0.9l0.7-1.1
				l1,0.4L138.8,47z"/>
			<path class="st130" d="M145.7,51.9l-2.1-2.8v2.8h-1.1v-4.5h1l2.1,2.8v-2.8h1.1v4.5H145.7z"/>
			<path class="st130" d="M152.2,48.3v1h2v0.9h-2v1.7h-1.2v-4.5h3.4v0.9H152.2z"/>
			<path class="st130" d="M156,51.9v-4.5h1.2v4.5H156z"/>
			<path class="st130" d="M160.9,47.4c1.4,0,2.4,0.9,2.4,2.3c0,1.3-1,2.3-2.5,2.3H159v-4.5H160.9z M160.1,51h0.8
				c0.7,0,1.2-0.5,1.2-1.3c0-0.8-0.5-1.4-1.3-1.4h-0.8V51z"/>
			<path class="st130" d="M169,50c0,1.2-0.8,2-2.1,2c-1.3,0-2.1-0.8-2.1-2v-2.6h1.2V50c0,0.6,0.4,1,0.9,1c0.5,0,0.9-0.4,0.9-1v-2.6
				h1.1V50z"/>
			<path class="st130" d="M174.8,48.1l-0.7,0.8c-0.3-0.4-0.7-0.6-1.1-0.6c-0.7,0-1.3,0.6-1.3,1.3c0,0.8,0.5,1.3,1.3,1.3
				c0.4,0,0.8-0.2,1.1-0.5l0.7,0.7c-0.5,0.5-1.2,0.8-1.9,0.8c-1.4,0-2.4-1-2.4-2.3c0-1.3,1-2.3,2.4-2.3
				C173.6,47.3,174.3,47.6,174.8,48.1z"/>
			<path class="st130" d="M176.3,51.9v-4.5h1.2v4.5H176.3z"/>
			<path class="st130" d="M180.3,51.1l-0.3,0.8h-1.2l2-4.5h1.2l1.9,4.5h-1.2l-0.3-0.8H180.3z M181.3,48.5l-0.7,1.7h1.3L181.3,48.5z"
				/>
			<path class="st130" d="M187.3,50.6L187.3,50.6h-0.9v1.3h-1.2v-4.5h2c1.2,0,1.9,0.6,1.9,1.6c0,0.7-0.3,1.2-0.8,1.5l1,1.5H188
				L187.3,50.6z M187.3,49.7c0.5,0,0.8-0.3,0.8-0.7c0-0.5-0.3-0.7-0.8-0.7h-0.9v1.4H187.3z"/>
			<path class="st130" d="M190.9,51.9v-4.5h1.2v4.5H190.9z"/>
			<path class="st130" d="M195,51.1l-0.3,0.8h-1.2l2-4.5h1.2l1.9,4.5h-1.2l-0.3-0.8H195z M196,48.5l-0.7,1.7h1.3L196,48.5z"/>
			<path class="st130" d="M205.9,47.8l-0.4,0.9c-0.5-0.3-1.1-0.5-1.5-0.5c-0.3,0-0.5,0.1-0.5,0.3c0,0.8,2.4,0.3,2.4,2
				c0,0.9-0.8,1.4-1.8,1.4c-0.8,0-1.5-0.3-2.1-0.7l0.4-0.9c0.5,0.4,1.2,0.7,1.6,0.7c0.4,0,0.6-0.1,0.6-0.4c0-0.8-2.4-0.3-2.4-1.9
				c0-0.8,0.7-1.4,1.8-1.4C204.8,47.3,205.4,47.5,205.9,47.8z"/>
			<path class="st130" d="M208.4,51.4c0,0.3-0.2,0.5-0.5,0.5s-0.5-0.2-0.5-0.5c0-0.3,0.2-0.5,0.5-0.5S208.4,51.1,208.4,51.4z"/>
			<path class="st130" d="M211.1,51.1l-0.3,0.8h-1.2l2-4.5h1.2l1.9,4.5h-1.2l-0.3-0.8H211.1z M212.1,48.5l-0.7,1.7h1.3L212.1,48.5z"
				/>
			<path class="st130" d="M216.9,51.4c0,0.3-0.2,0.5-0.5,0.5c-0.3,0-0.5-0.2-0.5-0.5c0-0.3,0.2-0.5,0.5-0.5
				C216.7,50.9,216.9,51.1,216.9,51.4z"/>
		</g>
	</g>
	<g>
		<path class="st131" d="M153.9,24.5c3.9,2.5,4.8,6.9,7.4,11c-2.9,0-5.2-0.1-7.4,0c-1.5,0.1-1.9-0.9-2.4-1.8
			c-1.2-2.2-2.4-4.5-3.6-6.7c-0.6-1-1.4-1.8-2.7-1.5c-1.5,0.4-0.8,1.6-0.9,2.5c-0.1,1.1-0.2,2.2,0,3.3c0.6,3.5-0.8,4.4-4.3,4.3
			c-2.7-0.1-3.5-0.7-3.4-3.5c0.2-6.4,0.2-12.9,0-19.3c-0.1-2.2,0.7-2.8,2.8-2.7c4.5,0.3,9.1-0.3,13.6,0.4c3.4,0.5,5.5,2.1,6,5.6
			c0.5,3.5-0.8,6.1-4,7.6C154.7,24,154.4,24.3,153.9,24.5z M144.3,18c-0.3,1.9,0.2,3.1,2.4,2.8c2-0.3,4.6,0.1,4.7-2.9
			c0.1-2.5-2.1-2.4-3.9-2.4C145.8,15.6,143.7,15,144.3,18z"/>
		<path class="st131" d="M200.8,23.7c0-4.3,0-7.9,0-11.4c0-1-0.2-2.1,1.4-2c4.7,0.2,9.5-0.6,14.2,0.7c0.9,0.3,1.9,0.7,2.7,1.2
			c4.1,2.7,5.8,9.5,4.1,15.8c-1.3,4.7-4.6,7.2-10,7.7c-0.1,0-0.2,0-0.3,0c-3.9-0.1-7.7-0.1-11.6-0.2
			C200.2,31.3,201.1,27.1,200.8,23.7z M208.3,22.8c0,1.1-0.2,2.2,0,3.3c0.2,1.2-1.1,3.2,1.2,3.4c2.3,0.2,4.9,0.4,5.8-2.5
			c0.9-2.7,0.9-5.5-0.1-8.1c-1-2.6-3.5-3-5.9-2.6c-2.3,0.3-0.9,2.3-1.1,3.5C208.2,20.8,208.3,21.8,208.3,22.8z"/>
		<path class="st132" d="M119.7,10.2c8.3,0,12.6,4.4,12.6,12.7c0,8.4-4.6,13.2-12.7,13.2c-8.3,0-13.1-4.8-13-13.3
			C106.6,14.5,111.1,10.1,119.7,10.2z M124.8,22.9c0-0.8,0-1.6-0.2-2.3c-0.7-2.7-2-4.7-5.2-4.7c-3,0-4.4,1.8-5,4.4
			c-0.6,2.3-0.5,4.6,0.5,6.8c0.9,2,2.6,3.1,4.7,3c2.1-0.1,3.8-1.2,4.5-3.3C124.5,25.5,124.9,24.3,124.8,22.9z"/>
		<path class="st132" d="M91.7,10.2c4.6-0.3,8.2,1.2,10.5,5.5c0.7,1.4,1.1,2.4-1.1,2.7c-2.3,0.3-4.3,1.8-6.3-1.2
			c-1.7-2.5-6.1-1.3-7.3,1.7c-1.2,2.9-1,5.9,0.1,8.8c0.6,1.7,2.2,2.5,4,2.5c1.9,0.1,3.4-0.8,4.3-2.5c1.1-1.9,3.9-2.2,6.5-0.6
			c2,1.3,0.3,2.8-0.3,3.9c-2.8,5.2-11.3,6.9-17.1,3.5c-4.9-2.9-6.1-7.6-5.8-12.9c0.3-5.3,2.7-9.3,8-11C88.7,10,90.2,10.3,91.7,10.2z
			"/>
		<path class="st132" d="M163.6,22.9c0-3.4,0.1-6.9,0-10.3c0-1.7,0.3-2.4,2.2-2.3c5,0.1,10,0.2,15,0c2.7-0.1,2,1.6,2,3.1
			c0,1.4,0.7,3.3-2,3c-2.2-0.2-4.4,0-6.7,0c-1.5,0-2.7-0.2-2.7,2.1c0,2.5,1.6,1.9,2.9,1.9c1.2,0,2.4,0,3.7,0
			c1.8-0.1,3.4-0.3,3.3,2.5c-0.1,2.6-1.1,2.8-3.2,2.8c-6.6-0.1-6.5,0-6.6,6.5c0,1.2,0.9,3.1-0.8,3.4c-2.1,0.4-4.4,0.2-6.6-0.1
			c-0.7-0.1-0.4-1.4-0.4-2.1C163.6,29.8,163.6,26.3,163.6,22.9z"/>
		<path class="st132" d="M187,22.9c0-3.3,0.1-6.7,0-10c-0.1-2,0.4-2.7,2.6-2.7c5.3,0,5.3-0.1,5.3,5.1c0,5.9-0.1,11.8,0,17.7
			c0,1.9-0.3,2.7-2.5,2.7c-5.4-0.1-5.4,0.1-5.4-5.5C187,27.8,187,25.3,187,22.9z"/>
	</g>
</g>
</svg>
