<?xml version="1.0" encoding="utf-8"?>
<!-- Generator: Adobe Illustrator 22.1.0, SVG Export Plug-In . SVG Version: 6.00 Build 0)  -->
<svg version="1.1" id="Capa_1" xmlns="http://www.w3.org/2000/svg" xmlns:xlink="http://www.w3.org/1999/xlink" x="0px" y="0px"
	 viewBox="0 0 70.1 51" style="enable-background:new 0 0 70.1 51;" xml:space="preserve">
<style type="text/css">
	.st0{opacity:0.55;clip-path:url(#SVGID_2_);}
	.st1{fill:#004483;}
	.st2{opacity:5.000000e-02;}
	.st3{clip-path:url(#SVGID_4_);fill:#FFFFFF;}
	.st4{fill:none;stroke:#265D9A;stroke-width:1.5;stroke-miterlimit:10;}
	.st5{fill:#86878A;}
	.st6{opacity:0.85;fill:#FFFFFF;}
	.st7{opacity:0.85;fill:#9C9EA0;}
	.st8{fill:#FFFFFF;}
	.st9{fill:#C37930;}
	.st10{opacity:0.75;}
	.st11{fill:#2B6BA6;}
	.st12{fill:#265D9A;}
	.st13{fill:none;stroke:#265D9A;stroke-width:0.25;stroke-miterlimit:10;}
	.st14{fill:#2ECF6E;}
	.st15{clip-path:url(#SVGID_6_);fill:#FFFFFF;}
	.st16{clip-path:url(#SVGID_6_);}
	.st17{fill:#054B8C;}
	.st18{fill:#B02E33;}
	.st19{fill:#B33439;}
	.st20{fill:#B22E33;}
	.st21{fill:#AF2D32;}
	.st22{fill:#25A9C8;}
	.st23{clip-path:url(#SVGID_8_);fill:#FFFFFF;}
	.st24{clip-path:url(#SVGID_8_);fill:#B33439;}
	.st25{fill:#C2C2C2;}
	.st26{opacity:0.55;}
	.st27{fill:#F0F0F0;}
	.st28{clip-path:url(#SVGID_10_);fill:#FFFFFF;}
	.st29{opacity:0.5;fill:none;stroke:#BDBDBD;stroke-miterlimit:10;}
	.st30{fill:#D7D7D7;}
	.st31{fill:#2F4C86;}
	.st32{fill:#E0E1E2;}
	.st33{fill:#A3D423;}
	.st34{fill:#27608C;}
	.st35{fill:#749223;}
	.st36{fill:#FF0000;}
	.st37{fill:#CD7535;}
	.st38{opacity:0.8;}
	.st39{opacity:0.3;fill:#FFFFFF;stroke:#FFFFFF;stroke-miterlimit:10;}
	.st40{fill:#9C9EA0;}
	.st41{fill:none;stroke:#CD7535;stroke-width:3;stroke-miterlimit:10;}
	.st42{fill:url(#SVGID_11_);stroke:#265D9A;stroke-miterlimit:10;}
	.st43{fill:url(#SVGID_12_);stroke:#265D9A;stroke-miterlimit:10;}
	.st44{fill:#F2F2F2;}
	.st45{fill:#040707;}
	.st46{fill:#6F7175;}
	.st47{fill:#01CBF6;}
	.st48{fill:#00BFF4;}
	.st49{fill:#707276;}
	.st50{fill:#04E677;}
	.st51{fill:#04D7F6;}
	.st52{fill:#F5C202;}
	.st53{fill:#D73155;}
	.st54{fill:#E8354C;}
	.st55{fill:#F5CD05;}
	.st56{fill:#F23A45;}
	.st57{fill:#4D4D4D;}
	.st58{opacity:0.5;}
	.st59{opacity:0.55;clip-path:url(#SVGID_14_);}
	.st60{fill:none;stroke:#265D9A;stroke-width:3;stroke-miterlimit:10;}
	.st61{fill:none;stroke:#808080;stroke-width:1.5;stroke-miterlimit:10;}
	.st62{fill:#6D6D6D;}
	.st63{fill:none;stroke:#000000;stroke-miterlimit:10;}
	.st64{clip-path:url(#SVGID_20_);fill:#FFFFFF;}
	.st65{clip-path:url(#SVGID_20_);}
	.st66{clip-path:url(#SVGID_22_);fill:#FFFFFF;}
	.st67{clip-path:url(#SVGID_22_);fill:#B33439;}
	.st68{opacity:7.000000e-02;fill:#25A9C8;}
	.st69{opacity:0.55;clip-path:url(#SVGID_24_);}
	.st70{opacity:0.5;fill:none;stroke:#C2C2C2;stroke-miterlimit:10;}
	.st71{opacity:0.55;clip-path:url(#SVGID_26_);}
	.st72{fill:none;stroke:#A9A9A9;stroke-width:0.5;stroke-miterlimit:10;}
	.st73{clip-path:url(#SVGID_28_);fill:#FFFFFF;}
	.st74{clip-path:url(#SVGID_28_);}
	.st75{clip-path:url(#SVGID_30_);fill:#FFFFFF;}
	.st76{clip-path:url(#SVGID_30_);fill:#B33439;}
	.st77{fill:#0186CC;}
	.st78{fill:#015593;}
	.st79{fill:#085A97;}
	.st80{fill:#2496D3;}
	.st81{fill:#10619D;}
	.st82{fill:#4C90C4;}
	.st83{fill:#2673AC;}
	.st84{fill:#1A68A3;}
	.st85{fill:#327CB2;}
	.st86{fill:#3A81B8;}
	.st87{fill:#64A3D3;}
	.st88{fill:#00427A;}
	.st89{fill:#F7FAFB;}
	.st90{fill:#7EC0E4;}
	.st91{fill:#C0E0F1;}
	.st92{fill:#FBFCFC;}
	.st93{fill:#EEEEEE;}
	.st94{fill:none;stroke:#050505;stroke-width:0.5;stroke-miterlimit:10;}
	.st95{fill:#03397D;}
	.st96{fill:#C5CDD4;}
	.st97{fill:#C6CED4;}
	.st98{fill:#073B7E;}
	.st99{fill:#063B7E;}
	.st100{fill:#083C7F;}
	.st101{fill:#0C3E80;}
	.st102{fill:#0A3D7F;}
	.st103{fill:#D1D7DC;}
	.st104{fill:#EDEFF0;}
	.st105{fill:#DFE3E6;}
	.st106{fill:#0E4080;}
	.st107{fill:#FCFBFC;}
	.st108{fill:#878686;}
	.st109{fill:#6285C1;}
	.st110{fill:#E09F1B;}
	.st111{fill:#D07630;}
	.st112{fill:#5F7FBD;}
	.st113{fill:#039DDF;}
	.st114{fill:#3E579F;}
	.st115{fill:#8BC5DF;}
	.st116{fill:#E7BC3E;}
	.st117{fill:#DFEEF6;}
	.st118{fill:#888787;}
	.st119{fill:#4B4D96;}
	.st120{fill:#969595;}
	.st121{fill:#5FB2D1;}
	.st122{fill:#B1D5E7;}
	.st123{fill:#FFFFFF;stroke:#4D4D4D;stroke-width:0.15;stroke-miterlimit:10;}
	.st124{fill:none;stroke:#C2C2C2;stroke-width:0.25;stroke-miterlimit:10;}
	.st125{fill:none;stroke:#999999;stroke-width:0.5;stroke-miterlimit:10;}
	.st126{fill:#CF7535;}
	.st127{fill:#2F4C88;}
	.st128{fill:none;stroke:#CCCCCC;stroke-width:0.5;stroke-miterlimit:10;}
	.st129{fill:none;stroke:#2F4C88;stroke-width:0.5;stroke-miterlimit:10;}
	.st130{fill:#EFEFEF;}
	.st131{fill:none;stroke:#666666;stroke-width:0.5;stroke-miterlimit:10;}
	.st132{fill:#A9A9A9;}
	.st133{fill:#025290;}
	.st134{fill:#055492;}
	.st135{opacity:0.55;clip-path:url(#SVGID_34_);}
	.st136{fill:none;stroke:#FFFFFF;stroke-width:0.5;stroke-miterlimit:10;}
	.st137{fill:none;stroke:#4D4D4D;stroke-miterlimit:10;}
	.st138{fill:none;stroke:#FFFFFF;stroke-width:3;stroke-miterlimit:10;}
	.st139{fill:none;stroke:#FFFFFF;stroke-miterlimit:10;}
</style>
<path class="st12" d="M55,34.9c-0.9-1.1-2.4-1.9-4.2-2.2V32c0.3,0.2,0.6,0.2,0.9,0.2c0.3,0,0.7-0.1,0.8-0.2l1.8-1.1
	c0.5-0.3,0.7-0.7,0.7-1.2c0-0.4-0.1-0.8-0.4-1c-1-1.1-2.3-1.9-3.8-2.3v-0.9c0-0.9-0.7-1.6-1.6-1.6h-1.5c-0.9,0-1.6,0.7-1.6,1.6v0.9
	c-0.6,0.1-1.1,0.3-1.6,0.5c-2.3,1-3.4,2.6-3.4,4.8c0,1,0.3,2,1,2.8c0.9,1.2,2.2,2,4,2.4v1.5c-0.3-0.2-0.7-0.5-1-0.9
	c-0.3-0.4-0.8-0.6-1.3-0.6c-0.3,0-0.6,0.1-0.7,0.2L41.6,38c-0.5,0.3-0.8,0.7-0.8,1.3c0,0.3,0.1,0.7,0.3,0.9c0.4,0.6,1,1.2,1.7,1.7
	c1,0.8,2.1,1.3,3.3,1.6v0.7c0,0.9,0.7,1.6,1.6,1.6h1.5c0.9,0,1.6-0.7,1.6-1.6v-0.7c1-0.2,1.9-0.6,2.7-1.1c1.6-1.1,2.4-2.5,2.5-4.4
	C56.1,36.8,55.7,35.8,55,34.9z M49.3,42.8l0,1.4l-1.5,0v-1.4c0-0.4-0.3-0.7-0.7-0.8c-1.2-0.2-2.3-0.7-3.2-1.4
	c-0.6-0.4-1-0.9-1.4-1.3l1.4-0.8c0.1,0,0.1-0.1,0.1-0.1l0.1,0.1c0.8,0.9,1.7,1.5,2.7,1.9c0.2,0.1,0.5,0,0.7-0.1
	c0.2-0.1,0.3-0.4,0.3-0.6v-3.5c0-0.4-0.3-0.7-0.7-0.8c-1.7-0.3-3-0.9-3.7-1.9c-0.4-0.6-0.6-1.2-0.6-1.9c0-1.5,0.8-2.5,2.5-3.3
	c0.5-0.2,1.2-0.4,1.9-0.5c0.4-0.1,0.7-0.4,0.7-0.8l0-1.5l1.5,0v1.6c0,0.4,0.3,0.7,0.6,0.8c1.4,0.2,2.6,0.9,3.5,1.8l-1.5,0.9
	c-0.1,0-0.1,0.1-0.1,0.1c-0.1,0-0.1,0-0.2-0.1c-0.4-0.3-0.8-0.6-1.2-0.8c-0.2-0.1-0.5-0.1-0.8,0c-0.2,0.1-0.4,0.4-0.4,0.7v2.8
	c0,0.4,0.3,0.7,0.7,0.8c1.8,0.2,3.1,0.9,3.9,1.8c0.5,0.6,0.7,1.2,0.7,2c0,1.3-0.6,2.4-1.8,3.1c-0.8,0.5-1.7,0.8-2.8,1
	C49.6,42.1,49.3,42.4,49.3,42.8z M47.8,30.5v2.5c0,0.3-0.1,0.5-0.3,0.6c-0.1,0.1-0.3,0.1-0.4,0.1c-0.1,0-0.2,0-0.3-0.1
	c-1.3-0.5-1.5-1.5-1.5-2c0-0.5,0.2-1.3,1.3-1.9l0.2-0.1c0.2-0.1,0.5-0.1,0.7,0.1C47.6,30,47.8,30.2,47.8,30.5z M52.1,38
	c0,0.9-0.5,1.7-1.2,2.1c-0.1,0.1-0.3,0.2-0.4,0.2c-0.1,0-0.2,0.1-0.3,0.1c-0.2,0-0.3,0-0.4-0.1c-0.2-0.1-0.4-0.4-0.4-0.7v-3
	c0-0.2,0.1-0.5,0.3-0.6c0.2-0.1,0.5-0.2,0.7-0.1C51.8,36.3,52.1,37.4,52.1,38z M68.5,20.2C68.5,20.2,68.4,20.2,68.5,20.2
	c-0.4-0.5-0.9-0.8-1.3-1L43.3,0.7c-0.1-0.1-0.2-0.2-0.4-0.2l-0.2-0.1c0,0,0,0-0.1,0c-1.2-0.4-2.2-0.5-3.3-0.3c0,0,0,0-0.1,0l-0.1,0
	C28.6,3,14.6,6.8,7.7,8.6c-0.1,0-0.1,0-0.2,0.1L7.1,8.9C4.5,9.6,2.5,9.9,1.3,9.9C0.6,9.9,0,10.5,0,11.2v0.9c0,0.1,0,0.2,0,0.2
	l0,11.9c-0.1,0.3,0,0.7,0.2,1c0.2,0.3,0.6,0.5,1,0.5c3.6,0,6,1.9,8.8,4.1c0.6,0.5,1.2,1,1.9,1.4c2.6,1.9,5.8,3.9,10.5,3.9
	c2,0,3.6,0,4.9-0.1h5.6C33.1,44,39.9,51,48.1,51c8.4,0,15.2-7.2,15.2-16.1c0-1.7-0.3-3.4-0.8-5c0,0,0.1,0,0.1,0.1
	c0.2,0.1,0.4,0.1,0.7,0.2c0.7,0.1,1.2,0.1,1.7,0c2.8-0.3,5-2.8,5-5.8C70.1,22.8,69.5,21.3,68.5,20.2z M48.1,49.3
	c-7.1,0-13-5.9-13.4-13.4H37c1.9,0,3.6-1.3,4.2-3.1c0.1,0.3,0.1-2.8,0.1-2.8c-0.3-1.3-1.2-2.4-2.4-3.1c-0.6-0.3-1.3-0.5-1.9-0.5h0.2
	c2.5-3.7,6.6-6,10.9-6c0.2,0,0.4,0,0.6,0l10.4,7.2l1.1,0.8c0.9,2,1.4,4.1,1.4,6.4C61.5,42.8,55.5,49.3,48.1,49.3z M34.9,26.9
	c0,0,0,0.1-0.1,0.1h-6.8c-1.2-0.3-2.1-1.5-2.1-2.9c0-1,0.5-1.9,1.3-2.5c0.4-0.1,1.3-0.4,2.5-0.7l0.9-0.3c1.1-0.3,2.3-0.6,3.5-1
	l0.2-0.1c5.1-1.4,8.3-2.3,9.1-2.5c0.3,0,0.5,0,0.7,0l2.3,1.6C41.7,19.3,37.3,22.3,34.9,26.9z M64.8,27.5c-0.1,0-0.1,0-0.2,0
	c-0.3,0.1-0.5,0.1-0.8,0c-0.1,0-0.2,0-0.3-0.1c-0.1,0-0.3-0.1-0.4-0.2c-0.1,0-0.2-0.1-0.2-0.1c0,0,0,0-0.1,0l-2.6-2c0,0,0,0-0.1,0
	L45.5,14.9c-0.1-0.1-0.3-0.1-0.4-0.2c-0.5-0.1-1.1-0.2-1.8-0.1c-0.1,0-0.2,0-0.2,0c-0.8,0.2-5.5,1.5-9.3,2.6l-0.3,0.1
	c-1.2,0.4-2.3,0.7-3.4,1l-1,0.3c-1.4,0.4-2.4,0.7-2.7,0.8c-0.1,0-0.2,0.1-0.3,0.1c-1.7,1-2.7,2.8-2.7,4.8c0,2.7,1.8,5,4.4,5.4
	c0.1,0,0.1,0,0.2,0h9.3c0.7,0,1.3,0.7,1.3,1.5c0,0.8-0.6,1.5-1.3,1.5l-10,0c-1.3,0-2.9,0.1-4.8,0.1c-3.9,0-6.6-1.6-9-3.4
	c-0.6-0.5-1.2-0.9-1.8-1.4c-2.6-2.1-5.3-4.2-9.1-4.6V14l0-1.4c0-0.1,0-0.1,0-0.2c1.3-0.2,3.1-0.5,5.2-1.1c0,0,0.1,0,0.1,0l0.5-0.2
	c6.9-1.8,20.9-5.6,31.3-8.4l0.1,0c0.6-0.1,1.2-0.1,1.9,0.2l0.1,0l22.8,17.7l1,0.8c0.1,0,0.1,0.1,0.2,0.1c0.3,0.1,0.5,0.3,0.7,0.5
	c0,0,0,0,0,0c0.6,0.6,0.9,1.4,0.9,2.3C67.5,26,66.3,27.3,64.8,27.5z"/>
</svg>
