<?xml version="1.0" encoding="utf-8"?>
<!-- Generator: Adobe Illustrator 22.1.0, SVG Export Plug-In . SVG Version: 6.00 Build 0)  -->
<svg version="1.1" id="Capa_1" xmlns="http://www.w3.org/2000/svg" xmlns:xlink="http://www.w3.org/1999/xlink" x="0px" y="0px"
	 viewBox="0 0 50.7 68.1" style="enable-background:new 0 0 50.7 68.1;" xml:space="preserve">
<style type="text/css">
	.st0{opacity:0.55;clip-path:url(#SVGID_2_);}
	.st1{fill:#004483;}
	.st2{opacity:5.000000e-02;}
	.st3{clip-path:url(#SVGID_4_);fill:#FFFFFF;}
	.st4{fill:none;stroke:#265D9A;stroke-width:1.5;stroke-miterlimit:10;}
	.st5{fill:#86878A;}
	.st6{opacity:0.85;fill:#FFFFFF;}
	.st7{opacity:0.85;fill:#9C9EA0;}
	.st8{fill:#FFFFFF;}
	.st9{fill:#C37930;}
	.st10{opacity:0.75;}
	.st11{fill:#2B6BA6;}
	.st12{fill:#265D9A;}
	.st13{fill:none;stroke:#265D9A;stroke-width:0.25;stroke-miterlimit:10;}
	.st14{fill:#2ECF6E;}
	.st15{clip-path:url(#SVGID_6_);fill:#FFFFFF;}
	.st16{clip-path:url(#SVGID_6_);}
	.st17{fill:#054B8C;}
	.st18{fill:#B02E33;}
	.st19{fill:#B33439;}
	.st20{fill:#B22E33;}
	.st21{fill:#AF2D32;}
	.st22{fill:#25A9C8;}
	.st23{clip-path:url(#SVGID_8_);fill:#FFFFFF;}
	.st24{clip-path:url(#SVGID_8_);fill:#B33439;}
	.st25{fill:#C2C2C2;}
	.st26{opacity:0.55;}
	.st27{fill:#F0F0F0;}
	.st28{clip-path:url(#SVGID_10_);fill:#FFFFFF;}
	.st29{opacity:0.5;fill:none;stroke:#BDBDBD;stroke-miterlimit:10;}
	.st30{fill:#D7D7D7;}
	.st31{fill:#2F4C86;}
	.st32{fill:#E0E1E2;}
	.st33{fill:#A3D423;}
	.st34{fill:#27608C;}
	.st35{fill:#749223;}
	.st36{fill:#FF0000;}
	.st37{fill:#CD7535;}
	.st38{opacity:0.8;}
	.st39{opacity:0.3;fill:#FFFFFF;stroke:#FFFFFF;stroke-miterlimit:10;}
	.st40{fill:#9C9EA0;}
	.st41{fill:none;stroke:#CD7535;stroke-width:3;stroke-miterlimit:10;}
	.st42{fill:url(#SVGID_11_);stroke:#265D9A;stroke-miterlimit:10;}
	.st43{fill:url(#SVGID_12_);stroke:#265D9A;stroke-miterlimit:10;}
	.st44{fill:#F2F2F2;}
	.st45{fill:#040707;}
	.st46{fill:#6F7175;}
	.st47{fill:#01CBF6;}
	.st48{fill:#00BFF4;}
	.st49{fill:#707276;}
	.st50{fill:#04E677;}
	.st51{fill:#04D7F6;}
	.st52{fill:#F5C202;}
	.st53{fill:#D73155;}
	.st54{fill:#E8354C;}
	.st55{fill:#F5CD05;}
	.st56{fill:#F23A45;}
	.st57{fill:#4D4D4D;}
	.st58{opacity:0.5;}
	.st59{opacity:0.55;clip-path:url(#SVGID_14_);}
	.st60{fill:none;stroke:#265D9A;stroke-width:3;stroke-miterlimit:10;}
	.st61{fill:none;stroke:#808080;stroke-width:1.5;stroke-miterlimit:10;}
	.st62{fill:#6D6D6D;}
	.st63{fill:none;stroke:#000000;stroke-miterlimit:10;}
	.st64{clip-path:url(#SVGID_20_);fill:#FFFFFF;}
	.st65{clip-path:url(#SVGID_20_);}
	.st66{clip-path:url(#SVGID_22_);fill:#FFFFFF;}
	.st67{clip-path:url(#SVGID_22_);fill:#B33439;}
	.st68{opacity:7.000000e-02;fill:#25A9C8;}
	.st69{opacity:0.55;clip-path:url(#SVGID_24_);}
	.st70{opacity:0.5;fill:none;stroke:#C2C2C2;stroke-miterlimit:10;}
	.st71{opacity:0.55;clip-path:url(#SVGID_26_);}
	.st72{fill:none;stroke:#A9A9A9;stroke-width:0.5;stroke-miterlimit:10;}
	.st73{clip-path:url(#SVGID_28_);fill:#FFFFFF;}
	.st74{clip-path:url(#SVGID_28_);}
	.st75{clip-path:url(#SVGID_30_);fill:#FFFFFF;}
	.st76{clip-path:url(#SVGID_30_);fill:#B33439;}
	.st77{fill:#0186CC;}
	.st78{fill:#015593;}
	.st79{fill:#085A97;}
	.st80{fill:#2496D3;}
	.st81{fill:#10619D;}
	.st82{fill:#4C90C4;}
	.st83{fill:#2673AC;}
	.st84{fill:#1A68A3;}
	.st85{fill:#327CB2;}
	.st86{fill:#3A81B8;}
	.st87{fill:#64A3D3;}
	.st88{fill:#00427A;}
	.st89{fill:#F7FAFB;}
	.st90{fill:#7EC0E4;}
	.st91{fill:#C0E0F1;}
	.st92{fill:#FBFCFC;}
	.st93{fill:#EEEEEE;}
	.st94{fill:none;stroke:#050505;stroke-width:0.5;stroke-miterlimit:10;}
	.st95{fill:#03397D;}
	.st96{fill:#C5CDD4;}
	.st97{fill:#C6CED4;}
	.st98{fill:#073B7E;}
	.st99{fill:#063B7E;}
	.st100{fill:#083C7F;}
	.st101{fill:#0C3E80;}
	.st102{fill:#0A3D7F;}
	.st103{fill:#D1D7DC;}
	.st104{fill:#EDEFF0;}
	.st105{fill:#DFE3E6;}
	.st106{fill:#0E4080;}
	.st107{fill:#FCFBFC;}
	.st108{fill:#878686;}
	.st109{fill:#6285C1;}
	.st110{fill:#E09F1B;}
	.st111{fill:#D07630;}
	.st112{fill:#5F7FBD;}
	.st113{fill:#039DDF;}
	.st114{fill:#3E579F;}
	.st115{fill:#8BC5DF;}
	.st116{fill:#E7BC3E;}
	.st117{fill:#DFEEF6;}
	.st118{fill:#888787;}
	.st119{fill:#4B4D96;}
	.st120{fill:#969595;}
	.st121{fill:#5FB2D1;}
	.st122{fill:#B1D5E7;}
	.st123{fill:#FFFFFF;stroke:#4D4D4D;stroke-width:0.15;stroke-miterlimit:10;}
	.st124{fill:none;stroke:#C2C2C2;stroke-width:0.25;stroke-miterlimit:10;}
	.st125{fill:none;stroke:#999999;stroke-width:0.5;stroke-miterlimit:10;}
	.st126{fill:#CF7535;}
	.st127{fill:#2F4C88;}
	.st128{fill:none;stroke:#CCCCCC;stroke-width:0.5;stroke-miterlimit:10;}
	.st129{fill:none;stroke:#2F4C88;stroke-width:0.5;stroke-miterlimit:10;}
	.st130{fill:#EFEFEF;}
	.st131{fill:none;stroke:#666666;stroke-width:0.5;stroke-miterlimit:10;}
	.st132{fill:#A9A9A9;}
	.st133{fill:#025290;}
	.st134{fill:#055492;}
	.st135{opacity:0.55;clip-path:url(#SVGID_34_);}
	.st136{fill:none;stroke:#FFFFFF;stroke-width:0.5;stroke-miterlimit:10;}
	.st137{fill:none;stroke:#4D4D4D;stroke-miterlimit:10;}
	.st138{fill:none;stroke:#FFFFFF;stroke-width:3;stroke-miterlimit:10;}
	.st139{fill:none;stroke:#FFFFFF;stroke-miterlimit:10;}
</style>
<path class="st12" d="M1.3,33.9c-0.6,0-1.2,0.4-1.3,1c-0.1,0.6,0.3,1.2,0.9,1.3c4.4,1,8.4,1.4,12,1.4c17.1,0,25.9-9.8,32.2-20.2
	l3.8,2.3c0.4,0.2,0.9,0.2,1.3,0c0.4-0.3,0.6-0.7,0.5-1.2L48.3,4c-0.1-0.4-0.3-0.7-0.6-0.8C47.4,3,47,3,46.6,3.1L33.7,8.6
	C33.3,8.8,33,9.2,33,9.7c0,0.5,0.2,0.9,0.7,1.1l3.9,1.9C27.1,35.6,2.3,34,1.3,33.9z M40.2,12.6c0.2-0.6,0-1.2-0.6-1.5L37,9.8
	l9.2-3.9L48,16.4l-2.6-1.6c-0.3-0.2-0.6-0.2-0.9-0.1c-0.3,0.1-0.6,0.3-0.7,0.5c-6.3,10.8-14.7,20.4-31.6,20
	C21.3,33.3,33.8,27.8,40.2,12.6z M5.1,49C2.8,49,1,51.2,1,54.1V63c0,2.9,1.8,5.1,4.1,5.1h5.6c2.3,0,4.1-2.2,4.1-5.1v-8.9
	c0-2.9-1.8-5.1-4.1-5.1H5.1z M12.4,54.1V63c0,1.4-0.8,2.7-1.7,2.7H5.1c-0.9,0-1.7-1.3-1.7-2.7v-8.9c0-1.4,0.8-2.7,1.7-2.7h5.6
	C11.6,51.4,12.4,52.6,12.4,54.1z M21.9,40.6c-2.3,0-4.1,2.2-4.1,5.1V63c0,2.9,1.8,5.1,4.1,5.1h5.6c2.3,0,4.1-2.2,4.1-5.1V45.7
	c0-2.9-1.8-5.1-4.1-5.1H21.9z M29.2,45.7V63c0,1.4-0.8,2.7-1.7,2.7h-5.6c-0.9,0-1.7-1.3-1.7-2.7V45.7c0-1.4,0.8-2.7,1.7-2.7h5.6
	C28.4,43,29.2,44.3,29.2,45.7z M46,30.6h-5.6c-2.3,0-4.1,2.2-4.1,5.1V63c0,2.9,1.8,5.1,4.1,5.1H46c2.3,0,4.1-2.2,4.1-5.1V35.7
	C50.1,32.8,48.3,30.6,46,30.6z M47.8,63c0,1.4-0.8,2.7-1.7,2.7h-5.6c-0.9,0-1.7-1.3-1.7-2.7V35.7c0-1.4,0.8-2.7,1.7-2.7H46
	c0.9,0,1.7,1.3,1.7,2.7V63z M23,13.8c-1.2-1.4-3-2.4-5.3-2.8v-0.8c0.3,0.2,0.7,0.3,1.1,0.3c0.4,0,0.9-0.2,1.1-0.3l2.2-1.4
	c0.6-0.4,0.9-0.9,0.9-1.5c0-0.5-0.2-1-0.5-1.3c-1.3-1.4-2.9-2.4-4.8-2.9V2c0-1.1-0.9-2-2-2h-1.9c-1.1,0-2,0.9-2,2v1.1
	c-0.7,0.2-1.4,0.4-2,0.7C7,5.1,5.6,7.1,5.6,9.8c0,1.3,0.4,2.5,1.2,3.5c1.1,1.5,2.8,2.5,5.1,3v1.9c-0.4-0.3-0.8-0.7-1.2-1.1
	c-0.4-0.5-1-0.8-1.6-0.8c-0.3,0-0.7,0.1-0.9,0.2l-2,1.2c-0.6,0.4-1,0.9-1,1.6c0,0.4,0.2,0.8,0.4,1.1c0.5,0.8,1.3,1.5,2.2,2.2
	c1.2,0.9,2.6,1.6,4.2,2v0.9c0,1.1,0.9,2,2,2h1.9c1.1,0,2-0.9,2-2v-0.9c1.3-0.3,2.4-0.8,3.4-1.4c2-1.3,3.1-3.2,3.1-5.5
	C24.3,16.2,23.9,14.9,23,13.8z M15.8,23.8l0,1.8l-1.9,0v-1.7c0-0.5-0.3-0.9-0.8-1c-1.5-0.2-2.9-0.8-4.1-1.8
	c-0.7-0.5-1.3-1.1-1.7-1.7l1.7-1c0.1,0,0.2-0.1,0.2-0.1l0.1,0.1c1,1.1,2.2,1.9,3.4,2.3c0.3,0.1,0.6,0.1,0.9-0.1
	c0.3-0.2,0.4-0.5,0.4-0.8v-4.4c0-0.5-0.4-0.9-0.8-1c-2.2-0.3-3.7-1.1-4.7-2.4c-0.5-0.7-0.8-1.5-0.8-2.4c0-1.9,1-3.2,3.1-4.2
	C11.4,5.2,12.2,5,13,4.9c0.5-0.1,0.8-0.5,0.8-1l0-1.9l1.9,0v2c0,0.5,0.3,0.9,0.8,1C18.4,5.3,19.8,6,21,7.3l-1.9,1.2
	c-0.1,0-0.2,0.1-0.2,0.1c-0.1,0-0.2,0-0.2-0.1c-0.5-0.4-1-0.7-1.5-1c-0.3-0.1-0.7-0.1-0.9,0.1C16,7.7,15.8,8,15.8,8.3v3.5
	c0,0.5,0.4,0.9,0.9,1c2.2,0.3,3.9,1.1,4.9,2.3c0.6,0.7,0.8,1.5,0.8,2.6c0,1.7-0.8,3-2.2,3.9c-1,0.6-2.1,1.1-3.5,1.3
	C16.2,22.9,15.8,23.3,15.8,23.8z M13.9,8.3v3.1c0,0.3-0.2,0.6-0.4,0.8c-0.2,0.1-0.4,0.2-0.6,0.2c-0.1,0-0.2,0-0.4-0.1
	c-1.6-0.6-1.8-1.8-1.9-2.5c0-0.6,0.2-1.7,1.6-2.4l0.2-0.1c0.3-0.1,0.6-0.1,0.9,0.1C13.7,7.6,13.9,7.9,13.9,8.3z M19.3,17.7
	c0,1.1-0.6,2.1-1.6,2.7c-0.2,0.1-0.4,0.2-0.5,0.3c-0.1,0.1-0.3,0.1-0.4,0.1c-0.2,0-0.4-0.1-0.5-0.2c-0.3-0.2-0.5-0.5-0.5-0.8v-3.8
	c0-0.3,0.2-0.6,0.4-0.8c0.2-0.2,0.6-0.2,0.9-0.1C19,15.6,19.3,16.9,19.3,17.7z"/>
</svg>
