<?xml version="1.0" encoding="utf-8"?>
<!-- Generator: Adobe Illustrator 22.1.0, SVG Export Plug-In . SVG Version: 6.00 Build 0)  -->
<svg version="1.1" id="Capa_1" xmlns="http://www.w3.org/2000/svg" xmlns:xlink="http://www.w3.org/1999/xlink" x="0px" y="0px"
	 viewBox="0 0 70.4 75.2" style="enable-background:new 0 0 70.4 75.2;" xml:space="preserve">
<style type="text/css">
	.st0{opacity:0.55;clip-path:url(#SVGID_2_);}
	.st1{fill:#004483;}
	.st2{opacity:5.000000e-02;}
	.st3{clip-path:url(#SVGID_4_);fill:#FFFFFF;}
	.st4{fill:none;stroke:#265D9A;stroke-width:1.5;stroke-miterlimit:10;}
	.st5{fill:#86878A;}
	.st6{opacity:0.85;fill:#FFFFFF;}
	.st7{opacity:0.85;fill:#9C9EA0;}
	.st8{fill:#FFFFFF;}
	.st9{fill:#C37930;}
	.st10{opacity:0.75;}
	.st11{fill:#2B6BA6;}
	.st12{fill:#265D9A;}
	.st13{fill:none;stroke:#265D9A;stroke-width:0.25;stroke-miterlimit:10;}
	.st14{fill:#2ECF6E;}
	.st15{clip-path:url(#SVGID_6_);fill:#FFFFFF;}
	.st16{clip-path:url(#SVGID_6_);}
	.st17{fill:#054B8C;}
	.st18{fill:#B02E33;}
	.st19{fill:#B33439;}
	.st20{fill:#B22E33;}
	.st21{fill:#AF2D32;}
	.st22{fill:#25A9C8;}
	.st23{clip-path:url(#SVGID_8_);fill:#FFFFFF;}
	.st24{clip-path:url(#SVGID_8_);fill:#B33439;}
	.st25{fill:#C2C2C2;}
	.st26{opacity:0.55;}
	.st27{fill:#F0F0F0;}
	.st28{clip-path:url(#SVGID_10_);fill:#FFFFFF;}
	.st29{opacity:0.5;fill:none;stroke:#BDBDBD;stroke-miterlimit:10;}
	.st30{fill:#D7D7D7;}
	.st31{fill:#2F4C86;}
	.st32{fill:#E0E1E2;}
	.st33{fill:#A3D423;}
	.st34{fill:#27608C;}
	.st35{fill:#749223;}
	.st36{fill:#FF0000;}
	.st37{fill:#CD7535;}
	.st38{opacity:0.8;}
	.st39{opacity:0.3;fill:#FFFFFF;stroke:#FFFFFF;stroke-miterlimit:10;}
	.st40{fill:#9C9EA0;}
	.st41{fill:none;stroke:#CD7535;stroke-width:3;stroke-miterlimit:10;}
	.st42{fill:url(#SVGID_11_);stroke:#265D9A;stroke-miterlimit:10;}
	.st43{fill:url(#SVGID_12_);stroke:#265D9A;stroke-miterlimit:10;}
	.st44{fill:#F2F2F2;}
	.st45{fill:#040707;}
	.st46{fill:#6F7175;}
	.st47{fill:#01CBF6;}
	.st48{fill:#00BFF4;}
	.st49{fill:#707276;}
	.st50{fill:#04E677;}
	.st51{fill:#04D7F6;}
	.st52{fill:#F5C202;}
	.st53{fill:#D73155;}
	.st54{fill:#E8354C;}
	.st55{fill:#F5CD05;}
	.st56{fill:#F23A45;}
	.st57{fill:#4D4D4D;}
	.st58{opacity:0.5;}
	.st59{opacity:0.55;clip-path:url(#SVGID_14_);}
	.st60{fill:none;stroke:#265D9A;stroke-width:3;stroke-miterlimit:10;}
	.st61{fill:none;stroke:#808080;stroke-width:1.5;stroke-miterlimit:10;}
	.st62{fill:#6D6D6D;}
	.st63{fill:none;stroke:#000000;stroke-miterlimit:10;}
	.st64{clip-path:url(#SVGID_20_);fill:#FFFFFF;}
	.st65{clip-path:url(#SVGID_20_);}
	.st66{clip-path:url(#SVGID_22_);fill:#FFFFFF;}
	.st67{clip-path:url(#SVGID_22_);fill:#B33439;}
	.st68{opacity:7.000000e-02;fill:#25A9C8;}
	.st69{opacity:0.55;clip-path:url(#SVGID_24_);}
	.st70{opacity:0.5;fill:none;stroke:#C2C2C2;stroke-miterlimit:10;}
	.st71{opacity:0.55;clip-path:url(#SVGID_26_);}
	.st72{fill:none;stroke:#A9A9A9;stroke-width:0.5;stroke-miterlimit:10;}
	.st73{clip-path:url(#SVGID_28_);fill:#FFFFFF;}
	.st74{clip-path:url(#SVGID_28_);}
	.st75{clip-path:url(#SVGID_30_);fill:#FFFFFF;}
	.st76{clip-path:url(#SVGID_30_);fill:#B33439;}
	.st77{fill:#0186CC;}
	.st78{fill:#015593;}
	.st79{fill:#085A97;}
	.st80{fill:#2496D3;}
	.st81{fill:#10619D;}
	.st82{fill:#4C90C4;}
	.st83{fill:#2673AC;}
	.st84{fill:#1A68A3;}
	.st85{fill:#327CB2;}
	.st86{fill:#3A81B8;}
	.st87{fill:#64A3D3;}
	.st88{fill:#00427A;}
	.st89{fill:#F7FAFB;}
	.st90{fill:#7EC0E4;}
	.st91{fill:#C0E0F1;}
	.st92{fill:#FBFCFC;}
	.st93{fill:#EEEEEE;}
	.st94{fill:none;stroke:#050505;stroke-width:0.5;stroke-miterlimit:10;}
	.st95{fill:#03397D;}
	.st96{fill:#C5CDD4;}
	.st97{fill:#C6CED4;}
	.st98{fill:#073B7E;}
	.st99{fill:#063B7E;}
	.st100{fill:#083C7F;}
	.st101{fill:#0C3E80;}
	.st102{fill:#0A3D7F;}
	.st103{fill:#D1D7DC;}
	.st104{fill:#EDEFF0;}
	.st105{fill:#DFE3E6;}
	.st106{fill:#0E4080;}
	.st107{fill:#FCFBFC;}
	.st108{fill:#878686;}
	.st109{fill:#6285C1;}
	.st110{fill:#E09F1B;}
	.st111{fill:#D07630;}
	.st112{fill:#5F7FBD;}
	.st113{fill:#039DDF;}
	.st114{fill:#3E579F;}
	.st115{fill:#8BC5DF;}
	.st116{fill:#E7BC3E;}
	.st117{fill:#DFEEF6;}
	.st118{fill:#888787;}
	.st119{fill:#4B4D96;}
	.st120{fill:#969595;}
	.st121{fill:#5FB2D1;}
	.st122{fill:#B1D5E7;}
	.st123{fill:#FFFFFF;stroke:#4D4D4D;stroke-width:0.15;stroke-miterlimit:10;}
	.st124{fill:none;stroke:#C2C2C2;stroke-width:0.25;stroke-miterlimit:10;}
	.st125{fill:none;stroke:#999999;stroke-width:0.5;stroke-miterlimit:10;}
	.st126{fill:#CF7535;}
	.st127{fill:#2F4C88;}
	.st128{fill:none;stroke:#CCCCCC;stroke-width:0.5;stroke-miterlimit:10;}
	.st129{fill:none;stroke:#2F4C88;stroke-width:0.5;stroke-miterlimit:10;}
	.st130{fill:#EFEFEF;}
	.st131{fill:none;stroke:#666666;stroke-width:0.5;stroke-miterlimit:10;}
	.st132{fill:#A9A9A9;}
	.st133{fill:#025290;}
	.st134{fill:#055492;}
	.st135{opacity:0.55;clip-path:url(#SVGID_34_);}
	.st136{fill:none;stroke:#FFFFFF;stroke-width:0.5;stroke-miterlimit:10;}
	.st137{fill:none;stroke:#4D4D4D;stroke-miterlimit:10;}
	.st138{fill:none;stroke:#FFFFFF;stroke-width:3;stroke-miterlimit:10;}
	.st139{fill:none;stroke:#FFFFFF;stroke-miterlimit:10;}
</style>
<path class="st12" d="M55.4,60.3l-10.8-1.2c-0.9-0.1-1.7,0.3-2.2,1c-0.5,0.7-0.5,1.7,0,2.4l0.9,1.4c-2.7,1.6-5.6,2.5-8.7,2.8
	c-5.3,0.5-10.2-1-13.3-2.3c-1.8-0.8-3.2-1.6-4.1-2.1c-0.5-0.3-0.9-0.5-1.1-0.7l-0.3-0.2c-1-0.8-2.4-0.6-3.2,0.4
	c-0.8,1-0.6,2.4,0.3,3.2c6.9,5.7,13.1,8.9,19.2,9.8c1.2,0.2,2.5,0.3,3.7,0.3c1.8,0,3.5-0.2,5.3-0.6c2.3-0.5,4.6-1.2,7-2.3l1.2,1.7
	c0.5,0.7,1.3,1.1,2.2,1c0.9-0.1,1.6-0.7,1.9-1.5l3.9-10c0.3-0.7,0.2-1.4-0.2-2C56.8,60.8,56.1,60.4,55.4,60.3z M46.5,66
	c0.8-0.5,1-1.5,0.5-2.3l-0.6-1l7.2,0.8L51,70.4l-0.9-1.2c-0.5-0.7-1.4-0.9-2.1-0.6c-2.7,1.3-5.1,2.2-7.5,2.7
	c-2.7,0.6-5.2,0.6-7.8,0.2c-2.1-0.3-4.2-0.9-6.3-1.9c2.6,0.6,5.5,0.9,8.7,0.6C39.1,69.8,43,68.4,46.5,66z M14,14.8L24.8,16
	c0.1,0,0.2,0,0.3,0c0.8,0,1.5-0.4,1.9-1.1c0.5-0.7,0.5-1.7,0-2.4l-0.9-1.4c2.7-1.6,5.6-2.5,8.7-2.8c5.3-0.5,10.2,1,13.3,2.3
	c1.8,0.8,3.2,1.6,4.1,2.1c0.5,0.3,0.8,0.5,1.1,0.7c0.1,0.1,0.2,0.1,0.3,0.2c1,0.8,2.4,0.6,3.2-0.4c0.8-1,0.6-2.4-0.3-3.2
	c-6.9-5.7-13.2-8.9-19.2-9.8c-3-0.5-6-0.4-9,0.3c-2.3,0.5-4.6,1.2-7,2.3l-1.2-1.7c-0.5-0.7-1.3-1.1-2.2-1c-0.9,0.1-1.6,0.7-1.9,1.5
	l-3.9,10c-0.3,0.7-0.2,1.4,0.2,2C12.6,14.3,13.3,14.8,14,14.8z M36.8,3.6C38.9,4,41,4.6,43.2,5.5c-2.6-0.6-5.5-0.9-8.7-0.6
	c-4.1,0.4-8,1.8-11.6,4.2c-0.8,0.5-1,1.5-0.5,2.3l0.6,1l-7.2-0.8l2.7-6.8L19.3,6c0.5,0.7,1.4,0.9,2.1,0.6c2.7-1.3,5.1-2.2,7.5-2.7
	C31.7,3.3,34.2,3.3,36.8,3.6z M13.1,41.1L13.1,41.1c2.8,0,5.4-1.1,7.4-3.1c2-2,3.1-4.6,3.1-7.4c0-5.8-4.7-10.5-10.5-10.5
	c-2.8,0-5.4,1.1-7.4,3.1c-2,2-3.1,4.6-3.1,7.4C2.7,36.4,7.4,41.1,13.1,41.1z M6.3,30.7c0-1.8,0.7-3.5,2-4.8c1.3-1.3,3-2,4.8-2
	c3.8,0,6.8,3.1,6.8,6.8c0,1.8-0.7,3.5-2,4.8c-1.3,1.3-3,2-4.8,2C9.4,37.5,6.3,34.4,6.3,30.7z M26.3,54.6L26.3,54.6
	c0-0.4,0.2-9-5.2-14c-0.7-0.6-1.6-0.6-2.3-0.1c-0.2,0.2-5.6,4.2-10.7,0c-0.7-0.6-1.7-0.5-2.3,0c-0.2,0.2-5.5,4.9-5.6,14
	c0,0.5,0.2,1,0.5,1.3c0.3,0.3,0.8,0.5,1.3,0.5l22.6,0C25.4,56.4,26.2,55.6,26.3,54.6z M3.7,52.8c0.5-4.2,2.1-6.9,3.3-8.4
	c4.4,2.7,9.2,1.8,12.5,0c2.1,2.6,2.8,6.2,3,8.4L3.7,52.8z M49.8,23.3c-2,2-3.1,4.6-3.1,7.4c0,5.8,4.7,10.5,10.5,10.5
	c2.8,0,5.4-1.1,7.4-3.1c2-2,3.1-4.6,3.1-7.4c0-5.8-4.7-10.5-10.5-10.5C54.4,20.2,51.8,21.3,49.8,23.3z M64.1,30.7
	c0,1.8-0.7,3.5-2,4.8c-1.3,1.3-3,2-4.8,2c-3.8,0-6.8-3.1-6.8-6.8c0-1.8,0.7-3.5,2-4.8c1.3-1.3,3-2,4.8-2
	C61,23.8,64.1,26.9,64.1,30.7z M65.1,40.6c-0.6-0.6-1.6-0.6-2.3-0.1c-0.1,0-5.6,4.2-10.7,0c-0.7-0.6-1.7-0.5-2.3,0
	c-0.2,0.2-5.5,4.9-5.6,14c0,0.5,0.2,1,0.5,1.3c0.3,0.4,0.8,0.5,1.3,0.5l22.6,0c1,0,1.8-0.8,1.8-1.8C70.4,54.3,70.6,45.6,65.1,40.6z
	 M66.6,52.7l-18.8,0c0.5-4.2,2.1-6.9,3.3-8.4c4.4,2.7,9.2,1.8,12.5,0C65.8,47,66.4,50.5,66.6,52.7z"/>
</svg>
